<?xml version="1.0" encoding="UTF-8"?>
<svg width="94px" height="94px" viewBox="0 0 94 94" version="1.1" xmlns="http://www.w3.org/2000/svg" xmlns:xlink="http://www.w3.org/1999/xlink">
    <title>acme</title>
    <g id="Page-1" stroke="none" stroke-width="1" fill="none" fill-rule="evenodd">
        <g id="acme" transform="translate(1.000000, 1.000000)" stroke="#4CAFDE">
            <circle id="Oval" stroke-width="2.8347" cx="45.79" cy="45.79" r="45.374"></circle>
            <g id="Line-6" transform="translate(21.000000, 22.000000)" stroke-linecap="square" stroke-width="3">
                <line x1="5.5" y1="15.5" x2="0.5" y2="24.5" id="Line"></line>
                <line x1="21.5" y1="0.5" x2="3.5" y2="32.5" id="Line"></line>
                <line x1="14.5" y1="0.5" x2="9.5" y2="9.5" id="Line"></line>
                <line x1="48.5" y1="18.5" x2="44.5" y2="26.5" id="Line" transform="translate(46.500000, 22.500000) scale(-1, 1) translate(-46.500000, -22.500000) "></line>
                <line x1="41.5" y1="9.5" x2="39.5" y2="13.5" id="Line" transform="translate(40.500000, 11.500000) scale(-1, 1) translate(-40.500000, -11.500000) "></line>
                <line x1="35.5" y1="0.5" x2="33.5" y2="4.5" id="Line" transform="translate(34.500000, 2.500000) scale(-1, 1) translate(-34.500000, -2.500000) "></line>
                <line x1="5.5" y1="36.5" x2="42.5" y2="36.5" id="Line-2"></line>
                <line x1="13.5" y1="27.5" x2="23.5" y2="10.5" id="Line-3"></line>
                <line x1="21.5" y1="26.5" x2="37.5" y2="26.5" id="Line-4"></line>
                <line x1="10.5" y1="41.5" x2="19.5" y2="41.5" id="Line-4"></line>
                <line x1="34.5" y1="41.5" x2="38.5" y2="41.5" id="Line-4"></line>
                <line x1="26" y1="42" x2="27.5" y2="41.5" id="Line-4" transform="translate(26.500000, 41.500000) rotate(18.434949) translate(-26.500000, -41.500000) "></line>
                <line x1="26.5" y1="0.5" x2="42.5" y2="27.5" id="Line-5"></line>
            </g>
        </g>
    </g>
</svg>