<?xml version="1.0" encoding="UTF-8"?>
<svg width="1138px" height="477px" viewBox="0 0 1138 477" version="1.1" xmlns="http://www.w3.org/2000/svg" xmlns:xlink="http://www.w3.org/1999/xlink">
    <!-- Generator: Sketch 49 (51002) - http://www.bohemiancoding.com/sketch -->
    <title>austronauts</title>
    <desc>Created with Sketch.</desc>
    <defs></defs>
    <g id="Page-1" stroke="none" stroke-width="1" fill="none" fill-rule="evenodd">
        <g id="austronauts_and_elipse" transform="translate(-4431.000000, -133.000000)" fill-rule="nonzero">
            <g id="austronauts" transform="translate(4431.000000, 133.000000)">
                <g id="blueastronaut" transform="translate(1014.000000, 0.000000)">
                    <ellipse id="Ellipse_34" fill="#FFFFFF" cx="42.5896083" cy="26.825291" rx="25.2462314" ry="25.2512496"></ellipse>
                    <g id="Group_126" transform="translate(0.067498, 0.011098)" fill="#4CAFDE">
                        <path d="M15.3822263,80.6747089 C19.8752457,76.2099582 24.8543442,72.2628644 30.226315,68.9073159 C33.382094,97.517507 50.0199744,123.729643 76.0993019,141.85609 C85.6174936,148.472242 98.2147195,135.619112 87.4852561,126.099029 C75.9726269,115.872384 74.4830401,114.631277 69.5861736,106.933086 C68.1992213,104.736642 71.4798259,102.489332 73.2218381,104.408331 C80.6947374,112.766842 100.462507,128.371308 107.859586,133.926694 C118.66487,142.03273 130.253319,126.60398 118.770278,117.841323 C103.167989,105.923184 78.1242523,79.5603024 73.6305267,60.8724911 C73.6305267,60.8724911 84.20835,59.9384242 94.0547871,64.0797623 C106.298803,69.2310025 116.06942,51.3783024 105.567416,43.0956262 C100.997871,39.4888333 93.5471625,38.7267827 88.0215444,37.8435809 C80.9761455,36.7179205 73.8255679,36.3977234 66.7077852,36.889168 C72.4617941,23.4797503 66.2857962,7.94156315 52.8974382,2.14372973 C40.8906395,-2.95742372 26.9561149,1.35364379 19.9258822,12.3444799 C12.5424528,24.3286276 15.6976795,39.9846371 27.1463562,48.171956 C15.3064062,54.4893925 11.8982019,57.8474092 2.38001024,67.8705942 C1.10189979,69.1834904 0.286486136,70.8773035 0.0573273641,72.6953733 C-0.82569897,80.2196982 8.71653324,86.6083457 15.3822263,80.6747089 Z M21.6697436,36.889168 C21.463489,37.0582008 21.1894554,37.1197028 20.9307679,37.0550181 C20.6720803,36.9903334 20.4592223,36.8070842 20.3567621,36.5608573 C17.2231744,29.5914237 17.7548394,21.1829721 19.3498346,18.3798467 C19.4006896,18.3040115 19.4506198,18.2531465 19.5014748,18.1782362 C24.5758711,13.2766971 40.2789457,6.53754333 52.2455706,9.6181144 C52.4180808,9.67036131 52.5743647,9.76586943 52.6995664,9.89556 C56.9805516,14.6346653 59.2373169,20.8612562 58.9870837,27.243309 C58.9844134,27.4835138 58.8825926,27.7119311 58.705738,27.8744595 C58.5288834,28.0369879 58.2927267,28.11917 58.0532025,28.1015408 C40.3002123,26.687493 29.8731045,30.2730151 21.6678943,36.889168 L21.6697436,36.889168 Z" id="Path_369"></path>
                        <g id="Group_124" transform="translate(44.940030, 10.496692)">
                            <path d="M8.36054881,7.68061924 C8.41140373,7.62975421 8.48722379,7.579814 8.53715407,7.52894897 C8.81874708,7.20025813 8.78501289,6.70648891 8.46133401,6.41916654 L2.22559621,1.11625616 C2.01368295,0.931394063 1.71926387,0.873651289 1.45324378,0.964778985 C1.18722369,1.05590668 0.990017381,1.28206038 0.935910553,1.55805018 C0.881803725,1.83403997 0.979016496,2.11793644 1.19092976,2.30279854 L7.42666755,7.63067903 C7.68979864,7.85925887 8.07455008,7.87983383 8.36054881,7.68061924 Z" id="Path_370"></path>
                        </g>
                        <g id="Group_125" transform="translate(38.830967, 11.095050)">
                            <path d="M16.4141188,14.7092413 C16.5152797,14.6547443 16.6018551,14.5767157 16.6665442,14.4817359 C17.0846894,13.9849579 17.0283679,13.2448209 16.5398692,12.8170623 L1.94820574,0.290393069 C1.71201401,0.0834667708 1.40251212,-0.0197013143 1.08943036,0.00413242284 C0.776348596,0.02796616 0.486022799,0.176796872 0.283862916,0.41709323 C-0.134282329,0.91387124 -0.0779608724,1.65400826 0.410537898,2.08176688 L15.003126,14.6065864 C15.3987598,14.9497298 15.9730022,14.991508 16.4141188,14.7092413 Z" id="Path_371"></path>
                        </g>
                    </g>
                </g>
                <g id="whiteaustronaut" transform="translate(0.000000, 357.000000)">
                    <ellipse id="Ellipse_22" fill="#000000" cx="67.6648361" cy="21.9123386" rx="19.75633" ry="20.1275095"></ellipse>
                    <g id="Group_102" transform="translate(0.002742, 0.095898)" fill="#FFFFFF">
                        <path d="M100.990506,60.5333591 C100.805906,59.022826 100.134063,57.6175432 99.0804896,56.5382095 C91.2887203,48.1903859 88.5242232,45.3739498 78.8215238,40.1516721 C88.1834461,33.3271464 90.7735639,20.2901633 84.7535406,10.2937249 C79.0180542,1.13221969 67.6228668,-2.463491 57.8086043,1.79134648 C52.538196,4.08164634 48.3786197,8.41392939 46.2473913,13.8325842 C44.116163,19.2512389 44.1883828,25.3110726 46.4481205,30.6754119 C40.6222,30.2565138 34.7682011,30.5314813 29.0048293,31.4947388 C24.4801929,32.2116498 18.3982993,32.8773529 14.6778803,35.8995518 C6.08097972,42.7623454 14.0710617,57.665715 24.0780842,53.3633179 C29.399775,51.236303 35.1106904,50.3094296 40.8176853,50.6465045 C37.1484437,66.2155772 16.6911652,88.1865721 3.91964563,98.0706336 C-5.53082195,105.394299 3.96990921,118.249351 12.8172138,111.488973 C18.8488438,106.879329 35.0364593,93.8715833 41.1192668,86.909167 C42.5266471,85.3217212 45.2417945,87.1652067 44.0848182,89.0086921 C40.0637316,95.4106144 38.8564917,96.4859809 29.4562877,104.987428 C20.7095103,112.925588 31.0144588,123.628977 38.7559645,118.09852 C60.0704655,102.990319 73.6937244,81.1729479 76.2571672,57.3072595 C80.6579534,60.0950825 84.7385699,63.376063 88.4227821,67.0889051 C93.9024266,72.1082133 101.694196,66.7816575 100.990506,60.5333591 Z M53.5361997,23.3517469 C53.3406812,23.3674274 53.1476885,23.2987189 53.0043115,23.1623862 C52.8609345,23.0260535 52.7803592,22.8346348 52.7822459,22.6348359 C52.5874938,17.3248141 54.4258422,12.1454969 57.9091315,8.19047557 C58.004303,8.07732954 58.1250538,7.98945851 58.2609765,7.93443592 C68.0632892,5.37403945 80.8823307,11.0069117 85.0551221,15.0532692 L85.2059128,15.206893 C86.512766,17.5624577 86.9651382,24.5276672 84.4016955,30.3663022 C84.3173124,30.566944 84.1451458,30.7154135 83.9369716,30.7670612 C83.7287974,30.818709 83.5089033,30.7675092 83.3434186,30.6288593 C76.6099262,25.1449555 68.0632892,22.1739646 53.5361997,23.3517469 Z" id="Path_291"></path>
                        <g id="Group_100" transform="translate(57.090292, 9.509778)">
                            <path d="M0.316203634,5.59749223 C0.265940051,5.5462843 0.215676467,5.5462843 0.165412884,5.49507637 C0.0518443386,5.36617625 -0.00668755297,5.19652047 0.00274331101,5.02357557 C0.012174175,4.85063068 0.088791948,4.68862427 0.215676467,4.57333364 L5.29321228,0.168520641 C5.46429779,0.0126819427 5.70399308,-0.0383310919 5.92200725,0.0346976536 C6.14002142,0.107726399 6.30323294,0.293702121 6.3501616,0.522569564 C6.39709025,0.751437008 6.32060648,0.988425765 6.14952097,1.14426446 L1.07198515,5.54907746 C0.862630643,5.74439923 0.547924159,5.76455908 0.316203634,5.59749223 Z" id="Path_292"></path>
                        </g>
                        <g id="Group_101" transform="translate(55.411488, 9.182047)">
                            <path d="M0.435922354,12.2750062 C0.346107106,12.2347653 0.274366877,12.1616772 0.23486802,12.0701745 C0.0673162376,11.8736594 -0.0163040434,11.6171335 0.00257022171,11.3575438 C0.0214444868,11.097954 0.14125155,10.85678 0.335395187,10.6875604 L12.2999558,0.240211742 C12.7037349,-0.11330524 13.3123596,-0.066409981 13.6593573,0.344955235 C14.0063549,0.75632045 13.9603245,1.37637998 13.5565454,1.72989697 L1.59289866,12.1725904 C1.26949308,12.4578785 0.802778672,12.4991921 0.435922354,12.2750062 Z" id="Path_293"></path>
                        </g>
                    </g>
                </g>
            </g>
        </g>
    </g>
</svg>