<?xml version="1.0" encoding="UTF-8"?>
<svg width="94px" height="94px" viewBox="0 0 94 94" version="1.1" xmlns="http://www.w3.org/2000/svg" xmlns:xlink="http://www.w3.org/1999/xlink">
    <!-- Generator: Sketch 52.6 (67491) - http://www.bohemiancoding.com/sketch -->
    <title>azure</title>
    <desc>Created with Sketch.</desc>
    <g id="Page-1" stroke="none" stroke-width="1" fill="none" fill-rule="evenodd">
        <g id="azure" transform="translate(1.000000, 1.000000)">
            <circle id="Oval" stroke="#4CAFDE" stroke-width="2.8347" cx="45.79" cy="45.79" r="45.374"></circle>
            <path d="M43.7358855,64.4900207 C51.7162056,63.1128496 58.3074941,61.9732406 58.3831962,61.9575576 L58.5208379,61.9290419 L50.986629,53.1743822 C46.8428174,48.3593185 43.4524239,44.4010518 43.4524239,44.3782343 C43.4524239,44.335034 51.2321309,23.4063595 51.2758658,23.3319022 C51.2904885,23.3070083 56.5848154,32.2363423 64.1096615,44.9771978 C71.1545603,56.905415 76.9627378,66.7402728 77.016723,66.8324331 L77.114882,67 L53.1705451,66.9969829 L29.2262126,66.993978 L43.7358855,64.4900293 L43.7358855,64.4900207 Z" id="path21-path" fill="#4CAFDE" fill-rule="nonzero"></path>
            <path d="M15,61.8202714 C15,61.8079452 18.5500827,55.7876582 22.8890725,48.441851 L30.7781437,35.0858388 L39.9719443,27.5486353 C45.0285345,23.4031743 49.1793618,20.0063652 49.1960033,20.0001703 C49.2126448,19.9939765 49.1461266,20.1575267 49.0481847,20.3636173 C48.9502428,20.569708 44.4578148,29.9828744 39.0650112,41.2817641 L29.2599162,61.8251994 L22.1299581,61.8339319 C18.208482,61.8387397 15,61.8325828 15,61.8202665 L15,61.8202714 Z" id="path21-path" fill="#4CAFDE" fill-rule="nonzero"></path>
        </g>
    </g>
</svg>