<svg xmlns="http://www.w3.org/2000/svg" viewBox="1443 1200.634 133.587 155.357">
  <defs>
    <style>
      .cls-1 {
        fill: #fff;
      }

      .cls-2 {
        fill: #4cafde;
      }
    </style>
  </defs>
  <g id="Group_127" data-name="Group 127" transform="translate(1442.927 1200.622)">
    <circle id="Ellipse_34" data-name="Ellipse 34" class="cls-1" cx="27.304" cy="27.304" r="27.304" transform="translate(18.757 1.702)"/>
    <g id="Group_126" data-name="Group 126" transform="translate(0.073 0.012)">
      <path id="Path_369" data-name="Path 369" class="cls-2" d="M16.709,87.245A91.686,91.686,0,0,1,32.763,74.521C36.176,105.457,54.17,133.8,82.375,153.4c10.294,7.154,23.918-6.744,12.314-17.038-12.451-11.058-14.062-12.4-19.358-20.724-1.5-2.375,2.048-4.805,3.932-2.73,8.082,9.038,29.461,25.911,37.461,31.918,11.686,8.765,24.219-7.918,11.8-17.393-16.874-12.887-43.959-41.393-48.819-61.6,0,0,11.44-1.01,22.089,3.468,13.242,5.57,23.809-13.734,12.451-22.69-4.942-3.9-13-4.724-18.976-5.679A101.722,101.722,0,0,0,72.218,39.9,28.634,28.634,0,0,0,57.282,2.33,28.913,28.913,0,0,0,21.623,13.36,28.952,28.952,0,0,0,29.432,52.1C16.627,58.931,12.941,62.562,2.647,73.4A9.112,9.112,0,0,0,.135,78.617C-.82,86.753,9.5,93.661,16.709,87.245Zm6.8-47.345a.912.912,0,0,1-1.42-.355C18.7,32.009,19.275,22.917,21,19.886c.055-.082.109-.137.164-.218,5.488-5.3,22.471-12.587,35.413-9.256a1.143,1.143,0,0,1,.491.3,26.435,26.435,0,0,1,6.8,18.758.941.941,0,0,1-1.01.928C43.658,28.869,32.381,32.746,23.507,39.9Z" transform="translate(-0.073 -0.012)"/>
      <g id="Group_124" data-name="Group 124" transform="translate(49.603 12.35)">
        <path id="Path_370" data-name="Path 370" class="cls-2" d="M189.786,52.549c.055-.055.137-.109.191-.164a.858.858,0,0,0-.082-1.2l-6.744-5.734a.851.851,0,0,0-1.119,1.283l6.744,5.761A.823.823,0,0,0,189.786,52.549Z" transform="translate(-181.744 -45.244)"/>
      </g>
      <g id="Group_125" data-name="Group 125" transform="translate(41.996 11.997)">
        <path id="Path_371" data-name="Path 371" class="cls-2" d="M171.635,59.855a.775.775,0,0,0,.273-.246,1.289,1.289,0,0,0-.137-1.8L155.99,44.264a1.264,1.264,0,0,0-1.8.137,1.289,1.289,0,0,0,.137,1.8l15.782,13.543A1.278,1.278,0,0,0,171.635,59.855Z" transform="translate(-153.883 -43.95)"/>
      </g>
    </g>
  </g>
</svg>
