<?xml version="1.0" encoding="UTF-8"?>
<svg width="94px" height="94px" viewBox="0 0 94 94" version="1.1" xmlns="http://www.w3.org/2000/svg" xmlns:xlink="http://www.w3.org/1999/xlink">
    <title>build</title>
    <g id="Page-1" stroke="none" stroke-width="1" fill="none" fill-rule="evenodd">
        <g id="build" transform="translate(1.000000, 1.000000)">
            <circle id="Oval" stroke="#4CAFDE" stroke-width="2.8347" cx="45.79" cy="45.79" r="45.374"></circle>
            <path d="M26,61.0524586 L26,55.1054328 L31.2505377,55.1054328 L36.5010755,55.1054328 L36.5010755,55.7895856 L36.5010755,56.4737385 L37.603853,56.4737385 L38.7066305,56.4737385 L38.7066305,43.4738029 L38.7066305,30.4738674 L37.6563172,30.4738674 L36.6060039,30.4738674 L36.6060039,28.7369337 L36.6060039,27 L44.2719536,27 L51.9379033,27 L51.9379033,28.7369337 L51.9379033,30.4738674 L50.88759,30.4738674 L49.8372767,30.4738674 L49.8372767,43.4738029 L49.8372767,56.4737385 L57.0104741,56.4737385 L64.1723557,56.4737385 L64.7710652,55.9158987 C65.2854204,55.4209577 65.3903488,55.2528839 65.5899186,54.5687311 C65.8841298,53.5793646 66.2097166,53.137011 67.2281399,52.3579945 C68.1627233,51.6423922 68.4255588,51.3052136 68.4255588,50.7896501 C68.4255588,49.7368692 67.1756757,49.0635432 66.2621809,49.621383 C65.8944169,49.8425598 65.5899186,50.4107108 65.5899186,50.8742025 C65.5899186,51.2742798 65.2854204,51.6217697 64.6239596,52.0007089 L64.1198915,52.2847844 L64.1826429,51.6109428 C64.3719256,49.621383 64.7077995,48.8846426 65.6948471,48.3268029 C66.1778266,48.0530386 66.3773964,48.0107624 67.0074815,48.0107624 C68.1940989,48.0004511 69.0865052,48.5582909 69.6327504,49.6316943 C70.3785654,51.1160018 69.9480501,52.64207 68.57215,53.3896372 L67.9209763,53.737127 L68.1730104,54.6001804 C68.3098289,55.0739834 68.4985972,55.5055101 68.5824371,55.5477863 C69.0026653,55.7901012 69.3910035,56.2319392 69.6744132,56.8109171 C69.9475358,57.3476187 70,57.5791068 70,58.2003609 C70,59.4738029 69.412092,60.43172 68.298513,60.9895598 C67.4796596,61.3999484 66.4920976,61.4422247 65.6835313,61.0844235 L65.1480875,60.8632468 L62.7748527,63.2420571 L60.3908164,65.6316943 L48.4413167,65.6316943 L36.5015898,65.6316943 L36.5015898,66.3158471 L36.5015898,67 L31.2505377,67 L26,67 L26,61.0524586 Z M43.609663,61.5 L41.2203221,59 L39.115391,61.2019591 C37.3865183,63.0105252 37,63.4680075 37,63.7019591 L37,64 L41.49477,64 L46,64 L43.609663,61.5 Z M49.5262941,61.5 L52,59 L47,59 L42,59 L44.4737059,61.5 C45.8317179,62.8724469 46.9685502,64 47,64 C47.0314498,64 48.1682821,62.8724469 49.5262941,61.5 Z M56.4942069,61.5057931 L54,59 L51.5052665,61.5052665 L49,64 L54,64 L59,64 L56.4942069,61.5057931 Z M63.9272922,59.3933931 L63.8545845,59 L59.4219536,59 L55,59 L57.4395232,61.5 L59.8790464,64 L61.9341845,61.8939141 L64,59.7768862 L63.9272922,59.3933931 Z M37.526551,60.5 L39,59 L37.4945867,59 L36,59 L36,60.5 C36,61.3250525 36.0103111,62 36.0314487,62 C36.0422753,62 36.7161024,61.3250525 37.526551,60.5 Z M45.8788654,53.9426757 C47.0491995,52.8017687 48,51.8344671 48,51.7731066 C48,51.6608617 41.1985525,45 41.0834125,45 C41.0312157,45 41,47.4748753 41,50.5 L41,56 L42.3791213,56 L43.7684772,56 L45.8788654,53.9426757 Z M48,55.5 C48,54.6746939 47.9648483,54 47.9060699,54 C47.8588167,54 47.1886285,54.6746939 46.4118325,55.5 L45,57 L46.5057626,57 L48,57 L48,55.5 Z M48,42.9997403 C48,39.150013 47.9690153,36 47.9172048,36 C47.8755533,36 46.2993977,37.5802011 44.4225383,39.5001299 L41,42.9997403 L44.4225383,46.4998701 C46.2993977,48.4301881 47.8760612,50 47.9172048,50 C47.9685074,49.9994805 48,46.8494676 48,42.9997403 Z M44.572922,38.5739808 C46.4637766,36.6780483 48,35.0961377 48,35.0330255 C48,34.9806885 47.1223774,34.048372 46.0462022,32.9693068 L44.0821697,31 L42.5464581,31 L41,31 L41,36.5 C41,39.5278477 41.0312157,42 41.0731779,42 C41.1248629,41.9994869 42.6923021,40.4596511 44.572922,38.5739808 Z M48,31 L48,30 L47.0043535,30 L46,30 L46.9333914,31 C47.4488463,31.5522388 47.8933391,32 47.9290379,32 C47.9730083,31.9995336 48,31.5522388 48,31 Z" id="Shape" fill="#4CAFDE" fill-rule="nonzero" transform="translate(48.000000, 47.000000) scale(1, -1) translate(-48.000000, -47.000000) "></path>
        </g>
    </g>
</svg>