<?xml version="1.0" encoding="UTF-8"?>
<svg width="95px" height="95px" viewBox="0 0 95 95" version="1.1" xmlns="http://www.w3.org/2000/svg" xmlns:xlink="http://www.w3.org/1999/xlink">
    <!-- Generator: Sketch 62 (91390) - https://sketch.com -->
    <title>cassandra</title>
    <desc>Created with Sketch.</desc>
    <defs>
        <polygon id="path-1" points="0.126169635 19.1656983 66.5745824 19.1656983 66.5745824 0.114030172 0.126169635 0.114030172"></polygon>
        <polygon id="path-3" points="0.163295801 22.5916238 62.8350925 22.5916238 62.8350925 0.24999573 0.163295801 0.24999573"></polygon>
    </defs>
    <g id="Page-1" stroke="none" stroke-width="1" fill="none" fill-rule="evenodd">
        <g id="cassandra" transform="translate(2.000000, 2.000000)">
            <g id="Casandra" transform="translate(45.500000, 45.500000) scale(-1, 1) rotate(-180.000000) translate(-45.500000, -45.500000) translate(11.000000, 27.000000)">
                <g id="g2864" transform="translate(20.000000, 14.000000)" fill="#FFFFFF" fill-rule="nonzero">
                    <g id="g2866-Clipped">
                        <g id="g2866" transform="translate(0.000000, 0.190537)">
                            <g id="g2872" transform="translate(0.049945, 0.294603)">
                                <path d="M11.7672414,17.7834803 C9.1853125,17.9365453 4.7350072,16.6278717 1.02407687,15.3223737 C0.460229886,14.0295782 0.147090517,12.6148388 0.147090517,11.1302357 C0.147090517,5.04002887 5.8306681,0.102890136 11.8430747,0.102890136 C17.8159303,0.102890136 23.1004023,5.04796794 23.5390589,11.1302357 C23.6815733,13.1108709 22.9797881,14.9771836 22.0053951,16.586271 C18.1581609,17.2445774 14.075255,17.6466111 11.7672414,17.7834803" id="path2874"></path>
                            </g>
                        </g>
                    </g>
                </g>
                <g id="g2876" transform="translate(21.000000, 14.000000)" fill="#4CAFDE" fill-rule="nonzero">
                    <g id="g2878-Clipped">
                        <g id="g2878" transform="translate(0.000000, 0.060058)">
                            <g id="g2884" transform="translate(3.180349, 7.655706)">
                                <path d="M1.93103448,3.30316092 C2.24289655,3.94757759 2.71535632,4.26317959 3.17301149,4.80339653 C3.12216092,4.93131896 3.0108046,5.34961924 3.0108046,5.49465806 C3.0108046,6.14207757 3.57370115,6.66758045 4.26790804,6.66758045 C4.43172414,6.66758045 4.58813791,6.63725144 4.73135631,6.58410058 C6.81204596,8.0636164 9.5512184,8.7086336 12.303908,8.13448419 C12.5552644,8.0816336 12.8017931,8.01767243 13.0438161,7.94740518 C10.3233104,8.29934194 7.2568276,7.40028162 5.17098849,5.82947847 C5.23471262,5.68924424 5.41140231,5.28836063 5.41140231,5.12710631 C5.41140231,4.47938649 4.96211493,4.32173563 4.26790804,4.32173563 C4.1102069,4.32173563 3.95958621,4.34996266 3.82022988,4.39951005 C3.34905747,3.80914512 2.77167816,2.68456896 2.48910345,1.98159627 C3.64257471,1.018875 4.68468964,0.66994109 6.04285058,0.196387931 C6.03931036,0.25674569 6.08951724,0.312599138 6.08951724,0.374158046 C6.08951724,2.32692673 7.93204596,3.9139454 10.0252874,3.9139454 C11.9009655,3.9139454 13.4541609,2.64132759 13.7573333,0.971729883 C14.6932414,1.5272615 15.5982529,1.95306896 16.287954,2.7764569 C16.1270345,2.95963218 15.9535632,3.47822845 15.9535632,3.7334727 C15.9535632,4.32113505 16.4646437,4.79769108 17.0944828,4.79769108 C17.1836322,4.79769108 17.2692414,4.78567959 17.3525977,4.76766234 C17.7027586,5.43910487 17.9669885,6.1507859 18.135954,6.8846882 C14.8628506,9.14555171 8.53002298,8.83715662 8.53002298,8.83715662 C8.53002298,8.83715662 3.49066667,9.0824914 0.0791724138,7.53120689 C0.306712644,5.9964382 0.962942529,4.53734194 1.93103448,3.30316092" id="path2886"></path>
                            </g>
                            <g id="g2888" transform="translate(16.893559, 5.233468)">
                                <path d="M3.86206896,6.60632185 C4.09347126,6.41173563 4.21963218,6.24087212 4.31908046,6.07451293 C4.62514942,5.56102153 4.01108046,5.09107185 3.38124138,5.09107185 C3.3171954,5.09107185 3.2554023,5.09917959 3.19393104,5.10878878 C2.48427586,4.07399856 1.24133333,2.74702873 0.137103448,2.07918965 C1.83029885,1.82034195 3.42694253,1.1876365 4.6975632,0.209900862 C5.62285058,1.75668104 6.33250573,3.99021839 6.33250573,5.88743392 C6.33250573,7.33151581 5.64924138,8.39002874 4.61774711,9.16657185 C4.56367818,8.39303162 4.12114943,7.31109626 3.86206896,6.60632185" id="path2890"></path>
                            </g>
                            <g id="g2892" transform="translate(5.079972, 2.042915)">
                                <path d="M1.93103448,0 C2.49521839,1.45369109 3.88298851,2.58006896 5.19577013,3.57101724 C5.00363218,3.81635201 4.71558622,4.42383333 4.59554022,4.7115086 C2.9943908,5.16584338 1.57765517,6.01625716 0.478896551,7.1420345 C0.470850573,7.10930315 0.460873564,7.0774727 0.452505747,7.0447414 C0.245563218,6.17961351 0.207586207,5.31268392 0.310574712,4.46707473 C1.0771954,4.33374712 1.65747126,3.70704741 1.65747126,2.95302586 C1.65747126,2.50589799 1.23747126,1.85787787 0.911448276,1.57590805 C1.2657931,0.862425288 1.50749425,0.518295977 1.93103448,0" id="path2894"></path>
                            </g>
                            <g id="g2896" transform="translate(0.153067, 0.522290)">
                                <path d="M6.75862071,0.300287356 C6.08565516,0.92458477 5.62027587,2.16987644 5.18354022,2.95182471 C5.10179311,2.9401135 5.01811493,2.93200575 4.93250573,2.93200575 C4.01977012,2.93200575 3.06358621,3.64668965 3.27986207,4.47368104 C3.39958621,4.93131896 3.73816092,5.23070545 4.28947126,5.48054455 C4.16395402,6.42855171 4.12983908,7.79125576 4.36574712,8.77679883 C4.43333333,9.05876869 4.57655173,9.19089513 4.67149427,9.45935203 C3.66445977,10.8343678 3.01370115,12.6390948 3.01370115,14.4297083 C3.01370115,14.495171 3.01724138,14.5597327 3.01885057,14.6245948 C1.31696552,13.8282327 0.0408735632,12.5736322 0.0408735632,10.5986423 C0.0408735632,6.2300618 2.73756322,1.94466092 6.74993102,0.264853448 C6.7528276,0.276564655 6.75540231,0.28857615 6.75862071,0.300287356" id="path2898"></path>
                            </g>
                            <g id="g2900" transform="translate(7.444556, 0.255575)">
                                <path d="M9.33333333,6.60632185 C8.81485058,5.23040518 7.41291956,4.2421595 5.76091956,4.2421595 C4.87714942,4.2421595 4.06643678,4.52653162 3.42211494,4.99918392 C2.09388506,4.03406035 0.888919542,2.33863793 0.27645977,0.867830459 C0.551310347,0.591866378 0.742804596,0.364849138 1.05112644,0.120114942 C1.98027586,-0.10570115 3.25990804,0.120114942 4.26565517,0.120114942 C8.3111724,0.120114942 11.8942069,1.79932184 13.9485057,4.74393964 C12.5826207,5.62648419 10.9714943,6.46638793 9.33333333,6.60632185" id="path2902"></path>
                            </g>
                        </g>
                    </g>
                </g>
                <g id="g2956" transform="translate(1.000000, 16.000000)">
                    <g id="g2958-Clipped">
                        <g id="g2958">
                            <g id="g2964">
                                <g id="g2972">
                                    <g id="g2974-Clipped">
                                        <g>
                                            <mask id="mask-2" fill="white">
                                                <use xlink:href="#path-1"></use>
                                            </mask>
                                            <g id="path-3"></g>
                                            <g id="g2974" opacity="0.35000604" mask="url(#mask-2)" fill="#4CAFDE" fill-rule="nonzero">
                                                <g id="g2976" transform="translate(0.126170, 0.114061)">
                                                    <path d="M0,0 C10.5553272,10.3980108 18.9855111,13.6081142 26.6364027,15.073556 C27.6487631,15.2674073 27.8402231,17.4466164 27.8402231,17.4466164 C27.8402231,17.4466164 27.981941,15.8415646 28.6905307,15.6323039 C29.3988076,15.4227349 30.3195049,18.144666 30.3195049,18.144666 C30.3195049,18.144666 29.4695101,15.7019547 30.3195049,15.5623448 C31.1698125,15.4227349 32.7280842,17.935097 32.7280842,17.935097 C32.7280842,17.935097 32.0908227,15.7719138 32.5159765,15.6323039 C32.9405047,15.492694 35.0656481,18.7724483 35.0656481,18.7724483 C35.0656481,18.7724483 33.7904995,16.6092651 34.9949455,16.3996961 C36.1997044,16.1904354 37.9566314,17.8762328 37.9566314,17.8762328 C37.9566314,17.8762328 36.5751162,16.3337435 37.1907914,16.1207845 C39.812104,15.213166 41.9331804,18.5693513 41.9331804,18.5693513 C41.9331804,18.5693513 41.4417039,17.0977457 40.1665553,15.492694 C42.9289602,14.7949526 44.9808983,18.8947996 44.9808983,18.8947996 L42.9289602,14.7949526 C43.9916884,14.2362047 48.2426008,19.0516681 48.2426008,19.0516681 C48.2426008,19.0516681 46.0464421,15.283125 44.7712932,14.5157328 C45.4795703,13.9572931 48.0298673,16.1904354 48.0298673,16.1904354 C48.0298673,16.1904354 45.9754264,13.6783815 46.7547188,13.5387715 C47.8881496,12.6314612 52.0674207,18.2143168 52.0674207,18.2143168 C52.0674207,18.2143168 50.4384466,14.9345625 48.0298673,12.3522414 C50.0430131,11.3601789 55.0431846,17.7258362 55.0431846,17.7258362 C55.0431846,17.7258362 54.9014669,15.7019547 51.2884415,12.4918513 C53.9804567,12.840722 57.4517639,17.8654461 57.4517639,17.8654461 C57.4517639,17.8654461 56.1766154,14.096903 53.130149,11.4452392 C55.7733605,11.7161379 60.0014354,18.144666 60.0014354,18.144666 C60.0014354,18.144666 58.3724613,13.6783815 55.0431846,11.0960604 C58.7269124,10.2935345 64.0399275,15.7019547 64.0399275,15.7019547 C64.0399275,15.7019547 61.9501356,11.8634526 59.2224562,10.2935345 C62.2689225,9.14213794 66.4485068,13.8876422 66.4485068,13.8876422 C66.4485068,13.8876422 62.2689225,7.53677802 55.6100564,7.81599786 C53.4251601,7.90753016 46.8163489,14.3459203 32.6573816,13.8176832 C13.9556193,13.1196336 9.98876834,5.30363579 0,0" id="path2978"></path>
                                                </g>
                                            </g>
                                        </g>
                                    </g>
                                </g>
                            </g>
                            <g id="g2980" transform="translate(0.558769, 0.903797)" fill="#4CAFDE" fill-rule="nonzero">
                                <path d="M0,0 C10.5553272,10.3980108 18.9851983,13.607806 26.6360899,15.073556 C27.6487631,15.2674073 27.8402231,17.4463082 27.8402231,17.4463082 C27.8402231,17.4463082 27.9816282,15.8409483 28.6905307,15.6319957 C29.3988076,15.4227349 30.3195049,18.1440496 30.3195049,18.1440496 C30.3195049,18.1440496 29.4695101,15.7013384 30.3195049,15.5620366 C31.1698125,15.4227349 32.7280842,17.9347888 32.7280842,17.9347888 C32.7280842,17.9347888 32.0908227,15.7716056 32.5153509,15.6319957 C32.9405047,15.4923858 35.0656481,18.7724483 35.0656481,18.7724483 C35.0656481,18.7724483 33.7904995,16.6089569 34.9949455,16.3996961 C36.1990787,16.1901271 37.9566314,17.8759246 37.9566314,17.8759246 C37.9566314,17.8759246 36.5751162,16.3334354 37.1907914,16.1204763 C39.812104,15.213166 41.9325548,18.5690431 41.9325548,18.5690431 C41.9325548,18.5690431 41.4410782,17.0974375 40.1665553,15.4923858 C42.9289602,14.7943362 44.9808983,18.8947996 44.9808983,18.8947996 L42.9289602,14.7943362 C43.9916884,14.2362047 48.2419752,19.0510517 48.2419752,19.0510517 C48.2419752,19.0510517 46.0464421,15.283125 44.7712932,14.5154246 C45.4795703,13.9569849 48.0298673,16.1901271 48.0298673,16.1901271 C48.0298673,16.1901271 45.9754264,13.6777651 46.7547188,13.5384634 C47.8881496,12.6308448 52.0674207,18.2140086 52.0674207,18.2140086 C52.0674207,18.2140086 50.4378211,14.9339461 48.0298673,12.3519332 C50.0430131,11.3595625 55.0431846,17.725528 55.0431846,17.725528 C55.0431846,17.725528 54.9014669,15.7013384 51.2884415,12.4912349 C53.9804567,12.8404138 57.4517639,17.8651379 57.4517639,17.8651379 C57.4517639,17.8651379 56.1766154,14.0965948 53.130149,11.4446229 C55.7733605,11.7155215 60.0014354,18.1440496 60.0014354,18.1440496 C60.0014354,18.1440496 58.3724613,13.6777651 55.0431846,11.0957521 C58.7269124,10.2932263 64.0399275,15.7013384 64.0399275,15.7013384 C64.0399275,15.7013384 61.9501356,11.8634526 59.2224562,10.2932263 C62.2689225,9.14182972 66.4485068,13.887334 66.4485068,13.887334 C66.4485068,13.887334 62.2689225,7.53646984 55.6094308,7.81568964 C53.4251601,7.90753016 46.8163489,14.3459203 32.6570688,13.817375 C13.9556193,13.1196336 9.98845551,5.30363579 0,0" id="path2982"></path>
                            </g>
                        </g>
                    </g>
                </g>
                <g id="g2984" transform="translate(0.000000, 0.000000)">
                    <g id="g2986-Clipped">
                        <g id="g2986" transform="translate(0.125733, 0.121063)">
                            <g id="g2992" transform="translate(0.314333, 0.000000)">
                                <g id="g3000">
                                    <g id="g3002-Clipped">
                                        <g>
                                            <mask id="mask-4" fill="white">
                                                <use xlink:href="#path-3"></use>
                                            </mask>
                                            <g id="path-5"></g>
                                            <g id="g3002" opacity="0.35000604" mask="url(#mask-4)" fill="#4CAFDE" fill-rule="nonzero">
                                                <g id="g3004" transform="translate(0.163296, 0.205868)">
                                                    <path d="M0,13.9222803 C5.60517946,11.2150021 10.730373,14.3332903 17.1895942,12.5805963 C22.1004129,11.2476892 28.0796481,9.60455749 36.1935163,10.7355915 C44.3076986,11.8660201 51.247849,15.2585166 54.5580857,21.324091 C55.5900398,24.0307639 59.7892095,20.7069707 59.7892095,20.7069707 C59.7892095,20.7069707 56.728867,21.9406058 56.8002204,21.3579887 C56.8712595,20.7756742 61.3910487,18.753917 61.3910487,18.753917 C61.3910487,18.753917 57.2981235,19.9875521 57.5473891,19.0623257 C57.7966551,18.1370994 62.6716398,14.4361941 62.6716398,14.4361941 C62.6716398,14.4361941 57.1557306,18.4797086 56.6933472,17.9315944 C56.2303354,17.3831777 59.0420408,15.1556128 59.0420408,15.1556128 C59.0420408,15.1556128 54.3798592,17.9315944 52.7425007,17.1129038 C51.5650105,16.5248388 57.5829089,12.722543 57.5829089,12.722543 C57.5829089,12.722543 53.6678959,15.6014284 52.7425007,14.8475067 C51.8174197,14.0932823 57.1557306,7.92540943 57.1557306,7.92540943 C57.1557306,7.92540943 51.1051418,14.2306891 50.5006803,13.9222803 C49.8952755,13.6138716 52.17293,10.5981846 52.17293,10.5981846 C52.17293,10.5981846 49.1836265,13.7509758 48.3654187,13.202559 C47.5468966,12.6541422 52.6359418,4.46451211 52.6359418,4.46451211 C52.6359418,4.46451211 47.1197183,12.8596472 44.8420643,11.4553128 C48.4188551,3.89914647 47.084199,2.81956443 47.084199,2.81956443 C47.084199,2.81956443 46.6277881,10.5282705 42.1727516,10.3242788 C39.9306169,10.221375 43.2402252,4.56741592 43.2402252,4.56741592 C43.2402252,4.56741592 40.1940277,9.7313713 38.1653249,9.62846749 C41.9043115,2.81532721 40.5715412,0.0441881072 40.5715412,0.0441881072 C40.5715412,0.0441881072 41.1898334,5.86309598 36.1187051,9.10123678 C38.0402205,7.4568944 34.9129252,0.0441881072 34.9129252,0.0441881072 C34.9129252,0.0441881072 37.6639644,10.9674277 32.8839081,8.88483613 C32.1285667,8.55645189 32.8304715,3.43638198 32.8304715,3.43638198 C32.8304715,3.43638198 31.8695567,9.29645138 30.4286559,8.98773994 C29.5884448,8.80826358 25.0900305,0.866510624 25.0900305,0.866510624 C25.0900305,0.866510624 28.7736946,9.45050443 27.6527844,9.09064375 C26.8361483,8.82823903 25.3037767,5.28683464 25.3037767,5.28683464 C25.3037767,5.28683464 26.0509453,8.78223496 25.3037767,8.98773994 C24.556608,9.19354756 20.3923294,5.28683464 20.3923294,5.28683464 C20.3923294,5.28683464 23.4888201,8.78223496 22.9547689,9.50195632 C22.1456768,10.5924341 21.1973352,10.6435833 20.0720244,10.221375 C18.4346657,9.60697875 16.2286793,6.72627737 16.2286793,6.72627737 C16.2286793,6.72627737 18.4277504,9.64299508 18.0433216,10.7355915 C17.4262867,12.4910094 11.1038001,7.34309491 11.1038001,7.34309491 C11.1038001,7.34309491 14.8405864,10.7355915 13.9865447,11.4553128 C13.1325029,12.1747315 8.49483932,11.9522777 7.04670887,11.9562122 C2.77618579,11.9689239 1.29630777,12.9334958 0,13.9222803" id="path3006"></path>
                                                </g>
                                            </g>
                                        </g>
                                    </g>
                                </g>
                            </g>
                            <g id="g3008" transform="translate(0.264291, 0.822716)" fill="#4CAFDE" fill-rule="nonzero">
                                <path d="M0,13.9222803 C5.60517946,11.2150021 10.7300586,14.3332903 17.1892799,12.5802936 C22.1000985,11.2479919 28.0796481,9.60455749 36.1938306,10.7355915 C44.3080133,11.8663227 51.2475347,15.2588192 54.5577714,21.3237883 C55.5897255,24.0307639 59.7888953,20.7072734 59.7888953,20.7072734 C59.7888953,20.7072734 56.7285527,21.9406058 56.7999061,21.3579887 C56.8709452,20.7756742 61.3907344,18.753917 61.3907344,18.753917 C61.3907344,18.753917 57.2978092,19.9872494 57.5470748,19.0620231 C57.7963404,18.1370994 62.6719541,14.4361941 62.6719541,14.4361941 C62.6719541,14.4361941 57.1554163,18.4800112 56.693033,17.9312918 C56.2306496,17.3831777 59.0420408,15.1559154 59.0420408,15.1559154 C59.0420408,15.1559154 54.3795449,17.9312918 52.7425007,17.1132065 C51.5646963,16.5248388 57.5825946,12.7228456 57.5825946,12.7228456 C57.5825946,12.7228456 53.6675817,15.6014284 52.7425007,14.8475067 C51.8171055,14.0932823 57.1560449,7.92540943 57.1560449,7.92540943 C57.1560449,7.92540943 51.1051418,14.2306891 50.500366,13.9222803 C49.8955898,13.6135689 52.1732442,10.5984873 52.1732442,10.5984873 C52.1732442,10.5984873 49.1833123,13.7509758 48.3651044,13.202559 C47.5465823,12.6544448 52.6356276,4.46451211 52.6356276,4.46451211 C52.6356276,4.46451211 47.1194041,12.8599498 44.84175,11.4550101 C48.4185408,3.89914647 47.0838847,2.81956443 47.0838847,2.81956443 C47.0838847,2.81956443 46.6274734,10.5282705 42.1724372,10.3239762 C39.9303026,10.2210724 43.2399108,4.56741592 43.2399108,4.56741592 C43.2399108,4.56741592 40.1937133,9.73167395 38.1653249,9.62877013 C41.9046259,2.81532721 40.5712268,0.0441881072 40.5712268,0.0441881072 C40.5712268,0.0441881072 41.1895191,5.86339862 36.1183908,9.10153946 C38.0399062,7.4568944 34.9126109,0.0441881072 34.9126109,0.0441881072 C34.9126109,0.0441881072 37.6642787,10.9674277 32.8842224,8.88483613 C32.1288811,8.55614924 32.8307858,3.43638198 32.8307858,3.43638198 C32.8307858,3.43638198 31.8692423,9.29614873 30.4286559,8.98773994 C29.5881304,8.80826358 25.0897162,0.866510624 25.0897162,0.866510624 C25.0897162,0.866510624 28.7733802,9.45050443 27.6524701,9.09034111 C26.8358339,8.82854167 25.3034623,5.28713728 25.3034623,5.28713728 C25.3034623,5.28713728 26.0509453,8.78223496 25.3034623,8.98773994 C24.5562937,9.19324492 20.3923294,5.28713728 20.3923294,5.28713728 C20.3923294,5.28713728 23.4888201,8.78223496 22.9544546,9.50195632 C22.1453624,10.5924341 21.1970209,10.6432807 20.0720244,10.2210724 C18.4343514,9.60697875 16.228365,6.72627737 16.228365,6.72627737 C16.228365,6.72627737 18.4274361,9.64329776 18.0433216,10.7355915 C17.4259723,12.4907067 11.1038001,7.34309491 11.1038001,7.34309491 C11.1038001,7.34309491 14.8405864,10.7355915 13.9862303,11.4550101 C13.1321886,12.1747315 8.49452496,11.951975 7.04639456,11.9562122 C2.77587145,11.9692266 1.29630777,12.9334958 0,13.9222803" id="path3010"></path>
                            </g>
                        </g>
                    </g>
                </g>
            </g>
            <circle id="Oval" stroke="#4CAFDE" stroke-width="2.8347" cx="45.374" cy="45.374" r="45.374"></circle>
        </g>
    </g>
</svg>