<?xml version="1.0" encoding="UTF-8"?>
<svg width="128px" height="128px" viewBox="0 0 128 128" version="1.1" xmlns="http://www.w3.org/2000/svg" xmlns:xlink="http://www.w3.org/1999/xlink">
    <!-- Generator: Sketch 50.2 (55047) - http://www.bohemiancoding.com/sketch -->
    <title>circle_java</title>
    <desc>Created with Sketch.</desc>
    <defs></defs>
    <g id="Page-1" stroke="none" stroke-width="1" fill="none" fill-rule="evenodd">
        <g id="circle_java" fill-rule="nonzero">
            <path d="M64,4 C97.137085,4 124,30.862915 124,64 C124,97.137085 97.137085,124 64,124 C30.862915,124 4,97.137085 4,64 C4.03857381,30.878906 30.878906,4.03857381 64,4 Z M64,0 C28.653776,-3.87975164e-16 4.32866401e-15,28.653776 0,64 C-4.32866401e-15,99.346224 28.653776,128 64,128 C99.346224,128 128,99.346224 128,64 C128,47.0261447 121.257162,30.7474942 109.254834,18.745166 C97.2525058,6.74283778 80.9738553,9.92113308e-15 64,0 Z" id="Shape" fill="#231F20"></path>
            <g id="java" transform="translate(38.000000, 29.000000)">
                <path d="M16.6255611,54.130458 C16.6255611,54.130458 13.9507791,55.6859395 18.5291125,56.212292 C24.0756348,56.8450487 26.9103984,56.7543016 33.0227034,55.5974535 C33.0227034,55.5974535 34.6296855,56.6050715 36.8739516,57.4778053 C23.1717784,63.3503252 5.86323252,57.1376549 16.6255611,54.130458" id="path5" fill="#0B6FB6"></path>
                <path d="M14.9512282,46.4672049 C14.9512282,46.4672049 11.9512012,48.6878878 16.5329304,49.1617919 C22.4578992,49.7730426 27.1369759,49.8230389 35.2335775,48.2639748 C35.2335775,48.2639748 36.3534469,49.3993118 38.1143733,50.020185 C21.5476282,54.8645184 3.09525391,50.4022167 14.9512282,46.4672049" id="path7" fill="#0B6FB6"></path>
                <path d="M29.0663731,33.4677764 C32.4425825,37.3548671 28.1793069,40.8527661 28.1793069,40.8527661 C28.1793069,40.8527661 36.7520794,36.4272432 32.8149918,30.8854372 C29.1378743,25.7173619 26.3180146,23.1495467 41.5835909,14.2960535 C41.5835909,14.2960535 17.6216715,20.2806375 29.0663731,33.4677764" id="path9" fill="#E11F21"></path>
                <path d="M47.1885967,59.7986667 C47.1885967,59.7986667 49.1679886,61.4296047 45.008663,62.6913496 C37.099586,65.0872906 12.090241,65.8107942 5.14275055,62.7868046 C2.6453064,61.7003282 7.32872176,60.1925819 8.80194609,59.8762035 C10.3383707,59.5430376 11.2163808,59.6050981 11.2163808,59.6050981 C8.43896976,57.6485413 -6.73567412,63.4469159 3.50841322,65.1074801 C31.4455291,69.6380804 54.4351128,63.0673363 47.1885967,59.7986667" id="path11" fill="#0B6FB6"></path>
                <path d="M17.9118261,38.5271864 C17.9118261,38.5271864 5.1904809,41.548724 13.4068806,42.6459482 C16.8760982,43.1104261 23.7918942,43.0053435 30.2337836,42.465595 C35.4984521,42.0214925 40.7848165,41.0772668 40.7848165,41.0772668 C40.7848165,41.0772668 38.9284294,41.8722676 37.5853782,42.7893347 C24.6670754,46.186859 -0.288690717,44.6062889 6.89575369,41.1310316 C12.9716479,38.1940205 17.9118261,38.5271864 17.9118261,38.5271864" id="path13" fill="#0B6FB6"></path>
                <path d="M40.7323697,51.2830552 C53.8644218,44.4591392 47.7926776,37.9014091 43.5546819,38.7848907 C42.5159346,39.0010906 42.0527813,39.1884283 42.0527813,39.1884283 C42.0527813,39.1884283 42.4383967,38.5843531 43.1749144,38.3228752 C51.5590302,35.3752919 58.0069558,47.0163848 40.4684377,51.6269771 C40.4684377,51.6269771 40.6716215,51.4454903 40.7323697,51.2830552" id="path15" fill="#0B6FB6"></path>
                <path d="M32.8149918,-1.27324116e-05 C32.8149918,-1.27324116e-05 40.0877275,7.27517692 25.9171175,18.4623596 C14.5537274,27.436404 23.3259111,32.5531665 25.9123992,38.3992764 C19.2794021,32.4146945 14.4116687,27.1464409 17.6773251,22.2432382 C22.4705395,15.0457757 35.749366,11.5561864 32.8149918,-1.27324116e-05" id="path17" fill="#E11F21"></path>
                <path d="M19.2022415,69.7742913 C31.8073733,70.5811755 51.1639819,69.3266114 51.6224189,63.3622087 C51.6224189,63.3622087 50.741201,65.6232655 41.2049559,67.4189049 C30.4462119,69.4435723 17.1768173,69.2071881 9.30660428,67.9096018 C9.30675914,67.9096018 10.9177364,69.2430295 19.2022415,69.7742913" id="path19" fill="#0B6FB6"></path>
            </g>
        </g>
    </g>
</svg>