<?xml version="1.0" encoding="UTF-8"?>
<svg width="95px" height="95px" viewBox="0 0 95 95" version="1.1" xmlns="http://www.w3.org/2000/svg" xmlns:xlink="http://www.w3.org/1999/xlink">
    <!-- Generator: Sketch 50 (54983) - http://www.bohemiancoding.com/sketch -->
    <title>cloud</title>
    <desc>Created with Sketch.</desc>
    <defs></defs>
    <g id="Page-1" stroke="none" stroke-width="1" fill="none" fill-rule="evenodd">
        <g id="cloud" transform="translate(2.000000, 2.000000)">
            <circle id="Oval" stroke="#4CAFDE" stroke-width="2.8347" cx="45.374" cy="45.374" r="45.374"></circle>
            <path d="M60.0609082,40.036 C59.4190443,33.2921739 53.8390887,28 46.9680615,28 C41.6524891,28 37.1021594,31.1753043 35.0032501,35.7313043 C34.3716679,35.5302609 33.7136473,35.3913043 33.0159692,35.3913043 C29.3660114,35.3913043 26.4063877,38.3714783 26.4063877,42.0434783 C26.4063877,42.7737391 26.5517985,43.464087 26.7677115,44.1189565 C23.928529,45.7849565 22,48.842 22,52.3883478 C22,57.6953043 26.2741961,61.9970435 31.5471733,61.9970435 L31.5471733,62 L57.9840308,62 L57.9840308,61.9970435 C64.0692522,61.9970435 69,57.0345217 69,50.910087 C69,45.504087 65.1502859,41.016087 60.0609082,40.036 Z M57.9840308,59.0390435 L57.9840308,59.0434783 L31.5471733,59.0434783 C27.9030907,59.0390435 24.9375918,56.055913 24.9375918,52.3883478 C24.9375918,50.0231304 26.1757867,47.8870435 28.2482578,46.671913 C30.2619769,45.5085217 30.4000438,45.277913 29.5554861,43.1876522 C29.4130129,42.7574783 29.3439795,42.3834783 29.3439795,42.0449565 C29.3439795,40.0064348 30.9904997,38.3493043 33.0159692,38.3493043 C33.0159692,38.3493043 33.9794994,38.2798261 35.0032501,38.6893043 C36.687959,39.3648696 36.8715585,38.7188696 37.6676459,36.976 C39.3523548,33.3202609 43.0023126,30.9565217 46.9680615,30.9565217 C52.2557267,30.9565217 56.6268633,34.9818261 57.1380043,40.3198261 C57.3186662,42.4366957 57.3186662,42.4366957 59.5101097,42.9407826 C63.3084159,43.6710435 66.0624082,47.0237391 66.0624082,50.910087 C66.0624082,55.3936522 62.4388887,59.0390435 57.9840308,59.0390435 Z" fill="#4CAFDE" fill-rule="nonzero"></path>
        </g>
    </g>
</svg>