<?xml version="1.0" encoding="UTF-8"?>
<svg width="94px" height="94px" viewBox="0 0 94 94" version="1.1" xmlns="http://www.w3.org/2000/svg" xmlns:xlink="http://www.w3.org/1999/xlink">
    <!-- Generator: Sketch 50 (54983) - http://www.bohemiancoding.com/sketch -->
    <title>documentation</title>
    <desc>Created with Sketch.</desc>
    <defs></defs>
    <g id="Page-1" stroke="none" stroke-width="1" fill="none" fill-rule="evenodd">
        <g id="documentation" transform="translate(1.000000, 1.000000)">
            <circle id="Oval" stroke="#4CAFDE" stroke-width="2.8347" cx="45.88" cy="45.792" r="45.374"></circle>
            <path d="M63.379,39.958 L63.379,64.02 C63.379,65.228 62.4,66.208 61.191,66.208 L30.567,66.208 C29.359,66.208 28.379,65.229 28.379,64.02 L28.379,27.562 C28.379,26.354 29.359,25.374 30.567,25.374 L48.796,25.374 L48.796,37.77 C48.796,38.978 49.775,39.958 50.984,39.958 L63.379,39.958 Z M54.629,43.604 C54.629,43.194 54.311,42.875 53.9,42.875 L37.858,42.875 C37.448,42.875 37.129,43.194 37.129,43.604 L37.129,45.062 C37.129,45.472 37.448,45.791 37.858,45.791 L53.9,45.791 C54.31,45.791 54.629,45.472 54.629,45.062 L54.629,43.604 Z M54.629,49.438 C54.629,49.028 54.311,48.709 53.9,48.709 L37.858,48.709 C37.448,48.709 37.129,49.028 37.129,49.438 L37.129,50.896 C37.129,51.306 37.448,51.625 37.858,51.625 L53.9,51.625 C54.31,51.625 54.629,51.306 54.629,50.896 L54.629,49.438 Z M54.629,55.271 C54.629,54.861 54.311,54.542 53.9,54.542 L37.858,54.542 C37.448,54.542 37.129,54.861 37.129,55.271 L37.129,56.729 C37.129,57.139 37.448,57.458 37.858,57.458 L53.9,57.458 C54.31,57.458 54.629,57.139 54.629,56.729 L54.629,55.271 Z M62.468,37.042 L51.713,37.042 L51.713,26.287 C52.031,26.492 52.305,26.697 52.533,26.925 L61.83,36.222 C62.059,36.449 62.264,36.723 62.468,37.042 Z" id="Shape" fill="#4CAFDE" fill-rule="nonzero"></path>
        </g>
    </g>
</svg>