<?xml version="1.0" encoding="UTF-8"?>
<svg width="94px" height="94px" viewBox="0 0 94 94" version="1.1" xmlns="http://www.w3.org/2000/svg" xmlns:xlink="http://www.w3.org/1999/xlink">
    <!-- Generator: Sketch 50 (54983) - http://www.bohemiancoding.com/sketch -->
    <title>events</title>
    <desc>Created with Sketch.</desc>
    <defs></defs>
    <g id="Page-1" stroke="none" stroke-width="1" fill="none" fill-rule="evenodd">
        <g id="events" transform="translate(1.000000, 1.000000)">
            <circle id="Oval" stroke="#4CAFDE" stroke-width="2.8347" cx="45.88" cy="45.792" r="45.374"></circle>
            <g id="83-calendar" transform="translate(27.000000, 25.000000)" fill="#4CAFDE" fill-rule="nonzero">
                <rect id="Rectangle-path" x="8" y="0" width="3.2" height="8"></rect>
                <rect id="Rectangle-path" x="25.6" y="0" width="3.2" height="8"></rect>
                <g id="Group" transform="translate(0.000000, 4.800000)">
                    <path d="M35.2,0 L28.8,0 L28.8,3.2 L25.6,3.2 L25.6,0 L11.2,0 L11.2,3.2 L8,3.2 L8,0 L1.6,0 C0.7168,0 0,0.7184 0,1.6 L0,4.8 L36.8,4.8 L36.8,1.6 C36.8,0.7184 36.0848,0 35.2,0 Z" id="Shape"></path>
                    <path d="M0,33.6 C0,34.4848 0.7168,35.2 1.6,35.2 L35.2,35.2 C36.0848,35.2 36.8,34.4848 36.8,33.6 L36.8,6.4 L0,6.4 L0,33.6 Z M27.2,9.6 L33.6,9.6 L33.6,16 L27.2,16 L27.2,9.6 Z M27.2,17.6 L33.6,17.6 L33.6,24 L27.2,24 L27.2,17.6 Z M27.2,25.6 L33.6,25.6 L33.6,32 L27.2,32 L27.2,25.6 Z M19.2,9.6 L25.6,9.6 L25.6,16 L19.2,16 L19.2,9.6 Z M19.2,17.6 L25.6,17.6 L25.6,24 L19.2,24 L19.2,17.6 Z M19.2,25.6 L25.6,25.6 L25.6,32 L19.2,32 L19.2,25.6 Z M11.2,9.6 L17.6,9.6 L17.6,16 L11.2,16 L11.2,9.6 Z M11.2,17.6 L17.6,17.6 L17.6,24 L11.2,24 L11.2,17.6 Z M11.2,25.6 L17.6,25.6 L17.6,32 L11.2,32 L11.2,25.6 Z M3.2,9.6 L9.6,9.6 L9.6,16 L3.2,16 L3.2,9.6 Z M3.2,17.6 L9.6,17.6 L9.6,24 L3.2,24 L3.2,17.6 Z M3.2,25.6 L9.6,25.6 L9.6,32 L3.2,32 L3.2,25.6 Z" id="Shape"></path>
                </g>
            </g>
        </g>
    </g>
</svg>