<?xml version="1.0" encoding="UTF-8"?>
<svg width="780px" height="97px" viewBox="0 0 780 97" version="1.1" xmlns="http://www.w3.org/2000/svg" xmlns:xlink="http://www.w3.org/1999/xlink">
    <title>fastconfiguration</title>
    <defs>
        <polygon id="path-1" points="0.00476573276 42.6612766 53.9493168 42.6612766 53.9493168 0.511148936 0.00476573276 0.511148936"></polygon>
        <polygon id="path-3" points="0.245242772 42.2181466 129.404632 42.2181466 129.404632 0.251185344 0.245242772 0.251185344"></polygon>
        <polygon id="path-5" points="0.317330049 50.2593902 122.106404 50.2593902 122.106404 0.556163339 0.317330049 0.556163339"></polygon>
    </defs>
    <g id="Page-1" stroke="none" stroke-width="1" fill="none" fill-rule="evenodd">
        <g id="fastconfiguration">
            <g id="Mongo" fill-rule="nonzero">
                <path d="M23.8650794,96.3071429 L21.3246032,95.4603175 C21.3246032,95.4603175 21.6325397,82.45 16.9365079,81.5261905 C13.8571429,77.9079365 17.3984127,-71.8261905 28.6380952,81.0642857 C28.6380952,81.0642857 24.7888889,82.9888889 24.0960317,86.2992063 C23.4031746,89.4555556 23.8650794,96.3071429 23.8650794,96.3071429 Z" id="Shape" fill="#FFFFFF"></path>
                <path d="M23.8650794,96.3071429 L21.3246032,95.4603175 C21.3246032,95.4603175 21.6325397,82.45 16.9365079,81.5261905 C13.8571429,77.9079365 17.3984127,-71.8261905 28.6380952,81.0642857 C28.6380952,81.0642857 24.7888889,82.9888889 24.0960317,86.2992063 C23.4031746,89.4555556 23.8650794,96.3071429 23.8650794,96.3071429 Z" id="Shape_1_" fill="#A6A385"></path>
                <path d="M25.2507937,83.681746 C25.2507937,83.681746 47.6531746,68.9777778 42.418254,38.3380952 C37.3373016,16.0896825 25.481746,8.77619048 24.1730159,6.0047619 C22.7103175,4.0031746 21.4015873,0.538888889 21.4015873,0.538888889 L22.3253968,62.434127 C22.2484127,62.5111111 20.3238095,81.4492063 25.2507937,83.681746" id="Shape_2_" fill="#FFFFFF"></path>
                <path d="M25.2507937,83.681746 C25.2507937,83.681746 47.6531746,68.9777778 42.418254,38.3380952 C37.3373016,16.0896825 25.481746,8.77619048 24.1730159,6.0047619 C22.7103175,4.0031746 21.4015873,0.538888889 21.4015873,0.538888889 L22.3253968,62.434127 C22.2484127,62.5111111 20.3238095,81.4492063 25.2507937,83.681746" id="Shape_3_" fill="#499D4A"></path>
                <path d="M20.015873,84.5285714 C20.015873,84.5285714 -1.00079365,70.2095238 0.230952381,44.9587302 C1.38571429,19.7079365 16.2436508,7.31349206 19.0920635,5.08095238 C20.9396825,3.07936508 21.0166667,2.30952381 21.1706349,0.307936508 C22.4793651,3.07936508 22.2484127,42.2642857 22.402381,46.8833333 C23.018254,64.6666667 21.4785714,81.1412698 20.015873,84.5285714 Z" id="Shape_4_" fill="#FFFFFF"></path>
                <path d="M20.015873,84.5285714 C20.015873,84.5285714 -1.00079365,70.2095238 0.230952381,44.9587302 C1.38571429,19.7079365 16.2436508,7.31349206 19.0920635,5.08095238 C20.9396825,3.07936508 21.0166667,2.30952381 21.1706349,0.307936508 C22.4793651,3.07936508 22.2484127,42.2642857 22.402381,46.8833333 C23.018254,64.6666667 21.4785714,81.1412698 20.015873,84.5285714 Z" id="Shape_5_" fill="#58AA50"></path>
            </g>
            <g id="Redis" transform="translate(64.000000, 4.000000)" fill-rule="nonzero">
                <path d="M93.5546392,68.5 C88.4020619,71.3 61.5278351,83 55.8701031,86.1 C50.1113402,89.2 46.9793814,89.2 42.4329897,86.9 C37.8865979,84.6 9.39587629,72.4 4.24329897,69.9 C1.71752577,68.6 0.303092784,67.5 0.303092784,66.5 L0.303092784,56.1 C0.303092784,56.1 37.4824742,47.6 43.443299,45.3 C49.4041237,43 51.5257732,42.9 56.6783505,44.9 C61.8309278,46.9 92.342268,52.7 97.3938144,54.6 L97.3938144,64.8 C97.3938144,65.9 96.1814433,67 93.5546392,68.5" id="Shape_6_" fill="#912626"></path>
                <path d="M93.5546392,58.1 C88.4020619,60.9 61.5278351,72.6 55.8701031,75.7 C50.1113402,78.8 46.9793814,78.8 42.4329897,76.5 C37.8865979,74.2 9.39587629,62 4.24329897,59.4 C-0.909278351,56.8 -1.01030928,55 4.04123711,52.9 C9.09278351,50.8 37.4824742,39 43.443299,36.8 C49.4041237,34.5 51.5257732,34.4 56.6783505,36.4 C61.8309278,38.4 88.4020619,49.6 93.4536082,51.5 C98.6061856,53.6 98.8082474,55.2 93.5546392,58.1" id="Shape_7_" fill="#C6302B"></path>
                <path d="M93.5546392,51.6 C88.4020619,54.4 61.5278351,66.1 55.8701031,69.2 C50.1113402,72.3 46.9793814,72.3 42.4329897,70 C37.8865979,67.7 9.39587629,55.5 4.24329897,53 C1.71752577,51.7 0.303092784,50.6 0.303092784,49.6 L0.303092784,39.3 C0.303092784,39.3 37.4824742,30.8 43.443299,28.5 C49.4041237,26.2 51.5257732,26.1 56.6783505,28.1 C61.8309278,30.1 92.342268,35.9 97.3938144,37.8 L97.3938144,48 C97.3938144,49.1 96.1814433,50.2 93.5546392,51.6" id="Shape_8_" fill="#912626"></path>
                <path d="M93.5546392,41.7 C88.4020619,44.6 61.5278351,56.2 55.8701031,59.3 C50.1113402,62.4 46.9793814,62.4 42.4329897,60.1 C37.8865979,57.8 9.39587629,45.6 4.24329897,43 C-0.909278351,40.4 -1.01030928,38.6 4.04123711,36.5 C9.09278351,34.4 37.4824742,22.6 43.443299,20.4 C49.4041237,18.1 51.5257732,18 56.6783505,20 C61.8309278,22 88.4020619,33.2 93.4536082,35.1 C98.6061856,37.3 98.8082474,38.9 93.5546392,41.7" id="Shape_9_" fill="#C6302B"></path>
                <path d="M93.5546392,34.3 C88.4020619,37.1 61.5278351,48.8 55.8701031,51.9 C50.1113402,55 46.9793814,55 42.4329897,52.7 C37.8865979,50.4 9.39587629,38.2 4.24329897,35.7 C1.71752577,34.4 0.303092784,33.3 0.303092784,32.3 L0.303092784,22 C0.303092784,22 37.4824742,13.5 43.443299,11.2 C49.4041237,8.9 51.5257732,8.8 56.6783505,10.8 C61.8309278,12.8 92.342268,18.6 97.3938144,20.5 L97.3938144,30.7 C97.3938144,31.7 96.1814433,32.9 93.5546392,34.3" id="Shape_10_" fill="#912626"></path>
                <path d="M93.5546392,23.9 C88.4020619,26.8 61.5278351,38.4 55.8701031,41.5 C50.1113402,44.6 46.9793814,44.6 42.4329897,42.3 C37.8865979,40 9.39587629,27.8 4.24329897,25.2 C-0.909278351,22.6 -1.01030928,20.8 4.04123711,18.7 C9.09278351,16.6 37.4824742,4.8 43.443299,2.6 C49.4041237,0.3 51.5257732,0.2 56.6783505,2.2 C61.8309278,4.2 88.4020619,15.4 93.4536082,17.3 C98.6061856,19.4 98.8082474,21.1 93.5546392,23.9" id="Shape_11_" fill="#C6302B"></path>
                <path d="M60.4164948,13.9 L52.1319588,14.8 L50.3134021,19.6 L47.2824742,14.3 L37.6845361,13.4 L44.857732,10.6 L42.7360825,6.4 L49.4041237,9.2 L55.7690722,7 L54.0515464,11.4 L60.4164948,13.9 M49.7072165,37.1 L34.2494845,30.2 L56.4762887,26.6 L49.7072165,37.1 M28.1876289,16.6 C34.7546392,16.6 40.0082474,18.8 40.0082474,21.5 C40.0082474,24.2 34.6536082,26.4 28.1876289,26.4 C21.6206186,26.4 16.3670103,24.2 16.3670103,21.5 C16.3670103,18.8 21.7216495,16.6 28.1876289,16.6" id="Shape_12_" fill="#FFFFFF"></path>
                <polyline id="Shape_13_" fill="#621B1C" points="70.4185567 15.3 83.3505155 20.7 70.4185567 26.2 70.4185567 15.3"></polyline>
                <polyline id="Shape_14_" fill="#9A2928" points="55.8701031 21.3 70.4185567 15.3 70.4185567 26.1 69.0041237 26.7 55.8701031 21.3"></polyline>
            </g>
            <g id="Hibernate" transform="translate(182.000000, 0.000000)" fill-rule="nonzero">
                <path d="M55.7,65.1 L55.4,66.1 L73.2,96.2 L74.2,96.9 L92.8,64.8 L74.2,32.6 L55.7,65.1 Z M18.3,0.6 L0.1,32.7 L19,65.1 L37,32.6 L37,31.3 L19.2,1.2 L18.3,0.6 Z" id="Shape_26_" fill="#59666C"></path>
                <path d="M18.3,0.6 L37,32.6 L74.1,32.6 L55.3,0.5 L18.3,0.5 L18.3,0.6 Z M19,65.1 L37.3,96.9 L74.1,96.9 L55.7,65.1 L19,65.1 Z" id="Shape_27_" fill="#BCAE79"></path>
            </g>
            <g id="logo_micronaut_data_black" transform="translate(298.000000, 0.000000)" fill="#000000" fill-rule="nonzero">
                <path d="M43.6712095,39.5912768 L43.5624924,39.5912768 L43.2993761,36.7977064 C43.2146865,35.8914832 43.1213945,34.8124694 43.071708,34.2530138 L41.7516774,38.9179128 L41.6361376,38.9179128 L40.3064664,34.2530138 C40.277841,34.6534725 40.1634878,35.8468394 40.0822095,36.7346713 L39.8339251,39.5917217 L39.725208,39.5917217 L40.2183654,34.1385122 L40.3870031,34.1385122 L41.6960581,38.7701881 L42.9991804,34.1385122 L43.1673731,34.1385122 L43.6712095,39.5912768 Z" id="path12" stroke="#000000"></path>
                <polygon id="path14" stroke="#000000" points="46.1402599 39.5912768 46.0247202 39.5912768 46.0247202 34.1380673 46.1402599 34.1380673"></polygon>
                <path d="M51.261682,34.5213211 L51.1952355,34.5991881 C50.9508088,34.3204845 50.5968038,34.1624988 50.2261254,34.1666927 C49.3004725,34.1666927 48.6070856,34.9711697 48.6070856,36.869344 C48.6070856,38.6770443 49.2810428,39.5539006 50.2111453,39.5539006 C50.6051438,39.5571473 50.9814502,39.3905306 51.2438838,39.0966361 L51.3137416,39.1779144 C51.0339944,39.4927843 50.6317246,39.6712584 50.210552,39.6673639 C49.2019893,39.6673639 48.487393,38.7302905 48.487393,36.8699373 C48.487393,34.929344 49.2289832,34.0585688 50.2187095,34.0585688 C50.6176429,34.0512408 50.9994136,34.2206271 51.261682,34.5213211 L51.261682,34.5213211 Z" id="path16" stroke="#000000"></path>
                <path d="M55.771737,39.5912768 L54.5217125,36.9501774 C54.4389614,36.9599351 54.3557142,36.9648874 54.2723899,36.9650092 L53.4121453,36.9650092 L53.4121453,39.5920183 L53.2966055,39.5920183 L53.2966055,34.1380673 L54.1420183,34.1380673 C55.30587,34.1380673 55.7141896,34.6884755 55.7141896,35.5488685 C55.7141896,36.3549771 55.2910382,36.8123899 54.640367,36.9322309 L55.9010703,39.5912768 L55.771737,39.5912768 Z M55.5921239,35.5488685 C55.5921239,34.7479511 55.2432798,34.2467844 54.1323777,34.2467844 L53.4125902,34.2467844 L53.4125902,36.8555505 L54.2557783,36.8555505 C55.0704893,36.8555505 55.5921239,36.452867 55.5921239,35.5488685 Z" id="path18" stroke="#000000"></path>
                <path d="M61.1700688,36.8681575 C61.1700688,38.7400795 60.5315596,39.6667706 59.4347477,39.6667706 C58.3816896,39.6667706 57.6994266,38.7515 57.6994266,36.8807645 C57.6994266,34.9962355 58.4040856,34.0579755 59.4347477,34.0579755 C60.4949251,34.0579755 61.1700688,34.9481804 61.1700688,36.8681575 Z M57.818081,36.8807645 C57.818081,38.6976606 58.4558486,39.5580535 59.4347477,39.5580535 C60.4657064,39.5580535 61.0514144,38.6930627 61.0514144,36.8681575 C61.0514144,35.0122538 60.4284786,34.1666927 59.4347477,34.1666927 C58.4697905,34.1666927 57.8174878,35.0465153 57.8174878,36.8807645 L57.818081,36.8807645 Z" id="path20" stroke="#000000"></path>
                <path d="M66.2066529,39.5912768 L66.0555168,39.5912768 L63.6150917,34.2708119 C63.6219144,34.5099006 63.628737,34.8326407 63.628737,35.456318 L63.628737,39.5912768 L63.5166086,39.5912768 L63.5166086,34.1380673 L63.6677446,34.1380673 L66.1081697,39.4585321 C66.1047584,39.1337156 66.0945245,38.6760061 66.0945245,38.1724664 L66.0945245,34.1382156 L66.2066529,34.1382156 L66.2066529,39.5912768 Z" id="path22" stroke="#000000"></path>
                <path d="M70.9553517,37.9333777 L68.850422,37.9333777 L68.3792156,39.5912768 L68.2707951,39.5912768 L69.8325841,34.1380673 L69.975711,34.1380673 L71.5420979,39.5912768 L71.4264098,39.5912768 L70.9553517,37.9333777 Z M70.9256881,37.8280719 L69.9022936,34.2331391 L68.8803823,37.8280719 L70.9256881,37.8280719 Z" id="path24" stroke="#000000"></path>
                <path d="M76.1341728,38.224081 C76.1341728,39.006607 75.7521055,39.6667706 74.7932294,39.6667706 C73.8253058,39.6667706 73.4476881,39.006607 73.4476881,38.224081 L73.4476881,34.1380673 L73.5632278,34.1380673 L73.5632278,38.2136988 C73.5632278,38.9575138 73.8985749,39.5580535 74.7932294,39.5580535 C75.6831376,39.5580535 76.018633,38.9471315 76.018633,38.2136988 L76.018633,34.1380673 L76.1341728,34.1380673 L76.1341728,38.224081 Z" id="path26" stroke="#000000"></path>
                <polygon id="path28" stroke="#000000" points="80.8800535 34.2466361 79.4946147 34.2466361 79.4946147 39.5911284 79.3789266 39.5911284 79.3789266 34.2466361 77.9899281 34.2466361 77.9899281 34.137919 80.8938471 34.137919"></polygon>
                <path d="M0.0916605505,38.6728914 C0.1257737,38.5459312 0.164781346,38.4207508 0.19325841,38.2918624 C0.555006116,36.6642202 2.13177523,35.5005168 3.7254526,35.6865076 C5.50408257,35.8941529 6.76478593,37.2850795 6.75916867,39.0343425 C6.75395872,40.7002508 5.46596483,42.1509495 3.8495948,42.3121713 C2.09172936,42.4870382 0.56079052,41.3986804 0.191923547,39.7143807 C0.16745107,39.6025489 0.125477064,39.4945734 0.0916605505,39.3849664 L0.0916605505,38.6728914 Z" id="path30"></path>
                <path d="M39.3806651,62.5135336 L39.3806651,44.3574771 C39.4118119,44.3330046 39.4348012,44.2991881 39.4574939,44.2994847 C41.1152446,44.312685 42.780708,44.2333349 44.428818,44.3675627 C46.750292,44.5565199 48.3080765,45.9063624 49.2614648,47.985633 C49.8686789,49.3101131 50.1095474,50.7234358 50.1977966,52.1647905 C50.3225321,54.2044602 50.2181162,56.2239587 49.5339251,58.1733028 C48.567633,60.9262339 46.6417232,62.3982905 43.7358761,62.5380061 C42.3609679,62.604156 40.9805719,62.5538761 39.6025489,62.5543211 C39.5276639,62.546347 39.4534905,62.5327122 39.3806651,62.5135336 L39.3806651,62.5135336 Z M41.3847385,60.7940826 C42.2850291,60.7940826 43.151948,60.8802554 43.9951361,60.7761361 C45.7848899,60.5551422 46.8395795,59.3862477 47.4898058,57.7949434 C48.254682,55.9225765 48.305555,53.9606254 48.1607966,51.9832492 C48.09154,50.8279497 47.8047089,49.6961241 47.3153838,48.6472798 C46.7918211,47.5547691 46.0337676,46.6940795 44.8681361,46.2618807 C43.7355795,45.8415474 42.5631254,46.0612064 41.3826621,46.0038073 L41.3847385,60.7940826 Z" id="path32"></path>
                <path d="M83.4090245,62.558474 C84.9415948,56.4363502 86.4566636,50.3843807 87.9844878,44.280945 C88.8663869,44.280945 89.751104,44.2693761 90.6346346,44.2971116 C90.7331177,44.3002263 90.8768379,44.5135076 90.9112477,44.6514434 C91.4782676,46.9189297 92.0297141,49.1899755 92.5872416,51.4602798 C93.459055,55.0087396 94.3317584,58.5570015 95.2053517,62.1050657 C95.2364985,62.232026 95.2575596,62.361211 95.2916728,62.5301453 L93.2083976,62.5301453 C92.9090917,61.2900581 92.5817538,60.0456697 92.3184893,58.7879327 C92.2168914,58.3015979 92.0233364,58.1558012 91.5309205,58.1676667 C89.9907859,58.2050428 88.4493165,58.1946606 86.9084404,58.1839817 C86.6055749,58.1819052 86.4704572,58.2581407 86.3988196,58.5745031 C86.1345168,59.7431009 85.8119251,60.8986468 85.557708,62.0691728 C85.4687171,62.4757125 85.2996346,62.5951086 84.9051086,62.5667798 C84.4252997,62.5322217 83.9410413,62.558474 83.4090245,62.558474 Z M91.8969694,56.6462202 C91.8763532,56.4882615 91.8711621,56.3844388 91.8487661,56.2844725 C91.1134052,53.0115877 90.3744353,49.7397905 89.6318563,46.469081 C89.6036758,46.3458287 89.4606972,46.2488287 89.3712615,46.1395183 C89.2812324,46.2506086 89.1385505,46.3493884 89.1090352,46.4747171 C88.4751239,49.1642176 87.8489745,51.855498 87.2305872,54.5485581 C87.0717385,55.2343807 86.915708,55.920945 86.7494434,56.6462202 L91.8969694,56.6462202 Z" id="path34"></path>
                <path d="M62.0541927,44.2796101 L66.5406651,62.5647034 C65.8732339,62.5647034 65.2670581,62.5817599 64.6641453,62.5489817 C64.5569113,62.5431972 64.4032538,62.3451927 64.3689924,62.2109648 C64.061974,61.0075122 63.7797248,59.797682 63.4820505,58.5920046 C63.4365168,58.4077936 63.4495688,58.1752309 63.1333547,58.1767141 C61.3424144,58.1862064 59.5513257,58.1813119 57.7296835,58.1813119 C57.453367,59.2999266 57.1809067,60.3881361 56.916159,61.4779771 C56.6536361,62.5575841 56.6567508,62.5583257 55.5348731,62.5583257 L54.6658777,62.5583257 C54.7029572,62.3638807 54.7240183,62.212893 54.7608012,62.0659098 C56.1971131,56.3126529 57.630261,50.5587039 59.0602446,44.8040627 C59.1685168,44.3650413 59.3510963,44.2503914 59.7738028,44.2701177 C60.5128716,44.3043792 61.2538685,44.2796101 62.0541927,44.2796101 Z M63.1517462,56.6493349 C62.9053899,55.5554893 62.6719373,54.5174113 62.4380398,53.47963 C61.9109174,51.141396 61.3802355,48.804052 60.861419,46.4641865 C60.8074312,46.220945 60.7264495,46.0438532 60.4674862,46.1725933 C60.3715245,46.2202034 60.3365214,46.4225092 60.3043364,46.5614832 C59.7391458,48.9818359 59.1768721,51.4029796 58.6175153,53.8249144 C58.4024541,54.7548685 58.1924358,55.6860092 57.9726284,56.6494832 L63.1517462,56.6493349 Z" id="path36"></path>
                <path d="M76.0413257,62.5571391 C75.4026682,62.5571391 74.841581,62.5690046 74.2818287,62.5452737 C74.1910581,62.5414174 74.0750734,62.3939893 74.0287982,62.2876453 C74.0034055,62.1721987 73.9999339,62.0530085 74.0185642,61.9362798 C74.0163889,56.8119903 74.0143124,51.6877503 74.0123349,46.5635596 C74.0123349,46.3754924 74.0123349,46.1874251 74.0123349,45.9603502 L70.5212248,45.9603502 L70.5212248,44.3140199 L79.5451911,44.3140199 L79.5451911,45.9352844 L76.0413257,45.9352844 L76.0413257,62.5571391 Z" id="path38"></path>
                <path d="M62.8161024,95.6846292 C61.9322846,95.6899807 61.083294,95.340341 60.4596128,94.7140942 C59.8359315,94.0878475 59.4897797,93.2374289 59.4988211,92.3536407 C59.503573,90.5192432 60.9941497,89.035837 62.8285488,89.0399226 C64.6629479,89.044025 66.1468885,90.5340697 66.1434584,92.3684701 C66.1400163,94.2028706 64.650504,95.6873455 62.8161024,95.6846292 L62.8161024,95.6846292 Z" id="path40"></path>
                <path d="M42.3369404,93.6925076 C42.3211249,95.5236612 40.8251148,96.9959599 38.9939423,96.9825201 C37.1627698,96.9690802 35.6885315,95.4749815 35.6995338,93.6437931 C35.7106598,91.8126047 37.2028447,90.3364293 39.0340459,90.3450796 C39.9170593,90.3473996 40.7625945,90.7022344 41.3827898,91.3307848 C42.0029852,91.9593352 42.3464743,92.8095428 42.3369404,93.6925076 L42.3369404,93.6925076 Z" id="path42"></path>
                <path d="M61.2743697,3.33552446 C61.2690375,4.52168175 60.6313338,5.61490936 59.601442,6.20339903 C58.5715502,6.79188871 57.3059355,6.78623486 56.2813426,6.18856723 C55.2567497,5.5908996 54.6288387,4.49201814 54.6341043,3.30586086 C54.6394365,2.11970357 55.2771402,1.02647596 56.307032,0.437986287 C57.3369238,-0.150503386 58.6025385,-0.144849534 59.6271314,0.452818091 C60.6517243,1.05048572 61.2796353,2.14936718 61.2743697,3.33552446 L61.2743697,3.33552446 Z" id="path44"></path>
                <path d="M14.2506942,14.3782477 C15.1344726,14.3802221 15.9800799,14.7386561 16.5960661,15.3723983 C17.2120523,16.0061404 17.546318,16.8615895 17.5231835,17.7450673 C17.4957508,19.576361 15.9894512,21.0389509 14.1581437,21.0124606 C12.3268361,20.9859704 10.8634713,19.4804237 10.8890191,17.6491027 C10.9145669,15.8177818 12.4193603,14.3536423 14.2506942,14.3782477 L14.2506942,14.3782477 Z" id="path46"></path>
                <path d="M4.81143731,66.1855917 C3.0062492,66.2268342 1.50135345,64.8131562 1.42978593,63.0089159 C1.37950612,61.0880489 2.80588073,59.5753532 4.69827064,59.5428715 C6.5112198,59.5424689 7.98976084,60.9955506 8.02084442,62.8082334 C8.051928,64.6209161 6.62407599,66.1238362 4.8121789,66.1855917 L4.81143731,66.1855917 Z" id="path48"></path>
                <path d="M34.1450382,1.31617431 C35.4919433,1.300846 36.7152415,2.09901842 37.2437389,3.33800139 C37.7722363,4.57698437 37.5016796,6.01237168 36.5583997,6.9739388 C35.6151198,7.93550592 34.1851914,8.23357067 32.9362902,7.72895785 C31.687389,7.22434504 30.8658777,6.01659639 30.855344,4.66964526 C30.8445866,3.78802774 31.1856778,2.93848446 31.8031082,2.30908404 C32.4205386,1.67968362 33.2633767,1.32234496 34.1450382,1.31617431 L34.1450382,1.31617431 Z" id="path50"></path>
                <path d="M21.0801468,82.8841269 C21.0712234,84.7147163 19.5811047,86.1920569 17.7505063,86.1852385 C15.919908,86.1783729 14.4408741,84.6899348 14.4456233,82.8593299 C14.4503954,81.028725 15.9371508,79.5479997 17.7677599,79.5506466 C18.6511118,79.5467743 19.4991069,79.8974041 20.1217545,80.5240106 C20.744402,81.1506171 21.0896501,82.0008175 21.0801468,82.8841269 L21.0801468,82.8841269 Z" id="path52"></path>
                <path d="M79.16787,10.8272171 C80.5180116,10.8227091 81.736857,11.6350125 82.2523499,12.8828785 C82.7678427,14.1307446 82.4776422,15.5664341 81.5179517,16.5161166 C80.5582613,17.4657991 79.1196085,17.7409338 77.8772148,17.2123883 C76.6348211,16.6838427 75.8353391,15.4565492 75.854,14.1065291 C75.8539914,13.230793 76.2042419,12.3914304 76.826718,11.7754456 C77.4491941,11.1594609 78.2921822,10.8180285 79.16787,10.8272171 Z" id="path54"></path>
                <path d="M46.3624404,81.800367 C47.5146075,81.8104509 48.5471613,82.5138372 48.9783258,83.5823352 C49.4094903,84.6508332 49.1542899,85.8738592 48.3317977,86.6807653 C47.5093056,87.4876714 46.2816217,87.7194295 45.221567,87.2679043 C44.1615124,86.8163791 43.4780068,85.770559 43.4899648,84.6184098 C43.4928486,83.8624343 43.7981667,83.139057 44.3378146,82.6096352 C44.8774626,82.0802135 45.606548,81.7887889 46.3624404,81.800367 L46.3624404,81.800367 Z" id="path56"></path>
                <path d="M28.5831116,81.5682492 C27.0142178,81.5523327 25.7527797,80.2722203 25.7598888,78.703262 C25.7670582,77.1343037 27.0400936,75.8657239 28.6090673,75.8640856 C30.1779611,75.8800021 31.4393992,77.1601145 31.4322901,78.7290729 C31.4251207,80.2980312 30.1520853,81.566611 28.5831116,81.5682492 L28.5831116,81.5682492 Z" id="path58"></path>
                <path d="M71.1655662,18.2833135 C71.1699085,19.0394875 70.8722038,19.766117 70.3385164,20.3018373 C69.804829,20.8375577 69.0793367,21.1380228 68.3231514,21.1365133 C66.7500385,21.1235137 65.4802668,19.8471285 65.4754035,18.2739694 C65.4699419,17.2527846 66.0121676,16.3069825 66.896194,15.7957625 C67.7802204,15.2845424 68.8704255,15.2863327 69.7527681,15.8004535 C70.6351107,16.3145743 71.174227,17.2621523 71.16537,18.2833135 L71.1655662,18.2833135 Z" id="path60"></path>
                <path d="M12.4208945,49.1795933 C10.8507106,49.164729 9.58860928,47.882137 9.59903245,46.3119173 C9.60945561,44.7416976 10.8884727,43.4759737 12.4587156,43.4819345 C13.4785983,43.4854973 14.4187853,44.0339615 14.9238524,44.9200093 C15.4289194,45.806057 15.4218076,46.8945027 14.9052055,47.773875 C14.3886034,48.6532473 13.4413297,49.189379 12.4214878,49.1795933 L12.4208945,49.1795933 Z" id="path62"></path>
                <path d="M29.497024,16.1017034 C29.4957435,15.3456856 29.7956354,14.6202874 30.3304162,14.0858962 C30.8651971,13.5515051 31.5908137,13.252142 32.3468303,13.2539884 C33.9190841,13.2736189 35.1841084,14.5523188 35.1868242,16.1246927 C35.1805168,17.6958811 33.9017038,18.9644679 32.3305153,18.958184 C30.7593268,18.9518532 29.49074,17.6730401 29.497024,16.1018517 L29.497024,16.1017034 Z" id="path64"></path>
                <path d="M18.3505015,31.396146 C17.1968375,31.4017574 16.1536691,30.7110331 15.7084712,29.6467158 C15.2632733,28.5823985 15.5039545,27.3546472 16.3180437,26.5371931 C17.1321329,25.719739 18.358881,25.4739957 19.4250256,25.9147997 C20.4911702,26.3556038 21.1861914,27.3959143 21.1853256,28.5495917 C21.1882221,29.3033962 20.8908685,30.0273382 20.3589447,30.5614606 C19.8270209,31.095583 19.1043116,31.3959201 18.3505015,31.396146 Z" id="path66"></path>
                <path d="M19.0321981,64.71487 C19.0222395,66.2849296 17.7416726,67.5498076 16.1716099,67.5404374 C14.6015471,67.5309627 13.3362538,66.2508062 13.3451201,64.6807405 C13.35408,63.1106748 14.633826,61.8449663 16.2038945,61.8533284 C17.7740639,61.8649619 19.0389163,63.1446723 19.0321981,64.71487 L19.0321981,64.71487 Z" id="path68"></path>
                <path d="M61.8073914,80.8812401 C61.8200779,79.3132322 63.1000049,78.0515987 64.6680329,78.0614845 C66.2360609,78.0713704 67.4999785,79.349042 67.4929229,80.9170852 C67.485808,82.4851284 66.2103958,83.7513259 64.6423425,83.7470521 C63.8844961,83.7490176 63.15757,83.4467203 62.6245977,82.9079481 C62.0916253,82.3691759 61.7972132,81.6390206 61.8073914,80.8812401 Z" id="path70"></path>
                <path d="M50.6583242,15.1999646 C49.0859304,15.2023816 47.8091277,13.9299543 47.806177,12.3575614 C47.8032365,10.7851684 49.0752629,9.50796634 50.6476548,9.50452013 C52.2200468,9.50108784 53.4976481,10.7727132 53.501581,12.345104 C53.5084181,13.1023182 53.2114318,13.8306723 52.6770669,14.3672114 C52.142702,14.9037506 51.4155599,15.203692 50.6583242,15.1999646 Z" id="path72"></path>
                <path d="M60.563893,22.4026956 C61.7803376,22.4006492 62.7681442,23.3850693 62.7703003,24.6015138 C62.7747769,25.4966728 62.2388225,26.3061305 61.4129537,26.6514864 C60.5870848,26.9968423 59.6344512,26.8098717 59.0003841,26.1779785 C58.3663171,25.5460853 58.1760761,24.5940993 58.5185937,23.7670493 C58.8611114,22.9399993 59.6687237,22.4012682 60.563893,22.4026956 L60.563893,22.4026956 Z" id="path74"></path>
                <path d="M21.7879205,52.1057599 C20.5713567,52.1053505 19.5853311,51.1190593 19.5852492,49.9024954 C19.5882696,49.1129603 20.0122725,48.3850111 20.6975401,47.9928593 C21.3828078,47.6007074 22.2252317,47.6039301 22.907479,48.0013134 C23.5897263,48.3986967 24.0081473,49.1298686 24.0051432,49.9194037 C23.996556,51.135392 23.0039095,52.1142268 21.7879205,52.1057599 L21.7879205,52.1057599 Z" id="path76"></path>
                <path d="M49.8848456,77.4711368 C48.992357,77.4672487 48.1901843,76.9258395 47.8527474,76.0995907 C47.5153105,75.2733419 47.7091431,74.3251678 48.3437723,73.6976358 C48.9784016,73.0701038 49.9286955,72.8869465 50.7510973,73.2336538 C51.5734991,73.5803612 52.105853,74.3885719 52.0996789,75.2810474 C52.0917569,76.4969706 51.1007809,77.4768642 49.8848456,77.4711368 Z" id="path78"></path>
                <path d="M63.0274557,73.1838303 C62.4435865,73.1807317 61.884883,72.9457229 61.4743486,72.5305429 C61.0638142,72.115363 60.8351067,71.5540506 60.838539,70.9701835 C60.8379478,70.1748413 61.2645747,69.4404558 61.9557958,69.0470312 C62.6470169,68.6536065 63.4962905,68.6617833 64.1798084,69.0684439 C64.8633263,69.4751045 65.2757342,70.2175682 65.2597905,71.0127508 C65.2427887,72.2286828 64.2433901,73.2006579 63.0274557,73.1838303 L63.0274557,73.1838303 Z" id="path80"></path>
                <path d="M34.1517125,72.3720856 C34.1494983,71.1556359 35.1334859,70.1675321 36.3499343,70.1646493 C37.1452047,70.1613928 37.8811914,70.5847173 38.278238,71.2737889 C38.6752846,71.9628606 38.6724419,72.8119023 38.27079,73.4982998 C37.869138,74.1846973 37.1303331,74.6030838 36.3351024,74.5944832 C35.1186136,74.5833919 34.1412628,73.5885802 34.1517125,72.3720856 Z" id="path82"></path>
                <path d="M26.0550306,60.8910764 C26.8445657,60.889228 27.5751156,61.3087262 27.9714893,61.9915563 C28.367863,62.6743865 28.3698419,63.5168104 27.9766805,64.2014952 C27.583519,64.8861799 26.8549479,65.3091056 26.0654128,65.3109602 C24.8497693,65.3007752 23.8673922,64.3166809 23.8593128,63.1010214 C23.8570054,62.5166651 24.0871357,61.9553661 24.4990037,61.5408273 C24.9108717,61.1262884 25.4706714,60.8925348 26.0550306,60.8910764 Z" id="path84"></path>
                <path d="M33.9258242,23.8166147 C34.5096434,23.8095114 35.071964,24.0366443 35.4870687,24.4472336 C35.9021733,24.8578228 36.1354426,25.4176257 36.1347248,26.0014878 C36.1490302,26.793603 35.7359086,27.5321133 35.0534294,27.9344482 C34.3709501,28.3367831 33.5247517,28.3406667 32.8386082,27.9446131 C32.1524648,27.5485595 31.732582,26.8138722 31.7396162,26.021659 C31.7320927,25.4378401 31.9593967,24.8754677 32.3704786,24.4608439 C32.7815605,24.0462202 33.3419622,23.8140999 33.9258242,23.8166147 L33.9258242,23.8166147 Z" id="path86"></path>
                <path d="M26.8734495,36.3368823 C26.8683182,37.2260812 26.3277729,38.0245329 25.504097,38.3595838 C24.6804211,38.6946347 23.7360057,38.5002281 23.1116286,37.8670976 C22.4872514,37.2339672 22.306011,36.2869369 22.6524959,35.4680051 C22.9989807,34.6490733 23.80488,34.1196957 24.6940642,34.1269434 C25.2761786,34.1308239 25.83289,34.3658779 26.2416409,34.7803593 C26.6503919,35.1948406 26.8776731,35.7547703 26.8734495,36.3368823 L26.8734495,36.3368823 Z" id="path88"></path>
                <path d="M47.109815,19.5314098 C48.0042485,19.5329154 48.8092794,20.0742637 49.1480745,20.9020507 C49.4868697,21.7298378 49.2923895,22.6802641 48.6556698,23.3084372 C48.01895,23.9366104 47.0659825,24.1182298 46.2428492,23.7682798 C45.4197158,23.4183298 44.8892952,22.6060572 44.8998761,21.711685 C44.8988131,21.1279521 45.1322667,20.5682559 45.5478083,20.158292 C45.96335,19.748328 46.5261497,19.5224589 47.109815,19.5314098 L47.109815,19.5314098 Z" id="path90"></path>
                <path d="M83.296896,33.95 L83.296896,36.0697615 L83.2212538,36.0697615 L83.2212538,33.95 L82.4477752,33.95 L82.4477752,33.8789557 L84.0764557,33.8789557 L84.0639969,33.95 L83.296896,33.95 Z M86.3033028,36.0697615 L86.2065994,34.5400092 C86.1948823,34.3471957 86.1842034,34.1681758 86.1833135,33.9798119 L86.1775291,33.9798119 L85.4083517,35.809315 L85.3322645,35.809315 L84.5595275,33.9599373 L84.5537431,33.9599373 C84.5537431,34.1168578 84.548107,34.2648792 84.5314954,34.5367462 L84.4373135,36.0697615 L84.3612263,36.0697615 L84.4926361,33.8789557 L84.5951239,33.8789557 L85.3702339,35.7382706 L86.1520183,33.8789557 L86.2421957,33.8789557 L86.3793899,36.0697615 L86.3033028,36.0697615 Z" id="path92" stroke="#000000"></path>
            </g>
            <g id="Neo4j" transform="translate(414.000000, 7.000000)" fill-rule="nonzero">
                <path d="M70.9,37.9 C70.9,57.2 55.2,72.9 35.9,72.9 C16.6,72.9 0.9,57.2 0.9,37.9 C0.9,18.6 16.6,2.9 35.9,2.9 C55.2,2.9 70.9,18.6 70.9,37.9" id="Shape_16_" fill="#008CC1"></path>
                <path d="M16.3,26.4 C16.3,27.9 15,29.2 13.5,29.2 C12,29.2 10.7,27.9 10.7,26.4 C10.7,24.9 12,23.6 13.5,23.6 C14.2,23.6 15,23.9 15.5,24.4 C16.1,25 16.3,25.7 16.3,26.4 M16.8,34.1 C16.8,35.6 15.5,36.9 14,36.9 C12.5,36.9 11.2,35.6 11.2,34.1 C11.2,32.6 12.5,31.3 14,31.3 C14.7,31.3 15.5,31.6 16,32.1 C16.5,32.7 16.8,33.4 16.8,34.1 M18.5,42.3 C18.5,43.8 17.2,45.1 15.7,45.1 C14.2,45.1 12.9,43.8 12.9,42.3 C12.9,40.8 14.2,39.5 15.7,39.5 C17.3,39.4 18.5,40.7 18.5,42.3 M22.4,49.6 C22.4,51.1 21.1,52.4 19.6,52.4 C18.1,52.4 16.8,51.1 16.8,49.6 C16.8,48.1 18.1,46.8 19.6,46.8 C21.1,46.7 22.4,48 22.4,49.6 M52.4,59.7 C52.4,61.2 51.1,62.5 49.6,62.5 C48.1,62.5 46.8,61.2 46.8,59.7 C46.8,58.2 48.1,56.9 49.6,56.9 C51.1,56.9 52.4,58.2 52.4,59.7 M57.4,53.7 C57.4,55.2 56.1,56.5 54.6,56.5 C53.1,56.5 51.8,55.2 51.8,53.7 C51.8,52.2 53.1,50.9 54.6,50.9 C56.2,50.9 57.4,52.2 57.4,53.7 M42.7,11.1 C42.7,12.6 41.4,13.9 39.9,13.9 C38.4,13.9 37.1,12.6 37.1,11.1 C37.1,9.6 38.4,8.3 39.9,8.3 C41.4,8.3 42.7,9.6 42.7,11.1 M35.3,8.6 C35.3,10.1 34,11.4 32.5,11.4 C31,11.4 29.7,10.1 29.7,8.6 C29.7,7.1 31,5.8 32.5,5.8 C34.1,5.8 35.3,7 35.3,8.6" id="Shape_17_" fill="#FFFFFF"></path>
                <path d="M55.2,10.9 C65.5,10.9 73.9,19.3 73.9,29.6 C73.9,39.9 65.5,48.3 55.2,48.3 C44.9,48.3 36.5,39.9 36.5,29.6 C36.5,19.3 44.9,10.9 55.2,10.9" id="Shape_18_" fill="#66B245"></path>
                <path d="M55.2,48.7 C44.6,48.7 36,40.1 36,29.5 C36,18.9 44.6,10.3 55.2,10.3 C65.8,10.3 74.4,18.9 74.4,29.5 C74.3,40.1 65.7,48.7 55.2,48.7 Z M55.2,11.4 C45.2,11.4 37,19.5 37,29.6 C37,39.6 45.1,47.8 55.2,47.8 C65.2,47.8 73.4,39.7 73.4,29.6 C73.4,19.5 65.2,11.4 55.2,11.4 Z" id="Shape_19_" fill="#FFFFFF"></path>
                <path d="M29.6,52.4 C38,52.4 44.9,59.2 44.9,67.7 C44.9,76.1 38.1,83 29.6,83 C21.2,83 14.3,76.2 14.3,67.7 C14.3,59.2 21.2,52.4 29.6,52.4" id="Shape_20_" fill="#66B245"></path>
                <path d="M29.6,83.4 C20.9,83.4 13.8,76.3 13.8,67.6 C13.8,58.9 20.9,51.8 29.6,51.8 C38.3,51.8 45.4,58.9 45.4,67.6 C45.4,76.3 38.3,83.4 29.6,83.4 Z M29.6,52.9 C21.5,52.9 14.8,59.5 14.8,67.7 C14.8,75.8 21.4,82.5 29.6,82.5 C37.8,82.5 44.4,75.9 44.4,67.7 C44.4,59.5 37.7,52.9 29.6,52.9 Z" id="Shape_21_" fill="#FFFFFF"></path>
                <path d="M17,0.6 C22.6,0.6 27.2,5.2 27.2,10.8 C27.2,16.4 22.6,21 17,21 C11.4,21 6.8,16.4 6.8,10.8 C6.8,5.2 11.4,0.6 17,0.6" id="Shape_22_" fill="#66B245"></path>
                <path d="M17,21.5 C11.1,21.5 6.3,16.7 6.3,10.8 C6.3,4.9 11.1,0.1 17,0.1 C22.9,0.1 27.7,4.9 27.7,10.8 C27.7,16.7 22.9,21.5 17,21.5 Z M17,1.1 C11.7,1.1 7.3,5.4 7.3,10.8 C7.3,16.2 11.6,20.5 17,20.5 C22.3,20.5 26.7,16.2 26.7,10.8 C26.7,5.5 22.4,1.1 17,1.1 Z" id="Shape_23_" fill="#FFFFFF"></path>
            </g>
            <path d="M565.116,17.0027771 C555.216,17.5027771 548.516,21.9027771 544.516,30.4027771 C541.116,38.1027771 541.516,48.2027771 544.516,56.0027771 C548.016,63.6027771 553.716,67.6027771 563.216,69.1027771 C565.216,69.4027771 566.616,70.5027771 570.416,75.1027771 L575.216,80.7027771 L583.916,80.7027771 L578.116,74.9027771 C574.916,71.7027771 572.316,68.9027771 572.316,68.7027771 C572.316,68.5027771 573.516,67.9027771 575.016,67.5027771 C579.916,66.0027771 583.916,62.3027771 586.716,56.5027771 C589.016,51.9027771 589.316,50.4027771 589.616,44.7027771 C590.516,27.6027771 581.416,16.8027771 566.416,17.0027771 C566.116,17.0027771 565.616,17.0027771 565.116,17.0027771 Z M574.216,61.8027771 C570.016,63.8027771 563.916,64.3027771 559.916,62.8027771 C555.816,61.3027771 551.816,57.0027771 550.016,52.1027771 C548.016,46.8027771 548.316,37.0027771 550.616,32.6027771 C554.316,25.6027771 559.116,22.3027771 566.316,22.3027771 C576.816,22.3027771 582.916,28.8027771 583.616,40.9027771 C584.116,51.0027771 580.716,58.6027771 574.216,61.8027771 Z M515.516,29.9027771 C516.616,20.2027771 528.616,21.5027771 535.216,25.2027771 L535.216,18.7027771 C535.216,18.7027771 531.516,17.1027771 526.216,17.0027771 C518.116,16.9027771 512.916,19.5027771 510.416,24.9027771 C506.816,32.9027771 510.016,38.9027771 521.516,45.6027771 C528.016,49.4027771 530.816,52.6027771 530.816,56.2027771 C530.816,63.6027771 521.916,66.1027771 512.816,61.5027771 C510.916,60.6027771 509.316,59.8027771 509.216,59.8027771 C508.916,61.9027771 509.016,66.9027771 509.016,66.9027771 C509.016,66.9027771 511.816,68.1027771 516.016,68.9027771 C526.516,71.0027771 536.016,66.1027771 536.916,58.1027771 C537.716,50.6027771 535.016,46.7027771 524.716,40.6027771 C518.216,36.4027771 515.116,33.4027771 515.516,29.9027771 Z M604.016,17.6027771 L597.716,17.6027771 L597.716,68.1027771 L624.416,68.1027771 L624.416,62.1027771 L604.116,62.1027771 L604.116,40.4027771 L604.016,17.6027771 Z" id="Shape_15_" fill="#65717F" fill-rule="nonzero"></path>
            <g id="Casandra" transform="translate(711.949000, 52.435750) scale(-1, 1) rotate(-180.000000) translate(-711.949000, -52.435750) translate(644.449000, 12.935750)">
                <g id="g2828" transform="translate(22.551000, 24.935750)" fill="#BBE6FB" fill-rule="nonzero">
                    <g id="g2830" transform="translate(0.243769, 0.267374)">
                        <g id="g2836" transform="translate(0.535317, 0.323121)">
                            <path d="M82.8815295,26.7374005 C83.8468556,14.4034376 66.1498207,2.66438196 43.3549625,0.519374005 C20.5601041,-1.62563395 1.29868044,6.63622281 0.334573233,18.9695172 C-0.630752817,31.3054854 17.066282,43.0438727 39.8611403,45.1888806 C62.6559987,47.3332202 81.9174223,39.0733687 82.8815295,26.7374005" id="path2838"></path>
                        </g>
                    </g>
                </g>
                <g id="g2840" transform="translate(36.551000, 26.935750)">
                    <g id="g2858-Clipped" transform="translate(0.000000, 0.135584)">
                        <mask id="mask-2" fill="white">
                            <use xlink:href="#path-1"></use>
                        </mask>
                        <g id="path-1"></g>
                        <g id="g2858" opacity="0.35000604" mask="url(#mask-2)">
                            <g transform="translate(-0.843750, -0.936170)" id="g2860">
                                <g transform="translate(0.232759, 0.258254)">
                                    <g id="Group" transform="translate(0.234804, 0.625921)" fill="#FFFFFF" fill-rule="nonzero">
                                        <path d="M28.1056034,42.7087308 C19.3879784,42.8660074 9.18686635,39.0256112 1.59652047,35.4292649 C0.806508621,32.9033485 0.381258621,30.216766 0.381258621,27.4318856 C0.381258621,12.5936522 12.4568922,0.563348496 27.353473,0.563348496 C42.2500539,0.563348496 54.3256875,12.5936522 54.3256875,27.4318856 C54.3256875,32.1278122 53.1134806,36.5396919 50.9878416,40.380766 C44.9151983,41.4281467 36.5629461,42.5561995 28.1056034,42.7087308" id="path2862"></path>
                                    </g>
                                </g>
                            </g>
                        </g>
                    </g>
                </g>
                <g id="g2864" transform="translate(41.551000, 30.935750)" fill="#FFFFFF" fill-rule="nonzero">
                    <g id="g2866" transform="translate(0.000000, 0.404170)">
                        <g id="g2872" transform="translate(0.092207, 0.624914)">
                            <path d="M21.7241379,37.722534 C16.9575,38.0472173 8.74155175,35.271243 1.89060345,32.5020048 C0.849655175,29.7597113 0.271551724,26.758749 0.271551724,23.609591 C0.271551724,10.6909703 10.7643103,0.218251805 21.8641379,0.218251805 C32.8909483,0.218251805 42.6468966,10.7078108 43.4567242,23.609591 C43.7198276,27.8109382 42.4242242,31.7697834 40.6253448,35.1829992 C33.5227586,36.5794066 25.9850862,37.4322053 21.7241379,37.722534" id="path2874"></path>
                        </g>
                    </g>
                </g>
                <g id="g2876" transform="translate(41.551000, 32.935750)" fill="#373535" fill-rule="nonzero">
                    <g id="g2878" transform="translate(0.000000, 0.134483)">
                        <g id="g2884" transform="translate(5.963155, 17.142921)">
                            <path d="M3.62068966,7.39655172 C4.20543103,8.83955172 5.0912931,9.54625861 5.94939655,10.755931 C5.85405173,11.0423793 5.64525862,11.9790517 5.64525862,12.3038276 C5.64525862,13.7535517 6.70068966,14.9302758 8.00232758,14.9302758 C8.30948276,14.9302758 8.60275858,14.8623621 8.87129308,14.7433449 C12.7725862,18.0563276 17.9085345,19.5006724 23.0698276,18.2150172 C23.5411207,18.0966724 24.0033621,17.9534483 24.4571552,17.7961035 C19.3562069,18.5841724 13.6065518,16.5709655 9.69560342,13.053569 C9.81508617,12.7395517 10.1463793,11.8418793 10.1463793,11.4807931 C10.1463793,10.0303965 9.3039655,9.67737931 8.00232758,9.67737931 C7.70663793,9.67737931 7.42422414,9.74058624 7.16293103,9.85153446 C6.27948276,8.52956897 5.19689655,6.01137931 4.66706897,4.43725862 C6.82982758,2.2815 8.78379308,1.50015517 11.3303448,0.439758621 C11.3237069,0.574913793 11.4178448,0.699982758 11.4178448,0.837827586 C11.4178448,5.21053449 14.8725862,8.76424138 18.7974138,8.76424138 C22.3143103,8.76424138 25.2265518,5.91455172 25.795,2.17593103 C27.5498276,3.41989655 29.2467242,4.37337931 30.5399138,6.21713793 C30.2381897,6.62731035 29.912931,7.78856897 29.912931,8.36012069 C29.912931,9.67603446 30.8712069,10.7431552 32.0521552,10.7431552 C32.2193103,10.7431552 32.3798276,10.7162586 32.5361207,10.6759138 C33.1926724,12.179431 33.6881034,13.7730517 34.0049138,15.416431 C27.8678448,20.4790345 15.9937931,19.7884655 15.9937931,19.7884655 C15.9937931,19.7884655 6.545,20.3378276 0.148448276,16.8641379 C0.575086207,13.427431 1.80551724,10.1601724 3.62068966,7.39655172" id="path2886"></path>
                        </g>
                        <g id="g2888" transform="translate(31.675423, 11.718962)">
                            <path d="M7.24137931,14.7931035 C7.67525862,14.3573793 7.91181034,13.9747758 8.09827586,13.6022586 C8.67215517,12.452431 7.52077586,11.4001035 6.33982758,11.4001035 C6.21974138,11.4001035 6.10387931,11.4182586 5.98862069,11.4397758 C4.65801724,9.12263793 2.3275,6.15124138 0.257068966,4.6557931 C3.43181034,4.07617242 6.42551724,2.65939655 8.807931,0.470017242 C10.5428448,3.93362069 11.8734483,8.93503449 11.8734483,13.1833449 C11.8734483,16.4169828 10.5923276,18.7872414 8.65827583,20.5261035 C8.55689658,18.7939655 7.72715518,16.3712586 7.24137931,14.7931035" id="path2890"></path>
                        </g>
                        <g id="g2892" transform="translate(9.524948, 4.574565)">
                            <path d="M3.62068966,0 C4.67853448,3.25515517 7.28060345,5.77737931 9.742069,7.99634483 C9.38181033,8.5457069 8.84172417,9.906 8.61663792,10.5501724 C5.61448276,11.5675345 2.95810345,13.4718103 0.897931033,15.9926897 C0.882844825,15.9193965 0.864137933,15.8481207 0.848448275,15.7748276 C0.460431034,13.8376035 0.389224138,11.8963449 0.582327586,10.0028276 C2.01974138,9.70427584 3.10775862,8.30094828 3.10775862,6.61251724 C3.10775862,5.6112931 2.32025862,4.16022414 1.70896552,3.52882758 C2.37336207,1.93117242 2.82655173,1.16058621 3.62068966,0" id="path2894"></path>
                        </g>
                        <g id="g2896" transform="translate(0.287000, 1.169529)">
                            <path d="M12.6724138,0.672413793 C11.4106034,2.07036207 10.5380173,4.85886207 9.71913792,6.60982758 C9.56586208,6.58360345 9.4089655,6.56544828 9.24844825,6.56544828 C7.53706897,6.56544828 5.74422414,8.1657931 6.14974138,10.0176207 C6.37422414,11.0423793 7.00905173,11.7127758 8.04275862,12.2722242 C7.80741379,14.3950345 7.74344828,17.4464483 8.18577586,19.6533103 C8.3125,20.2847069 8.5810345,20.580569 8.75905175,21.1817069 C6.87086207,24.2606897 5.65068966,28.3018965 5.65068966,32.3115 C5.65068966,32.4580862 5.65732758,32.6026551 5.66034483,32.7478965 C2.46931034,30.9646551 0.076637931,28.1553103 0.076637931,23.7328448 C0.076637931,13.950569 5.13293103,4.35455172 12.6561207,0.593068965 C12.6615518,0.619293103 12.6663793,0.646189655 12.6724138,0.672413793" id="path2898"></path>
                        </g>
                        <g id="g2900" transform="translate(13.958543, 0.572292)">
                            <path d="M17.5,14.7931035 C16.5278448,11.7121035 13.8992242,9.4991897 10.8017242,9.4991897 C9.14465517,9.4991897 7.62456897,10.1359655 6.41646552,11.1943448 C3.92603448,9.0332069 1.66672414,5.23675862 0.518362069,1.94327586 C1.0337069,1.32532758 1.39275862,0.816982758 1.97086207,0.268965517 C3.71301724,-0.236689655 6.11232758,0.268965517 7.99810345,0.268965517 C15.5834483,0.268965517 22.3016379,4.02910345 26.1534483,10.6227931 C23.5924138,12.5990172 20.5715518,14.4797586 17.5,14.7931035" id="path2902"></path>
                        </g>
                    </g>
                </g>
                <g id="g2904" transform="translate(40.551000, 31.935750)" fill="#1287B1" fill-rule="nonzero">
                    <g id="g2906" transform="translate(0.363386, 0.000000)">
                        <g id="g2912" transform="translate(6.395344, 16.607974)">
                            <path d="M3.6338558,7.36810345 C4.22072351,8.80555345 4.95657931,10.1358311 5.81719749,11.3408509 C5.72150595,11.6255276 5.66578683,11.9329784 5.66578683,12.2565052 C5.66578683,13.7006534 6.7250558,14.8728517 8.03142696,14.8728517 C8.33969906,14.8728517 8.63404134,14.8051991 8.90355233,14.6866397 C12.8190319,17.9868802 17.9736564,19.4256698 23.1537179,18.1449595 C23.6267247,18.0270698 24.090647,17.8843966 24.5460903,17.7276569 C19.4265931,18.5126948 14.1369104,16.7771716 10.2117405,13.2726336 C10.3316577,12.9604939 10.3970671,12.6162026 10.3970671,12.2565052 C10.3970671,10.811687 9.3377981,9.64015862 8.03142696,9.64015862 C7.73466207,9.64015862 7.45122132,9.70312244 7.18897806,9.81364394 C6.30231724,8.49676294 5.57736301,7.04189741 5.04560877,5.4731612 C6.90977681,3.25134311 9.19789471,1.49438534 11.7531009,0.438067241 C11.7470445,0.572702586 11.734326,0.705998276 11.734326,0.843312931 C11.734326,5.19920172 14.9266683,8.73053276 18.8657681,8.73053276 C22.3954533,8.73053276 25.3182847,5.89180345 25.8888,2.16756206 C27.6500088,3.40674311 29.2149893,4.99825345 30.5122759,6.83492069 C30.2094545,7.24351552 30.0217053,7.75861294 30.0217053,8.32796638 C30.0217053,9.63881894 30.9834659,10.7018353 32.1687085,10.7018353 C32.3364715,10.7018353 32.4975724,10.6750422 32.6544338,10.6348526 C33.313373,12.132587 33.8106056,13.7200784 34.1285681,15.357137 C27.9691825,20.4002689 16.0519523,19.7123561 16.0519523,19.7123561 C16.0519523,19.7123561 6.5688,20.2596052 0.148988088,16.7992759 C0.577177429,13.375787 1.81208276,10.1210948 3.6338558,7.36810345" id="path2914"></path>
                        </g>
                        <g id="g2916" transform="translate(32.728686, 12.624977)">
                            <path d="M7.2677116,14.0663794 C7.70316865,13.6323311 7.98236991,13.0100612 7.98236991,12.3107612 C7.98236991,10.9999086 7.02060941,9.93622244 5.83536677,9.93622244 C5.71484389,9.93622244 5.5985605,9.95430776 5.48288276,9.97574223 C4.14744075,7.66751638 2.37775298,5.69956294 0.299187461,4.20986638 C3.37100689,3.67869311 6.26234483,2.23722414 8.65281628,0.0562655172 C10.3940389,3.50654741 11.3891097,7.48063448 11.3891097,11.7126052 C11.3891097,14.9338061 10.1033304,17.2949483 8.16224577,19.0271224 C8.0604978,17.3016466 7.75525392,15.6384647 7.2677116,14.0663794" id="path2918"></path>
                        </g>
                        <g id="g2920" transform="translate(9.887237, 4.447722)">
                            <path d="M4.23949843,0 C5.30118997,3.24263534 7.14597743,6.15236638 9.61639376,8.36212759 C9.25482506,8.91004655 8.95684893,9.50820256 8.73094419,10.1498974 C5.71726646,11.1633466 3.05183323,13.0602983 0.984169281,15.5714819 C0.969028213,15.4984706 0.949647652,15.4274689 0.934506585,15.3544578 C0.544472727,13.4246845 0.473006896,11.4908922 0.667418182,9.60465776 C2.10945329,9.30725435 3.2020326,7.90932414 3.2020326,6.22738706 C3.2020326,5.2300138 2.81502696,4.33311466 2.20151097,3.70414655 C2.75809655,2.39932241 3.44247273,1.15612241 4.23949843,0" id="path2922"></path>
                        </g>
                        <g id="g2924" transform="translate(0.279746, 1.874378)">
                            <path d="M13.3241379,0.669827586 C12.0577392,2.06239914 10.9948364,3.66194741 10.173585,5.40550862 C10.0191461,5.37938534 9.86167897,5.36196983 9.70118372,5.36196983 C7.98358119,5.36196983 6.59120877,6.90190345 6.59120877,8.80086466 C6.59120877,10.1619544 7.30828965,11.3354922 8.34575549,11.8927888 C8.1101605,14.0067647 8.19010533,16.2011198 8.63464704,18.3994939 C8.76183193,19.0277922 8.91687652,19.6413544 9.09554103,20.24085 C7.20048526,23.3073206 6.09034232,27.0148164 6.09034232,31.0089983 C6.09034232,31.1550206 6.09639874,31.2990336 6.09942696,31.4430466 C2.89678871,29.6673336 0.495415674,26.8681241 0.495415674,22.463338 C0.495415674,12.7180164 5.75723887,4.33780345 13.3077856,0.590787931 C13.3132364,0.616911206 13.3180815,0.643704311 13.3241379,0.669827586" id="path2926"></path>
                        </g>
                        <g id="g2928" transform="translate(15.025448, 0.101077)">
                            <path d="M16.9579938,14.7362069 C15.9823035,11.6670569 13.3441241,9.46265436 10.2353605,9.46265436 C8.57226585,9.46265436 7.04665204,10.0969811 5.83415549,11.1512897 C3.33466834,8.9984638 1.44809153,6.06394914 0.296159247,2.7824638 C0.812772413,2.16689224 1.3651185,1.58682155 1.94532413,1.04158189 C3.69442006,0.537871552 5.5289116,0.267931034 7.42154483,0.267931034 C15.0344727,0.267931034 21.7274295,4.61511206 25.5932464,11.1827716 C23.0228991,13.1520647 20.0407147,14.4240672 16.9579938,14.7362069" id="path2930"></path>
                        </g>
                    </g>
                </g>
                <g id="g2958" transform="translate(2.551000, 34.935750)">
                    <g id="g2974-Clipped">
                        <mask id="mask-4" fill="white">
                            <use xlink:href="#path-3"></use>
                        </mask>
                        <g id="path-3"></g>
                        <g id="g2974" opacity="0.35000604" mask="url(#mask-4)" fill="#373535" fill-rule="nonzero">
                            <g id="g2976" transform="translate(0.245243, 0.251253)">
                                <path d="M0,0 C20.5169629,22.9047091 36.9031691,29.9759159 51.7746227,33.2039871 C53.7424025,33.6310022 54.1145537,38.4313578 54.1145537,38.4313578 C54.1145537,38.4313578 54.3900186,34.8957543 55.7673428,34.4347953 C57.144059,33.9731573 58.9336684,39.9690194 58.9336684,39.9690194 C58.9336684,39.9690194 57.2814874,34.5882219 58.9336684,34.2806897 C60.5864575,33.9731573 63.6153548,39.5073815 63.6153548,39.5073815 C63.6153548,39.5073815 62.3766751,34.7423276 63.2030696,34.4347953 C64.028248,34.1272629 68.1590047,41.3518966 68.1590047,41.3518966 C68.1590047,41.3518966 65.6804291,36.5868427 68.0215763,36.1252047 C70.3633316,35.6642457 73.7783661,39.3777156 73.7783661,39.3777156 C73.7783661,39.3777156 71.0930398,35.9799246 72.2897612,35.510819 C77.384949,33.5115194 81.5078004,40.9045151 81.5078004,40.9045151 C81.5078004,40.9045151 80.5524907,37.6628663 78.0739151,34.1272629 C83.4433515,32.5902802 87.4318151,41.6214116 87.4318151,41.6214116 L83.4433515,32.5902802 C85.5090341,31.3594719 93.7717633,41.9669612 93.7717633,41.9669612 C93.7717633,41.9669612 89.5029704,33.665625 87.0243942,31.9752156 C88.401111,30.7450862 93.3582618,35.6642457 93.3582618,35.6642457 C93.3582618,35.6642457 89.3649334,30.1307004 90.8796864,29.8231681 C93.0827974,27.8245474 101.206274,40.1224462 101.206274,40.1224462 C101.206274,40.1224462 98.0399482,32.8978125 93.3582618,27.2094828 C97.2713225,25.0241703 106.990427,39.0464224 106.990427,39.0464224 C106.990427,39.0464224 106.714963,34.5882219 99.6921295,27.5170151 C104.924746,28.2855065 111.672114,39.3539547 111.672114,39.3539547 C111.672114,39.3539547 109.193538,31.0526185 103.271956,25.2115409 C108.40971,25.8082759 116.628049,39.9690194 116.628049,39.9690194 C116.628049,39.9690194 113.461723,30.1307004 106.990427,24.4423707 C114.150689,22.674569 124.477885,34.5882219 124.477885,34.5882219 C124.477885,34.5882219 120.415843,26.1327802 115.113905,22.674569 C121.035487,20.1382759 129.159572,30.5916594 129.159572,30.5916594 C129.159572,30.5916594 121.035487,16.6019935 108.092287,17.2170582 C103.845385,17.4186853 90.99948,31.6011531 63.4779264,30.4375538 C27.1262951,28.8998922 19.4157115,11.6828341 0,0" id="path2978"></path>
                            </g>
                        </g>
                    </g>
                    <g id="g2980" transform="translate(1.086110, 1.990882)" fill="#373535" fill-rule="nonzero">
                        <path d="M0,0 C20.5169629,22.9047091 36.902561,29.9752371 51.7740146,33.2039871 C53.7424025,33.6310022 54.1145537,38.4306788 54.1145537,38.4306788 C54.1145537,38.4306788 54.3894105,34.8943966 55.7673428,34.4341163 C57.144059,33.9731573 58.9336684,39.9676616 58.9336684,39.9676616 C58.9336684,39.9676616 57.2814874,34.5868642 58.9336684,34.2800107 C60.5864575,33.9731573 63.6153548,39.5067026 63.6153548,39.5067026 C63.6153548,39.5067026 62.3766751,34.7416487 63.2018535,34.4341163 C64.028248,34.1265841 68.1590047,41.3518966 68.1590047,41.3518966 C68.1590047,41.3518966 65.6804291,36.5861638 68.0215763,36.1252047 C70.3621154,35.6635668 73.7783661,39.3770366 73.7783661,39.3770366 C73.7783661,39.3770366 71.0930398,35.9792457 72.2897612,35.5101401 C77.384949,33.5115194 81.5065842,40.9038362 81.5065842,40.9038362 C81.5065842,40.9038362 80.5512746,37.6621875 78.0739151,34.1265841 C83.4433515,32.5889224 87.4318151,41.6214116 87.4318151,41.6214116 L83.4433515,32.5889224 C85.5090341,31.3594719 93.7705474,41.9656034 93.7705474,41.9656034 C93.7705474,41.9656034 89.5029704,33.665625 87.0243942,31.9745366 C88.401111,30.7444073 93.3582618,35.6635668 93.3582618,35.6635668 C93.3582618,35.6635668 89.3649334,30.1293427 90.8796864,29.8224892 C93.0827974,27.8231897 101.206274,40.1217672 101.206274,40.1217672 C101.206274,40.1217672 98.0387323,32.8964547 93.3582618,27.2088038 C97.2713225,25.0228125 106.990427,39.0457435 106.990427,39.0457435 C106.990427,39.0457435 106.714963,34.5868642 99.6921295,27.5156573 C104.924746,28.2848276 111.672114,39.3532759 111.672114,39.3532759 C111.672114,39.3532759 109.193538,31.0519397 103.271956,25.2101832 C108.40971,25.8069181 116.628049,39.9676616 116.628049,39.9676616 C116.628049,39.9676616 113.461723,30.1293427 106.990427,24.4416918 C114.150689,22.6738901 124.477885,34.5868642 124.477885,34.5868642 C124.477885,34.5868642 120.415843,26.1327802 115.113905,22.6738901 C121.035487,20.1375969 129.159572,30.5909806 129.159572,30.5909806 C129.159572,30.5909806 121.035487,16.6013147 108.091071,17.2163793 C103.845385,17.4186853 90.99948,31.6011531 63.4773183,30.436875 C27.1262951,28.8998922 19.4151035,11.6828341 0,0" id="path2982"></path>
                    </g>
                </g>
                <g id="g2984" transform="translate(0.551000, 0.935750)">
                    <g id="g2986" transform="translate(0.244335, 0.269328)">
                        <g id="g3002-Clipped" transform="translate(0.610837, 0.000000)">
                            <mask id="mask-6" fill="white">
                                <use xlink:href="#path-5"></use>
                            </mask>
                            <g id="path-5"></g>
                            <g id="g3002" opacity="0.35000604" mask="url(#mask-6)" fill="#373535" fill-rule="nonzero">
                                <g id="g3004" transform="translate(0.317330, 0.457993)">
                                    <path d="M0,30.9727767 C10.8924532,24.9499183 20.8521577,31.887147 33.4042562,27.9879438 C42.9473695,25.022637 54.5667192,21.367176 70.334266,23.8833775 C86.1024232,26.3982323 99.5891036,33.94549 106.021832,47.4395209 C108.027212,53.4610327 116.187389,46.0666188 116.187389,46.0666188 C116.187389,46.0666188 110.240276,48.8110762 110.378936,47.5149328 C110.516985,46.2194628 119.300217,41.721677 119.300217,41.721677 C119.300217,41.721677 111.346503,44.4661343 111.830896,42.4077913 C112.315291,40.3494483 121.788769,32.1160762 121.788769,32.1160762 C121.788769,32.1160762 111.069793,41.1116479 110.171251,39.8922632 C109.271488,38.6722051 114.735429,33.7165608 114.735429,33.7165608 C114.735429,33.7165608 105.675488,39.8922632 102.493636,38.0709292 C100.205438,36.7626661 111.899921,28.3037314 111.899921,28.3037314 C111.899921,28.3037314 104.291941,34.708363 102.493636,33.0311198 C100.695941,31.3532033 111.069793,17.6315899 111.069793,17.6315899 C111.069793,17.6315899 99.311783,31.6588911 98.1371429,30.9727767 C96.9606697,30.2866625 101.386798,23.5776896 101.386798,23.5776896 C101.386798,23.5776896 95.5777339,30.591677 93.9877241,29.3716188 C92.3971036,28.1515608 102.286562,9.93216151 102.286562,9.93216151 C102.286562,9.93216151 91.566975,28.608746 87.1408473,25.4845354 C94.0915661,8.67439746 91.4979509,6.27266062 91.4979509,6.27266062 C91.4979509,6.27266062 90.6110152,23.4221525 81.9536158,22.9683339 C77.5965123,22.7394047 84.0280197,10.1610907 84.0280197,10.1610907 C84.0280197,10.1610907 78.1083941,21.6492976 74.1660493,21.4203684 C81.4319606,6.26323412 78.8420098,0.0983049002 78.8420098,0.0983049002 C78.8420098,0.0983049002 80.0435271,13.0435789 70.1888867,20.2474428 C73.922936,16.5892885 67.8457143,0.0983049002 67.8457143,0.0983049002 C67.8457143,0.0983049002 73.1917636,24.3991416 63.9027587,19.7660181 C62.4349163,19.0354646 63.7989163,7.64488929 63.7989163,7.64488929 C63.7989163,7.64488929 61.9315862,20.681735 59.1315074,19.9949474 C57.4987389,19.5956679 48.7570444,1.9277187 48.7570444,1.9277187 C48.7570444,1.9277187 55.9154483,21.0244555 53.737202,20.2238766 C52.1502463,19.6401071 49.1724138,11.7615753 49.1724138,11.7615753 C49.1724138,11.7615753 50.6243744,19.5377622 49.1724138,19.9949474 C47.7204532,20.4528058 39.6280788,11.7615753 39.6280788,11.7615753 C39.6280788,11.7615753 45.6454384,19.5377622 44.6076256,21.1389201 C43.0353301,23.5648965 41.1924335,23.6786878 39.0056354,22.7394047 C35.8237832,21.3725626 31.5369261,14.9638911 31.5369261,14.9638911 C31.5369261,14.9638911 35.8103448,21.4526878 35.0632906,23.8833775 C33.8642168,27.7886407 21.5778325,16.3361198 21.5778325,16.3361198 C21.5778325,16.3361198 28.8394679,23.8833775 27.1798227,25.4845354 C25.5201773,27.08502 16.5078818,26.5901288 13.6937537,26.598882 C5.39491626,26.6271615 2.5190936,28.7730363 0,30.9727767" id="path3006"></path>
                                </g>
                            </g>
                        </g>
                        <g id="g3008" transform="translate(0.513592, 1.830289)" fill="#373535" fill-rule="nonzero">
                            <path d="M0,30.9727767 C10.8924532,24.9499183 20.8515468,31.887147 33.4036454,27.9872704 C42.9467587,25.0233104 54.5667192,21.367176 70.3348769,23.8833775 C86.1030348,26.3989057 99.5884928,33.9461633 106.021221,47.4388475 C108.026601,53.4610327 116.186779,46.0672922 116.186779,46.0672922 C116.186779,46.0672922 110.239665,48.8110762 110.378325,47.5149328 C110.516374,46.2194628 119.299606,41.721677 119.299606,41.721677 C119.299606,41.721677 111.345892,44.465461 111.830286,42.407118 C112.314679,40.3494483 121.789379,32.1160762 121.789379,32.1160762 C121.789379,32.1160762 111.069182,41.1123212 110.17064,39.8915899 C109.272098,38.6722051 114.735429,33.7172341 114.735429,33.7172341 C114.735429,33.7172341 105.674877,39.8915899 102.493636,38.0716025 C100.204828,36.7626661 111.899311,28.3044047 111.899311,28.3044047 C111.899311,28.3044047 104.29133,34.708363 102.493636,33.0311198 C100.69533,31.3532033 111.070404,17.6315899 111.070404,17.6315899 C111.070404,17.6315899 99.311783,31.6588911 98.1365321,30.9727767 C96.9612804,30.2859891 101.387409,23.578363 101.387409,23.578363 C101.387409,23.578363 95.5771232,30.591677 93.9871134,29.3716188 C92.3964928,28.1522341 102.285951,9.93216151 102.285951,9.93216151 C102.285951,9.93216151 91.5663643,28.6094192 87.1402366,25.4838621 C94.0909554,8.67439746 91.4973402,6.27266062 91.4973402,6.27266062 C91.4973402,6.27266062 90.6104036,23.4221525 81.9530049,22.9676606 C77.5959015,22.7387314 84.0274088,10.1610907 84.0274088,10.1610907 C84.0274088,10.1610907 78.1077832,21.6499709 74.1660493,21.4210417 C81.4325714,6.26323412 78.841399,0.0983049002 78.841399,0.0983049002 C78.841399,0.0983049002 80.0429163,13.0442522 70.1882759,20.2481162 C73.9223251,16.5892885 67.8451035,0.0983049002 67.8451035,0.0983049002 C67.8451035,0.0983049002 73.1923744,24.3991416 63.9033695,19.7660181 C62.4355271,19.0347913 63.7995271,7.64488929 63.7995271,7.64488929 C63.7995271,7.64488929 61.9309754,20.6810618 59.1315074,19.9949474 C57.498128,19.5956679 48.7564335,1.9277187 48.7564335,1.9277187 C48.7564335,1.9277187 55.9148374,21.0244555 53.7365912,20.2232033 C52.1496354,19.6407804 49.1718029,11.7622486 49.1718029,11.7622486 C49.1718029,11.7622486 50.6243744,19.5377622 49.1718029,19.9949474 C47.7198423,20.4521325 39.6280788,11.7622486 39.6280788,11.7622486 C39.6280788,11.7622486 45.6454384,19.5377622 44.6070148,21.1389201 C43.0347192,23.5648965 41.1918227,23.6780145 39.0056354,22.7387314 C35.8231724,21.3725626 31.5363153,14.9638911 31.5363153,14.9638911 C31.5363153,14.9638911 35.809734,21.4533612 35.0632906,23.8833775 C33.8636059,27.7879673 21.5778325,16.3361198 21.5778325,16.3361198 C21.5778325,16.3361198 28.8394679,23.8833775 27.1792118,25.4838621 C25.5195665,27.08502 16.5072709,26.5894555 13.6931429,26.598882 C5.39430542,26.6278349 2.5190936,28.7730363 0,30.9727767" id="path3010"></path>
                        </g>
                    </g>
                </g>
            </g>
        </g>
    </g>
</svg>