<?xml version="1.0" encoding="UTF-8"?>
<svg width="795px" height="97px" viewBox="0 0 795 97" version="1.1" xmlns="http://www.w3.org/2000/svg" xmlns:xlink="http://www.w3.org/1999/xlink">
    <!-- Generator: Sketch 50.2 (55047) - http://www.bohemiancoding.com/sketch -->
    <title>fastconfiguration</title>
    <desc>Created with Sketch.</desc>
    <defs>
        <polygon id="path-1" points="0.00564827586 45.57 63.939931 45.57 63.939931 0.546 0.00564827586 0.546"></polygon>
        <polygon id="path-3" points="0.292044828 45.0326897 154.100172 45.0326897 154.100172 0.267931034 0.292044828 0.267931034"></polygon>
        <polygon id="path-5" points="0.376189655 54.0525517 144.755172 54.0525517 144.755172 0.598137931 0.376189655 0.598137931"></polygon>
    </defs>
    <g id="Page-1" stroke="none" stroke-width="1" fill="none" fill-rule="evenodd">
        <g id="fastconfiguration">
            <g id="Group" fill-rule="nonzero">
                <path d="M23.8650794,96.3071429 L21.3246032,95.4603175 C21.3246032,95.4603175 21.6325397,82.45 16.9365079,81.5261905 C13.8571429,77.9079365 17.3984127,-71.8261905 28.6380952,81.0642857 C28.6380952,81.0642857 24.7888889,82.9888889 24.0960317,86.2992063 C23.4031746,89.4555556 23.8650794,96.3071429 23.8650794,96.3071429 Z" id="Shape" fill="#FFFFFF"></path>
                <path d="M23.8650794,96.3071429 L21.3246032,95.4603175 C21.3246032,95.4603175 21.6325397,82.45 16.9365079,81.5261905 C13.8571429,77.9079365 17.3984127,-71.8261905 28.6380952,81.0642857 C28.6380952,81.0642857 24.7888889,82.9888889 24.0960317,86.2992063 C23.4031746,89.4555556 23.8650794,96.3071429 23.8650794,96.3071429 Z" id="Shape_1_" fill="#A6A385"></path>
                <path d="M25.2507937,83.681746 C25.2507937,83.681746 47.6531746,68.9777778 42.418254,38.3380952 C37.3373016,16.0896825 25.481746,8.77619048 24.1730159,6.0047619 C22.7103175,4.0031746 21.4015873,0.538888889 21.4015873,0.538888889 L22.3253968,62.434127 C22.2484127,62.5111111 20.3238095,81.4492063 25.2507937,83.681746" id="Shape_2_" fill="#FFFFFF"></path>
                <path d="M25.2507937,83.681746 C25.2507937,83.681746 47.6531746,68.9777778 42.418254,38.3380952 C37.3373016,16.0896825 25.481746,8.77619048 24.1730159,6.0047619 C22.7103175,4.0031746 21.4015873,0.538888889 21.4015873,0.538888889 L22.3253968,62.434127 C22.2484127,62.5111111 20.3238095,81.4492063 25.2507937,83.681746" id="Shape_3_" fill="#499D4A"></path>
                <path d="M20.015873,84.5285714 C20.015873,84.5285714 -1.00079365,70.2095238 0.230952381,44.9587302 C1.38571429,19.7079365 16.2436508,7.31349206 19.0920635,5.08095238 C20.9396825,3.07936508 21.0166667,2.30952381 21.1706349,0.307936508 C22.4793651,3.07936508 22.2484127,42.2642857 22.402381,46.8833333 C23.018254,64.6666667 21.4785714,81.1412698 20.015873,84.5285714 Z" id="Shape_4_" fill="#FFFFFF"></path>
                <path d="M20.015873,84.5285714 C20.015873,84.5285714 -1.00079365,70.2095238 0.230952381,44.9587302 C1.38571429,19.7079365 16.2436508,7.31349206 19.0920635,5.08095238 C20.9396825,3.07936508 21.0166667,2.30952381 21.1706349,0.307936508 C22.4793651,3.07936508 22.2484127,42.2642857 22.402381,46.8833333 C23.018254,64.6666667 21.4785714,81.1412698 20.015873,84.5285714 Z" id="Shape_5_" fill="#58AA50"></path>
            </g>
            <g id="Group" transform="translate(89.000000, 4.000000)" fill-rule="nonzero">
                <path d="M92.6,68.5 C87.5,71.3 60.9,83 55.3,86.1 C49.6,89.2 46.5,89.2 42,86.9 C37.5,84.6 9.3,72.4 4.2,69.9 C1.7,68.6 0.3,67.5 0.3,66.5 L0.3,56.1 C0.3,56.1 37.1,47.6 43,45.3 C48.9,43 51,42.9 56.1,44.9 C61.2,46.9 91.4,52.7 96.4,54.6 L96.4,64.8 C96.4,65.9 95.2,67 92.6,68.5" id="Shape_6_" fill="#912626"></path>
                <path d="M92.6,58.1 C87.5,60.9 60.9,72.6 55.3,75.7 C49.6,78.8 46.5,78.8 42,76.5 C37.5,74.2 9.3,62 4.2,59.4 C-0.9,56.8 -1,55 4,52.9 C9,50.8 37.1,39 43,36.8 C48.9,34.5 51,34.4 56.1,36.4 C61.2,38.4 87.5,49.6 92.5,51.5 C97.6,53.6 97.8,55.2 92.6,58.1" id="Shape_7_" fill="#C6302B"></path>
                <path d="M92.6,51.6 C87.5,54.4 60.9,66.1 55.3,69.2 C49.6,72.3 46.5,72.3 42,70 C37.5,67.7 9.3,55.5 4.2,53 C1.7,51.7 0.3,50.6 0.3,49.6 L0.3,39.3 C0.3,39.3 37.1,30.8 43,28.5 C48.9,26.2 51,26.1 56.1,28.1 C61.2,30.1 91.4,35.9 96.4,37.8 L96.4,48 C96.4,49.1 95.2,50.2 92.6,51.6" id="Shape_8_" fill="#912626"></path>
                <path d="M92.6,41.7 C87.5,44.6 60.9,56.2 55.3,59.3 C49.6,62.4 46.5,62.4 42,60.1 C37.5,57.8 9.3,45.6 4.2,43 C-0.9,40.4 -1,38.6 4,36.5 C9,34.4 37.1,22.6 43,20.4 C48.9,18.1 51,18 56.1,20 C61.2,22 87.5,33.2 92.5,35.1 C97.6,37.3 97.8,38.9 92.6,41.7" id="Shape_9_" fill="#C6302B"></path>
                <path d="M92.6,34.3 C87.5,37.1 60.9,48.8 55.3,51.9 C49.6,55 46.5,55 42,52.7 C37.5,50.4 9.3,38.2 4.2,35.7 C1.7,34.4 0.3,33.3 0.3,32.3 L0.3,22 C0.3,22 37.1,13.5 43,11.2 C48.9,8.9 51,8.8 56.1,10.8 C61.2,12.8 91.4,18.6 96.4,20.5 L96.4,30.7 C96.4,31.7 95.2,32.9 92.6,34.3" id="Shape_10_" fill="#912626"></path>
                <path d="M92.6,23.9 C87.5,26.8 60.9,38.4 55.3,41.5 C49.6,44.6 46.5,44.6 42,42.3 C37.5,40 9.3,27.8 4.2,25.2 C-0.9,22.6 -1,20.8 4,18.7 C9,16.6 37.1,4.8 43,2.6 C48.9,0.3 51,0.2 56.1,2.2 C61.2,4.2 87.5,15.4 92.5,17.3 C97.6,19.4 97.8,21.1 92.6,23.9" id="Shape_11_" fill="#C6302B"></path>
                <path d="M59.8,13.9 L51.6,14.8 L49.8,19.6 L46.8,14.3 L37.3,13.4 L44.4,10.6 L42.3,6.4 L48.9,9.2 L55.2,7 L53.5,11.4 L59.8,13.9 M49.2,37.1 L33.9,30.2 L55.9,26.6 L49.2,37.1 M27.9,16.6 C34.4,16.6 39.6,18.8 39.6,21.5 C39.6,24.2 34.3,26.4 27.9,26.4 C21.4,26.4 16.2,24.2 16.2,21.5 C16.2,18.8 21.5,16.6 27.9,16.6" id="Shape_12_" fill="#FFFFFF"></path>
                <polyline id="Shape_13_" fill="#621B1C" points="69.7 15.3 82.5 20.7 69.7 26.2 69.7 15.3"></polyline>
                <polyline id="Shape_14_" fill="#9A2928" points="55.3 21.3 69.7 15.3 69.7 26.1 68.3 26.7 55.3 21.3"></polyline>
            </g>
            <path d="M548.116,17.0027771 C538.216,17.5027771 531.516,21.9027771 527.516,30.4027771 C524.116,38.1027771 524.516,48.2027771 527.516,56.0027771 C531.016,63.6027771 536.716,67.6027771 546.216,69.1027771 C548.216,69.4027771 549.616,70.5027771 553.416,75.1027771 L558.216,80.7027771 L566.916,80.7027771 L561.116,74.9027771 C557.916,71.7027771 555.316,68.9027771 555.316,68.7027771 C555.316,68.5027771 556.516,67.9027771 558.016,67.5027771 C562.916,66.0027771 566.916,62.3027771 569.716,56.5027771 C572.016,51.9027771 572.316,50.4027771 572.616,44.7027771 C573.516,27.6027771 564.416,16.8027771 549.416,17.0027771 C549.116,17.0027771 548.616,17.0027771 548.116,17.0027771 Z M557.216,61.8027771 C553.016,63.8027771 546.916,64.3027771 542.916,62.8027771 C538.816,61.3027771 534.816,57.0027771 533.016,52.1027771 C531.016,46.8027771 531.316,37.0027771 533.616,32.6027771 C537.316,25.6027771 542.116,22.3027771 549.316,22.3027771 C559.816,22.3027771 565.916,28.8027771 566.616,40.9027771 C567.116,51.0027771 563.716,58.6027771 557.216,61.8027771 Z M498.516,29.9027771 C499.616,20.2027771 511.616,21.5027771 518.216,25.2027771 L518.216,18.7027771 C518.216,18.7027771 514.516,17.1027771 509.216,17.0027771 C501.116,16.9027771 495.916,19.5027771 493.416,24.9027771 C489.816,32.9027771 493.016,38.9027771 504.516,45.6027771 C511.016,49.4027771 513.816,52.6027771 513.816,56.2027771 C513.816,63.6027771 504.916,66.1027771 495.816,61.5027771 C493.916,60.6027771 492.316,59.8027771 492.216,59.8027771 C491.916,61.9027771 492.016,66.9027771 492.016,66.9027771 C492.016,66.9027771 494.816,68.1027771 499.016,68.9027771 C509.516,71.0027771 519.016,66.1027771 519.916,58.1027771 C520.716,50.6027771 518.016,46.7027771 507.716,40.6027771 C501.216,36.4027771 498.116,33.4027771 498.516,29.9027771 Z M587.016,17.6027771 L580.716,17.6027771 L580.716,68.1027771 L607.416,68.1027771 L607.416,62.1027771 L587.116,62.1027771 L587.116,40.4027771 L587.016,17.6027771 Z" id="Shape_15_" fill="#65717F" fill-rule="nonzero"></path>
            <g id="Group" transform="translate(375.000000, 7.000000)" fill-rule="nonzero">
                <path d="M70.9,37.9 C70.9,57.2 55.2,72.9 35.9,72.9 C16.6,72.9 0.9,57.2 0.9,37.9 C0.9,18.6 16.6,2.9 35.9,2.9 C55.2,2.9 70.9,18.6 70.9,37.9" id="Shape_16_" fill="#008CC1"></path>
                <path d="M16.3,26.4 C16.3,27.9 15,29.2 13.5,29.2 C12,29.2 10.7,27.9 10.7,26.4 C10.7,24.9 12,23.6 13.5,23.6 C14.2,23.6 15,23.9 15.5,24.4 C16.1,25 16.3,25.7 16.3,26.4 M16.8,34.1 C16.8,35.6 15.5,36.9 14,36.9 C12.5,36.9 11.2,35.6 11.2,34.1 C11.2,32.6 12.5,31.3 14,31.3 C14.7,31.3 15.5,31.6 16,32.1 C16.5,32.7 16.8,33.4 16.8,34.1 M18.5,42.3 C18.5,43.8 17.2,45.1 15.7,45.1 C14.2,45.1 12.9,43.8 12.9,42.3 C12.9,40.8 14.2,39.5 15.7,39.5 C17.3,39.4 18.5,40.7 18.5,42.3 M22.4,49.6 C22.4,51.1 21.1,52.4 19.6,52.4 C18.1,52.4 16.8,51.1 16.8,49.6 C16.8,48.1 18.1,46.8 19.6,46.8 C21.1,46.7 22.4,48 22.4,49.6 M52.4,59.7 C52.4,61.2 51.1,62.5 49.6,62.5 C48.1,62.5 46.8,61.2 46.8,59.7 C46.8,58.2 48.1,56.9 49.6,56.9 C51.1,56.9 52.4,58.2 52.4,59.7 M57.4,53.7 C57.4,55.2 56.1,56.5 54.6,56.5 C53.1,56.5 51.8,55.2 51.8,53.7 C51.8,52.2 53.1,50.9 54.6,50.9 C56.2,50.9 57.4,52.2 57.4,53.7 M42.7,11.1 C42.7,12.6 41.4,13.9 39.9,13.9 C38.4,13.9 37.1,12.6 37.1,11.1 C37.1,9.6 38.4,8.3 39.9,8.3 C41.4,8.3 42.7,9.6 42.7,11.1 M35.3,8.6 C35.3,10.1 34,11.4 32.5,11.4 C31,11.4 29.7,10.1 29.7,8.6 C29.7,7.1 31,5.8 32.5,5.8 C34.1,5.8 35.3,7 35.3,8.6" id="Shape_17_" fill="#FFFFFF"></path>
                <path d="M55.2,10.9 C65.5,10.9 73.9,19.3 73.9,29.6 C73.9,39.9 65.5,48.3 55.2,48.3 C44.9,48.3 36.5,39.9 36.5,29.6 C36.5,19.3 44.9,10.9 55.2,10.9" id="Shape_18_" fill="#66B245"></path>
                <path d="M55.2,48.7 C44.6,48.7 36,40.1 36,29.5 C36,18.9 44.6,10.3 55.2,10.3 C65.8,10.3 74.4,18.9 74.4,29.5 C74.3,40.1 65.7,48.7 55.2,48.7 Z M55.2,11.4 C45.2,11.4 37,19.5 37,29.6 C37,39.6 45.1,47.8 55.2,47.8 C65.2,47.8 73.4,39.7 73.4,29.6 C73.4,19.5 65.2,11.4 55.2,11.4 Z" id="Shape_19_" fill="#FFFFFF"></path>
                <path d="M29.6,52.4 C38,52.4 44.9,59.2 44.9,67.7 C44.9,76.1 38.1,83 29.6,83 C21.2,83 14.3,76.2 14.3,67.7 C14.3,59.2 21.2,52.4 29.6,52.4" id="Shape_20_" fill="#66B245"></path>
                <path d="M29.6,83.4 C20.9,83.4 13.8,76.3 13.8,67.6 C13.8,58.9 20.9,51.8 29.6,51.8 C38.3,51.8 45.4,58.9 45.4,67.6 C45.4,76.3 38.3,83.4 29.6,83.4 Z M29.6,52.9 C21.5,52.9 14.8,59.5 14.8,67.7 C14.8,75.8 21.4,82.5 29.6,82.5 C37.8,82.5 44.4,75.9 44.4,67.7 C44.4,59.5 37.7,52.9 29.6,52.9 Z" id="Shape_21_" fill="#FFFFFF"></path>
                <path d="M17,0.6 C22.6,0.6 27.2,5.2 27.2,10.8 C27.2,16.4 22.6,21 17,21 C11.4,21 6.8,16.4 6.8,10.8 C6.8,5.2 11.4,0.6 17,0.6" id="Shape_22_" fill="#66B245"></path>
                <path d="M17,21.5 C11.1,21.5 6.3,16.7 6.3,10.8 C6.3,4.9 11.1,0.1 17,0.1 C22.9,0.1 27.7,4.9 27.7,10.8 C27.7,16.7 22.9,21.5 17,21.5 Z M17,1.1 C11.7,1.1 7.3,5.4 7.3,10.8 C7.3,16.2 11.6,20.5 17,20.5 C22.3,20.5 26.7,16.2 26.7,10.8 C26.7,5.5 22.4,1.1 17,1.1 Z" id="Shape_23_" fill="#FFFFFF"></path>
            </g>
            <g id="Group" transform="translate(230.000000, 0.000000)" fill-rule="nonzero">
                <path d="M55.7,65.1 L55.4,66.1 L73.2,96.2 L74.2,96.9 L92.8,64.8 L74.2,32.6 L55.7,65.1 Z M18.3,0.6 L0.1,32.7 L19,65.1 L37,32.6 L37,31.3 L19.2,1.2 L18.3,0.6 Z" id="Shape_26_" fill="#59666C"></path>
                <path d="M18.3,0.6 L37,32.6 L74.1,32.6 L55.3,0.5 L18.3,0.5 L18.3,0.6 Z M19,65.1 L37.3,96.9 L74.1,96.9 L55.7,65.1 L19,65.1 Z" id="Shape_27_" fill="#BCAE79"></path>
            </g>
            <g id="Casandra" transform="translate(716.235207, 54.935750) scale(-1, 1) rotate(-180.000000) translate(-716.235207, -54.935750) translate(637.449000, 12.935750)">
                <g id="g2828" transform="translate(26.068966, 26.068966)" fill="#BBE6FB" fill-rule="nonzero">
                    <g id="g2830-Clipped" transform="translate(-0.000000, 0.000000)">
                        <g id="g2830" transform="translate(0.289655, 0.289655)">
                            <g id="g2836" transform="translate(0.636083, 0.350048)">
                                <path d="M98.4827586,28.9655172 C99.6297931,15.6037241 78.6015517,2.88641379 51.5158966,0.562655172 C24.4302414,-1.76110345 1.54313793,7.18924138 0.397551724,20.5503103 C-0.749482759,33.9142759 20.2787586,46.6308621 47.3644138,48.9546207 C74.450069,51.2776552 97.3371724,42.3294828 98.4827586,28.9655172" id="path2838"></path>
                            </g>
                        </g>
                    </g>
                </g>
                <g id="g2840" transform="translate(42.289655, 28.386207)">
                    <g id="g2842-Clipped" transform="translate(-0.000000, 0.000000)">
                        <g id="g2842" transform="translate(-0.000000, 0.144828)">
                            <g id="g2848">
                                <g id="g2856">
                                    <g id="g2858-Clipped">
                                        <mask id="mask-2" fill="white">
                                            <use xlink:href="#path-1"></use>
                                        </mask>
                                        <g id="path2854"></g>
                                        <g id="g2858" opacity="0.35000604" mask="url(#mask-2)">
                                            <g transform="translate(-0.724138, -0.724138)" id="g2860">
                                                <g transform="translate(0.278286, 0.668597)">
                                                    <path d="M33.3103448,45.6206897 C22.9783448,45.7886897 10.8881379,41.6864483 1.89217241,37.8448966 C0.955862069,35.1467586 0.451862069,32.277 0.451862069,29.3022414 C0.451862069,13.4523103 14.7637241,0.601758621 32.418931,0.601758621 C50.0741379,0.601758621 64.386,13.4523103 64.386,29.3022414 C64.386,34.3183448 62.9493103,39.0310345 60.4300345,43.134 C53.2328276,44.2527931 43.3338621,45.4577586 33.3103448,45.6206897" id="path2862" fill="#FFFFFF" fill-rule="nonzero"></path>
                                                </g>
                                            </g>
                                        </g>
                                    </g>
                                </g>
                            </g>
                        </g>
                    </g>
                </g>
                <g id="g2864" transform="translate(48.082759, 32.441379)" fill="#FFFFFF" fill-rule="nonzero">
                    <g id="g2866-Clipped" transform="translate(-0.000000, 0.000000)">
                        <g id="g2866" transform="translate(-0.000000, 0.434483)">
                            <g id="g2872" transform="translate(0.110648, 0.671783)">
                                <path d="M26.0689655,40.5517241 C20.349,40.9007586 10.4898621,37.9165862 2.26872414,34.9396552 C1.01958621,31.9916897 0.325862069,28.7656552 0.325862069,25.3803103 C0.325862069,11.4927931 12.9171724,0.23462069 26.2369655,0.23462069 C39.4691379,0.23462069 51.1762759,11.5108966 52.148069,25.3803103 C52.4637931,29.8967586 50.909069,34.1525172 48.7504138,37.8217241 C40.2273103,39.3228621 31.1821034,40.2396207 26.0689655,40.5517241" id="path2874"></path>
                            </g>
                        </g>
                    </g>
                </g>
                <g id="g2876" transform="translate(48.082759, 34.179310)" fill="#373535" fill-rule="nonzero">
                    <g id="g2878-Clipped" transform="translate(-0.000000, 0.000000)">
                        <g id="g2878" transform="translate(-0.000000, 0.144828)">
                            <g id="g2884" transform="translate(7.155786, 18.461607)">
                                <path d="M4.34482759,7.96551724 C5.04651724,9.51951724 6.10955172,10.2805862 7.13927586,11.5833103 C7.02486207,11.8917931 6.77431034,12.9005172 6.77431034,13.2502759 C6.77431034,14.8115172 8.04082759,16.0787586 9.6027931,16.0787586 C9.97137931,16.0787586 10.3233103,16.0056207 10.6455517,15.8774483 C15.3271034,19.4452759 21.4902414,21.0007241 27.6837931,19.6161724 C28.2493448,19.4887241 28.8040345,19.3344828 29.3485862,19.1650345 C23.2274483,20.0137241 16.3278621,17.8456552 11.6347241,14.0576897 C11.7781034,13.7195172 12.1756552,12.7527931 12.1756552,12.363931 C12.1756552,10.8019655 11.1647586,10.4217931 9.6027931,10.4217931 C9.24796552,10.4217931 8.90906897,10.4898621 8.59551724,10.6093448 C7.53537931,9.18568966 6.23627586,6.4737931 5.60048276,4.77858621 C8.1957931,2.457 10.5405517,1.61555172 13.5964138,0.473586207 C13.5884483,0.619137931 13.7014138,0.753827586 13.7014138,0.902275862 C13.7014138,5.61134483 17.8471034,9.43841379 22.5568966,9.43841379 C26.7771724,9.43841379 30.2718621,6.36951724 30.954,2.34331034 C33.0597931,3.68296552 35.096069,4.7097931 36.6478966,6.69537931 C36.2858276,7.13710345 35.8955172,8.38768966 35.8955172,9.0032069 C35.8955172,10.4203448 37.0454483,11.5695517 38.4625862,11.5695517 C38.6631724,11.5695517 38.8557931,11.5405862 39.0433448,11.4971379 C39.8312069,13.1163103 40.4257241,14.8325172 40.8058966,16.6023103 C33.4414138,22.0543448 19.1925517,21.3106552 19.1925517,21.3106552 C19.1925517,21.3106552 7.854,21.9022759 0.178137931,18.1613793 C0.690103448,14.4603103 2.16662069,10.9417241 4.34482759,7.96551724" id="path2886"></path>
                            </g>
                            <g id="g2888" transform="translate(38.010507, 12.620421)">
                                <path d="M8.68965517,15.9310345 C9.21031034,15.4617931 9.49417241,15.0497586 9.71793103,14.6485862 C10.4065862,13.4103103 9.02493103,12.2770345 7.6077931,12.2770345 C7.46368966,12.2770345 7.32465517,12.2965862 7.18634483,12.3197586 C5.58962069,9.82437931 2.793,6.62441379 0.308482759,5.01393103 C4.11817241,4.38972414 7.71062069,2.86396552 10.5695172,0.506172414 C12.6514138,4.2362069 14.2481379,9.62234483 14.2481379,14.1974483 C14.2481379,17.6798276 12.7107931,20.2324138 10.389931,22.1050345 C10.2682759,20.2396552 9.27258621,17.6305862 8.68965517,15.9310345" id="path2890"></path>
                            </g>
                            <g id="g2892" transform="translate(11.429938, 4.926455)">
                                <path d="M4.34482759,0 C5.61424138,3.50555172 8.73672414,6.2217931 11.6904828,8.61144828 C11.2581724,9.20306897 10.610069,10.668 10.3399655,11.3617241 C6.73737931,12.4573448 3.54972414,14.5081034 1.07751724,17.2228966 C1.05941379,17.1439655 1.03696552,17.0672069 1.01813793,16.9882759 C0.552517241,14.9020345 0.467068966,12.8114483 0.698793103,10.7722759 C2.42368966,10.4507586 3.72931034,8.93948276 3.72931034,7.12117241 C3.72931034,6.04293103 2.78431034,4.48024138 2.05075862,3.80027586 C2.84803448,2.07972414 3.39186207,1.24986207 4.34482759,0" id="path2894"></path>
                            </g>
                            <g id="g2896" transform="translate(0.344400, 1.259493)">
                                <path d="M15.2068966,0.724137931 C13.6927241,2.22962069 12.6456207,5.23262069 11.6629655,7.11827586 C11.4790345,7.09003448 11.2907586,7.07048276 11.0981379,7.07048276 C9.04448276,7.07048276 6.89306897,8.79393103 7.37968966,10.7882069 C7.64906897,11.8917931 8.41086207,12.6137586 9.65131034,13.2162414 C9.36889655,15.5023448 9.29213793,18.7884828 9.82293103,21.1651034 C9.975,21.845069 10.2972414,22.1636897 10.5108621,22.811069 C8.24503448,26.1268966 6.78082759,30.4789655 6.78082759,34.797 C6.78082759,34.9548621 6.7887931,35.1105517 6.79241379,35.2669655 C2.96317241,33.3465517 0.0919655172,30.3211034 0.0919655172,25.5584483 C0.0919655172,15.0236897 6.15951724,4.68951724 15.1873448,0.638689655 C15.1938621,0.666931034 15.1996552,0.695896552 15.2068966,0.724137931" id="path2898"></path>
                            </g>
                            <g id="g2900" transform="translate(16.750252, 0.616314)">
                                <path d="M21,15.9310345 C19.8334138,12.6130345 16.679069,10.2298966 12.962069,10.2298966 C10.9735862,10.2298966 9.14948276,10.9156552 7.69975862,12.0554483 C4.71124138,9.72806897 2.00006897,5.63958621 0.622034483,2.09275862 C1.24044828,1.42727586 1.67131034,0.879827586 2.36503448,0.289655172 C4.45562069,-0.254896552 7.3347931,0.289655172 9.59772414,0.289655172 C18.7001379,0.289655172 26.7619655,4.33903448 31.3841379,11.439931 C28.3108966,13.5681724 24.6858621,15.5935862 21,15.9310345" id="path2902"></path>
                            </g>
                        </g>
                    </g>
                </g>
                <g id="g2904" transform="translate(46.924138, 33.600000)" fill="#1287B1" fill-rule="nonzero">
                    <g id="g2906-Clipped" transform="translate(-0.000000, 0.000000)">
                        <g id="g2906" transform="translate(0.434483, 0.000000)">
                            <g id="g2912" transform="translate(7.646607, 17.954566)">
                                <path d="M4.34482759,7.96551724 C5.04651724,9.51951724 5.92634483,10.9576552 6.95534483,12.2603793 C6.84093103,12.5681379 6.77431034,12.9005172 6.77431034,13.2502759 C6.77431034,14.8115172 8.04082759,16.0787586 9.6027931,16.0787586 C9.97137931,16.0787586 10.3233103,16.0056207 10.6455517,15.8774483 C15.3271034,19.4452759 21.4902414,21.0007241 27.6837931,19.6161724 C28.2493448,19.4887241 28.8040345,19.3344828 29.3485862,19.1650345 C23.2274483,20.0137241 16.9028276,18.1374828 12.2096897,14.3487931 C12.353069,14.0113448 12.4312759,13.6391379 12.4312759,13.2502759 C12.4312759,11.6883103 11.1647586,10.4217931 9.6027931,10.4217931 C9.24796552,10.4217931 8.90906897,10.4898621 8.59551724,10.6093448 C7.53537931,9.18568966 6.66858621,7.61286207 6.0327931,5.91693103 C8.26168966,3.51496552 10.9974828,1.61555172 14.0526207,0.473586207 C14.0453793,0.619137931 14.0301724,0.763241379 14.0301724,0.911689655 C14.0301724,5.62075862 17.8471034,9.43841379 22.5568966,9.43841379 C26.7771724,9.43841379 30.2718621,6.36951724 30.954,2.34331034 C33.0597931,3.68296552 34.9309655,5.40351724 36.482069,7.38910345 C36.12,7.83082759 35.8955172,8.38768966 35.8955172,9.0032069 C35.8955172,10.4203448 37.0454483,11.5695517 38.4625862,11.5695517 C38.6631724,11.5695517 38.8557931,11.5405862 39.0433448,11.4971379 C39.8312069,13.1163103 40.4257241,14.8325172 40.8058966,16.6023103 C33.4414138,22.0543448 19.1925517,21.3106552 19.1925517,21.3106552 C19.1925517,21.3106552 7.854,21.9022759 0.178137931,18.1613793 C0.690103448,14.4603103 2.16662069,10.9417241 4.34482759,7.96551724" id="path2914"></path>
                            </g>
                            <g id="g2916" transform="translate(39.132124, 13.648624)">
                                <path d="M8.68965517,15.2068966 C9.21031034,14.7376552 9.54413793,14.064931 9.54413793,13.308931 C9.54413793,11.8917931 8.3942069,10.7418621 6.97706897,10.7418621 C6.83296552,10.7418621 6.69393103,10.7614138 6.55562069,10.7845862 C4.95889655,8.2892069 2.84296552,6.16168966 0.357724138,4.5512069 C4.03055172,3.97696552 7.48758621,2.41862069 10.3457586,0.0608275862 C12.4276552,3.79086207 13.6174138,8.08717241 13.6174138,12.6622759 C13.6174138,16.1446552 12.080069,18.6972414 9.7592069,20.5698621 C9.63755172,18.7044828 9.27258621,16.9064483 8.68965517,15.2068966" id="path2918"></path>
                            </g>
                            <g id="g2920" transform="translate(11.821697, 4.808348)">
                                <path d="M5.06896552,0 C6.33837931,3.50555172 8.54410345,6.6512069 11.4978621,9.04013793 C11.0655517,9.63248276 10.7092759,10.2791379 10.4391724,10.9728621 C6.83586207,12.0684828 3.64893103,14.1192414 1.17672414,16.8340345 C1.15862069,16.7551034 1.13544828,16.6783448 1.11734483,16.5994138 C0.651,14.5131724 0.565551724,12.4225862 0.798,10.3834138 C2.52217241,10.0618966 3.82851724,8.55062069 3.82851724,6.73231034 C3.82851724,5.65406897 3.3657931,4.68444828 2.63224138,4.00448276 C3.29772414,2.59386207 4.116,1.24986207 5.06896552,0" id="path2922"></path>
                            </g>
                            <g id="g2924" transform="translate(0.334479, 2.026355)">
                                <path d="M15.9310345,0.724137931 C14.4168621,2.22962069 13.146,3.95886207 12.164069,5.8437931 C11.9794138,5.81555172 11.7911379,5.79672414 11.5992414,5.79672414 C9.54558621,5.79672414 7.8807931,7.46151724 7.8807931,9.51444828 C7.8807931,10.9858966 8.73817241,12.2545862 9.97862069,12.857069 C9.69693103,15.1424483 9.79251724,17.5147241 10.3240345,19.8913448 C10.4761034,20.5705862 10.6614828,21.2338966 10.8751034,21.882 C8.60927586,25.1971034 7.28193103,29.2052069 7.28193103,33.5232414 C7.28193103,33.6811034 7.28917241,33.8367931 7.2927931,33.9924828 C3.46355172,32.0727931 0.592344828,29.0466207 0.592344828,24.2846897 C0.592344828,13.7492069 6.88365517,4.68951724 15.9114828,0.638689655 C15.918,0.666931034 15.9237931,0.695896552 15.9310345,0.724137931" id="path2926"></path>
                            </g>
                            <g id="g2928" transform="translate(17.965210, 0.109272)">
                                <path d="M20.2758621,15.9310345 C19.1092759,12.6130345 15.954931,10.2298966 12.237931,10.2298966 C10.2494483,10.2298966 8.42534483,10.9156552 6.97562069,12.0554483 C3.98710345,9.72806897 1.73141379,6.55562069 0.354103448,3.00806897 C0.971793103,2.34258621 1.6322069,1.71548276 2.32593103,1.12603448 C4.41724138,0.581482759 6.61065517,0.289655172 8.87358621,0.289655172 C17.976,0.289655172 25.9784483,4.98931034 30.6006207,12.0894828 C27.5273793,14.2184483 23.9617241,15.5935862 20.2758621,15.9310345" id="path2930"></path>
                            </g>
                        </g>
                    </g>
                </g>
                <g id="g2956" transform="translate(1.737931, 36.496552)">
                    <g id="g2958-Clipped" transform="translate(-0.000000, 0.000000)">
                        <g id="g2958" transform="translate(-0.000000, 0.000000)">
                            <g id="g2964">
                                <g id="g2972">
                                    <g id="g2974-Clipped">
                                        <mask id="mask-4" fill="white">
                                            <use xlink:href="#path-3"></use>
                                        </mask>
                                        <g id="path2970"></g>
                                        <g id="g2974" opacity="0.35000604" mask="url(#mask-4)" fill="#373535" fill-rule="nonzero">
                                            <g id="g2976" transform="translate(0.292045, 0.268003)">
                                                <path d="M0,0 C24.4324138,24.4316897 43.9457586,31.9743103 61.6552759,35.4175862 C63.9985862,35.873069 64.4417586,40.9934483 64.4417586,40.9934483 C64.4417586,40.9934483 64.7697931,37.2221379 66.4099655,36.7304483 C68.0494138,36.2380345 70.1805517,42.6336207 70.1805517,42.6336207 C70.1805517,42.6336207 68.213069,36.8941034 70.1805517,36.566069 C72.1487586,36.2380345 75.7556897,42.1412069 75.7556897,42.1412069 C75.7556897,42.1412069 74.2806207,37.0584828 75.2647241,36.7304483 C76.2473793,36.4024138 81.1664483,44.1086897 81.1664483,44.1086897 C81.1664483,44.1086897 78.2148621,39.0259655 81.0027931,38.5335517 C83.7914483,38.0418621 87.8582069,42.0028966 87.8582069,42.0028966 C87.8582069,42.0028966 84.6604138,38.3785862 86.0855172,37.8782069 C92.153069,35.7456207 97.0627241,43.6314828 97.0627241,43.6314828 C97.0627241,43.6314828 95.9251034,40.1737241 92.9735172,36.4024138 C99.3676552,34.7629655 104.117276,44.3961724 104.117276,44.3961724 L99.3676552,34.7629655 C101.827552,33.4501034 111.667138,44.7647586 111.667138,44.7647586 C111.667138,44.7647586 106.58369,35.91 103.632103,34.1068966 C105.271552,32.7947586 111.174724,38.0418621 111.174724,38.0418621 C111.174724,38.0418621 106.41931,32.1394138 108.223138,31.8113793 C110.84669,29.6795172 120.520448,42.7972759 120.520448,42.7972759 C120.520448,42.7972759 116.749862,35.091 111.174724,29.0234483 C115.834552,26.6924483 127.408448,41.6495172 127.408448,41.6495172 C127.408448,41.6495172 127.080414,36.8941034 118.717345,29.3514828 C124.948552,30.1712069 132.983586,41.9775517 132.983586,41.9775517 C132.983586,41.9775517 130.032,33.1227931 122.980345,26.8923103 C129.098586,27.5288276 138.88531,42.6336207 138.88531,42.6336207 C138.88531,42.6336207 135.114724,32.1394138 127.408448,26.0718621 C135.935172,24.1862069 148.233207,36.8941034 148.233207,36.8941034 C148.233207,36.8941034 143.395966,27.8749655 137.082207,24.1862069 C144.133862,21.4808276 153.808345,32.6311034 153.808345,32.6311034 C153.808345,32.6311034 144.133862,17.7087931 128.720586,18.3648621 C123.663207,18.579931 108.365793,33.7078966 75.5920345,32.4667241 C32.303069,30.8265517 23.121,12.4616897 0,0" id="path2978"></path>
                                            </g>
                                        </g>
                                    </g>
                                </g>
                            </g>
                            <g id="g2980" transform="translate(1.293383, 2.123607)" fill="#373535" fill-rule="nonzero">
                                <path d="M0,0 C24.4324138,24.4316897 43.9450345,31.9735862 61.6545517,35.4175862 C63.9985862,35.873069 64.4417586,40.9927241 64.4417586,40.9927241 C64.4417586,40.9927241 64.769069,37.2206897 66.4099655,36.7297241 C68.0494138,36.2380345 70.1805517,42.6321724 70.1805517,42.6321724 C70.1805517,42.6321724 68.213069,36.8926552 70.1805517,36.5653448 C72.1487586,36.2380345 75.7556897,42.1404828 75.7556897,42.1404828 C75.7556897,42.1404828 74.2806207,37.0577586 75.2632759,36.7297241 C76.2473793,36.4016897 81.1664483,44.1086897 81.1664483,44.1086897 C81.1664483,44.1086897 78.2148621,39.0252414 81.0027931,38.5335517 C83.79,38.0411379 87.8582069,42.0021724 87.8582069,42.0021724 C87.8582069,42.0021724 84.6604138,38.3778621 86.0855172,37.8774828 C92.153069,35.7456207 97.0612759,43.6307586 97.0612759,43.6307586 C97.0612759,43.6307586 95.9236552,40.173 92.9735172,36.4016897 C99.3676552,34.7615172 104.117276,44.3961724 104.117276,44.3961724 L99.3676552,34.7615172 C101.827552,33.4501034 111.66569,44.7633103 111.66569,44.7633103 C111.66569,44.7633103 106.58369,35.91 103.632103,34.1061724 C105.271552,32.7940345 111.174724,38.0411379 111.174724,38.0411379 C111.174724,38.0411379 106.41931,32.1379655 108.223138,31.8106552 C110.84669,29.678069 120.520448,42.7965517 120.520448,42.7965517 C120.520448,42.7965517 116.748414,35.0895517 111.174724,29.0227241 C115.834552,26.691 127.408448,41.6487931 127.408448,41.6487931 C127.408448,41.6487931 127.080414,36.8926552 118.717345,29.3500345 C124.948552,30.1704828 132.983586,41.9768276 132.983586,41.9768276 C132.983586,41.9768276 130.032,33.122069 122.980345,26.8908621 C129.098586,27.5273793 138.88531,42.6321724 138.88531,42.6321724 C138.88531,42.6321724 135.114724,32.1379655 127.408448,26.0711379 C135.935172,24.1854828 148.233207,36.8926552 148.233207,36.8926552 C148.233207,36.8926552 143.395966,27.8749655 137.082207,24.1854828 C144.133862,21.4801034 153.808345,32.6303793 153.808345,32.6303793 C153.808345,32.6303793 144.133862,17.708069 128.719138,18.3641379 C123.663207,18.579931 108.365793,33.7078966 75.5913103,32.466 C32.303069,30.8265517 23.1202759,12.4616897 0,0" id="path2982"></path>
                            </g>
                        </g>
                    </g>
                </g>
                <g id="g2984" transform="translate(0.000000, 0.000000)">
                    <g id="g2986-Clipped" transform="translate(0.000000, 0.000000)">
                        <g id="g2986" transform="translate(0.289655, 0.289655)">
                            <g id="g2992" transform="translate(0.724138, 0.000000)">
                                <g id="g3000">
                                    <g id="g3002-Clipped">
                                        <mask id="mask-6" fill="white">
                                            <use xlink:href="#path-5"></use>
                                        </mask>
                                        <g id="path2998"></g>
                                        <g id="g3002" opacity="0.35000604" mask="url(#mask-6)" fill="#373535" fill-rule="nonzero">
                                            <g id="g3004" transform="translate(0.376190, 0.492559)">
                                                <path d="M0,33.3103448 C12.9128276,26.832931 24.7198966,34.2937241 39.6002069,30.1002414 C50.9134138,26.9111379 64.6879655,22.9797931 83.3801379,25.6858966 C102.073034,28.3905517 118.061276,36.5074138 125.687172,51.0198621 C128.064517,57.4958276 137.738276,49.5433448 137.738276,49.5433448 C137.738276,49.5433448 130.688069,52.494931 130.852448,51.1009655 C131.016103,49.7077241 141.428483,44.8704828 141.428483,44.8704828 C141.428483,44.8704828 131.999483,47.822069 132.573724,45.6083793 C133.147966,43.3946897 144.378621,34.539931 144.378621,34.539931 C144.378621,34.539931 131.671448,44.2144138 130.606241,42.903 C129.539586,41.5908621 136.017,36.2612069 136.017,36.2612069 C136.017,36.2612069 125.276586,42.903 121.504552,40.9442069 C118.791931,39.5372069 132.655552,30.4398621 132.655552,30.4398621 C132.655552,30.4398621 123.636414,37.3278621 121.504552,35.5240345 C119.373414,33.7194828 131.671448,18.9622759 131.671448,18.9622759 C131.671448,18.9622759 117.732517,34.0482414 116.34,33.3103448 C114.94531,32.5724483 120.192414,25.3571379 120.192414,25.3571379 C120.192414,25.3571379 113.305862,32.9004828 111.420931,31.5883448 C109.535276,30.2762069 121.259069,10.6817586 121.259069,10.6817586 C121.259069,10.6817586 108.551172,30.7678966 103.304069,27.4078966 C111.544034,9.32906897 108.469345,6.74606897 108.469345,6.74606897 C108.469345,6.74606897 107.417897,25.1898621 97.1546897,24.7017931 C91.9894138,24.4555862 99.6138621,10.9279655 99.6138621,10.9279655 C99.6138621,10.9279655 92.5962414,23.2832069 87.9226552,23.037 C96.5362759,6.73593103 93.465931,0.105724138 93.465931,0.105724138 C93.465931,0.105724138 94.8903103,14.028 83.2077931,21.7755517 C87.6344483,17.8413103 80.43,0.105724138 80.43,0.105724138 C80.43,0.105724138 86.7676552,26.2405862 75.7556897,21.2577931 C74.0155862,20.4721034 75.6325862,8.22186207 75.6325862,8.22186207 C75.6325862,8.22186207 73.4188966,22.2426207 70.0994483,21.504 C68.1638276,21.0745862 57.8006897,2.0732069 57.8006897,2.0732069 C57.8006897,2.0732069 66.2868621,22.6112069 63.7045862,21.7502069 C61.8232759,21.1223793 58.2931034,12.6492414 58.2931034,12.6492414 C58.2931034,12.6492414 60.0143793,21.0123103 58.2931034,21.504 C56.5718276,21.9964138 46.9784483,12.6492414 46.9784483,12.6492414 C46.9784483,12.6492414 54.111931,21.0123103 52.8816207,22.7343103 C51.0176897,25.3433793 48.8329655,25.4657586 46.2405517,24.4555862 C42.4685172,22.9855862 37.3865172,16.0932414 37.3865172,16.0932414 C37.3865172,16.0932414 42.4525862,23.0717586 41.5669655,25.6858966 C40.1454828,29.8858966 25.5801724,17.5690345 25.5801724,17.5690345 C25.5801724,17.5690345 34.1887241,25.6858966 32.2212414,27.4078966 C30.2537586,29.1291724 19.5698276,28.596931 16.2337241,28.6063448 C6.39558621,28.6367586 2.98634483,30.9445862 0,33.3103448" id="path3006"></path>
                                            </g>
                                        </g>
                                    </g>
                                </g>
                            </g>
                            <g id="g3008" transform="translate(0.608855, 1.968424)" fill="#373535" fill-rule="nonzero">
                                <path d="M0,33.3103448 C12.9128276,26.832931 24.7191724,34.2937241 39.5994828,30.0995172 C50.9126897,26.9118621 64.6879655,22.9797931 83.3808621,25.6858966 C102.073759,28.3912759 118.060552,36.5081379 125.686448,51.0191379 C128.063793,57.4958276 137.737552,49.544069 137.737552,49.544069 C137.737552,49.544069 130.687345,52.494931 130.851724,51.1009655 C131.015379,49.7077241 141.427759,44.8704828 141.427759,44.8704828 C141.427759,44.8704828 131.998759,47.8213448 132.573,45.6076552 C133.147241,43.3946897 144.379345,34.539931 144.379345,34.539931 C144.379345,34.539931 131.670724,44.2151379 130.605517,42.9022759 C129.54031,41.5908621 136.017,36.261931 136.017,36.261931 C136.017,36.261931 125.275862,42.9022759 121.504552,40.944931 C118.791207,39.5372069 132.654828,30.4405862 132.654828,30.4405862 C132.654828,30.4405862 123.63569,37.3278621 121.504552,35.5240345 C119.37269,33.7194828 131.672172,18.9622759 131.672172,18.9622759 C131.672172,18.9622759 117.732517,34.0482414 116.339276,33.3103448 C114.946034,32.5717241 120.193138,25.3578621 120.193138,25.3578621 C120.193138,25.3578621 113.305138,32.9004828 111.420207,31.5883448 C109.534552,30.276931 121.258345,10.6817586 121.258345,10.6817586 C121.258345,10.6817586 108.550448,30.7686207 103.303345,27.4071724 C111.54331,9.32906897 108.468621,6.74606897 108.468621,6.74606897 C108.468621,6.74606897 107.417172,25.1898621 97.1539655,24.701069 C91.9886897,24.4548621 99.6131379,10.9279655 99.6131379,10.9279655 C99.6131379,10.9279655 92.5955172,23.283931 87.9226552,23.0377241 C96.537,6.73593103 93.4652069,0.105724138 93.4652069,0.105724138 C93.4652069,0.105724138 94.8895862,14.0287241 83.207069,21.7762759 C87.6337241,17.8413103 80.4292759,0.105724138 80.4292759,0.105724138 C80.4292759,0.105724138 86.7683793,26.2405862 75.7564138,21.2577931 C74.0163103,20.4713793 75.6333103,8.22186207 75.6333103,8.22186207 C75.6333103,8.22186207 73.4181724,22.2418966 70.0994483,21.504 C68.1631034,21.0745862 57.7999655,2.0732069 57.7999655,2.0732069 C57.7999655,2.0732069 66.2861379,22.6112069 63.7038621,21.7494828 C61.8225517,21.1231034 58.2923793,12.6499655 58.2923793,12.6499655 C58.2923793,12.6499655 60.0143793,21.0123103 58.2923793,21.504 C56.5711034,21.9956897 46.9784483,12.6499655 46.9784483,12.6499655 C46.9784483,12.6499655 54.111931,21.0123103 52.8808966,22.7343103 C51.0169655,25.3433793 48.8322414,25.4650345 46.2405517,24.4548621 C42.4677931,22.9855862 37.3857931,16.0932414 37.3857931,16.0932414 C37.3857931,16.0932414 42.4518621,23.0724828 41.5669655,25.6858966 C40.1447586,29.8851724 25.5801724,17.5690345 25.5801724,17.5690345 C25.5801724,17.5690345 34.1887241,25.6858966 32.2205172,27.4071724 C30.2530345,29.1291724 19.5691034,28.5962069 16.233,28.6063448 C6.39486207,28.6374828 2.98634483,30.9445862 0,33.3103448" id="path3010"></path>
                            </g>
                        </g>
                    </g>
                </g>
            </g>
        </g>
    </g>
</svg>