<svg xmlns="http://www.w3.org/2000/svg" viewBox="0 0 357.197 286.064"><title>Micronaut Foundation Stacked white</title><path d="M22.2,200.673h.05l11.85-28.1h5.5v33.946H36V177.035h-.1L23.1,206.522H21.2L8.4,177.035H8.3v29.487H4.7V172.576h5.5Z" style="fill:#fff"/><path d="M56.9,206.522H53.3V172.576h3.6Z" style="fill:#fff"/><path d="M100.4,201.008a14.412,14.412,0,0,1-2.174,2.448,14.231,14.231,0,0,1-2.951,2.03,16.925,16.925,0,0,1-3.7,1.388,18.043,18.043,0,0,1-4.425.51,19.992,19.992,0,0,1-7.4-1.341,17.573,17.573,0,0,1-5.85-3.716,16.885,16.885,0,0,1-3.825-5.634,18.192,18.192,0,0,1-1.375-7.144,17.908,17.908,0,0,1,1.4-7.144,16.99,16.99,0,0,1,3.875-5.634,17.924,17.924,0,0,1,5.849-3.716,19.66,19.66,0,0,1,7.325-1.341,18.742,18.742,0,0,1,3.826.389,18.494,18.494,0,0,1,3.524,1.1,15.093,15.093,0,0,1,3,1.7,10.137,10.137,0,0,1,2.25,2.236l-3,2.11a8.7,8.7,0,0,0-1.475-1.63,10.045,10.045,0,0,0-2.174-1.438,13.987,13.987,0,0,0-2.726-1.007,12.569,12.569,0,0,0-3.175-.384,15.242,15.242,0,0,0-6.175,1.194A13.735,13.735,0,0,0,73.5,183.91a15.974,15.974,0,0,0-1,5.639,15.643,15.643,0,0,0,1.025,5.64,14.3,14.3,0,0,0,2.925,4.706,13.867,13.867,0,0,0,4.625,3.227,15.1,15.1,0,0,0,6.125,1.194,14.361,14.361,0,0,0,5.8-1.2,10.883,10.883,0,0,0,4.6-3.836Z" style="fill:#fff"/><path d="M114.5,206.522h-3.6V172.576h10.4a23.01,23.01,0,0,1,4.825.479,11.174,11.174,0,0,1,3.851,1.559,7.454,7.454,0,0,1,2.524,2.805,9.036,9.036,0,0,1,.9,4.219,8.126,8.126,0,0,1-.7,3.405,8.4,8.4,0,0,1-1.9,2.66,9.129,9.129,0,0,1-2.85,1.8,12.786,12.786,0,0,1-3.6.863L134.7,206.522h-4.4l-9.8-15.87h-6Zm0-18.843h6.25a12.412,12.412,0,0,0,6.7-1.51,5.027,5.027,0,0,0,2.35-4.531,5.682,5.682,0,0,0-.65-2.829,5.2,5.2,0,0,0-1.8-1.87,8.438,8.438,0,0,0-2.8-1.055,18.409,18.409,0,0,0-3.65-.336h-6.4Z" style="fill:#fff"/><path d="M180.148,189.549a17.938,17.938,0,0,1-1.4,7.144,17.032,17.032,0,0,1-3.876,5.634,17.923,17.923,0,0,1-5.85,3.716,20.676,20.676,0,0,1-14.65,0,17.923,17.923,0,0,1-5.85-3.716,17,17,0,0,1-3.875-5.634,18.927,18.927,0,0,1,0-14.288,17.02,17.02,0,0,1,3.875-5.634,17.939,17.939,0,0,1,5.85-3.716,20.676,20.676,0,0,1,14.65,0,17.939,17.939,0,0,1,5.85,3.716,17.052,17.052,0,0,1,3.876,5.634A17.942,17.942,0,0,1,180.148,189.549Zm-3.8.024a16.025,16.025,0,0,0-1-5.649,13.742,13.742,0,0,0-7.525-7.945,16.269,16.269,0,0,0-12.25,0,13.742,13.742,0,0,0-7.525,7.945,16.453,16.453,0,0,0,0,11.3,13.735,13.735,0,0,0,2.9,4.692,14.037,14.037,0,0,0,4.625,3.207,16.282,16.282,0,0,0,12.25,0,14.037,14.037,0,0,0,4.625-3.207,13.735,13.735,0,0,0,2.9-4.692A16.012,16.012,0,0,0,176.347,189.573Z" style="fill:#fff"/><path d="M217.047,201.488h.1V172.576h3.6v33.946h-4.5l-20.6-29.2h-.1v29.2h-3.6V172.576h4.5Z" style="fill:#fff"/><path d="M234.2,206.522h-3.95l15.3-33.946h3.5l15.2,33.946h-4l-3.9-8.918h-18.3Zm5.2-12.083H255l-7.8-18.027Z" style="fill:#fff"/><path d="M286.2,207.384a14.231,14.231,0,0,1-6.55-1.318,11.554,11.554,0,0,1-4.05-3.332,12.019,12.019,0,0,1-2.075-4.387,19.029,19.029,0,0,1-.575-4.483V172.576h3.6v20.905a16.007,16.007,0,0,0,.5,4,9.8,9.8,0,0,0,1.625,3.452,8.3,8.3,0,0,0,2.976,2.445,11.538,11.538,0,0,0,9.1,0,8.289,8.289,0,0,0,2.974-2.445,9.8,9.8,0,0,0,1.625-3.452,16.007,16.007,0,0,0,.5-4v-20.9h3.6v21.288a19.134,19.134,0,0,1-.575,4.483,12.037,12.037,0,0,1-2.076,4.387,11.5,11.5,0,0,1-4.074,3.332A14.269,14.269,0,0,1,286.2,207.384Z" style="fill:#fff"/><path d="M324.3,206.522h-3.6V175.645H308.846v-3.069h27.3v3.069H324.3Z" style="fill:#fff"/><path d="M5.008,224h22.85v5.274H11.309v9.3h15.6v5.082h-15.6v14.288h-6.3Z" style="fill:#fff"/><path d="M31.809,240.878a18.311,18.311,0,0,1,1.424-7.36,16.162,16.162,0,0,1,3.951-5.587,17.625,17.625,0,0,1,6-3.548,22.285,22.285,0,0,1,7.575-1.246,22.65,22.65,0,0,1,7.65,1.246,17.878,17.878,0,0,1,6.05,3.548,16,16,0,0,1,3.975,5.587,18.311,18.311,0,0,1,1.425,7.36,18.053,18.053,0,0,1-1.425,7.263,16.722,16.722,0,0,1-3.975,5.657,18.162,18.162,0,0,1-6.05,3.693,21.554,21.554,0,0,1-7.65,1.318,21.209,21.209,0,0,1-7.575-1.318,17.91,17.91,0,0,1-6-3.693,16.9,16.9,0,0,1-3.951-5.657A18.053,18.053,0,0,1,31.809,240.878Zm6.849,0a13.86,13.86,0,0,0,.875,5.009,11.589,11.589,0,0,0,2.5,3.956,11.468,11.468,0,0,0,3.85,2.613,12.578,12.578,0,0,0,4.925.935,12.764,12.764,0,0,0,4.95-.935,11.4,11.4,0,0,0,3.875-2.613,11.589,11.589,0,0,0,2.5-3.956,13.86,13.86,0,0,0,.875-5.009,13.408,13.408,0,0,0-.875-4.891,11.84,11.84,0,0,0-2.475-3.932,11.447,11.447,0,0,0-3.85-2.637,12.634,12.634,0,0,0-5-.959,12.452,12.452,0,0,0-4.975.959,11.514,11.514,0,0,0-3.825,2.637,11.84,11.84,0,0,0-2.475,3.932A13.408,13.408,0,0,0,38.658,240.878Z" style="fill:#fff"/><path d="M104.008,245.48a13.47,13.47,0,0,1-1.1,5.538,12.425,12.425,0,0,1-3,4.195,13.3,13.3,0,0,1-4.5,2.661,17.538,17.538,0,0,1-11.3,0,13.568,13.568,0,0,1-4.525-2.661,11.978,11.978,0,0,1-3-4.195,13.73,13.73,0,0,1-1.075-5.538V224h6.3v21.24a11.112,11.112,0,0,0,.4,2.949,7.111,7.111,0,0,0,1.325,2.613,6.8,6.8,0,0,0,2.45,1.87,10.27,10.27,0,0,0,7.55,0,6.814,6.814,0,0,0,2.45-1.87,7.111,7.111,0,0,0,1.325-2.613,11.112,11.112,0,0,0,.4-2.949V224h6.3Z" style="fill:#fff"/><path d="M111.357,224h8.351l16.449,25.412h.1V224h6.3v33.946h-8l-16.8-26.227h-.1v26.227h-6.3Z" style="fill:#fff"/><path d="M150.207,224h12.55a28.96,28.96,0,0,1,6.95.863,18.371,18.371,0,0,1,6.3,2.852,15.125,15.125,0,0,1,4.55,5.227,16.721,16.721,0,0,1,1.75,8.031,15.37,15.37,0,0,1-6.3,12.946,19.355,19.355,0,0,1-6.3,3.045,25.619,25.619,0,0,1-6.95.982h-12.55Zm11.55,28.672a22.3,22.3,0,0,0,4.9-.551,13.026,13.026,0,0,0,4.425-1.87,10.084,10.084,0,0,0,3.225-3.573,11.664,11.664,0,0,0,1.25-5.7,12.41,12.41,0,0,0-1.25-5.945,9.786,9.786,0,0,0-3.225-3.6,12.3,12.3,0,0,0-4.425-1.773,25.518,25.518,0,0,0-4.9-.48h-5.25v23.494Z" style="fill:#fff"/><path d="M198.158,224h5.449l15.25,33.946h-7.2l-3.3-7.768h-15.35l-3.2,7.768h-7.05Zm8,21-5.451-13.809L195.158,245Z" style="fill:#fff"/><path d="M226.357,229.274h-10.85V224h28v5.274h-10.85v28.672h-6.3Z" style="fill:#fff"/><path d="M247.457,224h6.3v33.946h-6.3Z" style="fill:#fff"/><path d="M259.707,240.878a18.311,18.311,0,0,1,1.424-7.36,16.162,16.162,0,0,1,3.951-5.587,17.62,17.62,0,0,1,6-3.548,22.273,22.273,0,0,1,7.575-1.246,22.656,22.656,0,0,1,7.649,1.246,17.878,17.878,0,0,1,6.05,3.548,16.016,16.016,0,0,1,3.976,5.587,18.328,18.328,0,0,1,1.424,7.36,18.07,18.07,0,0,1-1.424,7.263,16.739,16.739,0,0,1-3.976,5.657,18.162,18.162,0,0,1-6.05,3.693,21.56,21.56,0,0,1-7.649,1.318,21.2,21.2,0,0,1-7.575-1.318,17.905,17.905,0,0,1-6-3.693,16.9,16.9,0,0,1-3.951-5.657A18.053,18.053,0,0,1,259.707,240.878Zm6.849,0a13.86,13.86,0,0,0,.875,5.009,11.589,11.589,0,0,0,2.5,3.956,11.452,11.452,0,0,0,3.851,2.613,12.574,12.574,0,0,0,4.925.935,12.762,12.762,0,0,0,4.949-.935,11.4,11.4,0,0,0,3.875-2.613,11.589,11.589,0,0,0,2.5-3.956,13.86,13.86,0,0,0,.875-5.009,13.408,13.408,0,0,0-.875-4.891,11.84,11.84,0,0,0-2.475-3.932,11.443,11.443,0,0,0-3.849-2.637,12.634,12.634,0,0,0-5-.959,12.453,12.453,0,0,0-4.976.959,11.5,11.5,0,0,0-3.824,2.637,11.826,11.826,0,0,0-2.476,3.932A13.408,13.408,0,0,0,266.556,240.878Z" style="fill:#fff"/><path d="M303.707,224h8.349l16.45,25.412h.1V224h6.3v33.946h-8l-16.8-26.227h-.1v26.227h-6.3Z" style="fill:#fff"/><path d="M341.147,172.6v.539H340.1v2.723h-.647v-2.723h-1.044V172.6Zm3.526,3.262-.12-1.919c-.011-.252-.011-.564-.023-.911h-.036c-.084.288-.18.672-.277.972l-.587,1.81h-.672l-.587-1.859c-.06-.251-.157-.635-.228-.923h-.036c0,.3-.012.611-.024.911l-.121,1.919h-.623l.24-3.262h.971l.564,1.595c.072.252.133.492.217.828h.011c.084-.3.156-.576.228-.816l.563-1.607h.936l.252,3.262Z" style="fill:#fff"/><path d="M199.045,69.96a3.035,3.035,0,0,0-3.7,2.054,2.9,2.9,0,0,0,2.138,3.566,3.036,3.036,0,0,0,3.706-2.057A2.9,2.9,0,0,0,199.045,69.96Z" style="fill:#fff"/><path d="M193.213,56.374a2.915,2.915,0,0,0-2.142,3.572A3.045,3.045,0,0,0,194.78,62a2.9,2.9,0,0,0,2.141-3.564A3.048,3.048,0,0,0,193.213,56.374Z" style="fill:#fff"/><path d="M181.1,51.54a3.116,3.116,0,0,0,4.282,0,2.831,2.831,0,0,0,0-4.118,3.109,3.109,0,0,0-4.279,0A2.833,2.833,0,0,0,181.1,51.54Z" style="fill:#fff"/><path d="M168.1,49.056A3.047,3.047,0,0,0,171.809,47a2.9,2.9,0,0,0-2.142-3.566,3.041,3.041,0,0,0-3.706,2.059A2.906,2.906,0,0,0,168.1,49.056Z" style="fill:#fff"/><path d="M153.981,47.531a2.9,2.9,0,0,0-2.14,3.567,3.046,3.046,0,0,0,3.708,2.059,2.905,2.905,0,0,0,2.139-3.57A3.04,3.04,0,0,0,153.981,47.531Z" style="fill:#fff"/><path d="M146.81,62.744a2.837,2.837,0,0,0,0-4.12,3.112,3.112,0,0,0-4.284,0,2.833,2.833,0,0,0,0,4.115A3.119,3.119,0,0,0,146.81,62.744Z" style="fill:#fff"/><path d="M144.225,75.247a2.9,2.9,0,0,0-2.138-3.566,3.042,3.042,0,0,0-3.71,2.06,2.9,2.9,0,0,0,2.141,3.566A3.038,3.038,0,0,0,144.225,75.247Z" style="fill:#fff"/><path d="M146.349,90.889a2.9,2.9,0,0,0,2.14-3.567,3.037,3.037,0,0,0-3.708-2.059,2.9,2.9,0,0,0-2.14,3.568A3.05,3.05,0,0,0,146.349,90.889Z" style="fill:#fff"/><path d="M158.456,95.724a3.114,3.114,0,0,0-4.28,0,2.836,2.836,0,0,0,0,4.119,3.112,3.112,0,0,0,4.28,0A2.832,2.832,0,0,0,158.456,95.724Z" style="fill:#fff"/><path d="M171.463,98.21a3.044,3.044,0,0,0-3.707,2.057,2.9,2.9,0,0,0,2.141,3.566,3.039,3.039,0,0,0,3.7-2.057A2.9,2.9,0,0,0,171.463,98.21Z" style="fill:#fff"/><path d="M185.583,99.733a2.9,2.9,0,0,0,2.139-3.567,3.039,3.039,0,0,0-3.709-2.055,2.9,2.9,0,0,0-2.137,3.563A3.037,3.037,0,0,0,185.583,99.733Z" style="fill:#fff"/><path d="M192.755,84.52a2.834,2.834,0,0,0,0,4.119,3.11,3.11,0,0,0,4.282,0,2.836,2.836,0,0,0,0-4.12A3.115,3.115,0,0,0,192.755,84.52Z" style="fill:#fff"/><path d="M209.178,72.849a3.4,3.4,0,0,0,2.507,4.175,3.559,3.559,0,0,0,4.343-2.411,3.4,3.4,0,0,0-2.509-4.179A3.566,3.566,0,0,0,209.178,72.849Z" style="fill:#fff"/><path d="M206,49.832a3.4,3.4,0,0,0-2.511,4.179,3.568,3.568,0,0,0,4.342,2.413,3.4,3.4,0,0,0,2.51-4.177A3.559,3.559,0,0,0,206,49.832Z" style="fill:#fff"/><path d="M188.772,35.6a3.323,3.323,0,0,0,0,4.826,3.647,3.647,0,0,0,5.015,0,3.327,3.327,0,0,0,0-4.826A3.657,3.657,0,0,0,188.772,35.6Z" style="fill:#fff"/><path d="M168.967,35.745a3.564,3.564,0,0,0,4.345-2.413,3.4,3.4,0,0,0-2.51-4.177,3.564,3.564,0,0,0-4.344,2.414A3.4,3.4,0,0,0,168.967,35.745Z" style="fill:#fff"/><path d="M147.543,34.625a3.4,3.4,0,0,0-2.508,4.177,3.567,3.567,0,0,0,4.343,2.412,3.4,3.4,0,0,0,2.506-4.181A3.561,3.561,0,0,0,147.543,34.625Z" style="fill:#fff"/><path d="M135.257,55.366a3.317,3.317,0,0,0,0-4.823,3.649,3.649,0,0,0-5.016,0,3.315,3.315,0,0,0,0,4.821A3.645,3.645,0,0,0,135.257,55.366Z" style="fill:#fff"/><path d="M130.386,74.417a3.407,3.407,0,0,0-2.506-4.181,3.566,3.566,0,0,0-4.344,2.415,3.4,3.4,0,0,0,2.506,4.178A3.565,3.565,0,0,0,130.386,74.417Z" style="fill:#fff"/><path d="M133.564,97.435a3.4,3.4,0,0,0,2.5-4.18,3.56,3.56,0,0,0-4.339-2.413,3.4,3.4,0,0,0-2.511,4.178A3.572,3.572,0,0,0,133.564,97.435Z" style="fill:#fff"/><path d="M150.788,111.663a3.321,3.321,0,0,0,0-4.826,3.65,3.65,0,0,0-5.017,0,3.321,3.321,0,0,0,0,4.824A3.651,3.651,0,0,0,150.788,111.663Z" style="fill:#fff"/><path d="M170.6,111.521a3.558,3.558,0,0,0-4.345,2.412,3.4,3.4,0,0,0,2.507,4.178,3.565,3.565,0,0,0,4.345-2.412A3.4,3.4,0,0,0,170.6,111.521Z" style="fill:#fff"/><path d="M190.187,106.055a3.4,3.4,0,0,0-2.509,4.175,3.563,3.563,0,0,0,4.344,2.411,3.4,3.4,0,0,0,2.506-4.176A3.55,3.55,0,0,0,190.187,106.055Z" style="fill:#fff"/><path d="M204.306,91.9a3.324,3.324,0,0,0,0,4.824,3.653,3.653,0,0,0,5.02,0,3.317,3.317,0,0,0,0-4.822A3.649,3.649,0,0,0,204.306,91.9Z" style="fill:#fff"/><path d="M228.446,75.739a4.6,4.6,0,0,0-5.6,3.112,4.386,4.386,0,0,0,3.234,5.386,4.591,4.591,0,0,0,5.595-3.114A4.38,4.38,0,0,0,228.446,75.739Z" style="fill:#fff"/><path d="M221.681,47.25a4.384,4.384,0,0,0-3.235,5.382,4.6,4.6,0,0,0,5.6,3.112,4.38,4.38,0,0,0,3.231-5.386A4.592,4.592,0,0,0,221.681,47.25Z" style="fill:#fff"/><path d="M207.476,32.043a4.278,4.278,0,0,0,0-6.215,4.7,4.7,0,0,0-6.466,0,4.281,4.281,0,0,0,0,6.218A4.7,4.7,0,0,0,207.476,32.043Z" style="fill:#fff"/><path d="M175.205,22.6a4.594,4.594,0,0,0,5.6-3.111,4.377,4.377,0,0,0-3.232-5.381,4.591,4.591,0,0,0-5.6,3.107A4.379,4.379,0,0,0,175.205,22.6Z" style="fill:#fff"/><path d="M147.946,26.827a4.377,4.377,0,0,0,3.232-5.385,4.593,4.593,0,0,0-5.6-3.107,4.384,4.384,0,0,0-3.233,5.384A4.589,4.589,0,0,0,147.946,26.827Z" style="fill:#fff"/><path d="M126.538,37.382a4.7,4.7,0,0,0-6.463,0,4.281,4.281,0,0,0,0,6.219,4.706,4.706,0,0,0,6.464,0A4.273,4.273,0,0,0,126.538,37.382Z" style="fill:#fff"/><path d="M116.722,68.416a4.391,4.391,0,0,0-3.234-5.386,4.594,4.594,0,0,0-5.6,3.107,4.382,4.382,0,0,0,3.232,5.387A4.6,4.6,0,0,0,116.722,68.416Z" style="fill:#fff"/><path d="M117.885,100.018a4.393,4.393,0,0,0,3.234-5.387,4.6,4.6,0,0,0-5.605-3.11,4.384,4.384,0,0,0-3.231,5.386A4.606,4.606,0,0,0,117.885,100.018Z" style="fill:#fff"/><path d="M132.086,115.216a4.282,4.282,0,0,0,0,6.219,4.706,4.706,0,0,0,6.465,0,4.288,4.288,0,0,0,0-6.221A4.714,4.714,0,0,0,132.086,115.216Z" style="fill:#fff"/><path d="M164.359,124.663a4.6,4.6,0,0,0-5.6,3.11,4.386,4.386,0,0,0,3.236,5.386,4.6,4.6,0,0,0,5.6-3.107A4.384,4.384,0,0,0,164.359,124.663Z" style="fill:#fff"/><path d="M191.615,120.437a4.378,4.378,0,0,0-3.233,5.38,4.6,4.6,0,0,0,5.6,3.111,4.378,4.378,0,0,0,3.228-5.383A4.583,4.583,0,0,0,191.615,120.437Z" style="fill:#fff"/><path d="M219.489,103.666a4.707,4.707,0,0,0-6.466,0,4.279,4.279,0,0,0,0,6.218,4.7,4.7,0,0,0,6.465,0A4.279,4.279,0,0,0,219.489,103.666Z" style="fill:#fff"/><path d="M242.394,87.038a5.356,5.356,0,0,0-6.529,3.623,5.109,5.109,0,0,0,3.771,6.279,5.357,5.357,0,0,0,6.529-3.628A5.107,5.107,0,0,0,242.394,87.038Z" style="fill:#fff"/><path d="M242.394,60.23a5.106,5.106,0,0,0,3.764-6.279,5.353,5.353,0,0,0-6.524-3.625,5.106,5.106,0,0,0-3.768,6.279A5.359,5.359,0,0,0,242.394,60.23Z" style="fill:#fff"/><path d="M225.7,27.109a4.988,4.988,0,0,0,0-7.251,5.481,5.481,0,0,0-7.535,0,4.982,4.982,0,0,0,0,7.248A5.48,5.48,0,0,0,225.7,27.109Z" style="fill:#fff"/><path d="M187.487,10.079a5.355,5.355,0,0,0,6.528-3.624,5.111,5.111,0,0,0-3.769-6.28A5.359,5.359,0,0,0,183.719,3.8,5.111,5.111,0,0,0,187.487,10.079Z" style="fill:#fff"/><path d="M152.075,10.077a5.11,5.11,0,0,0,3.77-6.278,5.355,5.355,0,0,0-6.53-3.618,5.1,5.1,0,0,0-3.767,6.274A5.352,5.352,0,0,0,152.075,10.077Z" style="fill:#fff"/><path d="M121.4,27.109a4.989,4.989,0,0,0,0-7.252,5.484,5.484,0,0,0-7.536,0,4.99,4.99,0,0,0,0,7.251A5.486,5.486,0,0,0,121.4,27.109Z" style="fill:#fff"/><path d="M99.931,50.326A5.357,5.357,0,0,0,93.4,53.951a5.114,5.114,0,0,0,3.772,6.279,5.358,5.358,0,0,0,6.527-3.625A5.108,5.108,0,0,0,99.931,50.326Z" style="fill:#fff"/><path d="M97.172,87.038A5.1,5.1,0,0,0,93.4,93.316a5.363,5.363,0,0,0,6.528,3.624,5.1,5.1,0,0,0,3.765-6.279A5.346,5.346,0,0,0,97.172,87.038Z" style="fill:#fff"/><path d="M113.871,120.158a4.988,4.988,0,0,0,0,7.25,5.489,5.489,0,0,0,7.539,0,4.986,4.986,0,0,0,0-7.247A5.474,5.474,0,0,0,113.871,120.158Z" style="fill:#fff"/><path d="M152.074,137.188a5.353,5.353,0,0,0-6.528,3.624,5.108,5.108,0,0,0,3.769,6.275,5.348,5.348,0,0,0,6.526-3.62A5.1,5.1,0,0,0,152.074,137.188Z" style="fill:#fff"/><path d="M187.487,137.19a5.1,5.1,0,0,0-3.767,6.275,5.345,5.345,0,0,0,6.526,3.619,5.108,5.108,0,0,0,3.769-6.275A5.349,5.349,0,0,0,187.487,137.19Z" style="fill:#fff"/><path d="M218.16,120.16a4.978,4.978,0,0,0,0,7.245,5.48,5.48,0,0,0,7.536,0,4.983,4.983,0,0,0,0-7.247A5.468,5.468,0,0,0,218.16,120.16Z" style="fill:#fff"/><path d="M185.677,76.688a2.107,2.107,0,0,0-2,.469,13.679,13.679,0,0,1-1.683,1.4,18.022,18.022,0,0,1-1.727,1.089,2.493,2.493,0,0,1-1.86.192,1.265,1.265,0,0,1-1.095-1.315,3.592,3.592,0,0,1,.064-.74c.65-3.036,2.537-11.76,2.836-13.125h-5.547c-.036.113-.082.219-.108.329q-1.451,6.623-2.909,13.24c-.035.153-.074.368-.185.43a11.488,11.488,0,0,1-2.3,1.2,1.6,1.6,0,0,1-2.217-1.84c.019-.163,2.606-12.014,2.9-13.359H164.27c-1.826,8.279-3.651,16.556-5.492,24.886.234-.045,3.549-.828,5.083-1.128.62-.122.923-.364.971-.973a9.845,9.845,0,0,1,.261-1.264c.213-.949.421-1.9.627-2.826,2.547-.106,4.16-1.73,5.957-3.129a3.317,3.317,0,0,0,2.365,2.75,5.509,5.509,0,0,0,5-.5,30.163,30.163,0,0,0,2.99-2.293C183.268,79.072,184.424,77.89,185.677,76.688Z" style="fill:#fff"/></svg>