<svg xmlns="http://www.w3.org/2000/svg" viewBox="0 0 339.072 300"><title>MIcronaut Foundation stacked white</title><path d="M192.97,95.01a3.688,3.688,0,1,0,3.564-2.738A3.668,3.668,0,0,0,192.97,95.01Z" style="fill:#fff"/><path d="M190.457,75.432a3.7,3.7,0,0,0,.954,7.268h0a3.665,3.665,0,0,0,.958-.127,3.7,3.7,0,0,0-1.913-7.141Z" style="fill:#fff"/><path d="M175.883,69.486a3.694,3.694,0,1,0-1.083-2.615A3.677,3.677,0,0,0,175.883,69.486Z" style="fill:#fff"/><path d="M160.287,66.4a3.691,3.691,0,0,0,.956.126h0a3.7,3.7,0,0,0,3.2-5.545,3.708,3.708,0,0,0-3.2-1.847,3.7,3.7,0,0,0-.952,7.266Z" style="fill:#fff"/><path d="M143.322,64.382a3.69,3.69,0,1,0,.961-.127A3.7,3.7,0,0,0,143.322,64.382Z" style="fill:#fff"/><path d="M132.149,84.566a3.7,3.7,0,1,0-2.614-1.084A3.672,3.672,0,0,0,132.149,84.566Z" style="fill:#fff"/><path d="M127.146,101.692a3.7,3.7,0,1,0-2.612-4.528A3.732,3.732,0,0,0,127.146,101.692Z" style="fill:#fff"/><path d="M132.27,111.516a3.695,3.695,0,1,0,.959-.126A3.7,3.7,0,0,0,132.27,111.516Z" style="fill:#fff"/><path d="M148.755,124.6a3.695,3.695,0,1,0,0,5.225A3.7,3.7,0,0,0,148.755,124.6Z" style="fill:#fff"/><path d="M162.444,134.832a3.7,3.7,0,0,0,4.524-2.615,3.694,3.694,0,1,0-4.524,2.615Z" style="fill:#fff"/><path d="M180.37,122.443a3.7,3.7,0,1,0-.007,7.392,3.693,3.693,0,0,0,3.569-4.656A3.694,3.694,0,0,0,180.37,122.443Z" style="fill:#fff"/><path d="M195.107,110.6a3.7,3.7,0,1,0,0,5.228A3.686,3.686,0,0,0,195.107,110.6Z" style="fill:#fff"/><path d="M209.6,96.054a4.325,4.325,0,0,0,4.173,5.437h0a4.323,4.323,0,1,0-4.174-5.437Z" style="fill:#fff"/><path d="M205.82,67.256a4.321,4.321,0,0,0,1.116,8.494h0a4.321,4.321,0,1,0-1.117-8.494Z" style="fill:#fff"/><path d="M188.15,48.231a4.32,4.32,0,0,0,0,8.64h0a4.32,4.32,0,1,0,0-8.64Z" style="fill:#fff"/><path d="M161.326,49.769a4.32,4.32,0,1,0-3.054-5.289A4.311,4.311,0,0,0,161.326,49.769Z" style="fill:#fff"/><path d="M140.875,51.309a4.318,4.318,0,1,0-3.053,5.292A4.319,4.319,0,0,0,140.875,51.309Z" style="fill:#fff"/><path d="M117.83,75.533a4.321,4.321,0,1,0-3.056-1.265A4.293,4.293,0,0,0,117.83,75.533Z" style="fill:#fff"/><path d="M115.046,98.04a4.321,4.321,0,1,0-4.171,3.2A4.337,4.337,0,0,0,115.046,98.04Z" style="fill:#fff"/><path d="M117.706,126.982h0a4.322,4.322,0,1,0-4.174-3.2A4.346,4.346,0,0,0,117.707,126.982Z" style="fill:#fff"/><path d="M136.493,145.857a4.281,4.281,0,0,0,3.051-1.263,4.321,4.321,0,1,0-7.374-3.055,4.319,4.319,0,0,0,4.323,4.318Z" style="fill:#fff"/><path d="M158.024,147.374a4.312,4.312,0,1,0,4.167-3.2A4.3,4.3,0,0,0,158.024,147.374Z" style="fill:#fff"/><path d="M187.936,145.981h0a4.321,4.321,0,1,0-4.172-3.2A4.294,4.294,0,0,0,187.937,145.981Z" style="fill:#fff"/><path d="M206.814,118.555a4.319,4.319,0,1,0,3.054,1.265A4.292,4.292,0,0,0,206.814,118.555Z" style="fill:#fff"/><path d="M226.015,103.548a5.55,5.55,0,1,0,10.167-1.34,5.5,5.5,0,0,0-3.367-2.585,5.54,5.54,0,0,0-6.8,3.925Z" style="fill:#fff"/><path d="M226.1,63.839a5.553,5.553,0,1,0,5.355,4.115A5.541,5.541,0,0,0,226.1,63.839Z" style="fill:#fff"/><path d="M203.723,46.759a5.55,5.55,0,1,0-3.924-1.626A5.508,5.508,0,0,0,203.723,46.759Z" style="fill:#fff"/><path d="M168.822,33.35a5.552,5.552,0,1,0-3.925-6.8A5.525,5.525,0,0,0,168.822,33.35Z" style="fill:#fff"/><path d="M134.664,38.822a5.585,5.585,0,0,0,1.44-.191,5.551,5.551,0,0,0-1.436-10.913,5.552,5.552,0,0,0,0,11.1Z" style="fill:#fff"/><path d="M112.037,55.641a5.548,5.548,0,1,0-1.627,3.926A5.513,5.513,0,0,0,112.037,55.641Z" style="fill:#fff"/><path d="M91.828,94.467a5.552,5.552,0,1,0-3.925-6.8,5.549,5.549,0,0,0,3.925,6.8Z" style="fill:#fff"/><path d="M97.108,119.336a5.556,5.556,0,1,0,1.44-.189A5.556,5.556,0,0,0,97.108,119.336Z" style="fill:#fff"/><path d="M120.92,147.329a5.549,5.549,0,1,0,3.925,1.624A5.522,5.522,0,0,0,120.92,147.329Z" style="fill:#fff"/><path d="M154.376,160.548a5.566,5.566,0,1,0,1.442.191A5.559,5.559,0,0,0,154.376,160.548Z" style="fill:#fff"/><path d="M189.972,166.37h0a5.551,5.551,0,1,0-1.435-10.91,5.55,5.55,0,0,0,1.435,10.91Z" style="fill:#fff"/><path d="M222.081,134.521a5.553,5.553,0,1,0,0,7.854A5.52,5.52,0,0,0,222.081,134.521Z" style="fill:#fff"/><path d="M246.229,126.217a6.462,6.462,0,1,0-4.569-7.914,6.458,6.458,0,0,0,4.569,7.914Z" style="fill:#fff"/><path d="M247.9,80.578a6.5,6.5,0,0,0,1.672-.221,6.458,6.458,0,1,0-1.672.221Z" style="fill:#fff"/><path d="M224.97,40.857a6.47,6.47,0,1,0-4.568-1.894A6.422,6.422,0,0,0,224.97,40.857Z" style="fill:#fff"/><path d="M183.579,17.7a6.49,6.49,0,0,0,1.676.222h0a6.467,6.467,0,1,0-1.677-.222Z" style="fill:#fff"/><path d="M139.384,17.926h0a6.463,6.463,0,1,0-6.236-4.791A6.456,6.456,0,0,0,139.385,17.926Z" style="fill:#fff"/><path d="M99.672,40.856A6.46,6.46,0,1,0,95.1,38.964,6.407,6.407,0,0,0,99.672,40.856Z" style="fill:#fff"/><path d="M75.068,80.355a6.5,6.5,0,0,0,1.678.223h0a6.472,6.472,0,1,0-1.679-.223Z" style="fill:#fff"/><path d="M76.741,126.437a6.487,6.487,0,0,0,1.671-.22,6.459,6.459,0,1,0-1.671.22Z" style="fill:#fff"/><path d="M99.67,153.231a6.463,6.463,0,1,0,0,12.925h0a6.463,6.463,0,1,0,0-12.925Z" style="fill:#fff"/><path d="M141.06,176.386a6.454,6.454,0,0,0-7.914,4.567,6.463,6.463,0,0,0,4.574,7.911,6.442,6.442,0,0,0,7.909-4.561,6.458,6.458,0,0,0-4.569-7.917Z" style="fill:#fff"/><path d="M191.493,180.951a6.463,6.463,0,0,0-6.231-4.787,6.538,6.538,0,0,0-1.682.224,6.457,6.457,0,1,0,7.913,4.563Z" style="fill:#fff"/><path d="M229.539,164.262a6.464,6.464,0,1,0-4.573,1.892A6.421,6.421,0,0,0,229.539,164.262Z" style="fill:#fff"/><path d="M180.091,102.287l.833-.926c.166-.168.324-.33.492-.5l-.039,0,.047-.053a5.564,5.564,0,0,0-.8-.068,2.111,2.111,0,0,0-1.65.672,17.079,17.079,0,0,1-2.017,1.737,21.093,21.093,0,0,1-2.069,1.353,2.576,2.576,0,0,1-1.318.35,3.535,3.535,0,0,1-.869-.115,1.507,1.507,0,0,1-1.272-1.586,4.535,4.535,0,0,1,.074-.911c.734-3.563,2.778-13.382,3.273-16.039l.077-.369h-.011l.01-.058-2.509.058h-4.154c-.011.033-.02.065-.031.1h-.065a2.718,2.718,0,0,0-.091.3l-3.5,16.579c-.035.169-.084.4-.187.458-.228.135-.454.278-.68.42a8.938,8.938,0,0,1-2.068,1.071,2.863,2.863,0,0,1-.828.134,1.679,1.679,0,0,1-1.289-.534,2.344,2.344,0,0,1-.473-1.836c.027-.22,2.724-13.066,3.337-16.257.04-.188.071-.337.093-.438h-.011l.011-.058-6.758.046-6.617,31.175s.552-.125,1.1-.256c1.371-.328,3.777-.9,5.095-1.168.815-.169,1.154-.525,1.211-1.271a7.241,7.241,0,0,1,.206-1.108l.109-.464.343-1.61.354-1.872c2.648-.115,4.5-1.672,6.293-3.177a6.319,6.319,0,0,0,.662-.627l.149-.124a4.164,4.164,0,0,0,2.871,3.45,8.368,8.368,0,0,0,2.61.458,5.867,5.867,0,0,0,3.449-1.1,35.671,35.671,0,0,0,3.6-2.868C178.105,104.307,179.086,103.309,180.091,102.287Z" style="fill:#fff"/><polygon points="17.547 242.279 17.382 242.279 11.123 223.165 5.651 223.165 5.651 247.246 9.086 247.246 9.086 227.314 9.21 227.314 15.664 247.246 19.015 247.246 25.553 227.314 25.678 227.314 25.678 247.246 29.401 247.246 29.401 223.165 23.682 223.165 17.547 242.279" style="fill:#fff"/><rect x="51.61" y="223.165" width="3.724" height="24.081" style="fill:#fff"/><path d="M93.347,244.661l-2.234-2.007a5.849,5.849,0,0,1-1.883,1.667,5.328,5.328,0,0,1-2.71.68,5.494,5.494,0,0,1-2.958-.783,6.378,6.378,0,0,1-2.09-2.124,10.452,10.452,0,0,1-1.241-3.114,16.575,16.575,0,0,1-.414-3.775,16.816,16.816,0,0,1,.414-3.792,10.533,10.533,0,0,1,1.221-3.112,6.354,6.354,0,0,1,2.048-2.109,5.39,5.39,0,0,1,2.938-.782,6.317,6.317,0,0,1,2.565.527,5.778,5.778,0,0,1,2.11,1.616l2.317-2.075a7.236,7.236,0,0,0-3.062-2.177,11.351,11.351,0,0,0-4.1-.713,9.414,9.414,0,0,0-7.592,3.587,12.155,12.155,0,0,0-2.069,4,16.8,16.8,0,0,0-.723,5.033,17.051,17.051,0,0,0,.7,5.017,12.279,12.279,0,0,0,2.028,4,9.2,9.2,0,0,0,3.268,2.654,9.837,9.837,0,0,0,4.386.952,9.4,9.4,0,0,0,4.221-.867A8.228,8.228,0,0,0,93.347,244.661Z" style="fill:#fff"/><path d="M125.486,247.246H129.5L124,235.92a6.051,6.051,0,0,0,3.31-1.786,6.025,6.025,0,0,0,1.193-1.853,6.494,6.494,0,0,0,.462-2.551,6.764,6.764,0,0,0-.623-3.027,5.469,5.469,0,0,0-1.7-2.041,7.206,7.206,0,0,0-2.511-1.14,12.609,12.609,0,0,0-3.049-.357h-7.592v24.081h3.642V236.5h3.393Zm-8.357-21.529h3.351a8.2,8.2,0,0,1,1.737.187,4.025,4.025,0,0,1,1.531.667,3.586,3.586,0,0,1,1.077,1.262,4.334,4.334,0,0,1,.413,2.014,3.95,3.95,0,0,1-1.283,3.16,5,5,0,0,1-3.393,1.11h-3.433Z" style="fill:#fff"/><path d="M166.374,226.04a9.028,9.028,0,0,0-3.144-2.552,9.447,9.447,0,0,0-4.2-.9,9.808,9.808,0,0,0-4.282.9,8.709,8.709,0,0,0-3.165,2.552,11.517,11.517,0,0,0-1.945,3.979,18.787,18.787,0,0,0-.661,5.152,18.259,18.259,0,0,0,.682,5.154,11.8,11.8,0,0,0,1.986,4,9.08,9.08,0,0,0,3.165,2.585,9.43,9.43,0,0,0,4.22.918,9.3,9.3,0,0,0,4.2-.918,9.146,9.146,0,0,0,3.144-2.585,11.8,11.8,0,0,0,1.986-4,19.752,19.752,0,0,0,0-10.306A11.593,11.593,0,0,0,166.374,226.04Zm-1.655,12.975a10.871,10.871,0,0,1-1.159,3.129,6.187,6.187,0,0,1-1.9,2.091,4.6,4.6,0,0,1-2.628.766,4.766,4.766,0,0,1-2.689-.766,6.1,6.1,0,0,1-1.924-2.091,10.466,10.466,0,0,1-1.138-3.129,19.989,19.989,0,0,1,0-7.687,10.466,10.466,0,0,1,1.138-3.129,6.1,6.1,0,0,1,1.924-2.092,4.765,4.765,0,0,1,2.689-.765,4.6,4.6,0,0,1,2.628.765,6.181,6.181,0,0,1,1.9,2.092,10.871,10.871,0,0,1,1.159,3.129,18.944,18.944,0,0,1,0,7.687Z" style="fill:#fff"/><polygon points="207.678 247.246 207.678 223.165 204.243 223.165 204.243 241.872 204.119 241.872 194.893 223.165 190.423 223.165 190.423 247.246 193.858 247.246 193.858 228.573 193.982 228.573 203.333 247.246 207.678 247.246" style="fill:#fff"/><path d="M247.14,247.246l-7.2-24.081h-4.924l-7.365,24.081h3.766l1.7-5.647H241.6l1.655,5.647Zm-13.53-8.061,3.725-13.163h.164l3.6,13.163Z" style="fill:#fff"/><path d="M279.589,247.127a7.087,7.087,0,0,0,2.711-1.9,7.35,7.35,0,0,0,1.489-2.807,12.517,12.517,0,0,0,.456-3.436V223.165H280.52v15.51a12.02,12.02,0,0,1-.228,2.364,5.893,5.893,0,0,1-.785,2.023A4.091,4.091,0,0,1,278,244.474a5,5,0,0,1-2.441.527,5.115,5.115,0,0,1-2.461-.527,4.053,4.053,0,0,1-1.531-1.412,5.914,5.914,0,0,1-.786-2.023,12.02,12.02,0,0,1-.228-2.364v-15.51h-3.723V238.98a13.045,13.045,0,0,0,.434,3.436,6.938,6.938,0,0,0,4.137,4.711,10.435,10.435,0,0,0,4.076.7A10.742,10.742,0,0,0,279.589,247.127Z" style="fill:#fff"/><polygon points="304.094 225.784 309.68 225.784 309.68 247.246 313.402 247.246 313.402 225.784 318.988 225.784 318.988 223.165 304.094 223.165 304.094 225.784" style="fill:#fff"/><polygon points="324.794 223.711 325.924 223.711 325.924 228.236 326.677 228.236 326.677 223.711 327.806 223.711 327.806 223.159 324.794 223.159 324.794 223.711" style="fill:#fff"/><polygon points="332.264 223.159 331.024 227.189 330.99 227.189 329.725 223.159 328.618 223.159 328.618 228.236 329.313 228.236 329.313 224.034 329.338 224.034 330.643 228.236 331.321 228.236 332.643 224.034 332.668 224.034 332.668 228.236 333.421 228.236 333.421 223.159 332.264 223.159" style="fill:#fff"/><polygon points="49.167 275.048 48.936 274.894 48.595 274.795 40.455 274.861 39.968 275.131 39.817 275.361 39.718 275.695 39.782 293.827 40.049 294.315 40.28 294.469 40.617 294.568 42.563 294.568 42.827 294.51 42.968 294.443 43.212 294.232 43.363 294.002 43.461 293.664 43.325 286.159 48.341 286.1 48.828 285.828 48.979 285.596 49.074 285.243 49.01 283.566 48.744 283.097 48.514 282.943 48.169 282.843 43.454 282.977 43.327 278.202 43.327 278.187 48.763 278.127 49.25 277.856 49.401 277.623 49.497 277.272 49.433 275.518 49.167 275.048" style="fill:#fff"/><path d="M75.693,277.357a7.08,7.08,0,0,0-2.36-2.194,6.484,6.484,0,0,0-3.206-.8,6.66,6.66,0,0,0-3.273.8,7.087,7.087,0,0,0-2.375,2.194,10.073,10.073,0,0,0-1.414,3.26,16.568,16.568,0,0,0-.465,4.039,16.161,16.161,0,0,0,.481,4.071A10.222,10.222,0,0,0,64.523,292a7.127,7.127,0,0,0,2.389,2.2,6.527,6.527,0,0,0,3.215.8,6.461,6.461,0,0,0,3.207-.8,7.033,7.033,0,0,0,2.36-2.207,10.347,10.347,0,0,0,1.423-3.265,17.328,17.328,0,0,0,0-8.113A10.209,10.209,0,0,0,75.693,277.357Zm-2.214,10.17a8.264,8.264,0,0,1-.759,2.244,3.932,3.932,0,0,1-1.143,1.368,2.43,2.43,0,0,1-1.45.439,2.528,2.528,0,0,1-1.5-.443,3.856,3.856,0,0,1-1.151-1.364,8.285,8.285,0,0,1-.759-2.242,15.813,15.813,0,0,1,0-5.744,7.814,7.814,0,0,1,.757-2.207,3.893,3.893,0,0,1,1.152-1.348,2.541,2.541,0,0,1,1.5-.444,2.372,2.372,0,0,1,1.422.442,4.078,4.078,0,0,1,1.164,1.355,7.658,7.658,0,0,1,.766,2.2,15.743,15.743,0,0,1,0,5.742Z" style="fill:#fff"/><path d="M104.154,275.048l-.232-.154-.352-.1-2.131.066-.474.27-.152.23-.1.333v11.451a11.458,11.458,0,0,1-.142,1.822,4.441,4.441,0,0,1-.466,1.414,2.351,2.351,0,0,1-.828.876,3.2,3.2,0,0,1-2.782.006,2.383,2.383,0,0,1-.821-.882,4.414,4.414,0,0,1-.466-1.426,11.422,11.422,0,0,1-.144-1.813L95,275.534l-.268-.486-.232-.154-.353-.1-2.13.066-.475.27-.151.23-.1.333v11.678a12.673,12.673,0,0,0,.3,2.829,6.761,6.761,0,0,0,1.094,2.476,5.416,5.416,0,0,0,2.086,1.711,7.076,7.076,0,0,0,3.085.612,7.218,7.218,0,0,0,3.092-.607,5.436,5.436,0,0,0,2.107-1.719,6.954,6.954,0,0,0,1.105-2.464,12.259,12.259,0,0,0,.319-2.84l-.064-11.836Z" style="fill:#fff"/><polygon points="132.454 275.047 132.22 274.893 131.868 274.795 129.907 274.861 129.432 275.132 129.281 275.363 129.184 275.699 129.295 281.769 129.333 287.143 123.631 275.127 123.073 274.795 120.462 274.861 119.984 275.131 119.833 275.361 119.735 275.695 119.799 293.828 120.067 294.315 120.3 294.469 120.652 294.568 122.67 294.503 123.146 294.231 123.297 294 123.394 293.664 123.283 287.588 123.244 282.208 128.982 294.238 129.526 294.568 131.888 294.568 132.152 294.51 132.293 294.443 132.536 294.232 132.687 294.002 132.786 293.668 132.722 275.535 132.454 275.047" style="fill:#fff"/><path d="M159.569,277.409a6.88,6.88,0,0,0-2.627-1.971,8.456,8.456,0,0,0-3.337-.643l-4.472.066-.483.27-.151.23-.1.334.064,18.132.267.488.231.154.337.1h4.288a8.4,8.4,0,0,0,3.328-.643,7.1,7.1,0,0,0,2.634-1.946,8.708,8.708,0,0,0,1.641-3.127,14.446,14.446,0,0,0,.544-4.144,14.616,14.616,0,0,0-.544-4.158A8.962,8.962,0,0,0,159.569,277.409Zm-1.95,10.333a5.919,5.919,0,0,1-.974,2.014,3.809,3.809,0,0,1-1.369,1.119,4.051,4.051,0,0,1-1.741.373l-1.342.116h-.049V278.117h1.414a3.979,3.979,0,0,1,1.72.374,3.78,3.78,0,0,1,1.368,1.118,5.951,5.951,0,0,1,.972,2.025,11.186,11.186,0,0,1,.374,3.074A10.969,10.969,0,0,1,157.619,287.742Z" style="fill:#fff"/><path d="M182.175,274.8l-2.971.211-.526.444-5.042,18.172.21.621.255.2.428.125,2.291-.214.52-.468.851-3.824,4.965-.214,1.367,4.314.577.407h2.059l.3-.077.158-.092.254-.28.123-.285.026-.408L182.8,275.213Zm-2.3,12.19-.528.01h-.2l1.7-6.423,1.417,5.021.032.118.3,1.156Z" style="fill:#fff"/><polygon points="210.055 275.008 209.803 274.849 209.476 274.757 199.639 274.839 199.144 275.12 198.985 275.375 198.895 275.724 198.977 277.432 199.258 277.904 199.511 278.063 199.853 278.154 202.646 277.998 202.735 277.995 202.812 293.86 203.093 294.355 203.343 294.514 203.668 294.606 205.614 294.606 205.886 294.545 206.058 294.46 206.3 294.243 206.458 293.992 206.549 293.665 206.375 278.143 209.68 278.072 210.167 277.789 210.325 277.535 210.415 277.188 210.334 275.48 210.055 275.008" style="fill:#fff"/><polygon points="227.293 275.007 227.039 274.848 226.695 274.757 224.539 274.84 224.062 275.119 223.903 275.37 223.811 275.697 223.893 293.86 224.173 294.355 224.424 294.514 224.748 294.606 226.72 294.606 226.989 294.546 227.16 294.462 227.406 294.244 227.565 293.993 227.657 293.667 227.575 275.503 227.293 275.007" style="fill:#fff"/><path d="M255.62,277.357a7.107,7.107,0,0,0-2.359-2.194,6.489,6.489,0,0,0-3.206-.8,6.642,6.642,0,0,0-3.271.8,7.064,7.064,0,0,0-2.38,2.194,10.05,10.05,0,0,0-1.412,3.259,16.518,16.518,0,0,0-.465,4.04,16.256,16.256,0,0,0,.479,4.071A10.38,10.38,0,0,0,244.447,292a7.157,7.157,0,0,0,2.394,2.2,6.844,6.844,0,0,0,6.422,0,6.99,6.99,0,0,0,2.358-2.207,10.379,10.379,0,0,0,1.423-3.264,17.328,17.328,0,0,0,0-8.113A10.209,10.209,0,0,0,255.62,277.357Zm-2.215,10.17a8.255,8.255,0,0,1-.758,2.244,3.948,3.948,0,0,1-1.14,1.368,2.441,2.441,0,0,1-1.452.439,2.519,2.519,0,0,1-1.5-.443,3.859,3.859,0,0,1-1.153-1.364,8.262,8.262,0,0,1-.76-2.244,15.861,15.861,0,0,1,0-5.742,7.813,7.813,0,0,1,.757-2.208,3.889,3.889,0,0,1,1.156-1.347,2.526,2.526,0,0,1,1.5-.444,2.393,2.393,0,0,1,1.424.442,4.092,4.092,0,0,1,1.16,1.355,7.643,7.643,0,0,1,.766,2.2,15.749,15.749,0,0,1,0,5.743Z" style="fill:#fff"/><polygon points="284.589 275.047 284.355 274.893 284.002 274.795 282.044 274.861 281.573 275.128 281.419 275.359 281.32 275.699 281.43 281.768 281.468 287.141 275.767 275.127 275.209 274.795 272.597 274.859 272.122 275.127 271.968 275.358 271.869 275.695 271.933 293.827 272.202 294.316 272.436 294.47 272.789 294.568 274.806 294.503 275.277 294.235 275.431 294.004 275.531 293.664 275.42 287.589 275.381 282.21 281.117 294.238 281.661 294.568 284.023 294.568 284.284 294.514 284.425 294.447 284.669 294.236 284.823 294.005 284.922 293.668 284.857 275.536 284.589 275.047" style="fill:#fff"/></svg>