<?xml version="1.0" encoding="UTF-8"?>
<svg width="45px" height="45px" viewBox="0 0 45 45" version="1.1" xmlns="http://www.w3.org/2000/svg" xmlns:xlink="http://www.w3.org/1999/xlink">
    <!-- Generator: Sketch 50.2 (55047) - http://www.bohemiancoding.com/sketch -->
    <title>gitter</title>
    <desc>Created with Sketch.</desc>
    <defs></defs>
    <g id="Page-1" stroke="none" stroke-width="1" fill="none" fill-rule="evenodd">
        <g id="gitter" fill-rule="nonzero">
            <path d="M22.502,0 C10.073,0 0,10.073 0,22.499 C0,34.927 10.073,45 22.502,45 C34.927,45 45,34.927 45,22.499 C45,10.073 34.927,0 22.502,0 Z" id="Shape" fill="#000000"></path>
            <path d="M19.001,15.001 L21,15.001 L21,35 L19.001,35 L19.001,15.001 Z M26,15.001 L26,35 L24,35 L24,15.001 L26,15.001 Z M14,11 L16.001,11 L16.001,26 L14,26 L14,11 Z M29,15.001 L31,15.001 L31,26 L29,26 L29,15.001 Z" id="Shape" fill="#FFFFFF"></path>
        </g>
    </g>
</svg>