<?xml version="1.0" encoding="UTF-8"?>
<svg width="94px" height="94px" viewBox="0 0 94 94" version="1.1" xmlns="http://www.w3.org/2000/svg" xmlns:xlink="http://www.w3.org/1999/xlink">
    <!-- Generator: Sketch 52.3 (67297) - http://www.bohemiancoding.com/sketch -->
    <title>googlecloud</title>
    <desc>Created with Sketch.</desc>
    <g id="Page-1" stroke="none" stroke-width="1" fill="none" fill-rule="evenodd">
        <g id="googlecloud" transform="translate(1.000000, 1.000000)">
            <circle id="Oval" stroke="#4CAFDE" stroke-width="2.8347" cx="45.789" cy="45.789" r="45.374"></circle>
            <g id="Group" transform="translate(23.000000, 25.000000)">
                <polygon id="Path" points="6.693 20.676 14.603 6.976 30.423 6.976 38.333 20.676 30.423 34.376 14.603 34.376"></polygon>
                <path d="M22.777,26.93 C19.378,26.93 16.611,24.164 16.611,20.764 C16.611,17.365 19.378,14.6 22.777,14.6 C26.177,14.6 28.943,17.365 28.943,20.764 C28.942,24.164 26.177,26.93 22.777,26.93" id="Path" fill="#4CAFDE"></path>
                <path d="M35.181,2.383 C34.695,1.543 33.505,0.856 32.536,0.856 L13.044,0.856 C12.074,0.856 10.884,1.544 10.399,2.383 L4.704,12.248 C4.659,12.885 4.776,13.551 5.058,14.037 L8.912,20.629 L15.795,8.739 L37.547,8.739 C38.063,8.739 38.639,8.934 39.139,9.241 L35.181,2.383" id="Path" fill="#4CAFDE"></path>
                <path d="M4.953,11.815 L4.703,12.248 C4.658,12.885 4.775,13.551 5.057,14.037 L8.912,20.629 L10.963,17.086 L4.953,11.815" id="Path" fill="#4CAFDE"></path>
                <path d="M13.546,5.925 C12.89,5.924 12.357,5.391 12.357,4.735 C12.357,4.08 12.89,3.547 13.546,3.546 C14.202,3.547 14.735,4.08 14.735,4.735 C14.735,5.392 14.203,5.924 13.546,5.925 Z M33.038,4.734 C33.046,5.343 32.559,5.843 31.95,5.849 C31.343,5.857 30.843,5.37 30.835,4.763 C30.835,4.753 30.835,4.743 30.835,4.734 C30.843,4.126 31.343,3.639 31.95,3.648 C32.548,3.654 33.03,4.139 33.038,4.734 Z" id="Shape" fill="#FFFFFF" fill-rule="nonzero"></path>
                <g transform="translate(24.000000, 8.000000)">
                    <path d="M20.927,11.264 L15.14,1.24 C14.64,0.934 14.064,0.739 13.548,0.739 L5.704,0.739 L12.487,12.694 L1.747,31.668 C1.511,32.076 1.106,32.449 0.643,32.725 L8.536,32.725 C9.505,32.725 10.694,32.037 11.181,31.198 L20.927,14.317 C21.411,13.477 21.411,12.104 20.927,11.264" id="Path" fill="#4CAFDE"></path>
                    <path d="M15.401,1.69 L15.141,1.24 C14.641,0.934 14.065,0.739 13.549,0.739 L5.705,0.739 L7.748,4.338 L15.401,1.69" id="Path" fill="#4CAFDE"></path>
                    <path d="M7.937,29.809 C7.281,29.808 6.748,29.276 6.748,28.619 C6.748,27.963 7.281,27.431 7.937,27.429 C8.593,27.431 9.126,27.963 9.126,28.619 C9.126,29.275 8.593,29.808 7.937,29.809 M17.194,13.953 C16.536,13.953 16.005,13.42 16.005,12.764 C16.005,12.108 16.536,11.576 17.194,11.575 C17.85,11.576 18.382,12.108 18.383,12.764 C18.382,13.42 17.851,13.953 17.194,13.953" id="Shape" fill="#FFFFFF" fill-rule="nonzero"></path>
                </g>
                <g transform="translate(0.000000, 12.000000)">
                    <path d="M15.945,20.652 L5.058,2.037 C4.777,1.551 4.66,0.885 4.704,0.248 L0.653,7.264 C0.168,8.104 0.168,9.477 0.653,10.317 L10.4,27.197 C10.884,28.037 12.075,28.722 13.045,28.722 L24.644,28.722 C25.107,28.449 25.511,28.076 25.748,27.667 L29.721,20.651 L15.945,20.651" id="Path" fill="#4CAFDE"></path>
                    <path d="M23.983,28.723 L24.659,28.723 C25.122,28.45 25.526,28.077 25.763,27.668 L29.734,20.652 L25.505,20.652 L23.983,28.723" id="Path" fill="#4CAFDE"></path>
                    <path d="M13.546,25.809 C12.889,25.808 12.357,25.276 12.357,24.619 C12.357,23.963 12.89,23.431 13.546,23.429 C14.202,23.431 14.735,23.963 14.735,24.619 C14.736,25.275 14.203,25.808 13.546,25.809 M4.272,9.953 C3.616,9.953 3.084,9.42 3.084,8.764 C3.084,8.108 3.616,7.576 4.272,7.575 C4.929,7.576 5.461,8.108 5.462,8.764 C5.461,9.42 4.929,9.953 4.272,9.953" id="Shape" fill="#FFFFFF" fill-rule="nonzero"></path>
                </g>
            </g>
        </g>
    </g>
</svg>