<?xml version="1.0" encoding="UTF-8"?>
<svg width="95px" height="95px" viewBox="0 0 95 95" version="1.1" xmlns="http://www.w3.org/2000/svg" xmlns:xlink="http://www.w3.org/1999/xlink">
    <title>gradle</title>
    <g id="Page-1" stroke="none" stroke-width="1" fill="none" fill-rule="evenodd">
        <g id="gradle" transform="translate(2.000000, 2.000000)">
            <circle id="Oval" stroke="#4CAFDE" stroke-width="2.8347" cx="45.374" cy="45.374" r="45.374"></circle>
            <path d="M70.1740313,26.3964416 C67.0259295,23.2720843 61.9574639,23.1927837 58.7123082,26.2171129 C58.5561063,26.3602263 58.4668966,26.5616895 58.4661423,26.773032 C58.4603171,26.9855422 58.5428712,27.1910193 58.6942961,27.3409064 L59.732996,28.3750355 C60.0098355,28.6494952 60.4470602,28.6800426 60.7596878,28.446767 C62.7444075,26.9604691 65.5460701,27.2574814 67.1719267,29.1265468 C68.7977833,30.9956123 68.6928865,33.7987701 66.9318467,35.5422078 C60.3874369,42.0578189 51.6455465,23.7961748 31.8261917,33.1870235 C31.1430331,33.5029566 30.6242373,34.0896112 30.3959868,34.8043001 C30.1677363,35.5189891 30.2509479,36.2962186 30.6253826,36.9469496 L34.0296765,42.8050221 C34.7650657,44.0717759 36.3869872,44.5141095 37.6681282,43.7973078 L37.7521848,43.7315539 L37.6861403,43.7793749 L39.1931558,42.9425074 C40.8735548,41.9027429 42.4623191,40.7229123 43.9423559,39.4157087 C44.2440368,39.1391107 44.703572,39.1238602 45.0230841,39.379843 L45.0230841,39.379843 C45.2061641,39.5220758 45.3161236,39.7380855 45.3230872,39.969183 C45.3300507,40.2002805 45.2332951,40.4224642 45.0591084,40.575368 C43.5069092,41.9716422 41.8332096,43.2278944 40.0577383,44.3293164 L40.0037019,44.3293164 L38.4966865,45.1721615 C36.442127,46.3027428 33.8567906,45.5942405 32.6727622,43.5761357 L29.4545937,38.0528102 C23.2824348,42.4224541 19.5419143,50.7851513 21.5412615,61.3595698 C21.6081242,61.7298908 21.9318599,61.9993227 22.3097794,61.9991757 L25.9662432,61.9991757 C26.3624298,61.9964829 26.6957531,61.7029175 26.7467691,61.3117488 C27.0844314,58.6426543 29.364281,56.6407909 32.0663536,56.6407909 C34.7684262,56.6407909 37.0482757,58.6426543 37.385938,61.3117488 C37.43416,61.7019845 37.7655562,61.9961152 38.1604599,61.9991757 L41.726863,61.9991757 C42.1230496,61.9964829 42.456373,61.7029175 42.507389,61.3117488 C42.8450512,58.6426543 45.1249008,56.6407909 47.8269734,56.6407909 C50.529046,56.6407909 52.8088956,58.6426543 53.1465579,61.3117488 C53.1963626,61.7181933 53.5522667,62.0178174 53.9631081,61.9991757 L57.4874829,61.9991757 C57.915913,61.9960541 58.264287,61.6545084 58.2740129,61.2280621 C58.3520655,56.2785886 59.6909676,50.599845 63.5155447,47.7485179 C76.7124371,37.897392 73.2300906,29.4569856 70.1740313,26.3964416 Z" id="Path" fill="#4CAFDE" fill-rule="nonzero"></path>
        </g>
    </g>
</svg>