<?xml version="1.0" encoding="UTF-8"?>
<svg width="94px" height="94px" viewBox="0 0 94 94" version="1.1" xmlns="http://www.w3.org/2000/svg" xmlns:xlink="http://www.w3.org/1999/xlink">
    <!-- Generator: Sketch 52.6 (67491) - http://www.bohemiancoding.com/sketch -->
    <title>graphql</title>
    <desc>Created with Sketch.</desc>
    <g id="Page-1" stroke="none" stroke-width="1" fill="none" fill-rule="evenodd">
        <g id="graphql" transform="translate(1.000000, 1.000000)">
            <circle id="Oval" stroke="#4CAFDE" stroke-width="2.8347" cx="45.79" cy="45.79" r="45.374"></circle>
            <g id="GraphQL_Logo" transform="translate(45.500000, 46.000000) scale(-1, 1) translate(-45.500000, -46.000000) translate(25.000000, 23.000000)" fill="#4CAFDE">
                <polygon id="Rectangle" transform="translate(12.341562, 18.285012) rotate(-149.999272) translate(-12.341562, -18.285012) " points="11.3547221 -0.500249424 13.3000977 -0.498782494 13.3284024 37.0702729 11.3830268 37.068806"></polygon>
                <rect id="Rectangle" x="1" y="32" width="38" height="1"></rect>
                <polygon id="Rectangle" transform="translate(12.346025, 37.150621) rotate(-149.999272) translate(-12.346025, -37.150621) " points="1.50509657 36.1689121 23.1854874 36.1852604 23.1869543 38.1323298 1.5065635 38.1159814"></polygon>
                <polygon id="Rectangle" transform="translate(28.649312, 8.860738) rotate(-149.999272) translate(-28.649312, -8.860738) " points="17.8083834 7.87902942 39.4887742 7.89537774 39.4902411 9.84244711 17.8098504 9.82609879"></polygon>
                <polygon id="Rectangle" transform="translate(12.351227, 8.853322) rotate(-120.000728) translate(-12.351227, -8.853322) " points="11.3695177 -1.98760692 13.3165871 -1.98613999 13.3329354 19.6942508 11.385866 19.6927839"></polygon>
                <polygon id="Rectangle" transform="translate(28.662655, 18.285364) rotate(-120.000728) translate(-28.662655, -18.285364) " points="9.8773937 17.2985236 47.4464491 17.3268283 47.447916 19.2722039 9.87886063 19.2438992"></polygon>
                <rect id="Rectangle" x="3" y="13" width="1" height="22"></rect>
                <rect id="Rectangle" x="37" y="13" width="1" height="22"></rect>
                <polygon id="Rectangle" transform="translate(28.649230, 37.139790) rotate(-120.000728) translate(-28.649230, -37.139790) " points="27.7917443 27.7111089 29.4924977 27.7123903 29.5067163 46.5684707 27.8059629 46.5671893"></polygon>
                <path d="M40.4589678,33.9994233 C39.3600418,35.9129114 36.9103526,36.5660182 34.9986793,35.4660489 C33.087006,34.3660797 32.4345187,31.9140649 33.5334446,30.0005767 C34.6323706,28.0870886 37.0820598,27.4339818 38.9937332,28.5339511 C40.9168536,29.6453783 41.569341,32.0859351 40.4589678,33.9994233" id="Path"></path>
                <path d="M7.46604893,15.9994233 C6.36607969,17.9129114 3.9140649,18.5660182 2.00057673,17.4660489 C0.0870885586,16.3660797 -0.566018183,13.9140649 0.533951066,12.0005767 C1.63392031,10.0870886 4.0859351,9.43398182 5.99942327,10.5339511 C7.91291144,11.6453783 8.56601818,14.0859351 7.46604893,15.9994233" id="Path"></path>
                <path d="M0.533951066,33.9994233 C-0.566018183,32.0859351 0.0870885586,29.6453783 2.00057673,28.5339511 C3.9140649,27.4339818 6.35462167,28.0870886 7.46604893,30.0005767 C8.56601818,31.9140649 7.91291144,34.3546217 5.99942327,35.4660489 C4.07447708,36.5660182 1.63392031,35.9129114 0.533951066,33.9994233" id="Path"></path>
                <path d="M33.5339511,15.9994233 C32.4339818,14.0859351 33.0870886,11.6453783 35.0005767,10.5339511 C36.9140649,9.43398182 39.3546217,10.0870886 40.4660489,12.0005767 C41.5660182,13.9140649 40.9129114,16.3546217 38.9994233,17.4660489 C37.0859351,18.5660182 34.6339203,17.9129114 33.5339511,15.9994233" id="Path"></path>
                <path d="M20,46 C17.7879656,46 16,44.2120344 16,42 C16,39.7879656 17.7879656,38 20,38 C22.2120344,38 24,39.7879656 24,42 C24,44.2005731 22.2120344,46 20,46" id="Path"></path>
                <path d="M20,8 C17.7879656,8 16,6.21203438 16,4 C16,1.78796562 17.7879656,0 20,0 C22.2120344,0 24,1.78796562 24,4 C24,6.21203438 22.2120344,8 20,8" id="Path"></path>
            </g>
        </g>
    </g>
</svg>