<?xml version="1.0" encoding="UTF-8"?>
<svg width="94px" height="94px" viewBox="0 0 94 94" version="1.1" xmlns="http://www.w3.org/2000/svg" xmlns:xlink="http://www.w3.org/1999/xlink">
    <!-- Generator: Sketch 52.6 (67491) - http://www.bohemiancoding.com/sketch -->
    <title>groovy</title>
    <desc>Created with Sketch.</desc>
    <g id="Page-1" stroke="none" stroke-width="1" fill="none" fill-rule="evenodd">
        <g id="groovy" transform="translate(1.000000, 1.000000)">
            <circle id="Oval" stroke="#4CAFDE" stroke-width="2.8347" cx="45.79" cy="45.79" r="45.374"></circle>
            <g id="Groovy-logo" transform="translate(12.000000, 29.000000)">
                <path d="M13.2421053,33.8359134 C13.2421053,33.7456641 14.4415363,31.7504675 15.9075076,29.4021453 C17.373481,27.053822 18.4168985,25.0770187 18.2262184,25.0092525 C18.0355372,24.9414874 17.3757578,25.0636427 16.7600423,25.2807083 C14.9057044,25.934442 14.5246752,25.7611632 13.1396691,23.6342822 C11.6410876,21.3329935 11.587425,21.0954886 12.3687562,20.2223688 C12.879122,19.6520532 12.8484287,19.5191088 12.0108614,18.6720737 C11.5069925,18.1625082 11.0947363,17.5921444 11.0947363,17.4045981 C11.0947363,17.0891459 7.6627986,15.6587495 2.23684265,13.7127199 C1.00657878,13.2714828 0,12.8359191 0,12.7448007 C0,12.6536789 2.59910753,12.6322777 5.77579401,12.6972397 L11.5515901,12.815351 L12.1153883,11.9160704 C14.4980803,8.11558772 18.0963059,4.68283842 19.6973069,4.68283842 C20.0306953,4.68283842 20.7073955,5.00415781 21.2010797,5.39688032 C22.0049794,6.03637475 22.1153898,6.43263435 22.258623,9.19244073 C22.3465824,10.8872768 22.5270768,12.3837081 22.6597146,12.5178474 C22.7923513,12.6519845 23.2131498,12.4759352 23.5948224,12.1266228 C24.0822255,11.680541 24.5953244,11.559603 25.3187517,11.7202896 C26.0681791,11.8867526 26.4955777,11.7728073 26.8878434,11.3019589 C27.476262,10.5956762 30.4210524,5.82148313 30.4210524,5.57381249 C30.4210524,5.48964217 31.004099,4.48109207 31.7167149,3.33259046 C32.4293253,2.18408884 33.250067,0.859781228 33.540581,0.389686302 C34.057239,-0.446341344 34.1381908,-0.347402012 37.2422183,4.91393958 C40.4471161,10.3462555 42.1720254,12.3508077 43.0355653,11.6465117 C43.6382027,11.155 46.8007254,11.1271089 47.6846278,11.6055077 C48.1870083,11.8774115 48.5062123,11.8738468 48.7836869,11.5932313 C49.3595333,11.0108768 50.7381963,11.112305 51.0985717,11.7635434 C51.3824967,12.276621 51.4549096,12.276621 51.8759695,11.7635434 C52.1313384,11.4523603 52.8876948,11.1977612 53.5567573,11.1977612 C54.5023332,11.1977612 54.8627329,11.3963944 55.1750889,12.0896907 L55.5769368,12.9816192 L61.7884678,12.7592295 C65.2048103,12.6369118 68,12.6151118 68,12.7107882 C68,12.8064579 65.4634217,13.8387456 62.3631582,15.0047583 C59.2628958,16.1707665 56.6748685,17.1597869 56.6119869,17.2025749 C56.5491042,17.2453629 56.6893342,18.2656655 56.9236098,19.4699105 C57.533176,22.6032969 57.135627,24.6915425 55.6029138,26.4072457 C54.9153402,27.1769113 53.7997214,27.9912262 53.1237588,28.2168345 C52.4477961,28.4424428 51.8947374,28.7080382 51.8947374,28.807043 C51.8947374,28.9060488 52.6162245,30.114966 53.4980439,31.4935245 C54.3798623,32.8720863 54.9689574,34 54.8071379,34 C54.5430229,34 48.1108127,31.4866785 38.1090361,27.4753859 C36.1368993,26.6844478 34.3409658,26.0373126 34.1180741,26.0373126 C33.7024038,26.0373126 30.1130163,27.4132908 19.5865377,31.6079245 C13.4820661,34.040462 13.2421053,34.1247288 13.2421053,33.8359101 L13.2421053,33.8359134 Z M25.7684219,28.0961306 C29.0163171,26.8199982 32.2373683,25.572907 32.9263161,25.3248189 C34.1112903,24.8981159 34.507567,25.0050954 40.2631589,27.3055117 C43.6094739,28.6429788 46.9110528,29.9457727 47.5999995,30.2006025 C48.2889473,30.4554379 49.7088061,31.0092361 50.7552356,31.4312692 C51.9484432,31.9124946 52.5583317,32.0283617 52.3909586,31.7420235 C50.5212879,28.5434634 50.4641359,28.4901528 49.1683848,28.7359831 C47.6054688,29.0325012 46.6348086,28.7283118 46.1359639,27.7856877 C45.8124843,27.1744285 45.9112274,26.8754791 46.717829,26.0240507 C47.9192134,24.7559021 47.7304823,23.5892275 46.181381,22.7079168 C45.5869781,22.369753 44.8369538,21.5338453 44.514658,20.8503425 L43.9286657,19.60761 L42.6722842,20.4698521 C41.1280864,21.5296177 39.2448679,21.5842229 37.6727153,20.6148209 L36.5138532,19.9002521 L35.1674527,20.8256073 C33.819257,21.7521966 32.2670993,21.8719072 30.689474,21.1709754 C30.2548288,20.977861 30.0631575,21.0529212 30.0631575,21.4162424 C30.0631575,21.7041888 29.6529511,22.1287954 29.1515816,22.3598173 C27.648399,23.0524517 26.1814643,22.8685283 25.1869001,21.8627218 L24.2800162,20.9455866 L23.5480565,21.8866417 C23.1454799,22.4042213 22.2137142,23.2122648 21.4774679,23.6822867 C20.5661312,24.2640947 19.4379569,25.6837513 17.9431029,28.1298127 C16.7354484,30.1059273 15.7473679,31.823289 15.7473679,31.9461801 C15.7473679,32.0690667 16.6734217,31.7751311 17.8052626,31.2929885 C18.9371057,30.8108482 22.5205266,29.3722631 25.7684219,28.0961306 Z M53.3164665,26.723306 C55.7810085,25.3224985 56.3522704,22.7310786 55.2628954,17.8936606 C54.3524723,13.8508663 53.8979916,12.5278548 53.3587585,12.3506083 C52.9856793,12.2279759 52.9283479,12.3625901 53.1385467,12.8675932 C54.5023055,16.1441633 54.5781025,17.7891739 53.3866247,18.251557 C52.5681021,18.5692076 51.6998171,17.3790711 51.0169355,15.0034827 C50.4881473,13.16395 49.9351771,12.3349443 49.5182189,12.7566156 C49.4183807,12.8575858 49.5933526,13.4421253 49.9070474,14.0556019 C50.2207388,14.6690717 50.6508992,16.5165311 50.8629584,18.1610646 C51.0750188,19.8055948 51.4846262,21.5275649 51.7731966,21.9876634 C52.5231136,23.1833366 53.716794,22.8951853 54.4889206,21.332092 C55.2523199,19.7866584 55.3385972,20.8160635 54.5962591,22.6128116 C53.8254392,24.4784939 51.5360729,25.0379331 48.8839193,24.0087016 C48.4594266,23.8439688 48.3157891,24.0144691 48.3157891,24.6829899 C48.3157891,25.1751085 47.9906418,25.9957867 47.5932356,26.5067129 L46.8706821,27.4356765 L47.8616573,27.6049191 C49.5725017,27.897111 51.9183611,27.5179678 53.3164665,26.723306 Z M17.8396535,23.6394012 C22.984512,22.1438312 23.9038861,20.3994272 22.1948599,15.3759054 C21.7982123,14.2100013 21.4736851,12.9558346 21.4736851,12.5888625 C21.4736851,11.339377 20.8522754,11.9167424 20.3865537,13.5989482 C19.7706244,15.8236973 17.9180716,17.714639 16.3617557,17.707148 C15.0101438,17.7006302 14.5697335,17.4518019 14.0114723,16.3792068 C13.0095705,14.4542313 14.1016896,11.500031 16.8872927,8.60007874 C18.9275678,6.4760429 20.0421058,6.28368209 20.0421058,8.0555779 C20.0421058,10.8187289 18.1583005,14.8863726 17.1658923,14.2660982 C16.6806319,13.9628003 16.7593302,12.6234831 17.3228327,11.5951273 C17.8020357,10.7206178 17.7046736,9.38806145 17.1615757,9.38806145 C16.5318197,9.38806145 15.2850647,11.7075933 15.1203183,13.1857242 C14.974681,14.4924524 15.0657399,14.8101892 15.6813757,15.1433896 C17.8388263,16.3110754 20.6651832,12.7473137 20.8075394,8.67979432 C20.8822921,6.54378933 20.4734688,5.94263567 19.1709327,6.27324731 C17.2752286,6.75441704 12.1684208,13.4167114 12.1684208,15.4086569 C12.1684208,16.9667509 12.9421896,18.0625146 14.3043693,18.4334612 C16.6203693,19.0641462 18.8596288,17.9436294 20.4462759,15.3600779 L21.1131137,14.2742556 L21.1145755,15.7494132 C21.1163694,17.8854875 19.7385214,19.0113899 15.3896126,20.4270025 C14.3069816,20.7794126 13.3760243,21.1050357 13.3208235,21.1506111 C13.119218,21.3170641 15.1687552,24.2276151 15.4875761,24.2276151 C15.6683695,24.2276151 16.726864,23.9629167 17.8397919,23.6394012 L17.8396535,23.6394012 Z M48.8371457,20.9874597 C49.3535701,20.4103642 49.4446013,19.7834521 49.3338941,17.5663643 C49.2134785,15.1548495 49.0816922,14.7287053 48.1532664,13.7486833 C46.4757132,11.9779046 44.4035344,12.429634 45.6164544,14.3017054 C46.2612343,15.2968898 47.0477901,15.1269192 46.769949,14.052437 C46.5486232,13.1965246 46.9615239,13.1740347 47.6811462,14.0028008 C49.0313783,15.557823 48.6905627,17.7126904 47.0943887,17.7126904 C46.0017171,17.7126904 45.6612204,17.2387757 44.9489987,14.7266816 C44.6244704,13.5820467 44.2292402,12.6455238 44.070704,12.6455238 C43.5425946,12.6455238 43.3074,13.116865 43.6358118,13.5170746 C43.8141978,13.7344583 44.3082342,15.2967374 44.7336749,16.9888096 C45.804406,21.2473358 47.3002167,22.7049401 48.8371457,20.9874597 Z M28.4866463,21.055096 C28.706991,20.9055894 28.8077594,20.1984926 28.7168323,19.4398647 C28.5701606,18.216148 28.4879785,18.126883 27.8339497,18.4808643 C26.894078,18.989553 25.8840281,18.0257919 25.5414229,16.293409 C25.2815126,14.9791641 25.2019815,15.0049767 27.0946105,15.7892873 C27.3319092,15.8876234 27.9358566,15.5536581 28.4367167,15.0471364 C29.3529735,14.1205225 29.6546177,13.0074642 28.9894731,13.0074642 C28.7926315,13.0074642 28.6315783,13.1703379 28.6315783,13.3694046 C28.6315783,13.8900717 27.6523967,13.8162244 27.4317685,13.2789201 C27.3030641,12.9654837 27.0288951,13.0766763 26.5393126,13.6408605 C26.1506381,14.0887621 25.6759167,14.4552269 25.484375,14.4552269 C25.2928323,14.4552269 25.0341578,14.0887621 24.9095463,13.6408605 C24.6911761,12.855972 24.6644095,12.8510209 24.1701063,13.5040434 C23.7370534,14.0761487 23.7331809,14.2583888 24.1452334,14.6750789 C24.5816106,15.116391 25.4105448,18.1323235 25.4105448,19.2786999 C25.4105448,20.7041833 27.3517114,21.8251637 28.486664,21.055096 L28.4866463,21.055096 Z M35.0138986,19.1652305 C36.3588884,17.8050373 36.7574186,15.7661748 36.0248754,13.9931339 C35.4523411,12.6073733 34.458521,12.0887265 33.0572264,12.4444044 C32.015996,12.7086906 30.4301717,15.7790839 30.4245506,17.5416683 C30.4157801,20.2886725 32.9992727,21.202626 35.0138986,19.1652305 Z M32.5684213,16.9888096 C32.1747359,16.5906741 31.8577533,15.8170272 31.8640133,15.2695922 C31.8743563,14.3647524 31.9186239,14.3318442 32.3508396,14.9076518 C32.8851116,15.6194254 33.8345068,15.7427229 34.1982198,15.1475702 C34.3304767,14.9311596 34.2594525,14.5728354 34.0403957,14.3513024 C33.4776994,13.7822456 33.545882,13.0074642 34.1586552,13.0074642 C34.839847,13.0074642 35.7894736,14.4089929 35.7894736,15.4143426 C35.7894736,16.1542312 34.3006648,17.7126904 33.5938405,17.7126904 C33.4235418,17.7126904 32.9621056,17.3869429 32.5684213,16.9888096 Z M42.1305518,19.0699652 C43.6156331,17.434617 43.4709005,14.9153612 41.7874571,13.0979499 C40.918099,12.1594067 38.9865577,11.9975902 38.1960121,12.7970731 C37.4665119,13.5348194 36.7381823,16.4359666 37.0087633,17.5262316 C37.5858445,19.8514995 40.5967268,20.7589923 42.1305518,19.0699652 Z M39.0901622,16.4253757 C38.5025598,16.0091493 38.3006641,15.5126866 38.3174243,14.5251893 C38.3361778,13.4209312 38.3932025,13.3213183 38.64537,13.9524557 C39.0158702,14.8797685 39.7929412,15.2299634 40.4745593,14.7768027 C40.8973057,14.4957493 40.8775677,14.3628912 40.3526321,13.9560204 C39.6525573,13.4134032 39.515996,12.6455238 40.1195669,12.6455238 C40.6592651,12.6455238 42.5894742,14.7807985 42.5894742,15.3778305 C42.5894742,15.9605322 41.2188241,16.9888096 40.4421063,16.9888096 C40.1360204,16.9888096 39.5276413,16.7352621 39.0901622,16.4253757 Z M60.1263161,14.8251656 L63.8842117,13.3987695 L59.8578944,13.3840708 C56.2545616,13.3709277 55.8320909,13.43593 55.836464,14.0027874 C55.8409046,14.5770238 56.2053031,16.2743864 56.320689,16.2582285 C56.3469583,16.254544 58.0594749,15.6096677 60.1263161,14.825151 L60.1263161,14.8251656 Z M11.0146471,14.5699069 L11.3987149,13.4177977 L8.02486936,13.3031155 C6.16925751,13.2400405 4.65138657,13.2883183 4.65182997,13.4104064 C4.65247225,13.5890449 10.4663136,15.8861765 10.594235,15.7583344 C10.6142067,15.7383553 10.8034107,15.2035674 11.0146471,14.5699069 Z M34.1488782,10.9988882 C34.9425024,11.1272287 35.8376148,11.4557222 36.1380199,11.7288781 C36.6045368,12.153077 36.8074634,12.1241646 37.5291211,11.5306726 C37.9938262,11.1485068 38.5977736,10.835823 38.8712272,10.835823 C39.1446831,10.835823 39.3684219,10.7559652 39.3684219,10.6583559 C39.3684219,10.3213579 34.2147165,1.78734802 34.0181639,1.79887291 C33.7872747,1.81240936 28.504948,10.7679235 28.3423168,11.4215406 C28.2740644,11.6958623 28.4882741,11.7971225 28.9041626,11.687136 C29.2738466,11.5893688 29.784992,11.7636543 30.0400343,12.0744377 C30.4536858,12.57849 30.6226369,12.5383326 31.6048405,11.7025224 C32.5379727,10.9084675 32.926036,10.8011375 34.1488782,10.9988882 Z" id="path4019" fill="#333333" fill-rule="nonzero"></path>
                <path d="M30.0153879,11.9616658 C29.9600109,11.9345165 29.891746,11.8722213 29.7358434,11.7065651 C29.5244123,11.4819062 29.4403654,11.4165503 29.2646189,11.3401313 C29.033721,11.2397332 28.783019,11.212691 28.5477529,11.2628086 C28.3378479,11.3075233 28.2796487,11.3123379 28.1847565,11.2928334 C28.0263678,11.2602778 27.970042,11.1589805 28.014912,10.9873764 C28.0708397,10.773479 28.4945246,9.9458758 29.3429628,8.39323386 C31.0663338,5.23945972 33.3834343,1.26308904 33.6393704,1.02017716 C33.6677152,0.993274279 33.6686762,0.993274279 33.6971504,1.02017716 C33.8495054,1.16412601 34.7451049,2.61877287 35.9686688,4.70961331 C37.6238357,7.53798407 39,10.0255419 39,10.1890586 C39,10.2889035 38.8544573,10.348867 38.5481472,10.3752232 C38.1674744,10.407978 37.7270553,10.6433134 37.125004,11.1356699 C36.8388994,11.3696472 36.7167947,11.4570373 36.5775246,11.5275049 C36.4614867,11.5862164 36.4517948,11.588576 36.3266511,11.588576 C36.2034914,11.588576 36.1910027,11.585676 36.0948332,11.5348527 C36.0381977,11.5049187 35.9284324,11.4242918 35.8469445,11.3527679 C35.6060307,11.1413115 35.3162126,10.987515 34.8436931,10.8203751 C34.2432033,10.6079695 33.6001813,10.4804815 33.0526632,10.4652757 C32.6203369,10.4532704 32.4209832,10.4941569 32.0931991,10.6620597 C31.8255893,10.7991375 31.6966071,10.896518 31.0841108,11.4239144 C30.4610843,11.9603754 30.2398352,12.0717027 30.0153879,11.9616658 Z" id="path4567" fill="#4CAFDE"></path>
                <path d="M10.0541182,14.9411019 C9.0491717,14.5374596 5.55286279,12.6343923 5.06342217,12.2246272 C4.99586689,12.1680706 4.99040819,12.1594775 5.00968716,12.1400486 C5.1216234,12.027245 6.23018261,11.9711302 7.48313084,12.0148455 C7.9828155,12.0322798 10.9949852,12.1693426 10.9998898,12.1748695 C11.0097523,12.1859807 10.3547574,14.8045777 10.3044191,14.9552983 C10.2833972,15.0182435 10.2400576,15.0157854 10.0541182,14.9411019 Z" id="path4571" fill="#4CAFDE"></path>
                <path d="M56.4397877,16.9641566 C56.2859643,16.6445567 56.0083798,15.2004802 56.0002691,14.6776554 C55.9971176,14.4745248 56.0209835,14.3916852 56.1068647,14.3076416 C56.303697,14.115023 56.7038021,14.0457291 57.8035796,14.0137864 C58.3588031,13.9976596 60.9219826,13.9951773 62.7317957,14.0090151 L64,14.0187108 L60.9464243,15.2338224 C58.1619209,16.3418611 56.5427014,16.9822532 56.4827589,16.9991752 C56.4677594,17.0034163 56.4528187,16.9912349 56.4397877,16.9641589 L56.4397877,16.9641566 Z" id="path4573" fill="#4CAFDE"></path>
                <path d="M16.0000616,31.9574129 C16.0000616,31.8731184 16.3662945,31.2429364 17.2945145,29.730028 C19.5185519,26.1050631 20.535383,24.7912022 21.7841052,23.9289693 C22.9012417,23.1575948 23.4985614,22.6243397 24.1643437,21.8040189 L24.574852,21.2982258 L25.1282963,21.8293472 C26.0971616,22.7591356 26.6812544,23.0286913 27.7384071,23.0339014 C29.0313621,23.0402772 30.447257,22.3352825 30.447257,21.6851341 C30.447257,21.5386102 30.5541434,21.3874099 30.6577236,21.3874099 C30.7015653,21.3874099 30.9509049,21.4621756 31.2118121,21.5535568 C31.8918588,21.7917375 32.2907456,21.8778692 32.8485526,21.9069782 C33.4020058,21.9358598 33.8062861,21.8883429 34.3451422,21.7310784 C34.8745784,21.5765623 35.1794809,21.4184054 36.0927094,20.8245919 C36.5529065,20.5253563 36.9441279,20.2805275 36.9620916,20.2805275 C36.9800543,20.2805275 37.3122407,20.4685173 37.7002825,20.6982826 C38.0883243,20.9280478 38.5546005,21.177436 38.7364532,21.2524784 C39.9765319,21.7642054 41.3160096,21.7308192 42.5424413,21.1576162 C42.7618012,21.0550921 43.2782828,20.749613 43.6901781,20.4787734 C44.1020744,20.2079337 44.4448639,19.9925737 44.4519334,20.0001963 C44.4590028,20.0078188 44.6150627,20.3196224 44.7987326,20.6930933 C44.9824037,21.0665642 45.2131465,21.4877982 45.3114957,21.6291678 C45.7372319,22.2411366 46.2274848,22.6956069 46.8893403,23.0918526 C47.570653,23.4997475 47.9908803,24.0418632 48.0342112,24.5688014 C48.0771958,25.0915194 47.8433822,25.5551849 47.1690851,26.2843947 C46.6428016,26.8535382 46.5110669,27.0756765 46.5124303,27.3916807 C46.5137972,27.708025 46.7030061,28.0728497 47.0355959,28.4004179 C47.5739636,28.9306556 48.4187922,29.0880644 49.6611866,28.8896173 C49.9383715,28.845343 50.2880019,28.8089548 50.4381429,28.8087568 C50.9182723,28.8081007 51.2115455,29.0379753 51.7705266,29.853015 C52.1563221,30.4155377 53,31.7947558 53,31.8629193 C53,31.8983604 52.9606251,31.9232961 52.9046611,31.9232961 C52.7869017,31.9232961 52.2746697,31.787271 51.9039441,31.6575517 C51.4167576,31.4870828 45.4874027,29.2510004 43.5295281,28.4993855 C38.3015582,26.4924056 36.5801827,25.8514492 35.7389617,25.5985559 C34.8298863,25.3252644 34.2107646,25.2611484 33.7081373,25.3882452 C33.0829836,25.5463244 24.5525188,28.7641446 19.5768216,30.7187891 C17.1197491,31.6840229 16.8120659,31.7988284 16.3523091,31.921951 C15.9867338,32.0198534 16.0000616,32.0185116 16.0000616,31.9574129 Z" id="path4575" fill="#4CAFDE"></path>
            </g>
        </g>
    </g>
</svg>