<?xml version="1.0" encoding="UTF-8"?>
<svg width="95px" height="95px" viewBox="0 0 95 95" version="1.1" xmlns="http://www.w3.org/2000/svg" xmlns:xlink="http://www.w3.org/1999/xlink">
    <title>ignite</title>
    <g id="Page-1" stroke="none" stroke-width="1" fill="none" fill-rule="evenodd">
        <g id="ignite" transform="translate(2.000000, 2.000000)">
            <circle id="Oval" stroke="#4CAFDE" stroke-width="2.8347" cx="45.374" cy="45.374" r="45.374"></circle>
            <g transform="translate(29.000000, 21.000000)" fill="#4CAFDE" fill-rule="nonzero" id="Path">
                <path d="M9.18878649,10 C9.18878649,10 -10.7003159,21.7892656 8.04408995,33.5173171 C11.661331,35.7878011 24.7309038,42.1429304 24.3560157,48 C24.3560157,48 32.274454,36.5919309 20.7044337,29.427107 C8.79386618,22.0675112 5.80906995,14.2376803 9.18878649,10 Z"></path>
                <path d="M2.74580408,33 C2.74580408,33 -4.11983765,42.8459526 9.37927436,44.8502044 C10.6976766,45.0098119 20.4765173,45.9700736 23,49 C23,49 22.7678285,43.7669665 14.8297758,40.6847097 C6.89172301,37.602453 3.62750284,36.8358136 2.74580408,33 Z"></path>
                <path d="M29.0344257,21.0693828 C20.7973227,12.3540026 18.5201524,6.97286267 22.0313663,0 C22.0313663,0 -2.57756704,9.55592152 21.7159381,26.5091651 C30.4178827,32.582844 28.959719,38.7710153 28.9652529,39 C30.3404091,37.5674495 37.2715288,29.784763 29.0344257,21.0693828 Z"></path>
            </g>
        </g>
    </g>
</svg>