<?xml version="1.0" encoding="UTF-8"?>
<svg width="94px" height="94px" viewBox="0 0 94 94" version="1.1" xmlns="http://www.w3.org/2000/svg" xmlns:xlink="http://www.w3.org/1999/xlink">
    <!-- Generator: Sketch 52.6 (67491) - http://www.bohemiancoding.com/sketch -->
    <title>kubernetes</title>
    <desc>Created with Sketch.</desc>
    <g id="Page-1" stroke="none" stroke-width="1" fill="none" fill-rule="evenodd">
        <g id="kubernetes" transform="translate(1.000000, 1.000000)">
            <circle id="Oval" stroke="#4CAFDE" stroke-width="2.8347" cx="45.789" cy="45.789" r="45.374"></circle>
            <g id="Kubernetes_logo" transform="translate(17.000000, 18.000000)">
                <path d="M52.0135759,12.2322991 C51.6876659,11.1912524 50.9054817,10.3454019 49.9277515,9.82487855 L30.0472372,0.325327104 C29.5257811,0.0650654209 28.939143,0 28.4176869,0 C27.8962307,0 27.3095926,0 26.7881365,0.130130842 L6.90762222,9.69474771 C5.92989188,10.1502057 5.21288973,10.9960561 4.95216167,12.1021683 L0.0635106463,33.5086918 C-0.132035396,34.6148039 0.12869266,35.7209161 0.780512774,36.631832 L14.5339179,53.6139068 C15.316102,54.3946919 16.4241963,54.9152152 17.5322905,54.9802806 L39.4334472,54.9802806 C40.6067235,55.1104115 41.7148177,54.5898881 42.4318199,53.6139068 L56.1852248,36.631832 C56.837045,35.7209161 57.097773,34.6148039 56.967409,33.5086918 L52.0135759,12.2322991 Z" id="path10349" fill="#4CAFDE"></path>
                <path d="M48.8349349,32.6462649 C48.770209,32.6462649 48.7054832,32.6462649 48.7054832,32.5813691 C48.7054832,32.5164734 48.5760315,32.5164734 48.4465798,32.5164734 C48.1876764,32.4515776 47.9287731,32.4515776 47.6698697,32.4515776 C47.540418,32.4515776 47.4109663,32.4515776 47.2815147,32.3866818 L47.2167888,32.3866818 C46.5048046,32.321786 45.7280945,32.1919945 45.0161102,31.9973072 C44.8219327,31.9324114 44.6277551,31.7377241 44.5630293,31.5430368 C44.6277551,31.5430368 44.5630293,31.5430368 44.5630293,31.5430368 L44.0452226,31.4132452 C44.3041259,29.5312678 44.1746743,27.5843945 43.7863192,25.7024171 C43.3332383,23.8204396 42.5565282,22.003358 41.5209147,20.3809636 L41.9092698,19.991589 L41.9092698,19.9266932 C41.9092698,19.7320059 41.9739956,19.4724228 42.1034473,19.3426312 C42.6859799,18.823465 43.2685125,18.4340904 43.9157709,18.0447157 C44.0452226,17.97982 44.1746743,17.9149242 44.3041259,17.8500284 C44.5630293,17.7202369 44.7572068,17.5904453 45.0161102,17.4606538 C45.080836,17.395758 45.1455619,17.395758 45.2102877,17.3308622 C45.2750136,17.2659665 45.2102877,17.2659665 45.2102877,17.2010707 C45.7928203,16.7468003 45.922272,15.968051 45.4691911,15.383989 C45.2750136,15.1244059 44.8866585,14.9297186 44.5630293,14.9297186 C44.2394001,14.9297186 43.9157709,15.0595101 43.6568675,15.2541975 L43.5921417,15.3190932 C43.5274158,15.383989 43.46269,15.4488848 43.3979642,15.4488848 C43.2037866,15.6435721 43.0096091,15.8382594 42.8801574,16.0329467 C42.8154316,16.1627383 42.6859799,16.2276341 42.6212541,16.2925298 C42.1681732,16.811696 41.5856406,17.3308622 41.003108,17.7202369 C40.8736563,17.7851326 40.7442046,17.8500284 40.614753,17.8500284 C40.5500271,17.8500284 40.4205754,17.8500284 40.3558496,17.7851326 L40.2911238,17.7851326 L39.773317,18.1096115 C39.2555103,17.5904453 38.6729777,17.0712791 38.155171,16.5521129 C35.7603148,14.6701355 32.7829261,13.5020116 29.7408116,13.1775327 L29.6760857,12.6583665 L29.6760857,12.7232623 C29.4819082,12.5934707 29.4171824,12.3987834 29.3524565,12.2040961 C29.3524565,11.4902426 29.3524565,10.776389 29.4819082,9.99763975 L29.4819082,9.93274398 C29.4819082,9.80295243 29.546634,9.67316088 29.546634,9.54336933 C29.6113599,9.28378624 29.6113599,9.02420314 29.6760857,8.76462004 L29.6760857,8.3752454 C29.7408116,7.72628766 29.2230048,7.07732992 28.5757464,7.01243414 C28.1873914,6.94753837 27.7990363,7.14222569 27.4754071,7.46670456 C27.2165037,7.72628766 27.0870521,8.05076653 27.0870521,8.3752454 L27.0870521,8.69972427 C27.0870521,8.95930736 27.1517779,9.21889046 27.2165037,9.47847356 C27.2812296,9.60826511 27.2812296,9.73805665 27.2812296,9.8678482 L27.2812296,9.93274398 C27.4106813,10.6465975 27.4106813,11.360451 27.4106813,12.1392003 C27.3459554,12.3338876 27.2812296,12.5285749 27.0870521,12.6583665 L27.0870521,12.788158 L27.0223262,13.3073242 C26.310342,13.37222 25.5983577,13.5020116 24.8216476,13.6318031 C21.779533,14.2807608 18.9963218,15.9031552 16.8603691,18.1745073 L16.472014,17.9149242 L16.4072882,17.9149242 C16.3425623,17.9149242 16.2778365,17.97982 16.1483848,17.97982 C16.0189331,17.97982 15.8894814,17.9149242 15.7600298,17.8500284 C15.1774972,17.395758 14.5949646,16.8765918 14.1418837,16.3574256 C14.0771579,16.2276341 13.9477062,16.1627383 13.8829804,16.0978425 C13.6888028,15.9031552 13.5593511,15.7084679 13.3651736,15.5137806 C13.3004478,15.4488848 13.2357219,15.4488848 13.1709961,15.383989 C13.1062703,15.3190932 13.1062703,15.3190932 13.1062703,15.3190932 C12.8473669,15.1244059 12.5237377,14.9946144 12.2001085,14.9946144 C11.8117534,14.9946144 11.4881242,15.1244059 11.2939467,15.4488848 C10.9055916,16.0329467 11.0350433,16.811696 11.5528501,17.2659665 C11.6175759,17.2659665 11.6175759,17.3308622 11.6175759,17.3308622 C11.6175759,17.3308622 11.7470276,17.4606538 11.8117534,17.4606538 C12.0059309,17.5904453 12.2648343,17.7202369 12.5237377,17.8500284 C12.6531894,17.9149242 12.782641,17.97982 12.9120927,18.0447157 C13.5593511,18.4340904 14.2066096,18.823465 14.7244163,19.3426312 C14.853868,19.4724228 14.9833197,19.7320059 14.9185938,19.9266932 L14.9185938,19.8617974 L15.3069489,20.2511721 C15.242223,20.3809636 15.1774972,20.4458594 15.1127713,20.5756509 C13.1062703,23.7555439 12.2648343,27.5194988 12.8473669,31.2185579 L12.3295602,31.3483494 C12.3295602,31.4132452 12.2648343,31.4132452 12.2648343,31.4132452 C12.2001085,31.6079325 12.0059309,31.7377241 11.8117534,31.8675156 C11.0997692,32.062203 10.3877849,32.1919945 9.6110748,32.2568903 C9.48162312,32.2568903 9.35217144,32.2568903 9.22271975,32.321786 C8.96381639,32.321786 8.70491302,32.3866818 8.44600965,32.3866818 C8.38128381,32.3866818 8.31655797,32.4515776 8.18710629,32.4515776 C8.12238045,32.4515776 8.12238045,32.4515776 8.0576546,32.5164734 C7.34567035,32.6462649 6.89258945,33.2952227 7.02204114,34.0090762 C7.02204114,34.0090762 7.02204114,34.0090762 7.02204114,34.0090762 C7.15149282,34.5931381 7.7340254,34.9825128 8.31655797,34.917617 C8.44600965,34.917617 8.5107355,34.917617 8.64018718,34.8527212 C8.70491302,34.8527212 8.70491302,34.8527212 8.70491302,34.7878255 C8.70491302,34.7229297 8.89909055,34.7878255 8.96381639,34.7878255 C9.22271975,34.7229297 9.48162312,34.5931381 9.67580065,34.5282424 C9.80525233,34.4633466 9.93470401,34.3984508 10.0641557,34.3984508 L10.1288815,34.3984508 C10.8408658,34.1388677 11.4881242,33.9441804 12.2648343,33.8143889 L12.3295602,33.8143889 C12.5237377,33.8143889 12.7179152,33.8792846 12.8473669,34.0090762 C12.9120927,34.0090762 12.9120927,34.073972 12.9120927,34.073972 L13.4946253,34.0090762 C14.4655129,36.9942818 16.2778365,39.6550085 18.8021443,41.6018817 C19.3846769,42.0561522 19.9024836,42.4455268 20.549742,42.7700057 L20.2261128,43.2242761 C20.2261128,43.2891719 20.2908387,43.2891719 20.2908387,43.2891719 C20.4202904,43.4838592 20.4202904,43.7434423 20.3555645,43.9381296 C20.0966612,44.5870874 19.7083061,45.2360451 19.3199511,45.8201071 L19.3199511,45.8850028 C19.2552252,46.0147944 19.1904994,46.0796902 19.0610477,46.2094817 C18.931596,46.3392733 18.8021443,46.5988564 18.6079668,46.8584395 C18.543241,46.9233352 18.543241,46.988231 18.4785151,47.0531268 C18.4785151,47.0531268 18.4785151,47.1180226 18.4137893,47.1180226 C18.0901601,47.7669803 18.3490634,48.5457296 18.931596,48.8702085 C19.0610477,48.9351042 19.2552252,49 19.3846769,49 C19.9024836,49 20.3555645,48.6755211 20.6144679,48.2212507 C20.6144679,48.2212507 20.6144679,48.1563549 20.6791937,48.1563549 C20.6791937,48.0914592 20.7439196,48.0265634 20.8086454,47.9616676 C20.8733713,47.7020845 21.0028229,47.5073972 21.0675488,47.2478141 L21.1970005,46.8584395 C21.391178,46.1445859 21.7148072,45.4956282 22.0384364,44.8466705 C22.1678881,44.6519831 22.3620656,44.5221916 22.5562431,44.4572958 C22.620969,44.4572958 22.620969,44.4572958 22.620969,44.3924 L22.8798723,43.8732338 C24.6921959,44.5870874 26.5692453,44.9115662 28.5110206,44.9115662 C29.6760857,44.9115662 30.8411509,44.7817747 32.006216,44.4572958 C32.7182003,44.3275043 33.4301845,44.0679212 34.077443,43.8732338 L34.3363463,44.3275043 C34.4010722,44.3275043 34.4010722,44.3275043 34.4010722,44.3924 C34.5952497,44.4572958 34.7894272,44.5870874 34.9188789,44.7817747 C35.2425081,45.4307324 35.5661373,46.0796902 35.7603148,46.7935437 L35.7603148,46.8584395 L35.8897665,47.2478141 C35.9544924,47.5073972 36.0192182,47.7669803 36.1486699,47.9616676 C36.2133957,48.0265634 36.2133957,48.0914592 36.2781216,48.1563549 C36.2781216,48.1563549 36.2781216,48.2212507 36.3428474,48.2212507 C36.6017508,48.6755211 37.0548317,49 37.5726384,49 C37.7668159,49 37.8962676,48.9351042 38.0904451,48.8702085 C38.3493485,48.7404169 38.6082519,48.4808338 38.6729777,48.1563549 C38.7377036,47.8318761 38.7377036,47.5073972 38.6082519,47.1829183 C38.6082519,47.1180226 38.543526,47.1180226 38.543526,47.1180226 C38.543526,47.0531268 38.4788002,46.988231 38.4140743,46.9233352 C38.2846227,46.6637521 38.155171,46.4690648 37.9609935,46.2743775 C37.8962676,46.1445859 37.8315418,46.0796902 37.7020901,45.9498986 L37.7020901,45.8201071 C37.2490092,45.2360451 36.92538,44.5870874 36.6664766,43.9381296 C36.6017508,43.7434423 36.6017508,43.4838592 36.7312025,43.2891719 C36.7312025,43.2242761 36.7959283,43.2242761 36.7959283,43.2242761 L36.6017508,42.7051099 C39.9027687,40.6933409 42.4270765,37.5783438 43.5921417,33.8792846 L44.1099484,33.9441804 C44.1746743,33.9441804 44.1746743,33.8792846 44.1746743,33.8792846 C44.3041259,33.7494931 44.4983035,33.6845973 44.692481,33.6845973 L44.7572068,33.6845973 C45.4691911,33.8143889 46.1811753,34.0090762 46.8284338,34.2686593 L46.8931596,34.2686593 C47.0226113,34.333555 47.152063,34.3984508 47.2815147,34.3984508 C47.540418,34.5282424 47.7345955,34.6580339 47.9934989,34.7229297 C48.0582248,34.7229297 48.1229506,34.7878255 48.2524023,34.7878255 C48.3171281,34.7878255 48.3171281,34.7878255 48.381854,34.8527212 C48.5113056,34.917617 48.5760315,34.917617 48.7054832,34.917617 C49.2880157,34.917617 49.8058225,34.5282424 50,34.0090762 C49.9352742,33.2952227 49.4174674,32.7760565 48.8349349,32.6462649 Z M30.1291666,30.6344959 L28.3815689,31.478141 L26.6339712,30.6344959 L26.1808903,28.7525185 L27.4106813,27.1950199 L29.3524565,27.1950199 L30.5822475,28.7525185 L30.1291666,30.6344959 Z M40.6794788,26.4162706 C41.003108,27.7790819 41.0678339,29.1418931 40.9383822,30.5047044 L34.7894272,28.7525185 C34.2068946,28.6227269 33.8832654,28.038665 34.0127171,27.454603 C34.077443,27.2599157 34.1421688,27.1301241 34.2716205,27.0003326 L39.1260586,22.5874199 C39.8380429,23.7555439 40.3558496,25.0534593 40.6794788,26.4162706 Z M37.1842834,20.1862763 L31.8767643,23.9502312 C31.4236834,24.2098143 30.776425,24.1449185 30.4527958,23.6906481 C30.3233441,23.5608565 30.2586183,23.431065 30.2586183,23.2363777 L29.8702632,16.6819045 C32.7182003,17.0063834 35.2425081,18.2394031 37.1842834,20.1862763 Z M25.468906,16.8765918 L26.7634228,16.6170087 L26.4397936,23.1065861 C26.4397936,23.6906481 25.9219869,24.1449185 25.3394543,24.1449185 C25.1452768,24.1449185 25.0158251,24.0800227 24.8216476,24.015127 L19.4494027,20.1862763 C21.1322746,18.5638819 23.2035016,17.395758 25.468906,16.8765918 Z M17.5723533,22.5874199 L22.3620656,26.870541 C22.8151465,27.2599157 22.8798723,27.9088734 22.4915173,28.3631438 C22.3620656,28.5578312 22.2326139,28.6227269 21.9737106,28.6876227 L15.6953039,30.5047044 C15.5011264,27.7790819 16.1483848,24.9885636 17.5723533,22.5874199 Z M16.472014,33.5548058 L22.8798723,32.4515776 C23.3976791,32.4515776 23.9154858,32.7760565 23.9802117,33.2952227 C24.0449375,33.48991 24.0449375,33.7494931 23.9154858,33.9441804 L21.4559038,39.9145916 C19.1904994,38.4219888 17.3781758,36.1506367 16.472014,33.5548058 Z M31.1647801,41.6018817 C30.2586183,41.7965691 29.3524565,41.9263606 28.3815689,41.9263606 C27.0223262,41.9263606 25.5983577,41.6667775 24.3038409,41.2774029 L27.4754071,35.501679 C27.7990363,35.1123043 28.316843,34.9825128 28.7699239,35.2420959 C28.9641015,35.3718874 29.0935531,35.501679 29.2877307,35.6963663 L32.3945711,41.3422987 C32.006216,41.4071944 31.617861,41.4720902 31.1647801,41.6018817 Z M39.0613328,35.9559494 C38.0904451,37.513448 36.7312025,38.8762592 35.1777823,39.8496958 L32.6534744,33.7494931 C32.5240228,33.2303269 32.7829261,32.7111607 33.236007,32.5164734 C33.4301845,32.4515776 33.6243621,32.3866818 33.8185396,32.3866818 L40.2911238,33.48991 C39.9674945,34.3984508 39.5791395,35.2420959 39.0613328,35.9559494 Z" id="path10351" fill="#FFFFFF" fill-rule="nonzero"></path>
            </g>
        </g>
    </g>
</svg>