<?xml version="1.0" encoding="UTF-8"?>
<svg width="45px" height="45px" viewBox="0 0 45 45" version="1.1" xmlns="http://www.w3.org/2000/svg" xmlns:xlink="http://www.w3.org/1999/xlink">
    <!-- Generator: Sketch 50 (54983) - http://www.bohemiancoding.com/sketch -->
    <title>mail</title>
    <desc>Created with Sketch.</desc>
    <defs></defs>
    <g id="Page-1" stroke="none" stroke-width="1" fill="none" fill-rule="evenodd">
        <g id="mail" fill-rule="nonzero">
            <path d="M22.502,0 C10.073,0 0,10.073 0,22.499 C0,34.927 10.073,45 22.502,45 C34.927,45 45,34.927 45,22.499 C45,10.073 34.927,0 22.502,0 Z" id="Shape" fill="#000000"></path>
            <path d="M35,13 L11,13 C9.896,13 9,13.896 9,15 L9,31 C9,32.104 9.896,33 11,33 L35,33 C36.104,33 37,32.104 37,31 L37,15 C37,13.896 36.104,13 35,13 Z M34,15 L23,24 L12,15 L34,15 Z M11,17 L18.2,23 L11,29 L11,17 Z M12,31 L19.973,24.478 L23,27 L26.027,24.478 L34,31 L12,31 Z M35,29 L27.8,23 L35,17 L35,29 Z" id="Shape" fill="#FFFFFF"></path>
        </g>
    </g>
</svg>