<?xml version="1.0" encoding="UTF-8"?>
<svg width="95px" height="95px" viewBox="0 0 95 95" version="1.1" xmlns="http://www.w3.org/2000/svg" xmlns:xlink="http://www.w3.org/1999/xlink">
    <!-- Generator: Sketch 62 (91390) - https://sketch.com -->
    <title>messaging</title>
    <desc>Created with Sketch.</desc>
    <g id="Page-1" stroke="none" stroke-width="1" fill="none" fill-rule="evenodd">
        <g id="messaging" transform="translate(2.000000, 2.000000)">
            <circle id="Oval" stroke="#4CAFDE" stroke-width="2.8347" cx="45.374" cy="45.374" r="45.374"></circle>
            <g id="Group" transform="translate(26.000000, 24.000000)" fill="#4CAFDE" fill-rule="nonzero">
                <rect id="Rectangle" x="-1.77635684e-15" y="3.55271368e-15" width="10.008" height="39.254"></rect>
                <rect id="Rectangle" x="-1.77635684e-15" y="39.254" width="10.008" height="3.381"></rect>
                <path d="M13.869,3.55271368e-15 L23.875,3.55271368e-15 L23.875,39.254 L13.869,39.254 L13.869,3.55271368e-15 Z M21.768,37.162 L21.768,2.088 L15.975,2.088 L15.975,37.162 L21.768,37.162" id="Shape"></path>
                <rect id="Rectangle" x="13.869" y="39.254" width="10.006" height="3.381"></rect>
                <path d="M27.736,3.55271368e-15 L37.759,3.55271368e-15 L37.759,39.254 L27.736,39.254 L27.736,3.55271368e-15 Z M35.654,37.162 L35.654,2.088 L29.842,2.088 L29.842,37.162 L35.654,37.162" id="Shape"></path>
                <rect id="Rectangle" x="27.736" y="39.254" width="10.023" height="3.381"></rect>
            </g>
        </g>
    </g>
</svg>