<svg id="Layer_1" data-name="Layer 1" xmlns="http://www.w3.org/2000/svg" viewBox="0 0 128 128"><defs><style>.cls-1{fill:#fff;}</style></defs><title>Micronuat_DependencyInjection</title><path class="cls-1" d="M93.33,36.54H76.61a4.2,4.2,0,0,0-4.21,4.21v7.36H61.75v-3L55.6,48.67V40.75a4.2,4.2,0,0,0-4.21-4.21H34.67a4.2,4.2,0,0,0-4.21,4.21V57.47a4.2,4.2,0,0,0,4.21,4.21H51.39a4.2,4.2,0,0,0,4.21-4.21V49.55l6.15,3.55v-3H72.4v7.36a4.2,4.2,0,0,0,4.21,4.21h5.06c-1.45,1.68-8.44,1.88-14.7,2-11.19.31-23.88.65-23.88,8v1.38l-2.28,0,2.47,4.47H41.69a4.82,4.82,0,0,0-4.82,4.82v4.3a4.82,4.82,0,0,0,4.82,4.82H46a4.81,4.81,0,0,0,4.82-4.82v-4.3A4.82,4.82,0,0,0,46,77.52h-1.8l2.63-4.36-2.23,0c0-.44,0-.91,0-1.41C44.6,65.83,57,65.5,67,65.23c8.61-.23,15.52-.42,16.36-3.55h.79c-.51,2.91-4.35,3.62-10,4.34-5.33.67-10.84,1.37-10.84,6V73.1H61.05l2.55,4.42H61.91a4.82,4.82,0,0,0-4.82,4.82v4.3a4.82,4.82,0,0,0,4.82,4.82h4.3A4.82,4.82,0,0,0,71,86.64v-4.3a4.82,4.82,0,0,0-4.82-4.82h-1.7l2.55-4.42H64.81V72c0-3.06,3.77-3.77,9.52-4.49,5.09-.65,10.81-1.38,11.34-5.84h.8c-.08,2.53-.58,3.16-1.16,3.86-.78.95-1.66,2-1.66,6.47V73.1H81.4L84,77.52h-1.7a4.82,4.82,0,0,0-4.82,4.82v4.3a4.82,4.82,0,0,0,4.82,4.82h4.3a4.82,4.82,0,0,0,4.82-4.82v-4.3a4.82,4.82,0,0,0-4.82-4.82H84.86l2.55-4.42H85.16V72c0-3.9.67-4.72,1.31-5.51s1.41-1.73,1.5-4.82h5.36a4.2,4.2,0,0,0,4.21-4.21V40.75A4.2,4.2,0,0,0,93.33,36.54Z"/><path class="cls-1" d="M64,4A60,60,0,1,1,4,64,60.07,60.07,0,0,1,64,4m0-4a64,64,0,1,0,64,64A64,64,0,0,0,64,0Z"/></svg>