<?xml version="1.0" encoding="UTF-8"?>
<svg width="366px" height="110px" viewBox="0 0 366 110" version="1.1" xmlns="http://www.w3.org/2000/svg" xmlns:xlink="http://www.w3.org/1999/xlink">
    <!-- Generator: Sketch 50.2 (55047) - http://www.bohemiancoding.com/sketch -->
    <title>micronautlogo</title>
    <desc>Created with Sketch.</desc>
    <defs></defs>
    <g id="Page-1" stroke="none" stroke-width="1" fill="none" fill-rule="evenodd">
        <g id="micronautlogo" fill="#000000" fill-rule="nonzero">
            <polygon id="Path_299" points="153.467 63.706 153.467 49.293 153.367 49.293 148.248 63.705 145.626 63.705 140.583 49.293 140.483 49.293 140.483 63.705 137.795 63.705 137.795 46.283 142.076 46.283 146.976 60.105 147.109 60.105 151.909 46.283 156.389 46.283 156.389 63.706"></polygon>
            <polygon id="Path_300" points="171.048 63.706 171.048 46.283 173.96 46.283 173.96 63.706"></polygon>
            <path d="M199.729,63.499 C198.681204,63.9465071 197.548916,64.1617748 196.41,64.13 C195.230748,64.1478958 194.061718,63.9090397 192.984,63.43 C191.996039,62.9919609 191.11962,62.3366971 190.42,61.513 C189.712673,60.6603592 189.174702,59.6804712 188.835,58.626 C188.460162,57.4542847 188.275158,56.2301546 188.287,55 C188.275672,53.7634054 188.466175,52.5332463 188.851,51.358 C189.211615,50.2933047 189.774984,49.3085118 190.51,48.458 C191.216153,47.6455573 192.091203,46.997119 193.074,46.558 C194.13548,46.0833437 195.288416,45.8481135 196.451,45.869 C197.539431,45.8530742 198.622307,46.0270111 199.651,46.383 C200.574043,46.6915031 201.401072,47.2345852 202.051,47.959 L200.242,49.452 C199.782384,48.9440502 199.215759,48.5444416 198.583,48.282 C197.944089,48.0279943 197.262549,47.8983387 196.575,47.9 C195.770574,47.8790467 194.975576,48.0771048 194.275,48.473 C193.628517,48.8528954 193.082312,49.3819566 192.682,50.016 C192.238054,50.7054064 191.915395,51.4657192 191.728,52.264 C191.507817,53.1625863 191.399,54.0848444 191.404,55.01 C191.398859,55.9298876 191.507687,56.8468696 191.728,57.74 C191.918453,58.5322773 192.240963,59.2868271 192.682,59.972 C193.103074,60.6100067 193.672268,61.1366573 194.341,61.507 C195.048226,61.8989446 195.847747,62.0937308 196.656,62.071 C197.39124,62.0886115 198.119038,61.9204201 198.772,61.582 C199.343184,61.2902269 199.846456,60.8813397 200.249,60.382 L201.991,61.834 C201.369067,62.5490807 200.596601,63.1176736 199.729,63.499 Z" id="Path_301"></path>
            <path d="M224.727,63.706 L220.844,55.932 L218.189,55.932 L218.189,63.706 L215.335,63.706 L215.335,46.283 L221.275,46.283 C222.078548,46.2768809 222.880139,46.3631131 223.664,46.54 C224.361676,46.6954017 225.025185,46.9766645 225.622,47.37 C226.182449,47.7444779 226.641443,48.2519136 226.958,48.847 C227.29699,49.5259839 227.462259,50.2784537 227.439,51.037 C227.454674,51.6695978 227.332871,52.2980616 227.082,52.879 C226.861926,53.3827304 226.546461,53.8391186 226.153,54.223 C225.783152,54.5803702 225.357157,54.8746145 224.892,55.094 C224.469388,55.2986711 224.019397,55.4411458 223.556,55.517 L227.862,63.706 L224.727,63.706 Z M224.527,51.12 C224.544895,50.6172897 224.436601,50.1181027 224.212,49.668 C224.009101,49.3039776 223.725095,48.9915713 223.382,48.755 C223.01895,48.5180706 222.612953,48.3546525 222.187,48.274 C221.739407,48.1823875 221.283867,48.1351587 220.827,48.133 L218.205,48.133 L218.205,54.173 L220.893,54.173 C221.844441,54.2083171 222.77907,53.9152524 223.54,53.343 C224.196367,52.7954005 224.561368,51.9741484 224.528,51.12 L224.527,51.12 Z" id="Path_302"></path>
            <path d="M256.264,55.003 C256.277423,56.2679787 256.095618,57.5274572 255.725,58.737 C255.404715,59.7929308 254.877095,60.7743986 254.173,61.624 C253.493172,62.4244021 252.642683,63.0623541 251.684,63.491 C249.579614,64.3880715 247.200386,64.3880715 245.096,63.491 C244.136359,63.0639841 243.285532,62.4257785 242.607,61.624 C241.903083,60.7744344 241.375786,59.7929345 241.056,58.737 C240.688091,57.527033 240.508986,56.2675635 240.525,55.003 C240.509047,53.7426132 240.682309,52.4869669 241.039,51.278 C241.35004,50.2275565 241.865957,49.249081 242.557,48.399 C243.23397,47.6017573 244.085717,46.9714165 245.046,46.557 C246.095306,46.1140356 247.225143,45.8937209 248.364,45.91 C249.503889,45.8856318 250.635726,46.10627 251.683,46.557 C252.638617,46.9794818 253.488681,47.6085766 254.172,48.399 C254.876944,49.2448727 255.404418,50.223983 255.723,51.278 C256.092438,52.4847212 256.274227,53.7410525 256.262,55.003 L256.264,55.003 Z M253.186,55.003 C253.188369,54.0680762 253.085386,53.1358624 252.879,52.224 C252.702169,51.4282114 252.398275,50.666112 251.979,49.967 C251.604918,49.3527428 251.093961,48.8332301 250.486,48.449 C249.865518,48.0756459 249.151986,47.8856482 248.428,47.901 C247.690781,47.8858593 246.963818,48.0755621 246.328,48.449 C245.714939,48.8325364 245.198292,49.3519212 244.818,49.967 C244.399388,50.665131 244.099326,51.4277894 243.93,52.224 C243.542803,54.0567732 243.542803,55.9502268 243.93,57.783 C244.097945,58.5821399 244.398067,59.3476528 244.818,60.048 C245.198292,60.6630788 245.714939,61.1824636 246.328,61.566 C246.963778,61.9395356 247.690769,62.1292457 248.428,62.114 C249.151661,62.1292716 249.86485,61.9392729 250.485,61.566 C251.093007,61.1818265 251.603975,60.6623019 251.978,60.048 C252.398481,59.3466222 252.702426,58.5816918 252.878,57.783 C253.084953,56.8709124 253.187612,55.9382649 253.184,55.003 L253.186,55.003 Z" id="Path_303"></path>
            <polygon id="Path_304" points="281.384 63.706 271.735 46.93 271.677 46.93 271.677 63.706 270.964 63.706 270.964 46.283 272.125 46.283 281.741 63.034 281.807 63.034 281.807 46.293 282.512 46.293 282.512 63.716"></polygon>
            <path d="M306.063,58.736 L297.999,58.736 L296.257,63.714 L295.563,63.714 L301.487,46.291 L302.715,46.291 L308.44,63.714 L307.727,63.714 L306.063,58.736 Z M298.163,58.247 L305.895,58.247 L302.137,46.631 L302.013,46.631 L298.163,58.247 Z" id="Path_305"></path>
            <path d="M332.425,59.981 C332.255834,60.7575719 331.924985,61.4898011 331.454,62.13 C330.979784,62.7526849 330.354339,63.2438848 329.637,63.557 C328.748239,63.9317067 327.789052,64.1101045 326.825,64.08 C325.849767,64.1122782 324.879041,63.933891 323.979,63.557 C323.260317,63.2461377 322.634345,62.7545244 322.162,62.13 C321.696559,61.4886423 321.371496,60.7563996 321.208,59.981 C321.020559,59.1028231 320.928691,58.2069423 320.934,57.309 L320.934,46.291 L321.648,46.291 L321.648,57.077 C321.647157,57.8632613 321.708347,58.6483638 321.831,59.425 C321.934312,60.1649333 322.179462,60.877973 322.553,61.525 C322.930798,62.161891 323.472204,62.6860333 324.121,63.043 C324.958133,63.4589648 325.887107,63.6557695 326.821,63.615 C327.744817,63.6573019 328.66415,63.4631785 329.492,63.051 C330.141234,62.7033048 330.687791,62.1912307 331.077,61.566 C331.461281,60.9249986 331.715141,60.2143944 331.824,59.475 C331.941113,58.6803864 331.999272,57.8781965 331.998,57.075 L331.998,46.291 L332.712,46.291 L332.712,57.334 C332.71985,58.2245046 332.623529,59.1128719 332.425,59.981 Z" id="Path_306"></path>
            <polygon id="Path_307" points="350.467 46.78 350.467 63.705 349.753 63.705 349.753 46.78 345.223 46.78 345.223 46.291 354.996 46.291 354.996 46.78"></polygon>
            <path d="M74.873,56.455 C75.7222187,56.6834137 76.6254063,56.3777176 77.1613273,55.6804845 C77.6972482,54.9832514 77.760337,54.0318221 77.3211698,53.2699314 C76.8820027,52.5080407 76.0270865,52.0857656 75.1551436,52.2000499 C74.2832008,52.3143343 73.5659862,52.9426664 73.338,53.792 C73.0268356,54.9512032 73.7139536,56.1432521 74.873,56.455 Z" id="Path_308"></path>
            <path d="M72.965,46.308 C73.8143336,46.0800138 74.4426657,45.3627992 74.5569501,44.4908564 C74.6712344,43.6189135 74.2489593,42.7639973 73.4870686,42.3248302 C72.7251779,41.885663 71.7737486,41.9487518 71.0765155,42.4846727 C70.3792824,43.0205937 70.0735863,43.9237813 70.302,44.773 C70.6137479,45.9320464 71.8057968,46.6191644 72.965,46.308 Z" id="Path_309"></path>
            <path d="M63.142,35.422 C62.409869,36.1562759 62.2982078,37.3054037 62.8752774,38.1668952 C63.4523469,39.0283866 64.5575075,39.362427 65.5151491,38.9648098 C66.4727906,38.5671925 67.016333,37.5486029 66.8134961,36.5317283 C66.6106593,35.5148537 65.7179073,34.7827629 64.681,34.783 C64.1034896,34.783132 63.5497638,35.0130416 63.142,35.422 Z" id="Path_310"></path>
            <path d="M54.962,32.436 C54.1127813,32.2075863 53.2095937,32.5132824 52.6736727,33.2105155 C52.1377518,33.9077486 52.074663,34.8591779 52.5138302,35.6210686 C52.9529973,36.3829593 53.8079135,36.8052344 54.6798564,36.6909501 C55.5517992,36.5766657 56.2690138,35.9483336 56.497,35.099 C56.8081644,33.9397968 56.1210464,32.7477479 54.962,32.436 Z" id="Path_311"></path>
            <path d="M44.782,39.704 C45.6313336,39.4760138 46.2596657,38.7587992 46.3739501,37.8868564 C46.4882344,37.0149135 46.0659593,36.1599973 45.3040686,35.7208302 C44.5421779,35.281663 43.5907486,35.3447518 42.8935155,35.8806727 C42.1962824,36.4165937 41.8905863,37.3197813 42.119,38.169 C42.4307479,39.3280464 43.6227968,40.0151644 44.782,39.704 Z" id="Path_312"></path>
            <path d="M35.432,43.794 C34.7056373,44.527583 34.597945,45.6718433 35.1746826,46.5280678 C35.7514202,47.3842924 36.8522824,47.7144919 37.8050561,47.3170386 C38.7578297,46.9195852 39.2976895,45.904952 39.094984,44.8926985 C38.8922785,43.8804449 38.0033501,43.1519289 36.971,43.152 C36.3930578,43.1529265 35.8392709,43.3839409 35.432,43.794 Z" id="Path_313"></path>
            <path d="M35.116,53.543 C34.2667813,53.3145863 33.3635937,53.6202824 32.8276727,54.3175155 C32.2917518,55.0147486 32.228663,55.9661779 32.6678302,56.7280686 C33.1069973,57.4899593 33.9619135,57.9122344 34.8338564,57.7979501 C35.7057992,57.6836657 36.4230138,57.0553336 36.651,56.206 C36.9621644,55.0467968 36.2750464,53.8547479 35.116,53.543 Z" id="Path_314"></path>
            <path d="M37.049,63.689 C36.0532971,63.9606191 35.3877646,64.8973248 35.4589259,65.9269544 C35.5300873,66.9565841 36.3181545,67.7928264 37.3417569,67.9248841 C38.3653593,68.0569419 39.3398617,67.4480935 39.6700141,66.4702384 C40.0001665,65.4923833 39.5941628,64.4174358 38.7,63.902 C38.199723,63.6147654 37.6057966,63.5381413 37.049,63.689 Z" id="Path_315"></path>
            <path d="M46.873,74.575 C47.5953455,73.8438856 47.7015199,72.704663 47.1267195,71.852656 C46.5519192,71.000649 45.4558162,70.6725341 44.5074164,71.068576 C43.5590166,71.4646178 43.0217731,72.4748013 43.2235921,73.4825614 C43.4254111,74.4903214 44.31023,75.2157156 45.338,75.216 C45.914411,75.2142771 46.4665435,74.9837123 46.873,74.575 Z" id="Path_316"></path>
            <path d="M55.094,77.562 C55.9448211,77.789314 56.8487298,77.4808768 57.3831314,76.7808888 C57.9175329,76.0809008 57.976844,75.1276607 57.5333355,74.3668267 C57.0898271,73.6059927 56.2311243,73.1878849 55.3586875,73.3079769 C54.4862506,73.4280689 53.7724495,74.0626337 53.551,74.915 C53.2505523,76.0714329 53.9396635,77.2535958 55.094,77.562 Z" id="Path_317"></path>
            <path d="M65.232,70.294 C64.3826664,70.5219862 63.7543343,71.2392008 63.6400499,72.1111436 C63.5257656,72.9830865 63.9480407,73.8380027 64.7099314,74.2771698 C65.4718221,74.716337 66.4232514,74.6532482 67.1204845,74.1173273 C67.8177176,73.5814063 68.1234137,72.6782187 67.895,71.829 C67.5832521,70.6699536 66.3912032,69.9828356 65.232,70.294 Z" id="Path_318"></path>
            <path d="M74.594,66.212 C75.441577,65.3624901 75.4405325,63.9868899 74.5916664,63.1386681 C73.7428003,62.2904463 72.3671997,62.2904463 71.5183336,63.1386681 C70.6694675,63.9868899 70.668423,65.3624901 71.516,66.212 C71.9238455,66.6207756 72.4775613,66.8505017 73.055,66.8505017 C73.6324387,66.8505017 74.1861545,66.6207756 74.594,66.212 Z" id="Path_319"></path>
            <path d="M86.43,52.611 C85.4350221,52.344054 84.3772117,52.7027536 83.7498244,53.5198377 C83.1224371,54.3369219 83.0490262,55.4514797 83.5638231,56.3437943 C84.0786201,57.236109 85.0802443,57.7304543 86.1016397,57.5963176 C87.1230351,57.4621809 87.9630553,56.7259783 88.23,55.731 C88.5945069,54.3723797 87.7886198,52.9755088 86.43,52.611 Z" id="Path_320"></path>
            <path d="M82.34,42.143 C83.3351871,41.8764038 84.0717488,41.0365148 84.2061645,40.0150436 C84.3405802,38.9935724 83.8463731,37.9917261 82.9540334,37.4767497 C82.0616936,36.9617733 80.9469923,37.0351055 80.1298081,37.6625455 C79.3126239,38.2899855 78.9539239,39.3479416 79.221,40.343 C79.5855229,41.7011208 80.9817035,42.5068679 82.34,42.143 Z" id="Path_321"></path>
            <path d="M68.651,30.195 C69.3792141,30.9240238 70.4749462,31.1424531 71.4270423,30.7483919 C72.3791385,30.3543306 73.0000014,29.4254229 73.0000014,28.395 C73.0000014,27.3645771 72.3791385,26.4356694 71.4270423,26.0416081 C70.4749462,25.6475469 69.3792141,25.8659762 68.651,26.595 C67.6576685,27.589436 67.6576685,29.200564 68.651,30.195 Z" id="Path_322"></path>
            <path d="M54.422,26.694 C55.4169779,26.960946 56.4747883,26.6022464 57.1021756,25.7851623 C57.7295629,24.9680781 57.8029738,23.8535203 57.2881769,22.9612057 C56.7733799,22.068891 55.7717557,21.5745457 54.7503603,21.7086824 C53.7289649,21.8428191 52.8889447,22.5790217 52.622,23.574 C52.2574931,24.9326203 53.0633802,26.3294912 54.422,26.694 Z" id="Path_323"></path>
            <path d="M39.032,25.856 C38.0370217,26.1229447 37.3008191,26.9629649 37.1666824,27.9843603 C37.0325457,29.0057557 37.526891,30.0073799 38.4192057,30.5221769 C39.3115203,31.0369738 40.4260781,30.9635629 41.2431623,30.3361756 C42.0602464,29.7087883 42.418946,28.6509779 42.152,27.656 C41.7874912,26.2973802 40.3906203,25.4914931 39.032,25.856 Z" id="Path_324"></path>
            <path d="M26.604,41.354 C27.3322141,42.0830238 28.4279462,42.3014531 29.3800423,41.9073919 C30.3321385,41.5133306 30.9530014,40.5844229 30.9530014,39.554 C30.9530014,38.5235771 30.3321385,37.5946694 29.3800423,37.2006081 C28.4279462,36.8065469 27.3322141,37.0249762 26.604,37.754 C25.6106685,38.748436 25.6106685,40.359564 26.604,41.354 Z" id="Path_325"></path>
            <path d="M23.584,57.384 C24.5789779,57.650946 25.6367883,57.2922464 26.2641756,56.4751623 C26.8915629,55.6580781 26.9649738,54.5435203 26.4501769,53.6512057 C25.9353799,52.758891 24.9337557,52.2645457 23.9123603,52.3986824 C22.8909649,52.5328191 22.0509447,53.2690217 21.784,54.264 C21.4194931,55.6226203 22.2253802,57.0194912 23.584,57.384 Z" id="Path_326"></path>
            <path d="M27.674,67.854 C26.6788129,68.1205962 25.9422512,68.9604852 25.8078355,69.9819564 C25.6734198,71.0034276 26.1676269,72.0052739 27.0599666,72.5202503 C27.9523064,73.0352267 29.0670077,72.9618945 29.8841919,72.3344545 C30.7013761,71.7070145 31.0600761,70.6490584 30.793,69.654 C30.4284771,68.2958792 29.0322965,67.4901321 27.674,67.854 Z" id="Path_327"></path>
            <path d="M41.364,79.802 C40.5029259,78.9447437 39.1562186,78.8150809 38.147403,79.4923019 C37.1385875,80.1695228 36.7486026,81.4650323 37.215928,82.5866133 C37.6832534,83.7081944 38.8777466,84.3435047 40.0689629,84.1040456 C41.2601793,83.8645866 42.1163843,82.8170438 42.114,81.602 C42.112674,80.9262659 41.8428775,80.2787543 41.364,79.802 Z" id="Path_328"></path>
            <path d="M55.591,83.303 C54.5960221,83.036054 53.5382117,83.3947536 52.9108244,84.2118377 C52.2834371,85.0289219 52.2100262,86.1434797 52.7248231,87.0357943 C53.2396201,87.928109 54.2412443,88.4224543 55.2626397,88.2883176 C56.2840351,88.1541809 57.1240553,87.4179783 57.391,86.423 C57.7555069,85.0643797 56.9496198,83.6675088 55.591,83.303 Z" id="Path_329"></path>
            <path d="M70.991,84.141 C72.3472774,83.7727069 73.1489355,82.3754572 72.7823838,81.0187081 C72.4158322,79.661959 71.0196127,78.8585079 69.6623942,79.2233176 C68.3051756,79.5881274 67.4999329,80.9833143 67.863,82.341 C68.0379485,82.9952179 68.4662316,83.5528298 69.0531922,83.8905949 C69.6401529,84.2283599 70.3374607,84.3184666 70.991,84.141 Z" id="Path_330"></path>
            <path d="M83.419,68.643 C82.6907859,67.9139762 81.5950538,67.6955469 80.6429577,68.0896081 C79.6908615,68.4836694 79.0699986,69.4125771 79.0699986,70.443 C79.0699986,71.4734229 79.6908615,72.4023306 80.6429577,72.7963919 C81.5950538,73.1904531 82.6907859,72.9720238 83.419,72.243 C84.4123315,71.248564 84.4123315,69.637436 83.419,68.643 Z" id="Path_331"></path>
            <path d="M95.448,62.916 C96.7469433,63.278142 98.1358786,62.8183769 98.9621961,61.7527316 C99.7885135,60.6870862 99.8879381,59.227415 99.2137537,58.059564 C98.5395693,56.891713 97.2258066,56.2478555 95.8897543,56.4305165 C94.5537021,56.6131775 93.4609729,57.5860433 93.125,58.892 C92.6747762,60.6420604 93.7073379,62.430708 95.448,62.916 Z" id="Path_332"></path>
            <path d="M96.313,37.58 C95.9760509,36.273769 94.8820126,35.3014245 93.5452609,35.1201264 C92.2085092,34.9388284 90.895006,35.5846482 90.2223114,36.7539454 C89.5496168,37.9232426 89.6515709,39.3833725 90.4802388,40.4478365 C91.3089067,41.5123005 92.6994155,41.9693115 93.998,41.604 C95.7354316,41.1152342 96.7638186,39.3276622 96.313,37.58 Z" id="Path_333"></path>
            <path d="M82.092,19.331 C81.1481508,18.3678374 79.7153591,18.0715069 78.4668826,18.5812517 C77.2184061,19.0909966 76.4024659,20.3054699 76.4024659,21.654 C76.4024659,23.0025301 77.2184061,24.2170034 78.4668826,24.7267483 C79.7153591,25.2364931 81.1481508,24.9401626 82.092,23.977 C83.3566212,22.6865017 83.3566212,20.6214983 82.092,19.331 Z" id="Path_334"></path>
            <path d="M58.902,16.879 C60.1990064,17.2573794 61.5959299,16.8117901 62.4342789,15.7522772 C63.2726278,14.6927643 63.3850632,13.2308125 62.7185844,12.0555667 C62.0521056,10.880321 60.7397454,10.2263669 59.4001335,10.40197 C58.0605216,10.5775732 56.9610518,11.547682 56.62,12.855 C56.1666375,14.5928267 57.1778805,16.3760177 58.902,16.879 Z" id="Path_335"></path>
            <path d="M39.324,20.032 C40.630231,19.6950509 41.6025755,18.6010126 41.7838736,17.2642609 C41.9651716,15.9275092 41.3193518,14.614006 40.1500546,13.9413114 C38.9807574,13.2686168 37.5206275,13.3705709 36.4561635,14.1992388 C35.3916995,15.0279067 34.9346885,16.4184155 35.3,17.717 C35.5252919,18.5584415 36.0763265,19.2755609 36.8313739,19.7099383 C37.5864212,20.1443157 38.4833434,20.2602032 39.324,20.032 Z" id="Path_336"></path>
            <path d="M23.94,27.922 C22.9970639,26.9565183 21.56341,26.6581185 20.3135602,27.1671952 C19.0637104,27.676272 18.2465527,28.8914506 18.2465527,30.241 C18.2465527,31.5905494 19.0637104,32.805728 20.3135602,33.3148048 C21.56341,33.8238815 22.9970639,33.5254817 23.94,32.56 C24.5576378,31.9463466 24.9049601,31.1116589 24.9049601,30.241 C24.9049601,29.3703411 24.5576378,28.5356534 23.94,27.922 Z" id="Path_337"></path>
            <path d="M14.566,47.079 C13.2670567,46.716858 11.8781214,47.1766231 11.0518039,48.2422684 C10.2254865,49.3079138 10.1260619,50.767585 10.8002463,51.935436 C11.4744307,53.103287 12.7881934,53.7471445 14.1242457,53.5644835 C15.4602979,53.3818225 16.5530271,52.4089567 16.889,51.103 C17.3392238,49.3529396 16.3066621,47.564292 14.566,47.079 Z" id="Path_338"></path>
            <path d="M16.025,68.36 C14.7190433,68.6959729 13.7461775,69.7887021 13.5635165,71.1247543 C13.3808555,72.4608066 14.024713,73.7745693 15.192564,74.4487537 C16.360415,75.1229381 17.8200862,75.0235135 18.8857316,74.1971961 C19.9513769,73.3708786 20.411142,71.9819433 20.049,70.683 C19.563708,68.9423379 17.7750604,67.9097762 16.025,68.36 Z" id="Path_339"></path>
            <path d="M32.561,86.066 C31.6171508,85.1028374 30.1843591,84.8065069 28.9358826,85.3162517 C27.6874061,85.8259966 26.8714659,87.0404699 26.8714659,88.389 C26.8714659,89.7375301 27.6874061,90.9520034 28.9358826,91.4617483 C30.1843591,91.9714931 31.6171508,91.6751626 32.561,90.712 C33.8256212,89.4215017 33.8256212,87.3564983 32.561,86.066 Z" id="Path_340"></path>
            <path d="M51.116,93.118 C49.8170567,92.755858 48.4281214,93.2156231 47.6018039,94.2812684 C46.7754865,95.3469138 46.6760619,96.806585 47.3502463,97.974436 C48.0244307,99.142287 49.3381934,99.7861445 50.6742457,99.6034835 C52.0102979,99.4208225 53.1030271,98.4479567 53.439,97.142 C53.8892238,95.3919396 52.8566621,93.603292 51.116,93.118 Z" id="Path_341"></path>
            <path d="M70.725,89.965 C69.418769,90.3019491 68.4464245,91.3959874 68.2651264,92.7327391 C68.0838284,94.0694908 68.7296482,95.382994 69.8989454,96.0556886 C71.0682426,96.7283832 72.5283725,96.6264291 73.5928365,95.7977612 C74.6573005,94.9690933 75.1143115,93.5785845 74.749,92.28 C74.2602342,90.5425684 72.4726622,89.5141814 70.725,89.965 Z" id="Path_342"></path>
            <path d="M90.72,82.083 C91.6831626,81.1391508 91.9794931,79.7063591 91.4697483,78.4578826 C90.9600034,77.2094061 89.7455301,76.3934659 88.397,76.3934659 C87.0484699,76.3934659 85.8339966,77.2094061 85.3242517,78.4578826 C84.8145069,79.7063591 85.1108374,81.1391508 86.074,82.083 C87.3644983,83.3476212 89.4295017,83.3476212 90.72,82.083 Z" id="Path_343"></path>
            <path d="M107.172,65.017 C105.408733,64.5488297 103.560251,65.3910911 102.75657,67.028892 C101.952889,68.666693 102.417731,70.6441185 103.866926,71.7523271 C105.316122,72.8605357 107.34626,72.791035 108.716274,71.5863122 C110.086287,70.3815895 110.414806,68.3770037 109.501,66.798 C108.992043,65.9185518 108.154076,65.277754 107.172,65.017 Z" id="Path_344"></path>
            <path d="M107.173,44.988 C108.935056,44.5154173 110.118123,42.8642166 109.998989,41.0437822 C109.879856,39.2233478 108.491683,37.7404152 106.683066,37.501506 C104.874448,37.2625968 103.148833,38.3342137 102.561093,40.0612737 C101.973353,41.7883337 102.687093,43.690093 104.266,44.604 C105.145805,45.112234 106.191405,45.2503525 107.173,44.988 Z" id="Path_345"></path>
            <path d="M89.807,20.248 C91.0991487,21.5356853 93.1208116,21.7316881 94.6362557,20.7162024 C96.1516997,19.7007168 96.7391386,17.7563779 96.0395028,16.071655 C95.339867,14.386932 93.5478828,13.4307257 91.758893,13.7875132 C89.9699033,14.1443008 88.6818289,15.7147792 88.682,17.539 C88.6820954,18.5556221 89.086897,19.5303844 89.807,20.248 Z" id="Path_346"></path>
            <path d="M67.73,7.52 C69.4926127,7.99171347 71.343003,7.15276095 72.1497119,5.51613706 C72.9564209,3.87951316 72.4948123,1.90095232 71.0471462,0.790285917 C69.59948,-0.320380489 67.5688736,-0.253876207 66.1969825,0.949133365 C64.8250914,2.15214294 64.4939327,4.15666766 65.406,5.737 C65.9133943,6.61615841 66.7494368,7.25757997 67.73,7.52 Z" id="Path_347"></path>
            <path d="M42.293,7.52 C44.0535266,7.04255562 45.2319408,5.38837026 45.1080066,3.56846719 C44.9840723,1.74856411 43.5922795,0.269408234 41.7832794,0.0350463633 C39.9742793,-0.199315507 38.2515026,0.876337722 37.667895,2.60457644 C37.0842874,4.33281516 37.8022623,6.23268393 39.383,7.143 C40.264309,7.65052869 41.3114533,7.78618965 42.293,7.52 Z" id="Path_348"></path>
            <path d="M14.839,20.247 C15.934932,21.3440162 17.5838709,21.6726461 19.0166301,21.0795927 C20.4493893,20.4865393 21.3836799,19.0886487 21.3836799,17.538 C21.3836799,15.9873513 20.4493893,14.5894607 19.0166301,13.9964073 C17.5838709,13.4033539 15.934932,13.7319838 14.839,14.829 C13.3439066,16.3255725 13.3439066,18.7504275 14.839,20.247 Z" id="Path_349"></path>
            <path d="M4.825,37.579 C3.06173276,37.1108297 1.21325099,37.9530911 0.409570229,39.590892 C-0.394110536,41.228693 0.0707305166,43.2061185 1.51992634,44.3143271 C2.96912216,45.4225357 4.99925975,45.353035 6.36927358,44.1483122 C7.73928741,42.9435895 8.06780639,40.9390037 7.154,39.36 C6.64436927,38.4811443 5.80668101,37.8405592 4.825,37.579 Z" id="Path_350"></path>
            <path d="M2.844,65.017 C1.08729209,65.4930549 -0.0889232749,67.1432135 0.0340990113,68.95912 C0.157121297,70.7750265 1.54515433,72.2514648 3.35001846,72.4862338 C5.15488258,72.7210027 6.87443376,71.6487857 7.45791291,69.9247778 C8.04139205,68.20077 7.3264653,66.3046198 5.75,65.395 C4.86992412,64.8882159 3.82443718,64.7522234 2.844,65.017 Z" id="Path_351"></path>
            <path d="M20.257,89.758 C18.7631522,88.2645018 16.3414589,88.2646908 14.8478442,89.7584221 C13.3542295,91.2521534 13.3542295,93.6738466 14.8478442,95.1675779 C16.3414589,96.6613092 18.7631522,96.6614982 20.257,95.168 C20.9745203,94.4506476 21.3776332,93.4776082 21.3776332,92.463 C21.3776332,91.4483918 20.9745203,90.4753524 20.257,89.758 Z" id="Path_352"></path>
            <path d="M42.284,102.477 C40.5207328,102.00883 38.672251,102.851091 37.8685702,104.488892 C37.0648895,106.126693 37.5297305,108.104119 38.9789263,109.212327 C40.4281222,110.320536 42.4582597,110.251035 43.8282736,109.046312 C45.1982874,107.841589 45.5268064,105.837004 44.613,104.258 C44.1040428,103.378552 43.2660763,102.737754 42.284,102.477 Z" id="Path_353"></path>
            <path d="M67.73,102.477 C65.967066,102.949187 64.783304,104.601097 64.9028227,106.422254 C65.0223414,108.24341 66.4118431,109.726442 68.2213677,109.964176 C70.0308923,110.20191 71.7563083,109.128114 72.3421763,107.399631 C72.9280444,105.671147 72.2111422,103.76953 70.63,102.858 C69.7519819,102.351822 68.7089681,102.214792 67.73,102.477 Z" id="Path_354"></path>
            <path d="M95.175,89.75 C93.8835412,88.4680834 91.8667439,88.2760522 90.3565671,89.2912085 C88.8463904,90.3063649 88.2627948,92.246407 88.9622691,93.9262617 C89.6617435,95.6061164 91.4497732,96.5586379 93.2341416,96.2019792 C95.0185101,95.8453205 96.3030077,94.2786637 96.303,92.459 C96.3021102,91.441946 95.8962036,90.4671227 95.175,89.75 Z" id="Path_355"></path>
            <path d="M66.428,57.289 C65.528,58.189 64.702,59.065 63.806,59.889 C63.1298662,60.5041609 62.4147113,61.0750155 61.665,61.598 C60.6069914,62.3182915 59.2588335,62.4616646 58.073,61.98 C57.1552925,61.68156 56.4927965,60.8795502 56.373,59.922 C55.079,60.967 53.884,62.187 52.092,62.262 C51.943,62.951 51.792,63.662 51.644,64.378 C51.5595702,64.6860773 51.4957622,64.9994381 51.453,65.316 C51.453,65.772 51.204,65.955 50.753,66.046 C49.653,66.27 47.268,66.876 47.103,66.876 C48.422,60.645 49.733,54.431 51.052,48.283 L55.052,48.283 C54.845,49.283 52.986,58.14 52.969,58.239 C52.8537077,58.6715283 52.9962064,59.1318768 53.3356964,59.4236294 C53.6751864,59.7153819 54.1517296,59.7870286 54.562,59.608 C55.1481922,59.3786944 55.7050892,59.0806084 56.221,58.72 C56.304,58.67 56.329,58.513 56.354,58.396 C57.059,55.077 57.748,51.796 58.445,48.506 C58.4651244,48.4206735 58.4929036,48.3373359 58.528,48.257 L62.51,48.257 C62.294,49.277 60.942,55.79 60.469,58.064 C60.4521915,58.24628 60.4521915,58.42972 60.469,58.612 C60.4332478,59.0964125 60.7766967,59.5265953 61.257,59.599 C61.7009927,59.7375726 62.1827555,59.6835194 62.585,59.45 C63.0177469,59.200926 63.4336444,58.923661 63.83,58.62 C64.2598064,58.3031606 64.6646619,57.9538013 65.041,57.575 C65.4216354,57.2439342 65.9474492,57.1355111 66.428,57.289 Z" id="Path_356"></path>
            <path d="M360.291789,44.2419355 L358.774194,44.2419355 L358.774194,49 L358.517595,49 L358.517595,44.2419355 L357,44.2419355 L357,44 L360.335777,44 L360.291789,44.2419355 Z M365.328446,49 L365.079179,49 L364.807918,46.5073314 C364.685728,45.3489678 364.609971,44.5889559 364.580645,44.2272727 L363.187683,48.3914956 L362.945748,48.3914956 L361.52346,44.2272727 C361.508798,44.43744 361.457478,44.9579626 361.369502,45.7888563 L361.303519,46.4486804 L361.054252,49 L360.804985,49 L361.318182,44 L361.699414,44 L363.070381,48.0835777 L364.412023,44 L364.800587,44 L365.328446,49 Z" id="TM"></path>
        </g>
    </g>
</svg>