<svg xmlns="http://www.w3.org/2000/svg" viewBox="0 0 365 109.539"><title>micronautlogo</title><path d="M75.7,52.006a2.167,2.167,0,0,0-.57-.076,2.2,2.2,0,0,0-.567,4.322A2.2,2.2,0,1,0,75.7,52.006Z" style="fill:#1d1d1b"/><path d="M71.512,41.91a2.2,2.2,0,0,0,.568,4.324h0a2.2,2.2,0,1,0-.569-4.324Z" style="fill:#1d1d1b"/><path d="M62.84,38.372a2.2,2.2,0,1,0-.644-1.556A2.189,2.189,0,0,0,62.84,38.372Z" style="fill:#1d1d1b"/><path d="M53.56,36.534a2.2,2.2,0,0,0,.569.075h0a2.2,2.2,0,0,0,1.9-3.3A2.177,2.177,0,0,0,54.7,32.286a2.2,2.2,0,0,0-1.137,4.248Z" style="fill:#1d1d1b"/><path d="M43.465,35.334a2.2,2.2,0,0,0,.572,4.324,2.238,2.238,0,0,0,.568-.075,2.2,2.2,0,0,0-1.14-4.249Z" style="fill:#1d1d1b"/><path d="M36.817,47.344a2.2,2.2,0,1,0-1.556-.644A2.185,2.185,0,0,0,36.817,47.344Z" style="fill:#1d1d1b"/><path d="M36.534,55.977a2.194,2.194,0,1,0-2.122,1.634A2.2,2.2,0,0,0,36.534,55.977Z" style="fill:#1d1d1b"/><path d="M38.027,67.631a2.2,2.2,0,1,0-.566.074A2.172,2.172,0,0,0,38.027,67.631Z" style="fill:#1d1d1b"/><path d="M46.7,71.169a2.2,2.2,0,1,0,0,3.109A2.2,2.2,0,0,0,46.7,71.169Z" style="fill:#1d1d1b"/><path d="M55.981,73.007a2.2,2.2,0,0,0-2.692,1.552,2.2,2.2,0,0,0,1.555,2.7A2.2,2.2,0,0,0,57.536,75.7a2.2,2.2,0,0,0-1.555-2.692Z" style="fill:#1d1d1b"/><path d="M66.075,74.207A2.2,2.2,0,1,0,63.6,70.985a2.178,2.178,0,0,0-.219,1.666,2.2,2.2,0,0,0,2.124,1.63A2.238,2.238,0,0,0,66.075,74.207Z" style="fill:#1d1d1b"/><path d="M72.723,62.2a2.2,2.2,0,1,0,1.556.643A2.184,2.184,0,0,0,72.723,62.2Z" style="fill:#1d1d1b"/><path d="M82.9,54.18a2.575,2.575,0,0,0,1.818,3.147,2.548,2.548,0,0,0,.665.089h0A2.572,2.572,0,1,0,82.9,54.18Z" style="fill:#1d1d1b"/><path d="M80.654,37.045a2.571,2.571,0,0,0,.664,5.054h0a2.576,2.576,0,0,0,2.226-1.286,2.568,2.568,0,0,0-2.891-3.768Z" style="fill:#1d1d1b"/><path d="M70.14,25.724a2.571,2.571,0,0,0,0,5.141h0a2.571,2.571,0,1,0,0-5.141Z" style="fill:#1d1d1b"/><path d="M54.178,26.639a2.571,2.571,0,1,0-1.817-3.147A2.564,2.564,0,0,0,54.178,26.639Z" style="fill:#1d1d1b"/><path d="M39.53,25.651a2.57,2.57,0,1,0,2.479,1.905A2.563,2.563,0,0,0,39.53,25.651Z" style="fill:#1d1d1b"/><path d="M28.3,41.97a2.571,2.571,0,1,0-1.818-.753A2.56,2.56,0,0,0,28.3,41.97Z" style="fill:#1d1d1b"/><path d="M26.64,55.362a2.57,2.57,0,1,0-3.148,1.817,2.549,2.549,0,0,0,.666.088A2.575,2.575,0,0,0,26.64,55.362Z" style="fill:#1d1d1b"/><path d="M28.223,72.584a2.572,2.572,0,1,0-2.484-1.907,2.574,2.574,0,0,0,2.484,1.907Z" style="fill:#1d1d1b"/><path d="M39.4,83.815a2.543,2.543,0,0,0,1.815-.752,2.571,2.571,0,1,0-4.388-1.817A2.571,2.571,0,0,0,39.4,83.815Z" style="fill:#1d1d1b"/><path d="M55.361,82.9a2.568,2.568,0,1,0,1.562,1.2A2.565,2.565,0,0,0,55.361,82.9Z" style="fill:#1d1d1b"/><path d="M67.789,80.029a2.571,2.571,0,0,0,2.224,3.86h0a2.569,2.569,0,1,0-2.224-3.86Z" style="fill:#1d1d1b"/><path d="M81.245,67.569a2.57,2.57,0,1,0,1.818.753A2.552,2.552,0,0,0,81.245,67.569Z" style="fill:#1d1d1b"/><path d="M96.717,56.3a3.3,3.3,0,0,0-1.711,6.383A3.3,3.3,0,0,0,96.717,56.3Z" style="fill:#1d1d1b"/><path d="M92.721,35.011a3.3,3.3,0,0,0,0,6.608,3.267,3.267,0,0,0,.856-.113,3.3,3.3,0,0,0-.852-6.495Z" style="fill:#1d1d1b"/><path d="M79.406,24.848a3.3,3.3,0,1,0-2.335-.967A3.279,3.279,0,0,0,79.406,24.848Z" style="fill:#1d1d1b"/><path d="M58.639,16.87A3.3,3.3,0,1,0,56.3,12.823,3.309,3.309,0,0,0,58.639,16.87Z" style="fill:#1d1d1b"/><path d="M38.313,20.125a3.323,3.323,0,0,0,.857-.113,3.3,3.3,0,0,0-.854-6.494,3.3,3.3,0,0,0,0,6.607Z" style="fill:#1d1d1b"/><path d="M24.849,30.133a3.3,3.3,0,1,0-.968,2.336A3.279,3.279,0,0,0,24.849,30.133Z" style="fill:#1d1d1b"/><path d="M16.87,50.9a3.3,3.3,0,1,0-4.046,2.335,3.358,3.358,0,0,0,.855.113A3.311,3.311,0,0,0,16.87,50.9Z" style="fill:#1d1d1b"/><path d="M16.823,74.529a3.352,3.352,0,0,0,.855-.113,3.3,3.3,0,1,0-.855.113Z" style="fill:#1d1d1b"/><path d="M30.135,84.691a3.3,3.3,0,1,0,2.336.966A3.287,3.287,0,0,0,30.135,84.691Z" style="fill:#1d1d1b"/><path d="M50.9,92.671a3.3,3.3,0,0,0-1.71,6.383,3.358,3.358,0,0,0,.856.112,3.3,3.3,0,0,0,.854-6.495Z" style="fill:#1d1d1b"/><path d="M71.23,89.415a3.3,3.3,0,1,0-.006,6.606h0a3.3,3.3,0,0,0,.006-6.606Z" style="fill:#1d1d1b"/><path d="M90.33,77.07a3.3,3.3,0,1,0,0,4.673A3.287,3.287,0,0,0,90.33,77.07Z" style="fill:#1d1d1b"/><path d="M106.688,64.7a3.888,3.888,0,0,0-1-.132,3.85,3.85,0,1,0,1,.132Z" style="fill:#1d1d1b"/><path d="M105.694,44.972a3.863,3.863,0,0,0,.995-.132,3.845,3.845,0,0,0-.992-7.559,3.888,3.888,0,0,0-1,.132,3.845,3.845,0,0,0,1,7.559Z" style="fill:#1d1d1b"/><path d="M92.049,21.336a3.85,3.85,0,1,0-2.718-1.127A3.824,3.824,0,0,0,92.049,21.336Z" style="fill:#1d1d1b"/><path d="M67.42,7.56a3.835,3.835,0,0,0,1,.132h0a3.848,3.848,0,1,0-1-.132Z" style="fill:#1d1d1b"/><path d="M41.122,7.692h0a3.848,3.848,0,0,0,3.716-4.841,3.844,3.844,0,1,0-3.717,4.841Z" style="fill:#1d1d1b"/><path d="M17.492,21.336a3.844,3.844,0,1,0-2.72-1.126A3.814,3.814,0,0,0,17.492,21.336Z" style="fill:#1d1d1b"/><path d="M4.843,37.412a3.845,3.845,0,1,0-.993,7.56h0A3.846,3.846,0,0,0,7.177,39.2,3.812,3.812,0,0,0,4.843,37.412Z" style="fill:#1d1d1b"/><path d="M3.852,64.569a3.859,3.859,0,0,0-1,.133,3.844,3.844,0,1,0,1.989,7.427,3.846,3.846,0,0,0-.989-7.56Z" style="fill:#1d1d1b"/><path d="M17.49,88.2a3.846,3.846,0,0,0,0,7.691h0a3.846,3.846,0,1,0,0-7.691Z" style="fill:#1d1d1b"/><path d="M42.119,101.981A3.841,3.841,0,0,0,37.41,104.7a3.845,3.845,0,0,0,2.722,4.707,3.891,3.891,0,0,0,1,.133,3.844,3.844,0,0,0,.987-7.558Z" style="fill:#1d1d1b"/><path d="M68.421,101.849a3.9,3.9,0,0,0-1,.133,3.836,3.836,0,1,0,1-.133Z" style="fill:#1d1d1b"/><path d="M92.05,88.2a3.846,3.846,0,1,0,2.717,1.126A3.819,3.819,0,0,0,92.05,88.2Z" style="fill:#1d1d1b"/><path d="M65.344,57.889l.5-.551c.1-.1.192-.2.293-.3l-.024,0,.029-.031a3.193,3.193,0,0,0-.478-.041,1.259,1.259,0,0,0-.982.4,10.2,10.2,0,0,1-1.2,1.034,12.693,12.693,0,0,1-1.231.8,1.532,1.532,0,0,1-.784.208,2.143,2.143,0,0,1-.517-.068.9.9,0,0,1-.757-.944,2.676,2.676,0,0,1,.044-.543c.436-2.119,1.652-7.96,1.947-9.543l.046-.219H62.22l.006-.035-1.494.035H58.261l-.018.057H58.2a1.468,1.468,0,0,0-.054.179L56.064,58.2c-.021.1-.05.237-.112.273-.135.079-.269.165-.4.249a5.359,5.359,0,0,1-1.231.638,1.7,1.7,0,0,1-.492.079,1,1,0,0,1-.767-.318,1.39,1.39,0,0,1-.281-1.092c.015-.131,1.619-7.767,1.985-9.67l.055-.264h-.006l.006-.035-4.021.028-3.937,18.55s.328-.074.656-.152c.815-.2,2.247-.537,3.031-.695.485-.1.687-.313.72-.757a4.341,4.341,0,0,1,.124-.659l.064-.276.2-.958.211-1.114a6.238,6.238,0,0,0,3.745-1.891,3.686,3.686,0,0,0,.393-.372l.09-.075A2.477,2.477,0,0,0,57.8,61.742a5.011,5.011,0,0,0,1.554.272,3.486,3.486,0,0,0,2.052-.653,21.143,21.143,0,0,0,2.141-1.706C64.163,59.091,64.746,58.5,65.344,57.889Z" style="fill:#1d1d1b"/><polygon points="144.975 46.08 140.263 59.792 140.202 59.838 135.263 46.033 130.936 46.103 131.005 63.505 133.748 63.436 133.71 49.112 138.799 63.505 141.473 63.459 146.524 49.089 146.594 63.505 149.562 63.505 149.492 46.033 144.975 46.08" style="fill:#1d1d1b"/><polygon points="164.02 46.103 164.09 63.505 167.06 63.505 166.99 46.033 164.02 46.103" style="fill:#1d1d1b"/><path d="M185.657,49.838a4.706,4.706,0,0,1,1.57-1.5,4.419,4.419,0,0,1,2.251-.555,5.245,5.245,0,0,1,1.972.374,5.705,5.705,0,0,1,1.713,1.153l1.812-1.592a5.706,5.706,0,0,0-2.414-1.585,9.517,9.517,0,0,0-3.21-.519,8.084,8.084,0,0,0-3.4.692,7.442,7.442,0,0,0-2.568,1.914,8.676,8.676,0,0,0-1.626,2.9,11.409,11.409,0,0,0-.565,3.647,11.534,11.534,0,0,0,.552,3.632,8.667,8.667,0,0,0,1.589,2.9,7.21,7.21,0,0,0,2.569,1.928,8.291,8.291,0,0,0,3.444.692,7.92,7.92,0,0,0,3.314-.63,5.551,5.551,0,0,0,2.238-1.77l-1.84-1.433a4.407,4.407,0,0,1-1.443,1.18,4.362,4.362,0,0,1-2.078.481,4.516,4.516,0,0,1-2.267-.553,4.765,4.765,0,0,1-1.6-1.508,7.19,7.19,0,0,1-.957-2.217,11.048,11.048,0,0,1-.318-2.7,11.209,11.209,0,0,1,.318-2.714A7.188,7.188,0,0,1,185.657,49.838Z" style="fill:#1d1d1b"/><path d="M217.7,54.929a4.711,4.711,0,0,0,1.272-.881,4.436,4.436,0,0,0,.945-1.356,4.5,4.5,0,0,0,.363-1.865,4.622,4.622,0,0,0-.493-2.21,4.088,4.088,0,0,0-1.348-1.494,5.849,5.849,0,0,0-1.976-.829,10.567,10.567,0,0,0-2.388-.261l-5.981.07.07,17.4,2.906-.069-.069-7.667,2.578-.038,3.926,7.774h3.24l-4.388-8.153A4.923,4.923,0,0,0,217.7,54.929Zm-4.028-1.014-2.6.07V48.01h2.539a6.87,6.87,0,0,1,1.339.133,3.255,3.255,0,0,1,1.167.468,2.638,2.638,0,0,1,.815.886,2.826,2.826,0,0,1,.312,1.416,2.681,2.681,0,0,1-.972,2.218A4.049,4.049,0,0,1,213.676,53.915Z" style="fill:#1d1d1b"/><path d="M246.863,48.127a7.069,7.069,0,0,0-2.47-1.855,7.971,7.971,0,0,0-3.3-.654,8.28,8.28,0,0,0-3.363.654,6.82,6.82,0,0,0-2.487,1.855,8.186,8.186,0,0,0-1.528,2.888,12.687,12.687,0,0,0-.517,3.728,12.369,12.369,0,0,0,.535,3.731,8.351,8.351,0,0,0,1.557,2.9,7.1,7.1,0,0,0,2.488,1.878,7.969,7.969,0,0,0,3.315.668,7.83,7.83,0,0,0,3.3-.669,7.11,7.11,0,0,0,2.47-1.877,8.36,8.36,0,0,0,1.56-2.9,13.243,13.243,0,0,0,0-7.459A8.233,8.233,0,0,0,246.863,48.127Zm-1.409,9.367a7.423,7.423,0,0,1-.892,2.232,4.571,4.571,0,0,1-1.46,1.483,3.732,3.732,0,0,1-2.008.54,3.9,3.9,0,0,1-2.058-.54,4.526,4.526,0,0,1-1.475-1.483,7.123,7.123,0,0,1-.876-2.231,13.283,13.283,0,0,1,0-5.5,7.1,7.1,0,0,1,.876-2.228,4.542,4.542,0,0,1,1.475-1.485,3.9,3.9,0,0,1,2.058-.541,3.747,3.747,0,0,1,2.008.541,4.574,4.574,0,0,1,1.46,1.484,7.467,7.467,0,0,1,.892,2.23,12.51,12.51,0,0,1,0,5.5Z" style="fill:#1d1d1b"/><polygon points="274.066 46.103 274.066 61.84 264.78 46.033 263.276 46.103 263.345 63.514 264.472 63.444 264.472 47.683 273.79 63.514 275.261 63.514 275.191 46.033 274.066 46.103" style="fill:#1d1d1b"/><path d="M293.686,46.08l-5.948,17.434,1.144-.047,1.672-4.8,7.7-.047,1.709,4.9h1.175l-5.914-17.481ZM290.9,57.794l3.585-10.584L298.049,57.7Z" style="fill:#1d1d1b"/><path d="M324.022,46.1V56.791a15.384,15.384,0,0,1-.173,2.3,5.124,5.124,0,0,1-.71,1.951,3.974,3.974,0,0,1-1.485,1.37,6.468,6.468,0,0,1-5.112-.011,3.883,3.883,0,0,1-1.471-1.39,5.417,5.417,0,0,1-.693-1.966,14.575,14.575,0,0,1-.175-2.256l-.07-10.758-1.127.07V57.055a12.3,12.3,0,0,0,.278,2.658,5.7,5.7,0,0,0,.994,2.191,4.807,4.807,0,0,0,1.9,1.469,7.261,7.261,0,0,0,2.935.524,7.182,7.182,0,0,0,2.9-.524,4.815,4.815,0,0,0,1.9-1.469,5.721,5.721,0,0,0,1.007-2.189,11.378,11.378,0,0,0,.3-2.66l-.07-11.022Z" style="fill:#1d1d1b"/><polygon points="347.323 46.033 337.179 46.103 337.248 46.995 341.686 46.926 341.756 63.514 342.885 63.514 342.816 46.995 347.393 46.926 347.323 46.033" style="fill:#1d1d1b"/><path d="M364.64,44.2a4.847,4.847,0,0,0-1.023-1.664,4.61,4.61,0,0,0-1.564-1.065,5.517,5.517,0,0,0-4.009,0,4.636,4.636,0,0,0-1.564,1.065,4.778,4.778,0,0,0-1.021,1.665,6.754,6.754,0,0,0,0,4.363,4.889,4.889,0,0,0,1.02,1.674,4.424,4.424,0,0,0,1.566,1.068,5.681,5.681,0,0,0,4.007,0,4.424,4.424,0,0,0,1.566-1.068,4.934,4.934,0,0,0,1.022-1.674,6.793,6.793,0,0,0,0-4.364Zm-4.591,6.579a3.891,3.891,0,0,1-1.63-.326,3.466,3.466,0,0,1-1.218-.912,4.24,4.24,0,0,1-.785-1.389,5.771,5.771,0,0,1,0-3.539,4.222,4.222,0,0,1,.785-1.389,3.493,3.493,0,0,1,1.218-.913,4.238,4.238,0,0,1,3.26,0,3.552,3.552,0,0,1,1.217.912,4.231,4.231,0,0,1,.786,1.39,5.81,5.81,0,0,1,0,3.539,4.237,4.237,0,0,1-.786,1.389,3.508,3.508,0,0,1-1.217.912A3.9,3.9,0,0,1,360.049,50.774Z" style="fill:#1d1d1b"/><path d="M361.7,46.284a1.572,1.572,0,0,0,.531-1.275,1.511,1.511,0,0,0-.616-1.321,2.542,2.542,0,0,0-1.483-.4l-2.017.069.07,6.047.972-.07-.07-2.487.669-.032,1.72,2.589H362.7l-1.918-2.672A2.139,2.139,0,0,0,361.7,46.284Zm-2.543-2.106h.892a1.912,1.912,0,0,1,.835.187c.207.1.307.312.307.656a.721.721,0,0,1-.342.716,2.325,2.325,0,0,1-1.076.217l-.616.07Z" style="fill:#1d1d1b"/></svg>