<svg id="Layer_1" data-name="Layer 1" xmlns="http://www.w3.org/2000/svg" viewBox="0 0 128 128"><defs><style>.cls-1{fill:#fff;}</style></defs><title>Micronuat_LoadBalancing</title><path class="cls-1" d="M64,4A60,60,0,1,1,4,64,60.07,60.07,0,0,1,64,4m0-4a64,64,0,1,0,64,64A64,64,0,0,0,64,0Z"/><path class="cls-1" d="M99.44,80.38A13.28,13.28,0,0,0,98,74.58L86,51.14v-.06H74.3a10.59,10.59,0,0,0-20.69,0H42v.06L30.06,74.56a13.31,13.31,0,0,0-1.5,5.82l0,4.85h27l0-4.85a13.15,13.15,0,0,0-1.5-5.8L44.32,55.65h9.29a10.59,10.59,0,0,0,20.69,0h9.39L74,74.56a13.32,13.32,0,0,0-1.51,5.82h0v4.85H99.46Zm-50.06-2.3H34.62A.77.77,0,0,1,33.94,77L42,61.2,50.06,77A.77.77,0,0,1,49.38,78.08ZM86,61.2,94,77a.77.77,0,0,1-.69,1.12H78.59A.77.77,0,0,1,77.91,77Z"/></svg>