<?xml version="1.0" encoding="UTF-8"?>
<svg width="523px" height="431px" viewBox="0 0 523 431" version="1.1" xmlns="http://www.w3.org/2000/svg" xmlns:xlink="http://www.w3.org/1999/xlink">
    <!-- Generator: Sketch 50.2 (55047) - http://www.bohemiancoding.com/sketch -->
    <title>micronaut</title>
    <desc>Created with Sketch.</desc>
    <defs></defs>
    <g id="Page-1" stroke="none" stroke-width="1" fill="none" fill-rule="evenodd">
        <g id="micronaut" fill="#FFFFFF">
            <polygon id="Path_233" fill-rule="nonzero" points="36.023 429.474 36.023 396.274 35.794 396.274 24.009 429.474 17.992 429.474 6.36 396.274 6.131 396.274 6.131 429.474 0 429.474 0 389.364 9.837 389.364 21.01 421.204 21.316 421.204 32.47 389.364 42.784 389.364 42.784 429.474"></polygon>
            <polygon id="Path_234" fill-rule="nonzero" points="76.496 429.474 76.496 389.364 83.196 389.364 83.196 429.474"></polygon>
            <path d="M142.525,428.978 C140.115727,430.016734 137.507358,430.512461 134.885,430.43 C132.172952,430.46773 129.483969,429.927411 126.997,428.845 C124.727597,427.82987 122.7123,426.322838 121.097,424.433 C119.470547,422.46462 118.238439,420.201398 117.468,417.767 C116.588238,415.073268 116.155842,412.253574 116.188,409.42 C116.163635,406.572987 116.602706,403.74098 117.488,401.035 C118.312663,398.59006 119.610687,396.331432 121.308,394.388 C122.921751,392.5085 124.930559,391.008467 127.191,389.995 C129.634656,388.902689 132.288762,388.361557 134.965,388.41 C137.472145,388.382103 139.965646,388.782525 142.338,389.594 C144.457801,390.312249 146.358226,391.561641 147.858,393.223 L143.694,396.68 C142.639163,395.506738 141.333487,394.58627 139.874,393.987 C138.405914,393.393631 136.835412,393.094957 135.252,393.108 C133.404093,393.062965 131.577627,393.511728 129.961,394.408 C128.478211,395.279971 127.216781,396.482539 126.275,397.922 C125.279632,399.514478 124.562717,401.264831 124.155,403.098 C123.648205,405.166782 123.397991,407.290081 123.41,409.42 C123.396293,411.538802 123.646552,413.651062 124.155,415.708 C124.597949,417.54864 125.353954,419.299459 126.39,420.884 C127.364014,422.35412 128.673279,423.571873 130.21,424.437 C131.841176,425.331237 133.679275,425.779638 135.539,425.737 C137.233163,425.770323 138.908408,425.376188 140.41,424.591 C141.72978,423.923585 142.889621,422.978656 143.81,421.821 L147.821,425.163 C146.369226,426.820421 144.560085,428.126586 142.53,428.983 L142.525,428.978 Z" id="Path_235" fill-rule="nonzero"></path>
            <path d="M200.072,429.474 L191.133,411.574 L185.021,411.574 L185.021,429.474 L178.47,429.474 L178.47,389.363788 L192.13,389.364 C193.980689,389.356242 195.826136,389.561255 197.63,389.975 C199.246361,390.319169 200.782606,390.967331 202.157,391.885 C203.441058,392.748292 204.491048,393.916474 205.213,395.285 C205.997942,396.840489 206.385151,398.566265 206.34,400.308 C206.37067,401.771654 206.084107,403.224598 205.5,404.567 C204.988064,405.718151 204.262209,406.761631 203.361,407.642 C202.514338,408.474377 201.534076,409.15887 200.461,409.667 C199.490876,410.123786 198.462595,410.445124 197.405,410.622 L207.299,429.493 L200.072,429.474 Z M199.614,400.499 C199.666737,399.334413 199.416597,398.176052 198.888,397.137 C198.421535,396.299262 197.76788,395.580584 196.978,395.037 C196.142478,394.49164 195.208223,394.11522 194.228,393.929 C193.196747,393.723278 192.14757,393.620772 191.096,393.623 L185.06,393.622964 L185.06,407.604 L191.248,407.604 C193.439648,407.697791 195.595084,407.022117 197.341,405.694 C198.88067,404.419389 199.724137,402.489767 199.614,400.494 L199.614,400.499 Z" id="Path_236" fill-rule="nonzero"></path>
            <path d="M272.672,409.362 C272.70247,412.267593 272.283522,415.160429 271.43,417.938 C270.70047,420.372169 269.485364,422.633314 267.858,424.585 C266.288127,426.427251 264.331794,427.901159 262.128,428.902 C257.278269,430.939286 251.812731,430.939286 246.963,428.902 C244.756627,427.905506 242.799405,426.43093 241.233,424.585 C239.605659,422.633298 238.390556,420.372159 237.661,417.938 C236.814266,415.159363 236.402067,412.266551 236.439,409.362 C236.399634,406.460026 236.798803,403.568751 237.623,400.786 C238.333073,398.361363 239.528613,396.106373 241.137,394.158 C242.688828,392.311014 244.651072,390.852516 246.867,389.899 C249.283422,388.879988 251.884757,388.37266 254.507,388.409 C257.131002,388.352601 259.736485,388.860738 262.147,389.899 C264.347724,390.87871 266.304472,392.333123 267.877,394.158 C269.503849,396.102898 270.719043,398.357744 271.449,400.786 C272.296073,403.564584 272.708609,406.457397 272.672,409.362 Z M265.586,409.362 C265.601955,407.208332 265.364659,405.060255 264.879,402.962 C264.471495,401.122856 263.768364,399.361989 262.797,397.748 C261.940292,396.335097 260.762401,395.144187 259.359,394.272 C257.942075,393.400673 256.304013,392.956264 254.641,392.992 C252.935458,392.951061 251.25331,393.394918 249.79,394.272 C248.37496,395.142278 247.184278,396.33296 246.314,397.748 C245.347434,399.360229 244.656618,401.122419 244.27,402.962 C243.378431,407.182091 243.378431,411.541909 244.27,415.762 C244.656618,417.601581 245.347434,419.363771 246.314,420.976 C247.184278,422.39104 248.37496,423.581722 249.79,424.452 C251.253331,425.329031 252.935465,425.772884 254.641,425.732 C256.304013,425.767736 257.942075,425.323327 259.359,424.452 C260.762543,423.579991 261.940471,422.389043 262.797,420.976 C263.76838,419.362018 264.471512,417.601149 264.879,415.762 C265.363559,413.663557 265.60084,411.515611 265.586,409.362 Z" id="Path_237" fill-rule="nonzero"></path>
            <polygon id="Path_238" fill-rule="nonzero" points="330.431 429.474 308.218 390.835 308.084 390.835 308.084 429.474 306.441 429.474 306.441 389.364 309.115 389.364 331.252 427.946 331.405 427.946 331.405 389.364 333.029 389.364 333.029 429.474"></polygon>
            <path d="M387.329,418.034 L368.764,418.034 L364.753,429.494 L363.11,429.494 L376.747,389.384 L379.574,389.384 L392.753,429.494 L391.13,429.494 L387.329,418.034 Z M369.146,416.888 L386.946,416.888 L378.294,390.148 L378.008,390.148 L369.146,416.888 Z" id="Path_239" fill-rule="nonzero"></path>
            <path d="M448.01,420.936 C447.624304,422.730675 446.862563,424.423208 445.775,425.902 C444.689635,427.33397 443.256272,428.464758 441.611,429.187 C437.406146,430.766739 432.770854,430.766739 428.566,429.187 C426.918585,428.459553 425.480254,427.330001 424.383,425.902 C423.314285,424.416533 422.565185,422.725608 422.183,420.936 C421.751991,418.921116 421.540756,416.865432 421.553,414.805 L421.553,389.364 L423.196,389.364 L423.196,414.194 C423.192614,416.003947 423.333056,417.811302 423.616,419.599 C423.855572,421.307193 424.41971,422.953786 425.278,424.45 C426.150408,425.909398 427.396662,427.109392 428.888,427.926 C432.832129,429.656853 437.320871,429.656853 441.265,427.926 C442.755987,427.112185 444.012317,425.928177 444.913,424.488 C445.811621,423.019302 446.396871,421.380669 446.632,419.675 C446.901629,417.847421 447.035329,416.002359 447.032,414.155 L447.032,389.326 L448.675,389.326 L448.675,414.767 C448.697229,416.842522 448.472994,418.913345 448.007,420.936 L448.01,420.936 Z" id="Path_240" fill-rule="nonzero"></path>
            <polygon id="Path_241" fill-rule="nonzero" points="489.552 390.51 489.552 429.474 487.91 429.474 487.91 390.51 477.5 390.51 477.5 389.364 500 389.364 500 390.51"></polygon>
            <path d="M310.051,171.357 C313.062212,172.146508 316.21216,170.701333 317.577668,167.903814 C318.943176,165.106296 318.144765,161.733871 315.669899,159.845549 C313.195034,157.957226 309.731484,158.077775 307.393895,160.133595 C305.056305,162.189415 304.494297,165.609189 306.051,168.305 C306.926538,169.812796 308.365514,170.910735 310.051,171.357 Z" id="Path_242" fill-rule="nonzero"></path>
            <path d="M304.206,140.739 C306.774098,140.052626 308.675539,137.886377 309.023164,135.250965 C309.370788,132.615553 308.096088,130.030355 305.793802,128.701552 C303.491516,127.372748 300.615371,127.562215 298.507295,129.181552 C296.399218,130.800889 295.474663,133.530964 296.165,136.098 C297.106285,139.598194 300.704358,141.674882 304.206,140.739 Z" id="Path_243" fill-rule="nonzero"></path>
            <path d="M274.525,107.849 C272.311646,110.066828 271.972454,113.539023 273.714748,116.143271 C275.457042,118.747519 278.795914,119.759015 281.69054,118.559502 C284.585167,117.359988 286.229927,114.283309 285.619491,111.210027 C285.009056,108.136744 282.31332,105.922203 279.18,105.92 C277.433628,105.918772 275.758624,106.612882 274.525,107.849 Z" id="Path_244" fill-rule="nonzero"></path>
            <path d="M249.713,98.839 C246.209012,97.9099928 242.6147,99.994569 241.680966,103.4973 C240.747232,107.000032 242.826958,110.597153 246.328426,111.535612 C249.829895,112.47407 253.429819,110.399199 254.373,106.899 C254.827563,105.212091 254.591523,103.413602 253.71706,101.901119 C252.842597,100.388637 251.401735,99.2867317 249.713,98.839 Z" id="Path_245" fill-rule="nonzero"></path>
            <path d="M219.096,120.78 C221.664098,120.093626 223.565539,117.927377 223.913164,115.291965 C224.260788,112.656553 222.986088,110.071355 220.683802,108.742552 C218.381516,107.413748 215.505371,107.603215 213.397295,109.222552 C211.289218,110.841889 210.364663,113.571964 211.055,116.139 C211.996285,119.639194 215.594358,121.715882 219.096,120.78 Z" id="Path_246" fill-rule="nonzero"></path>
            <path d="M190.847,133.118 C188.656461,135.33024 188.331646,138.781002 190.070898,141.363147 C191.810149,143.945292 195.130033,144.9411 198.003329,143.7425 C200.876624,142.543901 202.504685,139.484051 201.893367,136.431386 C201.282049,133.378722 198.601273,131.181747 195.488,131.182 C193.745475,131.186343 192.076049,131.882746 190.847,133.118 Z" id="Path_247" fill-rule="nonzero"></path>
            <path d="M189.892,162.647 C187.324964,161.956663 184.594889,162.881218 182.975552,164.989295 C181.356215,167.097371 181.166748,169.973516 182.495552,172.275802 C183.824355,174.578088 186.409553,175.852788 189.044965,175.505164 C191.680377,175.157539 193.846626,173.256098 194.533,170.688 C195.468882,167.186358 193.392194,163.588285 189.892,162.647 Z" id="Path_248" fill-rule="nonzero"></path>
            <path d="M195.734,193.207 C193.165902,193.893374 191.264461,196.059623 190.916836,198.695035 C190.569212,201.330447 191.843912,203.915645 194.146198,205.244448 C196.448484,206.573252 199.324629,206.383785 201.432705,204.764448 C203.540782,203.145111 204.465337,200.415036 203.775,197.848 C202.833715,194.347806 199.235642,192.271118 195.734,193.207 Z" id="Path_249" fill-rule="nonzero"></path>
            <path d="M225.38,226.097 C227.58468,223.8835 227.919549,220.421191 226.179939,217.826206 C224.440328,215.23122 221.110359,214.225723 218.225278,215.424265 C215.340197,216.622808 213.702902,219.691844 214.314092,222.755607 C214.925283,225.819369 217.614869,228.025236 220.739,228.025 C222.480376,228.022777 224.14964,227.329319 225.38,226.097 Z" id="Path_250" fill-rule="nonzero"></path>
            <path d="M250.21,235.093 C252.777036,235.783337 255.507111,234.858782 257.126448,232.750705 C258.745785,230.642629 258.935252,227.766484 257.606448,225.464198 C256.277645,223.161912 253.692447,221.887212 251.057035,222.234836 C248.421623,222.582461 246.255374,224.483902 245.569,227.052 C244.633118,230.553642 246.709806,234.151715 250.21,235.093 Z" id="Path_251" fill-rule="nonzero"></path>
            <path d="M280.77,213.166 C278.201243,213.854629 276.300996,216.023932 275.956546,218.66099 C275.612097,221.298048 276.891394,223.88266 279.19709,225.207984 C281.502787,226.533308 284.380049,226.337903 286.485386,224.713011 C288.590723,223.088118 289.508826,220.354274 288.811,217.788 C287.861312,214.295494 284.265885,212.228828 280.77,213.166 Z" id="Path_252" fill-rule="nonzero"></path>
            <path d="M309.096,200.847 C310.977464,198.968927 311.541738,196.142123 310.525522,193.685628 C309.509305,191.229132 307.112895,189.627121 304.4545,189.627121 C301.796105,189.627121 299.399695,191.229132 298.383478,193.685628 C297.367262,196.142123 297.931536,198.968927 299.813,200.847 C302.377783,203.407161 306.531217,203.407161 309.096,200.847 Z" id="Path_253" fill-rule="nonzero"></path>
            <path d="M344.851,159.763 C341.328266,158.846164 337.647911,160.541991 336.056014,163.815538 C334.464117,167.089085 335.402828,171.031123 338.299262,173.235871 C341.195696,175.44062 345.245368,175.295709 347.976809,172.889576 C350.708251,170.483444 351.362803,166.484393 349.541,163.333 C348.51811,161.563583 346.828914,160.277777 344.851,159.763 Z" id="Path_254" fill-rule="nonzero"></path>
            <path d="M332.512,128.153 C336.022207,127.189368 338.365084,123.88307 338.110811,120.251888 C337.856537,116.620706 335.075737,113.673194 331.465488,113.208172 C327.85524,112.743151 324.418283,114.889778 323.25214,118.338002 C322.085996,121.786226 323.51456,125.578308 326.666,127.4 C328.435498,128.422859 330.541059,128.694068 332.512,128.153 Z" id="Path_255" fill-rule="nonzero"></path>
            <path d="M291.18,92.073 C293.772904,94.6267107 297.807191,94.9969763 300.821619,92.9579047 C303.836047,90.9188331 304.993733,87.0365233 303.588395,83.6794986 C302.183058,80.3224738 298.604854,78.4227309 295.036778,79.1392667 C291.468702,79.8558025 288.901344,82.9896883 288.901,86.629 C288.900807,88.6756726 289.721805,90.6368466 291.18,92.073 Z" id="Path_256" fill-rule="nonzero"></path>
            <path d="M248.3,81.51 C251.822399,82.4231853 255.50003,80.7253508 257.089698,77.4521019 C258.679365,74.178853 257.739855,70.2386838 254.844228,68.0349268 C251.948601,65.8311697 247.900541,65.9754801 245.16919,68.379835 C242.437839,70.7841898 241.781286,74.7812575 243.6,77.933 C244.623796,79.7071887 246.31716,80.9959469 248.3,81.51 Z" id="Path_257" fill-rule="nonzero"></path>
            <path d="M201.715,78.97 C198.208409,79.951837 195.882128,83.2720468 196.156707,86.9031332 C196.431285,90.5342196 199.2304,93.4668527 202.844762,93.9102112 C206.459124,94.3535697 209.884054,92.1844136 211.028106,88.7273446 C212.172159,85.2702757 210.717324,81.4862524 207.552,79.686 C205.779804,78.6780777 203.678264,78.4202907 201.715,78.97 Z" id="Path_258" fill-rule="nonzero"></path>
            <path d="M164.26,125.765 C166.849595,128.323907 170.88504,128.700097 173.902994,126.663934 C176.920948,124.627771 178.082923,120.744969 176.679618,117.385692 C175.276313,114.026415 171.697613,112.123982 168.128052,112.839689 C164.55849,113.555396 161.98981,116.690395 161.99,120.331 C161.990107,122.3729 162.807578,124.32979 164.26,125.765 Z" id="Path_259" fill-rule="nonzero"></path>
            <path d="M155.073,174.107 C158.595399,175.020185 162.27303,173.322351 163.862698,170.049102 C165.452365,166.775853 164.512855,162.835684 161.617228,160.631927 C158.721601,158.42817 154.673541,158.57248 151.94219,160.976835 C149.210839,163.38119 148.554286,167.378257 150.373,170.53 C151.396796,172.304189 153.09016,173.592947 155.073,174.107 Z" id="Path_260" fill-rule="nonzero"></path>
            <path d="M167.411,205.794 C163.900793,206.757632 161.557916,210.06393 161.812189,213.695112 C162.066463,217.326294 164.847263,220.273806 168.457512,220.738828 C172.06776,221.203849 175.504717,219.057222 176.67086,215.608998 C177.837004,212.160774 176.40844,208.368692 173.257,206.547 C171.487502,205.524141 169.381941,205.252932 167.411,205.794 Z" id="Path_261" fill-rule="nonzero"></path>
            <path d="M208.763,241.875 C206.170029,239.321223 202.135613,238.951012 199.121174,240.990235 C196.106735,243.029458 194.949204,246.911943 196.354798,250.268963 C197.760391,253.625982 201.33886,255.52549 204.906958,254.808586 C208.475055,254.091681 211.042133,250.957406 211.042,247.318 C211.041925,245.271674 210.220948,243.31091 208.763,241.875 Z" id="Path_262" fill-rule="nonzero"></path>
            <path d="M251.739,252.417 C248.216266,251.500164 244.535911,253.195991 242.944014,256.469538 C241.352117,259.743085 242.290828,263.685123 245.187262,265.889871 C248.083696,268.09462 252.133368,267.949709 254.864809,265.543576 C257.596251,263.137444 258.250803,259.138393 256.429,255.987 C255.40611,254.217583 253.716914,252.931777 251.739,252.417 Z" id="Path_263" fill-rule="nonzero"></path>
            <path d="M298.209,254.957 C301.719149,253.990909 304.059967,250.682194 303.802517,247.050638 C303.545068,243.419083 300.760881,240.473691 297.149546,240.012459 C293.538211,239.551227 290.103114,241.702305 288.941188,245.152581 C287.779262,248.602857 289.213341,252.393694 292.368,254.211 C294.137111,255.230132 296.240533,255.498777 298.209,254.957 Z" id="Path_264" fill-rule="nonzero"></path>
            <path d="M335.74,208.163 C333.147029,205.609223 329.112613,205.239012 326.098174,207.278235 C323.083735,209.317458 321.926204,213.199943 323.331798,216.556963 C324.737391,219.913982 328.31586,221.81349 331.883958,221.096586 C335.452055,220.379681 338.019133,217.245406 338.019,213.606 C338.018925,211.559674 337.197948,209.59891 335.74,208.163 Z" id="Path_265" fill-rule="nonzero"></path>
            <path d="M372.088,190.896 C375.969028,191.942923 380.098434,190.54725 382.548548,187.360501 C384.998661,184.173752 385.286312,179.824367 383.27722,176.342705 C381.268127,172.861042 377.358492,170.933699 373.373392,171.460389 C369.388292,171.987079 366.113603,174.863936 365.078,178.748 C363.667746,184.037207 366.802928,189.47033 372.088,190.896 Z" id="Path_266" fill-rule="nonzero"></path>
            <path d="M374.704,114.458 C373.274731,109.177417 367.83793,106.052877 362.555796,107.476405 C357.273662,108.899934 354.143215,114.333336 355.561002,119.617014 C356.978788,124.900692 362.408784,128.037043 367.694,126.625 C370.239413,125.944946 372.409392,124.279564 373.72468,121.996667 C375.039968,119.71377 375.39235,117.001182 374.704,114.458 Z" id="Path_267" fill-rule="nonzero"></path>
            <path d="M331.748,59.126 C328.908244,56.2834249 324.63554,55.4318788 320.922997,56.9685861 C317.210453,58.5052934 314.789533,62.1274843 314.789533,66.1455 C314.789533,70.1635157 317.210453,73.7857066 320.922997,75.3224139 C324.63554,76.8591212 328.908244,76.0075751 331.748,73.165 C335.622044,69.2871112 335.622044,63.0038888 331.748,59.126 Z" id="Path_268" fill-rule="nonzero"></path>
            <path d="M261.667,51.867 C266.95444,53.2824642 272.38844,50.1445785 273.805508,44.8575679 C275.222576,39.5705573 272.086339,34.135606 266.799759,32.716934 C261.513178,31.298262 256.077276,34.4328501 254.657,39.719 C253.974408,42.2595529 254.329634,44.9672431 255.644448,47.2457529 C256.959261,49.5242628 259.125827,51.18672 261.667,51.867 Z" id="Path_269" fill-rule="nonzero"></path>
            <path d="M202.594,61.417 C207.148054,60.186643 210.200111,55.912299 209.885446,51.2054768 C209.570781,46.4986547 205.976921,42.6686101 201.299619,42.0553969 C196.622316,41.4421836 192.162615,44.216374 190.645272,48.6830125 C189.12793,53.149651 190.975011,58.0662917 195.058,60.429 C197.338962,61.7465007 200.050503,62.1019947 202.594,61.417 Z" id="Path_270" fill-rule="nonzero"></path>
            <path d="M156.161,85.197 C152.817928,81.8673767 147.588875,81.3616826 143.669718,83.9889864 C139.75056,86.6162902 138.231937,91.6454557 140.041995,96.0027726 C141.852053,100.360089 146.487082,102.832987 151.11426,101.910087 C155.741438,100.987187 159.073096,96.9253175 159.073,92.207 C159.070853,89.576525 158.023294,87.0547578 156.161,85.197 Z" id="Path_271" fill-rule="nonzero"></path>
            <path d="M127.837,143.049 C122.54956,141.633536 117.11556,144.771422 115.698492,150.058432 C114.281424,155.345443 117.417661,160.780394 122.704241,162.199066 C127.990822,163.617738 133.426724,160.48315 134.847,155.197 C135.529592,152.656447 135.174366,149.948757 133.859552,147.670247 C132.544739,145.391737 130.378173,143.72928 127.837,143.049 Z" id="Path_272" fill-rule="nonzero"></path>
            <path d="M132.249,207.322 C127.694809,208.554525 124.644485,212.831232 124.962132,217.538554 C125.27978,222.245875 128.877014,226.074009 133.555505,226.683517 C138.233995,227.293026 142.691962,224.514315 144.205066,220.045502 C145.718171,215.576689 143.865394,210.661211 139.779,208.303 C137.498707,206.989489 134.789714,206.636564 132.249,207.322 Z" id="Path_273" fill-rule="nonzero"></path>
            <path d="M182.214,260.783 C178.870928,257.453377 173.641875,256.947683 169.722718,259.574986 C165.80356,262.20229 164.284937,267.231456 166.094995,271.588773 C167.905053,275.946089 172.540082,278.418987 177.16726,277.496087 C181.794438,276.573187 185.126096,272.511318 185.126,267.793 C185.123853,265.162525 184.076294,262.640758 182.214,260.783 Z" id="Path_274" fill-rule="nonzero"></path>
            <path d="M238.197,282.08 C234.317499,281.035546 230.190859,282.431213 227.741745,285.616061 C225.292632,288.80091 225.003487,293.147568 227.009168,296.628755 C229.014849,300.109941 232.920263,302.03991 236.903926,301.518523 C240.887589,300.997136 244.164774,298.1271 245.207,294.247 C246.629377,288.951639 243.491544,283.505417 238.197,282.08 Z" id="Path_275" fill-rule="nonzero"></path>
            <path d="M297.33,272.546 C292.04385,273.966276 288.909262,279.402178 290.327934,284.688759 C291.746606,289.975339 297.181557,293.111576 302.468568,291.694508 C307.755578,290.27744 310.893464,284.84344 309.478,279.556 C308.79772,277.014827 307.135263,274.848261 304.856753,273.533448 C302.578243,272.218634 299.870553,271.863408 297.33,272.546 Z" id="Path_276" fill-rule="nonzero"></path>
            <path d="M357.801,248.75 C360.636127,245.914913 361.484267,241.651144 359.949931,237.946892 C358.415595,234.242641 354.800947,231.827401 350.7915,231.827401 C346.782053,231.827401 343.167405,234.242641 341.633069,237.946892 C340.098733,241.651144 340.946873,245.914913 343.782,248.75 C347.653256,252.621201 353.929744,252.621201 357.801,248.75 Z" id="Path_277" fill-rule="nonzero"></path>
            <path d="M407.499,197.218 C401.334068,195.568118 394.99885,199.22803 393.348539,205.392847 C391.698227,211.557665 395.357698,217.893137 401.522401,219.543877 C407.687103,221.194618 414.022831,217.535588 415.674,211.371 C416.467067,208.410111 416.051274,205.255439 414.518115,202.601152 C412.984956,199.946865 410.460054,198.010448 407.499,197.218 Z" id="Path_278" fill-rule="nonzero"></path>
            <path d="M407.499,136.729 C412.75619,135.265142 416.251872,130.297233 415.854503,124.854529 C415.457134,119.411825 411.276958,115.004327 405.862899,114.319572 C400.448839,113.634816 395.302951,116.862779 393.563015,122.035163 C391.823078,127.207546 393.971814,132.889345 398.699,135.616 C401.367492,137.142828 404.5344,137.54337 407.499,136.729 Z" id="Path_279" fill-rule="nonzero"></path>
            <path d="M354.916,62.009 C359.429786,66.517947 366.743754,66.5153317 371.254315,62.003158 C375.764876,57.4909842 375.764876,50.1770158 371.254315,45.664842 C366.743754,41.1526683 359.429786,41.150053 354.916,45.659 C352.746336,47.8263381 351.527235,50.7672758 351.527235,53.834 C351.527235,56.9007242 352.746336,59.8416619 354.916,62.009 Z" id="Path_280" fill-rule="nonzero"></path>
            <path d="M288.41,23.599 C294.57429,25.2481383 300.908434,21.5883597 302.558357,15.4242797 C304.20828,9.26019965 300.549308,2.92558998 294.385438,1.27488222 C288.221568,-0.375825537 281.886492,3.28234025 280.235,9.446 C279.441933,12.4068889 279.857726,15.5615606 281.390885,18.2158479 C282.924044,20.8701352 285.448946,22.8065516 288.41,23.599 Z" id="Path_281" fill-rule="nonzero"></path>
            <path d="M211.552,23.599 C216.812389,22.1442235 220.31693,17.1815075 219.928268,11.7375187 C219.539607,6.29352991 215.365599,1.87900705 209.951893,1.18628427 C204.538188,0.493561495 199.387119,3.71487341 197.640228,8.88560272 C195.893336,14.056332 198.035394,19.7415711 202.76,22.474 C205.424607,24.0009255 208.587452,24.4042872 211.55,23.595 L211.552,23.599 Z" id="Path_282" fill-rule="nonzero"></path>
            <path d="M128.658,62.028 C131.966252,65.3441477 136.947029,66.3395151 141.275697,64.5495434 C145.604366,62.7595717 148.42751,58.5371615 148.42751,53.853 C148.42751,49.1688385 145.604366,44.9464283 141.275697,43.1564566 C136.947029,41.3664849 131.966252,42.3618523 128.658,45.678 C124.15068,50.1960766 124.15068,57.5099234 128.658,62.028 Z" id="Path_283" fill-rule="nonzero"></path>
            <path d="M98.422,114.4 C93.137777,113.033313 87.6229532,115.583044 85.2411648,120.494045 C82.8593765,125.405046 84.2716486,131.314352 88.6165991,134.617722 C92.9615496,137.921091 99.0333114,137.70173 103.128557,134.093433 C107.223802,130.485136 108.205966,124.489323 105.476,119.763 C103.930787,117.108957 101.392595,115.179226 98.422,114.4 Z" id="Path_284" fill-rule="nonzero"></path>
            <path d="M92.444,197.22 C87.1838667,198.678883 83.6828342,203.645439 84.0766454,209.089909 C84.4704566,214.534379 88.6497908,218.945397 94.0651192,219.632099 C99.4804477,220.318801 104.628494,217.090561 106.368783,211.91671 C108.109072,206.742859 105.958506,201.05964 101.229,198.334 C98.5647911,196.810792 95.4040773,196.409991 92.444,197.22 Z" id="Path_285" fill-rule="nonzero"></path>
            <path d="M145.027,271.919 C140.513029,267.409088 133.198064,267.411281 128.686799,271.923899 C124.175533,276.436517 124.175533,283.751483 128.686799,288.264101 C133.198064,292.776719 140.513029,292.778912 145.027,288.269 C147.196419,286.101532 148.41535,283.160643 148.41535,280.094 C148.41535,277.027357 147.196419,274.086468 145.027,271.919 Z" id="Path_286" fill-rule="nonzero"></path>
            <path d="M211.552,310.329 C205.389293,308.682531 199.058071,312.3409 197.407034,318.502386 C195.755997,324.663871 199.409673,330.997802 205.569932,332.653406 C211.730192,334.30901 218.06683,330.660031 219.727,324.501 C220.525819,321.537479 220.112867,318.377911 218.579234,315.719239 C217.045601,313.060567 214.51729,311.121226 211.552,310.329 Z" id="Path_287" fill-rule="nonzero"></path>
            <path d="M288.408,310.348 C282.331803,312.033138 278.758442,318.310402 280.411443,324.395421 C282.064444,330.48044 288.322734,334.086927 294.416404,332.46611 C300.510075,330.845293 304.149588,324.606152 302.561,318.504 C301.787338,315.532178 299.853329,312.995189 297.192633,311.4619 C294.531936,309.928611 291.367182,309.527317 288.408,310.348 Z" id="Path_288" fill-rule="nonzero"></path>
            <path d="M371.266,271.919 C366.752214,267.410053 359.438246,267.412668 354.927685,271.924842 C350.417124,276.437016 350.417124,283.750984 354.927685,288.263158 C359.438246,292.775332 366.752214,292.777947 371.266,288.269 C373.435419,286.101532 374.65435,283.160643 374.65435,280.094 C374.65435,277.027357 373.435419,274.086468 371.266,271.919 Z" id="Path_289" fill-rule="nonzero"></path>
            <path d="M284.456,173.859 C281.725,176.571 279.223,179.245 276.549,181.709 C274.497184,183.571355 272.328067,185.300235 270.055,186.885 C266.855511,189.050809 262.787384,189.480533 259.206,188.031 C256.378694,187.160729 254.342504,184.688661 254.03,181.747 C250.21,184.898 246.619,188.566 241.099,188.814 C240.66,190.896 240.199,193.035 239.743,195.174 C239.486124,196.114635 239.294666,197.071923 239.17,198.039 C239.07,199.395 238.406,199.949 237.07,200.239 C233.747,200.908 226.546,202.665 226.03,202.779 C230.040667,183.984333 234.013333,165.272667 237.948,146.644 L250.21,146.644 C249.561,149.681 243.945,176.402 243.91,176.765 C243.585,179.974 245.61,181.865 248.723,180.929 C250.484607,180.22221 252.157614,179.312041 253.708,178.217 C253.956,178.083 254.033,177.587 254.108,177.243 C256.222,167.285667 258.329333,157.334667 260.43,147.39 C260.471022,147.132157 260.548111,146.881367 260.659,146.645 L272.689,146.645 C272.04,149.72 267.952,169.393 266.539,176.25 C266.427255,176.796538 266.38226,177.354619 266.405,177.912 C266.307227,179.367522 267.333019,180.658425 268.773,180.892 C270.121343,181.286493 271.571221,181.128553 272.803,180.453 C274.12085,179.709738 275.396169,178.893467 276.623,178.008 C277.916513,177.050903 279.135973,175.99758 280.271,174.857 C281.404065,173.833 282.98159,173.458513 284.454,173.864 L284.456,173.859 Z" id="Path_290"></path>
            <path d="M512.583578,385.268486 L509.548387,385.268486 L509.548387,394.784615 L509.035191,394.784615 L509.035191,385.268486 L506,385.268486 L506,384.784615 L512.671554,384.784615 L512.583578,385.268486 Z M522.656891,394.784615 L522.158358,394.784615 L521.615836,389.799278 C521.371455,387.482551 521.219942,385.962527 521.16129,385.239161 L518.375367,393.567607 L517.891496,393.567607 L515.046921,385.239161 C515.017595,385.659495 514.914957,386.700541 514.739003,388.362328 L514.607038,389.681976 L514.108505,394.784615 L513.609971,394.784615 L514.636364,384.784615 L515.398827,384.784615 L518.140762,392.951771 L520.824047,384.784615 L521.601173,384.784615 L522.656891,394.784615 Z" id="TM" fill-rule="nonzero"></path>
        </g>
    </g>
</svg>