<?xml version="1.0" encoding="UTF-8"?>
<svg width="94px" height="94px" viewBox="0 0 94 94" version="1.1" xmlns="http://www.w3.org/2000/svg" xmlns:xlink="http://www.w3.org/1999/xlink">
    <!-- Generator: Sketch 52.6 (67491) - http://www.bohemiancoding.com/sketch -->
    <title>micrometer</title>
    <desc>Created with Sketch.</desc>
    <g id="Page-1" stroke="none" stroke-width="1" fill="none" fill-rule="evenodd">
        <g id="micrometer" transform="translate(1.000000, 1.000000)">
            <circle id="Oval" stroke="#4CAFDE" stroke-width="2.8347" cx="45.79" cy="45.79" r="45.374"></circle>
            <g id="logo.65805db1" transform="translate(22.000000, 22.000000)">
                <g id="g3363" transform="translate(23.500000, 23.500000) scale(-1, 1) rotate(-180.000000) translate(-23.500000, -23.500000) ">
                    <g id="g3365" transform="translate(-0.000000, 0.000000)">
                        <g id="g3367-Clipped" transform="translate(-0.000000, 0.000000)">
                            <g id="g3367" transform="translate(0.058290, 0.175781)">
                                <g id="g3373" transform="translate(0.003789, 12.183105)" fill="#4CAFDE">
                                    <path d="M6.4119171,0.5859375 L8.20521373,4.6828125 L12.1692358,5.90244141 L15.1172604,19.8445312 L22.2534326,11.7275391 L29.2252267,19.7106445 L32.4845207,7.96259766 L34.6269754,8.46621094 L38.9937824,17.287207 L42.1504858,19.7211914 C38.6131477,27.2109375 31.0211464,32.3900391 22.2248705,32.3900391 C10.0492228,32.3900391 0.178950777,22.4680664 0.178950777,10.2290039 C0.178950777,6.59208984 1.0503886,3.15966797 2.59536917,0.131542969 L6.4119171,0.5859375 Z" id="path3375"></path>
                                </g>
                                <g id="g3377" transform="translate(4.051924, 0.218291)" fill="#205E7B">
                                    <path d="M37.0142487,27.5390625 L32.3691062,18.1570313 L26.5940091,16.7982422 L23.9575453,26.3006836 L18.2115933,19.7214844 L12.5452073,26.1667969 L10.3555376,15.8103516 L6.06538212,14.4899414 L4.15288212,10.1206055 L0.0166126943,9.628125 C3.9931671,3.83232422 10.6431995,0.0328125 18.1769106,0.0328125 C30.3525583,0.0328125 40.2228303,9.95478516 40.2228303,22.1938477 C40.2228303,24.6263672 39.8317034,26.9666016 39.111237,29.15625 L37.0142487,27.5390625 Z" id="path3379"></path>
                                </g>
                            </g>
                        </g>
                    </g>
                </g>
            </g>
        </g>
    </g>
</svg>