<svg id="Layer_1" data-name="Layer 1" xmlns="http://www.w3.org/2000/svg" viewBox="0 0 128 128"><defs><style>.cls-1{fill:#fff;}</style></defs><title>Micronuat_COnfigSharing</title><path class="cls-1" d="M48.53,56.07l3.32.56a13.78,13.78,0,0,0,1.46,3.49l-1.94,2.72a1.26,1.26,0,0,0,.14,1.62l1.16,1.16,1.16,1.17h0l0,0A1.27,1.27,0,0,0,55.5,67l2.75-2a12.49,12.49,0,0,0,3.23,1.36l.24.07.55,3.3a1.28,1.28,0,0,0,1.26,1.06H67a1.29,1.29,0,0,0,1.26-1.06l.56-3.33a13.61,13.61,0,0,0,3.55-1.49l2.69,2a1.26,1.26,0,0,0,1.62-.14l1.16-1.16L79,64.42a1.27,1.27,0,0,0,.13-1.63l-2-2.74a13.48,13.48,0,0,0,1.43-3.53L81.85,56a1.28,1.28,0,0,0,1.06-1.26V51.37a1.28,1.28,0,0,0-1.06-1.25l-3.32-.57a14.31,14.31,0,0,0-1.46-3.48L79,43.35a1.27,1.27,0,0,0-.13-1.63L77.7,40.56,76.54,39.4h0l0,0a1.27,1.27,0,0,0-1.63-.13l-2.74,2a12.92,12.92,0,0,0-3.24-1.36l-.24-.07-.55-3.3a1.25,1.25,0,0,0-1.25-1H63.42a1.27,1.27,0,0,0-1.25,1l-.57,3.33a14,14,0,0,0-3.55,1.49l-2.68-1.95a1.27,1.27,0,0,0-1.63.13L52.58,40.6l-1.16,1.17a1.27,1.27,0,0,0-.14,1.62l2,2.75a13.58,13.58,0,0,0-1.44,3.52l-3.27.55a1.25,1.25,0,0,0-1.06,1.25v3.35A1.28,1.28,0,0,0,48.53,56.07Zm7.52-3a8.69,8.69,0,0,1,.05-.89c0-.11,0-.21,0-.32s0-.37.09-.56.05-.24.08-.37.08-.32.13-.47.08-.26.13-.38a9.12,9.12,0,0,1,5.59-5.61l.42-.14.42-.11.42-.1.47-.07c.13,0,.27-.05.41-.06s.4,0,.6,0l.29,0a9.14,9.14,0,0,1,9.14,9.14v0a8.44,8.44,0,0,1,0,.87c0,.11,0,.22,0,.33a5.21,5.21,0,0,1-.08.55c0,.12-.06.25-.09.37s-.07.32-.12.48l-.13.37a9.15,9.15,0,0,1-5.59,5.61l-.42.15-.42.11-.43.1-.46.07-.41.06-.62,0h-.27a9.14,9.14,0,0,1-9.14-9.14Z"/><path class="cls-1" d="M91.89,76.59a6.14,6.14,0,0,0-2.36.29c-4.42,1.57-8.64,3.43-13,5.1a3.2,3.2,0,0,0-.59.3,5.77,5.77,0,0,1-4.32,2c-2.75,0-5.49.1-8.24.2-1.87,0-3.73.09-5.6.09a1.16,1.16,0,0,1-1.08-1.07.73.73,0,0,1,.79-.79H58c2.35-.1,4.61-.1,7-.2s4.9-.09,7.26-.19a2.93,2.93,0,0,0,2.84-3,3,3,0,0,0-3.14-3c-.88,0-1.86,0-2.94-.1A18.76,18.76,0,0,1,66.66,76a19.12,19.12,0,0,1-5.3-.49,9.38,9.38,0,0,1-2.15-1.18A38.4,38.4,0,0,0,56.07,72a10.92,10.92,0,0,0-5-1.27c-1.77-.1-3.43-.1-5.2-.1v-.2c0-1.17-.59-1.67-1.77-1.57-2.25,0-6.57.1-8.54.2a1,1,0,0,0-1,1.08c.1,1.27.2,2.45.4,3.63a37.83,37.83,0,0,0,6,15.7,1,1,0,0,0,.79.39c1,0,2.06,0,3-.09a1.48,1.48,0,0,0,1.57-1.67v-.59c2.26.69,9.13,3.53,13.44,4.61a15.85,15.85,0,0,0,10.6-.88c10.21-4.42,12.27-6.28,21.69-10.9a1.88,1.88,0,0,0,.88-.88A1.7,1.7,0,0,0,91.89,76.59Z"/><path class="cls-1" d="M64,4A60,60,0,1,1,4,64,60.07,60.07,0,0,1,64,4m0-4a64,64,0,1,0,64,64A64,64,0,0,0,64,0Z"/></svg>