<svg id="Layer_1" data-name="Layer 1" xmlns="http://www.w3.org/2000/svg" viewBox="0 0 128 128"><defs><style>.cls-1{fill:#fff;}</style></defs><title>Micronuat_HTTPRouting</title><path class="cls-1" d="M87.1,74.93H81.39A6.39,6.39,0,0,0,75,81.33v2.26l-6.74-4,0,3-4,0c-15,0-20.85-2.59-20.85-9.23,0-7.38,6.73-8.68,20.85-8.68h2.09c6.85,0,12.77.07,16.24-3.39,1.86-1.84,2.76-4.44,2.76-7.94,0-11-9.31-11-21.09-11h-4.5v-3L53,43.25V41a6.39,6.39,0,0,0-6.39-6.39H40.9A6.39,6.39,0,0,0,34.51,41v5.7a6.39,6.39,0,0,0,6.39,6.4h5.71A6.39,6.39,0,0,0,53,46.67V44.4l6.77,3.91v-3h4.5c12.54,0,18.09.33,18.09,8,0,2.66-.61,4.56-1.87,5.82-2.59,2.57-7.93,2.54-14.11,2.51H64.27c-10.62,0-23.85,0-23.85,11.68,0,10.75,11.47,12.23,23.85,12.23l3.94,0,0,3L75,84.74V87a6.39,6.39,0,0,0,6.39,6.39H87.1A6.39,6.39,0,0,0,93.49,87v-5.7A6.39,6.39,0,0,0,87.1,74.93Z"/><path class="cls-1" d="M64,4A60,60,0,1,1,4,64,60.07,60.07,0,0,1,64,4m0-4a64,64,0,1,0,64,64A64,64,0,0,0,64,0Z"/></svg>