<svg id="Layer_1" data-name="Layer 1" xmlns="http://www.w3.org/2000/svg" viewBox="0 0 128 128"><defs><style>.cls-1{fill:#fff;}</style></defs><title>Micronuat_AutoConfig</title><path class="cls-1" d="M64,4A60,60,0,1,1,4,64,60.07,60.07,0,0,1,64,4m0-4a64,64,0,1,0,64,64A64,64,0,0,0,64,0Z"/><path class="cls-1" d="M87.24,60.21l-4.59-.82a18.49,18.49,0,0,0-2-5l2.74-3.78a1.75,1.75,0,0,0-.16-2.26l-1.6-1.64L80,45.09a1.76,1.76,0,0,0-2.26-.21l-3.83,2.66a17.81,17.81,0,0,0-5.07-2.13l-.72-4.56a1.75,1.75,0,0,0-1.73-1.49l-2.3,0-2.31,0A1.78,1.78,0,0,0,60,40.76l-.84,4.63a18.8,18.8,0,0,0-5,2l-3.71-2.76a1.77,1.77,0,0,0-2.27.16l-1.64,1.61L45,48a1.75,1.75,0,0,0-.21,2.26l2.68,3.85a18.73,18.73,0,0,0-2.07,4.94l-4.56.72a1.77,1.77,0,0,0-1.49,1.73l0,2.31,0,2.3a1.76,1.76,0,0,0,1.45,1.76l4.63.84a19,19,0,0,0,2,5l-2.72,3.73a1.78,1.78,0,0,0,.16,2.27l1.61,1.64L48,83a1.75,1.75,0,0,0,2.26.21l3.85-2.68a18.87,18.87,0,0,0,4.82,2l.72,4.6a1.77,1.77,0,0,0,1.73,1.49l2.31,0,2.3,0a1.77,1.77,0,0,0,1.76-1.45l.82-4.59a18.94,18.94,0,0,0,4.61-1.79l-4.72-5a12.52,12.52,0,0,1-4.64.82,12.72,12.72,0,1,1,12-8l4.94,4.68A18.84,18.84,0,0,0,82.57,69l4.6-.72a1.77,1.77,0,0,0,1.49-1.73l0-2.31,0-2.3A1.82,1.82,0,0,0,87.24,60.21Z"/><path class="cls-1" d="M93.61,90.85l-26.78-27h0l-7.16-7.34-3.48,3.4,9.21,9.44,0,0L90.12,94.25Zm-34-32,6,6.18L64.5,66.12l-6-6.18Z"/><path class="cls-1" d="M39.79,55a.4.4,0,0,0-.19-.69l-3.41-.66a.38.38,0,0,1-.29-.23l-1.4-3.19a.4.4,0,0,0-.71,0l-1.68,3a.4.4,0,0,1-.31.21l-3.46.34a.4.4,0,0,0-.26.67L30.46,57a.42.42,0,0,1,.1.36l-.75,3.39a.4.4,0,0,0,.56.45l3.15-1.47a.4.4,0,0,1,.37,0l3,1.76a.4.4,0,0,0,.6-.39l-.43-3.45a.39.39,0,0,1,.13-.35Z"/><path class="cls-1" d="M81.33,36a.26.26,0,0,0-.12-.45L79,35.13a.25.25,0,0,1-.19-.15l-.92-2.11a.27.27,0,0,0-.48,0l-1.11,2a.25.25,0,0,1-.2.14l-2.29.22a.26.26,0,0,0-.16.44l1.56,1.68a.27.27,0,0,1,.07.24l-.49,2.24a.26.26,0,0,0,.37.3l2.08-1a.26.26,0,0,1,.24,0l2,1.16a.27.27,0,0,0,.4-.26l-.28-2.28a.26.26,0,0,1,.08-.23Z"/><path class="cls-1" d="M75,87.17A.12.12,0,0,0,75,87l-.9-.58a.12.12,0,0,1-.06-.1l0-1.08a.13.13,0,0,0-.21-.09l-.83.68a.11.11,0,0,1-.11,0l-1-.3a.13.13,0,0,0-.15.17l.39,1a.14.14,0,0,1,0,.11l-.61.89a.12.12,0,0,0,.11.19l1.07-.06a.16.16,0,0,1,.11,0l.66.85a.12.12,0,0,0,.21,0l.28-1a.14.14,0,0,1,.07-.08Z"/></svg>