<?xml version="1.0" encoding="UTF-8"?>
<svg width="94px" height="94px" viewBox="0 0 94 94" version="1.1" xmlns="http://www.w3.org/2000/svg" xmlns:xlink="http://www.w3.org/1999/xlink">
    <!-- Generator: Sketch 52.6 (67491) - http://www.bohemiancoding.com/sketch -->
    <title>mongodb</title>
    <desc>Created with Sketch.</desc>
    <g id="Page-1" stroke="none" stroke-width="1" fill="none" fill-rule="evenodd">
        <g id="mongodb" transform="translate(1.000000, 1.000000)">
            <circle id="Oval" stroke="#4CAFDE" stroke-width="2.8347" cx="45.79" cy="45.79" r="45.374"></circle>
            <g id="iconfinder_mongodb_1012822" transform="translate(32.000000, 18.000000)">
                <g id="Group">
                    <path d="M13.9344262,54.6333333 L12.4590164,54.1444444 C12.4590164,54.1444444 12.6229508,46.7296296 9.95901639,46.2 C8.19672131,44.162963 10.2459016,-40.9444444 16.6393443,45.9148148 C16.6393443,45.9148148 14.4262295,47.0148148 14.057377,48.8888889 C13.647541,50.7222222 13.9344262,54.6333333 13.9344262,54.6333333 Z" id="Path" fill="#FFFFFF"></path>
                    <path d="M13.9344262,54.6333333 L12.4590164,54.1444444 C12.4590164,54.1444444 12.6229508,46.7296296 9.95901639,46.2 C8.19672131,44.162963 10.2459016,-40.9444444 16.6393443,45.9148148 C16.6393443,45.9148148 14.4262295,47.0148148 14.057377,48.8888889 C13.647541,50.7222222 13.9344262,54.6333333 13.9344262,54.6333333 Z" id="Path" fill="#2E586C"></path>
                    <path d="M14.7131148,47.462963 C14.7131148,47.462963 27.5,39.1111111 24.5081967,21.7148148 C21.6393443,9.08518519 14.795082,4.92962963 14.057377,3.34074074 C13.2377049,2.2 12.4590164,0.203703704 12.4590164,0.203703704 L12.9918033,35.362963 C13.0327869,35.4444444 11.9262295,46.1592593 14.7131148,47.462963" id="Path" fill="#FFFFFF"></path>
                    <path d="M14.7131148,47.462963 C14.7131148,47.462963 27.5,39.1111111 24.5081967,21.7148148 C21.6393443,9.08518519 14.795082,4.92962963 14.057377,3.34074074 C13.2377049,2.2 12.4590164,0.203703704 12.4590164,0.203703704 L12.9918033,35.362963 C13.0327869,35.4444444 11.9262295,46.1592593 14.7131148,47.462963" id="Path" fill="#2785B1"></path>
                    <path d="M11.7213115,47.9518519 C11.7213115,47.9518519 -0.286885246,39.8037037 0.409836066,25.462963 C1.10655738,11.1222222 9.54918033,4.07407407 11.1885246,2.77037037 C12.295082,1.62962963 12.3360656,1.22222222 12.4180328,0.0814814815 C13.1557377,1.67037037 13.0327869,23.9148148 13.1147541,26.562963 C13.442623,36.6259259 12.5409836,46.037037 11.7213115,47.9518519 Z" id="Path" fill="#FFFFFF"></path>
                    <path d="M11.7213115,47.9518519 C11.7213115,47.9518519 -0.286885246,39.8037037 0.409836066,25.462963 C1.10655738,11.1222222 9.54918033,4.07407407 11.1885246,2.77037037 C12.295082,1.62962963 12.3360656,1.22222222 12.4180328,0.0814814815 C13.1557377,1.67037037 13.0327869,23.9148148 13.1147541,26.562963 C13.442623,36.6259259 12.5409836,46.037037 11.7213115,47.9518519 Z" id="Path" fill="#4CAFDE"></path>
                </g>
            </g>
        </g>
    </g>
</svg>