<?xml version="1.0" encoding="UTF-8"?>
<svg width="95px" height="95px" viewBox="0 0 95 95" version="1.1" xmlns="http://www.w3.org/2000/svg" xmlns:xlink="http://www.w3.org/1999/xlink">
    <title>mqtt</title>
    <g id="Page-1" stroke="none" stroke-width="1" fill="none" fill-rule="evenodd">
        <g id="mqtt" transform="translate(2.000000, 2.000000)">
            <circle id="Oval" stroke="#4CAFDE" stroke-width="2.8347" cx="45.374" cy="45.374" r="45.374"></circle>
            <g id="logos" transform="translate(26.000000, 25.000000)" fill="#4CAFDE" fill-rule="nonzero">
                <path d="M0.119866815,23 C0.0799112098,23 0.0399556049,23 0,23 L0,38.0250569 C0,39.1093394 0.918978912,40 2.03773585,40 L18,40 C17.8601554,30.6093394 9.88901221,23 0.119866815,23 Z" id="Path"></path>
                <path d="M0.116580311,10 C0.0777202073,10 0.0388601036,10 0,10 L0,16.5217391 C12.8044041,16.5810277 23.2189119,27.055336 23.3549223,40 L30,40 C29.8834197,23.4387352 16.515544,10 0.116580311,10 Z" id="Path"></path>
                <path d="M40,38.0078895 L40,24.1814596 C35.4263184,12.9783037 26.2198127,4.14201183 14.7461804,0 L2.01084278,0 C0.906850665,0 0,0.90729783 0,2.01183432 L0,3.94477318 C19.9901429,4.00394477 36.2543125,20.1183432 36.3725973,40 L37.9891572,40 C39.0931493,40 40,39.112426 40,38.0078895 Z" id="Path"></path>
                <path d="M34.7987013,5.65058236 C36.6298701,7.52745424 38.5,9.90349418 40,12 L40,2.01663894 C40,0.898502496 39.1233766,0 38.0324675,0 L28,0 C30.3181818,1.65723794 32.7337662,3.55407654 34.7987013,5.65058236 Z" id="Path"></path>
            </g>
        </g>
    </g>
</svg>