<?xml version="1.0" encoding="UTF-8"?>
<svg width="95px" height="95px" viewBox="0 0 95 95" version="1.1" xmlns="http://www.w3.org/2000/svg" xmlns:xlink="http://www.w3.org/1999/xlink">
    <title>multitenancy</title>
    <g id="Page-1" stroke="none" stroke-width="1" fill="none" fill-rule="evenodd">
        <g id="multitenancy" transform="translate(2.000000, 2.000000)">
            <circle id="Oval" stroke="#4CAFDE" stroke-width="2.8347" cx="45.374" cy="45.374" r="45.374"></circle>
            <g id="what-is-multitenancy" transform="translate(20.000000, 22.000000)" fill="#4CAFDE" fill-rule="nonzero">
                <path d="M4.98029577,17.9999598 C4.71896088,18.0016884 4.4683928,17.9476156 4.2906477,17.8511332 C4.24657614,17.8265204 4.2070071,17.7999545 4.17242232,17.771759 C4.13301386,17.7419937 4.11330963,17.7122283 4.07390117,17.682463 L4.01478848,17.5931671 C3.99507051,17.5307213 3.99507051,17.4670991 4.01478848,17.4046533 L4.07390117,17.3153574 C4.09906362,17.2836028 4.13217146,17.2535951 4.17242232,17.2260614 C4.21183078,17.1962961 4.25123924,17.1764525 4.2906477,17.1466872 C4.57539433,17.0038409 5.00242698,16.9608357 5.37438038,17.0375477 C5.43744359,17.0502179 5.49703769,17.0668888 5.55171845,17.0871566 C5.66236961,17.122974 5.75644573,17.1703447 5.82757768,17.2260614 C5.86698614,17.2558267 5.88669037,17.2855921 5.92609883,17.3153574 L5.98521152,17.4046533 C6.00492949,17.4670991 6.00492949,17.5307213 5.98521152,17.5931671 L5.92609883,17.682463 C5.90093638,17.7142176 5.86782854,17.7442253 5.82757768,17.771759 C5.78816922,17.8015243 5.74876076,17.8213679 5.7093523,17.8511332 C5.51214537,17.9451392 5.25183465,17.998278 4.98029577,17.9999598 L4.98029577,17.9999598 Z" id="Path"></path>
                <path d="M14.2747797,24.91354 C14.0783709,24.7680355 14.0420606,24.4981421 14.1935672,24.3098887 L14.1935672,24.3098887 C14.3458212,24.1221869 14.6282343,24.0874863 14.8252203,24.2322764 L14.8252203,24.2322764 C15.0216291,24.3777808 15.0579394,24.6476743 14.9064328,24.8359277 L14.9064328,24.8359277 C14.8209473,24.9431409 14.6864572,25.0041917 14.5454882,24.9997759 L14.5454882,24.9997759 C14.4480116,24.9989313 14.3532912,24.9687576 14.2747797,24.91354 Z M12.4747797,23.1994103 C12.2783709,23.0538764 12.2420606,22.7839283 12.3935672,22.5956368 L12.3935672,22.5956368 C12.5458212,22.407897 12.8282343,22.3731894 13.0252203,22.5180088 L13.0252203,22.5180088 C13.2216291,22.6635427 13.2579394,22.9334908 13.1064328,23.1217823 L13.1064328,23.1217823 C13.0193644,23.2271354 12.8859313,23.2877186 12.7454882,23.2856636 L12.7454882,23.2856636 C12.6482596,23.2834304 12.5539644,23.253386 12.4747797,23.1994103 L12.4747797,23.1994103 Z M10.6747797,22.3421002 C10.4783709,22.1965979 10.4420606,21.9267083 10.5935672,21.7384577 L10.5935672,21.7384577 C10.7458212,21.5507586 11.0282343,21.5160585 11.2252203,21.6608465 L11.2252203,21.6608465 C11.4216291,21.8063488 11.4579394,22.0762384 11.3064328,22.264489 L11.3064328,22.264489 C11.2209473,22.3717007 11.0864572,22.4327506 10.9454882,22.4283348 L10.9454882,22.4283348 C10.8473422,22.4315995 10.7512468,22.4009881 10.6747797,22.3421002 L10.6747797,22.3421002 Z M7.97477972,21.4849685 C7.77837089,21.3394641 7.74206063,21.0695707 7.89356717,20.8813173 L7.89356717,20.8813173 C8.04582117,20.6936154 8.32823431,20.6589149 8.52522028,20.803705 L8.52522028,20.803705 C8.72162911,20.9492094 8.75793937,21.2191028 8.60643283,21.4073562 L8.60643283,21.4073562 C8.52094727,21.5145694 8.38645717,21.5756202 8.24548819,21.5712044 L8.24548819,21.5712044 C8.14825965,21.5689717 8.05396436,21.5389333 7.97477972,21.4849685 L7.97477972,21.4849685 Z M6.17477972,19.7706828 C5.97837089,19.6251784 5.94206063,19.3552849 6.09356717,19.1670316 L6.09356717,19.1670316 C6.24582117,18.9793297 6.52823431,18.9446291 6.72522028,19.0894192 L6.72522028,19.0894192 C6.92162911,19.2349237 6.95793937,19.5048171 6.80643283,19.6930705 L6.80643283,19.6930705 C6.72094727,19.8002837 6.58645717,19.8613345 6.44548819,19.8569187 L6.44548819,19.8569187 C6.34851149,19.8533368 6.25460993,19.8234239 6.17477972,19.7706828 L6.17477972,19.7706828 Z" id="Shape"></path>
                <path d="M16.4951005,26.9995531 C16.3637981,27.0029952 16.2379053,26.8953213 16.1486009,26.7031981 C16.126458,26.6541872 16.1065774,26.6012872 16.0892009,26.5451421 C16.069401,26.4858711 16.059501,26.4266001 16.039701,26.3673291 L16.010001,26.1895161 C15.9966663,26.0591469 15.9966663,25.9247453 16.010001,25.7943761 L16.039701,25.6165631 C16.0523434,25.553331 16.0689777,25.4935773 16.0892009,25.4387501 C16.2402661,24.9880189 16.5451535,24.864565 16.7723002,25.1621521 C16.8020002,25.2016661 16.8218002,25.2411801 16.8515002,25.2806941 C16.873643,25.3297051 16.8935237,25.3826051 16.9109001,25.4387501 C16.9307001,25.4980211 16.9406001,25.5572921 16.9604,25.6165631 L16.9901,25.7943761 C17.0033,25.9247723 17.0033,26.0591199 16.9901,26.1895161 L16.9604,26.3673291 C16.9477577,26.4305612 16.9311233,26.4903149 16.9109001,26.5451421 C16.8911001,26.6044131 16.8713001,26.6439271 16.8515002,26.7031981 C16.8269414,26.7473877 16.8004338,26.7870627 16.7723002,26.8217401 C16.7426003,26.8612541 16.7129003,26.8810111 16.6832003,26.9205251 L16.5941004,26.9797961 C16.5616941,26.9952166 16.5283952,27.0018619 16.4951005,26.9995531 Z" id="Path"></path>
                <path d="M18.5035235,11.9996063 C18.4040645,11.9983654 18.3072752,11.9672544 18.2257203,11.9103119 C18.1959557,11.8904687 18.1761126,11.8706255 18.1463479,11.8507823 C18.1241569,11.8261699 18.1042329,11.7996045 18.0868187,11.7714095 C18.0669756,11.7416447 18.0570541,11.7118799 18.037211,11.6821151 L18.0074463,11.5928207 C17.9975179,11.5303761 17.9975179,11.4667549 18.0074463,11.4043103 L18.037211,11.315016 C18.0498809,11.283262 18.0665514,11.2532548 18.0868187,11.2257216 C18.1253798,11.1722791 18.1722782,11.1253805 18.2257203,11.0868192 C18.2554849,11.066976 18.2852495,11.0570544 18.3150142,11.0372112 L18.404308,11.0074464 C18.4667523,10.9975179 18.5303731,10.9975179 18.5928174,11.0074464 L18.6821112,11.0372112 C18.713865,11.0498811 18.7438721,11.0665518 18.7714051,11.0868192 C18.8011697,11.1066624 18.8210128,11.1265056 18.8507775,11.1463488 C18.9434449,11.238486 18.9967895,11.3629574 18.9996006,11.4936047 C19.0012264,11.5269856 18.9978827,11.5604228 18.9896791,11.5928207 L18.9599144,11.6821151 C18.9472445,11.7138691 18.930574,11.7438763 18.9103067,11.7714095 C18.8904636,11.8011743 18.8706205,11.8210175 18.8507775,11.8507823 C18.8261652,11.8729735 18.7996,11.8928975 18.7714051,11.9103119 C18.7416405,11.9301551 18.7118759,11.9400767 18.6821112,11.9599199 L18.5928174,11.9896847 C18.5637985,11.9978676 18.5336308,12.0012196 18.5035235,11.9996063 Z" id="Path"></path>
                <path d="M19.0067301,24.6148112 C18.9621016,24.3646497 19.1440526,24.1278642 19.4152971,24.0831143 L19.4152971,24.0831143 C19.6872312,24.0420591 19.9446253,24.209442 19.9932699,24.458969 L19.9932699,24.458969 C20.0378984,24.7091304 19.8559474,24.945916 19.5847029,24.9906658 L19.5847029,24.9906658 C19.5588472,24.9976851 19.5319209,25.0007814 19.5049825,24.999833 L19.5049825,24.999833 C19.2603749,24.9971374 19.0518376,24.8359913 19.0067301,24.6148112 Z M19.0067301,22.7687546 C18.9621016,22.5185479 19.1440526,22.2817196 19.4152971,22.2369616 L19.4152971,22.2369616 C19.6872312,22.1958989 19.9446253,22.3633121 19.9932699,22.6128843 L19.9932699,22.6128843 C20.0378984,22.863091 19.8559474,23.0999193 19.5847029,23.1446773 L19.5847029,23.1446773 C19.5548078,23.1446773 19.5249126,23.1538462 19.4950175,23.1538462 L19.4950175,23.1538462 C19.2519551,23.1522535 19.0456149,22.9895217 19.0067301,22.7687546 Z M18.0067301,19.9994265 C17.9621016,19.7492651 18.1440526,19.5124796 18.4152971,19.4677297 L18.4152971,19.4677297 C18.6872312,19.4266745 18.9446253,19.5940573 18.9932699,19.8435844 L18.9932699,19.8435844 C19.0378984,20.0937458 18.8559474,20.3305313 18.5847029,20.3752812 L18.5847029,20.3752812 C18.5588472,20.3823005 18.5319209,20.3853968 18.5049825,20.3844484 L18.5049825,20.3844484 C18.2603749,20.3817527 18.0518376,20.2206067 18.0067301,19.9994265 L18.0067301,19.9994265 Z M18.0067301,18.15337 C17.9621016,17.9031633 18.1440526,17.6663349 18.4152971,17.621577 L18.4152971,17.621577 C18.6872312,17.5805143 18.9446253,17.7479275 18.9932699,17.9974996 L18.9932699,17.9974996 C19.0378984,18.2477064 18.8559474,18.4845347 18.5847029,18.5292927 L18.5847029,18.5292927 C18.5548078,18.5292927 18.5249126,18.5384615 18.5049825,18.5384615 L18.5049825,18.5384615 C18.2603749,18.5357654 18.0518376,18.3745902 18.0067301,18.15337 L18.0067301,18.15337 Z M17.0067301,15.3841383 C16.9621016,15.133932 17.1440526,14.8971041 17.4152971,14.8523462 L17.4152971,14.8523462 C17.6872312,14.8112836 17.9446253,14.9786965 17.9932699,15.2282682 L17.9932699,15.2282682 C18.0378984,15.4784744 17.8559474,15.7153024 17.5847029,15.7600602 L17.5847029,15.7600602 C17.5548078,15.7600602 17.5249126,15.7692308 17.5049825,15.7692308 L17.5049825,15.7692308 C17.259057,15.7698379 17.048527,15.6071229 17.0067301,15.3841383 L17.0067301,15.3841383 Z M17.0067301,13.5379854 C16.9621016,13.2877787 17.1440526,13.0509503 17.4152971,13.0061924 L17.4152971,13.0061924 C17.6872312,12.9651297 17.9446253,13.1325429 17.9932699,13.382115 L17.9932699,13.382115 C18.0378984,13.6323218 17.8559474,13.8691501 17.5847029,13.9139081 L17.5847029,13.9139081 C17.5548078,13.9139081 17.5249126,13.9230769 17.5049825,13.9230769 L17.5049825,13.9230769 C17.2616473,13.9172591 17.0549598,13.7575135 17.0067301,13.5379854 L17.0067301,13.5379854 Z" id="Shape"></path>
                <path d="M20,26.9941087 C19.9337057,26.9973117 19.8672996,26.9907243 19.8029575,26.9745622 L19.6256192,26.9159227 C19.562556,26.8909617 19.5029618,26.8581189 19.448281,26.8181902 C19.3891682,26.7790972 19.3497597,26.7400042 19.290647,26.7009112 C19.2465754,26.6524225 19.2070063,26.6000861 19.1724215,26.5445392 C19.133013,26.4858997 19.1133087,26.4272602 19.0739002,26.3686207 L19.0147875,26.1927022 C18.9950708,26.0631261 18.9950708,25.9313483 19.0147875,25.8017722 L19.0739002,25.6258537 C19.0990627,25.5632954 19.1321706,25.5041783 19.1724215,25.4499353 C19.2490041,25.3446486 19.3421446,25.2522538 19.448281,25.1762843 C19.5073937,25.1371913 19.5665065,25.1176448 19.6256192,25.0785518 L19.8029575,25.0199123 C19.9949402,24.9799527 20.1947096,25.000453 20.3743808,25.0785518 C20.437444,25.1035128 20.4970382,25.1363556 20.551719,25.1762843 C20.6108318,25.2153773 20.6502403,25.2544703 20.709353,25.2935633 C20.7534246,25.342052 20.7929937,25.3943884 20.8275785,25.4499353 C20.866987,25.5085748 20.8866913,25.5672143 20.9260998,25.6258537 L20.9852125,25.8017722 C21.0049292,25.9313483 21.0049292,26.0631261 20.9852125,26.1927022 L20.9260998,26.3686207 C20.9009373,26.4311791 20.8678294,26.4902962 20.8275785,26.5445392 C20.7509959,26.6498259 20.6578554,26.7422207 20.551719,26.8181902 C20.4926063,26.8572832 20.4334935,26.8768297 20.3743808,26.9159227 L20.1970425,26.9745622 C20.1345645,26.9995033 20.0662195,27.0062831 20,26.9941087 L20,26.9941087 Z" id="Path"></path>
                <path d="M32.4936019,11.9901261 C32.3620137,11.9918463 32.2358468,11.9380342 32.1463479,11.8420169 C32.1241569,11.8175227 32.1042329,11.7910849 32.0868187,11.7630253 C32.0669756,11.7334035 32.0570541,11.7037816 32.037211,11.6741598 L32.0074463,11.5852943 C31.9975179,11.5231496 31.9975179,11.459834 32.0074463,11.3976893 L32.037211,11.3088238 C32.0498809,11.2772223 32.0665514,11.2473592 32.0868187,11.2199582 C32.2170041,11.0204111 32.4738479,10.9449847 32.6920328,11.0422272 C32.7237866,11.0548363 32.7537936,11.0714269 32.7813267,11.0915969 C32.9195035,11.1845304 33.0015123,11.3403416 32.9996006,11.5063027 C33.0012264,11.5395232 32.9978827,11.5727998 32.9896791,11.6050422 L32.9599144,11.6939077 C32.9472445,11.7255091 32.930574,11.7553722 32.9103067,11.7827732 C32.8904636,11.812395 32.8706205,11.8321429 32.8507775,11.8617648 C32.8261652,11.8838494 32.7996,11.9036777 32.7714051,11.9210084 C32.7416405,11.9407563 32.7118759,11.9506303 32.6821112,11.9703782 L32.5928174,12 C32.5605118,11.991325 32.5269939,11.9879893 32.4936019,11.9901261 Z" id="Path"></path>
                <path d="M30.4142959,24.9904605 C30.1454152,24.942173 29.9653734,24.707725 30.0056191,24.4582871 L30.0056191,24.4582871 C30.0580763,24.2107794 30.3127696,24.0450489 30.5837472,24.0820955 L30.5837472,24.0820955 C30.7148868,24.1022656 30.8318347,24.169834 30.9085826,24.2697741 C30.9853304,24.3697142 31.0155152,24.4937399 30.992424,24.6142689 L30.992424,24.6142689 C30.9535287,24.8351939 30.747133,24.9980421 30.5040054,24.9996359 L30.5040054,24.9996359 C30.4737579,25.0011279 30.4434498,24.998028 30.4142959,24.9904605 L30.4142959,24.9904605 Z M30.4151082,23.1469712 C30.1457003,23.0986382 29.9653055,22.8639691 30.0056301,22.6142959 L30.0056301,22.6142959 C30.0275849,22.4934666 30.101132,22.3857133 30.2099151,22.3149994 C30.3186981,22.2442855 30.453698,22.2164738 30.5848918,22.2377496 L30.5848918,22.2377496 C30.8542997,22.2860826 31.0346945,22.5207518 30.9943699,22.7704249 L30.9943699,22.7704249 C30.9533406,22.9891072 30.7463098,23.1484052 30.5049936,23.1469712 L30.5049936,23.1469712 C30.4758609,23.1561378 30.4442409,23.1561378 30.4151082,23.1469712 L30.4151082,23.1469712 Z M31.4151082,20.3754364 C31.1457003,20.3271299 30.9653055,20.0925893 31.0056301,19.8430529 L31.0056301,19.8430529 C31.0581902,19.5954476 31.3133829,19.4296517 31.5848918,19.4667129 L31.5848918,19.4667129 C31.8542997,19.5150194 32.0346945,19.74956 31.9943699,19.9990964 L31.9943699,19.9990964 C31.9553984,20.2201085 31.748598,20.383021 31.5049936,20.3846154 L31.5049936,20.3846154 C31.4757825,20.3770449 31.445415,20.3739438 31.4151082,20.3754364 L31.4151082,20.3754364 Z M31.4151082,18.5315866 C31.1457003,18.4832536 30.9653055,18.2485844 31.0056301,17.9989113 L31.0056301,17.9989113 C31.0275849,17.878082 31.101132,17.7703287 31.2099151,17.6996148 C31.3186981,17.6289008 31.453698,17.6010892 31.5848918,17.622365 L31.5848918,17.622365 C31.8542997,17.670698 32.0346945,17.9053671 31.9943699,18.1550403 L31.9943699,18.1550403 C31.9533406,18.3737226 31.7463098,18.5330206 31.5049936,18.5315866 L31.5049936,18.5315866 C31.4758609,18.5407532 31.4442409,18.5407532 31.4151082,18.5315866 L31.4151082,18.5315866 Z M32.4154398,15.759148 C32.2845563,15.7389899 32.1678369,15.6714617 32.0912389,15.571581 C32.0146409,15.4717004 31.9845151,15.3477484 32.0075612,15.2272911 L32.0075612,15.2272911 C32.059916,14.9799306 32.3141119,14.8142986 32.5845602,14.8513232 L32.5845602,14.8513232 C32.7154437,14.8714813 32.8321631,14.9390095 32.9087611,15.0388902 C32.9853591,15.1387708 33.0154849,15.2627228 32.9924388,15.3831802 L32.9924388,15.3831802 C32.9536195,15.6039738 32.7476269,15.7667251 32.5049741,15.768318 L32.5049741,15.768318 C32.4747628,15.770964 32.4442841,15.7678424 32.4154398,15.759148 L32.4154398,15.759148 Z M32.4151082,13.9230672 C32.1457003,13.8743721 31.9653055,13.6379445 32.0056301,13.3864005 L32.0056301,13.3864005 C32.0275849,13.2646658 32.101132,13.1561051 32.2099151,13.0848613 C32.3186981,13.0136175 32.453698,12.9855975 32.5848918,13.0070327 L32.5848918,13.0070327 C32.8542997,13.0557278 33.0346945,13.2921554 32.9943699,13.5436994 L32.9943699,13.5436994 C32.9533406,13.7640203 32.7463098,13.924512 32.5049936,13.9230672 L32.4151082,13.9230672 L32.4151082,13.9230672 Z" id="Shape"></path>
                <path d="M30.5049751,26.9991541 C30.4714981,27.0023707 30.4379647,26.9957553 30.4054735,26.9795244 L30.3159221,26.9206356 C30.2840767,26.8955684 30.2539832,26.8625859 30.2263707,26.8224875 C30.1727745,26.7461949 30.1257409,26.6534071 30.0870686,26.5476727 C30.0671682,26.4887839 30.0572181,26.429895 30.0373178,26.3710061 L30.0074673,26.1943395 C29.9975109,26.0642124 29.9975109,25.9318742 30.0074673,25.801747 L30.0373178,25.6250804 C30.0500242,25.562256 30.0667428,25.5028875 30.0870686,25.4484138 C30.1069689,25.3895249 30.1268692,25.3502657 30.1467695,25.2913768 C30.1714527,25.2474721 30.1980946,25.2080529 30.2263707,25.1735991 C30.2562212,25.1343398 30.2860717,25.1147102 30.3159221,25.075451 L30.4054735,25.0165621 C30.5685596,24.9570878 30.7360315,25.0598751 30.8532305,25.2913768 C30.8754856,25.3400718 30.895467,25.3926307 30.9129314,25.4484138 C30.9328318,25.5073027 30.9427819,25.5661916 30.9626822,25.6250804 L30.9925327,25.801747 C31.0024891,25.9318742 31.0024891,26.0642124 30.9925327,26.1943395 L30.9626822,26.3710061 C30.9499758,26.4338305 30.9332572,26.493199 30.9129314,26.5476727 C30.8314509,26.838813 30.6733899,27.0137377 30.5049751,26.9991541 L30.5049751,26.9991541 Z" id="Path"></path>
                <path d="M45.5049751,17.9900086 C45.3380762,17.9905117 45.1816885,17.9082549 45.087069,17.7701983 C45.0671687,17.7402242 45.0572185,17.7102501 45.0373182,17.6802759 L45.0074678,17.5903535 C44.9975107,17.5274697 44.9975107,17.4634011 45.0074678,17.4005174 L45.0373182,17.310595 C45.0500247,17.2786176 45.0667433,17.2483994 45.087069,17.2206726 C45.1966809,17.052022 45.3984316,16.9686039 45.5945264,17.0108536 L45.6840777,17.0408278 C45.715923,17.0535868 45.7460166,17.0703747 45.773629,17.0907847 C45.8034794,17.1107674 45.8233797,17.1307502 45.8532302,17.1507329 C45.8754852,17.1755184 45.8954666,17.2022706 45.912931,17.2306639 C45.9328313,17.2606381 45.9427815,17.2906122 45.9626818,17.3205863 L45.9925322,17.4105087 C46.0024893,17.4733925 46.0024893,17.5374611 45.9925322,17.6003449 L45.9626818,17.6902673 C45.9499753,17.7222446 45.9332567,17.7524629 45.912931,17.7801897 C45.8930307,17.8101638 45.8731304,17.8301466 45.8532302,17.8601207 C45.828547,17.882468 45.8019051,17.9025322 45.773629,17.920069 C45.7437786,17.9400517 45.7139281,17.9500431 45.6840777,17.9700259 L45.5945264,18 C45.5655396,17.9911791 45.5351832,17.9877922 45.5049751,17.9900086 Z" id="Path"></path>
                <path d="M36.092412,24.8352341 C35.9427759,24.6471691 35.9786379,24.3775457 36.1726219,24.2321869 L36.1726219,24.2321869 C36.367176,24.0875417 36.6461025,24.1222076 36.7964769,24.3097215 L36.7964769,24.3097215 C36.946113,24.4977865 36.910251,24.7674099 36.7162669,24.9127687 L36.7162669,24.9127687 C36.6394246,24.9753961 36.5402051,25.0063349 36.4399883,24.9989183 L36.4399883,24.9989183 C36.3046421,24.9973249 36.1771329,24.9372769 36.092412,24.8352341 L36.092412,24.8352341 Z M37.8701898,23.1217552 C37.7205537,22.9334711 37.7564157,22.6635335 37.9503997,22.5180053 L37.9503997,22.5180053 C38.1449538,22.3731915 38.4238803,22.4078978 38.5742546,22.5956303 L38.5742546,22.5956303 C38.7238907,22.7839144 38.6880288,23.053852 38.4940447,23.1993802 L38.4940447,23.1993802 C38.4144813,23.2571688 38.3172252,23.2875306 38.2177661,23.2856302 L38.2177661,23.2856302 C38.0819645,23.2859243 37.953654,23.2254286 37.8701898,23.1217552 L37.8701898,23.1217552 Z M39.6479676,22.2646394 C39.4983315,22.0763479 39.5341935,21.8063998 39.7281775,21.6608659 L39.7281775,21.6608659 C39.9227315,21.5160465 40.2016581,21.5507541 40.3520324,21.7384939 L40.3520324,21.7384939 C40.5016685,21.9267854 40.4658065,22.1967335 40.2718225,22.3422674 L40.2718225,22.3422674 C40.1936154,22.3962431 40.1004843,22.4262876 40.0044561,22.4285208 L40.0044561,22.4285208 C39.8657469,22.4305757 39.7339611,22.3699925 39.6479676,22.2646394 Z M41.4257454,21.4074695 C41.2761093,21.2191854 41.3119712,20.9492478 41.5059553,20.8037196 L41.5059553,20.8037196 C41.7005093,20.6589058 41.9794359,20.6936121 42.1298102,20.8813446 L42.1298102,20.8813446 C42.2794463,21.0696287 42.2435843,21.3395663 42.0496003,21.4850945 L42.0496003,21.4850945 C41.9700369,21.542883 41.8727807,21.5732449 41.7733217,21.5713445 L41.7733217,21.5713445 C41.6379754,21.5697491 41.5104662,21.5096312 41.4257454,21.4074695 L41.4257454,21.4074695 Z M43.2035231,19.6932108 C43.053887,19.5049193 43.089749,19.2349712 43.2837331,19.0894373 L43.2837331,19.0894373 C43.4782871,18.9446179 43.7572137,18.9793255 43.907588,19.1670654 L43.907588,19.1670654 C44.0572241,19.3553569 44.0213621,19.625305 43.8273781,19.7708389 L43.8273781,19.7708389 C43.749171,19.8248145 43.6560399,19.854859 43.5600117,19.8570922 L43.5600117,19.8570922 C43.4213024,19.8591472 43.2895167,19.7985639 43.2035231,19.6932108 L43.2035231,19.6932108 Z" id="Shape"></path>
                <path d="M34.4950495,26.9995531 C34.3637338,27.0029952 34.2378283,26.8953213 34.1485149,26.7031981 C34.1263698,26.6541872 34.1064871,26.6012872 34.0891089,26.5451421 C34.0693069,26.4858711 34.0594059,26.4266001 34.039604,26.3673291 L34.009901,26.1895161 C33.9966997,26.0591199 33.9966997,25.9247723 34.009901,25.7943761 L34.039604,25.6165631 C34.0522476,25.553331 34.0688836,25.4935773 34.0891089,25.4387501 C34.2401894,24.9880189 34.5451076,24.864565 34.7722772,25.1621521 C34.8256086,25.2389398 34.8724099,25.3323296 34.9108911,25.4387501 C34.9306931,25.4980211 34.9405941,25.5572921 34.960396,25.6165631 L34.990099,25.7943761 C35.0033003,25.9247723 35.0033003,26.0591199 34.990099,26.1895161 L34.960396,26.3673291 C34.9477524,26.4305612 34.9311164,26.4903149 34.9108911,26.5451421 C34.8910891,26.6044131 34.8712871,26.6439271 34.8514851,26.7031981 C34.8269239,26.7473877 34.8004137,26.7870627 34.7722772,26.8217401 C34.7425743,26.8612541 34.7128713,26.8810111 34.6831683,26.9205251 L34.5940594,26.9797961 C34.5616498,26.9952166 34.5283476,27.0018619 34.4950495,26.9995531 Z" id="Path"></path>
                <path d="M43.6865655,28 L6.31343452,28 C5.96491379,27.9994286 5.63050139,28.1366016 5.38405968,28.3812231 C5.13761797,28.6258447 4.9994243,28.9577872 5,29.3037339 L5,41.9962661 C4.9994243,42.3422128 5.13761797,42.6741553 5.38405968,42.9187769 C5.63050139,43.1633984 5.96491379,43.3005714 6.31343452,43.3 L43.6865655,43.3 C44.0350862,43.3005714 44.3694986,43.1633984 44.6159403,42.9187769 C44.862382,42.6741553 45.0005757,42.3422128 45,41.9962661 L45,29.3037339 C44.9935163,28.5863845 44.4092524,28.0064358 43.6865655,28 Z M44.1001565,41.5 L6.77777778,41.5 L6.77777778,28.9 L44.1111111,28.9 L44.1111111,41.5 L44.1001565,41.5 Z M24.5560855,37.4989075 L24.5560855,32.9418387 C24.5483445,32.7914976 24.6258517,32.6486643 24.7594108,32.5671425 C24.8929699,32.4856208 25.0622902,32.4777958 25.2035903,32.5466152 C25.3448904,32.6154346 25.4367035,32.750443 25.4444444,32.900784 L25.4444444,37.4989075 C25.4402881,37.6110497 25.3884522,37.7168365 25.3007193,37.7922217 C25.2129865,37.8676069 25.0968101,37.9061863 24.9785977,37.8991906 C24.747655,37.8937859 24.5617904,37.7177 24.5560855,37.4989075 L24.5560855,37.4989075 Z M28.111649,37.4989082 L28.111649,32.9418465 C28.0996826,32.7094398 28.288846,32.5118465 28.5341574,32.5005096 C28.7794687,32.4891726 28.9880336,32.6683851 29,32.9007919 L29,37.4989082 C28.9958437,37.6110502 28.9440082,37.7168367 28.8562762,37.7922219 C28.7685441,37.867607 28.6523687,37.9061863 28.5341574,37.8991906 C28.3032167,37.8937859 28.1173538,37.7177003 28.111649,37.4989082 L28.111649,37.4989082 Z M31.6671966,37.4989075 L31.6671966,32.9418388 C31.6594556,32.7914977 31.7369628,32.6486643 31.8705219,32.5671425 C32.004081,32.4856208 32.1734013,32.4777958 32.3147014,32.5466152 C32.4560015,32.6154346 32.5478146,32.750443 32.5555556,32.9007841 L32.5555556,37.4989075 C32.5513992,37.6110497 32.4995633,37.7168365 32.4118304,37.7922217 C32.3240976,37.8676069 32.2079212,37.9061863 32.0897088,37.8991906 C31.8587661,37.8937859 31.6729015,37.7177 31.6671966,37.4989075 L31.6671966,37.4989075 Z M34.3338633,37.4989075 L34.3338633,32.9418387 C34.3261223,32.7914976 34.4036295,32.6486643 34.5371886,32.5671425 C34.6707477,32.4856208 34.840068,32.4777958 34.9813681,32.5466152 C35.1226682,32.6154346 35.2144812,32.750443 35.2222222,32.900784 L35.2222222,37.4989075 C35.2180659,37.6110497 35.1662299,37.7168365 35.0784971,37.7922217 C34.9907643,37.8676069 34.8745878,37.9061863 34.7563755,37.8991906 C34.5254327,37.8937859 34.3395682,37.7177 34.3338633,37.4989075 L34.3338633,37.4989075 Z M11.2227522,37.4989075 L11.2227522,32.9418387 C11.2150112,32.7914976 11.2925184,32.6486643 11.4260775,32.5671425 C11.5596366,32.4856208 11.7289569,32.4777958 11.870257,32.5466152 C12.011557,32.6154346 12.1033701,32.750443 12.1111111,32.900784 L12.1111111,37.4989075 C12.1069547,37.6110497 12.0551188,37.7168365 11.967386,37.7922217 C11.8796532,37.8676069 11.7634767,37.9061863 11.6452644,37.8991906 C11.4143216,37.8937859 11.2284571,37.7177 11.2227522,37.4989075 L11.2227522,37.4989075 Z M14.7779153,37.4793657 L14.7779153,32.9256306 C14.7779153,32.6905613 14.9768691,32.5 15.222291,32.5 C15.4677129,32.5 15.6666667,32.6905613 15.6666667,32.9256306 L15.6666667,37.4793657 C15.6655395,37.5923394 15.617452,37.7002247 15.5330468,37.7791445 C15.4486415,37.8580644 15.3348791,37.9015108 15.2169371,37.8998683 C15.0996155,37.9027145 14.9862137,37.8593263 14.9032282,37.7798414 C14.8202427,37.7003565 14.7749437,37.5917383 14.7779153,37.4793657 L14.7779153,37.4793657 Z M17.4444444,37.4704545 L17.4444444,32.9295455 C17.4444444,32.6923141 17.643429,32.5 17.8888889,32.5 C18.1343488,32.5 18.3333333,32.6923141 18.3333333,32.9295455 L18.3333333,37.4704545 C18.3333333,37.7076859 18.1343488,37.9 17.8888889,37.9 C17.643429,37.9 17.4444444,37.7076859 17.4444444,37.4704545 Z M21.00053,37.4989075 L21.00053,32.9418387 C20.992789,32.7914976 21.0702961,32.6486643 21.2038553,32.5671425 C21.3374144,32.4856208 21.5067346,32.4777958 21.6480347,32.5466152 C21.7893348,32.6154346 21.8811479,32.750443 21.8888889,32.900784 L21.8888889,37.4989075 C21.8847325,37.6110497 21.8328966,37.7168365 21.7451638,37.7922217 C21.657431,37.8676069 21.5412545,37.9061863 21.4230421,37.8991906 C21.1920994,37.8937859 21.0062348,37.7177 21.00053,37.4989075 L21.00053,37.4989075 Z M37.8894188,37.4989075 L37.8894188,32.9418387 C37.8816779,32.7914976 37.959185,32.6486643 38.0927442,32.5671425 C38.2263033,32.4856208 38.3956235,32.4777958 38.5369236,32.5466152 C38.6782237,32.6154346 38.7700368,32.750443 38.7777778,32.900784 L38.7777778,37.4989075 C38.7736214,37.6110497 38.7217855,37.7168365 38.6340527,37.7922217 C38.5463198,37.8676069 38.4301434,37.9061863 38.311931,37.8991906 C38.0809883,37.8937859 37.8951237,37.7177 37.8894188,37.4989075 L37.8894188,37.4989075 Z M38.7777778,45.100017 C38.7771879,45.596766 38.4466914,45.9992816 38.038822,46 L11.961178,46 C11.553064,46 11.2222222,45.5970639 11.2222222,45.100017 C11.2222222,44.6029701 11.553064,44.200034 11.961178,44.200034 L38.0281124,44.200034 C38.2256025,44.1979505 38.4156528,44.2916833 38.5563057,44.4605389 C38.6969585,44.6293945 38.7766469,44.8594864 38.7777778,45.100017 L38.7777778,45.100017 Z" id="Shape"></path>
                <path d="M1.20652174,6 L8.79347826,6 C9.4588315,6.0023848 9.9976152,6.5411685 10,7.20652174 L10,14.7934783 C9.9976152,15.4588315 9.4588315,15.9976152 8.79347826,16 L1.20652174,16 C0.541168503,15.9976152 0.00238480157,15.4588315 0,14.7934783 L0,7.20652174 C0.00238480157,6.5411685 0.541168503,6.0023848 1.20652174,6 Z" id="Path"></path>
                <path d="M14.2065256,0 L21.7934788,0 C22.4588317,0.00238923745 22.9976152,0.5411727 23,1.20652564 L23,8.7934788 C22.9976152,9.45883174 22.4588317,9.9976152 21.7934788,10 L14.2065256,10 C13.5411727,9.9976152 13.0023892,9.45883174 13,8.7934788 L13,1.20652564 C12.9991354,0.886270685 13.1259715,0.578882084 13.3524268,0.352426799 C13.5788821,0.125971515 13.8862707,-0.000864645096 14.2065256,0 Z" id="Path"></path>
                <path d="M35.7934783,0 C36.4588315,0.00238480157 36.9976152,0.541168503 37,1.20652174 L37,8.79347826 C36.9976152,9.4588315 36.4588315,9.9976152 35.7934783,10 L28.2065217,10 C27.5411685,9.9976152 27.0023848,9.4588315 27,8.79347826 L27,1.20652174 C27.0023848,0.541168503 27.5411685,0.00238480157 28.2065217,0 L35.7934783,0 Z" id="Path"></path>
                <path d="M42.2065256,6 L49.7934788,6 C50.4588317,6.00238924 50.9976152,6.5411727 51,7.20652564 L51,14.7934788 C50.9976152,15.4588317 50.4588317,15.9976152 49.7934788,16 L42.2065256,16 C41.5411727,15.9976152 41.0023892,15.4588317 41,14.7934788 L41,7.20652564 C40.9991354,6.88627069 41.1259715,6.57888208 41.3524268,6.3524268 C41.5788821,6.12597151 41.8862707,5.99913535 42.2065256,6 Z" id="Path"></path>
            </g>
        </g>
    </g>
</svg>