<?xml version="1.0" encoding="UTF-8"?>
<svg width="94px" height="94px" viewBox="0 0 94 94" version="1.1" xmlns="http://www.w3.org/2000/svg" xmlns:xlink="http://www.w3.org/1999/xlink">
    <!-- Generator: Sketch 52.6 (67491) - http://www.bohemiancoding.com/sketch -->
    <title>neo4j</title>
    <desc>Created with Sketch.</desc>
    <g id="Page-1" stroke="none" stroke-width="1" fill="none" fill-rule="evenodd">
        <g id="neo4j" transform="translate(1.000000, 1.000000)">
            <circle id="Oval" stroke="#4CAFDE" stroke-width="2.8347" cx="45.79" cy="45.79" r="45.374"></circle>
            <g transform="translate(46.500000, 46.000000) scale(-1, 1) translate(-46.500000, -46.000000) translate(18.000000, 14.000000)">
                <path d="M54,28.9998943 C54,43.9128221 41.9126475,56 27,56 C12.0873525,56 0,43.9128221 0,28.9998943 C0,14.0874105 12.0873525,2.00001062 27,2.00001062 C41.9126475,1.98691509 53.999778,14.0871885 53.999778,28.9998943" id="Path" fill="#4CAFDE"></path>
                <path d="M12.3168571,20.0118422 C12.3168571,21.2083139 11.3488992,22.1810605 10.1585395,22.1810605 C8.96795793,22.1810605 8,21.208537 8,20.0118422 C8,18.8155936 8.96773597,17.842847 10.1585395,17.842847 C10.7314673,17.8411819 11.281407,18.0691657 11.6865298,18.4762927 C12.0916526,18.8834197 12.318514,19.4360801 12.3168571,20.0118422 M12.6830874,25.9672108 C12.6830874,27.1634594 11.7151295,28.1364291 10.5247699,28.1364291 C9.33441024,28.1364291 8.36623036,27.1634594 8.36623036,25.9672108 C8.36623036,24.7707391 9.33441024,23.7982156 10.5247699,23.7982156 C11.0976976,23.7965505 11.6476373,24.0245342 12.0527601,24.4316612 C12.4578829,24.8387882 12.6847443,25.3914486 12.6830874,25.9672108 M14.0044022,32.2774612 C14.0044022,33.4737098 13.0362223,34.4464565 11.8458626,34.4464565 C10.655503,34.4464565 9.68732313,33.4737098 9.68732313,32.2774612 C9.68732313,31.0807665 10.655503,30.1082429 11.8458626,30.1082429 C13.0362223,30.0950826 14.0041802,31.0678293 14.0041802,32.2774612 M16.9608799,37.930143 C16.9608799,39.1263916 15.9924781,40.0993612 14.8021185,40.0993612 C13.6117588,40.0993612 12.6438009,39.1263916 12.6438009,37.930143 C12.6438009,36.7336713 13.6117588,35.7611477 14.8021185,35.7611477 C15.9924781,35.7477644 16.960658,36.7207341 16.960658,37.930143 M40.0755643,45.8310048 C40.0755643,47.0272534 39.1076064,48 37.9170248,48 C36.7266651,48 35.7587072,47.0272534 35.7587072,45.8310048 C35.7587072,44.6347562 36.7264432,43.6617865 37.9170248,43.6617865 C39.1076064,43.6617865 40.0755643,44.6347562 40.0755643,45.8310048 M43.999778,41.1640069 C43.999778,42.3602555 43.0320421,43.3330021 41.8412385,43.3330021 C40.6508789,43.3330021 39.682921,42.3604786 39.682921,41.1640069 C39.682921,39.9677583 40.6508789,38.9947886 41.8412385,38.9947886 C43.0320421,38.9947886 44,39.9677583 44,41.1640069 M32.6191143,8.16735273 C32.6191143,9.36360134 31.6509344,10.336348 30.4605747,10.336348 C29.2702151,10.336348 28.3022572,9.36382439 28.3022572,8.16735273 C28.3022572,6.97110413 29.2702151,5.9983575 30.4605747,5.9983575 C31.6509344,5.9983575 32.6191143,6.97088107 32.6191143,8.16735273 M26.9418779,6.16921829 C26.9418779,7.3654669 25.973698,8.33821353 24.7833384,8.33821353 C23.5929787,8.33821353 22.6250208,7.36568995 22.6250208,6.16921829 C22.6250208,4.97296968 23.5927568,4 24.7833384,4 C25.973698,4 26.9418779,4.97296968 26.9418779,6.16921829" id="Shape" fill="#FFFFFF" fill-rule="nonzero"></path>
                <path d="M42.5,8 C50.5079901,8 57,14.4920099 57,22.5 C57,30.5079901 50.5079901,37 42.5,37 C34.4917862,37 28,30.5079901 28,22.5 C28,14.4920099 34.4917862,8 42.5,8" id="Path" fill="#4CAFDE"></path>
                <path d="M42.0001127,38 C33.7290604,38 27,31.270889 27,23 C27,14.7288856 33.7290604,8 42.0001127,8 C50.2709396,8 57,14.7286603 57,23 C57,31.270889 50.2709396,38 42.0001127,38 Z M42.0001127,8.7823814 C34.1605838,8.7823814 27.7826009,15.1606376 27.7826009,23 C27.7826009,30.8395878 34.1605838,37.2173933 42.0001127,37.2173933 C49.8396416,37.2173933 56.2173991,30.8395878 56.2173991,23 C56.2173991,15.1604122 49.8396416,8.78260674 42.0001127,8.78260674 L42.0001127,8.7823814 Z" id="Shape" fill="#FFFFFF" fill-rule="nonzero"></path>
                <path d="M22,40 C28.627227,40 34,45.1485224 34,51.4998916 C34,57.851044 28.627227,63 22,63 C15.3725468,63 10,57.851044 10,51.4998916 C10,45.1485224 15.3725468,40 22,40" id="Path" fill="#4CAFDE"></path>
                <path d="M22.5,64 C15.6073039,64 10,58.6167692 10,52 C10,45.3830117 15.6073039,40 22.5002282,40 C29.3926961,40 35,45.3830117 35,52.0002191 C35,58.6167692 29.3926961,64 22.5,64 Z M22.5,40.7608025 C16.0445152,40.7608025 10.7925026,45.8025156 10.7925026,52 C10.7925026,58.1972654 16.0445152,63.2391975 22.5,63.2391975 C28.9554848,63.2391975 34.2074974,58.1972654 34.2074974,52 C34.2074974,45.8027346 28.9554848,40.7608025 22.5,40.7608025 Z" id="Shape" fill="#FFFFFF" fill-rule="nonzero"></path>
                <path d="M12.9998869,0 C17.4182515,0 21,3.5819241 21,8 C21,12.4183021 17.4182515,16 12.9998869,16 C8.58152228,16 5,12.4183021 5,8 C5,3.58169787 8.58174851,0 12.9998869,0" id="Path" fill="#4CAFDE"></path>
                <path d="M12.5,16 C7.8130627,16 4,12.4112351 4,8 C4,3.58876489 7.8130627,0 12.5,0 C17.1869373,0 21,3.58876489 21,8 C21,12.4112351 17.1869373,16 12.5,16 Z M12.5,0.748935253 C8.25206211,0.748935253 4.79574371,4.00172516 4.79574371,8 C4.79574371,11.9982748 8.25183298,15.2512804 12.5,15.2512804 C16.748167,15.2512804 20.2044854,11.9982748 20.2044854,8 C20.2044854,4.00194081 16.748167,0.748935253 12.5,0.748935253 Z" id="Shape" fill="#FFFFFF" fill-rule="nonzero"></path>
            </g>
        </g>
    </g>
</svg>