<?xml version="1.0" encoding="UTF-8"?>
<svg width="497px" height="100px" viewBox="0 0 497 100" version="1.1" xmlns="http://www.w3.org/2000/svg" xmlns:xlink="http://www.w3.org/1999/xlink">
    <!-- Generator: Sketch 49.1 (51147) - http://www.bohemiancoding.com/sketch -->
    <title>ocilogo</title>
    <desc>Created with Sketch.</desc>
    <defs>
        <polygon id="path-1" points="0.0880459057 0.124662813 94.8768977 0.124662813 94.8768977 99.807253 0.0880459057 99.807253"></polygon>
    </defs>
    <g id="Page-1" stroke="none" stroke-width="1" fill="none" fill-rule="evenodd">
        <g id="ocilogo" transform="translate(-34.000000, -29.000000)">
            <rect id="Rectangle" x="0" y="0" width="582" height="158"></rect>
            <g transform="translate(34.000000, 29.000000)">
                <g id="Group-4">
                    <mask id="mask-2" fill="white">
                        <use xlink:href="#path-1"></use>
                    </mask>
                    <g id="Clip-2"></g>
                    <path d="M54.083665,98.59384 C54.083665,99.4795931 53.3646234,99.999235 52.4915016,99.7408903 L1.59509833,84.805616 C0.717574132,84.5428426 0,83.6128018 0,82.7255724 L0,28.471716 C0,27.5815341 0.717574132,27.0677972 1.59509833,27.3261419 L52.4915016,42.2599399 C53.3646234,42.5138558 54.083665,43.4557067 54.083665,44.3414598 L54.083665,98.59384 Z M37.504621,54.8036807 C37.504621,53.9149751 36.7870468,52.971648 35.9139249,52.700017 L16.3266458,46.6488468 C15.4564587,46.3772158 14.740352,46.8850476 14.740352,47.7708007 L14.740352,71.0823473 C14.740352,71.9710529 15.4564587,72.9158563 16.3266458,73.1874872 L35.9139249,79.235705 C36.7870468,79.5073359 37.504621,79.0039329 37.504621,78.1181798 L37.504621,54.8036807 Z" id="Fill-1" fill="#255AA8" mask="url(#mask-2)"></path>
                    <path d="M81.7990487,11.1316219 L94.1812379,14.5919642 C95.0778387,14.8562139 95.1130571,15.5087187 94.2560769,16.0386943 L58.0868189,38.9486994 C57.2283713,39.4875326 55.7888207,39.7030659 54.8878176,39.4402924 L2.67219324,24.1994333 C1.76825527,23.9366599 1.73450434,23.2856313 2.59148449,22.7541794 L40.8679746,0.726974952 C41.7264221,0.194046809 43.1659727,-0.0288677321 44.0655084,0.235381956 L52.965482,2.90740394 L53.6903933,3.13031849 C54.8878176,3.43147456 55.0595071,3.88616117 55.0668443,4.14598209 C55.0815186,4.66119517 54.5591129,5.01697269 54.5591129,5.01697269 L31.7112004,18.8435793 C30.8542202,19.3765074 30.8747643,20.0349173 31.7522885,20.305072 L51.6682723,26.1451377 C52.5501988,26.4123399 53.9750751,26.1968066 54.8349901,25.6653548 L77.2279988,12.156143 C77.2279988,12.156143 78.4136836,11.5759747 79.3455028,11.1788621 C80.6236359,10.6385526 81.7990487,11.1316219 81.7990487,11.1316219" id="Fill-3" fill="#66D8E0" mask="url(#mask-2)"></path>
                </g>
                <path d="M85.0632444,50.4924717 C85.0747433,49.1087347 85.7776181,48.4241337 86.6486653,47.8703483 L96.9876797,41.2176549 C97.863039,40.6609624 99,41.2103873 99,42.4298782 L98.9913758,71.6932988 C98.9281314,72.8502889 99.0057495,73.5843091 97.1889117,74.8430446 L86.3683778,82.761741 C85.4930185,83.319887 85,82.8358698 85,81.9477781 L85.0632444,50.4924717" id="Fill-5" fill="#FEB672"></path>
                <path d="M84,28.5628651 C84,27.6557506 84.7458894,26.4502237 85.651719,25.8816069 L97.4245142,18.2164156 C98.3318386,17.6463142 99,18.2832243 99,19.1888541 L98.9431988,33.7665249 C98.8759342,34.8399189 98.3931241,35.6638936 97.4140508,36.3097116 L85.5769806,43.7269683 C84.6696562,44.2911311 84.0029895,43.9422409 84.0029895,43.0366111 L84,28.5628651" id="Fill-6" fill="#FEB672"></path>
                <g id="OCI" transform="translate(121.000000, 51.000000)" fill="#7B7C81">
                    <path d="M0.172539604,6.9891208 C0.172539604,5.92735243 0.351643564,4.96956413 0.708371287,4.10403985 C1.0710198,3.24730262 1.56984653,2.51358406 2.21521287,1.90874222 C2.85465842,1.30390037 3.61992079,0.841115816 4.50359901,0.517459527 C5.38431683,0.189409714 6.34940594,0.0297783313 7.39442574,0.0297783313 C8.44240594,0.0297783313 9.40749505,0.189409714 10.2896931,0.517459527 C11.1704109,0.841115816 11.9327129,1.30390037 12.576599,1.90874222 C13.219005,2.51358406 13.7207921,3.24730262 14.0819604,4.10403985 C14.4401683,4.96956413 14.6192723,5.92735243 14.6192723,6.9891208 C14.6192723,8.04942466 14.4401683,9.00721295 14.0819604,9.86980822 C13.7207921,10.7294745 13.219005,11.4617285 12.576599,12.0665704 C11.9327129,12.6714122 11.1704109,13.1371258 10.2896931,13.4593176 C9.40749505,13.7844384 8.44240594,13.9440697 7.39442574,13.9440697 C6.34940594,13.9440697 5.38431683,13.7844384 4.50359901,13.4593176 C3.61992079,13.1371258 2.85465842,12.6714122 2.21521287,12.0665704 C1.56984653,11.4617285 1.0710198,10.7294745 0.708371287,9.86980822 C0.351643564,9.00721295 0.172539604,8.04942466 0.172539604,6.9891208 M3.23506931,6.9891208 C3.23506931,7.61007223 3.33128218,8.18123039 3.52814851,8.69966625 C3.72353465,9.21810212 4.00181188,9.66917061 4.36890099,10.0426202 C4.7330297,10.4277858 5.17412871,10.7236164 5.68331683,10.9315766 C6.19546535,11.1453948 6.76534158,11.2537684 7.39442574,11.2537684 C8.0249901,11.2537684 8.59486634,11.1453948 9.10701485,10.9315766 C9.61472277,10.7236164 10.0543416,10.4277858 10.4199505,10.0426202 C10.7855594,9.66917061 11.066797,9.21810212 11.260703,8.69966625 C11.4560891,8.18123039 11.5567426,7.61007223 11.5567426,6.9891208 C11.5567426,6.37549191 11.4560891,5.80872727 11.260703,5.28296887 C11.066797,4.75867497 10.7855594,4.312 10.4199505,3.9312279 C10.0543416,3.54752677 9.61472277,3.25316065 9.10701485,3.04227148 C8.59486634,2.8284533 8.0249901,2.7200797 7.39442574,2.7200797 C6.76534158,2.7200797 6.19546535,2.8284533 5.68331683,3.04227148 C5.17412871,3.25316065 4.7330297,3.54752677 4.36890099,3.9312279 C4.00181188,4.312 3.72353465,4.75867497 3.52814851,5.28296887 C3.33128218,5.80872727 3.23506931,6.37549191 3.23506931,6.9891208" id="Fill-7"></path>
                    <path d="M27.9025693,3.80820922 C27.6124505,3.45526276 27.2557228,3.1901868 26.8338663,3.00565878 C26.4134901,2.81527273 25.9220644,2.7200797 25.3699505,2.7200797 C24.813396,2.7200797 24.3012475,2.82991781 23.8275842,3.04080697 C23.3539208,3.25462516 22.9453861,3.55045579 22.5990198,3.92976339 C22.2526535,4.312 21.9817772,4.75867497 21.7834307,5.28296887 C21.5895248,5.80726276 21.4918317,6.3740274 21.4918317,6.9891208 C21.4918317,7.61300125 21.5895248,8.18269489 21.7834307,8.69966625 C21.9817772,9.21663761 22.2482129,9.66624159 22.5916188,10.0470137 C22.9305842,10.4277858 23.3302376,10.7236164 23.789099,10.9315766 C24.2509208,11.1453948 24.7438267,11.2508394 25.2752178,11.2508394 C25.8791386,11.2508394 26.4149703,11.1278207 26.8812327,10.8803188 C27.3460149,10.6298879 27.7338267,10.278406 28.0357871,9.83173101 L30.4914356,11.6491856 C29.926,12.4341619 29.208104,13.0126426 28.3362673,13.3875567 C27.4659109,13.7595417 26.5733515,13.9440697 25.6526683,13.9440697 C24.6046881,13.9440697 23.6425594,13.7844384 22.7603614,13.4593176 C21.8796436,13.1327323 21.1158614,12.6714122 20.4690149,12.0665704 C19.8280891,11.4617285 19.326302,10.7294745 18.9680941,9.86834371 C18.6098861,9.00867746 18.429302,8.04942466 18.429302,6.9891208 C18.429302,5.92735243 18.6098861,4.96956413 18.9680941,4.10403985 C19.326302,3.24583811 19.8280891,2.51358406 20.4690149,1.9058132 C21.1158614,1.30390037 21.8796436,0.839651308 22.7603614,0.515995019 C23.6425594,0.189409714 24.6046881,0.0283138232 25.6526683,0.0283138232 C26.0301188,0.0283138232 26.4223713,0.0619975093 26.8338663,0.13082939 C27.242401,0.19966127 27.646495,0.308034869 28.0431881,0.460343711 C28.4398812,0.606794521 28.8247327,0.808896638 29.1873812,1.05932752 C29.5529901,1.30682939 29.8801139,1.6158406 30.1731931,1.97318057 L27.9025693,3.80820922" id="Fill-8"></path>
                    <polygon id="Fill-9" points="35.9829703 13.6086974 38.933005 13.6086974 38.933005 0.363686177 35.9829703 0.363686177"></polygon>
                </g>
                <g id="We-are-Software-Engineers" transform="translate(188.000000, 51.000000)" fill="#7B7C81">
                    <polyline id="Fill-10" points="0.0969084475 0.335494203 1.29582139 0.335494203 4.40739127 11.2376899 4.44425821 11.2376899 7.60891648 0.335494203 9.09244221 0.335494203 12.2541511 11.2376899 12.2880687 11.2376899 15.3996386 0.335494203 16.5985515 0.335494203 12.9605217 12.6463435 11.527135 12.6463435 8.36837548 1.69192174 8.32855918 1.69192174 5.16832494 12.6463435 3.73788761 12.6463435 0.0969084475 0.335494203"></polyline>
                    <polyline id="Fill-11" points="20.1716955 0.335494203 27.8252726 0.335494203 27.8252726 1.37711449 21.3381655 1.37711449 21.3381655 5.75975362 27.4182616 5.75975362 27.4182616 6.80282464 21.3381655 6.80282464 21.3381655 11.6047232 28.1054614 11.6047232 28.1054614 12.6463435 20.1716955 12.6463435 20.1716955 0.335494203"></polyline>
                    <path d="M42.6133402,0.335494203 L43.8122532,0.335494203 L49.0842258,12.6463435 L47.7717627,12.6463435 L46.4150593,9.37641014 L39.7849085,9.37641014 L38.3736419,12.6463435 L37.1540835,12.6463435 L42.6133402,0.335494203 Z M43.1604457,1.58311739 L40.2464826,8.33624058 L45.9888774,8.33624058 L43.1604457,1.58311739 Z" id="Fill-12"></path>
                    <path d="M52.6529458,0.335494203 L55.9400023,0.335494203 C56.1036915,0.335494203 56.3263679,0.339846377 56.6109806,0.354353623 C56.8941188,0.361607246 57.1964277,0.393523188 57.5252808,0.454453623 C57.8556086,0.512482609 58.1888857,0.608230435 58.5369097,0.732992754 C58.8746109,0.859205797 59.1842932,1.04634928 59.4526845,1.29007101 C59.7254999,1.5308913 59.9481762,1.83844493 60.1251375,2.21128116 C60.3020988,2.58411739 60.3876301,3.03384203 60.3876301,3.57061014 C60.3876301,4.15815362 60.2903014,4.64269565 60.0823719,5.03003913 C59.8744423,5.41448116 59.6148991,5.72058406 59.3037421,5.95995362 C58.9925851,6.19352029 58.6475105,6.37631159 58.265569,6.48946812 C57.8924755,6.60697681 57.5341289,6.68821739 57.1934783,6.73173913 L60.8344575,12.6463435 L59.5072476,12.6463435 L55.9930907,6.80282464 L53.8179411,6.80282464 L53.8179411,12.6463435 L52.6529458,12.6463435 L52.6529458,0.335494203 Z M53.8179411,5.75975362 L56.2880262,5.75975362 C56.9014921,5.75975362 57.4014079,5.68721739 57.7833494,5.52908841 C58.1682403,5.37966377 58.4675998,5.19687246 58.67258,4.97491159 C58.8893576,4.75875362 59.0309267,4.52083478 59.1076099,4.26115507 C59.1842932,4.00872899 59.2270588,3.77516232 59.2270588,3.57061014 C59.2270588,3.35735362 59.1842932,3.12668841 59.1076099,2.87281159 C59.0309267,2.61748406 58.8893576,2.38101594 58.67258,2.1605058 C58.4675998,1.94434783 58.1682403,1.7543029 57.7833494,1.60197681 C57.4014079,1.45255217 56.9014921,1.37711449 56.2880262,1.37711449 L53.8179411,1.37711449 L53.8179411,5.75975362 Z" id="Fill-13"></path>
                    <polyline id="Fill-14" points="64.8957198 0.335494203 72.5478222 0.335494203 72.5478222 1.37711449 66.0621898 1.37711449 66.0621898 5.75975362 72.1408111 5.75975362 72.1408111 6.80282464 66.0621898 6.80282464 66.0621898 11.6047232 72.8294856 11.6047232 72.8294856 12.6463435 64.8957198 12.6463435 64.8957198 0.335494203"></polyline>
                    <path d="M83.8394291,10.3672551 C84.1446873,10.8909667 84.544325,11.2797609 85.0309686,11.5336377 C85.5220363,11.7875145 86.0809391,11.9180797 86.7003037,11.9180797 C87.0910933,11.9180797 87.4568134,11.8571493 87.7989386,11.742542 C88.1381145,11.6250333 88.4389487,11.4625522 88.6925933,11.2565493 C88.9447632,11.0461942 89.1453193,10.7966696 89.2913124,10.4963696 C89.4402548,10.2047739 89.5139887,9.86965652 89.5139887,9.49827101 C89.5139887,9.07175797 89.421084,8.71778116 89.2411734,8.4377913 C89.0538893,8.15925217 88.8090928,7.92858696 88.5038345,7.75014783 C88.1971016,7.5717087 87.856451,7.41938261 87.4730348,7.28881739 C87.0866693,7.16260435 86.694405,7.03348986 86.2859193,6.90727681 C85.880383,6.77961304 85.4851693,6.63454058 85.1002785,6.4706087 C84.722761,6.30667681 84.3747371,6.10067391 84.0694788,5.8351913 C83.7627458,5.57696232 83.5164747,5.25054928 83.336564,4.85450145 C83.1507546,4.45990435 83.0637486,3.97101014 83.0637486,3.39652319 C83.0637486,2.85105072 83.1714001,2.36505797 83.3881777,1.94434783 C83.60643,1.52073623 83.8984162,1.16385797 84.2729843,0.882417391 C84.6446031,0.598075362 85.0707849,0.383368116 85.5544792,0.238295652 C86.0366988,0.0932231884 86.5439879,0.0192362319 87.0704478,0.0192362319 C87.756173,0.0192362319 88.387335,0.138195652 88.9698327,0.376114493 C89.5552797,0.614033333 90.0625688,1.01298261 90.487276,1.56861014 L89.4785965,2.28091594 C89.1836609,1.87326232 88.8385864,1.57006087 88.4463221,1.36986087 C88.0466845,1.16385797 87.577737,1.0652087 87.0394796,1.0652087 C86.6604874,1.0652087 86.3021408,1.11598406 85.9600156,1.21463333 C85.6178903,1.31038116 85.3244295,1.45690435 85.0663609,1.64549855 C84.8171404,1.8369942 84.6136348,2.07781449 84.4558443,2.36795942 C84.3054272,2.6610058 84.2316933,2.99902464 84.2316933,3.39652319 C84.2316933,4.01017971 84.3865345,4.48311594 84.7050649,4.81097971 C85.0250699,5.14319565 85.4232329,5.40287536 85.8980791,5.59437101 C86.378824,5.78441594 86.8920118,5.95415072 87.4523894,6.10067391 C88.0127669,6.24284493 88.5318534,6.43724203 89.0111236,6.68241449 C89.4859699,6.92613623 89.8856075,7.26415507 90.1982392,7.69502029 C90.5197189,8.13604058 90.6775094,8.73373913 90.6775094,9.49827101 C90.6775094,10.0568 90.5713326,10.5471449 90.358979,10.9751087 C90.1495748,11.4074246 89.8634873,11.7686551 89.5051407,12.0646029 C89.1453193,12.3561986 88.7279855,12.5825116 88.259038,12.7319362 C87.7871412,12.8842623 87.3004976,12.9582493 86.7887844,12.9582493 C85.9644396,12.9582493 85.2035059,12.8160783 84.5104074,12.5317362 C83.8143596,12.2488449 83.2215391,11.7701058 82.7275221,11.0984203 L83.8394291,10.3672551" id="Fill-15"></path>
                    <path d="M94.0397745,6.48946812 C94.0397745,5.55084928 94.2005144,4.68621739 94.5190447,3.89702319 C94.8316764,3.11218116 95.2785037,2.42888986 95.8433053,1.85585362 C96.4051575,1.28136667 97.0894079,0.831642029 97.8827845,0.50667971 C98.6761611,0.183168116 99.5521196,0.0192362319 100.507711,0.0192362319 C101.455928,0.0192362319 102.336311,0.183168116 103.131162,0.50667971 C103.924539,0.831642029 104.607315,1.28136667 105.172116,1.85585362 C105.736918,2.42888986 106.176372,3.11218116 106.494902,3.89702319 C106.813432,4.68621739 106.974172,5.55084928 106.974172,6.48946812 C106.974172,7.42808696 106.813432,8.29562029 106.494902,9.09061739 C106.176372,9.88271304 105.736918,10.5689058 105.172116,11.1404913 C104.607315,11.7178797 103.924539,12.1632522 103.131162,12.4824116 C102.336311,12.8001203 101.455928,12.9582493 100.507711,12.9582493 C99.5521196,12.9582493 98.6761611,12.8001203 97.8827845,12.4824116 C97.0894079,12.1632522 96.4051575,11.7178797 95.8433053,11.1404913 C95.2785037,10.5689058 94.8316764,9.88271304 94.5190447,9.09061739 C94.2005144,8.29562029 94.0397745,7.42808696 94.0397745,6.48946812 M95.2062445,6.48946812 C95.2062445,7.25545072 95.3330668,7.97065797 95.5778633,8.62783623 C95.8241345,9.28936667 96.1765824,9.86530435 96.6352072,10.3512971 C97.0967813,10.8387406 97.6527348,11.2202812 98.3089663,11.5017217 C98.9607739,11.7759087 99.6936887,11.9180797 100.507711,11.9180797 C101.320258,11.9180797 102.053173,11.7759087 102.70498,11.5017217 C103.361212,11.2202812 103.915691,10.8387406 104.37874,10.3512971 C104.837364,9.86530435 105.189812,9.28936667 105.436083,8.62783623 C105.685304,7.97065797 105.807702,7.25545072 105.807702,6.48946812 C105.807702,5.72493623 105.685304,5.00972899 105.436083,4.35255072 C105.189812,3.69247101 104.837364,3.11653333 104.37874,2.62908986 C103.915691,2.1430971 103.361212,1.76300725 102.70498,1.47866522 C102.053173,1.20447826 101.320258,1.06375797 100.507711,1.06375797 C99.6936887,1.06375797 98.9607739,1.20447826 98.3089663,1.47866522 C97.6527348,1.76300725 97.0967813,2.1430971 96.6352072,2.62908986 C96.1765824,3.11653333 95.8241345,3.69247101 95.5778633,4.35255072 C95.3330668,5.00972899 95.2062445,5.72493623 95.2062445,6.48946812" id="Fill-16"></path>
                    <polyline id="Fill-17" points="110.557639 0.335494203 118.047527 0.335494203 118.047527 1.37711449 111.724109 1.37711449 111.724109 5.75975362 117.608073 5.75975362 117.608073 6.80282464 111.724109 6.80282464 111.724109 12.6463435 110.557639 12.6463435 110.557639 0.335494203"></polyline>
                    <polyline id="Fill-18" points="124.923949 1.37711449 120.644434 1.37711449 120.644434 0.335494203 130.365509 0.335494203 130.365509 1.37711449 126.088944 1.37711449 126.088944 12.6463435 124.923949 12.6463435 124.923949 1.37711449"></polyline>
                    <polyline id="Fill-19" points="133.024353 0.335494203 134.224741 0.335494203 137.334836 11.2376899 137.371703 11.2376899 140.530463 0.335494203 142.016938 0.335494203 145.184545 11.2376899 145.219938 11.2376899 148.327083 0.335494203 149.525996 0.335494203 145.887967 12.6463435 144.45458 12.6463435 141.29582 1.69192174 141.256004 1.69192174 138.09282 12.6463435 136.663858 12.6463435 133.024353 0.335494203"></polyline>
                    <path d="M156.222508,0.335494203 L157.419946,0.335494203 L162.690444,12.6463435 L161.382405,12.6463435 L160.019803,9.37641014 L153.391127,9.37641014 L151.984284,12.6463435 L150.763251,12.6463435 L156.222508,0.335494203 Z M156.765189,1.58311739 L153.852701,8.33624058 L159.598045,8.33624058 L156.765189,1.58311739 Z" id="Fill-20"></path>
                    <path d="M165.72828,0.335494203 L169.016811,0.335494203 C169.1805,0.335494203 169.403177,0.339846377 169.687789,0.354353623 C169.966503,0.361607246 170.273236,0.393523188 170.60209,0.454453623 C170.932417,0.512482609 171.268644,0.608230435 171.609294,0.732992754 C171.949945,0.859205797 172.261102,1.04634928 172.529493,1.29007101 C172.802309,1.5308913 173.024985,1.83844493 173.204896,2.21128116 C173.381857,2.58411739 173.464439,3.03384203 173.464439,3.57061014 C173.464439,4.15815362 173.365636,4.64269565 173.157706,5.03003913 C172.951251,5.41448116 172.690233,5.72058406 172.380551,5.95995362 C172.066444,6.19352029 171.719895,6.37631159 171.342378,6.48946812 C170.972234,6.60697681 170.609463,6.68821739 170.270287,6.73173913 L173.909792,12.6463435 L172.584056,12.6463435 L169.069899,6.80282464 L166.893275,6.80282464 L166.893275,12.6463435 L165.72828,12.6463435 L165.72828,0.335494203 Z M166.893275,5.75975362 L169.36631,5.75975362 C169.978301,5.75975362 170.476742,5.68721739 170.858683,5.52908841 C171.243574,5.37966377 171.539985,5.19687246 171.747914,4.97491159 C171.966166,4.75875362 172.106261,4.52083478 172.187368,4.26115507 C172.265526,4.00872899 172.302393,3.77516232 172.302393,3.57061014 C172.302393,3.35735362 172.265526,3.12668841 172.187368,2.87281159 C172.106261,2.61748406 171.966166,2.38101594 171.747914,2.1605058 C171.539985,1.94434783 171.243574,1.7543029 170.858683,1.60197681 C170.476742,1.45255217 169.978301,1.37711449 169.36631,1.37711449 L166.893275,1.37711449 L166.893275,5.75975362 Z" id="Fill-21"></path>
                    <polyline id="Fill-22" points="177.167355 0.335494203 184.820932 0.335494203 184.820932 1.37711449 178.333825 1.37711449 178.333825 5.75975362 184.413921 5.75975362 184.413921 6.80282464 178.333825 6.80282464 178.333825 11.6047232 185.10112 11.6047232 185.10112 12.6463435 177.167355 12.6463435 177.167355 0.335494203"></polyline>
                    <polyline id="Fill-23" points="196.562315 0.335494203 204.215892 0.335494203 204.215892 1.37711449 197.728785 1.37711449 197.728785 5.75975362 203.808881 5.75975362 203.808881 6.80282464 197.728785 6.80282464 197.728785 11.6047232 204.494606 11.6047232 204.494606 12.6463435 196.562315 12.6463435 196.562315 0.335494203"></polyline>
                    <polyline id="Fill-24" points="208.806564 0.335494203 210.31221 0.335494203 217.925971 11.1172797 217.959888 11.1172797 217.959888 0.335494203 219.126358 0.335494203 219.126358 12.6463435 217.620712 12.6463435 210.006951 1.86455797 209.973034 1.86455797 209.973034 12.6463435 208.806564 12.6463435 208.806564 0.335494203"></polyline>
                    <path d="M233.856913,11.8484449 C233.123999,12.2531971 232.368964,12.5375391 231.58591,12.7043725 C230.796957,12.8741072 230.005055,12.9567986 229.191033,12.9567986 C228.236917,12.9567986 227.360958,12.8001203 226.567582,12.4824116 C225.774205,12.1632522 225.091429,11.7178797 224.526628,11.1433928 C223.963301,10.5703565 223.516474,9.88271304 223.200893,9.08771594 C222.882362,8.29562029 222.724572,7.43098841 222.724572,6.48946812 C222.724572,5.55084928 222.882362,4.69056957 223.200893,3.89992464 C223.516474,3.11073043 223.963301,2.43034058 224.526628,1.85585362 C225.091429,1.28136667 225.774205,0.833092754 226.567582,0.508130435 C227.360958,0.184618841 228.236917,0.0221376812 229.191033,0.0221376812 C231.050602,0.0221376812 232.553298,0.58792029 233.699123,1.72383768 L232.846759,2.59572319 C232.663899,2.37666377 232.426476,2.16775942 232.149237,1.97771449 C231.873472,1.78476812 231.575587,1.62663913 231.252633,1.49172174 C230.925254,1.35535362 230.589028,1.25235217 230.235105,1.17691449 C229.878233,1.10437826 229.534633,1.0652087 229.191033,1.0652087 C228.379961,1.0652087 227.647046,1.20157681 226.993764,1.48301739 C226.339007,1.7601058 225.781578,2.1430971 225.31853,2.62763913 C224.86138,3.11653333 224.508932,3.69102029 224.258236,4.35255072 C224.011965,5.01117971 223.891042,5.72493623 223.891042,6.48946812 C223.891042,7.25690145 224.011965,7.97065797 224.258236,8.63073768 C224.508932,9.29081739 224.86138,9.86530435 225.31853,10.3512971 C225.781578,10.8387406 226.339007,11.2202812 226.993764,11.4988203 C227.647046,11.7773594 228.379961,11.9180797 229.191033,11.9180797 C229.863486,11.9180797 230.491699,11.8644029 231.080095,11.7585 C231.669966,11.6525971 232.206749,11.4669043 232.690443,11.1854638 L232.690443,7.04944783 L229.686525,7.04944783 L229.686525,6.00347536 L233.856913,6.00347536 L233.856913,11.8484449" id="Fill-25"></path>
                    <polygon id="Fill-26" points="239.055152 12.6448928 240.215723 12.6448928 240.215723 0.334043478 239.055152 0.334043478"></polygon>
                    <polyline id="Fill-27" points="245.413962 0.335494203 246.915184 0.335494203 254.533369 11.1172797 254.567287 11.1172797 254.567287 0.335494203 255.733757 0.335494203 255.733757 12.6463435 254.23106 12.6463435 246.61435 1.86455797 246.580432 1.86455797 246.580432 12.6463435 245.413962 12.6463435 245.413962 0.335494203"></polyline>
                    <polyline id="Fill-28" points="260.927571 0.335494203 268.578199 0.335494203 268.578199 1.37711449 262.098465 1.37711449 262.098465 5.75975362 268.172663 5.75975362 268.172663 6.80282464 262.098465 6.80282464 262.098465 11.6047232 268.865761 11.6047232 268.865761 12.6463435 260.927571 12.6463435 260.927571 0.335494203"></polyline>
                    <polyline id="Fill-29" points="273.177719 0.335494203 280.825397 0.335494203 280.825397 1.37711449 274.344189 1.37711449 274.344189 5.75975362 280.419861 5.75975362 280.419861 6.80282464 274.344189 6.80282464 274.344189 11.6047232 281.108535 11.6047232 281.108535 12.6463435 273.177719 12.6463435 273.177719 0.335494203"></polyline>
                    <path d="M285.420493,0.335494203 L288.709024,0.335494203 C288.869764,0.335494203 289.096864,0.339846377 289.380002,0.354353623 C289.66314,0.361607246 289.965449,0.393523188 290.295777,0.454453623 C290.626105,0.512482609 290.962331,0.608230435 291.307406,0.732992754 C291.648056,0.859205797 291.954789,1.04634928 292.227605,1.29007101 C292.494521,1.5308913 292.718672,1.83844493 292.894159,2.21128116 C293.07112,2.58411739 293.156652,3.03384203 293.156652,3.57061014 C293.156652,4.15815362 293.059323,4.64269565 292.851393,5.03003913 C292.644939,5.41448116 292.388345,5.72058406 292.072764,5.95995362 C291.760132,6.19352029 291.418007,6.37631159 291.039015,6.48946812 C290.661497,6.60697681 290.30315,6.68821739 289.9625,6.73173913 L293.603479,12.6463435 L292.276269,12.6463435 L288.759163,6.80282464 L286.586963,6.80282464 L286.586963,12.6463435 L285.420493,12.6463435 L285.420493,0.335494203 Z M286.586963,5.75975362 L289.059997,5.75975362 C289.674938,5.75975362 290.170429,5.68721739 290.552371,5.52908841 C290.938736,5.37966377 291.233672,5.19687246 291.446026,4.97491159 C291.659854,4.75875362 291.799948,4.52083478 291.881055,4.26115507 C291.954789,4.00872899 291.991656,3.77516232 291.991656,3.57061014 C291.991656,3.35735362 291.954789,3.12668841 291.881055,2.87281159 C291.799948,2.61748406 291.659854,2.38101594 291.446026,2.1605058 C291.233672,1.94434783 290.938736,1.7543029 290.552371,1.60197681 C290.170429,1.45255217 289.674938,1.37711449 289.059997,1.37711449 L286.586963,1.37711449 L286.586963,5.75975362 Z" id="Fill-30"></path>
                    <path d="M298.003917,10.3672551 C298.312125,10.8909667 298.704389,11.2797609 299.191033,11.5336377 C299.6821,11.7875145 300.239529,11.9180797 300.866267,11.9180797 C301.257056,11.9180797 301.618352,11.8571493 301.961952,11.742542 C302.302603,11.6250333 302.600487,11.4625522 302.852657,11.2565493 C303.106302,11.0461942 303.305383,10.7966696 303.452851,10.4963696 C303.600319,10.2047739 303.672578,9.86965652 303.672578,9.49827101 C303.672578,9.07175797 303.582623,8.71778116 303.401237,8.4377913 C303.221327,8.15925217 302.97653,7.92858696 302.669797,7.75014783 C302.363064,7.5717087 302.016515,7.41938261 301.631624,7.28881739 C301.248208,7.16260435 300.857418,7.03348986 300.451882,6.90727681 C300.044871,6.77961304 299.649657,6.63454058 299.266241,6.4706087 C298.88135,6.30667681 298.534801,6.10067391 298.233967,5.8351913 C297.927234,5.57696232 297.682437,5.25054928 297.498103,4.85450145 C297.312293,4.45990435 297.225287,3.97101014 297.225287,3.39652319 C297.225287,2.85105072 297.331464,2.36505797 297.551191,1.94434783 C297.769443,1.52073623 298.065854,1.16385797 298.435998,0.882417391 C298.804667,0.598075362 299.232324,0.383368116 299.716018,0.238295652 C300.198238,0.0932231884 300.708476,0.0192362319 301.233461,0.0192362319 C301.920661,0.0192362319 302.554772,0.138195652 303.13727,0.376114493 C303.718293,0.614033333 304.221158,1.01298261 304.64734,1.56861014 L303.638661,2.28091594 C303.343725,1.87326232 303.0016,1.57006087 302.607861,1.36986087 C302.212647,1.16385797 301.745174,1.0652087 301.202493,1.0652087 C300.823501,1.0652087 300.466629,1.11598406 300.121554,1.21463333 C299.780904,1.31038116 299.484494,1.45690435 299.232324,1.64549855 C298.974255,1.8369942 298.775174,2.07781449 298.618858,2.36795942 C298.465491,2.6610058 298.390283,2.99902464 298.390283,3.39652319 C298.390283,4.01017971 298.546599,4.48311594 298.866604,4.81097971 C299.185134,5.14319565 299.584772,5.40287536 300.059618,5.59437101 C300.538888,5.78441594 301.057975,5.95415072 301.613928,6.10067391 C302.17873,6.24284493 302.694867,6.43724203 303.171188,6.68241449 C303.647509,6.92613623 304.045672,7.26415507 304.364202,7.69502029 C304.681258,8.13604058 304.837573,8.73373913 304.837573,9.49827101 C304.837573,10.0568 304.735821,10.5471449 304.521992,10.9751087 C304.311114,11.4074246 304.022077,11.7686551 303.665205,12.0646029 C303.305383,12.3561986 302.8851,12.5825116 302.423526,12.7319362 C301.947205,12.8842623 301.460562,12.9582493 300.953272,12.9582493 C300.128928,12.9582493 299.36357,12.8160783 298.67637,12.5317362 C297.981797,12.2488449 297.383078,11.7701058 296.887586,11.0984203 L298.003917,10.3672551" id="Fill-31"></path>
                </g>
                <path d="M495,64.0034662 C495,63.7244367 495.099044,63.4870017 495.293658,63.2911612 C495.488271,63.1005199 495.721112,63 495.999131,63 C496.278888,63 496.511729,63.1005199 496.709818,63.2911612 C496.900956,63.4870017 497,63.7244367 497,64.0034662 C497,64.2772964 496.900956,64.5129983 496.709818,64.7105719 C496.511729,64.8994801 496.278888,65 495.999131,65 C495.721112,65 495.488271,64.8994801 495.293658,64.7105719 C495.099044,64.5129983 495,64.2772964 495,64.0034662" id="Fill-32" fill="#7B7C81"></path>
                <path d="M174.003837,74 C173.448196,74 173,73.5639665 173,73.0297138 L173,44.9702862 C173,44.4360335 173.448196,44 174.003837,44 C174.554873,44 175,44.4360335 175,44.9702862 L175,73.0297138 C175,73.5639665 174.554873,74 174.003837,74" id="Fill-33" fill="#255AA8"></path>
            </g>
        </g>
    </g>
</svg>