<?xml version="1.0" encoding="UTF-8"?>
<svg width="94px" height="94px" viewBox="0 0 94 94" version="1.1" xmlns="http://www.w3.org/2000/svg" xmlns:xlink="http://www.w3.org/1999/xlink">
    <!-- Generator: Sketch 52.6 (67491) - http://www.bohemiancoding.com/sketch -->
    <title>openapi</title>
    <desc>Created with Sketch.</desc>
    <g id="Page-1" stroke="none" stroke-width="1" fill="none" fill-rule="evenodd">
        <g id="openapi" transform="translate(1.000000, 1.000000)">
            <circle id="Oval" stroke="#4CAFDE" stroke-width="2.8347" cx="45.79" cy="45.79" r="45.374"></circle>
            <g id="Group" transform="translate(20.000000, 17.000000)" fill="#4CAFDE">
                <g transform="translate(0.000000, 7.000000)" id="Path">
                    <path d="M14.5294774,25.0595911 L14.4745832,25.0595911 L0.170997895,25.0595911 C0.173426842,25.1288949 0.17537,25.19868 0.179256316,25.2679838 C0.185085789,25.4017787 0.194801579,25.5350923 0.20306,25.6688872 C0.206946316,25.7261591 0.209375263,25.7834311 0.213747368,25.8402217 C0.224920526,25.9951928 0.238522632,26.1492013 0.252610526,26.3032098 C0.256011053,26.338343 0.258925789,26.3729949 0.262326316,26.4066843 C0.278843158,26.5780187 0.297788947,26.7493532 0.318192105,26.9192438 C0.319163684,26.9360885 0.321106842,26.9524519 0.323535789,26.9688153 C0.345882105,27.152663 0.369685789,27.3365106 0.39689,27.5193957 C0.39689,27.5213209 0.397375789,27.5242085 0.398347368,27.5261336 C0.56303,28.6600213 0.810296842,29.7833209 1.14014789,30.8873694 C1.14160526,30.8921821 1.14354842,30.8965136 1.14452,30.9013264 C1.19601368,31.0750672 1.25042211,31.2478455 1.30628789,31.4196613 C1.30968842,31.4297681 1.31308895,31.4398749 1.31600368,31.4499817 C1.31891842,31.4600885 1.32231895,31.4701953 1.32571947,31.4803021 C1.37672737,31.6357545 1.43016421,31.7907255 1.48360105,31.9461779 C1.49768895,31.9851613 1.51080526,32.024626 1.52537895,32.0636094 C1.57347211,32.1978855 1.62253684,32.3321617 1.67305895,32.4664379 C1.69637684,32.5270787 1.71969474,32.5872383 1.74252684,32.6483604 C1.78624789,32.7595353 1.82948316,32.8697477 1.87369,32.9809226 C1.90720947,33.0641834 1.94218632,33.1474443 1.97716316,33.2307051 C2.01311158,33.3173349 2.05003158,33.4034834 2.08695158,33.4905945 C2.13261579,33.5964753 2.18022316,33.7018749 2.22734474,33.8072745 C2.25552053,33.8703217 2.28418211,33.9328877 2.31235789,33.9954536 C2.37065263,34.1220294 2.43089053,34.2486051 2.49112842,34.3742183 C2.51104579,34.4146455 2.52999158,34.4550728 2.55039474,34.4955 C2.62083421,34.6403643 2.69273105,34.7837847 2.76559947,34.9262426 C2.77774421,34.9483813 2.78843158,34.9700387 2.79960474,34.9921774 C2.88170316,35.1500362 2.96525895,35.3078949 3.05124368,35.4643098 C3.05513,35.4710477 3.05901632,35.4777855 3.06241684,35.485486 C3.08039105,35.5182128 3.10030842,35.5494957 3.11828263,35.5817413 L15.3810663,28.2629681 L15.4262447,28.2360166 C14.9423984,27.225817 14.6412089,26.1516077 14.5294774,25.0595911 Z"></path>
                    <polygon points="0.84916 31.582814 0.853532105 31.5953272 1.31648947 31.4509443"></polygon>
                    <path d="M18.0582521,31.5900332 L18.0237611,31.6242038 L7.91011,41.6443826 C7.96208947,41.6925102 8.01358316,41.7411191 8.06702,41.787803 C8.16126316,41.8725077 8.25744947,41.9567311 8.35315,42.0395106 C8.40270053,42.0833068 8.45127947,42.1266217 8.50083,42.168974 C8.61547632,42.2671545 8.73109421,42.3629285 8.84622632,42.4587026 C8.87780263,42.4846915 8.90840737,42.5101991 8.93949789,42.5357068 C9.06920368,42.6420689 9.20133842,42.746506 9.33395895,42.8504617 C9.35096158,42.8634562 9.36796421,42.8769319 9.38496684,42.8904077 C9.52827474,43.0020638 9.67304,43.1108323 9.81926263,43.2205634 C9.82557789,43.2244136 9.83092158,43.2282638 9.83577947,43.2325953 C10.4449595,43.6835515 11.0764858,44.1061123 11.7279295,44.4997966 C11.7502758,44.5137536 11.7726221,44.5267481 11.7954542,44.5407051 C11.9193305,44.6143404 12.0432068,44.6870132 12.1680547,44.7587234 C12.2443237,44.8020383 12.3205926,44.8448719 12.3968616,44.8877055 C12.4687584,44.9290953 12.5406553,44.96856 12.6135237,45.008506 C12.7446868,45.0797349 12.8768216,45.1504826 13.0089563,45.2197864 C13.0269305,45.2294119 13.0453905,45.2390374 13.0638505,45.248663 C13.4315932,45.4392485 13.8056511,45.6163583 14.1826237,45.7867302 L14.5416221,44.92332 L19.6283237,32.6849374 L19.6472695,32.6396974 C19.0915263,32.3451562 18.5591011,31.9962306 18.0582521,31.5900332 Z"></path>
                    <path d="M17.0050605,30.5918655 C16.8957579,30.4715464 16.7917989,30.3483396 16.6897832,30.2236889 C16.5994263,30.1129953 16.5119842,30.0013391 16.4274568,29.8882391 C16.3307847,29.7582945 16.2360558,29.6278685 16.1466705,29.4945549 C16.0563137,29.36076 15.9679,29.2260026 15.8843442,29.0888387 L3.60601526,36.4167562 C3.79450158,36.7271796 3.99124632,37.0294213 4.19187737,37.328294 C4.19867842,37.3384009 4.20499368,37.3494702 4.21179474,37.359577 C4.21422368,37.3634272 4.21665263,37.3667962 4.21908158,37.3706464 C4.22588263,37.3802719 4.23171211,37.39086 4.23851316,37.4009668 C4.23899895,37.4019294 4.23997053,37.4028919 4.24045632,37.4038545 C4.25648737,37.4279183 4.27300421,37.4510196 4.28952105,37.4750834 C4.29049263,37.4765272 4.29146421,37.4779711 4.29243579,37.4794149 C4.29243579,37.4794149 4.29243579,37.4794149 4.29243579,37.4794149 C4.29292158,37.4798962 4.29340737,37.4808587 4.29389316,37.48134 C4.50715474,37.7936885 4.72624579,38.1012243 4.95213789,38.4005783 C4.95699579,38.4068349 4.96233947,38.4135728 4.96719737,38.4198294 C4.97205526,38.426086 4.97691316,38.4323426 4.98177105,38.4385991 C5.07990053,38.5675813 5.17851579,38.6960821 5.28004579,38.8236204 C5.29316211,38.8404651 5.30627842,38.8568285 5.32036632,38.8731919 C5.42432526,39.0050617 5.53022737,39.1350064 5.63807263,39.2639885 C5.66333368,39.2943089 5.68956632,39.3251106 5.71482737,39.3559123 C5.81198526,39.4709374 5.90914316,39.5854813 6.00824421,39.6990626 C6.05050789,39.7476715 6.09471474,39.7962804 6.13746421,39.8444081 C6.22199158,39.9397009 6.30554737,40.0345123 6.39201789,40.1283613 C6.43913947,40.1798579 6.48820421,40.2318357 6.53629737,40.2833323 C6.55815789,40.3069149 6.57953263,40.3300162 6.60187895,40.3535987 C6.66503158,40.4209774 6.72769842,40.4883562 6.79133684,40.5552536 C6.81659789,40.5817238 6.84331632,40.6077128 6.86906316,40.634183 C6.98079474,40.7496894 7.09349789,40.8651957 7.20863,40.978777 L17.3373405,30.94416 C17.2212368,30.8291349 17.11242,30.7107409 17.0050605,30.5918655 Z"></path>
                    <path d="M30.4308242,31.5847391 C30.3195784,31.6737753 30.2068753,31.7608864 30.0922289,31.8446285 L30.11749,31.8864996 L37.5024616,44.0315145 C37.8444574,43.8101272 38.1825668,43.5820021 38.5129037,43.3423264 C39.2275,42.8201413 39.9192642,42.25416 40.5857674,41.6448638 L30.4711447,31.6242038 L30.4308242,31.5847391 Z"></path>
                    <path d="M36.56926,44.6100089 C36.5746037,44.6071213 36.5804332,44.6037523 36.5857768,44.6008647 L36.5852911,44.6003834 C36.5799474,44.6032711 36.5746037,44.60664 36.56926,44.6100089 Z"></path>
                    <polygon points="36.5624589 44.6143404 36.5624589 44.6138591 36.5624589 44.6138591 36.5619732 44.6138591"></polygon>
                    <path d="M36.5852911,44.6003834 L36.5857768,44.6008647 C36.6178389,44.5830574 36.6503868,44.5662128 36.6824489,44.547443 L36.6805058,44.544074 C36.6484437,44.5628438 36.6168674,44.5816136 36.5852911,44.6003834 Z"></path>
                    <polygon points="36.5648879 44.611934 36.56926 44.6100089 36.56926 44.6095277"></polygon>
                    <polygon points="36.5619732 44.6138591 36.5624589 44.6138591 36.5444847 44.5835387"></polygon>
                    <path d="M36.56926,44.6100089 C36.5750895,44.6071213 36.5804332,44.6042336 36.5857768,44.601346 C36.5804332,44.6037523 36.5746037,44.60664 36.56926,44.6100089 Z"></path>
                    <polygon points="36.5556579 44.6177094 36.5556579 44.6177094 36.56003 44.615303 36.56003 44.615303"></polygon>
                    <polygon points="36.5619732 44.6138591 36.56003 44.615303 36.56003 44.615303 36.5624589 44.6143404"></polygon>
                    <path d="M36.5648879,44.611934 C36.5639163,44.6124153 36.5629447,44.6128966 36.5619732,44.6133779 C36.5644021,44.611934 36.5668311,44.6109715 36.56926,44.6095277 L36.56926,44.6090464 C36.5678026,44.6104902 36.5663453,44.6114528 36.5648879,44.611934 Z"></path>
                    <path d="M36.5857768,44.6008647 C36.6178389,44.5820949 36.6503868,44.5662128 36.6819632,44.5469617 C36.6503868,44.5662128 36.6178389,44.5830574 36.5857768,44.6008647 Z"></path>
                    <polygon points="36.6824489 44.5469617 36.6805058 44.544074 36.68002 44.544074"></polygon>
                    <polygon points="36.5517716 44.6201157 36.5522574 44.6196345 36.5527432 44.6196345"></polygon>
                    <polygon points="36.5556579 44.6177094 36.5527432 44.6196345 36.5527432 44.6196345 36.5556579 44.6177094"></polygon>
                    <path d="M36.4293526,44.1311387 L36.1786853,43.719166 L29.2853326,32.3826957 C29.1459111,32.4659566 29.0030889,32.5410357 28.8607526,32.6170774 C28.7169589,32.6936004 28.5721937,32.7653106 28.4254853,32.8341332 C27.1012232,33.4564238 25.6676584,33.7740664 24.2321505,33.7740664 C23.2916621,33.7740664 22.3516595,33.6393089 21.4427474,33.3707566 C21.2877805,33.3250353 21.1367,33.2648757 20.9836763,33.2109728 C20.8306526,33.1575511 20.6756858,33.1113485 20.5250911,33.0497451 L15.44179,45.279946 L15.2426163,45.7592974 L15.0721042,46.1698264 L15.0711326,46.1717515 C15.0842489,46.1770455 15.0978511,46.181377 15.1109674,46.1866711 C15.1250553,46.1924464 15.1386574,46.1967779 15.1527453,46.2025532 L15.1532311,46.2025532 C15.1537168,46.2025532 15.1542026,46.2030345 15.1542026,46.2030345 C15.1576032,46.2044783 15.1610037,46.2054409 15.1639184,46.2068847 C15.2839084,46.2554936 15.40487,46.2973647 15.5253458,46.3440485 C15.6764263,46.402283 15.8275068,46.46148 15.9790732,46.5163455 C16.0563137,46.5442596 16.1330684,46.5769864 16.2103089,46.6039379 L16.2107947,46.6039379 C17.8032126,47.1612562 19.4510105,47.5510902 21.1264984,47.7695898 C21.19208,47.7772902 21.2571758,47.7864345 21.3227574,47.7955787 C21.3912537,47.8032791 21.4602358,47.810017 21.5287321,47.8177174 C21.6579521,47.8321557 21.7866863,47.8470753 21.9163921,47.8595885 C21.9484542,47.8619949 21.9805163,47.8648826 22.0125784,47.8677702 C22.1714316,47.8826898 22.3302847,47.8961655 22.4881663,47.9072349 C22.5420889,47.9110851 22.5964974,47.9134915 22.6499342,47.9173417 C22.7893558,47.926486 22.9278058,47.9351489 23.0667416,47.9414055 C23.1517547,47.9462183 23.2367679,47.9486247 23.3222668,47.9515123 C23.4325411,47.9553626 23.5423295,47.959694 23.6535753,47.963063 C23.8124284,47.9669132 23.9727389,47.968357 24.1325637,47.9688383 C24.1704553,47.9688383 24.2078611,47.9698009 24.2452668,47.9702821 C25.5836168,47.9702821 26.9214811,47.8600698 28.2447716,47.6401264 C28.2671179,47.6367574 28.2889784,47.6329072 28.3118105,47.6300196 C28.4517179,47.6059557 28.5916253,47.5799668 28.7315326,47.5544591 C28.8112021,47.5390583 28.8913574,47.5241387 28.9700553,47.5087379 C29.0516679,47.4918932 29.1337663,47.4750485 29.2153789,47.4577226 C29.3518858,47.4293272 29.4879068,47.3999694 29.6244137,47.3686864 C29.6487032,47.3633923 29.6734784,47.3585796 29.6982537,47.3518417 C31.7099079,46.8874098 33.65258,46.1683826 35.4776911,45.2168987 L35.4781768,45.2164174 C35.5976811,45.1538515 35.7142705,45.0826226 35.8332889,45.0186128 C35.9751395,44.9416085 36.1160184,44.8621979 36.2568974,44.782306 C36.3545411,44.7269591 36.4531563,44.6759438 36.5498284,44.6186719 C36.5498284,44.6186719 36.5503142,44.6181906 36.5503142,44.6181906 C36.5512858,44.6177094 36.5522574,44.6167468 36.5532289,44.6162655 C36.5532289,44.6162655 36.5532289,44.6162655 36.5537147,44.6162655 C36.5551721,44.615303 36.5566295,44.6148217 36.5580868,44.6138591 C36.5590584,44.6133779 36.5595442,44.6128966 36.56003,44.6124153 L36.5420558,44.5820949 L36.56003,44.6124153 C36.5610016,44.611934 36.5619732,44.6114528 36.5629447,44.6109715 C36.5644021,44.6100089 36.5658595,44.6095277 36.5673168,44.6085651 C36.5726605,44.6051962 36.5780042,44.6023085 36.5833479,44.5989396 C36.6149242,44.5801698 36.6465005,44.5614 36.6780768,44.5426302 L36.4293526,44.1311387 Z"></path>
                    <path d="M18.0640816,16.6098179 C18.1758132,16.5203004 18.2885163,16.4336706 18.4026768,16.3499285 L18.3774158,16.3080574 L10.99293,4.16304255 C10.6499626,4.38491106 10.3108816,4.61351745 9.98005895,4.85415574 C9.26594842,5.37489702 8.57467,5.94039702 7.90962421,6.54921191 L18.0242468,16.5698719 L18.0640816,16.6098179 Z"></path>
                    <path d="M7.20814421,7.21626128 C7.09301211,7.33032383 6.98419526,7.4482366 6.87197789,7.56374298 C6.75976053,7.67924936 6.6456,7.79427447 6.53581158,7.91170596 C5.78866737,8.71303149 5.10564737,9.55237787 4.48966632,10.4239698 C4.46003316,10.4648783 4.4304,10.5077119 4.40125263,10.549583 C4.33178474,10.6496885 4.26328842,10.749794 4.19576368,10.8503809 C4.12532421,10.9548179 4.05537053,11.0606987 3.98736,11.1660983 C3.96161316,11.2046004 3.93635211,11.2435838 3.91157684,11.282086 C1.58513105,14.897917 0.338595263,18.9988749 0.170997895,23.1344847 C0.164682632,23.2947498 0.161282105,23.4554962 0.157881579,23.6157613 C0.154481053,23.7760264 0.149623158,23.9367728 0.149623158,24.0970379 L14.4745832,24.0970379 C14.4745832,23.9362915 14.4896426,23.7765077 14.4979011,23.6157613 C14.5061595,23.4550149 14.5085884,23.2942685 14.5246195,23.1344847 C14.7097053,21.2863826 15.4296453,19.4820766 16.6849253,17.9660553 C16.7869411,17.8428485 16.9020732,17.7273421 17.0113758,17.6084668 C17.1201926,17.4895915 17.2212368,17.3659034 17.3373405,17.2513596 L7.20814421,7.21626128 Z"></path>
                    <path d="M36.7650332,3.69379787 C36.7456016,3.68176596 36.7251984,3.67021532 36.7057668,3.65866468 C36.5799474,3.5821417 36.4526705,3.50850638 36.3253937,3.43487106 C36.2515537,3.39251872 36.1777137,3.35161021 36.1033879,3.30973915 C36.0285763,3.26834936 35.9547363,3.22695957 35.8794389,3.18653234 C35.7502189,3.11626596 35.6205132,3.04696213 35.4903216,2.97862085 C35.4699184,2.96851404 35.4500011,2.95744468 35.4291121,2.9468566 C34.5891821,2.51178255 33.72642,2.12868638 32.8456837,1.79612426 C32.8233374,1.78698 32.8000195,1.77831702 32.7771874,1.77013532 C32.5853005,1.69890638 32.3929279,1.62815872 32.1990979,1.56174255 C30.63437,1.02030638 29.0162053,0.640579149 27.3722937,0.42689234 C27.3052547,0.417748085 27.23773,0.40860383 27.1706911,0.399940851 C27.1031663,0.391759149 27.0361274,0.385021277 26.9690884,0.377802128 C26.8393826,0.362882553 26.7101626,0.348444255 26.5799711,0.335931064 C26.5440226,0.332562128 26.5075884,0.330155745 26.4711542,0.326305532 C26.3171589,0.312348511 26.1621921,0.298872766 26.0081968,0.287803404 C25.9484447,0.283471915 25.8877211,0.280102979 25.8279689,0.276734043 C25.6958342,0.268071064 25.5622421,0.258926809 25.4301074,0.253151489 C25.3591821,0.249301277 25.2892284,0.24737617 25.2192747,0.244969787 L25.2187889,14.4156779 L25.2187889,14.4710247 C25.9557316,14.5465851 26.6858732,14.7020374 27.3941542,14.9402694 L37.9620184,4.4705783 C37.5699863,4.2010634 37.1730963,3.93924894 36.7650332,3.69379787 Z"></path>
                    <polygon points="12.0655532 4.06245574 11.8148858 3.65048298 11.8148858 3.65048298"></polygon>
                    <polygon points="11.8134284 3.64759532 11.8148858 3.65048298 11.8148858 3.65048298"></polygon>
                    <path d="M23.7619063,0.233419149 C23.6001384,0.236788085 23.4378847,0.237269362 23.2761168,0.243525957 C22.26276,0.283953191 21.2513463,0.386465106 20.2481911,0.552986809 C20.2263305,0.556837021 20.20447,0.560205957 20.1821237,0.56405617 C20.0412447,0.58812 19.9018232,0.61362766 19.7619158,0.639616596 C19.6827321,0.65453617 19.6030626,0.668974468 19.5238789,0.684856596 C19.4412947,0.70122 19.3591963,0.718064681 19.2770979,0.735871915 C19.1410768,0.763785957 19.0050558,0.79314383 18.8690347,0.824426809 C18.8442595,0.829720851 18.81997,0.83549617 18.7947089,0.840790213 C16.7830547,1.3057034 14.8394111,2.02521191 13.0147858,2.97669574 C13.0147858,2.97669574 13.0147858,2.97669574 13.0147858,2.97669574 L13.0143,2.97669574 C12.8952816,3.0392617 12.7791779,3.11000936 12.6606453,3.17450043 C12.5187947,3.25150468 12.3779158,3.33091532 12.2370368,3.41080723 C12.1325921,3.47048553 12.0262042,3.52535106 11.9222453,3.58695447 C11.9212737,3.58743574 11.9198163,3.5883983 11.9188447,3.58887957 C11.9188447,3.58887957 11.9183589,3.58887957 11.9183589,3.58887957 C11.9110721,3.59321106 11.9037853,3.59706128 11.8964984,3.60139277 C11.8692942,3.61775617 11.8411184,3.63123191 11.8139142,3.64759532 L11.8153716,3.6500017 L12.0660389,4.06245574 L19.2095732,15.81138 C19.3489947,15.7281191 19.4918168,15.6525587 19.6341532,15.5769983 C19.7774611,15.5004753 19.9227121,15.4287651 20.0689347,15.3599426 C21.0890926,14.878666 22.1733747,14.5802745 23.2756311,14.4695809 C23.4373989,14.4532174 23.5991668,14.4397417 23.7614205,14.43156 C23.9231884,14.4233783 24.0849563,14.4151966 24.24721,14.4151966 L24.2476958,0.223793617 C24.0854421,0.223793617 23.9236742,0.230531489 23.7619063,0.233419149 Z"></path>
                    <path d="M48.3156495,22.9236855 C48.3088484,22.7961472 48.3010758,22.6690902 48.2923316,22.5410706 C48.2884453,22.4775421 48.2850447,22.4144949 48.2797011,22.3500038 C48.2690137,22.2003268 48.2563832,22.0501685 48.2422953,21.9004915 C48.2393805,21.8615081 48.2354942,21.823006 48.2320937,21.7840226 C48.2155768,21.6165383 48.1976026,21.449054 48.1781711,21.2820511 C48.1762279,21.2685753 48.1747705,21.2550996 48.1733132,21.2416238 C48.1723416,21.2353672 48.1718558,21.2286294 48.1708842,21.2223728 C48.1485379,21.041894 48.1242484,20.8614153 48.0985016,20.6814179 C48.0980158,20.6761238 48.09753,20.669386 48.0960726,20.6645732 C47.93139,19.5330919 47.6846089,18.4117174 47.3557295,17.3091128 C47.3533005,17.3014123 47.3513574,17.2946745 47.3489284,17.2879366 C47.2969489,17.1166021 47.2439979,16.9462302 47.1895895,16.7763396 C47.1823026,16.7542009 47.17453,16.7315809 47.1677289,16.7089609 C47.1167211,16.5554336 47.0652274,16.4028689 47.0117905,16.249823 C46.9967311,16.2089145 46.9821574,16.1675247 46.9675837,16.1256536 C46.9204621,15.9933026 46.8718832,15.8614328 46.8223326,15.729563 C46.7985289,15.6665157 46.7742395,15.6039498 46.7494642,15.5413838 C46.7076863,15.432134 46.6644511,15.3228843 46.62073,15.2150783 C46.5857532,15.1284485 46.5507763,15.0432626 46.5148279,14.9580766 C46.4798511,14.8733719 46.4439026,14.7896298 46.4079542,14.7049251 C46.3608326,14.5971191 46.3132253,14.4893132 46.2651321,14.3819885 C46.2379279,14.3218289 46.2107237,14.2607068 46.1825479,14.200066 C46.1232816,14.0720464 46.0625579,13.9440268 46.0013484,13.8164885 C45.9824026,13.7779864 45.9639426,13.7385217 45.9449968,13.7000196 C45.8735858,13.5541928 45.8012032,13.408366 45.7273632,13.263983 C45.7166758,13.2442506 45.7064742,13.224037 45.6957868,13.2038234 C45.6132026,13.0445209 45.5286753,12.884737 45.4426905,12.7273596 C45.43929,12.7220655 45.4368611,12.7158089 45.4334605,12.7105149 C45.0161674,11.9500979 44.5580679,11.2147072 44.0625626,10.5072306 L33.4912979,20.9807719 C33.7317637,21.6829545 33.8881879,22.4058319 33.9644568,23.1354472 L34.0208084,23.1354472 L48.3243937,23.1354472 C48.3209932,23.063737 48.31905,22.9934706 48.3156495,22.9236855 Z"></path>
                    <path d="M34.0198368,24.0970379 C34.0198368,24.2577843 34.0047774,24.4175681 33.9965189,24.5783145 C33.9887463,24.7390609 33.9858316,24.8998072 33.9698005,25.0595911 C33.7847147,26.9076932 33.0647747,28.7124804 31.8099805,30.2285017 C31.7079647,30.3517085 31.5928326,30.4672149 31.48353,30.5860902 C31.3747132,30.7049655 31.2736689,30.8286536 31.1575653,30.9431974 L41.2867616,40.9778145 C41.4018937,40.8637519 41.5102247,40.7458391 41.6224421,40.6298515 C41.7346595,40.5138638 41.84882,40.39932 41.9581226,40.2818885 C42.7076958,39.4776753 43.3926589,38.6364038 44.0100974,37.7619243 C44.0348726,37.7272723 44.0581905,37.6931017 44.0819942,37.6589311 C44.1572916,37.5516064 44.2306458,37.4433191 44.3044858,37.3350319 C44.3690958,37.2382953 44.4337058,37.1415587 44.4963726,37.0438596 C44.5274632,36.9971757 44.5585537,36.9485668 44.5886726,36.901883 C46.9117179,33.287977 48.1548532,29.1913506 48.3219647,25.0591098 C48.32828,24.8988447 48.3316805,24.7380983 48.3350811,24.5778332 C48.3384816,24.4175681 48.3433395,24.257303 48.3433395,24.0965566 L34.0198368,24.0965566 L34.0198368,24.0970379 Z"></path>
                </g>
                <path d="M53.0362837,1.96413138 C50.417429,-0.654710461 46.1714378,-0.654710461 43.5530685,1.96413138 C41.4638098,4.0528944 41.0463464,7.17560238 42.2904844,9.683283 L27.683634,24.2905469 C25.1759411,23.0469004 22.0532177,23.4638764 19.963959,25.5526394 C17.3451043,28.1714812 17.3455897,32.4174515 19.963959,35.0362933 C22.5832992,37.6551352 26.8292903,37.6541643 29.4481451,35.0358079 C31.5369184,32.9470449 31.9538963,29.8243369 30.7097583,27.3161709 L45.3166087,12.7093924 C47.8247871,13.9530389 50.947025,13.5360629 53.0357983,11.4468145 C55.654653,8.82942892 55.654653,4.58297323 53.0362837,1.96413138 Z" id="Path"></path>
            </g>
        </g>
    </g>
</svg>