<?xml version="1.0" encoding="UTF-8"?>
<svg width="94px" height="94px" viewBox="0 0 94 94" version="1.1" xmlns="http://www.w3.org/2000/svg" xmlns:xlink="http://www.w3.org/1999/xlink">
    <!-- Generator: Sketch 52.6 (67491) - http://www.bohemiancoding.com/sketch -->
    <title>rabbitmq</title>
    <desc>Created with Sketch.</desc>
    <g id="Page-1" stroke="none" stroke-width="1" fill="none" fill-rule="evenodd">
        <g id="rabbitmq" transform="translate(1.000000, 1.000000)">
            <circle id="Oval" stroke="#4CAFDE" stroke-width="2.8347" cx="45.79" cy="45.79" r="45.374"></circle>
            <g transform="translate(26.000000, 25.000000)" fill="#4CAFDE" fill-rule="nonzero" id="Shape">
                <path d="M38.35,16.8 L25.0546875,16.8 C24.3873678,16.7997433 23.8464387,16.2628191 23.8460938,15.6003545 L23.8460938,1.84491635 C23.8460938,0.826287994 23.0140625,0 21.9884375,0 L17.2423438,0 C16.2160938,0 15.3845313,0.826287994 15.3845313,1.84491635 L15.3845313,15.5170588 C15.3845313,16.2263914 14.806875,16.8029472 14.0923438,16.8060494 L9.7353125,16.8266795 C9.0146875,16.8305573 8.42921875,16.2501237 8.430625,15.5353621 L8.45765625,1.84801861 C8.46,0.827839125 7.62765625,0 6.6,0 L1.8578125,0 C0.83140625,0 0,0.826287994 0,1.84491635 L0,40.3620047 C0,41.266935 0.7384375,42 1.64921875,42 L38.35,42 C39.2615625,42 40,41.266935 40,40.3620047 L40,18.4379953 C40,17.533065 39.2615625,16.8 38.35,16.8 Z M32.1153125,31.2616686 C32.1153125,32.447509 31.146875,33.4090557 29.9523437,33.4090557 L26.2015625,33.4090557 C25.006875,33.4090557 24.0384375,32.447509 24.0384375,31.2616686 L24.0384375,27.5381763 C24.0384375,26.3521808 25.006875,25.3907892 26.2015625,25.3907892 L29.9523437,25.3907892 C31.146875,25.3907892 32.1153125,26.3521808 32.1153125,27.5381763 L32.1153125,31.2616686 Z"></path>
            </g>
        </g>
    </g>
</svg>