<?xml version="1.0" encoding="UTF-8"?>
<svg width="95px" height="95px" viewBox="0 0 95 95" version="1.1" xmlns="http://www.w3.org/2000/svg" xmlns:xlink="http://www.w3.org/1999/xlink">
    <!-- Generator: Sketch 63.1 (92452) - https://sketch.com -->
    <title>servlet</title>
    <desc>Created with Sketch.</desc>
    <g id="Page-1" stroke="none" stroke-width="1" fill="none" fill-rule="evenodd">
        <g id="servlet" transform="translate(2.000000, 2.000000)">
            <circle id="Oval" stroke="#4CAFDE" stroke-width="2.8347" cx="45.374" cy="45.374" r="45.374"></circle>
            <g id="Group" transform="translate(31.000000, 19.000000)" fill="#4CAFDE" fill-rule="nonzero">
                <g id="java-seeklogo.com" transform="translate(6.000000, 23.000000)">
                    <path d="M6.13993096,18 C6.13993096,18 5.23372613,18.2689994 6.7848461,18.3600253 C8.66398434,18.4694521 9.62439017,18.4537591 11.6952133,18.2536979 C11.6952133,18.2536979 12.2396521,18.4279521 13,18.5788789 C8.35776154,19.5944537 2.49369968,18.5200547 6.13993096,18" id="Path"></path>
                    <path d="M5.25897307,15 C5.25897307,15 4.25637645,15.3917851 5.78757137,15.4753943 C7.76767134,15.5832342 9.33139924,15.5920544 12.03725,15.3169961 C12.03725,15.3169961 12.4115057,15.5172987 13,15.6268361 C7.46346248,16.4815008 1.29675562,15.6942361 5.25897307,15" id="Path"></path>
                    <path d="M9.99164888,11.4972472 C11.0728024,12.814573 9.70758635,14 9.70758635,14 C9.70758635,14 12.4528196,12.5002024 11.1920579,10.6220989 C10.0145455,8.87065148 9.11155036,8.00042626 14,5 C14,5 6.32674643,7.02816001 9.99164888,11.4972472" id="Path"></path>
                    <path d="M16.5272804,19.2385908 C16.5272804,19.2385908 17.2205403,19.8958972 15.7637827,20.4044068 C12.9937167,21.3700277 4.23447241,21.6616147 1.80119114,20.4428796 C0.926489097,20.0050048 2.56680321,19.3973479 3.08278359,19.2698404 C3.62089912,19.1355659 3.92841259,19.1605808 3.92841259,19.1605808 C2.95565511,18.3720411 -2.35909475,20.7089195 1.22878263,21.3781632 C11.0134463,23.2040989 19.0652907,20.5559409 16.5272804,19.2385908" id="Path"></path>
                    <path d="M6.19433227,13.0055485 C6.19433227,13.0055485 1.85302872,14.4770516 4.65696833,15.0114087 C5.84087827,15.2376101 8.20097238,15.1864346 10.3993404,14.9235743 C12.1959683,14.7072957 14,14.2474509 14,14.2474509 C14,14.2474509 13.3664869,14.6346209 12.9081555,15.0812353 C8.49963777,16.7358494 -0.0168008647,15.9661034 2.43497238,14.2736359 C4.50844039,12.8432936 6.19433227,13.0055485 6.19433227,13.0055485" id="Path"></path>
                    <path d="M14.0949064,16.8751736 C18.8170266,14.398434 16.633704,12.0183099 15.1097742,12.3389693 C14.736254,12.4174395 14.5697098,12.4854332 14.5697098,12.4854332 C14.5697098,12.4854332 14.7083723,12.2661825 14.9732148,12.1712788 C17.988037,11.1014554 20.3066299,15.3265865 14,17 C14,17.0000684 14.0730623,16.9341288 14.0949064,16.8751736" id="Path"></path>
                    <path d="M10.3795911,0 C10.3795911,0 12.7976829,2.4629999 8.08613599,6.25039796 C4.30795369,9.28854281 7.22459271,11.0208116 8.08456782,13 C5.87918022,10.9739314 4.26072092,9.19037539 5.34651003,7.53040678 C6.94019255,5.09372114 11.3552331,3.91232682 10.3795911,0" id="Path"></path>
                    <path d="M7.27392778,22.9004702 C11.44428,23.2654611 17.8483281,22.697963 18,20 C18,20 17.708453,21.0227768 14.5534285,21.8350244 C10.9939456,22.7508726 6.60382524,22.643944 4,22.0569888 C4,22.0569034 4.53303611,22.6601582 7.27392778,22.9004702" id="Path"></path>
                </g>
                <g id="servers">
                    <path d="M23.9867,0 L5.2133,0 C2.8607,0 0.9466,1.914 0.9466,4.2667 L0.9466,46.9334 C0.9466,49.286 2.8606,51.2001 5.2133,51.2001 L23.9866,51.2001 C26.3392,51.2001 28.2533,49.2861 28.2533,46.9334 L28.2533,4.2667 C28.2533,1.914 26.3393,0 23.9867,0 Z M26.5467,46.9333 C26.5467,48.3447 25.3981,49.4933 23.9867,49.4933 L5.2133,49.4933 C3.8019,49.4933 2.6533,48.3447 2.6533,46.9333 L2.6533,4.2667 C2.6533,2.8553 3.8019,1.7067 5.2133,1.7067 L23.9866,1.7067 C25.398,1.7067 26.5467,2.8553 26.5467,4.2667 L26.5467,46.9333 L26.5467,46.9333 Z" id="Shape"></path>
                    <path d="M15.4789,7.68 C15.4789,7.209 15.0975,6.8267 14.6256,6.8267 L14.6171,6.8267 C14.1461,6.8267 13.768,7.209 13.768,7.68 C13.768,8.151 14.1546,8.5333 14.6256,8.5333 C15.0975,8.5333 15.4789,8.151 15.4789,7.68 Z" id="Path"></path>
                    <path d="M23.9867,10.24 L5.2133,10.24 C4.7423,10.24 4.36,10.6223 4.36,11.0933 C4.36,11.5643 4.7423,11.9466 5.2133,11.9466 L23.9866,11.9466 C24.4576,11.9466 24.8399,11.5643 24.8399,11.0933 C24.8399,10.6223 24.4577,10.24 23.9867,10.24 Z" id="Path"></path>
                    <path d="M15.4789,14.5067 C15.4789,14.0357 15.0975,13.6534 14.6256,13.6534 L14.6171,13.6534 C14.1461,13.6534 13.768,14.0357 13.768,14.5067 C13.768,14.9777 14.1546,15.36 14.6256,15.36 C15.0975,15.36 15.4789,14.9777 15.4789,14.5067 Z" id="Path"></path>
                    <path d="M23.9867,3.4133 L5.2133,3.4133 C4.7423,3.4133 4.36,3.7956 4.36,4.2666 C4.36,4.7376 4.7423,5.1199 5.2133,5.1199 L23.9866,5.1199 C24.4576,5.1199 24.8399,4.7376 24.8399,4.2666 C24.8399,3.7956 24.4577,3.4133 23.9867,3.4133 Z" id="Path"></path>
                    <path d="M23.9867,17.0667 L5.2133,17.0667 C4.7423,17.0667 4.36,17.449 4.36,17.92 C4.36,18.391 4.7423,18.7733 5.2133,18.7733 L23.9866,18.7733 C24.4576,18.7733 24.8399,18.391 24.8399,17.92 C24.8399,17.449 24.4577,17.0667 23.9867,17.0667 Z" id="Path"></path>
                </g>
            </g>
        </g>
    </g>
</svg>