<?xml version="1.0" encoding="UTF-8"?>
<svg width="94px" height="94px" viewBox="0 0 94 94" version="1.1" xmlns="http://www.w3.org/2000/svg" xmlns:xlink="http://www.w3.org/1999/xlink">
    <!-- Generator: Sketch 63 (92445) - https://sketch.com -->
    <title>service-discovery</title>
    <desc>Created with Sketch.</desc>
    <g id="Page-1" stroke="none" stroke-width="1" fill="none" fill-rule="evenodd">
        <g id="service-discovery" transform="translate(1.000000, 1.000000)">
            <circle id="Oval" stroke="#4CAFDE" stroke-width="2.8347" cx="45.79" cy="45.79" r="45.374"></circle>
            <g id="discovery" transform="translate(46.000000, 46.000000) scale(-1, 1) translate(-46.000000, -46.000000) translate(22.000000, 22.000000)" fill="#4CAFDE" fill-rule="nonzero">
                <path d="M23.9991118,0 C10.7665651,0 0,10.7659488 0,24.0005006 C0,37.2332518 10.7665651,48 23.9991118,48 C37.2334349,48 48,37.2332518 48,24.0005006 C48,10.7659488 37.2334349,0 23.9991118,0 L23.9991118,0 Z M23.9991118,46.4459872 C11.6223439,46.4459872 1.5539798,36.3773988 1.5539798,24.000234 C1.5539798,11.6233333 11.6223439,1.55427922 23.9991118,1.55427922 C36.3760717,1.55427922 46.4460202,11.6233333 46.4460202,24.000234 C46.4460202,36.3771324 36.3760717,46.4459872 23.9991118,46.4459872 L23.9991118,46.4459872 Z M12.1891821,12.1896408 L20.4985761,27.5010245 L36.2553437,36.2567313 L27.5011118,20.4989082 L12.1891821,12.1896408 L12.1891821,12.1896408 Z M23.999832,27.4630674 C22.0877252,27.4630674 20.5373224,25.9127157 20.5373224,24.000234 C20.5373224,22.0880165 22.0877252,20.5376648 23.999832,20.5376648 C25.9128269,20.5376648 27.4626056,22.0880165 27.4626056,24.000234 C27.4626056,25.9127157 25.9128269,27.4630674 23.999832,27.4630674 L23.999832,27.4630674 Z" id="Shape"></path>
            </g>
        </g>
    </g>
</svg>