<?xml version="1.0" encoding="UTF-8"?>
<svg width="94px" height="94px" viewBox="0 0 94 94" version="1.1" xmlns="http://www.w3.org/2000/svg" xmlns:xlink="http://www.w3.org/1999/xlink">
    <!-- Generator: Sketch 52.6 (67491) - http://www.bohemiancoding.com/sketch -->
    <title>spring</title>
    <desc>Created with Sketch.</desc>
    <g id="Page-1" stroke="none" stroke-width="1" fill="none" fill-rule="evenodd">
        <g id="spring" transform="translate(1.000000, 1.000000)">
            <circle id="Oval" stroke="#4CAFDE" stroke-width="2.8347" cx="45.79" cy="45.79" r="45.374"></circle>
            <path d="M65.652182,24.4996745 C64.9770516,26.1119646 64.1206362,27.6430152 63.0891869,29.0490822 C58.5758151,24.5371696 52.4496318,22 46.0671489,22 C32.8645986,22 22,32.8735842 22,46.0906132 C22,52.6835048 24.7005216,58.9951829 29.4764442,63.5445905 L30.3641156,64.331988 C34.7024537,67.987762 40.197265,70 45.8671103,70 C58.4195349,70 68.9715732,60.1637808 69.8654959,47.627913 C70.5218727,41.4912121 68.7215249,33.7297227 65.652182,24.4996745 Z M32.8958547,63.6820726 C32.5082798,64.16326 31.9144151,64.4444734 31.2955456,64.4444734 C30.164077,64.4444734 29.2388983,63.5133446 29.2388983,62.3822419 C29.2388983,61.2511392 30.1703282,60.3200104 31.2955456,60.3200104 C31.7643861,60.3200104 32.2269755,60.4824893 32.5895455,60.7824502 C33.4709658,61.4948574 33.6084923,62.8009374 32.8958547,63.6820726 Z M65.5521627,56.4705117 C59.6135156,64.3882307 46.9298155,61.7198281 38.7969946,62.1010285 C38.7969946,62.1010285 37.3529656,62.1885171 35.9026855,62.4259862 C35.9026855,62.4259862 36.4465405,62.1947663 37.152927,61.9260513 C42.8602794,59.9388101 45.5608011,59.5513605 49.0302213,57.7703424 C55.5627331,54.4457753 62.0202304,47.1717224 63.3642401,39.6039578 C60.8762595,46.8842599 53.3373032,53.1396954 46.4672262,55.6831142 C41.7600669,57.420388 33.2584247,59.1076683 33.2584247,59.1076683 L32.9146083,58.9264419 C27.1259902,56.1080588 26.9509563,43.5659419 37.4717386,39.5164692 C42.0788785,37.7417003 46.4859798,38.7165734 51.461941,37.529228 C56.7754674,36.2668923 62.9204043,32.2799115 65.4208873,27.0805885 C68.2214283,35.3982554 71.5908291,48.4215597 65.5521627,56.4705117 Z" id="Shape" fill="#4CAFDE" fill-rule="nonzero"></path>
        </g>
    </g>
</svg>