<?xml version="1.0" encoding="UTF-8"?>
<svg width="94px" height="94px" viewBox="0 0 94 94" version="1.1" xmlns="http://www.w3.org/2000/svg" xmlns:xlink="http://www.w3.org/1999/xlink">
    <!-- Generator: Sketch 50 (54983) - http://www.bohemiancoding.com/sketch -->
    <title>training</title>
    <desc>Created with Sketch.</desc>
    <defs></defs>
    <g id="Page-1" stroke="none" stroke-width="1" fill="none" fill-rule="evenodd">
        <g id="training" transform="translate(1.000000, 1.000000)">
            <circle id="Oval" stroke="#4CAFDE" stroke-width="2.8347" cx="45.88" cy="45.792" r="45.374"></circle>
            <g id="137-presentation" transform="translate(24.000000, 26.000000)" fill="#4CAFDE" fill-rule="nonzero">
                <rect id="Rectangle-path" x="19.9984615" y="0" width="3.07692308" height="4.61538462"></rect>
                <path d="M20,18.4615385 C20,15.0630769 17.2446154,12.3076923 13.8461538,12.3076923 C10.4476923,12.3076923 7.69230769,15.0630769 7.69230769,18.4615385 C7.69230769,21.86 10.4476923,24.6153846 13.8461538,24.6153846 L13.8461538,18.4615385 L20,18.4615385 Z" id="Shape"></path>
                <path d="M21.5384615,20 L15.3846154,20 L15.3846154,26.1538462 C18.7830769,26.1538462 21.5384615,23.3984615 21.5384615,20 Z" id="Shape"></path>
                <rect id="Rectangle-path" x="24.6153846" y="12.3076923" width="10.7692308" height="3.07692308"></rect>
                <rect id="Rectangle-path" x="24.6153846" y="16.9230769" width="10.7692308" height="3.07692308"></rect>
                <rect id="Rectangle-path" x="24.6153846" y="21.5384615" width="10.7692308" height="3.07692308"></rect>
                <path d="M27.4723077,37.6692308 L22.8569231,29.9784615 C22.8446154,29.9569231 22.8246154,29.9476923 22.8138462,29.9292308 C22.7569231,29.8415385 22.6784615,29.7738462 22.6030769,29.7 C22.5307692,29.6276923 22.4646154,29.5523077 22.38,29.4953846 C22.3584615,29.4830769 22.3492308,29.4630769 22.3292308,29.4507692 C22.2661538,29.4138462 22.1953846,29.4092308 22.1292308,29.38 C22.0307692,29.3369231 21.9353846,29.2938462 21.8307692,29.2738462 C21.7292308,29.2538462 21.6323077,29.2569231 21.5338462,29.2584615 C21.4384615,29.2584615 21.3446154,29.2538462 21.2476923,29.2738462 C21.1384615,29.2953846 21.0369231,29.34 20.9353846,29.3846154 C20.8723077,29.4123077 20.8061538,29.4153846 20.7461538,29.4507692 C20.7261538,29.4630769 20.7169231,29.4830769 20.6984615,29.4938462 C20.6107692,29.5523077 20.5415385,29.6307692 20.4661538,29.7076923 C20.3953846,29.78 20.32,29.8446154 20.2661538,29.9292308 C20.2523077,29.9476923 20.2323077,29.96 20.22,29.9784615 L15.6046154,37.6692308 C15.1676923,38.4 15.4030769,39.3430769 16.1323077,39.7815385 C16.3784615,39.9276923 16.6507692,40 16.9215385,40 C17.4446154,40 17.9538462,39.7323077 18.2415385,39.2523077 L21.5384615,33.7584615 L24.8353846,39.2523077 C25.1230769,39.7338462 25.6323077,40 26.1553846,40 C26.4261538,40 26.6984615,39.9292308 26.9461538,39.78 C27.6738462,39.3430769 27.9107692,38.3984615 27.4723077,37.6692308 Z" id="Shape"></path>
                <path d="M43.0769231,3.07692308 L0,3.07692308 L0,7.69230769 L1.53846154,7.69230769 L1.53846154,32.3076923 L41.5384615,32.3076923 L41.5384615,7.69230769 L43.0769231,7.69230769 L43.0769231,3.07692308 Z M38.4630769,29.2307692 L4.61692308,29.2307692 L4.61692308,7.69230769 L38.4630769,7.69230769 L38.4630769,29.2307692 Z" id="Shape"></path>
            </g>
        </g>
    </g>
</svg>