<?xml version="1.0" encoding="UTF-8"?>
<svg width="16px" height="16px" viewBox="0 0 16 16" version="1.1" xmlns="http://www.w3.org/2000/svg" xmlns:xlink="http://www.w3.org/1999/xlink">
    <!-- Generator: Sketch 50.2 (55047) - http://www.bohemiancoding.com/sketch -->
    <title>favicon-16x16</title>
    <desc>Created with Sketch.</desc>
    <defs></defs>
    <g id="Page-1" stroke="none" stroke-width="1" fill="none" fill-rule="evenodd">
        <g id="Favicons" transform="translate(-836.000000, -155.000000)">
            <g id="favicon-16x16" transform="translate(836.000000, 155.000000)">
                <g id="Group" fill="#000000" fill-rule="nonzero">
                    <path d="M10.7924597,8.13762385 C10.9148691,8.17054821 11.0450577,8.12648409 11.1223073,8.02598244 C11.1995568,7.92548079 11.2086507,7.7883384 11.1453475,7.67851677 C11.0820444,7.56869515 10.9588138,7.50782692 10.8331288,7.52430026 C10.7074439,7.54077362 10.6040621,7.63134363 10.5711993,7.75376959 C10.526347,7.92086125 10.6253906,8.0926874 10.7924597,8.13762385 Z" id="Path_308"></path>
                    <path d="M10.5174338,6.6749993 C10.6398597,6.64213656 10.7304298,6.5387547 10.7469031,6.41306978 C10.7633765,6.28738484 10.7025082,6.16415418 10.5926866,6.10085108 C10.482865,6.03754796 10.3457226,6.04664181 10.2452209,6.12389135 C10.1447193,6.2011409 10.1006552,6.33132956 10.1335795,6.45373896 C10.178516,6.62080801 10.3503421,6.71985164 10.5174338,6.6749993 Z" id="Path_309"></path>
                    <path d="M9.10151174,5.10585266 C8.99597978,5.21169379 8.97988454,5.37733315 9.0630654,5.50151159 C9.14624624,5.62569001 9.30554801,5.67383978 9.44358586,5.61652583 C9.58162371,5.55921186 9.65997183,5.41238874 9.6307342,5.26581283 C9.60149659,5.11923692 9.47281215,5.01371076 9.32334866,5.01374494 C9.24010426,5.01376396 9.16028826,5.04690395 9.10151174,5.10585266 Z" id="Path_310"></path>
                    <path d="M7.92241754,4.67544004 C7.80000814,4.64251568 7.66981948,4.6865798 7.59256993,4.78708145 C7.51532039,4.8875831 7.50622655,5.02472549 7.56952966,5.13454712 C7.63283277,5.24436874 7.75606342,5.30523697 7.88174836,5.28876363 C8.00743329,5.27229027 8.11081514,5.18172025 8.14367788,5.0592943 C8.18853022,4.89220264 8.0894866,4.72037648 7.92241754,4.67544004 Z" id="Path_311"></path>
                    <path d="M6.45503625,5.72307532 C6.5774622,5.69021259 6.66803222,5.58683073 6.68450558,5.4611458 C6.70097892,5.33546086 6.64011069,5.21223021 6.53028907,5.14892711 C6.42046744,5.08562399 6.28332505,5.09471783 6.1828234,5.17196737 C6.08232175,5.24921693 6.03825763,5.37940559 6.07118199,5.50181498 C6.11611843,5.66888404 6.28794459,5.76792766 6.45503625,5.72307532 Z" id="Path_312"></path>
                    <path d="M5.1072941,6.31262242 C5.0025936,6.41836368 4.98707045,6.58330142 5.07020346,6.70672065 C5.15333646,6.8301399 5.31201864,6.87773603 5.44935482,6.8204457 C5.58669098,6.76315536 5.66450829,6.61690253 5.6352896,6.47099272 C5.60607091,6.3250829 5.47793762,6.22007202 5.32913101,6.22008227 C5.24582438,6.22021582 5.16599957,6.25351505 5.1072941,6.31262242 Z" id="Path_313"></path>
                    <path d="M5.06174474,7.71787785 C4.93933534,7.68495349 4.80914668,7.72901761 4.73189713,7.82951926 C4.65464759,7.93002091 4.64555375,8.0671633 4.70885686,8.17698493 C4.77215997,8.28680656 4.89539062,8.34767479 5.02107556,8.33120144 C5.14676049,8.31472808 5.25014234,8.22415807 5.28300508,8.10173211 C5.32785742,7.93464045 5.2288138,7.7628143 5.06174474,7.71787785 Z" id="Path_314"></path>
                    <path d="M5.34037421,9.18035826 C5.19685007,9.2195104 5.10091785,9.35453048 5.11117529,9.50294494 C5.12143275,9.65135942 5.23502755,9.77189835 5.38257323,9.79093361 C5.53011891,9.80996889 5.67058714,9.72220732 5.71817648,9.58125582 C5.76576581,9.44030432 5.707243,9.28535758 5.5783552,9.21106083 C5.5062435,9.16965782 5.42063285,9.15861295 5.34037421,9.18035826 Z" id="Path_315"></path>
                    <path d="M6.7564404,10.7495049 C6.86056184,10.6441195 6.8758662,10.4799079 6.79301243,10.3570966 C6.71015868,10.2342853 6.5521625,10.1869896 6.41545679,10.2440765 C6.27875108,10.3011634 6.2013109,10.4467748 6.23040181,10.5920369 C6.25949271,10.737299 6.38703365,10.8418599 6.53518006,10.8419009 C6.61826598,10.8416526 6.69785232,10.8084181 6.7564404,10.7495049 Z" id="Path_316"></path>
                    <path d="M7.94144449,11.1800617 C8.06408486,11.2128275 8.19437746,11.1683683 8.271408,11.0674695 C8.34843853,10.9665708 8.35698784,10.8291674 8.29305895,10.7194981 C8.22913008,10.6098287 8.10535362,10.5495612 7.97959748,10.5668717 C7.85384133,10.5841822 7.75095151,10.6756506 7.719031,10.7985137 C7.6757234,10.965206 7.77505433,11.1356072 7.94144449,11.1800617 Z" id="Path_317"></path>
                    <path d="M9.40277175,10.1324264 C9.28034579,10.1652891 9.18977578,10.268671 9.17330242,10.3943559 C9.15682907,10.5200408 9.2176973,10.6432715 9.32751893,10.7065746 C9.43734056,10.7698777 9.57448295,10.7607839 9.6749846,10.6835343 C9.77548625,10.6062848 9.81955037,10.4760961 9.78662601,10.3536867 C9.74168956,10.1866177 9.56986341,10.087574 9.40277175,10.1324264 Z" id="Path_318"></path>
                    <path d="M10.7522436,9.54403242 C10.8744164,9.42158106 10.8742658,9.22329717 10.7519072,9.10103147 C10.6295487,8.97876577 10.4312647,8.97876577 10.3089062,9.10103147 C10.1865476,9.22329717 10.186397,9.42158106 10.3085698,9.54403242 C10.3673581,9.60295479 10.4471726,9.63606832 10.5304067,9.63606832 C10.6136408,9.63606832 10.6934553,9.60295479 10.7522436,9.54403242 Z" id="Path_319"></path>
                    <path d="M12.4583266,7.58353606 C12.314907,7.54505752 12.1624304,7.59676175 12.0719966,7.71453915 C11.9815628,7.83231657 11.9709811,7.99297288 12.0451857,8.12159427 C12.1193904,8.25021567 12.2637681,8.32147236 12.4109956,8.30213742 C12.5582232,8.28280248 12.6793067,8.17668363 12.717785,8.03326393 C12.7703263,7.83742758 12.6541629,7.63607765 12.4583266,7.58353606 Z" id="Path_320"></path>
                    <path d="M11.8687795,6.07464143 C12.0122293,6.03621331 12.1183999,5.91514873 12.1377751,5.76791025 C12.1571502,5.62067177 12.0859135,5.47626209 11.9572885,5.40203157 C11.8286635,5.32780105 11.6679865,5.33837141 11.5501946,5.42881283 C11.4324028,5.51925426 11.3806985,5.6717518 11.4191958,5.81518305 C11.4717394,6.0109474 11.6729899,6.12709064 11.8687795,6.07464143 Z" id="Path_321"></path>
                    <path d="M9.89559853,4.35241435 C10.0005659,4.45749843 10.1585086,4.4889836 10.2957471,4.43218222 C10.4329856,4.37538083 10.522479,4.24148478 10.522479,4.09295597 C10.522479,3.94442716 10.4329856,3.81053111 10.2957471,3.75372972 C10.1585086,3.69692834 10.0005659,3.72841351 9.89559853,3.83349759 C9.75241621,3.97683912 9.75241621,4.20907282 9.89559853,4.35241435 Z" id="Path_322"></path>
                    <path d="M7.84458002,3.8477678 C7.98799967,3.88624634 8.14047621,3.83454211 8.23091004,3.71676471 C8.32134387,3.5989873 8.33192557,3.43833098 8.25772092,3.30970959 C8.18351626,3.18108819 8.0391386,3.10983151 7.89191104,3.12916645 C7.74468349,3.14850139 7.6236,3.25462024 7.58512164,3.39803994 C7.53258033,3.59387628 7.64874375,3.79522621 7.84458002,3.8477678 Z" id="Path_323"></path>
                    <path d="M5.62621086,3.72697551 C5.48279116,3.76545386 5.37667231,3.88653735 5.35733737,4.03376491 C5.33800243,4.18099246 5.40925911,4.32537013 5.53788052,4.39957479 C5.66650191,4.47377944 5.82715822,4.46319773 5.94493564,4.3727639 C6.06271303,4.28233007 6.11441727,4.12985353 6.07593872,3.98643389 C6.02339713,3.79059762 5.82204721,3.67443419 5.62621086,3.72697551 Z" id="Path_324"></path>
                    <path d="M3.83479488,5.96091217 C3.93976224,6.06599625 4.09770495,6.09748142 4.23494346,6.04068004 C4.37218198,5.98387865 4.46167536,5.8499826 4.46167536,5.70145379 C4.46167536,5.55292498 4.37218198,5.41902893 4.23494346,5.36222754 C4.09770495,5.30542616 3.93976224,5.33691134 3.83479488,5.44199541 C3.69161256,5.58533694 3.69161256,5.81757064 3.83479488,5.96091217 Z" id="Path_325"></path>
                    <path d="M3.39948137,8.27153321 C3.54290102,8.31001175 3.69537756,8.25830752 3.78581139,8.14053012 C3.87624522,8.0227527 3.88682692,7.86209639 3.81262227,7.733475 C3.73841761,7.6048536 3.59403995,7.53359691 3.44681239,7.55293185 C3.29958484,7.57226679 3.17850135,7.67838564 3.14002299,7.82180534 C3.08748167,8.01764169 3.2036451,8.21899162 3.39948137,8.27153321 Z" id="Path_326"></path>
                    <path d="M3.98902847,9.78071613 C3.84557868,9.81914425 3.73940806,9.94020883 3.72003291,10.0874473 C3.70065775,10.2346858 3.77189451,10.3790955 3.90051952,10.453326 C4.02914454,10.5275565 4.18982154,10.5169861 4.30761337,10.4265447 C4.4254052,10.3361033 4.47710949,10.1836058 4.43861219,10.0401745 C4.38606857,9.84441016 4.18481815,9.72826692 3.98902847,9.78071613 Z" id="Path_327"></path>
                    <path d="M5.96235361,11.5029432 C5.83823534,11.3793752 5.64411617,11.3606852 5.49870191,11.4583022 C5.35328767,11.5559192 5.29707387,11.7426586 5.36443581,11.9043272 C5.43179775,12.0659959 5.60397623,12.1575718 5.77568237,12.1230553 C5.94738853,12.0885388 6.07080495,11.9375423 6.07046127,11.7624016 C6.07027013,11.6649989 6.03138071,11.5716643 5.96235361,11.5029432 Z" id="Path_328"></path>
                    <path d="M8.01308383,12.0075898 C7.86966419,11.9691112 7.71718765,12.0208154 7.62675382,12.1385928 C7.53631999,12.2563703 7.52573828,12.4170266 7.59994293,12.545648 C7.67414759,12.6742694 7.81852526,12.7455261 7.96575281,12.7261911 C8.11298037,12.7068562 8.23406386,12.6007373 8.27254221,12.4573176 C8.32508353,12.2614813 8.2089201,12.0601313 8.01308383,12.0075898 Z" id="Path_329"></path>
                    <path d="M10.2328944,12.128382 C10.4283931,12.075295 10.5439469,11.8738905 10.4911108,11.6783238 C10.4382748,11.4827572 10.2370188,11.3669449 10.0413845,11.4195299 C9.84575018,11.4721149 9.72967964,11.673222 9.78201342,11.8689237 C9.80723111,11.963225 9.86896536,12.0436011 9.95357194,12.0922878 C10.0381785,12.1409744 10.138691,12.1539627 10.2328944,12.128382 Z" id="Path_330"></path>
                    <path d="M12.0243104,9.89444538 C11.919343,9.78936131 11.7614003,9.75787613 11.6241618,9.81467751 C11.4869233,9.87147891 11.3974299,10.005375 11.3974299,10.1539038 C11.3974299,10.3024326 11.4869233,10.4363286 11.6241618,10.49313 C11.7614003,10.5499314 11.919343,10.5184462 12.0243104,10.4133621 C12.1674927,10.2700206 12.1674927,10.0377869 12.0243104,9.89444538 Z" id="Path_331"></path>
                    <path d="M13.7582131,9.0689353 C13.9454474,9.12113573 14.1456535,9.05486356 14.2647618,8.90125767 C14.3838701,8.74765176 14.3982015,8.53724958 14.3010222,8.3689114 C14.2038429,8.20057321 14.0144725,8.10776531 13.8218891,8.13409471 C13.6293058,8.16042412 13.471796,8.30065644 13.4233677,8.48890167 C13.3584708,8.74116158 13.5073079,8.99898359 13.7582131,9.0689353 Z" id="Path_332"></path>
                    <path d="M13.8828973,5.41691443 C13.8343282,5.22862967 13.6766297,5.08847248 13.4839456,5.06233953 C13.2912614,5.0362066 13.1019284,5.12929735 13.0049638,5.297844 C12.9079992,5.46639064 12.9226953,5.67685894 13.0421424,5.83029455 C13.1615895,5.98373017 13.3620224,6.04960536 13.549205,5.99694806 C13.7996445,5.92649563 13.9478799,5.66882866 13.8828973,5.41691443 Z" id="Path_333"></path>
                    <path d="M11.8330319,2.78643888 C11.6969822,2.6476052 11.4904545,2.60489107 11.3104946,2.6783675 C11.1305348,2.75184393 11.0129223,2.92690242 11.0129223,3.12128433 C11.0129223,3.31566624 11.1305348,3.49072473 11.3104946,3.56420116 C11.4904545,3.63767759 11.6969822,3.59496346 11.8330319,3.45612979 C12.0153189,3.27011279 12.0153189,2.97245588 11.8330319,2.78643888 Z" id="Path_334"></path>
                    <path d="M8.49034311,2.4329989 C8.67729821,2.48753985 8.87865571,2.42331103 8.99949831,2.27058908 C9.12034089,2.11786714 9.13654773,1.90713622 9.04047911,1.73773213 C8.9444105,1.56832804 8.75524225,1.47406478 8.56214584,1.49937683 C8.36904943,1.5246889 8.21056795,1.66452382 8.16140754,1.85296528 C8.09605826,2.10346178 8.24182241,2.36049725 8.49034311,2.4329989 Z" id="Path_335"></path>
                    <path d="M5.66830078,2.8874835 C5.85658554,2.83891446 5.99674273,2.6812159 6.02287568,2.48853177 C6.04900862,2.29584764 5.95591786,2.10651464 5.78737122,2.00955005 C5.61882457,1.91258547 5.40835627,1.92728149 5.25492066,2.04672862 C5.10148504,2.16617575 5.03560986,2.36660862 5.08826715,2.55379119 C5.12074152,2.67507955 5.2001696,2.77844769 5.30900481,2.84106039 C5.41784001,2.90367308 5.54712555,2.92037752 5.66830078,2.8874835 Z" id="Path_336"></path>
                    <path d="M3.45079648,4.02477607 C3.31487832,3.88560812 3.10822637,3.84259571 2.92806859,3.91597583 C2.7479108,3.98935597 2.6301228,4.16451612 2.6301228,4.35904495 C2.6301228,4.55357379 2.7479108,4.72873394 2.92806859,4.80211408 C3.10822637,4.8754942 3.31487832,4.83248179 3.45079648,4.69331384 C3.53982498,4.60485966 3.58988925,4.48454482 3.58988925,4.35904495 C3.58988925,4.23354509 3.53982498,4.11323025 3.45079648,4.02477607 Z" id="Path_337"></path>
                    <path d="M2.09959488,6.78613397 C1.91236059,6.73393354 1.71215453,6.80020571 1.5930462,6.9538116 C1.47393788,7.10741751 1.45960646,7.31781969 1.55678579,7.48615787 C1.65396512,7.65449606 1.84333554,7.74730396 2.03591885,7.72097456 C2.22850215,7.69464515 2.38601201,7.55441283 2.43444034,7.3661676 C2.49933719,7.11390769 2.35050009,6.85608568 2.09959488,6.78613397 Z" id="Path_338"></path>
                    <path d="M2.30990031,9.85365276 C2.12165509,9.90208108 1.98142276,10.0595909 1.95509336,10.2521742 C1.92876395,10.4447576 2.02157185,10.634128 2.18991004,10.7313073 C2.35824822,10.8284866 2.5686504,10.8141552 2.72225631,10.6950469 C2.8758622,10.5759386 2.94213437,10.3757325 2.88993394,10.1884982 C2.81998223,9.93759301 2.56216022,9.7887559 2.30990031,9.85365276 Z" id="Path_339"></path>
                    <path d="M4.69345798,12.4058584 C4.55740821,12.2670247 4.35088053,12.2243106 4.17092071,12.297787 C3.99096088,12.3712634 3.87334836,12.5463219 3.87334836,12.7407038 C3.87334836,12.9350857 3.99096088,13.1101442 4.17092071,13.1836207 C4.35088053,13.2570971 4.55740821,13.214383 4.69345798,13.0755493 C4.87574496,12.8895323 4.87574496,12.5918754 4.69345798,12.4058584 Z" id="Path_340"></path>
                    <path d="M7.36804146,13.4223587 C7.18080717,13.3701582 6.98060111,13.4364304 6.86149278,13.5900363 C6.74238446,13.7436422 6.72805304,13.9540444 6.82523237,14.1223826 C6.9224117,14.2907207 7.11178212,14.3835286 7.30436543,14.3571992 C7.49694873,14.3308698 7.65445859,14.1906375 7.70288692,14.0023923 C7.76778377,13.7501324 7.61894667,13.4923104 7.36804146,13.4223587 Z" id="Path_341"></path>
                    <path d="M10.1945522,12.9678741 C10.0062675,13.0164431 9.86611029,13.1741417 9.83997734,13.3668258 C9.81384441,13.5595099 9.90693516,13.7488429 10.0754818,13.8458075 C10.2440284,13.9427721 10.4544968,13.9280761 10.6079324,13.8086289 C10.761368,13.6891818 10.8272432,13.4887489 10.7745859,13.3015664 C10.7041334,13.0511268 10.4464665,12.9028915 10.1945522,12.9678741 Z" id="Path_342"></path>
                    <path d="M13.0767024,11.8317346 C13.2155361,11.6956849 13.2582502,11.4891572 13.1847738,11.3091974 C13.1112974,11.1292375 12.9362389,11.011625 12.741857,11.011625 C12.5474751,11.011625 12.3724166,11.1292375 12.2989401,11.3091974 C12.2254637,11.4891572 12.2681778,11.6956849 12.4070115,11.8317346 C12.5930285,12.0140216 12.8906854,12.0140216 13.0767024,11.8317346 Z" id="Path_343"></path>
                    <path d="M15.448152,9.37178089 C15.1939885,9.30429716 14.9275417,9.4257037 14.8116963,9.66178213 C14.6958509,9.89786058 14.7628549,10.1828937 14.971747,10.3426348 C15.1806392,10.5023759 15.4732705,10.4923579 15.6707492,10.3187048 C15.8682277,10.1450518 15.9155816,9.85610373 15.7838624,9.62850054 C15.7104995,9.50173376 15.589712,9.40936689 15.448152,9.37178089 Z" id="Path_344"></path>
                    <path d="M15.4482962,6.48472982 C15.7022852,6.41661007 15.8728167,6.17860015 15.8556443,5.91619628 C15.838472,5.65379241 15.6383758,5.44003725 15.3776754,5.40560003 C15.1169748,5.37116281 14.8682385,5.52562947 14.7835196,5.77457402 C14.6988006,6.02351857 14.8016816,6.2976449 15.0292709,6.4293787 C15.1560891,6.50263735 15.3068056,6.52254624 15.4482962,6.48472982 Z" id="Path_345"></path>
                    <path d="M12.9450994,2.91861851 C13.1313543,3.10423003 13.4227639,3.13248257 13.6412054,2.98610686 C13.8596469,2.83973117 13.9443224,2.55946726 13.8434744,2.31662533 C13.7426264,2.07378339 13.4843235,1.93595242 13.2264522,1.98738103 C12.9685808,2.03880966 12.7829132,2.26518399 12.7829379,2.52813364 C12.7829516,2.67467316 12.8413012,2.81517885 12.9450994,2.91861851 Z" id="Path_346"></path>
                    <path d="M9.76284233,1.08395946 C10.0169116,1.15195391 10.2836334,1.03102432 10.3999153,0.795115552 C10.5161972,0.559206781 10.4496593,0.274010007 10.2409875,0.113914614 C10.0323158,-0.0461807795 9.739617,-0.0365946165 9.54186775,0.136811448 C9.3441185,0.310217513 9.29638411,0.599156813 9.42785273,0.82695152 C9.50099034,0.95367653 9.62150047,1.04613331 9.76284233,1.08395946 Z" id="Path_347"></path>
                    <path d="M6.09626296,1.08395946 C6.35003151,1.01513894 6.51989231,0.776698793 6.50202799,0.514371512 C6.48416367,0.25204423 6.28354572,0.038833458 6.02279003,0.00505170706 C5.76203434,-0.0287300438 5.5137072,0.126318426 5.42958393,0.375432882 C5.34546066,0.624547338 5.44895211,0.898401159 5.67680525,1.02961734 C5.80384025,1.10277433 5.95477934,1.12232898 6.09626296,1.08395946 Z" id="Path_348"></path>
                    <path d="M2.13894607,2.91847436 C2.29691759,3.07660217 2.53460149,3.12397205 2.74112448,3.03848723 C2.94764747,2.95300241 3.08231943,2.7515055 3.08231943,2.5279895 C3.08231943,2.3044735 2.94764747,2.10297659 2.74112448,2.01749177 C2.53460149,1.93200695 2.29691759,1.97937683 2.13894607,2.13750463 C1.92343801,2.3532259 1.92343801,2.7027531 2.13894607,2.91847436 Z" id="Path_349"></path>
                    <path d="M0.695492606,5.41677029 C0.441329015,5.34928656 0.174882299,5.47069311 0.0590369049,5.70677154 C-0.0568084899,5.94284998 0.0101953474,6.2278831 0.219087571,6.38762422 C0.427979795,6.54736533 0.720611024,6.53734726 0.918089675,6.36369424 C1.11556833,6.19004124 1.16292222,5.90109314 1.03120292,5.67348994 C0.957742943,5.54680857 0.836995587,5.45447236 0.695492606,5.41677029 Z" id="Path_350"></path>
                    <path d="M0.409944243,9.37178089 C0.156726137,9.44040113 -0.0128177161,9.67826084 0.00491515238,9.94001204 C0.0226480208,10.2017632 0.222724023,10.4145823 0.482883538,10.4484227 C0.743043051,10.4822632 0.990905254,10.32771 1.07501001,10.0792054 C1.15911476,9.83070078 1.05606268,9.55738297 0.828825386,9.42626715 C0.701968128,9.35321749 0.551267934,9.33361505 0.409944243,9.37178089 Z" id="Path_351"></path>
                    <path d="M2.9199158,12.9380363 C2.70458728,12.7227582 2.35551582,12.7227855 2.1402209,12.9380972 C1.92492599,13.1534089 1.92492599,13.5024804 2.1402209,13.7177921 C2.35551582,13.9331038 2.70458728,13.933131 2.9199158,13.7178529 C3.02334172,13.6144512 3.08144784,13.4741939 3.08144784,13.3279446 C3.08144784,13.1816954 3.02334172,13.0414381 2.9199158,12.9380363 Z" id="Path_352"></path>
                    <path d="M6.09496567,14.7713981 C5.84080209,14.7039144 5.57435537,14.8253209 5.45850997,15.0613993 C5.34266458,15.2974778 5.40966841,15.582511 5.61856063,15.742252 C5.82745287,15.9019932 6.12008408,15.8919751 6.31756274,15.718322 C6.51504139,15.544669 6.56239528,15.255721 6.43067599,15.0281178 C6.35731309,14.901351 6.23652563,14.8089841 6.09496567,14.7713981 Z" id="Path_353"></path>
                    <path d="M9.76284233,14.7713981 C9.50872677,14.8394608 9.33809512,15.077573 9.35532297,15.340081 C9.37255082,15.6025889 9.57283852,15.8163584 9.83366981,15.8506262 C10.0945011,15.884894 10.3432087,15.7301132 10.4276578,15.4809636 C10.5121069,15.2318138 10.40877,14.957708 10.1808586,14.8263168 C10.054298,14.7533545 9.90395426,14.7336025 9.76284233,14.7713981 Z" id="Path_354"></path>
                    <path d="M13.7188619,12.9368832 C13.5327065,12.7521032 13.2419982,12.7244231 13.0243159,12.8707514 C12.8066337,13.0170796 12.7225122,13.2967242 12.8233369,13.5388644 C12.9241616,13.7810046 13.1818945,13.9183044 13.4390997,13.8668944 C13.6963049,13.8154843 13.881457,13.5896608 13.8814558,13.3273681 C13.8813276,13.1807663 13.8228188,13.0402518 13.7188619,12.9368832 Z" id="Path_355"></path>
                    <path d="M9.57516743,8.25783957 C9.44543824,8.38756876 9.32637567,8.51383851 9.19722305,8.63261279 C9.09976273,8.72128426 8.99667777,8.80356927 8.88861172,8.87895411 C8.73610661,8.98277948 8.54177835,9.00344578 8.37084811,8.93401694 C8.2385665,8.89099874 8.14307197,8.7753942 8.12580408,8.63736952 C7.93928233,8.78799953 7.7670308,8.96385465 7.50872556,8.97466542 C7.48724818,9.07398032 7.4654825,9.17646638 7.44414926,9.27967316 C7.43197924,9.32408052 7.42278173,9.36924945 7.41661784,9.41487981 C7.41661784,9.48060926 7.3807261,9.50698753 7.31571736,9.5201046 C7.15715946,9.55239275 6.8133771,9.63974374 6.78959342,9.63974374 C6.97971875,8.74158531 7.16869094,7.84587732 7.35881628,6.9596828 L7.93539046,6.9596828 C7.90555274,7.10382635 7.63758989,8.38050573 7.63513945,8.39477594 C7.61852081,8.4571221 7.63906108,8.52347836 7.68799637,8.56553262 C7.73693166,8.60758686 7.80562229,8.61791427 7.86476012,8.59210845 C7.94925594,8.55905553 8.02952905,8.51608836 8.10389426,8.46410898 C8.11585818,8.45690181 8.11946177,8.43427127 8.12306535,8.41740647 C8.22468655,7.93899405 8.32400146,7.46605907 8.42446951,6.99182681 C8.42737031,6.97952755 8.4313745,6.96751497 8.43643342,6.95593507 L9.01041302,6.95593507 C8.97927801,7.10296148 8.78439594,8.04176839 8.71621604,8.36955082 C8.71379321,8.3958253 8.71379321,8.42226699 8.71621604,8.44854148 C8.71106259,8.51836641 8.76056854,8.58037449 8.82980116,8.59081116 C8.89379984,8.6107855 8.96324284,8.60299408 9.02122379,8.56933377 C9.08360146,8.53343136 9.1435504,8.4934654 9.2006825,8.44969463 C9.26263632,8.40402427 9.32099362,8.35366639 9.37524033,8.29906462 C9.43010647,8.25134362 9.50589913,8.23571513 9.57516743,8.25783957 Z" id="Path_356"></path>
                </g>
                <rect id="Rectangle" x="0" y="0" width="16" height="16"></rect>
            </g>
        </g>
    </g>
</svg>