<?xml version="1.0" encoding="UTF-8"?>
<svg width="45px" height="45px" viewBox="0 0 45 45" version="1.1" xmlns="http://www.w3.org/2000/svg" xmlns:xlink="http://www.w3.org/1999/xlink">
    <!-- Generator: Sketch 50.2 (55047) - http://www.bohemiancoding.com/sketch -->
    <title>youtube</title>
    <desc>Created with Sketch.</desc>
    <defs></defs>
    <g id="Page-1" stroke="none" stroke-width="1" fill="none" fill-rule="evenodd">
        <g id="youtube" transform="translate(0.000000, -1.000000)" fill-rule="nonzero">
            <circle id="Oval" fill="#FFFFFF" cx="22.5" cy="23.499" r="22.5"></circle>
            <g id="Group" transform="translate(10.000000, 11.000000)">
                <path d="M24.854,21.716 C24.854,23.353 23.274,24.681 21.325,24.681 L3.676,24.681 C1.729,24.681 0.148,23.353 0.148,21.716 L0.148,14.306 C0.148,12.669 1.729,11.342 3.676,11.342 L21.324,11.342 C23.273,11.342 24.853,12.669 24.853,14.306 L24.853,21.716 L24.854,21.716 Z" id="Shape" fill="#000000"></path>
                <g id="Shape" transform="translate(3.000000, 0.000000)" fill="#000000">
                    <polygon points="0.863 0.321 2.673 0.321 3.838 4.116 3.95 4.116 5.062 0.321 6.888 0.321 4.796 5.876 4.796 9.814 3.001 9.814 3.001 6.053"></polygon>
                    <path d="M6.808,4.413 C6.808,3.872 7.022,3.436 7.451,3.116 C7.882,2.796 8.46,2.634 9.184,2.634 C9.843,2.634 10.384,2.804 10.806,3.144 C11.227,3.482 11.437,3.921 11.437,4.453 L11.437,8.071 C11.437,8.669 11.23,9.14 10.819,9.48 C10.404,9.823 9.835,9.994 9.11,9.994 C8.413,9.994 7.854,9.815 7.434,9.465 C7.017,9.115 6.808,8.639 6.808,8.046 L6.808,4.413 Z M8.447,8.176 C8.447,8.367 8.506,8.516 8.619,8.622 C8.729,8.726 8.894,8.778 9.105,8.778 C9.321,8.778 9.491,8.725 9.621,8.617 C9.749,8.511 9.811,8.362 9.811,8.176 L9.811,4.36 C9.811,4.206 9.745,4.083 9.616,3.989 C9.488,3.895 9.316,3.848 9.105,3.848 C8.91,3.848 8.752,3.895 8.631,3.989 C8.509,4.083 8.446,4.206 8.446,4.36 L8.446,8.176 L8.447,8.176 Z"></path>
                    <path d="M17.344,2.812 L17.344,9.815 L15.75,9.815 L15.75,9.042 C15.455,9.328 15.148,9.547 14.831,9.693 C14.514,9.84 14.205,9.917 13.905,9.917 C13.537,9.917 13.259,9.813 13.071,9.606 C12.884,9.396 12.793,9.085 12.793,8.666 L12.793,2.812 L14.386,2.812 L14.386,8.18 C14.386,8.349 14.42,8.465 14.488,8.54 C14.555,8.613 14.663,8.653 14.811,8.653 C14.929,8.653 15.079,8.604 15.257,8.505 C15.435,8.407 15.598,8.28 15.75,8.128 L15.75,2.812 L17.344,2.812 Z"></path>
                </g>
                <path d="M7.102,12.164 L1.67,12.164 L1.67,13.831 L3.499,13.831 L3.499,23.628 L5.27,23.628 L5.27,13.831 L7.102,13.831 L7.102,12.164 Z M9.994,21.591 C9.847,21.775 9.686,21.927 9.509,22.046 C9.332,22.163 9.188,22.224 9.071,22.224 C8.923,22.224 8.816,22.181 8.749,22.089 C8.684,22.001 8.651,21.855 8.651,21.651 L8.651,15.172 L7.078,15.172 L7.078,22.238 C7.078,22.742 7.173,23.119 7.356,23.373 C7.54,23.623 7.814,23.75 8.177,23.75 C8.472,23.75 8.777,23.658 9.09,23.479 C9.403,23.3 9.704,23.038 9.993,22.696 L9.993,23.628 L11.565,23.628 L11.565,15.173 L9.993,15.173 L9.993,21.591 L9.994,21.591 Z M16.086,15.063 C15.841,15.063 15.601,15.131 15.363,15.266 C15.125,15.401 14.899,15.596 14.687,15.854 L14.687,12.164 L13.1,12.164 L13.1,23.628 L14.688,23.628 L14.688,22.978 C14.893,23.234 15.12,23.425 15.358,23.548 C15.6,23.675 15.875,23.732 16.181,23.732 C16.647,23.732 17.004,23.578 17.247,23.255 C17.495,22.937 17.616,22.476 17.616,21.876 L17.616,17.183 C17.616,16.494 17.487,15.968 17.224,15.607 C16.963,15.244 16.584,15.063 16.086,15.063 Z M16,21.646 C16,21.916 15.955,22.109 15.865,22.23 C15.774,22.347 15.631,22.408 15.441,22.408 C15.305,22.408 15.178,22.377 15.059,22.314 C14.941,22.257 14.815,22.156 14.687,22.019 L14.687,16.751 C14.793,16.631 14.9,16.548 15.011,16.491 C15.12,16.435 15.23,16.409 15.344,16.409 C15.557,16.409 15.719,16.481 15.831,16.63 C15.943,16.78 16,16.995 16,17.282 L16,21.646 Z M23.428,19.599 L23.428,17.443 C23.428,16.644 23.236,16.029 22.85,15.599 C22.463,15.173 21.912,14.958 21.192,14.958 C20.488,14.958 19.914,15.188 19.47,15.649 C19.027,16.113 18.804,16.71 18.804,17.442 L18.804,21.239 C18.804,22.053 19.006,22.696 19.409,23.157 C19.813,23.624 20.368,23.854 21.073,23.854 C21.853,23.854 22.445,23.635 22.838,23.198 C23.233,22.759 23.428,22.106 23.428,21.239 L23.428,20.604 L21.811,20.604 L21.811,21.192 C21.811,21.69 21.759,22.012 21.655,22.157 C21.551,22.305 21.37,22.376 21.11,22.376 C20.858,22.376 20.68,22.29 20.577,22.118 C20.474,21.946 20.423,21.636 20.423,21.192 L20.423,19.598 L23.428,19.598 L23.428,19.599 Z M20.422,17.427 C20.422,17.077 20.475,16.823 20.584,16.67 C20.694,16.515 20.874,16.439 21.124,16.439 C21.365,16.439 21.538,16.515 21.648,16.67 C21.755,16.823 21.81,17.077 21.81,17.427 L21.81,18.284 L20.421,18.284 L20.421,17.427 L20.422,17.427 Z" id="Shape" fill="#FFFFFF"></path>
            </g>
        </g>
    </g>
</svg>