<svg xmlns="http://www.w3.org/2000/svg" viewBox="0 0 1208.529 1208.529"><g id="Layer_2" data-name="Layer 2"><g id="Layer_1-2" data-name="Layer 1"><circle cx="604.264" cy="604.264" r="604.264" style="fill:#fff"/><g id="Layer_2-2" data-name="Layer 2"><g id="Layer_1-2-2" data-name="Layer 1-2"><path d="M931.058,787.281c0,3.4.053,6.81-.009,10.213a42.667,42.667,0,0,1-84.878,5.376c-.677-4.454-.4-9.057-.51-13.593-.285-11.763-.873-23.5-2.011-35.223q-1.6-16.522-4.393-32.873a436.453,436.453,0,0,0-67.221-168.51,450.488,450.488,0,0,0-123.4-123.465,437.925,437.925,0,0,0-105.821-51.592,428.044,428.044,0,0,0-60.062-15.12c-12.985-2.278-26.028-4.025-39.162-5.159-12.288-1.06-24.585-1.666-36.922-1.595-10.854.062-20.776-2.909-29.018-10.161-13.236-11.647-18.064-26.419-13.711-43.38,4.415-17.2,16.128-27.586,33.476-31.264a44.62,44.62,0,0,1,13.529-.668c4.219.406,8.493.231,12.742.323,11.76.252,23.473,1.181,35.174,2.349,9.307.929,18.571,2.141,27.817,3.551q21.012,3.206,41.668,8.19a515,515,0,0,1,115.263,42.57,524.071,524.071,0,0,1,119.308,83.8,541.55,541.55,0,0,1,76.294,88.378A520.965,520.965,0,0,1,922.243,699.78q3.47,18.6,5.5,37.442c1.231,11.422,2.17,22.858,2.7,34.336C930.681,776.8,930.948,782.034,931.058,787.281Z" style="fill:#040707"/><path d="M407.643,445.2c6.1-.125,12.17.524,18.245.894a312.592,312.592,0,0,1,31.65,3.638,357.249,357.249,0,0,1,281.41,241.8,343.827,343.827,0,0,1,13.571,58.3,348.188,348.188,0,0,1,3.5,40.223c.1,3.823.355,7.648.272,11.472-.23,10.583-3.517,20.07-10.622,28.008-9.047,10.106-20.4,14.835-34,14.463a42.5,42.5,0,0,1-39.725-33.188,43.629,43.629,0,0,1-1.077-9.271c-.032-4.113-.1-8.226-.262-12.335-.336-8.5-1.17-16.963-2.342-25.395A271.75,271.75,0,0,0,520.2,558.682a261.9,261.9,0,0,0-69.428-23.3,254.355,254.355,0,0,0-37.1-4.365c-4.526-.167-9.05-.441-13.578-.506-15.372-.22-27.4-6.825-35.628-19.637a42.619,42.619,0,0,1,21.774-63.28,40.193,40.193,0,0,1,12.469-2.38C401.688,445.134,404.667,445.2,407.643,445.2Z" style="fill:#040707"/><path d="M454.2,651.106c52.337-.208,96.487,42.463,96.373,96.729a96.419,96.419,0,1,1-192.817-2.217C358.805,692.993,402.065,650.88,454.2,651.106Z" style="fill:#040707"/></g></g></g></g></svg>