<svg xmlns="http://www.w3.org/2000/svg" viewBox="0 0 367 110.139"><title>white_micronautlogo</title><path d="M76.114,52.291a2.21,2.21,0,1,0-.569,4.345,2.21,2.21,0,0,0,.569-4.345Z" style="fill:#fff"/><path d="M71.9,42.139a2.212,2.212,0,0,0,.571,4.349h0a2.212,2.212,0,1,0,0-4.424A2.268,2.268,0,0,0,71.9,42.139Z" style="fill:#fff"/><path d="M63.185,38.582a2.211,2.211,0,1,0-.648-1.565A2.2,2.2,0,0,0,63.185,38.582Z" style="fill:#fff"/><path d="M53.853,36.734a2.225,2.225,0,0,0,.572.076h0A2.211,2.211,0,0,0,55,32.463a2.192,2.192,0,0,0-.574-.076,2.211,2.211,0,0,0-.57,4.347Z" style="fill:#fff"/><path d="M43.7,35.528a2.211,2.211,0,0,0,.574,4.347,2.261,2.261,0,0,0,.571-.075A2.211,2.211,0,1,0,43.7,35.528Z" style="fill:#fff"/><path d="M37.018,47.6a2.212,2.212,0,1,0-1.563-.648A2.2,2.2,0,0,0,37.018,47.6Z" style="fill:#fff"/><path d="M36.734,56.284a2.215,2.215,0,0,0-1.562-2.707A2.19,2.19,0,0,0,34.6,53.5a2.212,2.212,0,0,0-.573,4.349,2.207,2.207,0,0,0,2.708-1.566Z" style="fill:#fff"/><path d="M38.236,68a2.217,2.217,0,1,0-.57.074A2.246,2.246,0,0,0,38.236,68Z" style="fill:#fff"/><path d="M46.954,71.559a2.21,2.21,0,1,0,0,3.126A2.213,2.213,0,0,0,46.954,71.559Z" style="fill:#fff"/><path d="M56.287,73.407a2.207,2.207,0,0,0-2.706,1.561,2.21,2.21,0,0,0,2.134,2.785,2.217,2.217,0,0,0,2.136-1.639,2.211,2.211,0,0,0-1.564-2.707Z" style="fill:#fff"/><path d="M66.437,74.614a2.212,2.212,0,0,0-.568-4.348,2.21,2.21,0,0,0-2.139,2.783,2.215,2.215,0,0,0,2.135,1.639A2.261,2.261,0,0,0,66.437,74.614Z" style="fill:#fff"/><path d="M73.122,62.535a2.211,2.211,0,1,0,1.564.647A2.2,2.2,0,0,0,73.122,62.535Z" style="fill:#fff"/><path d="M83.354,54.477a2.588,2.588,0,0,0,2.5,3.253h0a2.586,2.586,0,0,0,.667-5.084,2.551,2.551,0,0,0-.667-.088A2.591,2.591,0,0,0,83.354,54.477Z" style="fill:#fff"/><path d="M81.1,37.248a2.585,2.585,0,0,0,.668,5.081h0a2.585,2.585,0,1,0-.668-5.081Z" style="fill:#fff"/><path d="M70.524,25.865a2.585,2.585,0,0,0,0,5.17h0a2.585,2.585,0,1,0,0-5.17Z" style="fill:#fff"/><path d="M54.475,26.785a2.585,2.585,0,1,0-1.827-3.164A2.6,2.6,0,0,0,54.475,26.785Z" style="fill:#fff"/><path d="M39.746,25.792a2.585,2.585,0,1,0,0,5.169,2.634,2.634,0,0,0,.67-.088,2.585,2.585,0,0,0-.667-5.081Z" style="fill:#fff"/><path d="M28.451,42.2a2.585,2.585,0,1,0-1.828-.757A2.57,2.57,0,0,0,28.451,42.2Z" style="fill:#fff"/><path d="M26.786,55.666a2.585,2.585,0,1,0-3.166,1.827,2.628,2.628,0,0,0,.67.088A2.59,2.59,0,0,0,26.786,55.666Z" style="fill:#fff"/><path d="M28.378,72.982a2.586,2.586,0,1,0-2.5-1.917,2.611,2.611,0,0,0,2.5,1.917Z" style="fill:#fff"/><path d="M39.618,84.275a2.56,2.56,0,0,0,1.825-.756,2.585,2.585,0,0,0-1.83-4.413,2.585,2.585,0,0,0,.005,5.169Z" style="fill:#fff"/><path d="M55.665,83.355A2.58,2.58,0,0,0,52.5,85.182a2.584,2.584,0,1,0,3.165-1.827Z" style="fill:#fff"/><path d="M68.16,80.467A2.586,2.586,0,0,0,70.4,84.348h0a2.583,2.583,0,1,0-2.237-3.881Z" style="fill:#fff"/><path d="M81.691,67.94a2.583,2.583,0,1,0,1.827.756A2.57,2.57,0,0,0,81.691,67.94Z" style="fill:#fff"/><path d="M97.247,56.613a3.322,3.322,0,0,0-1.72,6.418,3.369,3.369,0,0,0,.858.113,3.324,3.324,0,0,0,2.877-4.984A3.292,3.292,0,0,0,97.247,56.613Z" style="fill:#fff"/><path d="M93.229,35.2a3.322,3.322,0,1,0,3.2,2.462A3.349,3.349,0,0,0,93.229,35.2Z" style="fill:#fff"/><path d="M79.841,24.985a3.32,3.32,0,1,0-2.348-.973A3.3,3.3,0,0,0,79.841,24.985Z" style="fill:#fff"/><path d="M58.96,16.962a3.316,3.316,0,0,0,4.067-2.35,3.323,3.323,0,0,0-3.21-4.18,3.322,3.322,0,0,0-.857,6.53Z" style="fill:#fff"/><path d="M38.523,20.235a3.321,3.321,0,1,0-3.206-2.462A3.313,3.313,0,0,0,38.523,20.235Z" style="fill:#fff"/><path d="M24.985,30.3a3.319,3.319,0,1,0-.973,2.349A3.3,3.3,0,0,0,24.985,30.3Z" style="fill:#fff"/><path d="M16.963,51.179a3.323,3.323,0,1,0-3.209,2.462A3.328,3.328,0,0,0,16.963,51.179Z" style="fill:#fff"/><path d="M16.915,74.937a3.322,3.322,0,1,0-3.208-2.463A3.333,3.333,0,0,0,16.915,74.937Z" style="fill:#fff"/><path d="M30.3,85.155a3.32,3.32,0,1,0,2.349.972A3.3,3.3,0,0,0,30.3,85.155Z" style="fill:#fff"/><path d="M51.18,93.178A3.322,3.322,0,1,0,53.2,94.726,3.326,3.326,0,0,0,51.18,93.178Z" style="fill:#fff"/><path d="M71.62,89.905a3.335,3.335,0,0,0-.864.115,3.32,3.32,0,0,0,.858,6.527h0a3.321,3.321,0,0,0,.006-6.642Z" style="fill:#fff"/><path d="M90.825,77.492a3.322,3.322,0,1,0,0,4.7A3.3,3.3,0,0,0,90.825,77.492Z" style="fill:#fff"/><path d="M107.273,65.057a3.856,3.856,0,0,0-4.734,2.732,3.866,3.866,0,1,0,4.734-2.732Z" style="fill:#fff"/><path d="M106.273,45.218a3.868,3.868,0,1,0-3.735-2.866A3.865,3.865,0,0,0,106.273,45.218Z" style="fill:#fff"/><path d="M92.554,21.453a3.872,3.872,0,1,0-2.733-1.133A3.844,3.844,0,0,0,92.554,21.453Z" style="fill:#fff"/><path d="M67.789,7.6a3.88,3.88,0,0,0,1,.132h0a3.867,3.867,0,0,0,1-7.6,3.864,3.864,0,0,0-4.735,2.736A3.871,3.871,0,0,0,67.789,7.6Z" style="fill:#fff"/><path d="M41.348,7.734h0A3.866,3.866,0,1,0,41.354,0a3.889,3.889,0,0,0-1,.133,3.865,3.865,0,0,0,1,7.6Z" style="fill:#fff"/><path d="M17.588,21.453a3.863,3.863,0,1,0-2.736-1.132A3.835,3.835,0,0,0,17.588,21.453Z" style="fill:#fff"/><path d="M4.869,37.617A3.863,3.863,0,0,0,.132,40.35a3.871,3.871,0,0,0,3.739,4.868h0a3.866,3.866,0,0,0,1-7.6Z" style="fill:#fff"/><path d="M3.873,64.923A3.87,3.87,0,1,0,7.6,67.789,3.862,3.862,0,0,0,3.873,64.923Z" style="fill:#fff"/><path d="M17.586,88.686a3.867,3.867,0,1,0,0,7.733h0a3.867,3.867,0,0,0,0-7.733Z" style="fill:#fff"/><path d="M42.35,102.54a3.861,3.861,0,0,0-4.735,2.732,3.866,3.866,0,0,0,2.737,4.733,3.854,3.854,0,0,0,4.732-2.729,3.864,3.864,0,0,0-2.734-4.736Z" style="fill:#fff"/><path d="M68.8,102.407a3.905,3.905,0,0,0-1.006.134,3.864,3.864,0,0,0,.991,7.6,3.866,3.866,0,1,0,.015-7.731Z" style="fill:#fff"/><path d="M92.555,88.687a3.868,3.868,0,1,0,2.731,1.132A3.842,3.842,0,0,0,92.555,88.687Z" style="fill:#fff"/><path d="M65.7,58.207l.5-.554c.1-.1.194-.2.3-.3l-.024,0,.029-.032a3.358,3.358,0,0,0-.48-.041,1.265,1.265,0,0,0-.987.4,10.3,10.3,0,0,1-1.207,1.04,12.757,12.757,0,0,1-1.238.809,1.536,1.536,0,0,1-.788.21,2.115,2.115,0,0,1-.52-.069.9.9,0,0,1-.761-.949,2.7,2.7,0,0,1,.044-.546c.439-2.132,1.663-8.012,1.958-9.6l.046-.218h-.006l.006-.035-1.5.035H58.58l-.018.058h-.039a1.624,1.624,0,0,0-.055.18l-2.1,9.919c-.021.1-.05.238-.112.274-.136.08-.271.166-.407.251a5.332,5.332,0,0,1-1.237.641,1.7,1.7,0,0,1-.5.08,1.006,1.006,0,0,1-.772-.32,1.4,1.4,0,0,1-.282-1.1c.016-.132,1.629-7.817,2-9.726l.056-.262h-.007l.007-.035-4.044.027L47.115,67s.331-.075.66-.153c.82-.2,2.259-.54,3.048-.7.488-.1.691-.314.724-.76a4.368,4.368,0,0,1,.124-.663l.065-.278.205-.963.212-1.12a6.278,6.278,0,0,0,3.765-1.9,3.649,3.649,0,0,0,.4-.375l.09-.075a2.493,2.493,0,0,0,1.717,2.065,5.006,5.006,0,0,0,1.562.274,3.513,3.513,0,0,0,2.063-.656A21.3,21.3,0,0,0,63.9,59.982C64.514,59.415,65.1,58.818,65.7,58.207Z" style="fill:#fff"/><polygon points="145.769 46.333 141.032 60.119 140.97 60.166 136.005 46.285 131.653 46.355 131.723 63.853 134.481 63.783 134.443 49.381 139.56 63.853 142.248 63.807 147.327 49.358 147.397 63.853 150.382 63.853 150.311 46.285 145.769 46.333" style="fill:#fff"/><polygon points="164.919 46.355 164.989 63.853 167.975 63.853 167.905 46.285 164.919 46.355" style="fill:#fff"/><path d="M186.674,50.111a4.729,4.729,0,0,1,1.579-1.5,4.447,4.447,0,0,1,2.264-.558,5.278,5.278,0,0,1,1.982.376,5.738,5.738,0,0,1,1.723,1.159l1.821-1.6a5.738,5.738,0,0,0-2.427-1.595,9.593,9.593,0,0,0-3.227-.521,8.136,8.136,0,0,0-3.414.7,7.492,7.492,0,0,0-2.583,1.926,8.713,8.713,0,0,0-1.634,2.915,12.2,12.2,0,0,0-.013,7.318,8.708,8.708,0,0,0,1.6,2.915,7.251,7.251,0,0,0,2.582,1.938,8.332,8.332,0,0,0,3.464.7,7.947,7.947,0,0,0,3.331-.633,5.585,5.585,0,0,0,2.251-1.78l-1.85-1.441A4.433,4.433,0,0,1,192.67,61.6a4.382,4.382,0,0,1-2.089.484,4.534,4.534,0,0,1-2.28-.557,4.784,4.784,0,0,1-1.612-1.516,7.234,7.234,0,0,1-.963-2.229,11.122,11.122,0,0,1-.32-2.716,11.283,11.283,0,0,1,.32-2.729A7.255,7.255,0,0,1,186.674,50.111Z" style="fill:#fff"/><path d="M218.9,55.23a4.721,4.721,0,0,0,1.278-.886,4.455,4.455,0,0,0,.951-1.363,4.512,4.512,0,0,0,.365-1.875,4.658,4.658,0,0,0-.5-2.223,4.124,4.124,0,0,0-1.356-1.5,5.893,5.893,0,0,0-1.987-.833,10.618,10.618,0,0,0-2.4-.263l-6.013.07.07,17.5,2.922-.07-.07-7.708,2.592-.039,3.948,7.817h3.257l-4.411-8.2A4.939,4.939,0,0,0,218.9,55.23Zm-4.05-1.019-2.616.07V48.273h2.552a6.875,6.875,0,0,1,1.347.134,3.253,3.253,0,0,1,1.173.471,2.656,2.656,0,0,1,.82.89,2.845,2.845,0,0,1,.313,1.424,2.7,2.7,0,0,1-.977,2.231A4.076,4.076,0,0,1,214.847,54.211Z" style="fill:#fff"/><path d="M248.215,48.391a7.089,7.089,0,0,0-2.483-1.865,8.006,8.006,0,0,0-3.317-.658,8.314,8.314,0,0,0-3.381.658,6.864,6.864,0,0,0-2.5,1.865A8.2,8.2,0,0,0,235,51.3a12.707,12.707,0,0,0-.521,3.748,12.4,12.4,0,0,0,.539,3.751,8.376,8.376,0,0,0,1.566,2.917,7.134,7.134,0,0,0,2.5,1.889,8.017,8.017,0,0,0,3.333.671,7.877,7.877,0,0,0,3.317-.672,7.145,7.145,0,0,0,2.483-1.888,8.41,8.41,0,0,0,1.57-2.917,13.338,13.338,0,0,0,0-7.5A8.271,8.271,0,0,0,248.215,48.391ZM246.8,57.809a7.476,7.476,0,0,1-.9,2.244,4.6,4.6,0,0,1-1.467,1.492,3.766,3.766,0,0,1-2.02.543,3.923,3.923,0,0,1-2.069-.543,4.57,4.57,0,0,1-1.484-1.492,7.18,7.18,0,0,1-.88-2.243,13.341,13.341,0,0,1,0-5.533,7.176,7.176,0,0,1,.88-2.24,4.571,4.571,0,0,1,1.484-1.492A3.924,3.924,0,0,1,242.415,48a3.781,3.781,0,0,1,2.02.543,4.624,4.624,0,0,1,1.467,1.493,7.473,7.473,0,0,1,.9,2.242,12.565,12.565,0,0,1,0,5.53Z" style="fill:#fff"/><polygon points="275.568 46.355 275.568 62.179 266.231 46.285 264.718 46.355 264.788 63.862 265.922 63.792 265.922 47.944 275.29 63.862 276.769 63.862 276.699 46.285 275.568 46.355" style="fill:#fff"/><path d="M295.3,46.333l-5.98,17.529,1.15-.047,1.681-4.83,7.747-.048,1.717,4.925h1.182l-5.946-17.577Zm-2.8,11.778L296.1,47.469l3.582,10.549Z" style="fill:#fff"/><path d="M325.8,46.355V57.1a15.435,15.435,0,0,1-.174,2.315,5.164,5.164,0,0,1-.714,1.962,3.984,3.984,0,0,1-1.493,1.377,6.513,6.513,0,0,1-5.14-.011,3.9,3.9,0,0,1-1.478-1.4,5.409,5.409,0,0,1-.7-1.977,14.6,14.6,0,0,1-.177-2.268l-.07-10.817-1.133.07V57.368A12.429,12.429,0,0,0,315,60.04a5.736,5.736,0,0,0,1,2.2,4.827,4.827,0,0,0,1.907,1.477,8.427,8.427,0,0,0,5.872,0,4.831,4.831,0,0,0,1.908-1.477,5.755,5.755,0,0,0,1.013-2.2,11.444,11.444,0,0,0,.3-2.674l-.07-11.083Z" style="fill:#fff"/><polygon points="349.226 46.285 339.026 46.355 339.096 47.253 343.559 47.183 343.629 63.862 344.764 63.862 344.694 47.253 349.296 47.183 349.226 46.285" style="fill:#fff"/><path d="M366.638,44.437a4.873,4.873,0,0,0-1.028-1.673,4.663,4.663,0,0,0-1.573-1.071,5.549,5.549,0,0,0-4.031,0,4.66,4.66,0,0,0-1.573,1.071,4.8,4.8,0,0,0-1.026,1.674,6.791,6.791,0,0,0,0,4.387,4.915,4.915,0,0,0,1.025,1.683,4.448,4.448,0,0,0,1.575,1.074,5.712,5.712,0,0,0,4.029,0,4.448,4.448,0,0,0,1.575-1.074,4.95,4.95,0,0,0,1.027-1.683,6.83,6.83,0,0,0,0-4.388Zm-4.616,6.616a3.911,3.911,0,0,1-1.639-.328,3.5,3.5,0,0,1-1.225-.917,4.3,4.3,0,0,1-.789-1.4,5.795,5.795,0,0,1,0-3.559,4.246,4.246,0,0,1,.789-1.4,3.511,3.511,0,0,1,1.225-.918,4.259,4.259,0,0,1,3.278,0,3.566,3.566,0,0,1,1.224.917,4.264,4.264,0,0,1,.79,1.4,5.834,5.834,0,0,1,0,3.559,4.284,4.284,0,0,1-.79,1.4,3.548,3.548,0,0,1-1.224.917A3.921,3.921,0,0,1,362.022,51.053Z" style="fill:#fff"/><path d="M363.682,46.538a1.582,1.582,0,0,0,.534-1.282,1.516,1.516,0,0,0-.62-1.328,2.55,2.55,0,0,0-1.491-.4l-2.028.07.07,6.08.978-.071-.07-2.5.672-.032,1.73,2.6h1.225l-1.928-2.687A2.156,2.156,0,0,0,363.682,46.538Zm-2.557-2.118h.9a1.923,1.923,0,0,1,.84.188c.207.1.308.314.308.66a.728.728,0,0,1-.343.72,2.343,2.343,0,0,1-1.083.218l-.619.07Z" style="fill:#fff"/></svg>