<?xml version="1.0" encoding="UTF-8"?>
<svg width="1089px" height="352px" viewBox="0 0 1089 352" version="1.1" xmlns="http://www.w3.org/2000/svg" xmlns:xlink="http://www.w3.org/1999/xlink">
    <!-- Generator: Sketch 49 (51002) - http://www.bohemiancoding.com/sketch -->
    <title>aopgraph_black</title>
    <desc>Created with Sketch.</desc>
    <defs></defs>
    <g id="Page-1" stroke="none" stroke-width="1" fill="none" fill-rule="evenodd">
        <g id="aopgraph_black">
            <circle id="Ellipse_28" fill="#000000" fill-rule="nonzero" cx="92" cy="130" r="18"></circle>
            <circle id="Oval" cx="92" cy="130" r="41"></circle>
            <circle id="Oval" stroke="#000000" stroke-width="8" cx="92" cy="130" r="37"></circle>
            <circle id="Ellipse_28-2" fill="#000000" fill-rule="nonzero" cx="534" cy="41" r="18"></circle>
            <circle id="Oval" cx="534" cy="41" r="41"></circle>
            <circle id="Oval" stroke="#000000" stroke-width="8" cx="534" cy="41" r="37"></circle>
            <circle id="Ellipse_28-3" fill="#000000" fill-rule="nonzero" cx="987" cy="172" r="18"></circle>
            <circle id="Oval" cx="987" cy="172" r="41"></circle>
            <circle id="Oval" stroke="#000000" stroke-width="8" cx="987" cy="172" r="37"></circle>
            <path d="M61.568,186.568 L54.144,186.568 L54.144,192.456 L60.608,192.456 L60.608,196.2 L54.144,196.2 L54.144,205 L48.896,205 L48.896,182.824 L62.112,182.824 L61.568,186.568 Z M76.768,200.072 C76.768,200.712003 76.8586658,201.181332 77.04,201.48 C77.2213342,201.778668 77.5146646,202.002666 77.92,202.152 L76.864,205.448 C75.8186614,205.362666 74.9706699,205.138669 74.32,204.776 C73.6693301,204.413331 73.1520019,203.826671 72.768,203.016 C71.6586611,204.701342 69.9520115,205.544 67.648,205.544 C65.9626582,205.544 64.6186717,205.053338 63.616,204.072 C62.6133283,203.090662 62.112,201.810675 62.112,200.232 C62.112,198.375991 62.7946598,196.957338 64.16,195.976 C65.5253402,194.994662 67.4986538,194.504 70.08,194.504 L71.808,194.504 L71.808,193.768 C71.808,192.765328 71.5946688,192.077335 71.168,191.704 C70.7413312,191.330665 69.994672,191.144 68.928,191.144 C68.3733306,191.144 67.7013373,191.223999 66.912,191.384 C66.1226627,191.544001 65.3120042,191.762665 64.48,192.04 L63.328,188.712 C64.394672,188.306665 65.4879944,187.997334 66.608,187.784 C67.7280056,187.570666 68.7679952,187.464 69.728,187.464 C72.1600122,187.464 73.9413277,187.965328 75.072,188.968 C76.2026723,189.970672 76.768,191.474657 76.768,193.48 L76.768,200.072 Z M69.12,201.928 C69.6746694,201.928 70.181331,201.789335 70.64,201.512 C71.098669,201.234665 71.4879984,200.840003 71.808,200.328 L71.808,197.288 L70.56,197.288 C69.4079942,197.288 68.5493362,197.490665 67.984,197.896 C67.4186638,198.301335 67.136,198.930662 67.136,199.784 C67.136,200.46667 67.3119982,200.994665 67.664,201.368 C68.0160018,201.741335 68.5013302,201.928 69.12,201.928 Z M86.784,187.464 C88.0000061,187.464 89.141328,187.645331 90.208,188.008 C91.274672,188.370669 92.2133293,188.882663 93.024,189.544 L91.168,192.392 C89.7813264,191.517329 88.384007,191.08 86.976,191.08 C86.3146634,191.08 85.8080018,191.191999 85.456,191.416 C85.1039982,191.640001 84.928,191.954665 84.928,192.36 C84.928,192.680002 85.0079992,192.941332 85.168,193.144 C85.3280008,193.346668 85.6533309,193.554666 86.144,193.768 C86.6346691,193.981334 87.3919949,194.237332 88.416,194.536 C90.1866755,195.048003 91.5039957,195.714663 92.368,196.536 C93.2320043,197.357337 93.664,198.493326 93.664,199.944 C93.664,201.096006 93.3333366,202.093329 92.672,202.936 C92.0106634,203.778671 91.1040058,204.423998 89.952,204.872 C88.7999942,205.320002 87.520007,205.544 86.112,205.544 C84.6826595,205.544 83.3546728,205.320002 82.128,204.872 C80.9013272,204.423998 79.8613376,203.805337 79.008,203.016 L81.472,200.264 C82.9013405,201.373339 84.4053254,201.928 85.984,201.928 C86.7520038,201.928 87.3546645,201.789335 87.792,201.512 C88.2293355,201.234665 88.448,200.840003 88.448,200.328 C88.448,199.922665 88.3626675,199.602668 88.192,199.368 C88.0213325,199.133332 87.6906691,198.914668 87.2,198.712 C86.7093309,198.509332 85.930672,198.258668 84.864,197.96 C83.1786582,197.469331 81.9200042,196.786671 81.088,195.912 C80.2559958,195.037329 79.84,193.94934 79.84,192.648 C79.84,191.666662 80.1226638,190.786671 80.688,190.008 C81.2533362,189.229329 82.0639947,188.610669 83.12,188.152 C84.1760053,187.693331 85.3973264,187.464 86.784,187.464 Z M106.912,204.2 C106.29333,204.626669 105.573337,204.957332 104.752,205.192 C103.930663,205.426668 103.114671,205.544 102.304,205.544 C98.591981,205.522667 96.736,203.474687 96.736,199.4 L96.736,191.528 L94.336,191.528 L94.336,188.008 L96.736,188.008 L96.736,184.328 L101.792,183.752 L101.792,188.008 L105.696,188.008 L105.152,191.528 L101.792,191.528 L101.792,199.336 C101.792,200.125337 101.919999,200.690665 102.176,201.032 C102.432001,201.373335 102.837331,201.544 103.392,201.544 C103.989336,201.544 104.59733,201.352002 105.216,200.968 L106.912,204.2 Z M123.104,196.168 C123.104,196.872004 123.072,197.479997 123.008,197.992 L112.512,197.992 C112.661334,199.421341 113.055997,200.423997 113.696,201 C114.336003,201.576003 115.221328,201.864 116.352,201.864 C117.03467,201.864 117.695997,201.741335 118.336,201.496 C118.976003,201.250665 119.66933,200.872003 120.416,200.36 L122.496,203.176 C120.51199,204.754675 118.304012,205.544 115.872,205.544 C113.119986,205.544 111.008007,204.733341 109.536,203.112 C108.063993,201.490659 107.328,199.31468 107.328,196.584 C107.328,194.855991 107.63733,193.304007 108.256,191.928 C108.87467,190.551993 109.781327,189.464004 110.976,188.664 C112.170673,187.863996 113.599992,187.464 115.264,187.464 C117.717346,187.464 119.637326,188.231992 121.024,189.768 C122.410674,191.304008 123.104,193.43732 123.104,196.168 Z M118.144,194.728 C118.101333,192.12532 117.184009,190.824 115.392,190.824 C114.517329,190.824 113.845336,191.138664 113.376,191.768 C112.906664,192.397337 112.608001,193.458659 112.48,194.952 L118.144,194.952 L118.144,194.728 Z M135.232,187.528 C135.85067,187.528 136.415997,187.602666 136.928,187.752 L136.128,192.648 C135.487997,192.498666 134.976002,192.424 134.592,192.424 C133.610662,192.424 132.853336,192.76533 132.32,193.448 C131.786664,194.13067 131.370668,195.15466 131.072,196.52 L131.072,205 L126.016,205 L126.016,188.008 L130.432,188.008 L130.848,191.272 C131.232002,190.098661 131.813329,189.181337 132.592,188.52 C133.370671,187.858663 134.250662,187.528 135.232,187.528 Z M20.976,246.232 L14.48,246.232 L13.36,251 L7.92,251 L14.608,228.824 L20.976,228.824 L27.664,251 L22.096,251 L20.976,246.232 Z M20.048,242.424 L17.712,232.632 L15.376,242.424 L20.048,242.424 Z M38.704,233.464 C40.8800109,233.464 42.4959947,234.247992 43.552,235.816 C44.6080053,237.384008 45.136,239.597319 45.136,242.456 C45.136,244.205342 44.8640027,245.767993 44.32,247.144 C43.7759973,248.520007 42.9920051,249.597329 41.968,250.376 C40.9439949,251.154671 39.7493402,251.544 38.384,251.544 C36.6773248,251.544 35.3013386,250.946673 34.256,249.752 L34.256,257.56 L29.2,258.104 L29.2,234.008 L33.648,234.008 L33.904,235.896 C34.5653366,235.063996 35.3173291,234.450669 36.16,234.056 C37.0026709,233.661331 37.8506624,233.464 38.704,233.464 Z M36.848,247.832 C38.8746768,247.832 39.888,246.061351 39.888,242.52 C39.888,240.514657 39.658669,239.122671 39.2,238.344 C38.741331,237.565329 38.0426714,237.176 37.104,237.176 C36.570664,237.176 36.0533358,237.351998 35.552,237.704 C35.0506642,238.056002 34.6186685,238.54133 34.256,239.16 L34.256,246.328 C34.9386701,247.330672 35.8026614,247.832 36.848,247.832 Z M57.808,233.464 C59.9840109,233.464 61.5999947,234.247992 62.656,235.816 C63.7120053,237.384008 64.24,239.597319 64.24,242.456 C64.24,244.205342 63.9680027,245.767993 63.424,247.144 C62.8799973,248.520007 62.0960051,249.597329 61.072,250.376 C60.0479949,251.154671 58.8533402,251.544 57.488,251.544 C55.7813248,251.544 54.4053386,250.946673 53.36,249.752 L53.36,257.56 L48.304,258.104 L48.304,234.008 L52.752,234.008 L53.008,235.896 C53.6693366,235.063996 54.4213291,234.450669 55.264,234.056 C56.1066709,233.661331 56.9546624,233.464 57.808,233.464 Z M55.952,247.832 C57.9786768,247.832 58.992,246.061351 58.992,242.52 C58.992,240.514657 58.762669,239.122671 58.304,238.344 C57.845331,237.565329 57.1466714,237.176 56.208,237.176 C55.674664,237.176 55.1573358,237.351998 54.656,237.704 C54.1546642,238.056002 53.7226685,238.54133 53.36,239.16 L53.36,246.328 C54.0426701,247.330672 54.9066614,247.832 55.952,247.832 Z M71.92,251.544 C70.4479926,251.544 69.3013374,251.122671 68.48,250.28 C67.6586626,249.437329 67.248,248.237341 67.248,246.68 L67.248,227.256 L72.304,226.712 L72.304,246.488 C72.304,247.192003 72.5919971,247.544 73.168,247.544 C73.4666682,247.544 73.7439987,247.490667 74,247.384 L74.992,250.968 C74.0746621,251.352002 73.0506723,251.544 71.92,251.544 Z M81.968,251 L76.912,251 L76.912,234.008 L81.968,234.008 L81.968,251 Z M79.408,225.048 C80.282671,225.048 81.0026638,225.319997 81.568,225.864 C82.1333362,226.408003 82.416,227.095996 82.416,227.928 C82.416,228.760004 82.1333362,229.447997 81.568,229.992 C81.0026638,230.536003 80.282671,230.808 79.408,230.808 C78.533329,230.808 77.8186694,230.536003 77.264,229.992 C76.7093306,229.447997 76.432,228.760004 76.432,227.928 C76.432,227.095996 76.7093306,226.408003 77.264,225.864 C77.8186694,225.319997 78.533329,225.048 79.408,225.048 Z M93.296,233.464 C94.4693392,233.464 95.5253286,233.634665 96.464,233.976 C97.402671,234.317335 98.287996,234.839996 99.12,235.544 L96.944,238.552 C95.877328,237.741329 94.8000054,237.336 93.712,237.336 C92.5813277,237.336 91.7280029,237.751996 91.152,238.584 C90.5759971,239.416004 90.288,240.759991 90.288,242.616 C90.288,244.408009 90.5759971,245.67733 91.152,246.424 C91.7280029,247.17067 92.5599946,247.544 93.648,247.544 C94.2240029,247.544 94.7466643,247.453334 95.216,247.272 C95.6853357,247.090666 96.2506634,246.797335 96.912,246.392 L99.12,249.528 C97.434658,250.872007 95.525344,251.544 93.392,251.544 C91.6639914,251.544 90.170673,251.176004 88.912,250.44 C87.653327,249.703996 86.6826701,248.66934 86,247.336 C85.3173299,246.00266 84.976,244.440009 84.976,242.648 C84.976,240.855991 85.3173299,239.266674 86,237.88 C86.6826701,236.493326 87.653327,235.410671 88.912,234.632 C90.170673,233.853329 91.6319917,233.464 93.296,233.464 Z M114.768,246.072 C114.768,246.712003 114.858666,247.181332 115.04,247.48 C115.221334,247.778668 115.514665,248.002666 115.92,248.152 L114.864,251.448 C113.818661,251.362666 112.97067,251.138668 112.32,250.776 C111.66933,250.413331 111.152002,249.826671 110.768,249.016 C109.658661,250.701342 107.952012,251.544 105.648,251.544 C103.962658,251.544 102.618672,251.053338 101.616,250.072 C100.613328,249.090662 100.112,247.810675 100.112,246.232 C100.112,244.375991 100.79466,242.957338 102.16,241.976 C103.52534,240.994662 105.498654,240.504 108.08,240.504 L109.808,240.504 L109.808,239.768 C109.808,238.765328 109.594669,238.077335 109.168,237.704 C108.741331,237.330665 107.994672,237.144 106.928,237.144 C106.373331,237.144 105.701337,237.223999 104.912,237.384 C104.122663,237.544001 103.312004,237.762665 102.48,238.04 L101.328,234.712 C102.394672,234.306665 103.487994,233.997334 104.608,233.784 C105.728006,233.570666 106.767995,233.464 107.728,233.464 C110.160012,233.464 111.941328,233.965328 113.072,234.968 C114.202672,235.970672 114.768,237.474657 114.768,239.48 L114.768,246.072 Z M107.12,247.928 C107.674669,247.928 108.181331,247.789335 108.64,247.512 C109.098669,247.234665 109.487998,246.840003 109.808,246.328 L109.808,243.288 L108.56,243.288 C107.407994,243.288 106.549336,243.490665 105.984,243.896 C105.418664,244.301335 105.136,244.930662 105.136,245.784 C105.136,246.46667 105.311998,246.994665 105.664,247.368 C106.016002,247.741335 106.50133,247.928 107.12,247.928 Z M129.456,250.2 C128.83733,250.626669 128.117337,250.957332 127.296,251.192 C126.474663,251.426668 125.658671,251.544 124.848,251.544 C121.135981,251.522667 119.28,249.474687 119.28,245.4 L119.28,237.528 L116.88,237.528 L116.88,234.008 L119.28,234.008 L119.28,230.328 L124.336,229.752 L124.336,234.008 L128.24,234.008 L127.696,237.528 L124.336,237.528 L124.336,245.336 C124.336,246.125337 124.463999,246.690665 124.72,247.032 C124.976001,247.373335 125.381331,247.544 125.936,247.544 C126.533336,247.544 127.14133,247.352002 127.76,246.968 L129.456,250.2 Z M136.208,251 L131.152,251 L131.152,234.008 L136.208,234.008 L136.208,251 Z M133.648,225.048 C134.522671,225.048 135.242664,225.319997 135.808,225.864 C136.373336,226.408003 136.656,227.095996 136.656,227.928 C136.656,228.760004 136.373336,229.447997 135.808,229.992 C135.242664,230.536003 134.522671,230.808 133.648,230.808 C132.773329,230.808 132.058669,230.536003 131.504,229.992 C130.949331,229.447997 130.672,228.760004 130.672,227.928 C130.672,227.095996 130.949331,226.408003 131.504,225.864 C132.058669,225.319997 132.773329,225.048 133.648,225.048 Z M147.536,233.464 C150.13868,233.464 152.175993,234.258659 153.648,235.848 C155.120007,237.437341 155.856,239.661319 155.856,242.52 C155.856,244.333342 155.520003,245.917327 154.848,247.272 C154.175997,248.626673 153.216006,249.67733 151.968,250.424 C150.719994,251.17067 149.242675,251.544 147.536,251.544 C144.954654,251.544 142.922674,250.749341 141.44,249.16 C139.957326,247.570659 139.216,245.346681 139.216,242.488 C139.216,240.674658 139.551997,239.090673 140.224,237.736 C140.896003,236.381327 141.855994,235.33067 143.104,234.584 C144.352006,233.83733 145.829325,233.464 147.536,233.464 Z M147.536,237.176 C146.511995,237.176 145.744003,237.607996 145.232,238.472 C144.719997,239.336004 144.464,240.674658 144.464,242.488 C144.464,244.344009 144.714664,245.698662 145.216,246.552 C145.717336,247.405338 146.490661,247.832 147.536,247.832 C148.560005,247.832 149.327997,247.400004 149.84,246.536 C150.352003,245.671996 150.608,244.333342 150.608,242.52 C150.608,240.663991 150.357336,239.309338 149.856,238.456 C149.354664,237.602662 148.581339,237.176 147.536,237.176 Z M168.816,233.464 C170.288007,233.464 171.439996,233.911995 172.272,234.808 C173.104004,235.704004 173.52,236.962659 173.52,238.584 L173.52,251 L168.464,251 L168.464,239.448 C168.464,238.594662 168.330668,238.002668 168.064,237.672 C167.797332,237.341332 167.397336,237.176 166.864,237.176 C165.839995,237.176 164.858671,237.911993 163.92,239.384 L163.92,251 L158.864,251 L158.864,234.008 L163.28,234.008 L163.632,236.024 C164.37867,235.170662 165.173329,234.530669 166.016,234.104 C166.858671,233.677331 167.791995,233.464 168.816,233.464 Z M7.344,274.824 C10.2666813,274.824 12.5386586,275.431994 14.16,276.648 C15.7813414,277.864006 16.592,279.666655 16.592,282.056 C16.592,284.552012 15.7973413,286.43466 14.208,287.704 C12.6186587,288.97334 10.49068,289.608 7.824,289.608 L5.424,289.608 L5.424,297 L0.176,297 L0.176,274.824 L7.344,274.824 Z M7.376,285.832 C8.6133395,285.832 9.5573301,285.53867 10.208,284.952 C10.8586699,284.36533 11.184,283.400007 11.184,282.056 C11.184,279.730655 9.8826797,278.568 7.28,278.568 L5.424,278.568 L5.424,285.832 L7.376,285.832 Z M33.456,288.168 C33.456,288.872004 33.4240003,289.479997 33.36,289.992 L22.864,289.992 C23.0133341,291.42134 23.4079968,292.423997 24.048,293 C24.6880032,293.576003 25.5733277,293.864 26.704,293.864 C27.3866701,293.864 28.0479968,293.741335 28.688,293.496 C29.3280032,293.250665 30.0213296,292.872003 30.768,292.36 L32.848,295.176 C30.8639901,296.754675 28.6560122,297.544 26.224,297.544 C23.4719862,297.544 21.3600074,296.733341 19.888,295.112 C18.4159926,293.490659 17.68,291.31468 17.68,288.584 C17.68,286.855991 17.9893302,285.304007 18.608,283.928 C19.2266698,282.551993 20.1333274,281.464004 21.328,280.664 C22.5226726,279.863996 23.9519917,279.464 25.616,279.464 C28.0693456,279.464 29.9893264,280.231992 31.376,281.768 C32.7626736,283.304008 33.456,285.43732 33.456,288.168 Z M28.496,286.728 C28.4533331,284.12532 27.536009,282.824 25.744,282.824 C24.869329,282.824 24.1973357,283.138664 23.728,283.768 C23.2586643,284.397336 22.9600006,285.458659 22.832,286.952 L28.496,286.952 L28.496,286.728 Z M45.584,279.528 C46.2026698,279.528 46.7679974,279.602666 47.28,279.752 L46.48,284.648 C45.8399968,284.498666 45.3280019,284.424 44.944,284.424 C43.9626618,284.424 43.205336,284.76533 42.672,285.448 C42.138664,286.13067 41.7226682,287.15466 41.424,288.52 L41.424,297 L36.368,297 L36.368,280.008 L40.784,280.008 L41.2,283.272 C41.5840019,282.098661 42.1653294,281.181337 42.944,280.52 C43.7226706,279.858663 44.6026618,279.528 45.584,279.528 Z M56.976,276.456 C56.250663,276.456 55.7280016,276.626665 55.408,276.968 C55.0879984,277.309335 54.928,277.885329 54.928,278.696 L54.928,280.008 L58.928,280.008 L58.384,283.528 L54.928,283.528 L54.928,297 L49.872,297 L49.872,283.528 L47.312,283.528 L47.312,280.008 L49.872,280.008 L49.872,278.504 C49.872,276.797325 50.4319944,275.405339 51.552,274.328 C52.6720056,273.250661 54.2773229,272.712 56.368,272.712 C58.0533418,272.712 59.599993,273.074663 61.008,273.8 L59.632,277.096 C58.7786624,276.669331 57.8933379,276.456 56.976,276.456 Z M67.632,279.464 C70.2346797,279.464 72.2719926,280.258659 73.744,281.848 C75.2160074,283.437341 75.952,285.661319 75.952,288.52 C75.952,290.333342 75.6160034,291.917327 74.944,293.272 C74.2719966,294.626673 73.3120062,295.67733 72.064,296.424 C70.8159938,297.17067 69.3386752,297.544 67.632,297.544 C65.0506538,297.544 63.0186741,296.749341 61.536,295.16 C60.0533259,293.570659 59.312,291.346681 59.312,288.488 C59.312,286.674658 59.6479966,285.090673 60.32,283.736 C60.9920034,282.381327 61.9519938,281.33067 63.2,280.584 C64.4480062,279.83733 65.9253248,279.464 67.632,279.464 Z M67.632,283.176 C66.6079949,283.176 65.8400026,283.607996 65.328,284.472 C64.8159974,285.336004 64.56,286.674658 64.56,288.488 C64.56,290.344009 64.8106642,291.698662 65.312,292.552 C65.8133358,293.405338 66.5866614,293.832 67.632,293.832 C68.6560051,293.832 69.4239974,293.400004 69.936,292.536 C70.4480026,291.671996 70.704,290.333342 70.704,288.52 C70.704,286.663991 70.4533358,285.309338 69.952,284.456 C69.4506642,283.602662 68.6773386,283.176 67.632,283.176 Z M88.176,279.528 C88.7946698,279.528 89.3599974,279.602666 89.872,279.752 L89.072,284.648 C88.4319968,284.498666 87.9200019,284.424 87.536,284.424 C86.5546618,284.424 85.797336,284.76533 85.264,285.448 C84.730664,286.13067 84.3146682,287.15466 84.016,288.52 L84.016,297 L78.96,297 L78.96,280.008 L83.376,280.008 L83.792,283.272 C84.1760019,282.098661 84.7573294,281.181337 85.536,280.52 C86.3146706,279.858663 87.1946618,279.528 88.176,279.528 Z M110.576,279.464 C111.920007,279.464 112.997329,279.917329 113.808,280.824 C114.618671,281.730671 115.024,282.983992 115.024,284.584 L115.024,297 L109.968,297 L109.968,285.448 C109.968,283.933326 109.488005,283.176 108.528,283.176 C107.994664,283.176 107.525335,283.357332 107.12,283.72 C106.714665,284.082668 106.320002,284.63733 105.936,285.384 L105.936,297 L100.88,297 L100.88,285.448 C100.88,283.933326 100.400005,283.176 99.44,283.176 C98.927997,283.176 98.464002,283.362665 98.048,283.736 C97.631998,284.109335 97.232002,284.658663 96.848,285.384 L96.848,297 L91.792,297 L91.792,280.008 L96.208,280.008 L96.56,281.992 C97.221337,281.138662 97.951996,280.504002 98.752,280.088 C99.552004,279.671998 100.463995,279.464 101.488,279.464 C102.426671,279.464 103.242663,279.698664 103.936,280.168 C104.629337,280.637336 105.146665,281.298662 105.488,282.152 C106.17067,281.255996 106.922663,280.584002 107.744,280.136 C108.565337,279.687998 109.509328,279.464 110.576,279.464 Z M132.336,292.072 C132.336,292.712003 132.426666,293.181332 132.608,293.48 C132.789334,293.778668 133.082665,294.002666 133.488,294.152 L132.432,297.448 C131.386661,297.362666 130.53867,297.138668 129.888,296.776 C129.23733,296.413332 128.720002,295.826671 128.336,295.016 C127.226661,296.701342 125.520012,297.544 123.216,297.544 C121.530658,297.544 120.186672,297.053338 119.184,296.072 C118.181328,295.090662 117.68,293.810675 117.68,292.232 C117.68,290.375991 118.36266,288.957338 119.728,287.976 C121.09334,286.994662 123.066654,286.504 125.648,286.504 L127.376,286.504 L127.376,285.768 C127.376,284.765328 127.162669,284.077335 126.736,283.704 C126.309331,283.330665 125.562672,283.144 124.496,283.144 C123.941331,283.144 123.269337,283.223999 122.48,283.384 C121.690663,283.544001 120.880004,283.762665 120.048,284.04 L118.896,280.712 C119.962672,280.306665 121.055994,279.997334 122.176,279.784 C123.296006,279.570666 124.335995,279.464 125.296,279.464 C127.728012,279.464 129.509328,279.965328 130.64,280.968 C131.770672,281.970672 132.336,283.474657 132.336,285.48 L132.336,292.072 Z M124.688,293.928 C125.242669,293.928 125.749331,293.789335 126.208,293.512 C126.666669,293.234665 127.055998,292.840003 127.376,292.328 L127.376,289.288 L126.128,289.288 C124.975994,289.288 124.117336,289.490665 123.552,289.896 C122.986664,290.301335 122.704,290.930662 122.704,291.784 C122.704,292.46667 122.879998,292.994665 123.232,293.368 C123.584002,293.741335 124.06933,293.928 124.688,293.928 Z M146.32,279.464 C147.792007,279.464 148.943996,279.911996 149.776,280.808 C150.608004,281.704004 151.024,282.962659 151.024,284.584 L151.024,297 L145.968,297 L145.968,285.448 C145.968,284.594662 145.834668,284.002668 145.568,283.672 C145.301332,283.341332 144.901336,283.176 144.368,283.176 C143.343995,283.176 142.362671,283.911993 141.424,285.384 L141.424,297 L136.368,297 L136.368,280.008 L140.784,280.008 L141.136,282.024 C141.88267,281.170662 142.677329,280.530669 143.52,280.104 C144.362671,279.677331 145.295995,279.464 146.32,279.464 Z M162.192,279.464 C163.365339,279.464 164.421329,279.634665 165.36,279.976 C166.298671,280.317335 167.183996,280.839996 168.016,281.544 L165.84,284.552 C164.773328,283.741329 163.696005,283.336 162.608,283.336 C161.477328,283.336 160.624003,283.751996 160.048,284.584 C159.471997,285.416004 159.184,286.759991 159.184,288.616 C159.184,290.408009 159.471997,291.67733 160.048,292.424 C160.624003,293.17067 161.455995,293.544 162.544,293.544 C163.120003,293.544 163.642664,293.453334 164.112,293.272 C164.581336,293.090666 165.146663,292.797335 165.808,292.392 L168.016,295.528 C166.330658,296.872007 164.421344,297.544 162.288,297.544 C160.559991,297.544 159.066673,297.176004 157.808,296.44 C156.549327,295.703996 155.57867,294.66934 154.896,293.336 C154.21333,292.00266 153.872,290.440009 153.872,288.648 C153.872,286.855991 154.21333,285.266674 154.896,283.88 C155.57867,282.493326 156.549327,281.410671 157.808,280.632 C159.066673,279.853329 160.527992,279.464 162.192,279.464 Z M184.656,288.168 C184.656,288.872004 184.624,289.479997 184.56,289.992 L174.064,289.992 C174.213334,291.42134 174.607997,292.423997 175.248,293 C175.888003,293.576003 176.773328,293.864 177.904,293.864 C178.58667,293.864 179.247997,293.741335 179.888,293.496 C180.528003,293.250665 181.22133,292.872003 181.968,292.36 L184.048,295.176 C182.06399,296.754675 179.856012,297.544 177.424,297.544 C174.671986,297.544 172.560007,296.733341 171.088,295.112 C169.615993,293.490659 168.88,291.31468 168.88,288.584 C168.88,286.855991 169.18933,285.304007 169.808,283.928 C170.42667,282.551993 171.333327,281.464004 172.528,280.664 C173.722673,279.863996 175.151992,279.464 176.816,279.464 C179.269346,279.464 181.189326,280.231992 182.576,281.768 C183.962674,283.304008 184.656,285.43732 184.656,288.168 Z M179.696,286.728 C179.653333,284.12532 178.736009,282.824 176.944,282.824 C176.069329,282.824 175.397336,283.138664 174.928,283.768 C174.458664,284.397336 174.160001,285.458659 174.032,286.952 L179.696,286.952 L179.696,286.728 Z" id="Faster-Application-P" fill="#000000" fill-rule="nonzero"></path>
            <path d="M947.112,233.568 L939.304,233.568 L939.304,238.88 L946.12,238.88 L946.12,242.56 L939.304,242.56 L939.304,248.224 L947.656,248.224 L947.656,252 L934.056,252 L934.056,229.824 L947.656,229.824 L947.112,233.568 Z M958.568,231.456 C957.842663,231.456 957.320002,231.626665 957,231.968 C956.679998,232.309335 956.52,232.885329 956.52,233.696 L956.52,235.008 L960.52,235.008 L959.976,238.528 L956.52,238.528 L956.52,252 L951.464,252 L951.464,238.528 L948.904,238.528 L948.904,235.008 L951.464,235.008 L951.464,233.504 C951.464,231.797325 952.023994,230.405339 953.144,229.328 C954.264006,228.250661 955.869323,227.712 957.96,227.712 C959.645342,227.712 961.191993,228.074663 962.6,228.8 L961.224,232.096 C960.370662,231.669331 959.485338,231.456 958.568,231.456 Z M969.96,231.456 C969.234663,231.456 968.712002,231.626665 968.392,231.968 C968.071998,232.309335 967.912,232.885329 967.912,233.696 L967.912,235.008 L971.912,235.008 L971.368,238.528 L967.912,238.528 L967.912,252 L962.856,252 L962.856,238.528 L960.296,238.528 L960.296,235.008 L962.856,235.008 L962.856,233.504 C962.856,231.797325 963.415994,230.405339 964.536,229.328 C965.656006,228.250661 967.261323,227.712 969.352,227.712 C971.037342,227.712 972.583993,228.074663 973.992,228.8 L972.616,232.096 C971.762662,231.669331 970.877338,231.456 969.96,231.456 Z M979.144,252 L974.088,252 L974.088,235.008 L979.144,235.008 L979.144,252 Z M976.584,226.048 C977.458671,226.048 978.178664,226.319997 978.744,226.864 C979.309336,227.408003 979.592,228.095996 979.592,228.928 C979.592,229.760004 979.309336,230.447997 978.744,230.992 C978.178664,231.536003 977.458671,231.808 976.584,231.808 C975.709329,231.808 974.994669,231.536003 974.44,230.992 C973.885331,230.447997 973.608,229.760004 973.608,228.928 C973.608,228.095996 973.885331,227.408003 974.44,226.864 C974.994669,226.319997 975.709329,226.048 976.584,226.048 Z M990.472,234.464 C991.645339,234.464 992.701329,234.634665 993.64,234.976 C994.578671,235.317335 995.463996,235.839997 996.296,236.544 L994.12,239.552 C993.053328,238.741329 991.976005,238.336 990.888,238.336 C989.757328,238.336 988.904003,238.751996 988.328,239.584 C987.751997,240.416004 987.464,241.759991 987.464,243.616 C987.464,245.408009 987.751997,246.67733 988.328,247.424 C988.904003,248.17067 989.735995,248.544 990.824,248.544 C991.400003,248.544 991.922664,248.453334 992.392,248.272 C992.861336,248.090666 993.426663,247.797335 994.088,247.392 L996.296,250.528 C994.610658,251.872007 992.701344,252.544 990.568,252.544 C988.839991,252.544 987.346673,252.176004 986.088,251.44 C984.829327,250.703996 983.85867,249.66934 983.176,248.336 C982.49333,247.00266 982.152,245.440009 982.152,243.648 C982.152,241.855991 982.49333,240.266674 983.176,238.88 C983.85867,237.493326 984.829327,236.410671 986.088,235.632 C987.346673,234.853329 988.807992,234.464 990.472,234.464 Z M1003.496,252 L998.44,252 L998.44,235.008 L1003.496,235.008 L1003.496,252 Z M1000.936,226.048 C1001.81067,226.048 1002.53066,226.319997 1003.096,226.864 C1003.66134,227.408003 1003.944,228.095996 1003.944,228.928 C1003.944,229.760004 1003.66134,230.447997 1003.096,230.992 C1002.53066,231.536003 1001.81067,231.808 1000.936,231.808 C1000.06133,231.808 999.346669,231.536003 998.792,230.992 C998.237331,230.447997 997.96,229.760004 997.96,228.928 C997.96,228.095996 998.237331,227.408003 998.792,226.864 C999.346669,226.319997 1000.06133,226.048 1000.936,226.048 Z M1022.28,243.168 C1022.28,243.872004 1022.248,244.479997 1022.184,244.992 L1011.688,244.992 C1011.83733,246.421341 1012.232,247.423997 1012.872,248 C1013.512,248.576003 1014.39733,248.864 1015.528,248.864 C1016.21067,248.864 1016.872,248.741335 1017.512,248.496 C1018.152,248.250665 1018.84533,247.872003 1019.592,247.36 L1021.672,250.176 C1019.68799,251.754675 1017.48001,252.544 1015.048,252.544 C1012.29599,252.544 1010.18401,251.733341 1008.712,250.112 C1007.23999,248.490659 1006.504,246.31468 1006.504,243.584 C1006.504,241.855991 1006.81333,240.304007 1007.432,238.928 C1008.05067,237.551993 1008.95733,236.464004 1010.152,235.664 C1011.34667,234.863996 1012.77599,234.464 1014.44,234.464 C1016.89335,234.464 1018.81333,235.231992 1020.2,236.768 C1021.58667,238.304008 1022.28,240.43732 1022.28,243.168 Z M1017.32,241.728 C1017.27733,239.12532 1016.36001,237.824 1014.568,237.824 C1013.69333,237.824 1013.02134,238.138664 1012.552,238.768 C1012.08266,239.397336 1011.784,240.458659 1011.656,241.952 L1017.32,241.952 L1017.32,241.728 Z M1035.144,234.464 C1036.61601,234.464 1037.768,234.911996 1038.6,235.808 C1039.432,236.704004 1039.848,237.962659 1039.848,239.584 L1039.848,252 L1034.792,252 L1034.792,240.448 C1034.792,239.594662 1034.65867,239.002668 1034.392,238.672 C1034.12533,238.341332 1033.72534,238.176 1033.192,238.176 C1032.168,238.176 1031.18667,238.911993 1030.248,240.384 L1030.248,252 L1025.192,252 L1025.192,235.008 L1029.608,235.008 L1029.96,237.024 C1030.70667,236.170662 1031.50133,235.530669 1032.344,235.104 C1033.18667,234.677331 1034.12,234.464 1035.144,234.464 Z M1054.312,251.2 C1053.69333,251.626669 1052.97334,251.957332 1052.152,252.192 C1051.33066,252.426668 1050.51467,252.544 1049.704,252.544 C1045.99198,252.522667 1044.136,250.474687 1044.136,246.4 L1044.136,238.528 L1041.736,238.528 L1041.736,235.008 L1044.136,235.008 L1044.136,231.328 L1049.192,230.752 L1049.192,235.008 L1053.096,235.008 L1052.552,238.528 L1049.192,238.528 L1049.192,246.336 C1049.192,247.125337 1049.32,247.690665 1049.576,248.032 C1049.832,248.373335 1050.23733,248.544 1050.792,248.544 C1051.38934,248.544 1051.99733,248.352002 1052.616,247.968 L1054.312,251.2 Z M957.688,298 L952.536,298 L952.152,289.328 C952.045333,287.258656 951.992,285.413341 951.992,283.792 C951.992,282.554661 952.024,281.381339 952.088,280.272 L948.664,295.664 L943.704,295.664 L940.056,280.272 C940.184001,282.128009 940.248,283.877325 940.248,285.52 C940.248,286.75734 940.216,288.047993 940.152,289.392 L939.768,298 L934.648,298 L936.312,275.824 L942.936,275.824 L946.264,290.864 L949.368,275.824 L956.024,275.824 L957.688,298 Z M975.608,289.168 C975.608,289.872004 975.576,290.479997 975.512,290.992 L965.016,290.992 C965.165334,292.421341 965.559997,293.423997 966.2,294 C966.840003,294.576003 967.725328,294.864 968.856,294.864 C969.53867,294.864 970.199997,294.741335 970.84,294.496 C971.480003,294.250665 972.17333,293.872003 972.92,293.36 L975,296.176 C973.01599,297.754675 970.808012,298.544 968.376,298.544 C965.623986,298.544 963.512007,297.733341 962.04,296.112 C960.567993,294.490659 959.832,292.31468 959.832,289.584 C959.832,287.855991 960.14133,286.304007 960.76,284.928 C961.37867,283.551993 962.285327,282.464004 963.48,281.664 C964.674673,280.863996 966.103992,280.464 967.768,280.464 C970.221346,280.464 972.141326,281.231992 973.528,282.768 C974.914674,284.304008 975.608,286.43732 975.608,289.168 Z M970.648,287.728 C970.605333,285.12532 969.688009,283.824 967.896,283.824 C967.021329,283.824 966.349336,284.138664 965.88,284.768 C965.410664,285.397336 965.112001,286.458659 964.984,287.952 L970.648,287.952 L970.648,287.728 Z M997.304,280.464 C998.648007,280.464 999.725329,280.917329 1000.536,281.824 C1001.34667,282.730671 1001.752,283.983992 1001.752,285.584 L1001.752,298 L996.696,298 L996.696,286.448 C996.696,284.933326 996.216005,284.176 995.256,284.176 C994.722664,284.176 994.253335,284.357332 993.848,284.72 C993.442665,285.082669 993.048002,285.63733 992.664,286.384 L992.664,298 L987.608,298 L987.608,286.448 C987.608,284.933326 987.128005,284.176 986.168,284.176 C985.655997,284.176 985.192002,284.362665 984.776,284.736 C984.359998,285.109335 983.960002,285.658663 983.576,286.384 L983.576,298 L978.52,298 L978.52,281.008 L982.936,281.008 L983.288,282.992 C983.949337,282.138662 984.679996,281.504002 985.48,281.088 C986.280004,280.671998 987.191995,280.464 988.216,280.464 C989.154671,280.464 989.970663,280.698664 990.664,281.168 C991.357337,281.637336 991.874665,282.298662 992.216,283.152 C992.89867,282.255996 993.650663,281.584002 994.472,281.136 C995.293337,280.687998 996.237328,280.464 997.304,280.464 Z M1012.92,280.464 C1015.52268,280.464 1017.55999,281.258659 1019.032,282.848 C1020.50401,284.437341 1021.24,286.661319 1021.24,289.52 C1021.24,291.333342 1020.904,292.917327 1020.232,294.272 C1019.56,295.626673 1018.60001,296.67733 1017.352,297.424 C1016.10399,298.17067 1014.62667,298.544 1012.92,298.544 C1010.33865,298.544 1008.30667,297.749341 1006.824,296.16 C1005.34133,294.570659 1004.6,292.346681 1004.6,289.488 C1004.6,287.674658 1004.936,286.090673 1005.608,284.736 C1006.28,283.381327 1007.23999,282.33067 1008.488,281.584 C1009.73601,280.83733 1011.21333,280.464 1012.92,280.464 Z M1012.92,284.176 C1011.89599,284.176 1011.128,284.607996 1010.616,285.472 C1010.104,286.336004 1009.848,287.674658 1009.848,289.488 C1009.848,291.344009 1010.09866,292.698662 1010.6,293.552 C1011.10134,294.405338 1011.87466,294.832 1012.92,294.832 C1013.94401,294.832 1014.712,294.400004 1015.224,293.536 C1015.736,292.671996 1015.992,291.333342 1015.992,289.52 C1015.992,287.663991 1015.74134,286.309338 1015.24,285.456 C1014.73866,284.602662 1013.96534,284.176 1012.92,284.176 Z M1033.464,280.528 C1034.08267,280.528 1034.648,280.602666 1035.16,280.752 L1034.36,285.648 C1033.72,285.498666 1033.208,285.424 1032.824,285.424 C1031.84266,285.424 1031.08534,285.76533 1030.552,286.448 C1030.01866,287.13067 1029.60267,288.15466 1029.304,289.52 L1029.304,298 L1024.248,298 L1024.248,281.008 L1028.664,281.008 L1029.08,284.272 C1029.464,283.098661 1030.04533,282.181337 1030.824,281.52 C1031.60267,280.858663 1032.48266,280.528 1033.464,280.528 Z M1047.192,298.032 C1046.50933,300.229344 1045.39467,301.919994 1043.848,303.104 C1042.30133,304.288006 1040.22668,304.954666 1037.624,305.104 L1037.08,301.552 C1038.70134,301.338666 1039.90133,300.976003 1040.68,300.464 C1041.45867,299.951997 1042.08266,299.130672 1042.552,298 L1040.824,298 L1035.64,281.008 L1041.016,281.008 L1044.056,294.768 L1047.384,281.008 L1052.6,281.008 L1047.192,298.032 Z M907.208,321.28 C908.658674,321.28 909.922661,321.482665 911,321.888 C912.077339,322.293335 913.095995,322.901329 914.056,323.712 L911.496,326.752 C910.258661,325.685328 908.936007,325.152 907.528,325.152 C906.055993,325.152 904.888004,325.78666 904.024,327.056 C903.159996,328.32534 902.728,330.26132 902.728,332.864 C902.728,335.445346 903.159996,337.359994 904.024,338.608 C904.888004,339.856006 906.087992,340.48 907.624,340.48 C908.413337,340.48 909.13333,340.320002 909.784,340 C910.43467,339.679998 911.154663,339.221336 911.944,338.624 L914.312,341.696 C913.501329,342.506671 912.498673,343.183997 911.304,343.728 C910.109327,344.272003 908.797341,344.544 907.368,344.544 C905.31999,344.544 903.538674,344.096004 902.024,343.2 C900.509326,342.303996 899.330671,340.976009 898.488,339.216 C897.645329,337.455991 897.224,335.338679 897.224,332.864 C897.224,330.453321 897.655996,328.373342 898.52,326.624 C899.384004,324.874658 900.567992,323.546671 902.072,322.64 C903.576008,321.733329 905.28799,321.28 907.208,321.28 Z M923.592,326.464 C926.19468,326.464 928.231993,327.258659 929.704,328.848 C931.176007,330.437341 931.912,332.661319 931.912,335.52 C931.912,337.333342 931.576003,338.917327 930.904,340.272 C930.231997,341.626673 929.272006,342.67733 928.024,343.424 C926.775994,344.17067 925.298675,344.544 923.592,344.544 C921.010654,344.544 918.978674,343.749341 917.496,342.16 C916.013326,340.570659 915.272,338.346681 915.272,335.488 C915.272,333.674658 915.607997,332.090673 916.28,330.736 C916.952003,329.381327 917.911994,328.33067 919.16,327.584 C920.408006,326.83733 921.885325,326.464 923.592,326.464 Z M923.592,330.176 C922.567995,330.176 921.800003,330.607996 921.288,331.472 C920.775997,332.336004 920.52,333.674658 920.52,335.488 C920.52,337.344009 920.770664,338.698662 921.272,339.552 C921.773336,340.405338 922.546661,340.832 923.592,340.832 C924.616005,340.832 925.383997,340.400004 925.896,339.536 C926.408003,338.671996 926.664,337.333342 926.664,335.52 C926.664,333.663991 926.413336,332.309338 925.912,331.456 C925.410664,330.602662 924.637339,330.176 923.592,330.176 Z M944.872,326.464 C946.344007,326.464 947.495996,326.911996 948.328,327.808 C949.160004,328.704004 949.576,329.962659 949.576,331.584 L949.576,344 L944.52,344 L944.52,332.448 C944.52,331.594662 944.386668,331.002668 944.12,330.672 C943.853332,330.341332 943.453336,330.176 942.92,330.176 C941.895995,330.176 940.914671,330.911993 939.976,332.384 L939.976,344 L934.92,344 L934.92,327.008 L939.336,327.008 L939.688,329.024 C940.43467,328.170662 941.229329,327.530669 942.072,327.104 C942.914671,326.677331 943.847995,326.464 944.872,326.464 Z M959.368,326.464 C960.584006,326.464 961.725328,326.645332 962.792,327.008 C963.858672,327.370668 964.797329,327.882663 965.608,328.544 L963.752,331.392 C962.365326,330.517329 960.968007,330.08 959.56,330.08 C958.898663,330.08 958.392002,330.191999 958.04,330.416 C957.687998,330.640001 957.512,330.954665 957.512,331.36 C957.512,331.680002 957.591999,331.941332 957.752,332.144 C957.912001,332.346668 958.237331,332.554666 958.728,332.768 C959.218669,332.981334 959.975995,333.237332 961,333.536 C962.770676,334.048003 964.087996,334.714663 964.952,335.536 C965.816004,336.357337 966.248,337.493326 966.248,338.944 C966.248,340.096006 965.917337,341.093329 965.256,341.936 C964.594663,342.778671 963.688006,343.423998 962.536,343.872 C961.383994,344.320002 960.104007,344.544 958.696,344.544 C957.26666,344.544 955.938673,344.320002 954.712,343.872 C953.485327,343.423998 952.445338,342.805337 951.592,342.016 L954.056,339.264 C955.485341,340.373339 956.989325,340.928 958.568,340.928 C959.336004,340.928 959.938665,340.789335 960.376,340.512 C960.813335,340.234665 961.032,339.840003 961.032,339.328 C961.032,338.922665 960.946668,338.602668 960.776,338.368 C960.605333,338.133332 960.274669,337.914668 959.784,337.712 C959.293331,337.509332 958.514672,337.258668 957.448,336.96 C955.762658,336.469331 954.504004,335.786671 953.672,334.912 C952.839996,334.037329 952.424,332.94934 952.424,331.648 C952.424,330.666662 952.706664,329.786671 953.272,329.008 C953.837336,328.229329 954.647995,327.610669 955.704,327.152 C956.760005,326.693331 957.981326,326.464 959.368,326.464 Z M983.176,344 L978.792,344 L978.568,341.856 C977.330661,343.648009 975.613344,344.544 973.416,344.544 C971.858659,344.544 970.680004,344.074671 969.88,343.136 C969.079996,342.197329 968.68,340.885342 968.68,339.2 L968.68,327.008 L973.736,327.008 L973.736,338.56 C973.736,339.392004 973.869332,339.973332 974.136,340.304 C974.402668,340.634668 974.813331,340.8 975.368,340.8 C976.434672,340.8 977.351996,340.138673 978.12,338.816 L978.12,327.008 L983.176,327.008 L983.176,344 Z M1005.928,326.464 C1007.27201,326.464 1008.34933,326.917329 1009.16,327.824 C1009.97067,328.730671 1010.376,329.983992 1010.376,331.584 L1010.376,344 L1005.32,344 L1005.32,332.448 C1005.32,330.933326 1004.84001,330.176 1003.88,330.176 C1003.34666,330.176 1002.87734,330.357332 1002.472,330.72 C1002.06667,331.082668 1001.672,331.63733 1001.288,332.384 L1001.288,344 L996.232,344 L996.232,332.448 C996.232,330.933326 995.752005,330.176 994.792,330.176 C994.279997,330.176 993.816002,330.362665 993.4,330.736 C992.983998,331.109335 992.584002,331.658663 992.2,332.384 L992.2,344 L987.144,344 L987.144,327.008 L991.56,327.008 L991.912,328.992 C992.573337,328.138662 993.303996,327.504002 994.104,327.088 C994.904004,326.671998 995.815995,326.464 996.84,326.464 C997.778671,326.464 998.594663,326.698664 999.288,327.168 C999.981337,327.637336 1000.49867,328.298662 1000.84,329.152 C1001.52267,328.255996 1002.27466,327.584002 1003.096,327.136 C1003.91734,326.687998 1004.86133,326.464 1005.928,326.464 Z M1023.688,326.464 C1025.86401,326.464 1027.48,327.247992 1028.536,328.816 C1029.592,330.384008 1030.12,332.597319 1030.12,335.456 C1030.12,337.205342 1029.848,338.767993 1029.304,340.144 C1028.76,341.520007 1027.976,342.597329 1026.952,343.376 C1025.928,344.154671 1024.73334,344.544 1023.368,344.544 C1021.66133,344.544 1020.28534,343.946673 1019.24,342.752 L1019.24,350.56 L1014.184,351.104 L1014.184,327.008 L1018.632,327.008 L1018.888,328.896 C1019.54934,328.063996 1020.30133,327.450669 1021.144,327.056 C1021.98667,326.661331 1022.83466,326.464 1023.688,326.464 Z M1021.832,340.832 C1023.85868,340.832 1024.872,339.061351 1024.872,335.52 C1024.872,333.514657 1024.64267,332.122671 1024.184,331.344 C1023.72533,330.565329 1023.02667,330.176 1022.088,330.176 C1021.55466,330.176 1021.03734,330.351998 1020.536,330.704 C1020.03466,331.056002 1019.60267,331.54133 1019.24,332.16 L1019.24,339.328 C1019.92267,340.330672 1020.78666,340.832 1021.832,340.832 Z M1043.944,343.2 C1043.32533,343.626669 1042.60534,343.957332 1041.784,344.192 C1040.96266,344.426668 1040.14667,344.544 1039.336,344.544 C1035.62398,344.522667 1033.768,342.474687 1033.768,338.4 L1033.768,330.528 L1031.368,330.528 L1031.368,327.008 L1033.768,327.008 L1033.768,323.328 L1038.824,322.752 L1038.824,327.008 L1042.728,327.008 L1042.184,330.528 L1038.824,330.528 L1038.824,338.336 C1038.824,339.125337 1038.952,339.690665 1039.208,340.032 C1039.464,340.373335 1039.86933,340.544 1040.424,340.544 C1041.02134,340.544 1041.62933,340.352002 1042.248,339.968 L1043.944,343.2 Z M1050.696,344 L1045.64,344 L1045.64,327.008 L1050.696,327.008 L1050.696,344 Z M1048.136,318.048 C1049.01067,318.048 1049.73066,318.319997 1050.296,318.864 C1050.86134,319.408003 1051.144,320.095996 1051.144,320.928 C1051.144,321.760004 1050.86134,322.447997 1050.296,322.992 C1049.73066,323.536003 1049.01067,323.808 1048.136,323.808 C1047.26133,323.808 1046.54667,323.536003 1045.992,322.992 C1045.43733,322.447997 1045.16,321.760004 1045.16,320.928 C1045.16,320.095996 1045.43733,319.408003 1045.992,318.864 C1046.54667,318.319997 1047.26133,318.048 1048.136,318.048 Z M1062.024,326.464 C1064.62668,326.464 1066.66399,327.258659 1068.136,328.848 C1069.60801,330.437341 1070.344,332.661319 1070.344,335.52 C1070.344,337.333342 1070.008,338.917327 1069.336,340.272 C1068.664,341.626673 1067.70401,342.67733 1066.456,343.424 C1065.20799,344.17067 1063.73068,344.544 1062.024,344.544 C1059.44265,344.544 1057.41067,343.749341 1055.928,342.16 C1054.44533,340.570659 1053.704,338.346681 1053.704,335.488 C1053.704,333.674658 1054.04,332.090673 1054.712,330.736 C1055.384,329.381327 1056.34399,328.33067 1057.592,327.584 C1058.84001,326.83733 1060.31732,326.464 1062.024,326.464 Z M1062.024,330.176 C1061,330.176 1060.232,330.607996 1059.72,331.472 C1059.208,332.336004 1058.952,333.674658 1058.952,335.488 C1058.952,337.344009 1059.20266,338.698662 1059.704,339.552 C1060.20534,340.405338 1060.97866,340.832 1062.024,340.832 C1063.04801,340.832 1063.816,340.400004 1064.328,339.536 C1064.84,338.671996 1065.096,337.333342 1065.096,335.52 C1065.096,333.663991 1064.84534,332.309338 1064.344,331.456 C1063.84266,330.602662 1063.06934,330.176 1062.024,330.176 Z M1083.304,326.464 C1084.77601,326.464 1085.928,326.911996 1086.76,327.808 C1087.592,328.704004 1088.008,329.962659 1088.008,331.584 L1088.008,344 L1082.952,344 L1082.952,332.448 C1082.952,331.594662 1082.81867,331.002668 1082.552,330.672 C1082.28533,330.341332 1081.88534,330.176 1081.352,330.176 C1080.328,330.176 1079.34667,330.911993 1078.408,332.384 L1078.408,344 L1073.352,344 L1073.352,327.008 L1077.768,327.008 L1078.12,329.024 C1078.86667,328.170662 1079.66133,327.530669 1080.504,327.104 C1081.34667,326.677331 1082.28,326.464 1083.304,326.464 Z" id="Efficient-Memory-Con" fill="#000000" fill-rule="nonzero"></path>
            <path d="M506.152,100.568 L498.728,100.568 L498.728,106.456 L505.192,106.456 L505.192,110.2 L498.728,110.2 L498.728,119 L493.48,119 L493.48,96.824 L506.696,96.824 L506.152,100.568 Z M523.144,110.168 C523.144,110.872004 523.112,111.479997 523.048,111.992 L512.552,111.992 C512.701334,113.42134 513.095997,114.423997 513.736,115 C514.376003,115.576003 515.261328,115.864 516.392,115.864 C517.07467,115.864 517.735997,115.741335 518.376,115.496 C519.016003,115.250665 519.70933,114.872003 520.456,114.36 L522.536,117.176 C520.55199,118.754675 518.344012,119.544 515.912,119.544 C513.159986,119.544 511.048007,118.733341 509.576,117.112 C508.103993,115.490659 507.368,113.31468 507.368,110.584 C507.368,108.855991 507.67733,107.304007 508.296,105.928 C508.91467,104.551993 509.821327,103.464004 511.016,102.664 C512.210673,101.863996 513.639992,101.464 515.304,101.464 C517.757346,101.464 519.677326,102.231992 521.064,103.768 C522.450674,105.304008 523.144,107.43732 523.144,110.168 Z M518.184,108.728 C518.141333,106.12532 517.224009,104.824 515.432,104.824 C514.557329,104.824 513.885336,105.138664 513.416,105.768 C512.946664,106.397336 512.648001,107.458659 512.52,108.952 L518.184,108.952 L518.184,108.728 Z M544.36,119 L538.312,119 L536.04,106.52 L533.8,119 L527.816,119 L524.2,102.008 L529.32,102.008 L531.08,115.224 L533.736,102.008 L538.664,102.008 L541,115.224 L543.048,102.008 L547.88,102.008 L544.36,119 Z M564.52,110.168 C564.52,110.872004 564.488,111.479997 564.424,111.992 L553.928,111.992 C554.077334,113.42134 554.471997,114.423997 555.112,115 C555.752003,115.576003 556.637328,115.864 557.768,115.864 C558.45067,115.864 559.111997,115.741335 559.752,115.496 C560.392003,115.250665 561.08533,114.872003 561.832,114.36 L563.912,117.176 C561.92799,118.754675 559.720012,119.544 557.288,119.544 C554.535986,119.544 552.424007,118.733341 550.952,117.112 C549.479993,115.490659 548.744,113.31468 548.744,110.584 C548.744,108.855991 549.05333,107.304007 549.672,105.928 C550.29067,104.551993 551.197327,103.464004 552.392,102.664 C553.586673,101.863996 555.015992,101.464 556.68,101.464 C559.133346,101.464 561.053326,102.231992 562.44,103.768 C563.826674,105.304008 564.52,107.43732 564.52,110.168 Z M559.56,108.728 C559.517333,106.12532 558.600009,104.824 556.808,104.824 C555.933329,104.824 555.261336,105.138664 554.792,105.768 C554.322664,106.397336 554.024001,107.458659 553.896,108.952 L559.56,108.952 L559.56,108.728 Z M576.648,101.528 C577.26667,101.528 577.831997,101.602666 578.344,101.752 L577.544,106.648 C576.903997,106.498666 576.392002,106.424 576.008,106.424 C575.026662,106.424 574.269336,106.76533 573.736,107.448 C573.202664,108.13067 572.786668,109.15466 572.488,110.52 L572.488,119 L567.432,119 L567.432,102.008 L571.848,102.008 L572.264,105.272 C572.648002,104.098661 573.229329,103.181337 574.008,102.52 C574.786671,101.858663 575.666662,101.528 576.648,101.528 Z M464.92,142.824 C468.397351,142.824 471.186656,143.607992 473.288,145.176 C475.389344,146.744008 476.44,149.618646 476.44,153.8 C476.44,157.917354 475.41601,160.813325 473.368,162.488 C471.31999,164.162675 468.664016,165 465.4,165 L458.744,165 L458.744,142.824 L464.92,142.824 Z M463.992,146.632 L463.992,161.192 L465.72,161.192 C467.448009,161.192 468.759996,160.653339 469.656,159.576 C470.552004,158.498661 471,156.573347 471,153.8 C471,151.901324 470.776002,150.429339 470.328,149.384 C469.879998,148.338661 469.272004,147.618669 468.504,147.224 C467.735996,146.829331 466.786672,146.632 465.656,146.632 L463.992,146.632 Z M494.296,156.168 C494.296,156.872004 494.264,157.479997 494.2,157.992 L483.704,157.992 C483.853334,159.42134 484.247997,160.423997 484.888,161 C485.528003,161.576003 486.413328,161.864 487.544,161.864 C488.22667,161.864 488.887997,161.741335 489.528,161.496 C490.168003,161.250665 490.86133,160.872003 491.608,160.36 L493.688,163.176 C491.70399,164.754675 489.496012,165.544 487.064,165.544 C484.311986,165.544 482.200007,164.733341 480.728,163.112 C479.255993,161.490659 478.52,159.31468 478.52,156.584 C478.52,154.855991 478.82933,153.304007 479.448,151.928 C480.06667,150.551993 480.973327,149.464004 482.168,148.664 C483.362673,147.863996 484.791992,147.464 486.456,147.464 C488.909346,147.464 490.829326,148.231992 492.216,149.768 C493.602674,151.304008 494.296,153.43732 494.296,156.168 Z M489.336,154.728 C489.293333,152.12532 488.376009,150.824 486.584,150.824 C485.709329,150.824 485.037336,151.138664 484.568,151.768 C484.098664,152.397336 483.800001,153.458659 483.672,154.952 L489.336,154.952 L489.336,154.728 Z M506.744,147.464 C508.813344,147.464 510.397328,148.253325 511.496,149.832 C512.594672,151.410675 513.144,153.639986 513.144,156.52 C513.144,158.269342 512.872003,159.82666 512.328,161.192 C511.783997,162.55734 511.005338,163.623996 509.992,164.392 C508.978662,165.160004 507.778674,165.544 506.392,165.544 C505.453329,165.544 504.605337,165.357335 503.848,164.984 C503.090663,164.610665 502.456003,164.072004 501.944,163.368 L501.688,165 L497.208,165 L497.208,141.256 L502.264,140.712 L502.264,149.736 C502.754669,149.05333 503.405329,148.504002 504.216,148.088 C505.026671,147.671998 505.869329,147.464 506.744,147.464 Z M504.952,161.864 C506.914676,161.864 507.896,160.082684 507.896,156.52 C507.896,154.514657 507.661336,153.122671 507.192,152.344 C506.722664,151.565329 506.050671,151.176 505.176,151.176 C504.023994,151.176 503.053337,151.837327 502.264,153.16 L502.264,160.2 C502.94667,161.309339 503.842661,161.864 504.952,161.864 Z M530.648,165 L526.264,165 L526.04,162.856 C524.80266,164.648009 523.085344,165.544 520.888,165.544 C519.330659,165.544 518.152004,165.074671 517.352,164.136 C516.551996,163.197329 516.152,161.885342 516.152,160.2 L516.152,148.008 L521.208,148.008 L521.208,159.56 C521.208,160.392004 521.341332,160.973332 521.608,161.304 C521.874668,161.634668 522.285331,161.8 522.84,161.8 C523.906672,161.8 524.823996,161.138673 525.592,159.816 L525.592,148.008 L530.648,148.008 L530.648,165 Z M550.264,149 C549.154661,149.448002 547.522677,149.672 545.368,149.672 C546.477339,150.141336 547.287997,150.71733 547.8,151.4 C548.312003,152.08267 548.568,152.967995 548.568,154.056 C548.568,155.144005 548.280003,156.119996 547.704,156.984 C547.127997,157.848004 546.301339,158.525331 545.224,159.016 C544.146661,159.506669 542.882674,159.752 541.432,159.752 C540.74933,159.752 540.09867,159.688001 539.48,159.56 C539.309332,159.645334 539.176,159.778666 539.08,159.96 C538.984,160.141334 538.936,160.327999 538.936,160.52 C538.936,160.840002 539.058665,161.090666 539.304,161.272 C539.549335,161.453334 540.04533,161.544 540.792,161.544 L543.352,161.544 C544.65334,161.544 545.794662,161.757331 546.776,162.184 C547.757338,162.610669 548.514664,163.19733 549.048,163.944 C549.581336,164.69067 549.848,165.533329 549.848,166.472 C549.848,168.242676 549.085341,169.623995 547.56,170.616 C546.034659,171.608005 543.832014,172.104 540.952,172.104 C538.882656,172.104 537.250673,171.885336 536.056,171.448 C534.861327,171.010664 534.024002,170.397337 533.544,169.608 C533.063998,168.818663 532.824,167.826673 532.824,166.632 L537.368,166.632 C537.368,167.144003 537.469332,167.549332 537.672,167.848 C537.874668,168.146668 538.242664,168.370666 538.776,168.52 C539.309336,168.669334 540.077328,168.744 541.08,168.744 C542.466674,168.744 543.426664,168.578668 543.96,168.248 C544.493336,167.917332 544.76,167.44267 544.76,166.824 C544.76,166.311997 544.557335,165.906668 544.152,165.608 C543.746665,165.309332 543.138671,165.16 542.328,165.16 L539.864,165.16 C538.114658,165.16 536.808004,164.845336 535.944,164.216 C535.079996,163.586664 534.648,162.781338 534.648,161.8 C534.648,161.18133 534.829332,160.57867 535.192,159.992 C535.554668,159.40533 536.04533,158.920002 536.664,158.536 C535.597328,157.959997 534.824002,157.282671 534.344,156.504 C533.863998,155.725329 533.624,154.781339 533.624,153.672 C533.624,151.773324 534.30666,150.264006 535.672,149.144 C537.03734,148.023994 538.839989,147.464 541.08,147.464 C542.786675,147.506667 544.231994,147.336002 545.416,146.952 C546.600006,146.567998 547.821327,146.00267 549.08,145.256 L550.264,149 Z M541.208,150.792 C540.418663,150.792 539.794669,151.042664 539.336,151.544 C538.877331,152.045336 538.648,152.733329 538.648,153.608 C538.648,154.525338 538.877331,155.234664 539.336,155.736 C539.794669,156.237336 540.418663,156.488 541.208,156.488 C542.040004,156.488 542.674664,156.242669 543.112,155.752 C543.549336,155.261331 543.768,154.525338 543.768,153.544 C543.768,151.709324 542.914675,150.792 541.208,150.792 Z M567.896,149 C566.786661,149.448002 565.154677,149.672 563,149.672 C564.109339,150.141336 564.919997,150.71733 565.432,151.4 C565.944003,152.08267 566.2,152.967995 566.2,154.056 C566.2,155.144005 565.912003,156.119996 565.336,156.984 C564.759997,157.848004 563.933339,158.525331 562.856,159.016 C561.778661,159.506669 560.514674,159.752 559.064,159.752 C558.38133,159.752 557.73067,159.688001 557.112,159.56 C556.941332,159.645334 556.808,159.778666 556.712,159.96 C556.616,160.141334 556.568,160.327999 556.568,160.52 C556.568,160.840002 556.690665,161.090666 556.936,161.272 C557.181335,161.453334 557.67733,161.544 558.424,161.544 L560.984,161.544 C562.28534,161.544 563.426662,161.757331 564.408,162.184 C565.389338,162.610669 566.146664,163.19733 566.68,163.944 C567.213336,164.69067 567.48,165.533329 567.48,166.472 C567.48,168.242676 566.717341,169.623995 565.192,170.616 C563.666659,171.608005 561.464014,172.104 558.584,172.104 C556.514656,172.104 554.882673,171.885336 553.688,171.448 C552.493327,171.010664 551.656002,170.397337 551.176,169.608 C550.695998,168.818663 550.456,167.826673 550.456,166.632 L555,166.632 C555,167.144003 555.101332,167.549332 555.304,167.848 C555.506668,168.146668 555.874664,168.370666 556.408,168.52 C556.941336,168.669334 557.709328,168.744 558.712,168.744 C560.098674,168.744 561.058664,168.578668 561.592,168.248 C562.125336,167.917332 562.392,167.44267 562.392,166.824 C562.392,166.311997 562.189335,165.906668 561.784,165.608 C561.378665,165.309332 560.770671,165.16 559.96,165.16 L557.496,165.16 C555.746658,165.16 554.440004,164.845336 553.576,164.216 C552.711996,163.586664 552.28,162.781338 552.28,161.8 C552.28,161.18133 552.461332,160.57867 552.824,159.992 C553.186668,159.40533 553.67733,158.920002 554.296,158.536 C553.229328,157.959997 552.456002,157.282671 551.976,156.504 C551.495998,155.725329 551.256,154.781339 551.256,153.672 C551.256,151.773324 551.93866,150.264006 553.304,149.144 C554.66934,148.023994 556.471989,147.464 558.712,147.464 C560.418675,147.506667 561.863994,147.336002 563.048,146.952 C564.232006,146.567998 565.453327,146.00267 566.712,145.256 L567.896,149 Z M558.84,150.792 C558.050663,150.792 557.426669,151.042664 556.968,151.544 C556.509331,152.045336 556.28,152.733329 556.28,153.608 C556.28,154.525338 556.509331,155.234664 556.968,155.736 C557.426669,156.237336 558.050663,156.488 558.84,156.488 C559.672004,156.488 560.306664,156.242669 560.744,155.752 C561.181336,155.261331 561.4,154.525338 561.4,153.544 C561.4,151.709324 560.546675,150.792 558.84,150.792 Z M574.936,165 L569.88,165 L569.88,148.008 L574.936,148.008 L574.936,165 Z M572.376,139.048 C573.250671,139.048 573.970664,139.319997 574.536,139.864 C575.101336,140.408003 575.384,141.095996 575.384,141.928 C575.384,142.760004 575.101336,143.447997 574.536,143.992 C573.970664,144.536003 573.250671,144.808 572.376,144.808 C571.501329,144.808 570.786669,144.536003 570.232,143.992 C569.677331,143.447997 569.4,142.760004 569.4,141.928 C569.4,141.095996 569.677331,140.408003 570.232,139.864 C570.786669,139.319997 571.501329,139.048 572.376,139.048 Z M588.856,147.464 C590.328007,147.464 591.479996,147.911996 592.312,148.808 C593.144004,149.704004 593.56,150.962659 593.56,152.584 L593.56,165 L588.504,165 L588.504,153.448 C588.504,152.594662 588.370668,152.002668 588.104,151.672 C587.837332,151.341332 587.437336,151.176 586.904,151.176 C585.879995,151.176 584.898671,151.911993 583.96,153.384 L583.96,165 L578.904,165 L578.904,148.008 L583.32,148.008 L583.672,150.024 C584.41867,149.170662 585.213329,148.530669 586.056,148.104 C586.898671,147.677331 587.831995,147.464 588.856,147.464 Z M613.016,149 C611.906661,149.448002 610.274677,149.672 608.12,149.672 C609.229339,150.141336 610.039997,150.71733 610.552,151.4 C611.064003,152.08267 611.32,152.967995 611.32,154.056 C611.32,155.144005 611.032003,156.119996 610.456,156.984 C609.879997,157.848004 609.053339,158.525331 607.976,159.016 C606.898661,159.506669 605.634674,159.752 604.184,159.752 C603.50133,159.752 602.85067,159.688001 602.232,159.56 C602.061332,159.645334 601.928,159.778666 601.832,159.96 C601.736,160.141334 601.688,160.327999 601.688,160.52 C601.688,160.840002 601.810665,161.090666 602.056,161.272 C602.301335,161.453334 602.79733,161.544 603.544,161.544 L606.104,161.544 C607.40534,161.544 608.546662,161.757331 609.528,162.184 C610.509338,162.610669 611.266664,163.19733 611.8,163.944 C612.333336,164.69067 612.6,165.533329 612.6,166.472 C612.6,168.242676 611.837341,169.623995 610.312,170.616 C608.786659,171.608005 606.584014,172.104 603.704,172.104 C601.634656,172.104 600.002673,171.885336 598.808,171.448 C597.613327,171.010664 596.776002,170.397337 596.296,169.608 C595.815998,168.818663 595.576,167.826673 595.576,166.632 L600.12,166.632 C600.12,167.144003 600.221332,167.549332 600.424,167.848 C600.626668,168.146668 600.994664,168.370666 601.528,168.52 C602.061336,168.669334 602.829328,168.744 603.832,168.744 C605.218674,168.744 606.178664,168.578668 606.712,168.248 C607.245336,167.917332 607.512,167.44267 607.512,166.824 C607.512,166.311997 607.309335,165.906668 606.904,165.608 C606.498665,165.309332 605.890671,165.16 605.08,165.16 L602.616,165.16 C600.866658,165.16 599.560004,164.845336 598.696,164.216 C597.831996,163.586664 597.4,162.781338 597.4,161.8 C597.4,161.18133 597.581332,160.57867 597.944,159.992 C598.306668,159.40533 598.79733,158.920002 599.416,158.536 C598.349328,157.959997 597.576002,157.282671 597.096,156.504 C596.615998,155.725329 596.376,154.781339 596.376,153.672 C596.376,151.773324 597.05866,150.264006 598.424,149.144 C599.78934,148.023994 601.591989,147.464 603.832,147.464 C605.538675,147.506667 606.983994,147.336002 608.168,146.952 C609.352006,146.567998 610.573327,146.00267 611.832,145.256 L613.016,149 Z M603.96,150.792 C603.170663,150.792 602.546669,151.042664 602.088,151.544 C601.629331,152.045336 601.4,152.733329 601.4,153.608 C601.4,154.525338 601.629331,155.234664 602.088,155.736 C602.546669,156.237336 603.170663,156.488 603.96,156.488 C604.792004,156.488 605.426664,156.242669 605.864,155.752 C606.301336,155.261331 606.52,154.525338 606.52,153.544 C606.52,151.709324 605.666675,150.792 603.96,150.792 Z M441.736,188.28 C443.186674,188.28 444.450661,188.482665 445.528,188.888 C446.605339,189.293335 447.623995,189.901329 448.584,190.712 L446.024,193.752 C444.78666,192.685328 443.464007,192.152 442.056,192.152 C440.583993,192.152 439.416004,192.78666 438.552,194.056 C437.687996,195.32534 437.256,197.26132 437.256,199.864 C437.256,202.445346 437.687996,204.359994 438.552,205.608 C439.416004,206.856006 440.615992,207.48 442.152,207.48 C442.941337,207.48 443.66133,207.320002 444.312,207 C444.96267,206.679998 445.682663,206.221336 446.472,205.624 L448.84,208.696 C448.029329,209.506671 447.026673,210.183997 445.832,210.728 C444.637327,211.272003 443.32534,211.544 441.896,211.544 C439.84799,211.544 438.066674,211.096004 436.552,210.2 C435.037326,209.303996 433.858671,207.976009 433.016,206.216 C432.173329,204.455991 431.752,202.338679 431.752,199.864 C431.752,197.453321 432.183996,195.373342 433.048,193.624 C433.912004,191.874658 435.095992,190.546671 436.6,189.64 C438.104008,188.733329 439.81599,188.28 441.736,188.28 Z M458.12,193.464 C460.72268,193.464 462.759993,194.258659 464.232,195.848 C465.704007,197.437341 466.44,199.661319 466.44,202.52 C466.44,204.333342 466.104003,205.917327 465.432,207.272 C464.759997,208.626673 463.800006,209.67733 462.552,210.424 C461.303994,211.17067 459.826675,211.544 458.12,211.544 C455.538654,211.544 453.506674,210.749341 452.024,209.16 C450.541326,207.570659 449.8,205.346681 449.8,202.488 C449.8,200.674658 450.135997,199.090673 450.808,197.736 C451.480003,196.381327 452.439994,195.33067 453.688,194.584 C454.936006,193.83733 456.413325,193.464 458.12,193.464 Z M458.12,197.176 C457.095995,197.176 456.328003,197.607996 455.816,198.472 C455.303997,199.336004 455.048,200.674658 455.048,202.488 C455.048,204.344009 455.298664,205.698662 455.8,206.552 C456.301336,207.405338 457.074661,207.832 458.12,207.832 C459.144005,207.832 459.911997,207.400004 460.424,206.536 C460.936003,205.671996 461.192,204.333342 461.192,202.52 C461.192,200.663991 460.941336,199.309338 460.44,198.456 C459.938664,197.602662 459.165339,197.176 458.12,197.176 Z M488.232,193.464 C489.576007,193.464 490.653329,193.917329 491.464,194.824 C492.274671,195.730671 492.68,196.983992 492.68,198.584 L492.68,211 L487.624,211 L487.624,199.448 C487.624,197.933326 487.144005,197.176 486.184,197.176 C485.650664,197.176 485.181335,197.357332 484.776,197.72 C484.370665,198.082668 483.976002,198.63733 483.592,199.384 L483.592,211 L478.536,211 L478.536,199.448 C478.536,197.933326 478.056005,197.176 477.096,197.176 C476.583997,197.176 476.120002,197.362665 475.704,197.736 C475.287998,198.109335 474.888002,198.658663 474.504,199.384 L474.504,211 L469.448,211 L469.448,194.008 L473.864,194.008 L474.216,195.992 C474.877337,195.138662 475.607996,194.504002 476.408,194.088 C477.208004,193.671998 478.119995,193.464 479.144,193.464 C480.082671,193.464 480.898663,193.698664 481.592,194.168 C482.285337,194.637336 482.802665,195.298662 483.144,196.152 C483.82667,195.255996 484.578663,194.584002 485.4,194.136 C486.221337,193.687998 487.165328,193.464 488.232,193.464 Z M505.992,193.464 C508.168011,193.464 509.783995,194.247992 510.84,195.816 C511.896005,197.384008 512.424,199.597319 512.424,202.456 C512.424,204.205342 512.152003,205.767993 511.608,207.144 C511.063997,208.520007 510.280005,209.597329 509.256,210.376 C508.231995,211.154671 507.03734,211.544 505.672,211.544 C503.965325,211.544 502.589339,210.946673 501.544,209.752 L501.544,217.56 L496.488,218.104 L496.488,194.008 L500.936,194.008 L501.192,195.896 C501.853337,195.063996 502.605329,194.450669 503.448,194.056 C504.290671,193.661331 505.138662,193.464 505.992,193.464 Z M504.136,207.832 C506.162677,207.832 507.176,206.061351 507.176,202.52 C507.176,200.514657 506.946669,199.122671 506.488,198.344 C506.029331,197.565329 505.330671,197.176 504.392,197.176 C503.858664,197.176 503.341336,197.351998 502.84,197.704 C502.338664,198.056002 501.906668,198.54133 501.544,199.16 L501.544,206.328 C502.22667,207.330672 503.090661,207.832 504.136,207.832 Z M520.104,211.544 C518.631993,211.544 517.485337,211.122671 516.664,210.28 C515.842663,209.437329 515.432,208.237341 515.432,206.68 L515.432,187.256 L520.488,186.712 L520.488,206.488 C520.488,207.192004 520.775997,207.544 521.352,207.544 C521.650668,207.544 521.927999,207.490667 522.184,207.384 L523.176,210.968 C522.258662,211.352002 521.234672,211.544 520.104,211.544 Z M530.152,211 L525.096,211 L525.096,194.008 L530.152,194.008 L530.152,211 Z M527.592,185.048 C528.466671,185.048 529.186664,185.319997 529.752,185.864 C530.317336,186.408003 530.6,187.095996 530.6,187.928 C530.6,188.760004 530.317336,189.447997 529.752,189.992 C529.186664,190.536003 528.466671,190.808 527.592,190.808 C526.717329,190.808 526.002669,190.536003 525.448,189.992 C524.893331,189.447997 524.616,188.760004 524.616,187.928 C524.616,187.095996 524.893331,186.408003 525.448,185.864 C526.002669,185.319997 526.717329,185.048 527.592,185.048 Z M541.48,193.464 C542.653339,193.464 543.709329,193.634665 544.648,193.976 C545.586671,194.317335 546.471996,194.839996 547.304,195.544 L545.128,198.552 C544.061328,197.741329 542.984005,197.336 541.896,197.336 C540.765328,197.336 539.912003,197.751996 539.336,198.584 C538.759997,199.416004 538.472,200.759991 538.472,202.616 C538.472,204.408009 538.759997,205.67733 539.336,206.424 C539.912003,207.17067 540.743995,207.544 541.832,207.544 C542.408003,207.544 542.930664,207.453334 543.4,207.272 C543.869336,207.090666 544.434663,206.797335 545.096,206.392 L547.304,209.528 C545.618658,210.872007 543.709344,211.544 541.576,211.544 C539.847991,211.544 538.354673,211.176004 537.096,210.44 C535.837327,209.703996 534.86667,208.66934 534.184,207.336 C533.50133,206.00266 533.16,204.440009 533.16,202.648 C533.16,200.855991 533.50133,199.266674 534.184,197.88 C534.86667,196.493326 535.837327,195.410671 537.096,194.632 C538.354673,193.853329 539.815992,193.464 541.48,193.464 Z M562.952,206.072 C562.952,206.712003 563.042666,207.181332 563.224,207.48 C563.405334,207.778668 563.698665,208.002666 564.104,208.152 L563.048,211.448 C562.002661,211.362666 561.15467,211.138668 560.504,210.776 C559.85333,210.413332 559.336002,209.826671 558.952,209.016 C557.842661,210.701342 556.136012,211.544 553.832,211.544 C552.146658,211.544 550.802672,211.053338 549.8,210.072 C548.797328,209.090662 548.296,207.810675 548.296,206.232 C548.296,204.375991 548.97866,202.957338 550.344,201.976 C551.70934,200.994662 553.682654,200.504 556.264,200.504 L557.992,200.504 L557.992,199.768 C557.992,198.765328 557.778669,198.077335 557.352,197.704 C556.925331,197.330665 556.178672,197.144 555.112,197.144 C554.557331,197.144 553.885337,197.223999 553.096,197.384 C552.306663,197.544001 551.496004,197.762665 550.664,198.04 L549.512,194.712 C550.578672,194.306665 551.671994,193.997334 552.792,193.784 C553.912006,193.570666 554.951995,193.464 555.912,193.464 C558.344012,193.464 560.125328,193.965328 561.256,194.968 C562.386672,195.970672 562.952,197.474657 562.952,199.48 L562.952,206.072 Z M555.304,207.928 C555.858669,207.928 556.365331,207.789335 556.824,207.512 C557.282669,207.234665 557.671998,206.840003 557.992,206.328 L557.992,203.288 L556.744,203.288 C555.591994,203.288 554.733336,203.490665 554.168,203.896 C553.602664,204.301335 553.32,204.930662 553.32,205.784 C553.32,206.46667 553.495998,206.994665 553.848,207.368 C554.200002,207.741335 554.68533,207.928 555.304,207.928 Z M577.64,210.2 C577.02133,210.626669 576.301337,210.957332 575.48,211.192 C574.658663,211.426668 573.842671,211.544 573.032,211.544 C569.319981,211.522667 567.464,209.474687 567.464,205.4 L567.464,197.528 L565.064,197.528 L565.064,194.008 L567.464,194.008 L567.464,190.328 L572.52,189.752 L572.52,194.008 L576.424,194.008 L575.88,197.528 L572.52,197.528 L572.52,205.336 C572.52,206.125337 572.647999,206.690665 572.904,207.032 C573.160001,207.373335 573.565331,207.544 574.12,207.544 C574.717336,207.544 575.32533,207.352002 575.944,206.968 L577.64,210.2 Z M584.392,211 L579.336,211 L579.336,194.008 L584.392,194.008 L584.392,211 Z M581.832,185.048 C582.706671,185.048 583.426664,185.319997 583.992,185.864 C584.557336,186.408003 584.84,187.095996 584.84,187.928 C584.84,188.760004 584.557336,189.447997 583.992,189.992 C583.426664,190.536003 582.706671,190.808 581.832,190.808 C580.957329,190.808 580.242669,190.536003 579.688,189.992 C579.133331,189.447997 578.856,188.760004 578.856,187.928 C578.856,187.095996 579.133331,186.408003 579.688,185.864 C580.242669,185.319997 580.957329,185.048 581.832,185.048 Z M595.72,193.464 C598.32268,193.464 600.359993,194.258659 601.832,195.848 C603.304007,197.437341 604.04,199.661319 604.04,202.52 C604.04,204.333342 603.704003,205.917327 603.032,207.272 C602.359997,208.626673 601.400006,209.67733 600.152,210.424 C598.903994,211.17067 597.426675,211.544 595.72,211.544 C593.138654,211.544 591.106674,210.749341 589.624,209.16 C588.141326,207.570659 587.4,205.346681 587.4,202.488 C587.4,200.674658 587.735997,199.090673 588.408,197.736 C589.080003,196.381327 590.039994,195.33067 591.288,194.584 C592.536006,193.83733 594.013325,193.464 595.72,193.464 Z M595.72,197.176 C594.695995,197.176 593.928003,197.607996 593.416,198.472 C592.903997,199.336004 592.648,200.674658 592.648,202.488 C592.648,204.344009 592.898664,205.698662 593.4,206.552 C593.901336,207.405338 594.674661,207.832 595.72,207.832 C596.744005,207.832 597.511997,207.400004 598.024,206.536 C598.536003,205.671996 598.792,204.333342 598.792,202.52 C598.792,200.663991 598.541336,199.309338 598.04,198.456 C597.538664,197.602662 596.765339,197.176 595.72,197.176 Z M617,193.464 C618.472007,193.464 619.623996,193.911996 620.456,194.808 C621.288004,195.704004 621.704,196.962659 621.704,198.584 L621.704,211 L616.648,211 L616.648,199.448 C616.648,198.594662 616.514668,198.002668 616.248,197.672 C615.981332,197.341332 615.581336,197.176 615.048,197.176 C614.023995,197.176 613.042671,197.911993 612.104,199.384 L612.104,211 L607.048,211 L607.048,194.008 L611.464,194.008 L611.816,196.024 C612.56267,195.170662 613.357329,194.530669 614.2,194.104 C615.042671,193.677331 615.975995,193.464 617,193.464 Z M631.496,193.464 C632.712006,193.464 633.853328,193.645332 634.92,194.008 C635.986672,194.370668 636.925329,194.882663 637.736,195.544 L635.88,198.392 C634.493326,197.517329 633.096007,197.08 631.688,197.08 C631.026663,197.08 630.520002,197.191999 630.168,197.416 C629.815998,197.640001 629.64,197.954665 629.64,198.36 C629.64,198.680002 629.719999,198.941332 629.88,199.144 C630.040001,199.346668 630.365331,199.554666 630.856,199.768 C631.346669,199.981334 632.103995,200.237332 633.128,200.536 C634.898676,201.048003 636.215996,201.714663 637.08,202.536 C637.944004,203.357337 638.376,204.493326 638.376,205.944 C638.376,207.096006 638.045337,208.093329 637.384,208.936 C636.722663,209.778671 635.816006,210.423998 634.664,210.872 C633.511994,211.320002 632.232007,211.544 630.824,211.544 C629.39466,211.544 628.066673,211.320002 626.84,210.872 C625.613327,210.423998 624.573338,209.805337 623.72,209.016 L626.184,206.264 C627.61334,207.373339 629.117325,207.928 630.696,207.928 C631.464004,207.928 632.066664,207.789335 632.504,207.512 C632.941336,207.234665 633.16,206.840003 633.16,206.328 C633.16,205.922665 633.074668,205.602668 632.904,205.368 C632.733332,205.133332 632.402669,204.914668 631.912,204.712 C631.421331,204.509332 630.642672,204.258668 629.576,203.96 C627.890658,203.469331 626.632004,202.786671 625.8,201.912 C624.967996,201.037329 624.552,199.94934 624.552,198.648 C624.552,197.666662 624.834664,196.786671 625.4,196.008 C625.965336,195.229329 626.775995,194.610669 627.832,194.152 C628.888005,193.693331 630.109326,193.464 631.496,193.464 Z" id="Fewer-Debugging-Comp" fill="#000000" fill-rule="nonzero"></path>
        </g>
    </g>
</svg>