<?xml version="1.0" encoding="UTF-8"?>
<svg width="1089px" height="352px" viewBox="0 0 1089 352" version="1.1" xmlns="http://www.w3.org/2000/svg" xmlns:xlink="http://www.w3.org/1999/xlink">
    <!-- Generator: Sketch 49 (51002) - http://www.bohemiancoding.com/sketch -->
    <title>aopgraph</title>
    <desc>Created with Sketch.</desc>
    <defs></defs>
    <g id="Page-1" stroke="none" stroke-width="1" fill="none" fill-rule="evenodd">
        <g id="aopgraph" transform="translate(-3.000000, 0.000000)">
            <g id="Group_104" transform="translate(54.000000, 89.000000)">
                <circle id="Ellipse_28" fill="#FFFFFF" fill-rule="nonzero" cx="41" cy="41" r="18"></circle>
                <g id="Ellipse_29">
                    <circle id="Oval" cx="41" cy="41" r="41"></circle>
                    <circle id="Oval" stroke="#FFFFFF" stroke-width="8" cx="41" cy="41" r="37"></circle>
                </g>
            </g>
            <g id="Group_107" transform="translate(496.000000, 0.000000)">
                <circle id="Ellipse_28-2" fill="#FFFFFF" fill-rule="nonzero" cx="41" cy="41" r="18"></circle>
                <g id="Ellipse_29-2">
                    <circle id="Oval" cx="41" cy="41" r="41"></circle>
                    <circle id="Oval" stroke="#FFFFFF" stroke-width="8" cx="41" cy="41" r="37"></circle>
                </g>
            </g>
            <g id="white-circle-with-dot" transform="translate(949.000000, 131.000000)">
                <circle id="Ellipse_28-3" fill="#FFFFFF" fill-rule="nonzero" cx="41" cy="41" r="18"></circle>
                <g id="Ellipse_29-3">
                    <circle id="Oval" cx="41" cy="41" r="41"></circle>
                    <circle id="Oval" stroke="#FFFFFF" stroke-width="8" cx="41" cy="41" r="37"></circle>
                </g>
            </g>
            <g id="Application_Perfomance" transform="translate(0.000000, 167.000000)" fill="#FFFFFF">
                <path d="M64.568,19.568 L57.144,19.568 L57.144,25.456 L63.608,25.456 L63.608,29.2 L57.144,29.2 L57.144,38 L51.896,38 L51.896,15.824 L65.112,15.824 L64.568,19.568 Z M79.768,33.072 C79.768,33.7120032 79.8586658,34.1813318 80.04,34.48 C80.2213342,34.7786682 80.5146646,35.0026659 80.92,35.152 L79.864,38.448 C78.8186614,38.3626662 77.9706699,38.1386685 77.32,37.776 C76.6693301,37.4133315 76.1520019,36.8266707 75.768,36.016 C74.6586611,37.7013418 72.9520115,38.544 70.648,38.544 C68.9626582,38.544 67.6186717,38.0533382 66.616,37.072 C65.6133283,36.0906618 65.112,34.8106746 65.112,33.232 C65.112,31.3759907 65.7946598,29.9573382 67.16,28.976 C68.5253402,27.9946618 70.4986538,27.504 73.08,27.504 L74.808,27.504 L74.808,26.768 C74.808,25.7653283 74.5946688,25.0773352 74.168,24.704 C73.7413312,24.3306648 72.994672,24.144 71.928,24.144 C71.3733306,24.144 70.7013373,24.2239992 69.912,24.384 C69.1226627,24.5440008 68.3120042,24.7626653 67.48,25.04 L66.328,21.712 C67.394672,21.3066646 68.4879944,20.9973344 69.608,20.784 C70.7280056,20.5706656 71.7679952,20.464 72.728,20.464 C75.1600122,20.464 76.9413277,20.9653283 78.072,21.968 C79.2026723,22.9706717 79.768,24.4746566 79.768,26.48 L79.768,33.072 Z M72.12,34.928 C72.6746694,34.928 73.181331,34.7893347 73.64,34.512 C74.098669,34.2346653 74.4879984,33.8400026 74.808,33.328 L74.808,30.288 L73.56,30.288 C72.4079942,30.288 71.5493362,30.4906646 70.984,30.896 C70.4186638,31.3013354 70.136,31.9306624 70.136,32.784 C70.136,33.4666701 70.3119982,33.9946648 70.664,34.368 C71.0160018,34.7413352 71.5013302,34.928 72.12,34.928 Z M89.784,20.464 C91.0000061,20.464 92.141328,20.6453315 93.208,21.008 C94.274672,21.3706685 95.2133293,21.8826634 96.024,22.544 L94.168,25.392 C92.7813264,24.517329 91.384007,24.08 89.976,24.08 C89.3146634,24.08 88.8080018,24.1919989 88.456,24.416 C88.1039982,24.6400011 87.928,24.9546646 87.928,25.36 C87.928,25.6800016 88.0079992,25.9413323 88.168,26.144 C88.3280008,26.3466677 88.6533309,26.5546656 89.144,26.768 C89.6346691,26.9813344 90.3919949,27.2373318 91.416,27.536 C93.1866755,28.0480026 94.5039957,28.7146626 95.368,29.536 C96.2320043,30.3573374 96.664,31.4933261 96.664,32.944 C96.664,34.0960058 96.3333366,35.0933291 95.672,35.936 C95.0106634,36.7786709 94.1040058,37.4239978 92.952,37.872 C91.7999942,38.3200022 90.520007,38.544 89.112,38.544 C87.6826595,38.544 86.3546728,38.3200022 85.128,37.872 C83.9013272,37.4239978 82.8613376,36.8053373 82.008,36.016 L84.472,33.264 C85.9013405,34.3733389 87.4053254,34.928 88.984,34.928 C89.7520038,34.928 90.3546645,34.7893347 90.792,34.512 C91.2293355,34.2346653 91.448,33.8400026 91.448,33.328 C91.448,32.9226646 91.3626675,32.6026678 91.192,32.368 C91.0213325,32.1333322 90.6906691,31.9146677 90.2,31.712 C89.7093309,31.5093323 88.930672,31.2586682 87.864,30.96 C86.1786582,30.4693309 84.9200042,29.786671 84.088,28.912 C83.2559958,28.037329 82.84,26.9493398 82.84,25.648 C82.84,24.6666618 83.1226638,23.7866706 83.688,23.008 C84.2533362,22.2293294 85.0639947,21.610669 86.12,21.152 C87.1760053,20.693331 88.3973264,20.464 89.784,20.464 Z M109.912,37.2 C109.29333,37.6266688 108.573337,37.9573322 107.752,38.192 C106.930663,38.4266678 106.114671,38.544 105.304,38.544 C101.591981,38.5226666 99.736,36.474687 99.736,32.4 L99.736,24.528 L97.336,24.528 L97.336,21.008 L99.736,21.008 L99.736,17.328 L104.792,16.752 L104.792,21.008 L108.696,21.008 L108.152,24.528 L104.792,24.528 L104.792,32.336 C104.792,33.1253373 104.919999,33.690665 105.176,34.032 C105.432001,34.373335 105.837331,34.544 106.392,34.544 C106.989336,34.544 107.59733,34.3520019 108.216,33.968 L109.912,37.2 Z M126.104,29.168 C126.104,29.8720035 126.072,30.4799974 126.008,30.992 L115.512,30.992 C115.661334,32.4213405 116.055997,33.4239971 116.696,34 C117.336003,34.5760029 118.221328,34.864 119.352,34.864 C120.03467,34.864 120.695997,34.7413346 121.336,34.496 C121.976003,34.2506654 122.66933,33.8720026 123.416,33.36 L125.496,36.176 C123.51199,37.7546746 121.304012,38.544 118.872,38.544 C116.119986,38.544 114.008007,37.7333414 112.536,36.112 C111.063993,34.4906586 110.328,32.3146803 110.328,29.584 C110.328,27.8559914 110.63733,26.3040069 111.256,24.928 C111.87467,23.5519931 112.781327,22.464004 113.976,21.664 C115.170673,20.863996 116.599992,20.464 118.264,20.464 C120.717346,20.464 122.637326,21.2319923 124.024,22.768 C125.410674,24.3040077 126.104,26.4373197 126.104,29.168 Z M121.144,27.728 C121.101333,25.1253203 120.184009,23.824 118.392,23.824 C117.517329,23.824 116.845336,24.1386635 116.376,24.768 C115.906664,25.3973365 115.608001,26.4586592 115.48,27.952 L121.144,27.952 L121.144,27.728 Z M138.232,20.528 C138.85067,20.528 139.415997,20.6026659 139.928,20.752 L139.128,25.648 C138.487997,25.4986659 137.976002,25.424 137.592,25.424 C136.610662,25.424 135.853336,25.7653299 135.32,26.448 C134.786664,27.1306701 134.370668,28.1546598 134.072,29.52 L134.072,38 L129.016,38 L129.016,21.008 L133.432,21.008 L133.848,24.272 C134.232002,23.0986608 134.813329,22.1813366 135.592,21.52 C136.370671,20.8586634 137.250662,20.528 138.232,20.528 Z M23.976,79.232 L17.48,79.232 L16.36,84 L10.92,84 L17.608,61.824 L23.976,61.824 L30.664,84 L25.096,84 L23.976,79.232 Z M23.048,75.424 L20.712,65.632 L18.376,75.424 L23.048,75.424 Z M41.704,66.464 C43.8800109,66.464 45.4959947,67.2479922 46.552,68.816 C47.6080053,70.3840078 48.136,72.597319 48.136,75.456 C48.136,77.2053421 47.8640027,78.7679931 47.32,80.144 C46.7759973,81.5200069 45.9920051,82.5973294 44.968,83.376 C43.9439949,84.1546706 42.7493402,84.544 41.384,84.544 C39.6773248,84.544 38.3013386,83.9466726 37.256,82.752 L37.256,90.56 L32.2,91.104 L32.2,67.008 L36.648,67.008 L36.904,68.896 C37.5653366,68.0639958 38.3173291,67.4506686 39.16,67.056 C40.0026709,66.6613314 40.8506624,66.464 41.704,66.464 Z M39.848,80.832 C41.8746768,80.832 42.888,79.061351 42.888,75.52 C42.888,73.5146566 42.658669,72.1226706 42.2,71.344 C41.741331,70.5653294 41.0426714,70.176 40.104,70.176 C39.570664,70.176 39.0533358,70.3519982 38.552,70.704 C38.0506642,71.0560018 37.6186685,71.5413302 37.256,72.16 L37.256,79.328 C37.9386701,80.3306717 38.8026614,80.832 39.848,80.832 Z M60.808,66.464 C62.9840109,66.464 64.5999947,67.2479922 65.656,68.816 C66.7120053,70.3840078 67.24,72.597319 67.24,75.456 C67.24,77.2053421 66.9680027,78.7679931 66.424,80.144 C65.8799973,81.5200069 65.0960051,82.5973294 64.072,83.376 C63.0479949,84.1546706 61.8533402,84.544 60.488,84.544 C58.7813248,84.544 57.4053386,83.9466726 56.36,82.752 L56.36,90.56 L51.304,91.104 L51.304,67.008 L55.752,67.008 L56.008,68.896 C56.6693366,68.0639958 57.4213291,67.4506686 58.264,67.056 C59.1066709,66.6613314 59.9546624,66.464 60.808,66.464 Z M58.952,80.832 C60.9786768,80.832 61.992,79.061351 61.992,75.52 C61.992,73.5146566 61.762669,72.1226706 61.304,71.344 C60.845331,70.5653294 60.1466714,70.176 59.208,70.176 C58.674664,70.176 58.1573358,70.3519982 57.656,70.704 C57.1546642,71.0560018 56.7226685,71.5413302 56.36,72.16 L56.36,79.328 C57.0426701,80.3306717 57.9066614,80.832 58.952,80.832 Z M74.92,84.544 C73.4479926,84.544 72.3013374,84.1226709 71.48,83.28 C70.6586626,82.4373291 70.248,81.2373411 70.248,79.68 L70.248,60.256 L75.304,59.712 L75.304,79.488 C75.304,80.1920035 75.5919971,80.544 76.168,80.544 C76.4666682,80.544 76.7439987,80.4906672 77,80.384 L77.992,83.968 C77.0746621,84.3520019 76.0506723,84.544 74.92,84.544 Z M84.968,84 L79.912,84 L79.912,67.008 L84.968,67.008 L84.968,84 Z M82.408,58.048 C83.282671,58.048 84.0026638,58.3199973 84.568,58.864 C85.1333362,59.4080027 85.416,60.0959958 85.416,60.928 C85.416,61.7600042 85.1333362,62.4479973 84.568,62.992 C84.0026638,63.5360027 83.282671,63.808 82.408,63.808 C81.533329,63.808 80.8186694,63.5360027 80.264,62.992 C79.7093306,62.4479973 79.432,61.7600042 79.432,60.928 C79.432,60.0959958 79.7093306,59.4080027 80.264,58.864 C80.8186694,58.3199973 81.533329,58.048 82.408,58.048 Z M96.296,66.464 C97.4693392,66.464 98.5253286,66.634665 99.464,66.976 C100.402671,67.317335 101.287996,67.8399965 102.12,68.544 L99.944,71.552 C98.877328,70.7413293 97.8000054,70.336 96.712,70.336 C95.5813277,70.336 94.7280029,70.7519958 94.152,71.584 C93.5759971,72.4160042 93.288,73.7599907 93.288,75.616 C93.288,77.408009 93.5759971,78.6773296 94.152,79.424 C94.7280029,80.1706704 95.5599946,80.544 96.648,80.544 C97.2240029,80.544 97.7466643,80.4533342 98.216,80.272 C98.6853357,80.0906658 99.2506634,79.7973354 99.912,79.392 L102.12,82.528 C100.434658,83.8720067 98.525344,84.544 96.392,84.544 C94.6639914,84.544 93.170673,84.1760037 91.912,83.44 C90.653327,82.7039963 89.6826701,81.66934 89,80.336 C88.3173299,79.00266 87.976,77.440009 87.976,75.648 C87.976,73.855991 88.3173299,72.2666736 89,70.88 C89.6826701,69.4933264 90.653327,68.4106706 91.912,67.632 C93.170673,66.8533294 94.6319917,66.464 96.296,66.464 Z M117.768,79.072 C117.768,79.7120032 117.858666,80.1813318 118.04,80.48 C118.221334,80.7786682 118.514665,81.0026659 118.92,81.152 L117.864,84.448 C116.818661,84.3626662 115.97067,84.1386685 115.32,83.776 C114.66933,83.4133315 114.152002,82.8266707 113.768,82.016 C112.658661,83.7013418 110.952012,84.544 108.648,84.544 C106.962658,84.544 105.618672,84.0533382 104.616,83.072 C103.613328,82.0906618 103.112,80.8106746 103.112,79.232 C103.112,77.3759907 103.79466,75.9573382 105.16,74.976 C106.52534,73.9946618 108.498654,73.504 111.08,73.504 L112.808,73.504 L112.808,72.768 C112.808,71.7653283 112.594669,71.0773352 112.168,70.704 C111.741331,70.3306648 110.994672,70.144 109.928,70.144 C109.373331,70.144 108.701337,70.2239992 107.912,70.384 C107.122663,70.5440008 106.312004,70.7626653 105.48,71.04 L104.328,67.712 C105.394672,67.3066646 106.487994,66.9973344 107.608,66.784 C108.728006,66.5706656 109.767995,66.464 110.728,66.464 C113.160012,66.464 114.941328,66.9653283 116.072,67.968 C117.202672,68.9706717 117.768,70.4746566 117.768,72.48 L117.768,79.072 Z M110.12,80.928 C110.674669,80.928 111.181331,80.7893347 111.64,80.512 C112.098669,80.2346653 112.487998,79.8400026 112.808,79.328 L112.808,76.288 L111.56,76.288 C110.407994,76.288 109.549336,76.4906646 108.984,76.896 C108.418664,77.3013354 108.136,77.9306624 108.136,78.784 C108.136,79.4666701 108.311998,79.9946648 108.664,80.368 C109.016002,80.7413352 109.50133,80.928 110.12,80.928 Z M132.456,83.2 C131.83733,83.6266688 131.117337,83.9573322 130.296,84.192 C129.474663,84.4266678 128.658671,84.544 127.848,84.544 C124.135981,84.5226666 122.28,82.474687 122.28,78.4 L122.28,70.528 L119.88,70.528 L119.88,67.008 L122.28,67.008 L122.28,63.328 L127.336,62.752 L127.336,67.008 L131.24,67.008 L130.696,70.528 L127.336,70.528 L127.336,78.336 C127.336,79.1253373 127.463999,79.690665 127.72,80.032 C127.976001,80.373335 128.381331,80.544 128.936,80.544 C129.533336,80.544 130.14133,80.3520019 130.76,79.968 L132.456,83.2 Z M139.208,84 L134.152,84 L134.152,67.008 L139.208,67.008 L139.208,84 Z M136.648,58.048 C137.522671,58.048 138.242664,58.3199973 138.808,58.864 C139.373336,59.4080027 139.656,60.0959958 139.656,60.928 C139.656,61.7600042 139.373336,62.4479973 138.808,62.992 C138.242664,63.5360027 137.522671,63.808 136.648,63.808 C135.773329,63.808 135.058669,63.5360027 134.504,62.992 C133.949331,62.4479973 133.672,61.7600042 133.672,60.928 C133.672,60.0959958 133.949331,59.4080027 134.504,58.864 C135.058669,58.3199973 135.773329,58.048 136.648,58.048 Z M150.536,66.464 C153.13868,66.464 155.175993,67.2586587 156.648,68.848 C158.120007,70.4373413 158.856,72.661319 158.856,75.52 C158.856,77.3333424 158.520003,78.9173266 157.848,80.272 C157.175997,81.6266734 156.216006,82.6773296 154.968,83.424 C153.719994,84.1706704 152.242675,84.544 150.536,84.544 C147.954654,84.544 145.922674,83.7493413 144.44,82.16 C142.957326,80.5706587 142.216,78.346681 142.216,75.488 C142.216,73.6746576 142.551997,72.0906734 143.224,70.736 C143.896003,69.3813266 144.855994,68.3306704 146.104,67.584 C147.352006,66.8373296 148.829325,66.464 150.536,66.464 Z M150.536,70.176 C149.511995,70.176 148.744003,70.6079957 148.232,71.472 C147.719997,72.3360043 147.464,73.6746576 147.464,75.488 C147.464,77.3440093 147.714664,78.6986624 148.216,79.552 C148.717336,80.4053376 149.490661,80.832 150.536,80.832 C151.560005,80.832 152.327997,80.4000043 152.84,79.536 C153.352003,78.6719957 153.608,77.3333424 153.608,75.52 C153.608,73.6639907 153.357336,72.3093376 152.856,71.456 C152.354664,70.6026624 151.581339,70.176 150.536,70.176 Z M171.816,66.464 C173.288007,66.464 174.439996,66.9119955 175.272,67.808 C176.104004,68.7040045 176.52,69.9626586 176.52,71.584 L176.52,84 L171.464,84 L171.464,72.448 C171.464,71.5946624 171.330668,71.0026683 171.064,70.672 C170.797332,70.3413317 170.397336,70.176 169.864,70.176 C168.839995,70.176 167.858671,70.9119926 166.92,72.384 L166.92,84 L161.864,84 L161.864,67.008 L166.28,67.008 L166.632,69.024 C167.37867,68.1706624 168.173329,67.5306688 169.016,67.104 C169.858671,66.6773312 170.791995,66.464 171.816,66.464 Z M10.344,107.824 C13.2666813,107.824 15.5386586,108.431994 17.16,109.648 C18.7813414,110.864006 19.592,112.666655 19.592,115.056 C19.592,117.552012 18.7973413,119.43466 17.208,120.704 C15.6186587,121.97334 13.49068,122.608 10.824,122.608 L8.424,122.608 L8.424,130 L3.176,130 L3.176,107.824 L10.344,107.824 Z M10.376,118.832 C11.6133395,118.832 12.5573301,118.53867 13.208,117.952 C13.8586699,117.36533 14.184,116.400007 14.184,115.056 C14.184,112.730655 12.8826797,111.568 10.28,111.568 L8.424,111.568 L8.424,118.832 L10.376,118.832 Z M36.456,121.168 C36.456,121.872004 36.4240003,122.479997 36.36,122.992 L25.864,122.992 C26.0133341,124.42134 26.4079968,125.423997 27.048,126 C27.6880032,126.576003 28.5733277,126.864 29.704,126.864 C30.3866701,126.864 31.0479968,126.741335 31.688,126.496 C32.3280032,126.250665 33.0213296,125.872003 33.768,125.36 L35.848,128.176 C33.8639901,129.754675 31.6560122,130.544 29.224,130.544 C26.4719862,130.544 24.3600074,129.733341 22.888,128.112 C21.4159926,126.490659 20.68,124.31468 20.68,121.584 C20.68,119.855991 20.9893302,118.304007 21.608,116.928 C22.2266698,115.551993 23.1333274,114.464004 24.328,113.664 C25.5226726,112.863996 26.9519917,112.464 28.616,112.464 C31.0693456,112.464 32.9893264,113.231992 34.376,114.768 C35.7626736,116.304008 36.456,118.43732 36.456,121.168 Z M31.496,119.728 C31.4533331,117.12532 30.536009,115.824 28.744,115.824 C27.869329,115.824 27.1973357,116.138664 26.728,116.768 C26.2586643,117.397336 25.9600006,118.458659 25.832,119.952 L31.496,119.952 L31.496,119.728 Z M48.584,112.528 C49.2026698,112.528 49.7679974,112.602666 50.28,112.752 L49.48,117.648 C48.8399968,117.498666 48.3280019,117.424 47.944,117.424 C46.9626618,117.424 46.205336,117.76533 45.672,118.448 C45.138664,119.13067 44.7226682,120.15466 44.424,121.52 L44.424,130 L39.368,130 L39.368,113.008 L43.784,113.008 L44.2,116.272 C44.5840019,115.098661 45.1653294,114.181337 45.944,113.52 C46.7226706,112.858663 47.6026618,112.528 48.584,112.528 Z M59.976,109.456 C59.250663,109.456 58.7280016,109.626665 58.408,109.968 C58.0879984,110.309335 57.928,110.885329 57.928,111.696 L57.928,113.008 L61.928,113.008 L61.384,116.528 L57.928,116.528 L57.928,130 L52.872,130 L52.872,116.528 L50.312,116.528 L50.312,113.008 L52.872,113.008 L52.872,111.504 C52.872,109.797325 53.4319944,108.405339 54.552,107.328 C55.6720056,106.250661 57.2773229,105.712 59.368,105.712 C61.0533418,105.712 62.599993,106.074663 64.008,106.8 L62.632,110.096 C61.7786624,109.669331 60.8933379,109.456 59.976,109.456 Z M70.632,112.464 C73.2346797,112.464 75.2719926,113.258659 76.744,114.848 C78.2160074,116.437341 78.952,118.661319 78.952,121.52 C78.952,123.333342 78.6160034,124.917327 77.944,126.272 C77.2719966,127.626673 76.3120062,128.67733 75.064,129.424 C73.8159938,130.17067 72.3386752,130.544 70.632,130.544 C68.0506538,130.544 66.0186741,129.749341 64.536,128.16 C63.0533259,126.570659 62.312,124.346681 62.312,121.488 C62.312,119.674658 62.6479966,118.090673 63.32,116.736 C63.9920034,115.381327 64.9519938,114.33067 66.2,113.584 C67.4480062,112.83733 68.9253248,112.464 70.632,112.464 Z M70.632,116.176 C69.6079949,116.176 68.8400026,116.607996 68.328,117.472 C67.8159974,118.336004 67.56,119.674658 67.56,121.488 C67.56,123.344009 67.8106642,124.698662 68.312,125.552 C68.8133358,126.405338 69.5866614,126.832 70.632,126.832 C71.6560051,126.832 72.4239974,126.400004 72.936,125.536 C73.4480026,124.671996 73.704,123.333342 73.704,121.52 C73.704,119.663991 73.4533358,118.309338 72.952,117.456 C72.4506642,116.602662 71.6773386,116.176 70.632,116.176 Z M91.176,112.528 C91.7946698,112.528 92.3599974,112.602666 92.872,112.752 L92.072,117.648 C91.4319968,117.498666 90.9200019,117.424 90.536,117.424 C89.5546618,117.424 88.797336,117.76533 88.264,118.448 C87.730664,119.13067 87.3146682,120.15466 87.016,121.52 L87.016,130 L81.96,130 L81.96,113.008 L86.376,113.008 L86.792,116.272 C87.1760019,115.098661 87.7573294,114.181337 88.536,113.52 C89.3146706,112.858663 90.1946618,112.528 91.176,112.528 Z M113.576,112.464 C114.920007,112.464 115.997329,112.917329 116.808,113.824 C117.618671,114.730671 118.024,115.983992 118.024,117.584 L118.024,130 L112.968,130 L112.968,118.448 C112.968,116.933326 112.488005,116.176 111.528,116.176 C110.994664,116.176 110.525335,116.357332 110.12,116.72 C109.714665,117.082668 109.320002,117.63733 108.936,118.384 L108.936,130 L103.88,130 L103.88,118.448 C103.88,116.933326 103.400005,116.176 102.44,116.176 C101.927997,116.176 101.464002,116.362665 101.048,116.736 C100.631998,117.109335 100.232002,117.658663 99.848,118.384 L99.848,130 L94.792,130 L94.792,113.008 L99.208,113.008 L99.56,114.992 C100.221337,114.138662 100.951996,113.504002 101.752,113.088 C102.552004,112.671998 103.463995,112.464 104.488,112.464 C105.426671,112.464 106.242663,112.698664 106.936,113.168 C107.629337,113.637336 108.146665,114.298662 108.488,115.152 C109.17067,114.255996 109.922663,113.584002 110.744,113.136 C111.565337,112.687998 112.509328,112.464 113.576,112.464 Z M135.336,125.072 C135.336,125.712003 135.426666,126.181332 135.608,126.48 C135.789334,126.778668 136.082665,127.002666 136.488,127.152 L135.432,130.448 C134.386661,130.362666 133.53867,130.138668 132.888,129.776 C132.23733,129.413332 131.720002,128.826671 131.336,128.016 C130.226661,129.701342 128.520012,130.544 126.216,130.544 C124.530658,130.544 123.186672,130.053338 122.184,129.072 C121.181328,128.090662 120.68,126.810675 120.68,125.232 C120.68,123.375991 121.36266,121.957338 122.728,120.976 C124.09334,119.994662 126.066654,119.504 128.648,119.504 L130.376,119.504 L130.376,118.768 C130.376,117.765328 130.162669,117.077335 129.736,116.704 C129.309331,116.330665 128.562672,116.144 127.496,116.144 C126.941331,116.144 126.269337,116.223999 125.48,116.384 C124.690663,116.544001 123.880004,116.762665 123.048,117.04 L121.896,113.712 C122.962672,113.306665 124.055994,112.997334 125.176,112.784 C126.296006,112.570666 127.335995,112.464 128.296,112.464 C130.728012,112.464 132.509328,112.965328 133.64,113.968 C134.770672,114.970672 135.336,116.474657 135.336,118.48 L135.336,125.072 Z M127.688,126.928 C128.242669,126.928 128.749331,126.789335 129.208,126.512 C129.666669,126.234665 130.055998,125.840003 130.376,125.328 L130.376,122.288 L129.128,122.288 C127.975994,122.288 127.117336,122.490665 126.552,122.896 C125.986664,123.301335 125.704,123.930662 125.704,124.784 C125.704,125.46667 125.879998,125.994665 126.232,126.368 C126.584002,126.741335 127.06933,126.928 127.688,126.928 Z M149.32,112.464 C150.792007,112.464 151.943996,112.911996 152.776,113.808 C153.608004,114.704004 154.024,115.962659 154.024,117.584 L154.024,130 L148.968,130 L148.968,118.448 C148.968,117.594662 148.834668,117.002668 148.568,116.672 C148.301332,116.341332 147.901336,116.176 147.368,116.176 C146.343995,116.176 145.362671,116.911993 144.424,118.384 L144.424,130 L139.368,130 L139.368,113.008 L143.784,113.008 L144.136,115.024 C144.88267,114.170662 145.677329,113.530669 146.52,113.104 C147.362671,112.677331 148.295995,112.464 149.32,112.464 Z M165.192,112.464 C166.365339,112.464 167.421329,112.634665 168.36,112.976 C169.298671,113.317335 170.183996,113.839996 171.016,114.544 L168.84,117.552 C167.773328,116.741329 166.696005,116.336 165.608,116.336 C164.477328,116.336 163.624003,116.751996 163.048,117.584 C162.471997,118.416004 162.184,119.759991 162.184,121.616 C162.184,123.408009 162.471997,124.67733 163.048,125.424 C163.624003,126.17067 164.455995,126.544 165.544,126.544 C166.120003,126.544 166.642664,126.453334 167.112,126.272 C167.581336,126.090666 168.146663,125.797335 168.808,125.392 L171.016,128.528 C169.330658,129.872007 167.421344,130.544 165.288,130.544 C163.559991,130.544 162.066673,130.176004 160.808,129.44 C159.549327,128.703996 158.57867,127.66934 157.896,126.336 C157.21333,125.00266 156.872,123.440009 156.872,121.648 C156.872,119.855991 157.21333,118.266674 157.896,116.88 C158.57867,115.493326 159.549327,114.410671 160.808,113.632 C162.066673,112.853329 163.527992,112.464 165.192,112.464 Z M187.656,121.168 C187.656,121.872004 187.624,122.479997 187.56,122.992 L177.064,122.992 C177.213334,124.42134 177.607997,125.423997 178.248,126 C178.888003,126.576003 179.773328,126.864 180.904,126.864 C181.58667,126.864 182.247997,126.741335 182.888,126.496 C183.528003,126.250665 184.22133,125.872003 184.968,125.36 L187.048,128.176 C185.06399,129.754675 182.856012,130.544 180.424,130.544 C177.671986,130.544 175.560007,129.733341 174.088,128.112 C172.615993,126.490659 171.88,124.31468 171.88,121.584 C171.88,119.855991 172.18933,118.304007 172.808,116.928 C173.42667,115.551993 174.333327,114.464004 175.528,113.664 C176.722673,112.863996 178.151992,112.464 179.816,112.464 C182.269346,112.464 184.189326,113.231992 185.576,114.768 C186.962674,116.304008 187.656,118.43732 187.656,121.168 Z M182.696,119.728 C182.653333,117.12532 181.736009,115.824 179.944,115.824 C179.069329,115.824 178.397336,116.138664 177.928,116.768 C177.458664,117.397336 177.160001,118.458659 177.032,119.952 L182.696,119.952 L182.696,119.728 Z" id="Faster-Application-P"></path>
            </g>
            <g id="Application_Perfomance" transform="translate(899.000000, 214.000000)" fill="#FFFFFF">
                <path d="M51.112,19.568 L43.304,19.568 L43.304,24.88 L50.12,24.88 L50.12,28.56 L43.304,28.56 L43.304,34.224 L51.656,34.224 L51.656,38 L38.056,38 L38.056,15.824 L51.656,15.824 L51.112,19.568 Z M62.568,17.456 C61.842663,17.456 61.3200016,17.626665 61,17.968 C60.6799984,18.309335 60.52,18.8853293 60.52,19.696 L60.52,21.008 L64.52,21.008 L63.976,24.528 L60.52,24.528 L60.52,38 L55.464,38 L55.464,24.528 L52.904,24.528 L52.904,21.008 L55.464,21.008 L55.464,19.504 C55.464,17.7973248 56.0239944,16.4053387 57.144,15.328 C58.2640056,14.2506613 59.8693229,13.712 61.96,13.712 C63.6453418,13.712 65.191993,14.074663 66.6,14.8 L65.224,18.096 C64.3706624,17.6693312 63.4853379,17.456 62.568,17.456 Z M73.96,17.456 C73.234663,17.456 72.7120016,17.626665 72.392,17.968 C72.0719984,18.309335 71.912,18.8853293 71.912,19.696 L71.912,21.008 L75.912,21.008 L75.368,24.528 L71.912,24.528 L71.912,38 L66.856,38 L66.856,24.528 L64.296,24.528 L64.296,21.008 L66.856,21.008 L66.856,19.504 C66.856,17.7973248 67.4159944,16.4053387 68.536,15.328 C69.6560056,14.2506613 71.2613229,13.712 73.352,13.712 C75.0373418,13.712 76.583993,14.074663 77.992,14.8 L76.616,18.096 C75.7626624,17.6693312 74.8773379,17.456 73.96,17.456 Z M83.144,38 L78.088,38 L78.088,21.008 L83.144,21.008 L83.144,38 Z M80.584,12.048 C81.458671,12.048 82.1786638,12.3199973 82.744,12.864 C83.3093362,13.4080027 83.592,14.0959958 83.592,14.928 C83.592,15.7600042 83.3093362,16.4479973 82.744,16.992 C82.1786638,17.5360027 81.458671,17.808 80.584,17.808 C79.709329,17.808 78.9946694,17.5360027 78.44,16.992 C77.8853306,16.4479973 77.608,15.7600042 77.608,14.928 C77.608,14.0959958 77.8853306,13.4080027 78.44,12.864 C78.9946694,12.3199973 79.709329,12.048 80.584,12.048 Z M94.472,20.464 C95.6453392,20.464 96.7013286,20.634665 97.64,20.976 C98.5786714,21.317335 99.4639958,21.8399965 100.296,22.544 L98.12,25.552 C97.053328,24.7413293 95.9760054,24.336 94.888,24.336 C93.7573277,24.336 92.9040029,24.7519958 92.328,25.584 C91.7519971,26.4160042 91.464,27.7599907 91.464,29.616 C91.464,31.408009 91.7519971,32.6773296 92.328,33.424 C92.9040029,34.1706704 93.7359946,34.544 94.824,34.544 C95.4000029,34.544 95.9226643,34.4533342 96.392,34.272 C96.8613357,34.0906658 97.4266634,33.7973354 98.088,33.392 L100.296,36.528 C98.6106582,37.8720067 96.701344,38.544 94.568,38.544 C92.8399914,38.544 91.346673,38.1760037 90.088,37.44 C88.829327,36.7039963 87.8586701,35.66934 87.176,34.336 C86.4933299,33.00266 86.152,31.440009 86.152,29.648 C86.152,27.855991 86.4933299,26.2666736 87.176,24.88 C87.8586701,23.4933264 88.829327,22.4106706 90.088,21.632 C91.346673,20.8533294 92.8079917,20.464 94.472,20.464 Z M107.496,38 L102.44,38 L102.44,21.008 L107.496,21.008 L107.496,38 Z M104.936,12.048 C105.810671,12.048 106.530664,12.3199973 107.096,12.864 C107.661336,13.4080027 107.944,14.0959958 107.944,14.928 C107.944,15.7600042 107.661336,16.4479973 107.096,16.992 C106.530664,17.5360027 105.810671,17.808 104.936,17.808 C104.061329,17.808 103.346669,17.5360027 102.792,16.992 C102.237331,16.4479973 101.96,15.7600042 101.96,14.928 C101.96,14.0959958 102.237331,13.4080027 102.792,12.864 C103.346669,12.3199973 104.061329,12.048 104.936,12.048 Z M126.28,29.168 C126.28,29.8720035 126.248,30.4799974 126.184,30.992 L115.688,30.992 C115.837334,32.4213405 116.231997,33.4239971 116.872,34 C117.512003,34.5760029 118.397328,34.864 119.528,34.864 C120.21067,34.864 120.871997,34.7413346 121.512,34.496 C122.152003,34.2506654 122.84533,33.8720026 123.592,33.36 L125.672,36.176 C123.68799,37.7546746 121.480012,38.544 119.048,38.544 C116.295986,38.544 114.184007,37.7333414 112.712,36.112 C111.239993,34.4906586 110.504,32.3146803 110.504,29.584 C110.504,27.8559914 110.81333,26.3040069 111.432,24.928 C112.05067,23.5519931 112.957327,22.464004 114.152,21.664 C115.346673,20.863996 116.775992,20.464 118.44,20.464 C120.893346,20.464 122.813326,21.2319923 124.2,22.768 C125.586674,24.3040077 126.28,26.4373197 126.28,29.168 Z M121.32,27.728 C121.277333,25.1253203 120.360009,23.824 118.568,23.824 C117.693329,23.824 117.021336,24.1386635 116.552,24.768 C116.082664,25.3973365 115.784001,26.4586592 115.656,27.952 L121.32,27.952 L121.32,27.728 Z M139.144,20.464 C140.616007,20.464 141.767996,20.9119955 142.6,21.808 C143.432004,22.7040045 143.848,23.9626586 143.848,25.584 L143.848,38 L138.792,38 L138.792,26.448 C138.792,25.5946624 138.658668,25.0026683 138.392,24.672 C138.125332,24.3413317 137.725336,24.176 137.192,24.176 C136.167995,24.176 135.186671,24.9119926 134.248,26.384 L134.248,38 L129.192,38 L129.192,21.008 L133.608,21.008 L133.96,23.024 C134.70667,22.1706624 135.501329,21.5306688 136.344,21.104 C137.186671,20.6773312 138.119995,20.464 139.144,20.464 Z M158.312,37.2 C157.69333,37.6266688 156.973337,37.9573322 156.152,38.192 C155.330663,38.4266678 154.514671,38.544 153.704,38.544 C149.991981,38.5226666 148.136,36.474687 148.136,32.4 L148.136,24.528 L145.736,24.528 L145.736,21.008 L148.136,21.008 L148.136,17.328 L153.192,16.752 L153.192,21.008 L157.096,21.008 L156.552,24.528 L153.192,24.528 L153.192,32.336 C153.192,33.1253373 153.319999,33.690665 153.576,34.032 C153.832001,34.373335 154.237331,34.544 154.792,34.544 C155.389336,34.544 155.99733,34.3520019 156.616,33.968 L158.312,37.2 Z M61.688,84 L56.536,84 L56.152,75.328 C56.0453328,73.2586563 55.992,71.4133414 55.992,69.792 C55.992,68.5546605 56.0239997,67.3813389 56.088,66.272 L52.664,81.664 L47.704,81.664 L44.056,66.272 C44.1840006,68.1280093 44.248,69.8773251 44.248,71.52 C44.248,72.7573395 44.2160003,74.0479933 44.152,75.392 L43.768,84 L38.648,84 L40.312,61.824 L46.936,61.824 L50.264,76.864 L53.368,61.824 L60.024,61.824 L61.688,84 Z M79.608,75.168 C79.608,75.8720035 79.5760003,76.4799974 79.512,76.992 L69.016,76.992 C69.1653341,78.4213405 69.5599968,79.4239971 70.2,80 C70.8400032,80.5760029 71.7253277,80.864 72.856,80.864 C73.5386701,80.864 74.1999968,80.7413346 74.84,80.496 C75.4800032,80.2506654 76.1733296,79.8720026 76.92,79.36 L79,82.176 C77.0159901,83.7546746 74.8080122,84.544 72.376,84.544 C69.6239862,84.544 67.5120074,83.7333414 66.04,82.112 C64.5679926,80.4906586 63.832,78.3146803 63.832,75.584 C63.832,73.8559914 64.1413302,72.3040069 64.76,70.928 C65.3786698,69.5519931 66.2853274,68.464004 67.48,67.664 C68.6746726,66.863996 70.1039917,66.464 71.768,66.464 C74.2213456,66.464 76.1413264,67.2319923 77.528,68.768 C78.9146736,70.3040077 79.608,72.4373197 79.608,75.168 Z M74.648,73.728 C74.6053331,71.1253203 73.688009,69.824 71.896,69.824 C71.021329,69.824 70.3493357,70.1386635 69.88,70.768 C69.4106643,71.3973365 69.1120006,72.4586592 68.984,73.952 L74.648,73.952 L74.648,73.728 Z M101.304,66.464 C102.648007,66.464 103.725329,66.9173288 104.536,67.824 C105.346671,68.7306712 105.752,69.983992 105.752,71.584 L105.752,84 L100.696,84 L100.696,72.448 C100.696,70.9333258 100.216005,70.176 99.256,70.176 C98.722664,70.176 98.2533354,70.3573315 97.848,70.72 C97.4426646,71.0826685 97.0480019,71.6373296 96.664,72.384 L96.664,84 L91.608,84 L91.608,72.448 C91.608,70.9333258 91.1280048,70.176 90.168,70.176 C89.6559974,70.176 89.1920021,70.3626648 88.776,70.736 C88.3599979,71.1093352 87.9600019,71.658663 87.576,72.384 L87.576,84 L82.52,84 L82.52,67.008 L86.936,67.008 L87.288,68.992 C87.9493366,68.1386624 88.679996,67.5040021 89.48,67.088 C90.280004,66.6719979 91.1919949,66.464 92.216,66.464 C93.1546714,66.464 93.9706632,66.6986643 94.664,67.168 C95.3573368,67.6373357 95.874665,68.2986624 96.216,69.152 C96.8986701,68.2559955 97.6506626,67.5840022 98.472,67.136 C99.2933374,66.6879978 100.237328,66.464 101.304,66.464 Z M116.92,66.464 C119.52268,66.464 121.559993,67.2586587 123.032,68.848 C124.504007,70.4373413 125.24,72.661319 125.24,75.52 C125.24,77.3333424 124.904003,78.9173266 124.232,80.272 C123.559997,81.6266734 122.600006,82.6773296 121.352,83.424 C120.103994,84.1706704 118.626675,84.544 116.92,84.544 C114.338654,84.544 112.306674,83.7493413 110.824,82.16 C109.341326,80.5706587 108.6,78.346681 108.6,75.488 C108.6,73.6746576 108.935997,72.0906734 109.608,70.736 C110.280003,69.3813266 111.239994,68.3306704 112.488,67.584 C113.736006,66.8373296 115.213325,66.464 116.92,66.464 Z M116.92,70.176 C115.895995,70.176 115.128003,70.6079957 114.616,71.472 C114.103997,72.3360043 113.848,73.6746576 113.848,75.488 C113.848,77.3440093 114.098664,78.6986624 114.6,79.552 C115.101336,80.4053376 115.874661,80.832 116.92,80.832 C117.944005,80.832 118.711997,80.4000043 119.224,79.536 C119.736003,78.6719957 119.992,77.3333424 119.992,75.52 C119.992,73.6639907 119.741336,72.3093376 119.24,71.456 C118.738664,70.6026624 117.965339,70.176 116.92,70.176 Z M137.464,66.528 C138.08267,66.528 138.647997,66.6026659 139.16,66.752 L138.36,71.648 C137.719997,71.4986659 137.208002,71.424 136.824,71.424 C135.842662,71.424 135.085336,71.7653299 134.552,72.448 C134.018664,73.1306701 133.602668,74.1546598 133.304,75.52 L133.304,84 L128.248,84 L128.248,67.008 L132.664,67.008 L133.08,70.272 C133.464002,69.0986608 134.045329,68.1813366 134.824,67.52 C135.602671,66.8586634 136.482662,66.528 137.464,66.528 Z M151.192,84.032 C150.50933,86.2293443 149.394674,87.9199941 147.848,89.104 C146.301326,90.2880059 144.22668,90.9546659 141.624,91.104 L141.08,87.552 C142.701341,87.3386656 143.901329,86.9760026 144.68,86.464 C145.458671,85.9519974 146.082664,85.1306723 146.552,84 L144.824,84 L139.64,67.008 L145.016,67.008 L148.056,80.768 L151.384,67.008 L156.6,67.008 L151.192,84.032 Z M11.208,107.28 C12.6586739,107.28 13.9226613,107.482665 15,107.888 C16.0773387,108.293335 17.0959952,108.901329 18.056,109.712 L15.496,112.752 C14.2586605,111.685328 12.936007,111.152 11.528,111.152 C10.0559926,111.152 8.88800432,111.78666 8.024,113.056 C7.15999568,114.32534 6.728,116.26132 6.728,118.864 C6.728,121.445346 7.15999568,123.359994 8.024,124.608 C8.88800432,125.856006 10.0879923,126.48 11.624,126.48 C12.4133373,126.48 13.1333301,126.320002 13.784,126 C14.4346699,125.679998 15.1546627,125.221336 15.944,124.624 L18.312,127.696 C17.5013293,128.506671 16.4986726,129.183997 15.304,129.728 C14.1093274,130.272003 12.7973405,130.544 11.368,130.544 C9.31998976,130.544 7.53867424,130.096004 6.024,129.2 C4.50932576,128.303996 3.33067088,126.976009 2.488,125.216 C1.64532912,123.455991 1.224,121.338679 1.224,118.864 C1.224,116.453321 1.65599568,114.373342 2.52,112.624 C3.38400432,110.874658 4.56799248,109.546671 6.072,108.64 C7.57600752,107.733329 9.2879904,107.28 11.208,107.28 Z M27.592,112.464 C30.1946797,112.464 32.2319926,113.258659 33.704,114.848 C35.1760074,116.437341 35.912,118.661319 35.912,121.52 C35.912,123.333342 35.5760034,124.917327 34.904,126.272 C34.2319966,127.626673 33.2720062,128.67733 32.024,129.424 C30.7759938,130.17067 29.2986752,130.544 27.592,130.544 C25.0106538,130.544 22.9786741,129.749341 21.496,128.16 C20.0133259,126.570659 19.272,124.346681 19.272,121.488 C19.272,119.674658 19.6079966,118.090673 20.28,116.736 C20.9520034,115.381327 21.9119938,114.33067 23.16,113.584 C24.4080062,112.83733 25.8853248,112.464 27.592,112.464 Z M27.592,116.176 C26.5679949,116.176 25.8000026,116.607996 25.288,117.472 C24.7759974,118.336004 24.52,119.674658 24.52,121.488 C24.52,123.344009 24.7706642,124.698662 25.272,125.552 C25.7733358,126.405338 26.5466614,126.832 27.592,126.832 C28.6160051,126.832 29.3839974,126.400004 29.896,125.536 C30.4080026,124.671996 30.664,123.333342 30.664,121.52 C30.664,119.663991 30.4133358,118.309338 29.912,117.456 C29.4106642,116.602662 28.6373386,116.176 27.592,116.176 Z M48.872,112.464 C50.3440074,112.464 51.4959958,112.911996 52.328,113.808 C53.1600042,114.704004 53.576,115.962659 53.576,117.584 L53.576,130 L48.52,130 L48.52,118.448 C48.52,117.594662 48.386668,117.002668 48.12,116.672 C47.853332,116.341332 47.453336,116.176 46.92,116.176 C45.8959949,116.176 44.9146714,116.911993 43.976,118.384 L43.976,130 L38.92,130 L38.92,113.008 L43.336,113.008 L43.688,115.024 C44.4346704,114.170662 45.2293291,113.530669 46.072,113.104 C46.9146709,112.677331 47.8479949,112.464 48.872,112.464 Z M63.368,112.464 C64.5840061,112.464 65.725328,112.645332 66.792,113.008 C67.858672,113.370668 68.7973293,113.882663 69.608,114.544 L67.752,117.392 C66.3653264,116.517329 64.968007,116.08 63.56,116.08 C62.8986634,116.08 62.3920018,116.191999 62.04,116.416 C61.6879982,116.640001 61.512,116.954665 61.512,117.36 C61.512,117.680002 61.5919992,117.941332 61.752,118.144 C61.9120008,118.346668 62.2373309,118.554666 62.728,118.768 C63.2186691,118.981334 63.9759949,119.237332 65,119.536 C66.7706755,120.048003 68.0879957,120.714663 68.952,121.536 C69.8160043,122.357337 70.248,123.493326 70.248,124.944 C70.248,126.096006 69.9173366,127.093329 69.256,127.936 C68.5946634,128.778671 67.6880058,129.423998 66.536,129.872 C65.3839942,130.320002 64.104007,130.544 62.696,130.544 C61.2666595,130.544 59.9386728,130.320002 58.712,129.872 C57.4853272,129.423998 56.4453376,128.805337 55.592,128.016 L58.056,125.264 C59.4853405,126.373339 60.9893254,126.928 62.568,126.928 C63.3360038,126.928 63.9386645,126.789335 64.376,126.512 C64.8133355,126.234665 65.032,125.840003 65.032,125.328 C65.032,124.922665 64.9466675,124.602668 64.776,124.368 C64.6053325,124.133332 64.2746691,123.914668 63.784,123.712 C63.2933309,123.509332 62.514672,123.258668 61.448,122.96 C59.7626582,122.469331 58.5040042,121.786671 57.672,120.912 C56.8399958,120.037329 56.424,118.94934 56.424,117.648 C56.424,116.666662 56.7066638,115.786671 57.272,115.008 C57.8373362,114.229329 58.6479947,113.610669 59.704,113.152 C60.7600053,112.693331 61.9813264,112.464 63.368,112.464 Z M87.176,130 L82.792,130 L82.568,127.856 C81.3306605,129.648009 79.6133443,130.544 77.416,130.544 C75.8586589,130.544 74.680004,130.074671 73.88,129.136 C73.079996,128.197329 72.68,126.885342 72.68,125.2 L72.68,113.008 L77.736,113.008 L77.736,124.56 C77.736,125.392004 77.869332,125.973332 78.136,126.304 C78.402668,126.634668 78.8133306,126.8 79.368,126.8 C80.434672,126.8 81.3519962,126.138673 82.12,124.816 L82.12,113.008 L87.176,113.008 L87.176,130 Z M109.928,112.464 C111.272007,112.464 112.349329,112.917329 113.16,113.824 C113.970671,114.730671 114.376,115.983992 114.376,117.584 L114.376,130 L109.32,130 L109.32,118.448 C109.32,116.933326 108.840005,116.176 107.88,116.176 C107.346664,116.176 106.877335,116.357332 106.472,116.72 C106.066665,117.082668 105.672002,117.63733 105.288,118.384 L105.288,130 L100.232,130 L100.232,118.448 C100.232,116.933326 99.7520048,116.176 98.792,116.176 C98.2799974,116.176 97.8160021,116.362665 97.4,116.736 C96.9839979,117.109335 96.5840019,117.658663 96.2,118.384 L96.2,130 L91.144,130 L91.144,113.008 L95.56,113.008 L95.912,114.992 C96.5733366,114.138662 97.303996,113.504002 98.104,113.088 C98.904004,112.671998 99.8159949,112.464 100.84,112.464 C101.778671,112.464 102.594663,112.698664 103.288,113.168 C103.981337,113.637336 104.498665,114.298662 104.84,115.152 C105.52267,114.255996 106.274663,113.584002 107.096,113.136 C107.917337,112.687998 108.861328,112.464 109.928,112.464 Z M127.688,112.464 C129.864011,112.464 131.479995,113.247992 132.536,114.816 C133.592005,116.384008 134.12,118.597319 134.12,121.456 C134.12,123.205342 133.848003,124.767993 133.304,126.144 C132.759997,127.520007 131.976005,128.597329 130.952,129.376 C129.927995,130.154671 128.73334,130.544 127.368,130.544 C125.661325,130.544 124.285339,129.946673 123.24,128.752 L123.24,136.56 L118.184,137.104 L118.184,113.008 L122.632,113.008 L122.888,114.896 C123.549337,114.063996 124.301329,113.450669 125.144,113.056 C125.986671,112.661331 126.834662,112.464 127.688,112.464 Z M125.832,126.832 C127.858677,126.832 128.872,125.061351 128.872,121.52 C128.872,119.514657 128.642669,118.122671 128.184,117.344 C127.725331,116.565329 127.026671,116.176 126.088,116.176 C125.554664,116.176 125.037336,116.351998 124.536,116.704 C124.034664,117.056002 123.602668,117.54133 123.24,118.16 L123.24,125.328 C123.92267,126.330672 124.786661,126.832 125.832,126.832 Z M147.944,129.2 C147.32533,129.626669 146.605337,129.957332 145.784,130.192 C144.962663,130.426668 144.146671,130.544 143.336,130.544 C139.623981,130.522667 137.768,128.474687 137.768,124.4 L137.768,116.528 L135.368,116.528 L135.368,113.008 L137.768,113.008 L137.768,109.328 L142.824,108.752 L142.824,113.008 L146.728,113.008 L146.184,116.528 L142.824,116.528 L142.824,124.336 C142.824,125.125337 142.951999,125.690665 143.208,126.032 C143.464001,126.373335 143.869331,126.544 144.424,126.544 C145.021336,126.544 145.62933,126.352002 146.248,125.968 L147.944,129.2 Z M154.696,130 L149.64,130 L149.64,113.008 L154.696,113.008 L154.696,130 Z M152.136,104.048 C153.010671,104.048 153.730664,104.319997 154.296,104.864 C154.861336,105.408003 155.144,106.095996 155.144,106.928 C155.144,107.760004 154.861336,108.447997 154.296,108.992 C153.730664,109.536003 153.010671,109.808 152.136,109.808 C151.261329,109.808 150.546669,109.536003 149.992,108.992 C149.437331,108.447997 149.16,107.760004 149.16,106.928 C149.16,106.095996 149.437331,105.408003 149.992,104.864 C150.546669,104.319997 151.261329,104.048 152.136,104.048 Z M166.024,112.464 C168.62668,112.464 170.663993,113.258659 172.136,114.848 C173.608007,116.437341 174.344,118.661319 174.344,121.52 C174.344,123.333342 174.008003,124.917327 173.336,126.272 C172.663997,127.626673 171.704006,128.67733 170.456,129.424 C169.207994,130.17067 167.730675,130.544 166.024,130.544 C163.442654,130.544 161.410674,129.749341 159.928,128.16 C158.445326,126.570659 157.704,124.346681 157.704,121.488 C157.704,119.674658 158.039997,118.090673 158.712,116.736 C159.384003,115.381327 160.343994,114.33067 161.592,113.584 C162.840006,112.83733 164.317325,112.464 166.024,112.464 Z M166.024,116.176 C164.999995,116.176 164.232003,116.607996 163.72,117.472 C163.207997,118.336004 162.952,119.674658 162.952,121.488 C162.952,123.344009 163.202664,124.698662 163.704,125.552 C164.205336,126.405338 164.978661,126.832 166.024,126.832 C167.048005,126.832 167.815997,126.400004 168.328,125.536 C168.840003,124.671996 169.096,123.333342 169.096,121.52 C169.096,119.663991 168.845336,118.309338 168.344,117.456 C167.842664,116.602662 167.069339,116.176 166.024,116.176 Z M187.304,112.464 C188.776007,112.464 189.927996,112.911996 190.76,113.808 C191.592004,114.704004 192.008,115.962659 192.008,117.584 L192.008,130 L186.952,130 L186.952,118.448 C186.952,117.594662 186.818668,117.002668 186.552,116.672 C186.285332,116.341332 185.885336,116.176 185.352,116.176 C184.327995,116.176 183.346671,116.911993 182.408,118.384 L182.408,130 L177.352,130 L177.352,113.008 L181.768,113.008 L182.12,115.024 C182.86667,114.170662 183.661329,113.530669 184.504,113.104 C185.346671,112.677331 186.279995,112.464 187.304,112.464 Z" id="Efficient-Memory-Con"></path>
            </g>
            <path d="M509.152,100.568 L501.728,100.568 L501.728,106.456 L508.192,106.456 L508.192,110.2 L501.728,110.2 L501.728,119 L496.48,119 L496.48,96.824 L509.696,96.824 L509.152,100.568 Z M526.144,110.168 C526.144,110.872004 526.112,111.479997 526.048,111.992 L515.552,111.992 C515.701334,113.42134 516.095997,114.423997 516.736,115 C517.376003,115.576003 518.261328,115.864 519.392,115.864 C520.07467,115.864 520.735997,115.741335 521.376,115.496 C522.016003,115.250665 522.70933,114.872003 523.456,114.36 L525.536,117.176 C523.55199,118.754675 521.344012,119.544 518.912,119.544 C516.159986,119.544 514.048007,118.733341 512.576,117.112 C511.103993,115.490659 510.368,113.31468 510.368,110.584 C510.368,108.855991 510.67733,107.304007 511.296,105.928 C511.91467,104.551993 512.821327,103.464004 514.016,102.664 C515.210673,101.863996 516.639992,101.464 518.304,101.464 C520.757346,101.464 522.677326,102.231992 524.064,103.768 C525.450674,105.304008 526.144,107.43732 526.144,110.168 Z M521.184,108.728 C521.141333,106.12532 520.224009,104.824 518.432,104.824 C517.557329,104.824 516.885336,105.138664 516.416,105.768 C515.946664,106.397336 515.648001,107.458659 515.52,108.952 L521.184,108.952 L521.184,108.728 Z M547.36,119 L541.312,119 L539.04,106.52 L536.8,119 L530.816,119 L527.2,102.008 L532.32,102.008 L534.08,115.224 L536.736,102.008 L541.664,102.008 L544,115.224 L546.048,102.008 L550.88,102.008 L547.36,119 Z M567.52,110.168 C567.52,110.872004 567.488,111.479997 567.424,111.992 L556.928,111.992 C557.077334,113.42134 557.471997,114.423997 558.112,115 C558.752003,115.576003 559.637328,115.864 560.768,115.864 C561.45067,115.864 562.111997,115.741335 562.752,115.496 C563.392003,115.250665 564.08533,114.872003 564.832,114.36 L566.912,117.176 C564.92799,118.754675 562.720012,119.544 560.288,119.544 C557.535986,119.544 555.424007,118.733341 553.952,117.112 C552.479993,115.490659 551.744,113.31468 551.744,110.584 C551.744,108.855991 552.05333,107.304007 552.672,105.928 C553.29067,104.551993 554.197327,103.464004 555.392,102.664 C556.586673,101.863996 558.015992,101.464 559.68,101.464 C562.133346,101.464 564.053326,102.231992 565.44,103.768 C566.826674,105.304008 567.52,107.43732 567.52,110.168 Z M562.56,108.728 C562.517333,106.12532 561.600009,104.824 559.808,104.824 C558.933329,104.824 558.261336,105.138664 557.792,105.768 C557.322664,106.397336 557.024001,107.458659 556.896,108.952 L562.56,108.952 L562.56,108.728 Z M579.648,101.528 C580.26667,101.528 580.831997,101.602666 581.344,101.752 L580.544,106.648 C579.903997,106.498666 579.392002,106.424 579.008,106.424 C578.026662,106.424 577.269336,106.76533 576.736,107.448 C576.202664,108.13067 575.786668,109.15466 575.488,110.52 L575.488,119 L570.432,119 L570.432,102.008 L574.848,102.008 L575.264,105.272 C575.648002,104.098661 576.229329,103.181337 577.008,102.52 C577.786671,101.858663 578.666662,101.528 579.648,101.528 Z M467.92,142.824 C471.397351,142.824 474.186656,143.607992 476.288,145.176 C478.389344,146.744008 479.44,149.618646 479.44,153.8 C479.44,157.917354 478.41601,160.813325 476.368,162.488 C474.31999,164.162675 471.664016,165 468.4,165 L461.744,165 L461.744,142.824 L467.92,142.824 Z M466.992,146.632 L466.992,161.192 L468.72,161.192 C470.448009,161.192 471.759996,160.653339 472.656,159.576 C473.552004,158.498661 474,156.573347 474,153.8 C474,151.901324 473.776002,150.429339 473.328,149.384 C472.879998,148.338661 472.272004,147.618669 471.504,147.224 C470.735996,146.829331 469.786672,146.632 468.656,146.632 L466.992,146.632 Z M497.296,156.168 C497.296,156.872004 497.264,157.479997 497.2,157.992 L486.704,157.992 C486.853334,159.42134 487.247997,160.423997 487.888,161 C488.528003,161.576003 489.413328,161.864 490.544,161.864 C491.22667,161.864 491.887997,161.741335 492.528,161.496 C493.168003,161.250665 493.86133,160.872003 494.608,160.36 L496.688,163.176 C494.70399,164.754675 492.496012,165.544 490.064,165.544 C487.311986,165.544 485.200007,164.733341 483.728,163.112 C482.255993,161.490659 481.52,159.31468 481.52,156.584 C481.52,154.855991 481.82933,153.304007 482.448,151.928 C483.06667,150.551993 483.973327,149.464004 485.168,148.664 C486.362673,147.863996 487.791992,147.464 489.456,147.464 C491.909346,147.464 493.829326,148.231992 495.216,149.768 C496.602674,151.304008 497.296,153.43732 497.296,156.168 Z M492.336,154.728 C492.293333,152.12532 491.376009,150.824 489.584,150.824 C488.709329,150.824 488.037336,151.138664 487.568,151.768 C487.098664,152.397336 486.800001,153.458659 486.672,154.952 L492.336,154.952 L492.336,154.728 Z M509.744,147.464 C511.813344,147.464 513.397328,148.253325 514.496,149.832 C515.594672,151.410675 516.144,153.639986 516.144,156.52 C516.144,158.269342 515.872003,159.82666 515.328,161.192 C514.783997,162.55734 514.005338,163.623996 512.992,164.392 C511.978662,165.160004 510.778674,165.544 509.392,165.544 C508.453329,165.544 507.605337,165.357335 506.848,164.984 C506.090663,164.610665 505.456003,164.072004 504.944,163.368 L504.688,165 L500.208,165 L500.208,141.256 L505.264,140.712 L505.264,149.736 C505.754669,149.05333 506.405329,148.504002 507.216,148.088 C508.026671,147.671998 508.869329,147.464 509.744,147.464 Z M507.952,161.864 C509.914676,161.864 510.896,160.082684 510.896,156.52 C510.896,154.514657 510.661336,153.122671 510.192,152.344 C509.722664,151.565329 509.050671,151.176 508.176,151.176 C507.023994,151.176 506.053337,151.837327 505.264,153.16 L505.264,160.2 C505.94667,161.309339 506.842661,161.864 507.952,161.864 Z M533.648,165 L529.264,165 L529.04,162.856 C527.80266,164.648009 526.085344,165.544 523.888,165.544 C522.330659,165.544 521.152004,165.074671 520.352,164.136 C519.551996,163.197329 519.152,161.885342 519.152,160.2 L519.152,148.008 L524.208,148.008 L524.208,159.56 C524.208,160.392004 524.341332,160.973332 524.608,161.304 C524.874668,161.634668 525.285331,161.8 525.84,161.8 C526.906672,161.8 527.823996,161.138673 528.592,159.816 L528.592,148.008 L533.648,148.008 L533.648,165 Z M553.264,149 C552.154661,149.448002 550.522677,149.672 548.368,149.672 C549.477339,150.141336 550.287997,150.71733 550.8,151.4 C551.312003,152.08267 551.568,152.967995 551.568,154.056 C551.568,155.144005 551.280003,156.119996 550.704,156.984 C550.127997,157.848004 549.301339,158.525331 548.224,159.016 C547.146661,159.506669 545.882674,159.752 544.432,159.752 C543.74933,159.752 543.09867,159.688001 542.48,159.56 C542.309332,159.645334 542.176,159.778666 542.08,159.96 C541.984,160.141334 541.936,160.327999 541.936,160.52 C541.936,160.840002 542.058665,161.090666 542.304,161.272 C542.549335,161.453334 543.04533,161.544 543.792,161.544 L546.352,161.544 C547.65334,161.544 548.794662,161.757331 549.776,162.184 C550.757338,162.610669 551.514664,163.19733 552.048,163.944 C552.581336,164.69067 552.848,165.533329 552.848,166.472 C552.848,168.242676 552.085341,169.623995 550.56,170.616 C549.034659,171.608005 546.832014,172.104 543.952,172.104 C541.882656,172.104 540.250673,171.885336 539.056,171.448 C537.861327,171.010664 537.024002,170.397337 536.544,169.608 C536.063998,168.818663 535.824,167.826673 535.824,166.632 L540.368,166.632 C540.368,167.144003 540.469332,167.549332 540.672,167.848 C540.874668,168.146668 541.242664,168.370666 541.776,168.52 C542.309336,168.669334 543.077328,168.744 544.08,168.744 C545.466674,168.744 546.426664,168.578668 546.96,168.248 C547.493336,167.917332 547.76,167.44267 547.76,166.824 C547.76,166.311997 547.557335,165.906668 547.152,165.608 C546.746665,165.309332 546.138671,165.16 545.328,165.16 L542.864,165.16 C541.114658,165.16 539.808004,164.845336 538.944,164.216 C538.079996,163.586664 537.648,162.781338 537.648,161.8 C537.648,161.18133 537.829332,160.57867 538.192,159.992 C538.554668,159.40533 539.04533,158.920002 539.664,158.536 C538.597328,157.959997 537.824002,157.282671 537.344,156.504 C536.863998,155.725329 536.624,154.781339 536.624,153.672 C536.624,151.773324 537.30666,150.264006 538.672,149.144 C540.03734,148.023994 541.839989,147.464 544.08,147.464 C545.786675,147.506667 547.231994,147.336002 548.416,146.952 C549.600006,146.567998 550.821327,146.00267 552.08,145.256 L553.264,149 Z M544.208,150.792 C543.418663,150.792 542.794669,151.042664 542.336,151.544 C541.877331,152.045336 541.648,152.733329 541.648,153.608 C541.648,154.525338 541.877331,155.234664 542.336,155.736 C542.794669,156.237336 543.418663,156.488 544.208,156.488 C545.040004,156.488 545.674664,156.242669 546.112,155.752 C546.549336,155.261331 546.768,154.525338 546.768,153.544 C546.768,151.709324 545.914675,150.792 544.208,150.792 Z M570.896,149 C569.786661,149.448002 568.154677,149.672 566,149.672 C567.109339,150.141336 567.919997,150.71733 568.432,151.4 C568.944003,152.08267 569.2,152.967995 569.2,154.056 C569.2,155.144005 568.912003,156.119996 568.336,156.984 C567.759997,157.848004 566.933339,158.525331 565.856,159.016 C564.778661,159.506669 563.514674,159.752 562.064,159.752 C561.38133,159.752 560.73067,159.688001 560.112,159.56 C559.941332,159.645334 559.808,159.778666 559.712,159.96 C559.616,160.141334 559.568,160.327999 559.568,160.52 C559.568,160.840002 559.690665,161.090666 559.936,161.272 C560.181335,161.453334 560.67733,161.544 561.424,161.544 L563.984,161.544 C565.28534,161.544 566.426662,161.757331 567.408,162.184 C568.389338,162.610669 569.146664,163.19733 569.68,163.944 C570.213336,164.69067 570.48,165.533329 570.48,166.472 C570.48,168.242676 569.717341,169.623995 568.192,170.616 C566.666659,171.608005 564.464014,172.104 561.584,172.104 C559.514656,172.104 557.882673,171.885336 556.688,171.448 C555.493327,171.010664 554.656002,170.397337 554.176,169.608 C553.695998,168.818663 553.456,167.826673 553.456,166.632 L558,166.632 C558,167.144003 558.101332,167.549332 558.304,167.848 C558.506668,168.146668 558.874664,168.370666 559.408,168.52 C559.941336,168.669334 560.709328,168.744 561.712,168.744 C563.098674,168.744 564.058664,168.578668 564.592,168.248 C565.125336,167.917332 565.392,167.44267 565.392,166.824 C565.392,166.311997 565.189335,165.906668 564.784,165.608 C564.378665,165.309332 563.770671,165.16 562.96,165.16 L560.496,165.16 C558.746658,165.16 557.440004,164.845336 556.576,164.216 C555.711996,163.586664 555.28,162.781338 555.28,161.8 C555.28,161.18133 555.461332,160.57867 555.824,159.992 C556.186668,159.40533 556.67733,158.920002 557.296,158.536 C556.229328,157.959997 555.456002,157.282671 554.976,156.504 C554.495998,155.725329 554.256,154.781339 554.256,153.672 C554.256,151.773324 554.93866,150.264006 556.304,149.144 C557.66934,148.023994 559.471989,147.464 561.712,147.464 C563.418675,147.506667 564.863994,147.336002 566.048,146.952 C567.232006,146.567998 568.453327,146.00267 569.712,145.256 L570.896,149 Z M561.84,150.792 C561.050663,150.792 560.426669,151.042664 559.968,151.544 C559.509331,152.045336 559.28,152.733329 559.28,153.608 C559.28,154.525338 559.509331,155.234664 559.968,155.736 C560.426669,156.237336 561.050663,156.488 561.84,156.488 C562.672004,156.488 563.306664,156.242669 563.744,155.752 C564.181336,155.261331 564.4,154.525338 564.4,153.544 C564.4,151.709324 563.546675,150.792 561.84,150.792 Z M577.936,165 L572.88,165 L572.88,148.008 L577.936,148.008 L577.936,165 Z M575.376,139.048 C576.250671,139.048 576.970664,139.319997 577.536,139.864 C578.101336,140.408003 578.384,141.095996 578.384,141.928 C578.384,142.760004 578.101336,143.447997 577.536,143.992 C576.970664,144.536003 576.250671,144.808 575.376,144.808 C574.501329,144.808 573.786669,144.536003 573.232,143.992 C572.677331,143.447997 572.4,142.760004 572.4,141.928 C572.4,141.095996 572.677331,140.408003 573.232,139.864 C573.786669,139.319997 574.501329,139.048 575.376,139.048 Z M591.856,147.464 C593.328007,147.464 594.479996,147.911996 595.312,148.808 C596.144004,149.704004 596.56,150.962659 596.56,152.584 L596.56,165 L591.504,165 L591.504,153.448 C591.504,152.594662 591.370668,152.002668 591.104,151.672 C590.837332,151.341332 590.437336,151.176 589.904,151.176 C588.879995,151.176 587.898671,151.911993 586.96,153.384 L586.96,165 L581.904,165 L581.904,148.008 L586.32,148.008 L586.672,150.024 C587.41867,149.170662 588.213329,148.530669 589.056,148.104 C589.898671,147.677331 590.831995,147.464 591.856,147.464 Z M616.016,149 C614.906661,149.448002 613.274677,149.672 611.12,149.672 C612.229339,150.141336 613.039997,150.71733 613.552,151.4 C614.064003,152.08267 614.32,152.967995 614.32,154.056 C614.32,155.144005 614.032003,156.119996 613.456,156.984 C612.879997,157.848004 612.053339,158.525331 610.976,159.016 C609.898661,159.506669 608.634674,159.752 607.184,159.752 C606.50133,159.752 605.85067,159.688001 605.232,159.56 C605.061332,159.645334 604.928,159.778666 604.832,159.96 C604.736,160.141334 604.688,160.327999 604.688,160.52 C604.688,160.840002 604.810665,161.090666 605.056,161.272 C605.301335,161.453334 605.79733,161.544 606.544,161.544 L609.104,161.544 C610.40534,161.544 611.546662,161.757331 612.528,162.184 C613.509338,162.610669 614.266664,163.19733 614.8,163.944 C615.333336,164.69067 615.6,165.533329 615.6,166.472 C615.6,168.242676 614.837341,169.623995 613.312,170.616 C611.786659,171.608005 609.584014,172.104 606.704,172.104 C604.634656,172.104 603.002673,171.885336 601.808,171.448 C600.613327,171.010664 599.776002,170.397337 599.296,169.608 C598.815998,168.818663 598.576,167.826673 598.576,166.632 L603.12,166.632 C603.12,167.144003 603.221332,167.549332 603.424,167.848 C603.626668,168.146668 603.994664,168.370666 604.528,168.52 C605.061336,168.669334 605.829328,168.744 606.832,168.744 C608.218674,168.744 609.178664,168.578668 609.712,168.248 C610.245336,167.917332 610.512,167.44267 610.512,166.824 C610.512,166.311997 610.309335,165.906668 609.904,165.608 C609.498665,165.309332 608.890671,165.16 608.08,165.16 L605.616,165.16 C603.866658,165.16 602.560004,164.845336 601.696,164.216 C600.831996,163.586664 600.4,162.781338 600.4,161.8 C600.4,161.18133 600.581332,160.57867 600.944,159.992 C601.306668,159.40533 601.79733,158.920002 602.416,158.536 C601.349328,157.959997 600.576002,157.282671 600.096,156.504 C599.615998,155.725329 599.376,154.781339 599.376,153.672 C599.376,151.773324 600.05866,150.264006 601.424,149.144 C602.78934,148.023994 604.591989,147.464 606.832,147.464 C608.538675,147.506667 609.983994,147.336002 611.168,146.952 C612.352006,146.567998 613.573327,146.00267 614.832,145.256 L616.016,149 Z M606.96,150.792 C606.170663,150.792 605.546669,151.042664 605.088,151.544 C604.629331,152.045336 604.4,152.733329 604.4,153.608 C604.4,154.525338 604.629331,155.234664 605.088,155.736 C605.546669,156.237336 606.170663,156.488 606.96,156.488 C607.792004,156.488 608.426664,156.242669 608.864,155.752 C609.301336,155.261331 609.52,154.525338 609.52,153.544 C609.52,151.709324 608.666675,150.792 606.96,150.792 Z M444.736,188.28 C446.186674,188.28 447.450661,188.482665 448.528,188.888 C449.605339,189.293335 450.623995,189.901329 451.584,190.712 L449.024,193.752 C447.78666,192.685328 446.464007,192.152 445.056,192.152 C443.583993,192.152 442.416004,192.78666 441.552,194.056 C440.687996,195.32534 440.256,197.26132 440.256,199.864 C440.256,202.445346 440.687996,204.359994 441.552,205.608 C442.416004,206.856006 443.615992,207.48 445.152,207.48 C445.941337,207.48 446.66133,207.320002 447.312,207 C447.96267,206.679998 448.682663,206.221336 449.472,205.624 L451.84,208.696 C451.029329,209.506671 450.026673,210.183997 448.832,210.728 C447.637327,211.272003 446.32534,211.544 444.896,211.544 C442.84799,211.544 441.066674,211.096004 439.552,210.2 C438.037326,209.303996 436.858671,207.976009 436.016,206.216 C435.173329,204.455991 434.752,202.338679 434.752,199.864 C434.752,197.453321 435.183996,195.373342 436.048,193.624 C436.912004,191.874658 438.095992,190.546671 439.6,189.64 C441.104008,188.733329 442.81599,188.28 444.736,188.28 Z M461.12,193.464 C463.72268,193.464 465.759993,194.258659 467.232,195.848 C468.704007,197.437341 469.44,199.661319 469.44,202.52 C469.44,204.333342 469.104003,205.917327 468.432,207.272 C467.759997,208.626673 466.800006,209.67733 465.552,210.424 C464.303994,211.17067 462.826675,211.544 461.12,211.544 C458.538654,211.544 456.506674,210.749341 455.024,209.16 C453.541326,207.570659 452.8,205.346681 452.8,202.488 C452.8,200.674658 453.135997,199.090673 453.808,197.736 C454.480003,196.381327 455.439994,195.33067 456.688,194.584 C457.936006,193.83733 459.413325,193.464 461.12,193.464 Z M461.12,197.176 C460.095995,197.176 459.328003,197.607996 458.816,198.472 C458.303997,199.336004 458.048,200.674658 458.048,202.488 C458.048,204.344009 458.298664,205.698662 458.8,206.552 C459.301336,207.405338 460.074661,207.832 461.12,207.832 C462.144005,207.832 462.911997,207.400004 463.424,206.536 C463.936003,205.671996 464.192,204.333342 464.192,202.52 C464.192,200.663991 463.941336,199.309338 463.44,198.456 C462.938664,197.602662 462.165339,197.176 461.12,197.176 Z M491.232,193.464 C492.576007,193.464 493.653329,193.917329 494.464,194.824 C495.274671,195.730671 495.68,196.983992 495.68,198.584 L495.68,211 L490.624,211 L490.624,199.448 C490.624,197.933326 490.144005,197.176 489.184,197.176 C488.650664,197.176 488.181335,197.357332 487.776,197.72 C487.370665,198.082668 486.976002,198.63733 486.592,199.384 L486.592,211 L481.536,211 L481.536,199.448 C481.536,197.933326 481.056005,197.176 480.096,197.176 C479.583997,197.176 479.120002,197.362665 478.704,197.736 C478.287998,198.109335 477.888002,198.658663 477.504,199.384 L477.504,211 L472.448,211 L472.448,194.008 L476.864,194.008 L477.216,195.992 C477.877337,195.138662 478.607996,194.504002 479.408,194.088 C480.208004,193.671998 481.119995,193.464 482.144,193.464 C483.082671,193.464 483.898663,193.698664 484.592,194.168 C485.285337,194.637336 485.802665,195.298662 486.144,196.152 C486.82667,195.255996 487.578663,194.584002 488.4,194.136 C489.221337,193.687998 490.165328,193.464 491.232,193.464 Z M508.992,193.464 C511.168011,193.464 512.783995,194.247992 513.84,195.816 C514.896005,197.384008 515.424,199.597319 515.424,202.456 C515.424,204.205342 515.152003,205.767993 514.608,207.144 C514.063997,208.520007 513.280005,209.597329 512.256,210.376 C511.231995,211.154671 510.03734,211.544 508.672,211.544 C506.965325,211.544 505.589339,210.946673 504.544,209.752 L504.544,217.56 L499.488,218.104 L499.488,194.008 L503.936,194.008 L504.192,195.896 C504.853337,195.063996 505.605329,194.450669 506.448,194.056 C507.290671,193.661331 508.138662,193.464 508.992,193.464 Z M507.136,207.832 C509.162677,207.832 510.176,206.061351 510.176,202.52 C510.176,200.514657 509.946669,199.122671 509.488,198.344 C509.029331,197.565329 508.330671,197.176 507.392,197.176 C506.858664,197.176 506.341336,197.351998 505.84,197.704 C505.338664,198.056002 504.906668,198.54133 504.544,199.16 L504.544,206.328 C505.22667,207.330672 506.090661,207.832 507.136,207.832 Z M523.104,211.544 C521.631993,211.544 520.485337,211.122671 519.664,210.28 C518.842663,209.437329 518.432,208.237341 518.432,206.68 L518.432,187.256 L523.488,186.712 L523.488,206.488 C523.488,207.192004 523.775997,207.544 524.352,207.544 C524.650668,207.544 524.927999,207.490667 525.184,207.384 L526.176,210.968 C525.258662,211.352002 524.234672,211.544 523.104,211.544 Z M533.152,211 L528.096,211 L528.096,194.008 L533.152,194.008 L533.152,211 Z M530.592,185.048 C531.466671,185.048 532.186664,185.319997 532.752,185.864 C533.317336,186.408003 533.6,187.095996 533.6,187.928 C533.6,188.760004 533.317336,189.447997 532.752,189.992 C532.186664,190.536003 531.466671,190.808 530.592,190.808 C529.717329,190.808 529.002669,190.536003 528.448,189.992 C527.893331,189.447997 527.616,188.760004 527.616,187.928 C527.616,187.095996 527.893331,186.408003 528.448,185.864 C529.002669,185.319997 529.717329,185.048 530.592,185.048 Z M544.48,193.464 C545.653339,193.464 546.709329,193.634665 547.648,193.976 C548.586671,194.317335 549.471996,194.839996 550.304,195.544 L548.128,198.552 C547.061328,197.741329 545.984005,197.336 544.896,197.336 C543.765328,197.336 542.912003,197.751996 542.336,198.584 C541.759997,199.416004 541.472,200.759991 541.472,202.616 C541.472,204.408009 541.759997,205.67733 542.336,206.424 C542.912003,207.17067 543.743995,207.544 544.832,207.544 C545.408003,207.544 545.930664,207.453334 546.4,207.272 C546.869336,207.090666 547.434663,206.797335 548.096,206.392 L550.304,209.528 C548.618658,210.872007 546.709344,211.544 544.576,211.544 C542.847991,211.544 541.354673,211.176004 540.096,210.44 C538.837327,209.703996 537.86667,208.66934 537.184,207.336 C536.50133,206.00266 536.16,204.440009 536.16,202.648 C536.16,200.855991 536.50133,199.266674 537.184,197.88 C537.86667,196.493326 538.837327,195.410671 540.096,194.632 C541.354673,193.853329 542.815992,193.464 544.48,193.464 Z M565.952,206.072 C565.952,206.712003 566.042666,207.181332 566.224,207.48 C566.405334,207.778668 566.698665,208.002666 567.104,208.152 L566.048,211.448 C565.002661,211.362666 564.15467,211.138668 563.504,210.776 C562.85333,210.413332 562.336002,209.826671 561.952,209.016 C560.842661,210.701342 559.136012,211.544 556.832,211.544 C555.146658,211.544 553.802672,211.053338 552.8,210.072 C551.797328,209.090662 551.296,207.810675 551.296,206.232 C551.296,204.375991 551.97866,202.957338 553.344,201.976 C554.70934,200.994662 556.682654,200.504 559.264,200.504 L560.992,200.504 L560.992,199.768 C560.992,198.765328 560.778669,198.077335 560.352,197.704 C559.925331,197.330665 559.178672,197.144 558.112,197.144 C557.557331,197.144 556.885337,197.223999 556.096,197.384 C555.306663,197.544001 554.496004,197.762665 553.664,198.04 L552.512,194.712 C553.578672,194.306665 554.671994,193.997334 555.792,193.784 C556.912006,193.570666 557.951995,193.464 558.912,193.464 C561.344012,193.464 563.125328,193.965328 564.256,194.968 C565.386672,195.970672 565.952,197.474657 565.952,199.48 L565.952,206.072 Z M558.304,207.928 C558.858669,207.928 559.365331,207.789335 559.824,207.512 C560.282669,207.234665 560.671998,206.840003 560.992,206.328 L560.992,203.288 L559.744,203.288 C558.591994,203.288 557.733336,203.490665 557.168,203.896 C556.602664,204.301335 556.32,204.930662 556.32,205.784 C556.32,206.46667 556.495998,206.994665 556.848,207.368 C557.200002,207.741335 557.68533,207.928 558.304,207.928 Z M580.64,210.2 C580.02133,210.626669 579.301337,210.957332 578.48,211.192 C577.658663,211.426668 576.842671,211.544 576.032,211.544 C572.319981,211.522667 570.464,209.474687 570.464,205.4 L570.464,197.528 L568.064,197.528 L568.064,194.008 L570.464,194.008 L570.464,190.328 L575.52,189.752 L575.52,194.008 L579.424,194.008 L578.88,197.528 L575.52,197.528 L575.52,205.336 C575.52,206.125337 575.647999,206.690665 575.904,207.032 C576.160001,207.373335 576.565331,207.544 577.12,207.544 C577.717336,207.544 578.32533,207.352002 578.944,206.968 L580.64,210.2 Z M587.392,211 L582.336,211 L582.336,194.008 L587.392,194.008 L587.392,211 Z M584.832,185.048 C585.706671,185.048 586.426664,185.319997 586.992,185.864 C587.557336,186.408003 587.84,187.095996 587.84,187.928 C587.84,188.760004 587.557336,189.447997 586.992,189.992 C586.426664,190.536003 585.706671,190.808 584.832,190.808 C583.957329,190.808 583.242669,190.536003 582.688,189.992 C582.133331,189.447997 581.856,188.760004 581.856,187.928 C581.856,187.095996 582.133331,186.408003 582.688,185.864 C583.242669,185.319997 583.957329,185.048 584.832,185.048 Z M598.72,193.464 C601.32268,193.464 603.359993,194.258659 604.832,195.848 C606.304007,197.437341 607.04,199.661319 607.04,202.52 C607.04,204.333342 606.704003,205.917327 606.032,207.272 C605.359997,208.626673 604.400006,209.67733 603.152,210.424 C601.903994,211.17067 600.426675,211.544 598.72,211.544 C596.138654,211.544 594.106674,210.749341 592.624,209.16 C591.141326,207.570659 590.4,205.346681 590.4,202.488 C590.4,200.674658 590.735997,199.090673 591.408,197.736 C592.080003,196.381327 593.039994,195.33067 594.288,194.584 C595.536006,193.83733 597.013325,193.464 598.72,193.464 Z M598.72,197.176 C597.695995,197.176 596.928003,197.607996 596.416,198.472 C595.903997,199.336004 595.648,200.674658 595.648,202.488 C595.648,204.344009 595.898664,205.698662 596.4,206.552 C596.901336,207.405338 597.674661,207.832 598.72,207.832 C599.744005,207.832 600.511997,207.400004 601.024,206.536 C601.536003,205.671996 601.792,204.333342 601.792,202.52 C601.792,200.663991 601.541336,199.309338 601.04,198.456 C600.538664,197.602662 599.765339,197.176 598.72,197.176 Z M620,193.464 C621.472007,193.464 622.623996,193.911996 623.456,194.808 C624.288004,195.704004 624.704,196.962659 624.704,198.584 L624.704,211 L619.648,211 L619.648,199.448 C619.648,198.594662 619.514668,198.002668 619.248,197.672 C618.981332,197.341332 618.581336,197.176 618.048,197.176 C617.023995,197.176 616.042671,197.911993 615.104,199.384 L615.104,211 L610.048,211 L610.048,194.008 L614.464,194.008 L614.816,196.024 C615.56267,195.170662 616.357329,194.530669 617.2,194.104 C618.042671,193.677331 618.975995,193.464 620,193.464 Z M634.496,193.464 C635.712006,193.464 636.853328,193.645332 637.92,194.008 C638.986672,194.370668 639.925329,194.882663 640.736,195.544 L638.88,198.392 C637.493326,197.517329 636.096007,197.08 634.688,197.08 C634.026663,197.08 633.520002,197.191999 633.168,197.416 C632.815998,197.640001 632.64,197.954665 632.64,198.36 C632.64,198.680002 632.719999,198.941332 632.88,199.144 C633.040001,199.346668 633.365331,199.554666 633.856,199.768 C634.346669,199.981334 635.103995,200.237332 636.128,200.536 C637.898676,201.048003 639.215996,201.714663 640.08,202.536 C640.944004,203.357337 641.376,204.493326 641.376,205.944 C641.376,207.096006 641.045337,208.093329 640.384,208.936 C639.722663,209.778671 638.816006,210.423998 637.664,210.872 C636.511994,211.320002 635.232007,211.544 633.824,211.544 C632.39466,211.544 631.066673,211.320002 629.84,210.872 C628.613327,210.423998 627.573338,209.805337 626.72,209.016 L629.184,206.264 C630.61334,207.373339 632.117325,207.928 633.696,207.928 C634.464004,207.928 635.066664,207.789335 635.504,207.512 C635.941336,207.234665 636.16,206.840003 636.16,206.328 C636.16,205.922665 636.074668,205.602668 635.904,205.368 C635.733332,205.133332 635.402669,204.914668 634.912,204.712 C634.421331,204.509332 633.642672,204.258668 632.576,203.96 C630.890658,203.469331 629.632004,202.786671 628.8,201.912 C627.967996,201.037329 627.552,199.94934 627.552,198.648 C627.552,197.666662 627.834664,196.786671 628.4,196.008 C628.965336,195.229329 629.775995,194.610669 630.832,194.152 C631.888005,193.693331 633.109326,193.464 634.496,193.464 Z" id="Fewer-Debugging-Comp" fill="#FFFFFF"></path>
        </g>
    </g>
</svg>