<svg xmlns="http://www.w3.org/2000/svg" viewBox="-6387 1083.547 14693.556 14693.557">
  <defs>
    <style>
      .cls-1 {
        fill: #fff;
      }

      .cls-2 {
        fill: #4cafde;
      }

      .cls-3, .cls-5 {
        fill: none;
      }

      .cls-3 {
        stroke: #fff;
        stroke-width: 5px;
      }

      .cls-4 {
        stroke: none;
      }
    </style>
  </defs>
  <g id="austronauts_and_elipse" transform="translate(0 -733)">
    <g id="blueastronaut" transform="translate(1442.927 1933.622)">
      <circle id="Ellipse_34" data-name="Ellipse 34" class="cls-1" cx="27.304" cy="27.304" r="27.304" transform="translate(18.757 1.702)"/>
      <g id="Group_126" data-name="Group 126" transform="translate(0.073 0.012)">
        <path id="Path_369" data-name="Path 369" class="cls-2" d="M16.709,87.245A91.686,91.686,0,0,1,32.763,74.521C36.176,105.457,54.17,133.8,82.375,153.4c10.294,7.154,23.918-6.744,12.314-17.038-12.451-11.058-14.062-12.4-19.358-20.724-1.5-2.375,2.048-4.805,3.932-2.73,8.082,9.038,29.461,25.911,37.461,31.918,11.686,8.765,24.219-7.918,11.8-17.393-16.874-12.887-43.959-41.393-48.819-61.6,0,0,11.44-1.01,22.089,3.468,13.242,5.57,23.809-13.734,12.451-22.69-4.942-3.9-13-4.724-18.976-5.679A101.722,101.722,0,0,0,72.218,39.9,28.634,28.634,0,0,0,57.282,2.33,28.913,28.913,0,0,0,21.623,13.36,28.952,28.952,0,0,0,29.432,52.1C16.627,58.931,12.941,62.562,2.647,73.4A9.112,9.112,0,0,0,.135,78.617C-.82,86.753,9.5,93.661,16.709,87.245Zm6.8-47.345a.912.912,0,0,1-1.42-.355C18.7,32.009,19.275,22.917,21,19.886c.055-.082.109-.137.164-.218,5.488-5.3,22.471-12.587,35.413-9.256a1.143,1.143,0,0,1,.491.3,26.435,26.435,0,0,1,6.8,18.758.941.941,0,0,1-1.01.928C43.658,28.869,32.381,32.746,23.507,39.9Z" transform="translate(-0.073 -0.012)"/>
        <g id="Group_124" data-name="Group 124" transform="translate(49.603 12.35)">
          <path id="Path_370" data-name="Path 370" class="cls-2" d="M189.786,52.549c.055-.055.137-.109.191-.164a.858.858,0,0,0-.082-1.2l-6.744-5.734a.851.851,0,0,0-1.119,1.283l6.744,5.761A.823.823,0,0,0,189.786,52.549Z" transform="translate(-181.744 -45.244)"/>
        </g>
        <g id="Group_125" data-name="Group 125" transform="translate(41.996 11.997)">
          <path id="Path_371" data-name="Path 371" class="cls-2" d="M171.635,59.855a.775.775,0,0,0,.273-.246,1.289,1.289,0,0,0-.137-1.8L155.99,44.264a1.264,1.264,0,0,0-1.8.137,1.289,1.289,0,0,0,.137,1.8l15.782,13.543A1.278,1.278,0,0,0,171.635,59.855Z" transform="translate(-153.883 -43.95)"/>
        </g>
      </g>
    </g>
    <g id="whiteaustronaut" transform="translate(343.997 2317.897)">
      <circle id="Ellipse_22" data-name="Ellipse 22" cx="21.618" cy="21.618" r="21.618" transform="translate(52.423 1.917)"/>
      <g id="Group_102" data-name="Group 102" transform="translate(0.003 0.103)">
        <path id="Path_291" data-name="Path 291" class="cls-1" d="M110.51,65.119a7.378,7.378,0,0,0-2.09-4.291c-8.526-8.966-11.551-11.991-22.168-17.6a24,24,0,0,0,6.491-32.069A23.88,23.88,0,0,0,63.259,2.027,23.606,23.606,0,0,0,50.828,33.05a82.169,82.169,0,0,0-19.087.88c-4.951.77-11.606,1.485-15.677,4.731C6.657,46.032,15.4,62.039,26.35,57.418A43.293,43.293,0,0,1,44.667,54.5c-4.015,16.722-26.4,40.32-40.375,50.936-10.341,7.866.055,21.673,9.736,14.412,6.6-4.951,24.313-18.922,30.969-26.4,1.54-1.705,4.511.275,3.245,2.255-4.4,6.876-5.721,8.031-16.007,17.162-9.571,8.526,1.705,20.022,10.176,14.082,23.323-16.227,38.23-39.66,41.035-65.293A75.978,75.978,0,0,1,96.758,72.16C102.754,77.551,111.28,71.83,110.51,65.119ZM58.584,25.184a.765.765,0,0,1-.825-.77A22,22,0,0,1,63.369,8.9a.987.987,0,0,1,.385-.275c10.726-2.75,24.753,3.3,29.319,7.646l.165.165c1.43,2.53,1.925,10.011-.88,16.282A.745.745,0,0,1,91.2,33C83.832,27.11,74.48,23.919,58.584,25.184Z" transform="translate(-0.003 -0.103)"/>
        <g id="Group_100" data-name="Group 100" transform="translate(62.47 10.214)">
          <path id="Path_292" data-name="Path 292" class="cls-1" d="M113.917,24.683c-.055-.055-.11-.055-.165-.11a.7.7,0,0,1,.055-.99l5.556-4.731A.7.7,0,1,1,120.3,19.9l-5.556,4.731A.66.66,0,0,1,113.917,24.683Z" transform="translate(-113.571 -18.671)"/>
        </g>
        <g id="Group_101" data-name="Group 101" transform="translate(60.633 9.862)">
          <path id="Path_293" data-name="Path 293" class="cls-1" d="M110.709,31.216a.429.429,0,0,1-.22-.22,1.049,1.049,0,0,1,.11-1.485l13.092-11.221a1.053,1.053,0,0,1,1.375,1.6L111.975,31.106A1.083,1.083,0,0,1,110.709,31.216Z" transform="translate(-110.232 -18.032)"/>
        </g>
      </g>
    </g>
    <g id="Ellipse_39" data-name="Ellipse 39" class="cls-3" transform="translate(-6387 1816.547)">
      <circle class="cls-4" cx="7346.778" cy="7346.778" r="7346.778"/>
      <circle class="cls-5" cx="7346.778" cy="7346.778" r="7344.278"/>
    </g>
  </g>
</svg>
