<?xml version="1.0" encoding="UTF-8"?>
<svg width="128px" height="128px" viewBox="0 0 128 128" version="1.1" xmlns="http://www.w3.org/2000/svg" xmlns:xlink="http://www.w3.org/1999/xlink">
    <!-- Generator: Sketch 50.2 (55047) - http://www.bohemiancoding.com/sketch -->
    <title>circle_groovy</title>
    <desc>Created with Sketch.</desc>
    <defs></defs>
    <g id="Page-1" stroke="none" stroke-width="1" fill="none" fill-rule="evenodd">
        <g id="circle_groovy" fill-rule="nonzero">
            <path d="M64,4 C97.137085,4 124,30.862915 124,64 C124,97.137085 97.137085,124 64,124 C30.862915,124 4,97.137085 4,64 C4.03857381,30.878906 30.878906,4.03857381 64,4 Z M64,0 C28.653776,-3.87975164e-16 4.32866401e-15,28.653776 0,64 C-4.32866401e-15,99.346224 28.653776,128 64,128 C99.346224,128 128,99.346224 128,64 C128,47.0261447 121.257162,30.7474942 109.254834,18.745166 C97.2525058,6.74283778 80.9738553,9.92113308e-15 64,0 Z" id="Shape" fill="#231F20"></path>
            <g id="groovy" transform="translate(14.000000, 39.000000)">
                <path d="M19.5747193,49.2099714 C19.5747193,49.0791484 21.3330359,46.1869649 23.4820894,42.7829 C25.6311463,39.3788334 27.1607534,36.5133123 26.8812242,36.4150802 C26.6016933,36.3168497 25.6344839,36.4939227 24.7318703,36.8085753 C22.0134872,37.7562101 21.4549141,37.5050299 19.4245521,34.4219601 C17.2276933,31.0860737 17.1490261,30.7417929 18.2944255,29.4761419 C19.0426008,28.6494276 18.9976057,28.4567149 17.7697664,27.2288756 C17.0311154,26.4902231 16.4267648,25.663439 16.4267648,25.3915769 C16.4267648,24.9343058 11.3956852,22.8608416 3.44145698,20.0399292 C1.63794075,19.4003237 0.162337662,18.7689422 0.162337662,18.6368594 C0.162337662,18.5047718 3.9725224,18.473749 8.62941412,18.5679162 L17.0964937,18.7391273 L17.9229985,17.4355542 C21.4159271,11.9264763 26.6907778,6.95045487 29.0377794,6.95045487 C29.5265131,6.95045487 30.5185278,7.41623084 31.2422485,7.98551088 C32.4207323,8.91250487 32.5825894,9.48691218 32.7925635,13.4874536 C32.9215083,15.9442425 33.1861057,18.1134292 33.3805472,18.307874 C33.5749872,18.5023156 34.1918606,18.2471192 34.7513768,17.7407653 C35.4658898,17.094137 36.2180716,16.9188286 37.2785862,17.1517555 C38.3772161,17.3930558 39.0037648,17.2278838 39.5788102,16.5453545 C40.4414076,15.5215461 44.7583492,8.60100373 44.7583492,8.24198701 C44.7583492,8.11997597 45.6130716,6.65800877 46.6577372,4.99317159 C47.7023946,3.32833442 48.9055683,1.40865357 49.3314498,0.727216558 C50.0888492,-0.484666721 50.2075213,-0.341246916 54.7578979,7.28545292 C59.4561463,15.1599925 61.9847924,18.0657377 63.2507063,17.0448091 C64.1341479,16.3323269 68.7702761,16.2918968 70.0660407,16.9853708 C70.8025099,17.3795153 71.2704498,17.3743481 71.6772161,16.9675753 C72.5213833,16.1234097 74.5424466,16.2704373 75.070742,17.2144552 C75.4869644,17.9581987 75.5931187,17.9581987 76.2103752,17.2144552 C76.5847356,16.7633724 77.6935229,16.3943123 78.6743411,16.3943123 C80.0605164,16.3943123 80.5888476,16.6822458 81.0467485,17.6872295 L81.6358411,18.9801451 L90.7416901,18.657775 C95.7499076,18.4804666 99.8475407,18.4488659 99.8475407,18.5875558 C99.8475407,18.726236 96.1290213,20.2226127 91.5841625,21.9128334 C87.0393054,23.6030477 83.2453638,25.0367052 83.153182,25.0987295 C83.0609985,25.1607539 83.26657,26.6397571 83.6100083,28.3853984 C84.5036073,32.9274714 83.9208167,35.9545364 81.6739222,38.4415737 C80.6659677,39.5572604 79.0305164,40.7376695 78.039583,41.0647052 C77.0486495,41.3917409 76.2378881,41.7767409 76.2378881,41.9202555 C76.2378881,42.0637718 77.2955586,43.8161857 78.5882696,45.8145071 C79.8809791,47.8128334 80.7445683,49.4478269 80.5073476,49.4478269 C80.1201657,49.4478269 70.6908102,45.8045834 56.028617,39.9899211 C53.1375456,38.8433984 50.504781,37.9053286 50.178031,37.9053286 C49.5686755,37.9053286 44.306781,39.8999097 28.8753963,45.9803383 C19.926492,49.5064795 19.5747193,49.6286305 19.5747193,49.2099666 L19.5747193,49.2099714 Z M37.9377843,40.889736 C42.6990651,39.0398886 47.4209937,37.2321386 48.4309628,36.8725169 C50.1680862,36.2539795 50.7490115,36.4090542 59.1864726,39.743676 C64.0920326,41.6824325 68.9320115,43.5709276 69.9419791,43.9403221 C70.9519482,44.3097247 73.0334028,45.1124958 74.5674255,45.7242636 C76.3166187,46.4218351 77.2106901,46.5897929 76.9653281,46.1747247 C74.2244677,41.5381776 74.1406852,41.4609 72.2411674,41.817249 C69.9499969,42.2470737 68.5270489,41.8061289 67.7957631,40.4397263 C67.3215554,39.5536614 67.4663086,39.1203123 68.6487534,37.8861045 C70.4099336,36.0478302 70.1332615,34.35665 67.8623427,33.0791256 C66.9909726,32.5889325 65.8914677,31.3772231 65.4189953,30.3864357 L64.5599547,28.5850039 L62.7181511,29.834887 C60.4544206,31.3710948 57.6936998,31.450249 55.3889888,30.0450299 L53.6901446,29.0092101 L51.7163768,30.3505802 C49.7399774,31.6937393 47.4645781,31.8672685 45.1518443,30.8512166 C44.5146722,30.5712831 44.2336901,30.6800883 44.2336901,31.206749 C44.2336901,31.6241484 43.6323443,32.2396468 42.8973573,32.5745299 C40.6937534,33.5785542 38.5432875,33.3119438 37.0852972,31.8539536 L35.7558427,30.524499 L34.68282,31.8886273 C34.0926593,32.6388968 32.7267291,33.8102149 31.6474222,34.4915461 C30.3114401,35.3349195 28.657583,37.3928156 26.4661885,40.9385607 C24.6958167,43.8030834 23.2473313,46.292525 23.2473313,46.4706646 C23.2473313,46.6487977 24.6048881,46.2227166 26.2641203,45.5238156 C27.9233557,44.8249179 33.1765034,42.7395834 37.9377843,40.889736 Z M78.3220846,38.8997263 C81.9350018,36.8691532 82.7724482,33.1127003 81.1754693,26.1005088 C79.8408265,20.2401825 79.1745765,18.3223805 78.384083,18.0654487 C77.8371641,17.8876841 77.7531187,18.0828172 78.0612615,18.8148562 C80.0604758,23.5644844 80.1715911,25.9490477 78.4249336,26.6193058 C77.2250131,27.0797636 75.952143,25.3545737 74.9510667,21.9109844 C74.1758849,19.2444471 73.3652534,18.0427425 72.7540099,18.653986 C72.6076511,18.8003497 72.8641528,19.6476825 73.3240164,20.5369617 C73.7838752,21.4262312 74.4144726,24.1042588 74.7253427,26.4881305 C75.0362144,28.8719974 75.636682,31.3681192 76.0597144,32.0350656 C77.1590619,33.7682815 78.9089482,33.3505851 80.0408541,31.0847669 C81.1599661,28.8445477 81.286445,30.3367458 80.198208,32.9412636 C79.0682177,35.6457068 75.7121008,36.4566549 71.8241528,34.9647084 C71.2018638,34.7259162 70.9912972,34.9730688 70.9912972,35.9421386 C70.9912972,36.6555006 70.5146446,37.8451338 69.9320635,38.5857588 L68.8728297,39.9323594 L70.3255586,40.177689 C72.8335862,40.6012425 76.2725196,40.0516468 78.3220846,38.8997263 Z M26.3145359,34.4293805 C33.8566869,32.2614422 35.2044515,29.732801 32.6990894,22.4508383 C32.1176203,20.760775 31.6418768,18.9427685 31.6418768,18.4108156 C31.6418768,16.5995948 30.7309157,17.4365282 30.0481869,19.8750088 C29.1452599,23.0999455 26.4294937,25.8410039 24.1479985,25.8301451 C22.1665911,25.8206971 21.5209677,25.4600023 20.7025797,23.9051971 C19.233833,21.1148042 20.8348346,16.8324747 24.9184141,12.6287815 C27.9093735,9.54983604 29.5432404,9.27099497 29.5432404,11.8394877 C29.5432404,15.8448773 26.7816593,21.7412247 25.3268297,20.8420916 C24.615458,20.402439 24.7308265,18.4610006 25.5568979,16.9703237 C26.2593898,15.7026581 26.1166609,13.7710201 25.3205018,13.7710201 C24.3973054,13.7710201 22.5696138,17.1333513 22.3281024,19.2760104 C22.1146041,21.1702084 22.2480927,21.6307912 23.1505894,22.1137896 C26.3133232,23.8064357 30.4566463,18.6405023 30.6653346,12.7443351 C30.774919,9.64803945 30.1756008,8.77662321 28.2661365,9.25586899 C25.4871122,9.95335974 18.000742,19.6108432 18.000742,22.498314 C18.000742,24.7568854 19.1350554,26.345275 21.1319547,26.8829893 C24.5271154,27.7972133 27.8097778,26.1729422 30.1357372,22.4278951 L31.113294,20.8539162 L31.1154369,22.9922653 C31.1180667,26.0886614 29.0981982,27.7207393 22.7228768,29.7727734 C21.1357843,30.2836175 19.7710391,30.7556321 19.690117,30.8216971 C19.3945716,31.0629828 22.3991089,35.2820396 22.8664872,35.2820396 C23.1315229,35.2820396 24.6832323,34.8983399 26.3147388,34.4293805 L26.3145359,34.4293805 Z M71.7555846,30.5851971 C72.5126414,29.7486549 72.6460894,28.8399 72.4837972,25.6260688 C72.3072729,22.1304016 72.1140797,21.5126744 70.7530456,20.0920607 C68.2938216,17.5251873 65.2560927,18.1800023 67.0341836,20.8937068 C67.9794044,22.3362994 69.1324628,22.0899146 68.7251593,20.532374 C68.4007047,19.2916662 69.0060002,19.2590656 70.0609369,20.4604227 C72.0403216,22.7145412 71.5406998,25.8381792 69.2007745,25.8381792 C67.5989628,25.8381792 67.0998086,25.1512052 66.0557209,21.5097409 C65.5799758,19.8505088 65.0005846,18.4929503 64.7681771,18.4929503 C63.9939904,18.4929503 63.6492047,19.1761938 64.130643,19.7563269 C64.3921495,20.0714406 65.1163865,22.3360786 65.7400651,24.788861 C67.3097128,30.9619065 69.5025099,33.0748107 71.7555846,30.5851971 Z M41.9225894,30.6832409 C42.2456057,30.4665201 42.3933281,29.4415315 42.2600326,28.3418448 C42.045018,26.5679779 41.9245424,26.4385818 40.9657631,26.9517036 C39.5879498,27.6890851 38.1072583,26.2920429 37.6050131,23.7808269 C37.2239953,21.8757328 37.107406,21.91315 39.8819222,23.0500656 C40.2297924,23.192611 41.1151544,22.7085039 41.8493946,21.9742636 C43.1925894,20.6310688 43.6347875,19.0176094 42.6597128,19.0176094 C42.3711511,19.0176094 42.1350537,19.2537068 42.1350537,19.5422685 C42.1350537,20.2970136 40.6996138,20.1899666 40.376182,19.4111045 C40.1875067,18.9567555 39.7855862,19.1179373 39.0678784,19.9357636 C38.4980976,20.5850299 37.8021755,21.1162474 37.5213833,21.1162474 C37.2405894,21.1162474 36.8613833,20.5850299 36.678708,19.9357636 C36.3585862,18.7980104 36.3193476,18.7908334 35.5947193,19.7374373 C34.9598817,20.5667458 34.9542047,20.8309162 35.5582567,21.434939 C36.1979677,22.0746532 37.4131511,26.4464682 37.4131511,28.1082247 C37.4131511,30.1745672 40.2588216,31.7995104 41.9226154,30.6832409 L41.9225894,30.6832409 Z M51.4912729,27.9437425 C53.4629726,25.9720429 54.0472015,23.0165623 52.9733232,20.4464097 C52.1340115,18.4376484 50.6771122,17.6858318 48.6228719,18.201413 C47.0964709,18.5845153 44.7717177,23.035275 44.7634774,25.5902701 C44.7506203,29.5722539 48.5379141,30.8970964 51.4912729,27.9437425 Z M47.9063037,24.788861 C47.3291771,24.2117344 46.8644937,23.0902766 46.8736706,22.2967295 C46.888833,20.9850981 46.9537274,20.9373951 47.5873378,21.7720705 C48.3705586,22.8038383 49.762333,22.9825672 50.2955213,22.1198497 C50.4894044,21.8061468 50.3852859,21.2867295 50.0641576,20.9656013 C49.239268,20.1407117 49.3392209,19.0176094 50.2375213,19.0176094 C51.2361203,19.0176094 52.6282339,21.0492279 52.6282339,22.5065558 C52.6282339,23.5790786 50.4457015,25.8381792 49.4095261,25.8381792 C49.1598752,25.8381792 48.4834287,25.3659844 47.9063037,24.788861 Z M61.9239937,27.8056484 C64.1010619,25.4350916 63.8888898,21.7832458 61.421031,19.148775 C60.1465878,17.788288 57.3150278,17.5537231 56.1561203,18.7126321 C55.0867031,19.7820494 54.0190018,23.9874747 54.4156625,25.5678935 C55.2616398,28.9385396 59.6754693,30.2540169 61.9239937,27.8056484 Z M57.4669076,23.9721224 C56.6055067,23.3687718 56.3095359,22.6491127 56.3341057,21.217663 C56.3615976,19.6169601 56.4451933,19.472564 56.8148606,20.3874438 C57.3579985,21.7316516 58.4971528,22.2392847 59.4963768,21.5823951 C60.1161057,21.1749877 60.0871706,20.9824 59.3176365,20.392611 C58.2913557,19.6060477 58.0911625,18.4929503 58.9759726,18.4929503 C59.7671479,18.4929503 62.596755,21.5881873 62.596755,22.4536289 C62.596755,23.2982977 60.5874385,24.788861 59.4488021,24.788861 C59.0000927,24.788861 58.1082339,24.4213253 57.4669076,23.9721224 Z M88.305044,21.6525006 L93.8139644,19.5848351 L87.9115489,19.5635282 C82.6292112,19.5444763 82.0098865,19.6387019 82.0162972,20.4604032 C82.022807,21.292801 82.5570002,23.7532523 82.7261511,23.7298302 C82.7646609,23.7244893 85.2751398,22.7896938 88.305044,21.6524795 L88.305044,21.6525006 Z M16.3093573,21.2824844 L16.8723849,19.6124179 L11.9264661,19.4461776 C9.20621542,19.3547458 6.98107906,19.4247279 6.98172906,19.6017036 C6.98267062,19.8606532 15.5055229,23.1905136 15.6930505,23.0051971 C15.7223281,22.976236 15.9996933,22.2010218 16.3093573,21.2824844 Z M50.2231885,16.1060315 C51.3866089,16.2920705 52.698807,16.7682458 53.1391885,17.1642052 C53.823083,17.7791127 54.1205651,17.7372019 55.1784856,16.8768919 C55.8597242,16.3229146 56.7450862,15.8696565 57.145958,15.8696565 C57.546833,15.8696565 57.8748248,15.7538968 57.8748248,15.6124049 C57.8748248,15.1239016 50.3197047,2.75322955 50.0315667,2.76993571 C49.6930927,2.78955779 41.949419,15.7712312 41.7110083,16.7186971 C41.6109531,17.1163464 41.9249758,17.2631305 42.5346511,17.1036971 C43.0765927,16.9619763 43.8259109,17.2146159 44.1997924,17.6651192 C44.8061885,18.3957799 45.0538638,18.3375688 46.4937339,17.1260006 C47.8616674,15.9749601 48.4305521,15.8193773 50.2231885,16.1060315 Z" id="path4019" fill="#231F20"></path>
                <path d="M44.6670765,18.0715948 C44.5857859,18.0337523 44.4855765,17.9469211 44.2567193,17.7160185 C43.9463492,17.402874 43.8229726,17.3117766 43.5649856,17.2052588 C43.2260391,17.0653172 42.8580213,17.027624 42.5126625,17.0974812 C42.2045326,17.1598075 42.1190992,17.1665185 41.9798021,17.1393318 C41.7472956,17.0939536 41.6646122,16.9527588 41.7304791,16.7135656 C41.8125781,16.4154211 42.4345261,15.2618529 43.6799904,13.0976776 C46.2098119,8.70173799 49.6111982,3.15920877 49.9868995,2.82062208 C50.0285083,2.78312305 50.029919,2.78312305 50.0717177,2.82062208 C50.295367,3.02126753 51.6100619,5.04885081 53.4061917,7.96320292 C55.835893,11.9055737 57.8560326,15.3728968 57.8560326,15.6008172 C57.8560326,15.7399877 57.6423833,15.8235688 57.1927356,15.8603058 C56.6339271,15.9059617 55.9874141,16.2339877 55.1036333,16.9202669 C54.6836463,17.2464 54.5044028,17.3682101 54.2999612,17.4664325 C54.1296235,17.5482685 54.1153963,17.5515575 53.9316917,17.5515575 C53.7508995,17.5515575 53.7325667,17.5475153 53.5913946,17.4766744 C53.5082567,17.4349503 53.3471268,17.3225672 53.2275067,17.2228724 C52.8738573,16.9281305 52.448419,16.7137588 51.7547843,16.480788 C50.8732956,16.1847231 49.9293719,16.0070218 49.125643,15.9858269 C48.4910099,15.9690932 48.1983687,16.0260834 47.7171982,16.2601175 C47.3243606,16.4511857 47.1350213,16.5869211 46.2359076,17.3220412 C45.3213362,18.0697961 44.9965537,18.2249714 44.6670765,18.0715948 Z" id="path4567" fill="#6398AA"></path>
                <path d="M15.298906,22.9189617 C13.6497177,22.4383286 7.9120276,20.1722701 7.10882094,19.6843464 C6.99795795,19.6170023 6.98899984,19.6067701 7.02063799,19.5836354 C7.20433328,19.4493156 9.02355731,19.3824974 11.0797339,19.434551 C11.8997518,19.4553107 16.8429352,19.6185169 16.8509839,19.6250981 C16.867169,19.6383286 15.7922761,22.7563968 15.7096674,22.9358659 C15.675169,23.0108172 15.6040456,23.0078903 15.298906,22.9189617 Z" id="path4571" fill="#6398AA"></path>
                <path d="M82.6781706,23.6610964 C82.4531381,23.2206955 82.0470521,21.2307929 82.0351869,20.5103529 C82.0305765,20.2304438 82.0654904,20.1162929 82.1911284,20.0004828 C82.4790797,19.7350591 83.0644044,19.6395737 84.6732989,19.5955575 C85.4855505,19.5733351 89.2352956,19.5699146 91.8829206,19.5889828 L93.7382112,19.6023432 L89.2710521,21.2767377 C85.1975261,22.8035883 82.8287258,23.6860331 82.7410343,23.7093513 C82.7190911,23.7151955 82.6972339,23.6984097 82.6781706,23.6610997 L82.6781706,23.6610964 Z" id="path4573" fill="#6398AA"></path>
                <path d="M23.326583,46.4214503 C23.326583,46.2963237 23.8572485,45.3608821 25.2022242,43.1151224 C28.4248183,37.7342279 29.8981901,35.7839341 31.7075683,34.5040364 C33.326281,33.3590088 34.1917875,32.5674455 35.1564953,31.349762 L35.7513151,30.5989633 L36.5532469,31.3873594 C37.957117,32.7675364 38.803458,33.1676646 40.335255,33.1753984 C42.2087258,33.1848627 44.2603346,32.1383692 44.2603346,31.1732896 C44.2603346,30.9557896 44.4152112,30.7313481 44.5652972,30.7313481 C44.6288232,30.7313481 44.9901122,30.8423302 45.3681625,30.9779763 C46.3535391,31.3315315 46.9315196,31.4593854 47.7397729,31.5025948 C48.5417177,31.5454666 49.1275131,31.4749325 49.908307,31.2414893 C50.6754515,31.0121256 51.1172502,30.7773578 52.4405034,29.8959016 C53.1073216,29.4517166 53.674195,29.0882929 53.7002242,29.0882929 C53.7262518,29.0882929 54.2075846,29.3673448 54.7698508,29.7084081 C55.332117,30.0494714 56.0077437,30.419663 56.2712453,30.5310558 C58.0680992,31.290663 60.0089807,31.2411045 61.7860602,30.3902425 C62.1039093,30.2380558 62.8522826,29.7846029 63.4491122,29.3825688 C64.0459433,28.9805347 64.5426398,28.6608545 64.5528833,28.6721695 C64.5631268,28.6834844 64.789255,29.1463253 65.0553898,29.7007052 C65.3215261,30.2550851 65.6558687,30.8803643 65.7983752,31.0902133 C66.4152599,31.9986192 67.1256284,32.6732344 68.0846463,33.2614211 C69.0718573,33.8669 69.6807599,34.6716159 69.7435456,35.4538026 C69.8058297,36.2297247 69.4670375,36.9179893 68.489992,38.0004276 C67.7274157,38.8452636 67.5365343,39.1750055 67.5385099,39.6440818 C67.5404904,40.113663 67.8146511,40.6552084 68.2965683,41.1414503 C69.0766544,41.9285347 70.3007972,42.1621922 72.1010067,41.8676175 C72.502643,41.8018968 73.0092518,41.7478821 73.2268037,41.7475883 C73.9225034,41.7466143 74.3474515,42.0878399 75.157406,43.2976841 C75.7164174,44.1326922 76.938893,46.1800023 76.938893,46.2811841 C76.938893,46.3337929 76.8818394,46.3708075 76.8007485,46.3708075 C76.630117,46.3708075 75.8879011,46.1688919 75.3507258,45.9763367 C74.6448005,45.7232929 66.0532615,42.4040542 63.216333,41.2883578 C55.6410894,38.3091987 53.1468443,37.3577636 51.9279287,36.9823692 C50.6106933,36.5766955 49.7135959,36.4815218 48.9852972,36.6701841 C48.0794596,36.9048367 35.7189547,41.6813659 28.5092502,44.5828383 C24.948992,46.0156305 24.5031641,46.1860477 23.8369839,46.3688107 C23.3072713,46.514137 23.326583,46.5121451 23.326583,46.4214503 Z" id="path4575" fill="#6398AA"></path>
            </g>
        </g>
    </g>
</svg>