<?xml version="1.0" encoding="UTF-8"?>
<svg width="94px" height="94px" viewBox="0 0 94 94" version="1.1" xmlns="http://www.w3.org/2000/svg" xmlns:xlink="http://www.w3.org/1999/xlink">
    <!-- Generator: Sketch 52.6 (67491) - http://www.bohemiancoding.com/sketch -->
    <title>elasticsearch</title>
    <desc>Created with Sketch.</desc>
    <defs>
        <polygon id="path-1" points="4.5227953e-16 0 47 0 47 47 4.5227953e-16 47"></polygon>
    </defs>
    <g id="Page-1" stroke="none" stroke-width="1" fill="none" fill-rule="evenodd">
        <g id="elasticsearch" transform="translate(1.000000, 1.000000)">
            <circle id="Oval" stroke="#4CAFDE" stroke-width="2.8347" cx="45.79" cy="45.79" r="45.374"></circle>
            <g id="elastic-cluster-black" transform="translate(22.000000, 22.000000)">
                <mask id="mask-2" fill="white">
                    <use xlink:href="#path-1"></use>
                </mask>
                <g id="Clip-2"></g>
                <path d="M39.8427082,32.0127816 L32.0902005,30.1924321 L30.0311828,26.2421919 L40.1709113,17.3241347 C43.1779831,18.4675623 45.1821679,21.3623309 45.1821679,24.6019427 C45.1821679,27.9360922 42.9928225,30.9676812 39.8427082,32.0127816 Z M34.0147185,41.2148507 C32.8070025,41.2148507 31.6239216,40.808179 30.6573912,40.0622486 L32.1899329,32.0456903 L39.231996,33.6999007 C39.4555,34.3102074 39.5685433,34.9614007 39.5685433,35.6395193 C39.5685433,38.7141887 37.077418,41.2148507 34.0147185,41.2148507 Z M28.8494925,40.062448 C26.6833916,43.2669572 23.0966002,45.1760605 19.2384253,45.1760605 C12.8239613,45.1760605 7.60569042,39.937395 7.60569042,33.4990579 C7.60569042,32.7088503 7.68257578,31.9278173 7.83277043,31.1749062 L17.9514399,21.9939784 L28.2765278,26.718271 L30.5624268,31.1037038 L28.8494925,40.062448 Z M1.81743479,22.4040407 C1.81743479,19.0708884 4.00678015,16.0404962 7.15570247,14.9930024 L14.8907272,16.8273132 L16.7063739,20.7217083 L6.81796317,29.6944138 C3.81705013,28.5475956 1.81743479,25.6494365 1.81743479,22.4040407 Z M12.9848842,5.79053435 C14.2076991,5.79053435 15.3967401,6.19501214 16.3596945,6.93396194 L14.8154312,14.9784428 L7.76760662,13.3078777 C7.54410267,12.697571 7.43105933,12.0463777 7.43105933,11.3670624 C7.43105933,8.29239302 9.92198603,5.79053435 12.9848842,5.79053435 Z M18.1964003,6.94911989 C20.3658786,3.77731995 23.935187,1.885768 27.761972,1.885768 C34.1589531,1.885768 39.362125,7.11047222 39.362125,13.5322552 C39.362125,14.3178755 39.2888157,15.0685927 39.1386211,15.8215037 L28.7622763,24.948581 L18.4781146,20.2418397 L16.4705524,15.9383795 L18.1964003,6.94911989 Z M47,24.6238818 C47,20.6694533 44.5575488,17.2122452 40.8821505,15.8669776 C41.0436694,15.0334901 41.1281042,14.1998031 41.1281042,13.3316119 C41.1281042,5.98080644 35.1705816,0 27.8472015,0 C23.5694352,0 19.5898729,2.05968547 17.08941,5.52985759 C15.8598403,4.57231426 14.349947,4.04757015 12.7748898,4.04757015 C8.88790775,4.04757015 5.72567453,7.22216234 5.72567453,11.1241364 C5.72567453,11.9863443 5.8790479,12.8116545 6.16652365,13.5904936 C2.51238307,14.914221 0,18.4524044 0,22.3819021 C0,26.3566742 2.45417271,29.8294392 6.14625929,31.1651333 C5.98950852,31.9892469 5.90388168,32.8394879 5.90388168,33.6993024 C5.90388168,41.0335537 11.8471,47 19.1527985,47 C23.4410943,47 27.4182726,44.9321372 29.9046299,41.4474055 C31.1423451,42.422899 32.6558145,42.9584133 34.2251102,42.9584133 C38.1118936,42.9584133 41.2741268,39.7850177 41.2741268,35.8830436 C41.2741268,35.0206364 41.1209521,34.1943289 40.8334763,33.4154898 C44.4874183,32.0929591 47,28.5533796 47,24.6238818 Z" id="Fill-1" fill="#4CAFDE" mask="url(#mask-2)"></path>
            </g>
        </g>
    </g>
</svg>