<?xml version="1.0" encoding="UTF-8"?>
<svg width="719px" height="719px" viewBox="0 0 719 719" version="1.1" xmlns="http://www.w3.org/2000/svg" xmlns:xlink="http://www.w3.org/1999/xlink">
    <!-- Generator: Sketch 49 (51002) - http://www.bohemiancoding.com/sketch -->
    <title>foots</title>
    <desc>Created with Sketch.</desc>
    <defs>
        <rect id="path-1" x="103" y="506" width="514" height="9"></rect>
    </defs>
    <g id="Page-1" stroke="none" stroke-width="1" fill="none" fill-rule="evenodd">
        <g id="foots">
            <g id="Group_137" transform="translate(503.619403, 287.714389) rotate(17.000000) translate(-503.619403, -287.714389) translate(444.619403, 166.714389)" fill="#B6434B" fill-rule="nonzero">
                <g id="Group_118">
                    <g id="Group_113" transform="translate(21.387000, 19.237000)">
                        <path d="M55.978,10.715 C44.278,-3.761 21.617,-3.761 11.378,11.885 C11.1145303,12.2622722 10.8705445,12.6527831 10.647,13.055 C6.31315007,20.5520786 3.06415024,28.6257591 0.997,37.035 L71.039,37.035 C67.3202641,27.5783576 62.2469092,18.7123658 55.978,10.715 Z" id="Path_357"></path>
                    </g>
                    <path d="M21.51,103.499 C22.095,106.57 22.826,109.494 23.41,112.565 L97.986,112.565 L98.717,91.656 C98.717,90.048 98.717,88.439 98.571,86.831 L97.544,75.572 C97.5188769,74.7846767 97.4211289,74.0013534 97.252,73.232 L19.61,73.232 C18.7058724,83.358989 19.3465246,93.5645787 21.51,103.499 Z" id="Path_358"></path>
                    <g id="Group_115" transform="translate(25.458000, 129.380000)">
                        <path d="M3.363,13.452 L0,39.187 L70.77,39.187 L71.94,0 L1.462,0 C2.778,6.726 3.509,11.7 3.363,13.452 Z" id="Path_359"></path>
                    </g>
                    <g id="Group_116" transform="translate(22.961000, 185.528000)">
                        <path d="M0.308,0.146 C-2.324,20.617 12.444,37.432 33.208,37.432 C54.2103915,37.3966712 71.5322002,20.9709241 72.682,0 L0.304,0.146 L0.308,0.146 Z" id="Path_360"></path>
                    </g>
                    <g id="Group_117">
                        <path d="M56.164,241.238 C41.3365863,241.422097 27.1542726,235.183834 17.27,224.13 C7.47,213.017 3.233,198.542 5.28,183.33 L10.69,141.804 C10.251,137.569 7.327,124.263 5.427,115.2 L5.281,114.761 C4.696,112.275 4.257,109.79 3.673,107.304 C-2.51753703,78.7138135 2.00947819,48.845691 16.394,23.374 L17.71,21.181 C25.9202218,8.50187613 40.0351608,0.891574708 55.14,1 C69.362314,0.97175017 82.8209621,7.43175397 91.695,18.546 C104.416,34.484 114.359,57.294 115.821,74.109 L116.845,85.368 C117.039801,87.7023426 117.088563,90.046576 116.991,92.387 L113.92,185.387 C112.976377,216.57581 87.3669129,241.340583 56.164,241.238 Z M55.14,8.311 C42.4936829,8.247047 30.6697001,14.5714504 23.703,25.126 C23.264,25.711 22.972,26.296 22.533,26.881 C9.15201745,50.8970935 4.94373194,78.9539885 10.69,105.839 C11.275,108.325 11.714,110.81 12.298,113.296 L12.444,113.735 C15.222,126.602 17.562,137.715 17.854,141.663 L17.854,142.102 L12.444,184.359 C10.689,197.519 14.344,209.947 22.679,219.452 C31.014,228.957 42.857,234.074 56.163,234.074 C83.434291,234.155185 105.806447,212.4966 106.609,185.237 L109.68,92.095 C109.68,90.048 109.68,88.001 109.534,85.954 L108.51,74.695 C107.194,59.195 97.836,37.995 85.992,23.226 C78.5253157,13.8037459 67.1620733,8.3103334 55.14,8.311 Z" id="Path_361"></path>
                    </g>
                </g>
            </g>
            <g id="Group_138" transform="translate(186.148824, 327.348048) rotate(-26.000000) translate(-186.148824, -327.348048) translate(145.148824, 243.348048)" fill="#4CAFDE" fill-rule="nonzero">
                <g id="Group_118-2">
                    <g id="Group_113-2" transform="translate(17.291000, 13.608000)">
                        <path d="M10.575,7.408 C18.788,-2.6 34.7,-2.6 41.889,8.216 C42.0737841,8.47667489 42.2450112,8.74669967 42.402,9.025 C45.4413399,14.1987697 47.7232211,19.7815656 49.178,25.603 L0,25.603 C2.61779659,19.054243 6.1806048,12.9241914 10.575,7.408 Z" id="Path_357-2"></path>
                    </g>
                    <path d="M67.085,71.863 C66.674,73.986 66.161,76.008 65.75,78.13 L13.389,78.13 L12.876,63.674 C12.876,62.562 12.876,61.45 12.976,60.338 L13.695,52.554 C13.7126863,52.0097808 13.7813195,51.4684154 13.9,50.937 L68.419,50.937 C69.0539235,57.9394187 68.603957,64.9978879 67.085,71.863 Z" id="Path_358-2"></path>
                    <g id="Group_115-2" transform="translate(13.800000, 89.755000)">
                        <path d="M48.152,9.3 L50.513,27.091 L0.821,27.091 L0,0 L49.486,0 C48.562,4.65 48.049,8.087 48.152,9.3 Z" id="Path_359-2"></path>
                    </g>
                    <g id="Group_116-2" transform="translate(15.032000, 128.573000)">
                        <path d="M50.821,0.1 C52.669,14.252 42.299,25.877 27.721,25.877 C13.0839264,25.958685 0.924473075,14.608078 -3.55271368e-15,-1.42108547e-14 L50.821,0.1 Z" id="Path_360-2"></path>
                    </g>
                    <g id="Group_117-2">
                        <path d="M42.753,167.088 C53.1285246,167.231269 63.0691135,162.92635 70.063,155.261 C76.9339319,147.58665 80.021057,137.246119 78.482,127.061 L74.682,98.352 C74.99,95.42 77.043,86.221 78.382,79.952 L78.482,79.652 C78.893,77.934 79.201,76.215 79.611,74.497 C83.9556675,54.7176615 80.7709941,34.0290505 70.679,16.472 L69.755,14.956 C63.9233956,6.15248813 54.0313282,0.899903106 43.472,1 C33.5235961,0.962306079 24.0905125,5.42049283 17.804,13.131 C8.872,24.149 1.891,39.919 0.864,51.544 L0.145,59.328 C0.00908460079,60.9415907 -0.0243158254,62.5621794 0.045,64.18 L2.201,128.472 C2.917,150.1 20.782,167.088 42.753,167.088 Z M43.472,6.054 C52.3121403,5.98918392 60.5979746,10.3533895 65.545,17.68 C65.853,18.08 66.058,18.489 66.366,18.893 C75.7544291,35.4475848 78.7152883,54.8806041 74.683,73.48 C74.272,75.198 73.964,76.917 73.554,78.635 L73.454,78.935 C71.503,87.835 69.861,95.513 69.654,98.243 L69.654,98.543 L73.454,127.757 C74.7780616,136.509881 72.1448955,145.398603 66.267,152.018 C60.415,158.589 52.099,162.127 42.756,162.127 C23.7550405,162.324728 8.05023473,147.35941 7.332,128.371 L5.176,63.978 C5.176,62.563 5.176,61.148 5.276,59.732 L5.995,51.948 C6.919,41.233 13.49,26.575 21.806,16.365 C27.0966305,9.82780321 35.0621592,6.03695272 43.472,6.054 Z" id="Path_361-2"></path>
                    </g>
                </g>
            </g>
            <g id="Path_378">
                <path d="M359.5,0 C558.046,0 719,160.954 719,359.5 C719,558.046 558.046,719 359.5,719 C160.954,719 0,558.046 0,359.5 C0,160.954 160.954,0 359.5,0 Z" id="Shape"></path>
                <path d="M359.5,709 C552.215027,709 709,552.215027 709,359.5 C709,166.785004 552.215027,10 359.5,10 C166.785004,10 10,166.785004 10,359.5 C10,552.215027 166.785004,709 359.5,709 Z M359.5,719 C160.953705,719 0,558.046326 0,359.5 C0,160.953705 160.953705,0 359.5,0 C558.046326,0 719,160.953705 719,359.5 C719,558.046326 558.046326,719 359.5,719 Z" id="Shape" fill="#FFFFFF" fill-rule="nonzero"></path>
            </g>
            <text id="micronaut" font-family="FiraSans-Regular, Fira Sans" font-size="30" font-weight="normal" fill="#FFFFFF">
                <tspan x="127.6" y="449">micronaut</tspan>
            </text>
            <text id="spring-/-grails" font-family="FiraSans-Regular, Fira Sans" font-size="30" font-weight="normal" fill="#FFFFFF">
                <tspan x="415.345" y="449">spring / grails</tspan>
            </text>
            <text id="Memory-Footprint" font-family="FiraSans-Regular, Fira Sans" font-size="45" font-weight="normal" fill="#FFFFFF">
                <tspan x="175.4225" y="604">Memory Footprint</tspan>
            </text>
            <g id="Rectangle-2">
                <use fill="#FFFFFF" fill-rule="evenodd" xlink:href="#path-1"></use>
                <rect x="103" y="506" width="514" height="9"></rect>
            </g>
        </g>
    </g>
</svg>