<?xml version="1.0" encoding="UTF-8"?>
<svg width="719px" height="719px" viewBox="0 0 719 719" version="1.1" xmlns="http://www.w3.org/2000/svg" xmlns:xlink="http://www.w3.org/1999/xlink">
    <!-- Generator: Sketch 49 (51002) - http://www.bohemiancoding.com/sketch -->
    <title>foots</title>
    <desc>Created with Sketch.</desc>
    <defs></defs>
    <g id="Page-1" stroke="none" stroke-width="1" fill="none" fill-rule="evenodd">
        <g id="foots">
            <g id="Group_137" transform="translate(503.619403, 287.714389) rotate(17.000000) translate(-503.619403, -287.714389) translate(444.619403, 166.714389)" fill="#B6434B" fill-rule="nonzero">
                <g id="Group_118">
                    <g id="Group_113" transform="translate(21.387000, 19.237000)">
                        <path d="M55.978,10.715 C44.278,-3.761 21.617,-3.761 11.378,11.885 C11.1145303,12.2622722 10.8705445,12.6527831 10.647,13.055 C6.31315007,20.5520786 3.06415024,28.6257591 0.997,37.035 L71.039,37.035 C67.3202641,27.5783576 62.2469092,18.7123658 55.978,10.715 Z" id="Path_357"></path>
                    </g>
                    <path d="M21.51,103.499 C22.095,106.57 22.826,109.494 23.41,112.565 L97.986,112.565 L98.717,91.656 C98.717,90.048 98.717,88.439 98.571,86.831 L97.544,75.572 C97.5188769,74.7846767 97.4211289,74.0013534 97.252,73.232 L19.61,73.232 C18.7058724,83.358989 19.3465246,93.5645787 21.51,103.499 Z" id="Path_358"></path>
                    <g id="Group_115" transform="translate(25.458000, 129.380000)">
                        <path d="M3.363,13.452 L0,39.187 L70.77,39.187 L71.94,0 L1.462,0 C2.778,6.726 3.509,11.7 3.363,13.452 Z" id="Path_359"></path>
                    </g>
                    <g id="Group_116" transform="translate(22.961000, 185.528000)">
                        <path d="M0.308,0.146 C-2.324,20.617 12.444,37.432 33.208,37.432 C54.2103915,37.3966712 71.5322002,20.9709241 72.682,0 L0.304,0.146 L0.308,0.146 Z" id="Path_360"></path>
                    </g>
                    <g id="Group_117">
                        <path d="M56.164,241.238 C41.3365863,241.422097 27.1542726,235.183834 17.27,224.13 C7.47,213.017 3.233,198.542 5.28,183.33 L10.69,141.804 C10.251,137.569 7.327,124.263 5.427,115.2 L5.281,114.761 C4.696,112.275 4.257,109.79 3.673,107.304 C-2.51753703,78.7138135 2.00947819,48.845691 16.394,23.374 L17.71,21.181 C25.9202218,8.50187613 40.0351608,0.891574708 55.14,1 C69.362314,0.97175017 82.8209621,7.43175397 91.695,18.546 C104.416,34.484 114.359,57.294 115.821,74.109 L116.845,85.368 C117.039801,87.7023426 117.088563,90.046576 116.991,92.387 L113.92,185.387 C112.976377,216.57581 87.3669129,241.340583 56.164,241.238 Z M55.14,8.311 C42.4936829,8.247047 30.6697001,14.5714504 23.703,25.126 C23.264,25.711 22.972,26.296 22.533,26.881 C9.15201745,50.8970935 4.94373194,78.9539885 10.69,105.839 C11.275,108.325 11.714,110.81 12.298,113.296 L12.444,113.735 C15.222,126.602 17.562,137.715 17.854,141.663 L17.854,142.102 L12.444,184.359 C10.689,197.519 14.344,209.947 22.679,219.452 C31.014,228.957 42.857,234.074 56.163,234.074 C83.434291,234.155185 105.806447,212.4966 106.609,185.237 L109.68,92.095 C109.68,90.048 109.68,88.001 109.534,85.954 L108.51,74.695 C107.194,59.195 97.836,37.995 85.992,23.226 C78.5253157,13.8037459 67.1620733,8.3103334 55.14,8.311 Z" id="Path_361"></path>
                    </g>
                </g>
            </g>
            <g id="Group_138" transform="translate(186.148824, 327.348048) rotate(-26.000000) translate(-186.148824, -327.348048) translate(145.148824, 243.348048)" fill="#4CAFDE" fill-rule="nonzero">
                <g id="Group_118-2">
                    <g id="Group_113-2" transform="translate(17.291000, 13.608000)">
                        <path d="M10.575,7.408 C18.788,-2.6 34.7,-2.6 41.889,8.216 C42.0737841,8.47667489 42.2450112,8.74669967 42.402,9.025 C45.4413399,14.1987697 47.7232211,19.7815656 49.178,25.603 L0,25.603 C2.61779659,19.054243 6.1806048,12.9241914 10.575,7.408 Z" id="Path_357-2"></path>
                    </g>
                    <path d="M67.085,71.863 C66.674,73.986 66.161,76.008 65.75,78.13 L13.389,78.13 L12.876,63.674 C12.876,62.562 12.876,61.45 12.976,60.338 L13.695,52.554 C13.7126863,52.0097808 13.7813195,51.4684154 13.9,50.937 L68.419,50.937 C69.0539235,57.9394187 68.603957,64.9978879 67.085,71.863 Z" id="Path_358-2"></path>
                    <g id="Group_115-2" transform="translate(13.800000, 89.755000)">
                        <path d="M48.152,9.3 L50.513,27.091 L0.821,27.091 L0,0 L49.486,0 C48.562,4.65 48.049,8.087 48.152,9.3 Z" id="Path_359-2"></path>
                    </g>
                    <g id="Group_116-2" transform="translate(15.032000, 128.573000)">
                        <path d="M50.821,0.1 C52.669,14.252 42.299,25.877 27.721,25.877 C13.0839264,25.958685 0.924473075,14.608078 -3.55271368e-15,-1.42108547e-14 L50.821,0.1 Z" id="Path_360-2"></path>
                    </g>
                    <g id="Group_117-2">
                        <path d="M42.753,167.088 C53.1285246,167.231269 63.0691135,162.92635 70.063,155.261 C76.9339319,147.58665 80.021057,137.246119 78.482,127.061 L74.682,98.352 C74.99,95.42 77.043,86.221 78.382,79.952 L78.482,79.652 C78.893,77.934 79.201,76.215 79.611,74.497 C83.9556675,54.7176615 80.7709941,34.0290505 70.679,16.472 L69.755,14.956 C63.9233956,6.15248813 54.0313282,0.899903106 43.472,1 C33.5235961,0.962306079 24.0905125,5.42049283 17.804,13.131 C8.872,24.149 1.891,39.919 0.864,51.544 L0.145,59.328 C0.00908460079,60.9415907 -0.0243158254,62.5621794 0.045,64.18 L2.201,128.472 C2.917,150.1 20.782,167.088 42.753,167.088 Z M43.472,6.054 C52.3121403,5.98918392 60.5979746,10.3533895 65.545,17.68 C65.853,18.08 66.058,18.489 66.366,18.893 C75.7544291,35.4475848 78.7152883,54.8806041 74.683,73.48 C74.272,75.198 73.964,76.917 73.554,78.635 L73.454,78.935 C71.503,87.835 69.861,95.513 69.654,98.243 L69.654,98.543 L73.454,127.757 C74.7780616,136.509881 72.1448955,145.398603 66.267,152.018 C60.415,158.589 52.099,162.127 42.756,162.127 C23.7550405,162.324728 8.05023473,147.35941 7.332,128.371 L5.176,63.978 C5.176,62.563 5.176,61.148 5.276,59.732 L5.995,51.948 C6.919,41.233 13.49,26.575 21.806,16.365 C27.0966305,9.82780321 35.0621592,6.03695272 43.472,6.054 Z" id="Path_361-2"></path>
                    </g>
                </g>
            </g>
            <g id="Path_378">
                <path d="M359.5,0 C558.046,0 719,160.954 719,359.5 C719,558.046 558.046,719 359.5,719 C160.954,719 0,558.046 0,359.5 C0,160.954 160.954,0 359.5,0 Z" id="Shape"></path>
                <path d="M359.5,709 C552.215027,709 709,552.215027 709,359.5 C709,166.785004 552.215027,10 359.5,10 C166.785004,10 10,166.785004 10,359.5 C10,552.215027 166.785004,709 359.5,709 Z M359.5,719 C160.953705,719 0,558.046326 0,359.5 C0,160.953705 160.953705,0 359.5,0 C558.046326,0 719,160.953705 719,359.5 C719,558.046326 558.046326,719 359.5,719 Z" id="Shape" fill="#FFFFFF" fill-rule="nonzero"></path>
            </g>
            <path d="M150.19,449 L145.36,449 L145,440.87 C144.899999,438.92999 144.85,437.200008 144.85,435.68 C144.85,434.519994 144.88,433.420005 144.94,432.38 L141.73,446.81 L137.08,446.81 L133.66,432.38 C133.780001,434.120009 133.84,435.759992 133.84,437.3 C133.84,438.460006 133.81,439.669994 133.75,440.93 L133.39,449 L128.59,449 L130.15,428.21 L136.36,428.21 L139.48,442.31 L142.39,428.21 L148.63,428.21 L150.19,449 Z M157.99,449 L153.25,449 L153.25,433.07 L157.99,433.07 L157.99,449 Z M155.59,424.67 C156.410004,424.67 157.084997,424.924997 157.615,425.435 C158.145003,425.945003 158.41,426.589996 158.41,427.37 C158.41,428.150004 158.145003,428.794997 157.615,429.305 C157.084997,429.815003 156.410004,430.07 155.59,430.07 C154.769996,430.07 154.100003,429.815003 153.58,429.305 C153.059997,428.794997 152.8,428.150004 152.8,427.37 C152.8,426.589996 153.059997,425.945003 153.58,425.435 C154.100003,424.924997 154.769996,424.67 155.59,424.67 Z M168.61,432.56 C169.710005,432.56 170.699996,432.719998 171.58,433.04 C172.460004,433.360002 173.289996,433.849997 174.07,434.51 L172.03,437.33 C171.029995,436.569996 170.020005,436.19 169,436.19 C167.939995,436.19 167.140003,436.579996 166.6,437.36 C166.059997,438.140004 165.79,439.399991 165.79,441.14 C165.79,442.820008 166.059997,444.009996 166.6,444.71 C167.140003,445.410004 167.919995,445.76 168.94,445.76 C169.480003,445.76 169.969998,445.675001 170.41,445.505 C170.850002,445.334999 171.379997,445.060002 172,444.68 L174.07,447.62 C172.489992,448.880006 170.70001,449.51 168.7,449.51 C167.079992,449.51 165.680006,449.165003 164.5,448.475 C163.319994,447.784997 162.410003,446.815006 161.77,445.565 C161.129997,444.314994 160.81,442.850008 160.81,441.17 C160.81,439.489992 161.129997,438.000006 161.77,436.7 C162.410003,435.399993 163.319994,434.385004 164.5,433.655 C165.680006,432.924996 167.049992,432.56 168.61,432.56 Z M184.72,432.62 C185.300003,432.62 185.829998,432.689999 186.31,432.83 L185.56,437.42 C184.959997,437.279999 184.480002,437.21 184.12,437.21 C183.199995,437.21 182.490003,437.529997 181.99,438.17 C181.489997,438.810003 181.100001,439.769994 180.82,441.05 L180.82,449 L176.08,449 L176.08,433.07 L180.22,433.07 L180.61,436.13 C180.970002,435.029994 181.514996,434.170003 182.245,433.55 C182.975004,432.929997 183.799995,432.62 184.72,432.62 Z M194.71,432.56 C197.150012,432.56 199.059993,433.304993 200.44,434.795 C201.820007,436.285007 202.51,438.369987 202.51,441.05 C202.51,442.750008 202.195003,444.234994 201.565,445.505 C200.934997,446.775006 200.035006,447.759996 198.865,448.46 C197.694994,449.160004 196.310008,449.51 194.71,449.51 C192.289988,449.51 190.385007,448.765007 188.995,447.275 C187.604993,445.784993 186.91,443.700013 186.91,441.02 C186.91,439.319992 187.224997,437.835006 187.855,436.565 C188.485003,435.294994 189.384994,434.310003 190.555,433.61 C191.725006,432.909996 193.109992,432.56 194.71,432.56 Z M194.71,436.04 C193.749995,436.04 193.030002,436.444996 192.55,437.255 C192.069998,438.065004 191.83,439.319992 191.83,441.02 C191.83,442.760009 192.064998,444.029996 192.535,444.83 C193.005002,445.630004 193.729995,446.03 194.71,446.03 C195.670005,446.03 196.389998,445.625004 196.87,444.815 C197.350002,444.004996 197.59,442.750008 197.59,441.05 C197.59,439.309991 197.355002,438.040004 196.885,437.24 C196.414998,436.439996 195.690005,436.04 194.71,436.04 Z M214.66,432.56 C216.040007,432.56 217.119996,432.979996 217.9,433.82 C218.680004,434.660004 219.07,435.839992 219.07,437.36 L219.07,449 L214.33,449 L214.33,438.17 C214.33,437.369996 214.205001,436.815002 213.955,436.505 C213.704999,436.194998 213.330002,436.04 212.83,436.04 C211.869995,436.04 210.950004,436.729993 210.07,438.11 L210.07,449 L205.33,449 L205.33,433.07 L209.47,433.07 L209.8,434.96 C210.500003,434.159996 211.244996,433.560002 212.035,433.16 C212.825004,432.759998 213.699995,432.56 214.66,432.56 Z M235.3,444.38 C235.3,444.980003 235.384999,445.419999 235.555,445.7 C235.725001,445.980001 235.999998,446.189999 236.38,446.33 L235.39,449.42 C234.409995,449.34 233.615003,449.130002 233.005,448.79 C232.394997,448.449998 231.910002,447.900004 231.55,447.14 C230.509995,448.720008 228.910011,449.51 226.75,449.51 C225.169992,449.51 223.910005,449.050005 222.97,448.13 C222.029995,447.209995 221.56,446.010007 221.56,444.53 C221.56,442.789991 222.199994,441.460005 223.48,440.54 C224.760006,439.619995 226.609988,439.16 229.03,439.16 L230.65,439.16 L230.65,438.47 C230.65,437.529995 230.450002,436.885002 230.05,436.535 C229.649998,436.184998 228.950005,436.01 227.95,436.01 C227.429997,436.01 226.800004,436.084999 226.06,436.235 C225.319996,436.385001 224.560004,436.589999 223.78,436.85 L222.7,433.73 C223.700005,433.349998 224.724995,433.060001 225.775,432.86 C226.825005,432.659999 227.799995,432.56 228.7,432.56 C230.980011,432.56 232.649995,433.029995 233.71,433.97 C234.770005,434.910005 235.3,436.319991 235.3,438.2 L235.3,444.38 Z M228.13,446.12 C228.650003,446.12 229.124998,445.990001 229.555,445.73 C229.985002,445.469999 230.349998,445.100002 230.65,444.62 L230.65,441.77 L229.48,441.77 C228.399995,441.77 227.595003,441.959998 227.065,442.34 C226.534997,442.720002 226.27,443.309996 226.27,444.11 C226.27,444.750003 226.434998,445.244998 226.765,445.595 C227.095002,445.945002 227.549997,446.12 228.13,446.12 Z M252.52,449 L248.41,449 L248.2,446.99 C247.039994,448.670008 245.43001,449.51 243.37,449.51 C241.909993,449.51 240.805004,449.070004 240.055,448.19 C239.304996,447.309996 238.93,446.080008 238.93,444.5 L238.93,433.07 L243.67,433.07 L243.67,443.9 C243.67,444.680004 243.794999,445.224998 244.045,445.535 C244.295001,445.845002 244.679997,446 245.2,446 C246.200005,446 247.059996,445.380006 247.78,444.14 L247.78,433.07 L252.52,433.07 L252.52,449 Z M266.23,448.25 C265.649997,448.650002 264.975004,448.959999 264.205,449.18 C263.434996,449.400001 262.670004,449.51 261.91,449.51 C258.429983,449.49 256.69,447.570019 256.69,443.75 L256.69,436.37 L254.44,436.37 L254.44,433.07 L256.69,433.07 L256.69,429.62 L261.43,429.08 L261.43,433.07 L265.09,433.07 L264.58,436.37 L261.43,436.37 L261.43,443.69 C261.43,444.430004 261.549999,444.959998 261.79,445.28 C262.030001,445.600002 262.409997,445.76 262.93,445.76 C263.490003,445.76 264.059997,445.580002 264.64,445.22 L266.23,448.25 Z" id="Micronaut" fill="#FFFFFF"></path>
            <path d="M423.985,427.7 C425.545008,427.7 426.899994,427.919998 428.05,428.36 C429.200006,428.800002 430.244995,429.469995 431.185,430.37 L428.905,433.04 C427.484993,431.879994 425.965008,431.3 424.345,431.3 C423.484996,431.3 422.805003,431.474998 422.305,431.825 C421.804998,432.175002 421.555,432.679997 421.555,433.34 C421.555,433.800002 421.664999,434.174999 421.885,434.465 C422.105001,434.755001 422.494997,435.029999 423.055,435.29 C423.615003,435.550001 424.454994,435.859998 425.575,436.22 C427.695011,436.900003 429.254995,437.734995 430.255,438.725 C431.255005,439.715005 431.755,441.119991 431.755,442.94 C431.755,444.240006 431.425003,445.384995 430.765,446.375 C430.104997,447.365005 429.155006,448.134997 427.915,448.685 C426.674994,449.235003 425.205009,449.51 423.505,449.51 C421.804992,449.51 420.300007,449.240003 418.99,448.7 C417.679993,448.159997 416.555005,447.440004 415.615,446.54 L418.105,443.81 C418.905004,444.490003 419.729996,444.999998 420.58,445.34 C421.430004,445.680002 422.354995,445.85 423.355,445.85 C424.375005,445.85 425.179997,445.625002 425.77,445.175 C426.360003,444.724998 426.655,444.100004 426.655,443.3 C426.655,442.779997 426.545001,442.345002 426.325,441.995 C426.104999,441.644998 425.725003,441.330001 425.185,441.05 C424.644997,440.769999 423.865005,440.470002 422.845,440.15 C420.544989,439.449996 418.910005,438.590005 417.94,437.57 C416.969995,436.549995 416.485,435.260008 416.485,433.7 C416.485,432.499994 416.804997,431.445005 417.445,430.535 C418.085003,429.624995 418.974994,428.925002 420.115,428.435 C421.255006,427.944998 422.544993,427.7 423.985,427.7 Z M443.275,432.56 C445.31501,432.56 446.829995,433.294993 447.82,434.765 C448.810005,436.235007 449.305,438.309987 449.305,440.99 C449.305,442.630008 449.050003,444.094994 448.54,445.385 C448.029997,446.675006 447.295005,447.684996 446.335,448.415 C445.374995,449.145004 444.255006,449.51 442.975,449.51 C441.374992,449.51 440.085005,448.950006 439.105,447.83 L439.105,455.15 L434.365,455.66 L434.365,433.07 L438.535,433.07 L438.775,434.84 C439.395003,434.059996 440.099996,433.485002 440.89,433.115 C441.680004,432.744998 442.474996,432.56 443.275,432.56 Z M441.535,446.03 C443.43501,446.03 444.385,444.370017 444.385,441.05 C444.385,439.169991 444.170002,437.865004 443.74,437.135 C443.309998,436.404996 442.655004,436.04 441.775,436.04 C441.274998,436.04 440.790002,436.204998 440.32,436.535 C439.849998,436.865002 439.445002,437.319997 439.105,437.9 L439.105,444.62 C439.745003,445.560005 440.554995,446.03 441.535,446.03 Z M460.915,432.62 C461.495003,432.62 462.024998,432.689999 462.505,432.83 L461.755,437.42 C461.154997,437.279999 460.675002,437.21 460.315,437.21 C459.394995,437.21 458.685003,437.529997 458.185,438.17 C457.684998,438.810003 457.295001,439.769994 457.015,441.05 L457.015,449 L452.275,449 L452.275,433.07 L456.415,433.07 L456.805,436.13 C457.165002,435.029994 457.709996,434.170003 458.44,433.55 C459.170004,432.929997 459.994995,432.62 460.915,432.62 Z M469.045,449 L464.305,449 L464.305,433.07 L469.045,433.07 L469.045,449 Z M466.645,424.67 C467.465004,424.67 468.139997,424.924997 468.67,425.435 C469.200003,425.945003 469.465,426.589996 469.465,427.37 C469.465,428.150004 469.200003,428.794997 468.67,429.305 C468.139997,429.815003 467.465004,430.07 466.645,430.07 C465.824996,430.07 465.155003,429.815003 464.635,429.305 C464.114997,428.794997 463.855,428.150004 463.855,427.37 C463.855,426.589996 464.114997,425.945003 464.635,425.435 C465.155003,424.924997 465.824996,424.67 466.645,424.67 Z M482.095,432.56 C483.475007,432.56 484.554996,432.979996 485.335,433.82 C486.115004,434.660004 486.505,435.839992 486.505,437.36 L486.505,449 L481.765,449 L481.765,438.17 C481.765,437.369996 481.640001,436.815002 481.39,436.505 C481.139999,436.194998 480.765003,436.04 480.265,436.04 C479.304995,436.04 478.385004,436.729993 477.505,438.11 L477.505,449 L472.765,449 L472.765,433.07 L476.905,433.07 L477.235,434.96 C477.935004,434.159996 478.679996,433.560002 479.47,433.16 C480.260004,432.759998 481.134995,432.56 482.095,432.56 Z M504.745,434 C503.704995,434.420002 502.17501,434.63 500.155,434.63 C501.195005,435.070002 501.954998,435.609997 502.435,436.25 C502.915002,436.890003 503.155,437.719995 503.155,438.74 C503.155,439.760005 502.885003,440.674996 502.345,441.485 C501.804997,442.295004 501.030005,442.929998 500.02,443.39 C499.009995,443.850002 497.825007,444.08 496.465,444.08 C495.824997,444.08 495.215003,444.020001 494.635,443.9 C494.474999,443.98 494.35,444.104999 494.26,444.275 C494.17,444.445001 494.125,444.619999 494.125,444.8 C494.125,445.100002 494.239999,445.334999 494.47,445.505 C494.700001,445.675001 495.164997,445.76 495.865,445.76 L498.265,445.76 C499.485006,445.76 500.554995,445.959998 501.475,446.36 C502.395005,446.760002 503.104998,447.309997 503.605,448.01 C504.105003,448.710003 504.355,449.499996 504.355,450.38 C504.355,452.040008 503.640007,453.334995 502.21,454.265 C500.779993,455.195005 498.715014,455.66 496.015,455.66 C494.07499,455.66 492.545006,455.455002 491.425,455.045 C490.304994,454.634998 489.520002,454.060004 489.07,453.32 C488.619998,452.579996 488.395,451.650006 488.395,450.53 L492.655,450.53 C492.655,451.010002 492.749999,451.389999 492.94,451.67 C493.130001,451.950001 493.474998,452.159999 493.975,452.3 C494.475003,452.440001 495.194995,452.51 496.135,452.51 C497.435007,452.51 498.334998,452.355002 498.835,452.045 C499.335003,451.734998 499.585,451.290003 499.585,450.71 C499.585,450.229998 499.395002,449.850001 499.015,449.57 C498.634998,449.289999 498.065004,449.15 497.305,449.15 L494.995,449.15 C493.354992,449.15 492.130004,448.855003 491.32,448.265 C490.509996,447.674997 490.105,446.920005 490.105,446 C490.105,445.419997 490.274998,444.855003 490.615,444.305 C490.955002,443.754997 491.414997,443.300002 491.995,442.94 C490.994995,442.399997 490.270002,441.765004 489.82,441.035 C489.369998,440.304996 489.145,439.420005 489.145,438.38 C489.145,436.599991 489.784994,435.185005 491.065,434.135 C492.345006,433.084995 494.03499,432.56 496.135,432.56 C497.735008,432.6 499.089994,432.440002 500.2,432.08 C501.310006,431.719998 502.454994,431.190003 503.635,430.49 L504.745,434 Z M496.255,435.68 C495.514996,435.68 494.930002,435.914998 494.5,436.385 C494.069998,436.855002 493.855,437.499996 493.855,438.32 C493.855,439.180004 494.069998,439.844998 494.5,440.315 C494.930002,440.785002 495.514996,441.02 496.255,441.02 C497.035004,441.02 497.629998,440.790002 498.04,440.33 C498.450002,439.869998 498.655,439.180005 498.655,438.26 C498.655,436.539991 497.855008,435.68 496.255,435.68 Z M525.265,425.45 L518.215,452.36 L514.045,451.4 L521.125,424.52 L525.265,425.45 Z M545.485,427.7 C548.185013,427.7 550.50499,428.549991 552.445,430.25 L549.895,432.92 C549.194997,432.339997 548.530003,431.920001 547.9,431.66 C547.269997,431.399999 546.545004,431.27 545.725,431.27 C544.184992,431.27 542.955005,431.874994 542.035,433.085 C541.114995,434.295006 540.655,436.129988 540.655,438.59 C540.655,441.250013 541.004997,443.134994 541.705,444.245 C542.405004,445.355006 543.494993,445.91 544.975,445.91 C546.015005,445.91 546.954996,445.680002 547.795,445.22 L547.795,440.51 L545.095,440.51 L544.615,437.03 L552.565,437.03 L552.565,447.32 C551.484995,448.020004 550.295006,448.559998 548.995,448.94 C547.694994,449.320002 546.365007,449.51 545.005,449.51 C541.884984,449.51 539.530008,448.585009 537.94,446.735 C536.349992,444.884991 535.555,442.170018 535.555,438.59 C535.555,436.309989 535.989996,434.350008 536.86,432.71 C537.730004,431.069992 538.919992,429.825004 540.43,428.975 C541.940008,428.124996 543.624991,427.7 545.485,427.7 Z M564.415,432.62 C564.995003,432.62 565.524998,432.689999 566.005,432.83 L565.255,437.42 C564.654997,437.279999 564.175002,437.21 563.815,437.21 C562.894995,437.21 562.185002,437.529997 561.685,438.17 C561.184998,438.810003 560.795001,439.769994 560.515,441.05 L560.515,449 L555.775,449 L555.775,433.07 L559.915,433.07 L560.305,436.13 C560.665002,435.029994 561.209996,434.170003 561.94,433.55 C562.670004,432.929997 563.494995,432.62 564.415,432.62 Z M579.865,444.38 C579.865,444.980003 579.949999,445.419999 580.12,445.7 C580.290001,445.980001 580.564998,446.189999 580.945,446.33 L579.955,449.42 C578.974995,449.34 578.180003,449.130002 577.57,448.79 C576.959997,448.449998 576.475002,447.900004 576.115,447.14 C575.074995,448.720008 573.475011,449.51 571.315,449.51 C569.734992,449.51 568.475005,449.050005 567.535,448.13 C566.594995,447.209995 566.125,446.010007 566.125,444.53 C566.125,442.789991 566.764994,441.460005 568.045,440.54 C569.325006,439.619995 571.174988,439.16 573.595,439.16 L575.215,439.16 L575.215,438.47 C575.215,437.529995 575.015002,436.885002 574.615,436.535 C574.214998,436.184998 573.515005,436.01 572.515,436.01 C571.994997,436.01 571.365004,436.084999 570.625,436.235 C569.884996,436.385001 569.125004,436.589999 568.345,436.85 L567.265,433.73 C568.265005,433.349998 569.289995,433.060001 570.34,432.86 C571.390005,432.659999 572.364996,432.56 573.265,432.56 C575.545011,432.56 577.214995,433.029995 578.275,433.97 C579.335005,434.910005 579.865,436.319991 579.865,438.2 L579.865,444.38 Z M572.695,446.12 C573.215003,446.12 573.689998,445.990001 574.12,445.73 C574.550002,445.469999 574.914999,445.100002 575.215,444.62 L575.215,441.77 L574.045,441.77 C572.964995,441.77 572.160003,441.959998 571.63,442.34 C571.099997,442.720002 570.835,443.309996 570.835,444.11 C570.835,444.750003 570.999998,445.244998 571.33,445.595 C571.660002,445.945002 572.114997,446.12 572.695,446.12 Z M588.385,449 L583.645,449 L583.645,433.07 L588.385,433.07 L588.385,449 Z M585.985,424.67 C586.805004,424.67 587.479997,424.924997 588.01,425.435 C588.540003,425.945003 588.805,426.589996 588.805,427.37 C588.805,428.150004 588.540003,428.794997 588.01,429.305 C587.479997,429.815003 586.805004,430.07 585.985,430.07 C585.164996,430.07 584.495003,429.815003 583.975,429.305 C583.454997,428.794997 583.195,428.150004 583.195,427.37 C583.195,426.589996 583.454997,425.945003 583.975,425.435 C584.495003,424.924997 585.164996,424.67 585.985,424.67 Z M596.335,449.51 C594.954993,449.51 593.880004,449.115004 593.11,448.325 C592.339996,447.534996 591.955,446.410007 591.955,444.95 L591.955,426.74 L596.695,426.23 L596.695,444.77 C596.695,445.430003 596.964997,445.76 597.505,445.76 C597.785001,445.76 598.044999,445.71 598.285,445.61 L599.215,448.97 C598.354996,449.330002 597.395005,449.51 596.335,449.51 Z M606.625,432.56 C607.765006,432.56 608.834995,432.729998 609.835,433.07 C610.835005,433.410002 611.714996,433.889997 612.475,434.51 L610.735,437.18 C609.434994,436.359996 608.125007,435.95 606.805,435.95 C606.184997,435.95 605.710002,436.054999 605.38,436.265 C605.049998,436.475001 604.885,436.769998 604.885,437.15 C604.885,437.450001 604.959999,437.694999 605.11,437.885 C605.260001,438.075001 605.564998,438.269999 606.025,438.47 C606.485002,438.670001 607.194995,438.909999 608.155,439.19 C609.815008,439.670002 611.049996,440.294996 611.86,441.065 C612.670004,441.835004 613.075,442.899993 613.075,444.26 C613.075,445.340005 612.765003,446.274996 612.145,447.065 C611.524997,447.855004 610.675005,448.459998 609.595,448.88 C608.514995,449.300002 607.315007,449.51 605.995,449.51 C604.654993,449.51 603.410006,449.300002 602.26,448.88 C601.109994,448.459998 600.135004,447.880004 599.335,447.14 L601.645,444.56 C602.985007,445.600005 604.394993,446.12 605.875,446.12 C606.595004,446.12 607.159998,445.990001 607.57,445.73 C607.980002,445.469999 608.185,445.100002 608.185,444.62 C608.185,444.239998 608.105001,443.940001 607.945,443.72 C607.784999,443.499999 607.475002,443.295001 607.015,443.105 C606.554998,442.914999 605.825005,442.680001 604.825,442.4 C603.244992,441.939998 602.065004,441.300004 601.285,440.48 C600.504996,439.659996 600.115,438.640006 600.115,437.42 C600.115,436.499995 600.379997,435.675004 600.91,434.945 C601.440003,434.214996 602.199995,433.635002 603.19,433.205 C604.180005,432.774998 605.324994,432.56 606.625,432.56 Z" id="Spring-/-Grails" fill="#FFFFFF"></path>
            <path d="M209.3075,604 L202.0625,604 L201.5225,591.805 C201.372499,588.894985 201.2975,586.300011 201.2975,584.02 C201.2975,582.279991 201.3425,580.630008 201.4325,579.07 L196.6175,600.715 L189.6425,600.715 L184.5125,579.07 C184.692501,581.680013 184.7825,584.139988 184.7825,586.45 C184.7825,588.190009 184.7375,590.004991 184.6475,591.895 L184.1075,604 L176.9075,604 L179.2475,572.815 L188.5625,572.815 L193.2425,593.965 L197.6075,572.815 L206.9675,572.815 L209.3075,604 Z M234.5075,591.58 C234.5075,592.570005 234.4625,593.424996 234.3725,594.145 L219.6125,594.145 C219.822501,596.15501 220.377496,597.564996 221.2775,598.375 C222.177504,599.185004 223.422492,599.59 225.0125,599.59 C225.972505,599.59 226.902496,599.417502 227.8025,599.0725 C228.702505,598.727498 229.677495,598.195004 230.7275,597.475 L233.6525,601.435 C230.862486,603.655011 227.757517,604.765 224.3375,604.765 C220.467481,604.765 217.49751,603.625011 215.4275,601.345 C213.35749,599.064989 212.3225,596.005019 212.3225,592.165 C212.3225,589.734988 212.757496,587.55251 213.6275,585.6175 C214.497504,583.68249 215.772492,582.152506 217.4525,581.0275 C219.132508,579.902494 221.142488,579.34 223.4825,579.34 C226.932517,579.34 229.63249,580.419989 231.5825,582.58 C233.53251,584.740011 234.5075,587.739981 234.5075,591.58 Z M227.5325,589.555 C227.4725,585.894982 226.182513,584.065 223.6625,584.065 C222.432494,584.065 221.487503,584.507496 220.8275,585.3925 C220.167497,586.277504 219.747501,587.769989 219.5675,589.87 L227.5325,589.87 L227.5325,589.555 Z M265.0175,579.34 C266.907509,579.34 268.422494,579.977494 269.5625,581.2525 C270.702506,582.527506 271.2725,584.289989 271.2725,586.54 L271.2725,604 L264.1625,604 L264.1625,587.755 C264.1625,585.624989 263.487507,584.56 262.1375,584.56 C261.387496,584.56 260.727503,584.814997 260.1575,585.325 C259.587497,585.835003 259.032503,586.614995 258.4925,587.665 L258.4925,604 L251.3825,604 L251.3825,587.755 C251.3825,585.624989 250.707507,584.56 249.3575,584.56 C248.637496,584.56 247.985003,584.822497 247.4,585.3475 C246.814997,585.872503 246.252503,586.644995 245.7125,587.665 L245.7125,604 L238.6025,604 L238.6025,580.105 L244.8125,580.105 L245.3075,582.895 C246.237505,581.694994 247.264994,580.802503 248.39,580.2175 C249.515006,579.632497 250.797493,579.34 252.2375,579.34 C253.557507,579.34 254.704995,579.669997 255.68,580.33 C256.655005,580.990003 257.382498,581.919994 257.8625,583.12 C258.822505,581.859994 259.879994,580.915003 261.035,580.285 C262.190006,579.654997 263.517493,579.34 265.0175,579.34 Z M286.9775,579.34 C290.637518,579.34 293.50249,580.457489 295.5725,582.6925 C297.64251,584.927511 298.6775,588.05498 298.6775,592.075 C298.6775,594.625013 298.205005,596.85249 297.26,598.7575 C296.314995,600.66251 294.965009,602.139995 293.21,603.19 C291.454991,604.240005 289.377512,604.765 286.9775,604.765 C283.347482,604.765 280.49001,603.647511 278.405,601.4125 C276.31999,599.177489 275.2775,596.05002 275.2775,592.03 C275.2775,589.479987 275.749995,587.25251 276.695,585.3475 C277.640005,583.44249 278.989991,581.965005 280.745,580.915 C282.500009,579.864995 284.577488,579.34 286.9775,579.34 Z M286.9775,584.56 C285.537493,584.56 284.457504,585.167494 283.7375,586.3825 C283.017496,587.597506 282.6575,589.479987 282.6575,592.03 C282.6575,594.640013 283.009996,596.544994 283.715,597.745 C284.420004,598.945006 285.507493,599.545 286.9775,599.545 C288.417507,599.545 289.497496,598.937506 290.2175,597.7225 C290.937504,596.507494 291.2975,594.625013 291.2975,592.075 C291.2975,589.464987 290.945004,587.560006 290.24,586.36 C289.534996,585.159994 288.447507,584.56 286.9775,584.56 Z M315.8675,579.43 C316.737504,579.43 317.532496,579.534999 318.2525,579.745 L317.1275,586.63 C316.227496,586.419999 315.507503,586.315 314.9675,586.315 C313.587493,586.315 312.522504,586.794995 311.7725,587.755 C311.022496,588.715005 310.437502,590.15499 310.0175,592.075 L310.0175,604 L302.9075,604 L302.9075,580.105 L309.1175,580.105 L309.7025,584.695 C310.242503,583.044992 311.059995,581.755005 312.155,580.825 C313.250005,579.894995 314.487493,579.43 315.8675,579.43 Z M335.1725,604.045 C334.212495,607.135015 332.645011,609.512492 330.47,611.1775 C328.294989,612.842508 325.377518,613.779999 321.7175,613.99 L320.9525,608.995 C323.232511,608.694998 324.919995,608.185004 326.015,607.465 C327.110005,606.744996 327.987497,605.590008 328.6475,604 L326.2175,604 L318.9275,580.105 L326.4875,580.105 L330.7625,599.455 L335.4425,580.105 L342.7775,580.105 L335.1725,604.045 Z M373.9175,578.08 L363.4775,578.08 L363.4775,586.36 L372.5675,586.36 L372.5675,591.625 L363.4775,591.625 L363.4775,604 L356.0975,604 L356.0975,572.815 L374.6825,572.815 L373.9175,578.08 Z M387.3275,579.34 C390.987518,579.34 393.85249,580.457489 395.9225,582.6925 C397.99251,584.927511 399.0275,588.05498 399.0275,592.075 C399.0275,594.625013 398.555005,596.85249 397.61,598.7575 C396.664995,600.66251 395.315009,602.139995 393.56,603.19 C391.804991,604.240005 389.727512,604.765 387.3275,604.765 C383.697482,604.765 380.84001,603.647511 378.755,601.4125 C376.66999,599.177489 375.6275,596.05002 375.6275,592.03 C375.6275,589.479987 376.099995,587.25251 377.045,585.3475 C377.990005,583.44249 379.339991,581.965005 381.095,580.915 C382.850009,579.864995 384.927488,579.34 387.3275,579.34 Z M387.3275,584.56 C385.887493,584.56 384.807504,585.167494 384.0875,586.3825 C383.367496,587.597506 383.0075,589.479987 383.0075,592.03 C383.0075,594.640013 383.359996,596.544994 384.065,597.745 C384.770004,598.945006 385.857493,599.545 387.3275,599.545 C388.767507,599.545 389.847496,598.937506 390.5675,597.7225 C391.287504,596.507494 391.6475,594.625013 391.6475,592.075 C391.6475,589.464987 391.295004,587.560006 390.59,586.36 C389.884996,585.159994 388.797507,584.56 387.3275,584.56 Z M413.6075,579.34 C417.267518,579.34 420.13249,580.457489 422.2025,582.6925 C424.27251,584.927511 425.3075,588.05498 425.3075,592.075 C425.3075,594.625013 424.835005,596.85249 423.89,598.7575 C422.944995,600.66251 421.595009,602.139995 419.84,603.19 C418.084991,604.240005 416.007512,604.765 413.6075,604.765 C409.977482,604.765 407.12001,603.647511 405.035,601.4125 C402.94999,599.177489 401.9075,596.05002 401.9075,592.03 C401.9075,589.479987 402.379995,587.25251 403.325,585.3475 C404.270005,583.44249 405.619991,581.965005 407.375,580.915 C409.130009,579.864995 411.207488,579.34 413.6075,579.34 Z M413.6075,584.56 C412.167493,584.56 411.087504,585.167494 410.3675,586.3825 C409.647496,587.597506 409.2875,589.479987 409.2875,592.03 C409.2875,594.640013 409.639996,596.544994 410.345,597.745 C411.050004,598.945006 412.137493,599.545 413.6075,599.545 C415.047507,599.545 416.127496,598.937506 416.8475,597.7225 C417.567504,596.507494 417.9275,594.625013 417.9275,592.075 C417.9275,589.464987 417.575004,587.560006 416.87,586.36 C416.164996,585.159994 415.077507,584.56 413.6075,584.56 Z M444.5225,602.875 C443.652496,603.475003 442.640006,603.939998 441.485,604.27 C440.329994,604.600002 439.182506,604.765 438.0425,604.765 C432.822474,604.735 430.2125,601.855029 430.2125,596.125 L430.2125,585.055 L426.8375,585.055 L426.8375,580.105 L430.2125,580.105 L430.2125,574.93 L437.3225,574.12 L437.3225,580.105 L442.8125,580.105 L442.0475,585.055 L437.3225,585.055 L437.3225,596.035 C437.3225,597.145006 437.502498,597.939998 437.8625,598.42 C438.222502,598.900002 438.792496,599.14 439.5725,599.14 C440.412504,599.14 441.267496,598.870003 442.1375,598.33 L444.5225,602.875 Z M460.2725,579.34 C463.332515,579.34 465.604993,580.442489 467.09,582.6475 C468.575007,584.852511 469.3175,587.96498 469.3175,591.985 C469.3175,594.445012 468.935004,596.64249 468.17,598.5775 C467.404996,600.51251 466.302507,602.027495 464.8625,603.1225 C463.422493,604.217505 461.74251,604.765 459.8225,604.765 C457.422488,604.765 455.487507,603.925008 454.0175,602.245 L454.0175,613.225 L446.9075,613.99 L446.9075,580.105 L453.1625,580.105 L453.5225,582.76 C454.452505,581.589994 455.509994,580.727503 456.695,580.1725 C457.880006,579.617497 459.072494,579.34 460.2725,579.34 Z M457.6625,599.545 C460.512514,599.545 461.9375,597.055025 461.9375,592.075 C461.9375,589.254986 461.615003,587.297505 460.97,586.2025 C460.324997,585.107495 459.342507,584.56 458.0225,584.56 C457.272496,584.56 456.545004,584.807498 455.84,585.3025 C455.134996,585.797502 454.527503,586.479996 454.0175,587.35 L454.0175,597.43 C454.977505,598.840007 456.192493,599.545 457.6625,599.545 Z M486.7325,579.43 C487.602504,579.43 488.397496,579.534999 489.1175,579.745 L487.9925,586.63 C487.092496,586.419999 486.372503,586.315 485.8325,586.315 C484.452493,586.315 483.387504,586.794995 482.6375,587.755 C481.887496,588.715005 481.302502,590.15499 480.8825,592.075 L480.8825,604 L473.7725,604 L473.7725,580.105 L479.9825,580.105 L480.5675,584.695 C481.107503,583.044992 481.924995,581.755005 483.02,580.825 C484.115005,579.894995 485.352493,579.43 486.7325,579.43 Z M498.9275,604 L491.8175,604 L491.8175,580.105 L498.9275,580.105 L498.9275,604 Z M495.3275,567.505 C496.557506,567.505 497.569996,567.887496 498.365,568.6525 C499.160004,569.417504 499.5575,570.384994 499.5575,571.555 C499.5575,572.725006 499.160004,573.692496 498.365,574.4575 C497.569996,575.222504 496.557506,575.605 495.3275,575.605 C494.097494,575.605 493.092504,575.222504 492.3125,574.4575 C491.532496,573.692496 491.1425,572.725006 491.1425,571.555 C491.1425,570.384994 491.532496,569.417504 492.3125,568.6525 C493.092504,567.887496 494.097494,567.505 495.3275,567.505 Z M518.5025,579.34 C520.57251,579.34 522.192494,579.969994 523.3625,581.23 C524.532506,582.490006 525.1175,584.259989 525.1175,586.54 L525.1175,604 L518.0075,604 L518.0075,587.755 C518.0075,586.554994 517.820002,585.722502 517.445,585.2575 C517.069998,584.792498 516.507504,584.56 515.7575,584.56 C514.317493,584.56 512.937507,585.59499 511.6175,587.665 L511.6175,604 L504.5075,604 L504.5075,580.105 L510.7175,580.105 L511.2125,582.94 C512.262505,581.739994 513.379994,580.840003 514.565,580.24 C515.750006,579.639997 517.062493,579.34 518.5025,579.34 Z M545.4575,602.875 C544.587496,603.475003 543.575006,603.939998 542.42,604.27 C541.264994,604.600002 540.117506,604.765 538.9775,604.765 C533.757474,604.735 531.1475,601.855029 531.1475,596.125 L531.1475,585.055 L527.7725,585.055 L527.7725,580.105 L531.1475,580.105 L531.1475,574.93 L538.2575,574.12 L538.2575,580.105 L543.7475,580.105 L542.9825,585.055 L538.2575,585.055 L538.2575,596.035 C538.2575,597.145006 538.437498,597.939998 538.7975,598.42 C539.157502,598.900002 539.727496,599.14 540.5075,599.14 C541.347504,599.14 542.202496,598.870003 543.0725,598.33 L545.4575,602.875 Z" id="Memory-Footprint" fill="#FFFFFF"></path>
            <g id="Rectangle-2" transform="translate(103.000000, 506.000000)">
                <g id="path-1-link" fill="#FFFFFF">
                    <rect id="path-1" x="0" y="0" width="514" height="9"></rect>
                </g>
                <rect id="Rectangle-path" x="0" y="0" width="514" height="9"></rect>
            </g>
        </g>
    </g>
</svg>