<svg xmlns="http://www.w3.org/2000/svg" width="72.92" height="72.99" viewBox="0 0 72.92 72.99"><title>icon monolith black 95x75</title><path d="M43.18,30.34l16.68-8.9a12.16,12.16,0,1,0-3.25-8.2A13,13,0,0,0,57,16.09L40.3,25A20.19,20.19,0,0,1,43.18,30.34ZM68.76,49.69a12.2,12.2,0,0,0-8.93,4l-16.68-8.9a21.33,21.33,0,0,1-2.85,5.35L57,59a13.11,13.11,0,0,0-.37,2.86A12.16,12.16,0,1,0,68.76,49.69ZM23.19,22.35A15.19,15.19,0,1,0,38.38,37.54,15.19,15.19,0,0,0,23.19,22.35Z" transform="translate(-8 -1.01)"/></svg>