<svg xmlns="http://www.w3.org/2000/svg" width="72.71" height="72.71" viewBox="0 0 72.71 72.71"><title>icon arrows black 95x75</title><path d="M76,30.71,65.15,51.25l-3.3-7.93C49.73,50.22,46.37,61.49,45.7,73.61H33.58c.58-15.6,4.12-31,23.48-42l-3-7.94ZM35.89,42.83A47.59,47.59,0,0,0,22.22,31.65l3-8-22,7L14.13,51.25l3.3-7.93A28.81,28.81,0,0,1,29.83,56.4a46.56,46.56,0,0,1,6.06-13.63ZM39.64.9,24.49,16.05h9.09V32a48.82,48.82,0,0,1,6.06,5.88A49.5,49.5,0,0,1,45.7,32v-16h9.09Z" transform="translate(-3.29 -0.9)"/></svg>