<?xml version="1.0" encoding="utf-8"?>
<!-- Generator: Adobe Illustrator 24.0.0, SVG Export Plug-In . SVG Version: 6.00 Build 0)  -->
<svg version="1.1" id="Layer_1" xmlns="http://www.w3.org/2000/svg" xmlns:xlink="http://www.w3.org/1999/xlink" x="0px" y="0px"
	 width="76.8px" height="73.4px" viewBox="0 0 76.8 73.4" style="enable-background:new 0 0 76.8 73.4;" xml:space="preserve">
<rect x="33.2" y="17.9" width="11.6" height="34.9"/>
<path d="M75.5,26.4c-2.1-7.8-6.9-14.7-13.4-19.5c-6.3-4.7-14-7.1-21.8-6.9l0.5,6.5c11,0.4,20.7,7.1,25.1,17.1
	c6.2,14.1-0.2,30.6-14.3,36.8c-4.2,1.8-8.7,2.6-13.2,2.3c-13-0.9-23.5-10.9-25.2-23.9c-0.7-5.3,0.2-10.7,2.6-15.5l4.4,4.5l2.9,2.9
	l0.8-3.9l4.1-20.4l0.7-3.3l-3.4,0.6L4.9,7.6L0,8.4l3.3,3.4l4.4,4.5c-10.9,17.5-5.5,40.6,12,51.5s40.6,5.5,51.5-12
	c1-1.7,2-3.5,2.7-5.3C77.2,42.8,77.7,34.4,75.5,26.4z"/>
</svg>
