<?xml version="1.0" encoding="UTF-8"?>
<svg width="95px" height="95px" viewBox="0 0 95 95" version="1.1" xmlns="http://www.w3.org/2000/svg" xmlns:xlink="http://www.w3.org/1999/xlink">
    <!-- Generator: Sketch 62 (91390) - https://sketch.com -->
    <title>jacksonxml</title>
    <desc>Created with Sketch.</desc>
    <g id="Page-1" stroke="none" stroke-width="1" fill="none" fill-rule="evenodd">
        <g id="jacksonxml" transform="translate(2.000000, 2.000000)">
            <circle id="Oval" stroke="#4CAFDE" stroke-width="2.8347" cx="45.374" cy="45.374" r="45.374"></circle>
            <g id="Group" transform="translate(13.000000, 32.000000)" fill="#4CAFDE" fill-rule="nonzero">
                <polyline id="path3591" points="1.01094489 0 4.23707952 0 9.75274679 10.0368369 15.2981216 0 18.5242563 0 11.3881001 12.96651 19 27 15.7738654 27 9.52973927 15.516409 3.24099898 27 0 27 7.92409356 12.5867384 1.01094489 0"></polyline>
                <polyline id="path3593" points="23 0 27.6273738 0 33.4846228 18.3737446 39.3726197 0 44 0 44 27 40.9714489 27 40.9714489 3.29135847 35.0527043 21.8097782 31.9319142 21.8097782 26.0131695 3.29135847 26.0131695 27 23 27 23 0"></polyline>
                <polyline id="path3595" points="50 0 53.0441342 0 53.0441342 23.9256517 64 23.9256517 64 27 50 27 50 0"></polyline>
            </g>
        </g>
    </g>
</svg>