<?xml version="1.0" encoding="UTF-8"?>
<svg width="94px" height="94px" viewBox="0 0 94 94" version="1.1" xmlns="http://www.w3.org/2000/svg" xmlns:xlink="http://www.w3.org/1999/xlink">
    <!-- Generator: Sketch 62 (91390) - https://sketch.com -->
    <title>languages</title>
    <desc>Created with Sketch.</desc>
    <g id="Page-1" stroke="none" stroke-width="1" fill="none" fill-rule="evenodd">
        <g id="languages" transform="translate(1.000000, 1.000000)">
            <circle id="Oval" stroke="#4CAFDE" stroke-width="2.8347" cx="45.88" cy="45.792" r="45.374"></circle>
            <g id="Group-3" transform="translate(22.000000, 24.000000)" fill="#4CAFDE" fill-rule="nonzero">
                <path d="M35,44 L36.1607143,44 C37.5535714,44 38.4821429,44 39.4107143,43.7659574 C40.3392857,43.5319149 41.2678571,42.8297872 41.9642857,41.893617 C42.6607143,40.9574468 42.8928571,40.0212766 43.125,38.8510638 C43.3571429,37.6808511 43.3571429,35.5744681 43.3571429,32.7659574 C43.3571429,30.6595745 43.3571429,29.2553191 43.5892857,28.0851064 C43.8214286,26.9148936 44.2857143,25.7446809 44.9821429,25.0425532 C45.6785714,24.3404255 46.6071429,23.8723404 48,23.8723404 L48,20.1276596 C46.6071429,20.1276596 45.6785714,19.6595745 44.9821429,18.9574468 C44.2857143,18.2553191 43.8214286,17.0851064 43.5892857,15.9148936 C43.3571429,14.7446809 43.3571429,13.3404255 43.3571429,11.2340426 C43.3571429,8.42553191 43.3571429,6.31914894 43.125,5.14893617 C42.8928571,3.9787234 42.6607143,3.04255319 41.9642857,2.10638298 C41.2678571,1.17021277 40.3392857,0.468085106 39.4107143,0.234042553 C38.4821429,0 37.5535714,0 36.1607143,0 L35,0 L35,3.5106383 L35.6964286,3.5106383 C37.3214286,3.5106383 38.25,3.74468085 38.7142857,4.21276596 C39.4107143,4.91489362 39.6428571,5.14893617 39.6428571,5.85106383 L39.6428571,11.7021277 C39.6428571,15.212766 40.1071429,17.5531915 40.8035714,18.9574468 C41.5,20.3617021 42.8928571,21.2978723 44.2857143,22 C42.8928571,22.7021277 41.5,23.6382979 40.8035714,25.0425532 C40.1071429,26.4468085 39.6428571,28.787234 39.6428571,32.2978723 L39.6428571,38.1489362 C39.6428571,38.8510638 39.4107143,39.0851064 38.7142857,39.787234 C38.25,40.2553191 37.3214286,40.4893617 35.6964286,40.4893617 L35,40.4893617 L35,44 Z" id="llv"></path>
                <g id="use8" transform="translate(6.500000, 22.000000) scale(-1, 1) translate(-6.500000, -22.000000) ">
                    <path d="M0,44 L1.16071429,44 C2.55357143,44 3.48214286,44 4.41071429,43.7659574 C5.33928571,43.5319149 6.26785714,42.8297872 6.96428571,41.893617 C7.66071429,40.9574468 7.89285714,40.0212766 8.125,38.8510638 C8.35714286,37.6808511 8.35714286,35.5744681 8.35714286,32.7659574 C8.35714286,30.6595745 8.35714286,29.2553191 8.58928571,28.0851064 C8.82142857,26.9148936 9.28571429,25.7446809 9.98214286,25.0425532 C10.6785714,24.3404255 11.6071429,23.8723404 13,23.8723404 L13,20.1276596 C11.6071429,20.1276596 10.6785714,19.6595745 9.98214286,18.9574468 C9.28571429,18.2553191 8.82142857,17.0851064 8.58928571,15.9148936 C8.35714286,14.7446809 8.35714286,13.3404255 8.35714286,11.2340426 C8.35714286,8.42553191 8.35714286,6.31914894 8.125,5.14893617 C7.89285714,3.9787234 7.66071429,3.04255319 6.96428571,2.10638298 C6.26785714,1.17021277 5.33928571,0.468085106 4.41071429,0.234042553 C3.48214286,0 2.55357143,0 1.16071429,0 L0,0 L0,3.5106383 L0.696428571,3.5106383 C2.32142857,3.5106383 3.25,3.74468085 3.71428571,4.21276596 C4.41071429,4.91489362 4.64285714,5.14893617 4.64285714,5.85106383 L4.64285714,11.7021277 C4.64285714,15.212766 5.10714286,17.5531915 5.80357143,18.9574468 C6.5,20.3617021 7.89285714,21.2978723 9.28571429,22 C7.89285714,22.7021277 6.5,23.6382979 5.80357143,25.0425532 C5.10714286,26.4468085 4.64285714,28.787234 4.64285714,32.2978723 L4.64285714,38.1489362 C4.64285714,38.8510638 4.41071429,39.0851064 3.71428571,39.787234 C3.25,40.2553191 2.32142857,40.4893617 0.696428571,40.4893617 L0,40.4893617 L0,44 Z" id="llv"></path>
                </g>
            </g>
        </g>
    </g>
</svg>