<svg id="Layer_1" data-name="Layer 1" xmlns="http://www.w3.org/2000/svg" viewBox="0 0 128 128"><defs><style>.cls-1{fill:#fff;}</style></defs><title>Micronuat_FastConfig</title><path class="cls-1" d="M91.89,59.1l-5.47-.92A22.09,22.09,0,0,0,84,52.35l3.17-4.45a2.08,2.08,0,0,0-.23-2.69L85,43.28,83,41.35a2.1,2.1,0,0,0-2.69-.22l-4.53,3.21A23,23,0,0,0,69.94,42L69,36.56A2.09,2.09,0,0,0,67,34.82H61.57a2.08,2.08,0,0,0-2,1.74L58.6,42a22.28,22.28,0,0,0-5.71,2.38l-4.49-3.2a2.08,2.08,0,0,0-2.69.23l-1.92,1.93L41.86,45.3A2.1,2.1,0,0,0,41.63,48l3.2,4.48a22.09,22.09,0,0,0-2.26,5.25h8.16a14.89,14.89,0,0,1,3-4.36,15,15,0,1,1,0,21.28,14.77,14.77,0,0,1-3-4.34H43.58l-1,0a22.55,22.55,0,0,0,2.26,5.23l-3.2,4.48a2.08,2.08,0,0,0,.23,2.69l1.93,1.93,1.92,1.92a2.18,2.18,0,0,0,2.68.18l4.48-3.2A22.22,22.22,0,0,0,58.74,86l.92,5.44a2.08,2.08,0,0,0,2.05,1.74h5.42a2.11,2.11,0,0,0,2.05-1.74L70.1,86a21,21,0,0,0,6-2.52l4.44,3.17a2.1,2.1,0,0,0,2.7-.23l1.92-1.93,1.93-1.92a2.12,2.12,0,0,0,.23-2.7l-3.22-4.53a22.55,22.55,0,0,0,2.4-5.87l5.4-.85a2.08,2.08,0,0,0,1.74-2.05V61.15A2.09,2.09,0,0,0,91.89,59.1Z"/><rect class="cls-1" x="32.9" y="59.44" width="38.22" height="3.6" rx="1.8" ry="1.8"/><rect class="cls-1" x="29.14" y="51.29" width="10.22" height="3.6" rx="1.8" ry="1.8"/><rect class="cls-1" x="39.37" y="89.35" width="18.22" height="3.6" rx="1.8" ry="1.8"/><rect class="cls-1" x="23.86" y="64.93" width="35.46" height="3.63" rx="1.81" ry="1.81"/><path class="cls-1" d="M64,4A60,60,0,1,1,4,64,60.07,60.07,0,0,1,64,4m0-4a64,64,0,1,0,64,64A64,64,0,0,0,64,0Z"/></svg>