<svg xmlns="http://www.w3.org/2000/svg" viewBox="710 -633.122 500 429.56">
  <defs>
    <style>
      .cls-1, .cls-2 {
        fill: #fff;
      }

      .cls-2 {
        fill-rule: evenodd;
      }
    </style>
  </defs>
  <g id="Micronaut_StackLogo_White" transform="translate(679 -670.426)">
    <path id="Path_233" data-name="Path 233" class="cls-1" d="M67.023,280.81v-33.2h-.229l-11.785,33.2H48.992l-11.632-33.2h-.229v33.2H31V240.7h9.837L52.01,272.54h.306L63.47,240.7H73.784v40.11Z" transform="translate(0 185.09)"/>
    <path id="Path_234" data-name="Path 234" class="cls-1" d="M71.05,280.81V240.7h6.7v40.11Z" transform="translate(36.446 185.09)"/>
    <path id="Path_235" data-name="Path 235" class="cls-1" d="M118.17,280.77a17.878,17.878,0,0,1-7.64,1.452,19.1,19.1,0,0,1-7.888-1.585,16.769,16.769,0,0,1-5.9-4.412,19.884,19.884,0,0,1-3.629-6.666,25.938,25.938,0,0,1-1.28-8.347,26.244,26.244,0,0,1,1.3-8.385,19.654,19.654,0,0,1,3.82-6.647,16.828,16.828,0,0,1,5.883-4.393,18.241,18.241,0,0,1,7.774-1.585,22.024,22.024,0,0,1,7.373,1.184,13.1,13.1,0,0,1,5.52,3.629l-4.164,3.457a10.5,10.5,0,0,0-3.82-2.693,12.069,12.069,0,0,0-4.622-.879,10.39,10.39,0,0,0-5.291,1.3,11.173,11.173,0,0,0-3.686,3.514,16.541,16.541,0,0,0-2.12,5.176,25.955,25.955,0,0,0-.745,6.322A25.516,25.516,0,0,0,99.8,267.5a16.522,16.522,0,0,0,2.235,5.176,11.135,11.135,0,0,0,3.82,3.553,10.581,10.581,0,0,0,5.329,1.3,10.084,10.084,0,0,0,4.871-1.146,10.257,10.257,0,0,0,3.4-2.77l4.011,3.342a14.554,14.554,0,0,1-5.291,3.82Z" transform="translate(55.355 184.634)"/>
    <path id="Path_236" data-name="Path 236" class="cls-1" d="M146.042,280.81l-8.939-17.9h-6.112v17.9H124.44V240.7H138.1a24.149,24.149,0,0,1,5.5.611,13.045,13.045,0,0,1,4.527,1.91,9.359,9.359,0,0,1,3.056,3.4,10.543,10.543,0,0,1,1.127,5.023,10.142,10.142,0,0,1-.84,4.259,9.952,9.952,0,0,1-2.139,3.075,10.619,10.619,0,0,1-2.9,2.025,11.707,11.707,0,0,1-3.056.955l9.894,18.871Zm-.458-28.975a6.742,6.742,0,0,0-.726-3.362,6.226,6.226,0,0,0-1.91-2.1,7.64,7.64,0,0,0-2.75-1.108,15.838,15.838,0,0,0-3.132-.306h-6.036v13.981h6.188a9.4,9.4,0,0,0,6.093-1.91,6.3,6.3,0,0,0,2.273-5.2Z" transform="translate(85.03 185.09)"/>
    <path id="Path_237" data-name="Path 237" class="cls-1" d="M191.024,261.155a28.19,28.19,0,0,1-1.242,8.576,18.813,18.813,0,0,1-3.572,6.647,16.483,16.483,0,0,1-5.73,4.317,19.578,19.578,0,0,1-15.165,0,16.331,16.331,0,0,1-5.73-4.317,18.814,18.814,0,0,1-3.572-6.647,28.191,28.191,0,0,1-1.222-8.576,28.822,28.822,0,0,1,1.184-8.576,18.641,18.641,0,0,1,3.514-6.628,15.471,15.471,0,0,1,5.73-4.259,18.985,18.985,0,0,1,7.64-1.49,18.318,18.318,0,0,1,7.64,1.49,16.332,16.332,0,0,1,5.73,4.259,18.738,18.738,0,0,1,3.572,6.628A28.191,28.191,0,0,1,191.024,261.155Zm-7.086,0a27.479,27.479,0,0,0-.707-6.4,17.419,17.419,0,0,0-2.082-5.214,10.506,10.506,0,0,0-3.438-3.476,8.652,8.652,0,0,0-4.718-1.28,9.015,9.015,0,0,0-4.851,1.28,10.6,10.6,0,0,0-3.476,3.476,16.9,16.9,0,0,0-2.044,5.214,30.962,30.962,0,0,0,0,12.8,16.9,16.9,0,0,0,2.044,5.214,10.6,10.6,0,0,0,3.476,3.476,9.016,9.016,0,0,0,4.851,1.28,8.652,8.652,0,0,0,4.718-1.28,10.5,10.5,0,0,0,3.438-3.476,17.418,17.418,0,0,0,2.082-5.214,27.6,27.6,0,0,0,.707-6.4Z" transform="translate(112.648 184.633)"/>
    <path id="Path_238" data-name="Path 238" class="cls-1" d="M215.43,280.81l-22.213-38.639h-.134V280.81H191.44V240.7h2.674l22.137,38.582h.153V240.7h1.624v40.11Z" transform="translate(146.001 185.09)"/>
    <path id="Path_239" data-name="Path 239" class="cls-1" d="M245.329,269.36H226.764l-4.011,11.46H221.11l13.637-40.11h2.827l13.179,40.11H249.13Zm-18.183-1.146h17.8l-8.652-26.74h-.286Z" transform="translate(173 185.1)"/>
    <path id="Path_240" data-name="Path 240" class="cls-1" d="M278.164,272.29a12.988,12.988,0,0,1-2.235,4.966,10.542,10.542,0,0,1-4.164,3.285,18.546,18.546,0,0,1-13.045,0,10.753,10.753,0,0,1-4.183-3.285,13.237,13.237,0,0,1-2.2-4.966,28.5,28.5,0,0,1-.63-6.131V240.718h1.643v24.83a34.166,34.166,0,0,0,.42,5.405,13.524,13.524,0,0,0,1.662,4.851,9.549,9.549,0,0,0,3.61,3.476,15.4,15.4,0,0,0,12.377,0,9.893,9.893,0,0,0,3.648-3.438,12.49,12.49,0,0,0,1.719-4.813,37.359,37.359,0,0,0,.4-5.52V240.68h1.643v25.441a26.227,26.227,0,0,1-.668,6.169Z" transform="translate(200.846 185.072)"/>
    <path id="Path_241" data-name="Path 241" class="cls-1" d="M293.052,241.846V280.81H291.41V241.846H281V240.7h22.5v1.146Z" transform="translate(227.5 185.09)"/>
    <path id="Path_242" data-name="Path 242" class="cls-1" d="M195.652,132.714a6.532,6.532,0,1,0-4-3.052A6.57,6.57,0,0,0,195.652,132.714Z" transform="translate(145.399 75.069)"/>
    <path id="Path_243" data-name="Path 243" class="cls-1" d="M194.209,116.685a6.57,6.57,0,1,0-8.041-4.641A6.57,6.57,0,0,0,194.209,116.685Z" transform="translate(140.997 60.48)"/>
    <path id="Path_244" data-name="Path 244" class="cls-1" d="M175.645,94.229A6.57,6.57,0,1,0,180.3,92.3,6.57,6.57,0,0,0,175.645,94.229Z" transform="translate(129.88 50.046)"/>
    <path id="Path_245" data-name="Path 245" class="cls-1" d="M165.673,88.7a6.57,6.57,0,1,0,4.66,8.06,6.57,6.57,0,0,0-4.66-8.06Z" transform="translate(115.04 46.565)"/>
    <path id="Path_246" data-name="Path 246" class="cls-1" d="M149.649,106.235a6.57,6.57,0,1,0-8.041-4.641A6.57,6.57,0,0,0,149.649,106.235Z" transform="translate(100.447 50.971)"/>
    <path id="Path_247" data-name="Path 247" class="cls-1" d="M131.839,107.462a6.532,6.532,0,1,0,4.641-1.936A6.57,6.57,0,0,0,131.839,107.462Z" transform="translate(90.008 62.082)"/>
    <path id="Path_248" data-name="Path 248" class="cls-1" d="M134.364,122.108a6.57,6.57,0,1,0,4.641,8.041,6.57,6.57,0,0,0-4.641-8.041Z" transform="translate(86.528 76.965)"/>
    <path id="Path_249" data-name="Path 249" class="cls-1" d="M135.8,138.107a6.57,6.57,0,1,0,8.041,4.641,6.57,6.57,0,0,0-8.041-4.641Z" transform="translate(90.934 91.526)"/>
    <path id="Path_250" data-name="Path 250" class="cls-1" d="M154.342,160.566a6.551,6.551,0,1,0-4.641,1.928,6.57,6.57,0,0,0,4.641-1.928Z" transform="translate(102.038 101.957)"/>
    <path id="Path_251" data-name="Path 251" class="cls-1" d="M164.318,166.084a6.57,6.57,0,1,0-4.641-8.041,6.57,6.57,0,0,0,4.641,8.041Z" transform="translate(116.892 105.435)"/>
    <path id="Path_252" data-name="Path 252" class="cls-1" d="M180.32,148.557a6.57,6.57,0,1,0,8.041,4.622,6.57,6.57,0,0,0-8.041-4.622Z" transform="translate(131.45 101.035)"/>
    <path id="Path_253" data-name="Path 253" class="cls-1" d="M198.172,147.346a6.57,6.57,0,1,0-9.283,0,6.57,6.57,0,0,0,9.283,0Z" transform="translate(141.924 89.927)"/>
    <path id="Path_254" data-name="Path 254" class="cls-1" d="M216.108,120.608a7.64,7.64,0,1,0,4.69,3.57,7.64,7.64,0,0,0-4.69-3.57Z" transform="translate(159.743 75.581)"/>
    <path id="Path_255" data-name="Path 255" class="cls-1" d="M209.694,111.091a7.64,7.64,0,1,0-5.846-.753A7.64,7.64,0,0,0,209.694,111.091Z" transform="translate(153.818 53.488)"/>
    <path id="Path_256" data-name="Path 256" class="cls-1" d="M184.536,91.284a7.64,7.64,0,1,0-2.279-5.444A7.64,7.64,0,0,0,184.536,91.284Z" transform="translate(137.644 37.215)"/>
    <path id="Path_257" data-name="Path 257" class="cls-1" d="M163.726,86.684a7.64,7.64,0,1,0-4.7-3.577A7.64,7.64,0,0,0,163.726,86.684Z" transform="translate(115.574 31.252)"/>
    <path id="Path_258" data-name="Path 258" class="cls-1" d="M139.27,78.325a7.64,7.64,0,1,0,5.837.716A7.64,7.64,0,0,0,139.27,78.325Z" transform="translate(93.445 37.071)"/>
    <path id="Path_259" data-name="Path 259" class="cls-1" d="M118.081,108.919a7.64,7.64,0,1,0-2.27-5.434A7.64,7.64,0,0,0,118.081,108.919Z" transform="translate(77.179 53.272)"/>
    <path id="Path_260" data-name="Path 260" class="cls-1" d="M114.916,135.164a7.64,7.64,0,1,0-4.7-3.577A7.64,7.64,0,0,0,114.916,135.164Z" transform="translate(71.157 75.369)"/>
    <path id="Path_261" data-name="Path 261" class="cls-1" d="M121.327,144.72a7.64,7.64,0,1,0,5.846.753A7.64,7.64,0,0,0,121.327,144.72Z" transform="translate(77.084 97.5)"/>
    <path id="Path_262" data-name="Path 262" class="cls-1" d="M146.494,164.527a7.64,7.64,0,1,0,2.279,5.443,7.64,7.64,0,0,0-2.279-5.443Z" transform="translate(93.269 113.774)"/>
    <path id="Path_263" data-name="Path 263" class="cls-1" d="M167.358,169.118a7.64,7.64,0,1,0,4.69,3.57A7.64,7.64,0,0,0,167.358,169.118Z" transform="translate(115.381 119.725)"/>
    <path id="Path_264" data-name="Path 264" class="cls-1" d="M191.737,177.48a7.64,7.64,0,1,0-5.841-.746A7.64,7.64,0,0,0,191.737,177.48Z" transform="translate(137.472 113.903)"/>
    <path id="Path_265" data-name="Path 265" class="cls-1" d="M212.974,146.877a7.64,7.64,0,1,0,2.279,5.443,7.64,7.64,0,0,0-2.279-5.443Z" transform="translate(153.766 97.712)"/>
    <path id="Path_266" data-name="Path 266" class="cls-1" d="M229.309,146.092a9.932,9.932,0,1,0-7.01-12.148,9.932,9.932,0,0,0,7.01,12.148Z" transform="translate(173.779 81.23)"/>
    <path id="Path_267" data-name="Path 267" class="cls-1" d="M236.463,100.26a9.913,9.913,0,1,0-7.01,12.167,9.913,9.913,0,0,0,7.01-12.167Z" transform="translate(169.241 50.624)"/>
    <path id="Path_268" data-name="Path 268" class="cls-1" d="M212.77,69.188a9.932,9.932,0,1,0,0,14.039,9.932,9.932,0,0,0,0-14.039Z" transform="translate(149.978 26.364)"/>
    <path id="Path_269" data-name="Path 269" class="cls-1" d="M171.5,73.286a9.913,9.913,0,1,0-7.01-12.148A9.913,9.913,0,0,0,171.5,73.286Z" transform="translate(121.167 15.007)"/>
    <path id="Path_270" data-name="Path 270" class="cls-1" d="M143.017,78.286a9.894,9.894,0,1,0-7.536-.988A9.913,9.913,0,0,0,143.017,78.286Z" transform="translate(90.577 19.557)"/>
    <path id="Path_271" data-name="Path 271" class="cls-1" d="M120.822,82.833a9.894,9.894,0,1,0,2.912,7.01A9.913,9.913,0,0,0,120.822,82.833Z" transform="translate(66.339 38.79)"/>
    <path id="Path_272" data-name="Path 272" class="cls-1" d="M103.876,111.9a9.913,9.913,0,1,0,7.01,12.148A9.913,9.913,0,0,0,103.876,111.9Z" transform="translate(54.961 67.575)"/>
    <path id="Path_273" data-name="Path 273" class="cls-1" d="M103.739,145.554a9.894,9.894,0,1,0,7.53.981A9.913,9.913,0,0,0,103.739,145.554Z" transform="translate(59.51 98.194)"/>
    <path id="Path_274" data-name="Path 274" class="cls-1" d="M134.462,174.763a9.894,9.894,0,1,0,2.912,7.01A9.913,9.913,0,0,0,134.462,174.763Z" transform="translate(78.752 122.446)"/>
    <path id="Path_275" data-name="Path 275" class="cls-1" d="M161.674,184.694a9.932,9.932,0,1,0,7.01,12.167,9.932,9.932,0,0,0-7.01-12.167Z" transform="translate(107.523 133.812)"/>
    <path id="Path_276" data-name="Path 276" class="cls-1" d="M190.169,179.7a9.913,9.913,0,1,0,12.148,7.01A9.913,9.913,0,0,0,190.169,179.7Z" transform="translate(138.161 129.272)"/>
    <path id="Path_277" data-name="Path 277" class="cls-1" d="M226.393,175.142a9.913,9.913,0,1,0-14.019,0,9.913,9.913,0,0,0,14.019,0Z" transform="translate(162.408 110.034)"/>
    <path id="Path_278" data-name="Path 278" class="cls-1" d="M251.28,140.288a11.556,11.556,0,1,0,8.175,14.153,11.556,11.556,0,0,0-8.175-14.153Z" transform="translate(187.219 93.356)"/>
    <path id="Path_279" data-name="Path 279" class="cls-1" d="M251.29,119.253a11.46,11.46,0,1,0-8.8-1.113,11.556,11.556,0,0,0,8.8,1.113Z" transform="translate(187.209 53.902)"/>
    <path id="Path_280" data-name="Path 280" class="cls-1" d="M218.434,78.71a11.555,11.555,0,1,0,0-16.35,11.555,11.555,0,0,0,0,16.35Z" transform="translate(167.482 19.725)"/>
    <path id="Path_281" data-name="Path 281" class="cls-1" d="M186.082,60.025a11.555,11.555,0,1,0-8.175-14.153,11.556,11.556,0,0,0,8.175,14.153Z" transform="translate(133.328 0)"/>
    <path id="Path_282" data-name="Path 282" class="cls-1" d="M148.692,60.025A11.46,11.46,0,1,0,139.9,58.9a11.555,11.555,0,0,0,8.79,1.121Z" transform="translate(93.86 0)"/>
    <path id="Path_283" data-name="Path 283" class="cls-1" d="M99.971,78.729a11.575,11.575,0,1,0,0-16.35,11.575,11.575,0,0,0,0,16.35Z" transform="translate(59.687 19.725)"/>
    <path id="Path_284" data-name="Path 284" class="cls-1" d="M89.46,96.928a11.46,11.46,0,1,0,7.054,5.363,11.555,11.555,0,0,0-7.054-5.363Z" transform="translate(39.962 53.898)"/>
    <path id="Path_285" data-name="Path 285" class="cls-1" d="M83.48,140.3a11.46,11.46,0,1,0,8.785,1.114A11.555,11.555,0,0,0,83.48,140.3Z" transform="translate(39.964 93.346)"/>
    <path id="Path_286" data-name="Path 286" class="cls-1" d="M116.327,180.821a11.556,11.556,0,1,0,0,16.35A11.556,11.556,0,0,0,116.327,180.821Z" transform="translate(59.7 127.524)"/>
    <path id="Path_287" data-name="Path 287" class="cls-1" d="M148.688,199.508a11.556,11.556,0,1,0,8.175,14.172A11.556,11.556,0,0,0,148.688,199.508Z" transform="translate(93.864 147.247)"/>
    <path id="Path_288" data-name="Path 288" class="cls-1" d="M186,199.52a11.46,11.46,0,1,0,14.153,8.156A11.46,11.46,0,0,0,186,199.52Z" transform="translate(133.408 147.254)"/>
    <path id="Path_289" data-name="Path 289" class="cls-1" d="M234.777,180.821a11.555,11.555,0,1,0,0,16.35A11.556,11.556,0,0,0,234.777,180.821Z" transform="translate(167.489 127.524)"/>
    <path id="Path_290" data-name="Path 290" class="cls-2" d="M207.767,140.838c-2.731,2.712-5.233,5.386-7.907,7.85a64.825,64.825,0,0,1-6.494,5.176,11.594,11.594,0,0,1-10.849,1.146,7.392,7.392,0,0,1-5.176-6.284c-3.82,3.151-7.411,6.819-12.931,7.067-.439,2.082-.9,4.221-1.356,6.36a21.13,21.13,0,0,0-.573,2.865c-.1,1.356-.764,1.91-2.1,2.2-3.323.669-10.524,2.426-11.04,2.54q6.016-28.192,11.918-56.135h12.262c-.649,3.037-6.265,29.758-6.3,30.121-.325,3.209,1.7,5.1,4.813,4.164a24.371,24.371,0,0,0,4.985-2.712c.248-.134.325-.63.4-.974q3.171-14.936,6.322-29.853a2.784,2.784,0,0,1,.229-.745H196c-.649,3.075-4.737,22.748-6.15,29.605a6.894,6.894,0,0,0-.134,1.662,2.827,2.827,0,0,0,2.368,2.98,5.291,5.291,0,0,0,4.03-.439,40.643,40.643,0,0,0,3.82-2.445,31.992,31.992,0,0,0,3.648-3.151,4.469,4.469,0,0,1,4.183-.993Z" transform="translate(107.689 69.447)"/>
  </g>
</svg>
