<svg xmlns="http://www.w3.org/2000/svg" viewBox="3935 7365 355 110">
  <defs>
    <style>
      .cls-1 {
        fill-rule: evenodd;
      }
    </style>
  </defs>
  <g id="micronautlogo" transform="translate(3189 -31)">
    <g id="Micronaut_LongLogo_Blue" transform="translate(664.246 7307.294)">
      <path id="Path_299" data-name="Path 299" d="M263.512,161.913V147.5h-.1l-5.119,14.412h-2.622L250.628,147.5h-.1v14.412H247.84V144.49h4.281l4.9,13.822h.133l4.8-13.822h4.48v17.423Z" transform="translate(-28.291 -9.501)"/>
      <path id="Path_300" data-name="Path 300" d="M287.92,161.913V144.49h2.912v17.423Z" transform="translate(-35.118 -9.501)"/>
      <path id="Path_301" data-name="Path 301" d="M320.141,161.622a7.89,7.89,0,0,1-3.319.631,8.131,8.131,0,0,1-3.426-.7,7.185,7.185,0,0,1-2.564-1.917,8.7,8.7,0,0,1-1.585-2.887,11.536,11.536,0,0,1-.548-3.626,11.369,11.369,0,0,1,.564-3.642,8.707,8.707,0,0,1,1.659-2.9,7.393,7.393,0,0,1,2.564-1.9,7.924,7.924,0,0,1,3.377-.689,9.366,9.366,0,0,1,3.2.514,5.616,5.616,0,0,1,2.4,1.576l-1.809,1.493a4.629,4.629,0,0,0-1.659-1.17,5.4,5.4,0,0,0-2.008-.382,4.44,4.44,0,0,0-2.3.573,4.7,4.7,0,0,0-1.593,1.543,7.185,7.185,0,0,0-.954,2.248,11.282,11.282,0,0,0-.324,2.746,11.139,11.139,0,0,0,.324,2.73,7.258,7.258,0,0,0,.954,2.232,4.738,4.738,0,0,0,1.659,1.535,4.514,4.514,0,0,0,2.315.564,4.371,4.371,0,0,0,2.116-.489,4.564,4.564,0,0,0,1.477-1.2l1.742,1.452A6.423,6.423,0,0,1,320.141,161.622Z" transform="translate(-38.658 -9.417)"/>
      <path id="Path_302" data-name="Path 302" d="M350.692,161.913l-3.883-7.774h-2.655v7.774H341.3V144.49h5.94a10.49,10.49,0,0,1,2.389.257,5.882,5.882,0,0,1,1.958.83,4.082,4.082,0,0,1,1.336,1.477,4.588,4.588,0,0,1,.481,2.19,4.373,4.373,0,0,1-.357,1.842,4.261,4.261,0,0,1-.929,1.344,4.7,4.7,0,0,1-1.261.871,4.87,4.87,0,0,1-1.336.423l4.306,8.189Zm-.2-12.586a3.012,3.012,0,0,0-.315-1.452,2.714,2.714,0,0,0-.83-.913,3.315,3.315,0,0,0-1.195-.481,6.946,6.946,0,0,0-1.36-.141h-2.622v6.04h2.688a4.148,4.148,0,0,0,2.647-.83A2.755,2.755,0,0,0,350.493,149.327Z" transform="translate(-44.211 -9.501)"/>
      <path id="Path_303" data-name="Path 303" d="M387.4,153.133a12.3,12.3,0,0,1-.539,3.734,8.3,8.3,0,0,1-1.552,2.887,7.031,7.031,0,0,1-2.489,1.867,8.4,8.4,0,0,1-6.588,0,6.976,6.976,0,0,1-2.489-1.867,8.292,8.292,0,0,1-1.551-2.887,12.3,12.3,0,0,1-.531-3.734,12.6,12.6,0,0,1,.514-3.725,8.3,8.3,0,0,1,1.518-2.879,6.8,6.8,0,0,1,2.489-1.842,8.229,8.229,0,0,1,3.318-.647,7.965,7.965,0,0,1,3.319.647,7.068,7.068,0,0,1,2.489,1.842,8.205,8.205,0,0,1,1.551,2.879,12.317,12.317,0,0,1,.539,3.725Zm-3.078,0a12.446,12.446,0,0,0-.307-2.779,7.589,7.589,0,0,0-.9-2.257,4.668,4.668,0,0,0-1.493-1.518,3.834,3.834,0,0,0-2.058-.548,3.985,3.985,0,0,0-2.1.548,4.716,4.716,0,0,0-1.51,1.518,7.37,7.37,0,0,0-.888,2.257,13.447,13.447,0,0,0,0,5.559,7.34,7.34,0,0,0,.888,2.265,4.716,4.716,0,0,0,1.51,1.518,3.983,3.983,0,0,0,2.1.548,3.832,3.832,0,0,0,2.057-.548,4.666,4.666,0,0,0,1.493-1.518,7.563,7.563,0,0,0,.9-2.265A12.348,12.348,0,0,0,384.32,153.133Z" transform="translate(-49.382 -9.424)"/>
      <path id="Path_304" data-name="Path 304" d="M418.77,161.913l-9.649-16.776h-.058v16.776h-.713V144.49h1.161l9.616,16.751h.066V144.5h.705v17.423Z" transform="translate(-55.632 -9.501)"/>
      <path id="Path_305" data-name="Path 305" d="M448.5,156.945h-8.064l-1.742,4.978H438l5.924-17.423h1.228l5.725,17.423h-.713Zm-7.9-.489h7.732l-3.758-11.616h-.124Z" transform="translate(-60.683 -9.503)"/>
      <path id="Path_306" data-name="Path 306" d="M480.071,158.19a5.659,5.659,0,0,1-.971,2.149,4.594,4.594,0,0,1-1.817,1.427,6.7,6.7,0,0,1-2.812.523,6.787,6.787,0,0,1-2.846-.523,4.536,4.536,0,0,1-1.817-1.427,5.64,5.64,0,0,1-.954-2.149,12.448,12.448,0,0,1-.274-2.672V144.5h.714v10.786a14.949,14.949,0,0,0,.183,2.348,5.806,5.806,0,0,0,.722,2.1,4.148,4.148,0,0,0,1.568,1.518,5.526,5.526,0,0,0,2.7.572,5.435,5.435,0,0,0,2.671-.564,4.206,4.206,0,0,0,1.585-1.485,5.674,5.674,0,0,0,.747-2.091,16.283,16.283,0,0,0,.174-2.4V144.5h.714v11.043A11.422,11.422,0,0,1,480.071,158.19Z" transform="translate(-65.892 -9.503)"/>
      <path id="Path_307" data-name="Path 307" d="M503.1,144.989v16.925h-.714V144.989h-4.53V144.5h9.773v.489Z" transform="translate(-70.879 -9.503)"/>
      <path id="Path_308" data-name="Path 308" d="M171.669,155.873a2.174,2.174,0,1,0-1.535-2.663A2.174,2.174,0,0,0,171.669,155.873Z" transform="translate(-15.042 -10.712)"/>
      <path id="Path_309" data-name="Path 309" d="M169.138,143.643a2.174,2.174,0,1,0-2.663-1.535A2.174,2.174,0,0,0,169.138,143.643Z" transform="translate(-14.419 -8.629)"/>
      <path id="Path_310" data-name="Path 310" d="M157.73,131.269a2.174,2.174,0,1,0,1.539-.639A2.174,2.174,0,0,0,157.73,131.269Z" transform="translate(-12.834 -7.141)"/>
      <path id="Path_311" data-name="Path 311" d="M147.438,127.785a2.174,2.174,0,1,0,1.535,2.663A2.174,2.174,0,0,0,147.438,127.785Z" transform="translate(-10.722 -6.643)"/>
      <path id="Path_312" data-name="Path 312" d="M135.168,135.683a2.174,2.174,0,1,0-2.663-1.535A2.174,2.174,0,0,0,135.168,135.683Z" transform="translate(-8.632 -7.273)"/>
      <path id="Path_313" data-name="Path 313" d="M124.33,141.358a2.166,2.166,0,1,0,1.539-.642A2.174,2.174,0,0,0,124.33,141.358Z" transform="translate(-7.144 -8.858)"/>
      <path id="Path_314" data-name="Path 314" d="M123.518,153.225a2.174,2.174,0,1,0,1.535,2.663,2.174,2.174,0,0,0-1.535-2.663Z" transform="translate(-6.648 -10.976)"/>
      <path id="Path_315" data-name="Path 315" d="M126.079,165.454a2.165,2.165,0,1,0,1.651.213A2.174,2.174,0,0,0,126.079,165.454Z" transform="translate(-7.276 -13.059)"/>
      <path id="Path_316" data-name="Path 316" d="M137.489,177.828a2.157,2.157,0,1,0-1.535.641,2.174,2.174,0,0,0,1.535-.641Z" transform="translate(-8.862 -14.547)"/>
      <path id="Path_317" data-name="Path 317" d="M147.829,181.313a2.174,2.174,0,1,0-1.543-2.647A2.174,2.174,0,0,0,147.829,181.313Z" transform="translate(-10.981 -15.045)"/>
      <path id="Path_318" data-name="Path 318" d="M160.049,173.415a2.174,2.174,0,1,0,2.663,1.535A2.174,2.174,0,0,0,160.049,173.415Z" transform="translate(-13.063 -14.415)"/>
      <path id="Path_319" data-name="Path 319" d="M170.9,167.749a2.174,2.174,0,1,0-3.078,0,2.174,2.174,0,0,0,3.078,0Z" transform="translate(-14.552 -12.831)"/>
      <path id="Path_320" data-name="Path 320" d="M185.271,152.1a2.547,2.547,0,1,0,1.8,3.12A2.547,2.547,0,0,0,185.271,152.1Z" transform="translate(-17.087 -10.783)"/>
      <path id="Path_321" data-name="Path 321" d="M180.341,138.472a2.547,2.547,0,1,0-3.119-1.8,2.547,2.547,0,0,0,3.119,1.8Z" transform="translate(-16.247 -7.623)"/>
      <path id="Path_322" data-name="Path 322" d="M164.347,124.207a2.547,2.547,0,1,0,0-3.6A2.547,2.547,0,0,0,164.347,124.207Z" transform="translate(-13.942 -5.306)"/>
      <path id="Path_323" data-name="Path 323" d="M146.962,119.852a2.547,2.547,0,1,0-1.8-3.12A2.547,2.547,0,0,0,146.962,119.852Z" transform="translate(-10.786 -4.452)"/>
      <path id="Path_324" data-name="Path 324" d="M128.412,119.852a2.547,2.547,0,1,0,3.12,1.8A2.547,2.547,0,0,0,128.412,119.852Z" transform="translate(-7.626 -5.29)"/>
      <path id="Path_325" data-name="Path 325" d="M113.667,137.657a2.547,2.547,0,1,0,0-3.6,2.547,2.547,0,0,0,0,3.6Z" transform="translate(-5.309 -7.597)"/>
      <path id="Path_326" data-name="Path 326" d="M109.793,156.842a2.547,2.547,0,1,0-1.8-3.12A2.547,2.547,0,0,0,109.793,156.842Z" transform="translate(-4.455 -10.752)"/>
      <path id="Path_327" data-name="Path 327" d="M114.722,170.472a2.547,2.547,0,1,0,3.119,1.8A2.547,2.547,0,0,0,114.722,170.472Z" transform="translate(-5.294 -13.912)"/>
      <path id="Path_328" data-name="Path 328" d="M130.718,184.738a2.547,2.547,0,1,0,.75,1.8A2.547,2.547,0,0,0,130.718,184.738Z" transform="translate(-7.6 -16.23)"/>
      <path id="Path_329" data-name="Path 329" d="M148.1,189.092a2.547,2.547,0,1,0,1.8,3.12,2.547,2.547,0,0,0-1.8-3.12Z" transform="translate(-10.755 -17.083)"/>
      <path id="Path_330" data-name="Path 330" d="M166.66,189.092a2.547,2.547,0,1,0-3.128-1.8A2.547,2.547,0,0,0,166.66,189.092Z" transform="translate(-13.915 -16.245)"/>
      <path id="Path_331" data-name="Path 331" d="M181.407,171.287a2.547,2.547,0,1,0,0,3.6,2.547,2.547,0,0,0,0-3.6Z" transform="translate(-16.234 -13.938)"/>
      <path id="Path_332" data-name="Path 332" d="M196.3,163.2a3.319,3.319,0,1,0-2.323-4.024A3.319,3.319,0,0,0,196.3,163.2Z" transform="translate(-19.098 -11.578)"/>
      <path id="Path_333" data-name="Path 333" d="M196.5,133.489a3.319,3.319,0,1,0-2.315,4.024A3.319,3.319,0,0,0,196.5,133.489Z" transform="translate(-18.433 -7.203)"/>
      <path id="Path_334" data-name="Path 334" d="M179.532,111.8a3.319,3.319,0,1,0,0,4.646A3.319,3.319,0,0,0,179.532,111.8Z" transform="translate(-15.686 -3.763)"/>
      <path id="Path_335" data-name="Path 335" d="M152.259,107.715a3.319,3.319,0,1,0-2.282-4.024A3.319,3.319,0,0,0,152.259,107.715Z" transform="translate(-11.603 -2.13)"/>
      <path id="Path_336" data-name="Path 336" d="M128.3,111.509a3.319,3.319,0,1,0-4.024-2.315,3.277,3.277,0,0,0,4.024,2.315Z" transform="translate(-7.222 -2.771)"/>
      <path id="Path_337" data-name="Path 337" d="M109.441,122.155a3.319,3.319,0,1,0,0,4.638,3.269,3.269,0,0,0,0-4.638Z" transform="translate(-3.747 -5.527)"/>
      <path id="Path_338" data-name="Path 338" d="M98.446,145.425a3.319,3.319,0,1,0,2.323,4.024A3.319,3.319,0,0,0,98.446,145.425Z" transform="translate(-2.126 -9.64)"/>
      <path id="Path_339" data-name="Path 339" d="M100.558,171.078a3.319,3.319,0,1,0,4.024,2.323A3.319,3.319,0,0,0,100.558,171.078Z" transform="translate(-2.779 -14.012)"/>
      <path id="Path_340" data-name="Path 340" d="M119.832,192.236a3.319,3.319,0,1,0,0,4.646A3.319,3.319,0,0,0,119.832,192.236Z" transform="translate(-5.517 -17.464)"/>
      <path id="Path_341" data-name="Path 341" d="M142.5,200.915a3.319,3.319,0,1,0,2.323,4.024A3.319,3.319,0,0,0,142.5,200.915Z" transform="translate(-9.63 -19.091)"/>
      <path id="Path_342" data-name="Path 342" d="M166.489,197.118a3.319,3.319,0,1,0,4.024,2.315,3.319,3.319,0,0,0-4.024-2.315Z" transform="translate(-14.01 -18.447)"/>
      <path id="Path_343" data-name="Path 343" d="M189.942,186.472a3.319,3.319,0,1,0-4.646,0A3.319,3.319,0,0,0,189.942,186.472Z" transform="translate(-17.468 -15.683)"/>
      <path id="Path_344" data-name="Path 344" d="M209.943,167.044a3.825,3.825,0,1,0,2.329,1.781,3.825,3.825,0,0,0-2.329-1.781Z" transform="translate(-21.017 -13.321)"/>
      <path id="Path_345" data-name="Path 345" d="M209.941,141.382a3.825,3.825,0,1,0-2.907-.384A3.833,3.833,0,0,0,209.941,141.382Z" transform="translate(-21.014 -7.688)"/>
      <path id="Path_346" data-name="Path 346" d="M189.769,111.769a3.825,3.825,0,1,0-1.125-2.709,3.825,3.825,0,0,0,1.125,2.709Z" transform="translate(-18.208 -2.815)"/>
      <path id="Path_347" data-name="Path 347" d="M162.808,96.226a3.825,3.825,0,1,0-2.324-1.783A3.825,3.825,0,0,0,162.808,96.226Z" transform="translate(-13.324 0)"/>
      <path id="Path_348" data-name="Path 348" d="M131.739,96.227a3.825,3.825,0,1,0-2.91-.377A3.825,3.825,0,0,0,131.739,96.227Z" transform="translate(-7.692 -0.001)"/>
      <path id="Path_349" data-name="Path 349" d="M99.41,111.767a3.833,3.833,0,1,0,0-5.418A3.833,3.833,0,0,0,99.41,111.767Z" transform="translate(-2.817 -2.814)"/>
      <path id="Path_350" data-name="Path 350" d="M86.579,133.973a3.825,3.825,0,1,0,2.329,1.781A3.833,3.833,0,0,0,86.579,133.973Z" transform="translate(0 -7.688)"/>
      <path id="Path_351" data-name="Path 351" d="M84.6,167.043a3.817,3.817,0,1,0,2.906.378A3.825,3.825,0,0,0,84.6,167.043Z" transform="translate(-0.002 -13.32)"/>
      <path id="Path_352" data-name="Path 352" d="M104.83,196.66a3.825,3.825,0,1,0,0,5.41A3.825,3.825,0,0,0,104.83,196.66Z" transform="translate(-2.819 -18.196)"/>
      <path id="Path_353" data-name="Path 353" d="M131.733,212.194a3.825,3.825,0,1,0,2.329,1.781A3.825,3.825,0,0,0,131.733,212.194Z" transform="translate(-7.695 -21.011)"/>
      <path id="Path_354" data-name="Path 354" d="M162.808,212.193a3.825,3.825,0,1,0,2.9.381,3.825,3.825,0,0,0-2.9-.381Z" transform="translate(-13.324 -21.01)"/>
      <path id="Path_355" data-name="Path 355" d="M195.13,196.651a3.817,3.817,0,1,0,1.128,2.709A3.825,3.825,0,0,0,195.13,196.651Z" transform="translate(-18.201 -18.195)"/>
      <path id="Path_356" data-name="Path 356" class="cls-1" d="M157.853,155.9c-.9.9-1.726,1.776-2.622,2.6a21.232,21.232,0,0,1-2.141,1.709,3.825,3.825,0,0,1-3.592.382,2.489,2.489,0,0,1-1.7-2.058c-1.294,1.045-2.489,2.265-4.281,2.34-.149.689-.3,1.4-.448,2.116a7.191,7.191,0,0,0-.191.938c0,.456-.249.639-.7.73-1.1.224-3.485.83-3.65.83,1.319-6.231,2.63-12.445,3.949-18.593h4c-.207,1-2.066,9.857-2.083,9.956a1.166,1.166,0,0,0,1.593,1.369,7.953,7.953,0,0,0,1.659-.888c.083-.05.108-.207.133-.324.705-3.319,1.394-6.6,2.091-9.89a1.458,1.458,0,0,1,.083-.249h3.982c-.216,1.02-1.568,7.533-2.041,9.807a2.984,2.984,0,0,0,0,.548.929.929,0,0,0,.788.987,1.66,1.66,0,0,0,1.328-.149,11.388,11.388,0,0,0,1.245-.83,10.436,10.436,0,0,0,1.211-1.045A1.444,1.444,0,0,1,157.853,155.9Z" transform="translate(-9.671 -9.905)"/>
    </g>
  </g>
</svg>
