<?xml version="1.0" encoding="UTF-8"?>
<svg width="94px" height="94px" viewBox="0 0 94 94" version="1.1" xmlns="http://www.w3.org/2000/svg" xmlns:xlink="http://www.w3.org/1999/xlink">
    <!-- Generator: Sketch 52.6 (67491) - http://www.bohemiancoding.com/sketch -->
    <title>netflix</title>
    <desc>Created with Sketch.</desc>
    <g id="Page-1" stroke="none" stroke-width="1" fill="none" fill-rule="evenodd">
        <g id="netflix" transform="translate(1.000000, 1.000000)">
            <circle id="Oval" stroke="#4CAFDE" stroke-width="2.8347" cx="45.79" cy="45.79" r="45.374"></circle>
            <g id="iconfinder_Netflix_2744960" transform="translate(7.000000, 7.000000)">
                <path d="M0,38 C0,17.0131785 17.0131785,0 38,0 C58.9868215,0 76,17.0131785 76,38 C76,58.9868215 58.9868215,76 38,76 C17.0131785,76 0,58.9868215 0,38 Z" id="back" fill="#FFFFFF"></path>
                <path d="M33.8162765,60.088625 L33.8162765,34.7225 L42.2280917,59.065125 C44.8130898,58.766125 47.4037259,58.490125 50,58.225625 L50,15 L43.1809045,15 L43.1809045,41.27175 L34.1094497,15 L27,15 L27,61 L27.0451036,61 C29.3002819,60.68375 31.5554602,60.379 33.8162765,60.088625" id="Shape" fill="#4CAFDE"></path>
            </g>
        </g>
    </g>
</svg>