<?xml version="1.0" encoding="UTF-8"?>
<svg width="94px" height="94px" viewBox="0 0 94 94" version="1.1" xmlns="http://www.w3.org/2000/svg" xmlns:xlink="http://www.w3.org/1999/xlink">
    <!-- Generator: Sketch 52.6 (67491) - http://www.bohemiancoding.com/sketch -->
    <title>oauth2</title>
    <desc>Created with Sketch.</desc>
    <g id="Page-1" stroke="none" stroke-width="1" fill="none" fill-rule="evenodd">
        <g id="oauth2" transform="translate(1.000000, 1.000000)">
            <circle id="Oval" stroke="#4CAFDE" stroke-width="2.8347" cx="45.79" cy="45.79" r="45.374"></circle>
            <g id="Oauth_logo" transform="translate(21.000000, 21.000000)">
                <path d="M23.2023124,0.0725599757 C34.2773523,-0.693644962 41.6207224,4.71380138 45.819488,11.3021471 C47.9248024,14.6055307 49.9904333,19.622706 49.9999574,24.7776681 C50.0101498,30.3786662 48.1915591,35.2290468 45.819488,38.7879154 C43.3815005,42.4458104 40.2282073,45.4670352 36.2795732,47.4508158 C29.6790783,50.7669528 20.4546264,50.8576437 14.4126247,47.6647063 C7.68380559,44.1089219 2.51024603,39.0336478 0.585052925,30.2320436 C-0.1853919,26.7097682 -0.273948777,22.1586343 0.799427402,18.2538398 C1.05131326,17.3378448 1.50905206,16.373837 1.87138335,15.4731794 C3.61261205,11.1450218 6.57634337,7.3813482 10.2322388,4.77823528 C11.7012804,3.73228886 13.4834458,2.69201061 15.0558316,1.99757487 C17.0122702,1.13359378 20.3062519,0.272863549 23.2023124,0.0725599757 Z" id="Path" fill="#FFFFFF"></path>
                <path d="M44,25.0002095 C44,35.4938275 35.4932974,44 24.9999164,44 C14.5065353,44 6,35.4938275 6,25.0002095 C6,14.5068428 14.5065353,6 24.9999164,6 C35.4932137,6 44,14.5068428 44,25.0002095 Z" id="Path" fill="#4CAFDE"></path>
                <path d="M23.2023124,0.0725599757 C34.2773523,-0.693644962 41.6207224,4.71380138 45.819488,11.3021471 C47.9248024,14.6055307 49.9904333,19.622706 49.9999574,24.7776681 C50.0101498,30.3786662 48.1915591,35.2290468 45.819488,38.7879154 C43.3815005,42.4458104 40.2282073,45.4670352 36.2795732,47.4508158 C29.6790783,50.7669528 20.4546264,50.8576437 14.4126247,47.6647063 C7.68380559,44.1089219 2.51024603,39.0336478 0.585052925,30.2320436 C-0.1853919,26.7097682 -0.273948777,22.1586343 0.799427402,18.2538398 C1.05131326,17.3378448 1.50905206,16.373837 1.87138335,15.4731794 C3.61261205,11.1450218 6.57634337,7.3813482 10.2322388,4.77823528 C11.7012804,3.73228886 13.4834458,2.69201061 15.0558316,1.99757487 C17.0122702,1.13359378 20.3062519,0.272863549 23.2023124,0.0725599757 Z M19.4505919,1.89071296 C15.3369579,2.95483091 12.3207609,4.86125749 9.69630263,6.91730742 C5.91183262,9.88210066 3.49924254,14.0194573 2.08575783,19.0024567 C0.513204893,24.5462729 1.52333812,31.2549006 3.69364995,35.4725286 C5.94424777,39.8463652 8.96612612,43.2415233 13.233565,45.6326628 C17.3852952,47.9589517 23.2247022,49.4526846 29.3122356,48.306378 C34.7208886,47.2879389 38.8286745,44.9370601 42.1751219,41.4616305 C46.6524239,36.8116368 50.2509242,28.2469293 47.8562961,19.2163473 C47.2161803,16.8027851 46.3793178,14.2872789 45.0692609,12.1577093 C44.3614742,11.0072349 43.3228524,9.87543221 42.2823091,8.73537728 C38.3552294,4.43247613 32.0081241,0.724567699 23.8454358,1.24895797 C22.2920145,1.34873466 20.9268184,1.50877747 19.4505919,1.89071296 Z" id="Shape" fill="#4CAFDE" fill-rule="nonzero"></path>
                <g id="hashpattern" transform="translate(2.000000, 2.000000)" stroke="#FFFFFF" stroke-width="2">
                    <g id="Group" transform="translate(0.000000, 0.490647)">
                        <path d="M24.4390374,44.7952111 L45.9334189,23.3595181" id="Path"></path>
                        <path d="M22.5600071,43.0975741 L44.1481105,21.5683311" id="Path"></path>
                        <path d="M20.6808948,41.4001824 L42.3628841,19.777226" id="Path"></path>
                        <path d="M18.8017825,39.7025454 L40.5775758,17.9861208" id="Path"></path>
                        <path d="M16.9227522,38.0049902 L38.7923494,16.1949338" id="Path"></path>
                        <path d="M15.0436399,36.3078438 L37.006959,14.4038286" id="Path"></path>
                        <path d="M13.1645276,34.6098797 L35.2217326,12.6127234" id="Path"></path>
                        <path d="M11.2854153,32.9123244 L33.4363422,10.8215365" id="Path"></path>
                        <path d="M9.40630303,31.2147692 L31.6506239,9.0304313" id="Path"></path>
                        <path d="M7.52727273,29.5171322 L29.8658075,7.23932611" id="Path"></path>
                        <path d="M5.64816043,27.8196587 L28.0804991,5.44822093" id="Path"></path>
                        <path d="M3.76904813,26.1221034 L26.2952727,3.65703397" id="Path"></path>
                        <path d="M1.88993583,24.4244664 L24.5099643,1.86592878" id="Path"></path>
                        <path d="M0.0108235294,22.7269112 L22.724656,0.074823597" id="Path"></path>
                    </g>
                    <g id="Group">
                        <path d="M0.0035258467,23.4342599 L21.9274046,45.2997593" id="Path"></path>
                        <path d="M1.78145455,21.635795 L23.7479715,43.5438989" id="Path"></path>
                        <path d="M3.55938324,19.8373302 L25.5685383,41.787875" id="Path"></path>
                        <path d="M5.33731194,18.0388653 L27.3891872,40.0320145" id="Path"></path>
                        <path d="M7.11515865,16.2404004 L29.209672,38.2759906" id="Path"></path>
                        <path d="M8.89308734,14.4419355 L31.0304029,36.5200484" id="Path"></path>
                        <path d="M10.671016,12.6434706 L32.8509697,34.7641062" id="Path"></path>
                        <path d="M12.4488627,10.8450057 L34.6715365,33.0080823" id="Path"></path>
                        <path d="M14.2267914,9.04654086 L36.4921854,31.2521401" id="Path"></path>
                        <path d="M16.0047201,7.24807598 L38.3126702,29.4960344" id="Path"></path>
                        <path d="M17.7826488,5.44961109 L40.1333191,27.7402557" id="Path"></path>
                        <path d="M19.5604955,3.65114621 L41.9538859,25.9842318" id="Path"></path>
                        <path d="M21.3384242,1.8527631 L43.7744528,24.2283713" id="Path"></path>
                        <path d="M23.1164349,0.0542982168 L45.5951016,22.4723474" id="Path"></path>
                    </g>
                </g>
                <path d="M41.4286643,8.52310935 C39.4628137,6.57785127 37.0459331,4.82495077 34.1589415,3.76265679 C31.1664624,2.66152855 27.7813631,1.73338175 23.788919,2.0700277 C17.4291718,2.60645153 12.963867,5.42997353 9.5701854,8.73467768 C7.19313319,11.0493144 5.40509484,13.8856987 4.22481788,17.1976582 C2.49185634,22.0606791 2.59701056,27.800645 4.54552992,32.7484252 C6.20758318,36.9688258 8.92792809,40.3728827 12.7773891,43.009819 C16.3962107,45.4888622 21.5900959,47.4115286 27.4236554,46.923998 C34.5288144,46.3301885 39.7275323,42.7231381 43.1390452,38.5668016 C44.0119418,37.5035182 44.8798391,36.3016353 45.3840294,34.8642734 C45.8780543,33.8286109 46.119859,33.124565 46.3462489,32.7485076 C47.2938034,30.6475005 47.7958273,28.4307328 47.949809,25.9781562 C48.423503,18.4345827 45.4903502,12.5423305 41.4286643,8.52310935 Z M39.3346622,31.506059 C39.3210804,31.5347518 39.3089152,31.5614658 39.2947502,31.5910656 C38.9422919,32.5891305 38.3351138,33.4236959 37.7248527,34.1621238 C35.3389685,37.0482258 31.7036488,39.5529112 26.7349036,39.9653293 C22.6553032,40.3037067 19.0231498,38.9687484 16.4925327,37.2473441 C14.2934596,35.7514422 12.6218242,33.8997658 11.4496296,31.6744232 C11.3781381,31.5405234 10.6973853,29.9885551 10.6953855,29.9202859 C9.76674546,27.0700499 9.68617167,22.4869489 10.6393088,19.7366431 C11.2754002,17.9010446 12.3355247,15.9149737 13.7396085,14.3414858 C15.6782124,12.1688291 17.6182327,10.7766501 20.6886193,9.79260178 C22.0905367,9.34324582 23.3455548,8.88589215 25.0717671,8.8405443 C29.2812689,8.72964819 33.5678448,10.599876 35.8694057,12.6488567 C37.9844886,14.5317818 40.3950366,18.1995983 41.0010482,21.6407581 C41.6247244,25.18259 40.9591365,28.6406521 39.3346622,31.506059 Z" id="Shape" fill="#4CAFDE" fill-rule="nonzero"></path>
                <path d="M31.5226775,36 C30.4472524,36 29.503489,35.3505814 29.1741185,34.383955 L27.9762816,30.9037372 L21.9840716,30.9037372 L20.8711276,34.3522177 C20.5351869,35.3376392 19.5842483,35.9972797 18.5032905,35.9972797 C18.2437707,35.9972797 17.9859799,35.9581233 17.7370933,35.8811295 C16.4450271,35.5112461 15.7115076,34.1851231 16.1073574,32.9266787 L21.1651406,17.6496783 C21.4935602,16.6778585 22.4604054,16 23.5165524,16 L26.2059797,16 C27.2680917,16 28.2348505,16.6663177 28.5568729,17.6204141 L33.8759913,32.8917265 C34.3013202,34.1402787 33.5970204,35.4805805 32.3068561,35.8810471 C32.0517452,35.9600193 31.7879894,36 31.5226775,36 Z" id="Path" stroke="#4CAFDE" stroke-width="6" fill="#FFFFFF"></path>
                <g id="OAUTH" transform="translate(12.000000, 4.000000)" fill="#FFFFFF">
                    <g id="Group">
                        <path d="M0.409859094,6.58094889 L0.403876348,6.57273867 C-0.194070453,5.74350627 -0.0186038821,4.58345998 0.862007189,3.9331109 C1.74261826,3.28284474 2.87384903,3.46537705 3.47179583,4.29452652 L3.47777858,4.30273674 C4.07572538,5.13196914 3.90025881,6.29209836 3.01964774,6.94236451 C2.13903666,7.59263067 1.0078059,7.41018129 0.409859094,6.58094889 Z M2.67650036,4.90714176 L2.67051761,4.89893153 C2.37006902,4.48228351 1.81064127,4.33897782 1.37447448,4.6610839 C0.942323508,4.98020444 0.908721783,5.5487001 1.20917038,5.96543105 L1.21515313,5.97364127 C1.51568368,6.3902893 2.07502948,6.53359499 2.50718045,6.21447445 C2.94342919,5.89236837 2.97703091,5.32387271 2.67650036,4.90714176 Z" id="Shape" fill-rule="nonzero"></path>
                        <path d="M6.17484975,1.145865 L7.07349101,0.854111861 L9.59271891,3.81758727 L8.59310855,4.14209836 L8.15530266,3.61382449 L6.85770237,4.03511668 L6.81016822,4.72104339 L5.8298174,5.03933462 L6.17484975,1.145865 Z M7.65332566,2.9668756 L6.97162042,2.1208081 L6.89876204,3.21185535 L7.65332566,2.9668756 Z" id="Shape" fill-rule="nonzero"></path>
                        <path d="M11.2110927,2.03737898 L11.2189605,0.0301870781 L12.2132437,0.0341677917 L12.2054579,2.02095853 C12.2034091,2.53679267 12.4598476,2.78293346 12.8535615,2.78459209 C13.2472753,2.78616779 13.5055988,2.55230087 13.5074838,2.05180906 L13.5154335,0.0395583414 L14.5097168,0.043539055 L14.501931,2.02518804 C14.4974234,3.17942912 13.8444026,3.6824918 12.8399569,3.67842816 C11.8355931,3.67428158 11.2067491,3.15587657 11.2110927,2.03737898 Z" id="Path"></path>
                        <polygon id="Path" points="18.1005938 1.68666152 17.0869691 1.37359499 17.3374249 0.543201543 20.301179 1.45851688 20.0507232 2.28891032 19.0370985 1.97592671 18.2563091 4.56471745 17.3198864 4.2755352"></polygon>
                        <polygon id="Path" points="22.9485032 2.61723626 23.7636319 3.16616008 23.0311143 4.28009643 24.0773573 4.98468274 24.8099569 3.87066345 25.6250855 4.41958727 23.6677441 7.39591707 22.8525334 6.84699325 23.5963609 5.715973 22.5500359 5.01138669 21.8062904 6.14240694 20.9911618 5.59348312"></polygon>
                    </g>
                    <g id="Group" transform="translate(0.737599, 34.416586)">
                        <path d="M25.0903264,0.73668081 L25.096555,0.744725169 C25.7254809,1.55023915 25.5938605,2.71642237 24.7384098,3.4002758 C23.882959,4.08412922 22.7455816,3.9454677 22.1166556,3.13995371 L22.110427,3.13190935 C21.4815011,2.32631244 21.6132035,1.16021215 22.4685723,0.476358727 C23.324023,-0.207411765 24.4614004,-0.0688331726 25.0903264,0.73668081 Z M22.888266,2.49706847 L22.8944946,2.50511283 C23.2105147,2.90990164 23.7749418,3.03147927 24.1987333,2.69270395 C24.618509,2.35708004 24.6307203,1.78767213 24.3146183,1.38288332 L24.3083896,1.37483896 C23.9924515,0.970050145 23.4279425,0.848472517 23.0081668,1.18409643 C22.5843753,1.52287175 22.5722459,2.09227965 22.888266,2.49706847 Z" id="Shape" fill-rule="nonzero"></path>
                        <path d="M19.5633343,6.4008216 L18.6782157,6.73229894 L16.0325306,3.8839325 L17.0170611,3.51513597 L17.4774867,4.02350627 L18.7554996,3.54482546 L18.7731201,2.85748891 L19.7387189,2.49582449 L19.5633343,6.4008216 Z M18.0070827,4.64748312 L18.7249303,5.46228544 L18.7502545,4.36908197 L18.0070827,4.64748312 Z" id="Shape" fill-rule="nonzero"></path>
                        <path d="M14.4969317,5.72103182 L14.5843781,7.72623337 L13.5910784,7.77060174 L13.5044515,5.78580135 C13.4819957,5.2704648 13.2141653,5.03709547 12.8208613,5.05467695 C12.4275572,5.07225844 12.1806254,5.31848216 12.2024256,5.81847637 L12.2901179,7.82873674 L11.2968181,7.87310511 L11.2104371,5.89344648 C11.1601165,4.74036644 11.7885507,4.2061215 12.791931,4.16133848 C13.7953932,4.11647252 14.4481682,4.60361234 14.4969317,5.72103182 Z" id="Path"></path>
                        <polygon id="Path" points="7.59489145 6.37668852 8.61826887 6.65625072 8.39461251 7.49452266 5.40233789 6.6772324 5.62599425 5.83887753 6.64937168 6.11843973 7.3465665 3.50476953 8.29200431 3.76301832"></polygon>
                        <polygon id="Path" points="2.75780014 5.64830087 1.91783896 5.13893539 2.59765924 3.99108004 1.5196995 3.33724783 0.839879224 4.48510318 0 3.9757377 1.8164601 0.909012536 2.65633932 1.41846095 1.96611071 2.58381485 3.04415241 3.23764706 3.73438102 2.07229315 4.57426024 2.58174156"></polygon>
                    </g>
                </g>
            </g>
        </g>
    </g>
</svg>