<?xml version="1.0" encoding="UTF-8"?>
<svg width="234px" height="91px" viewBox="0 0 234 91" version="1.1" xmlns="http://www.w3.org/2000/svg" xmlns:xlink="http://www.w3.org/1999/xlink">
    <!-- Generator: Sketch 61.2 (89653) - https://sketch.com -->
    <title>oci_logo</title>
    <desc>Created with Sketch.</desc>
    <g id="Page-1" stroke="none" stroke-width="1" fill="none" fill-rule="evenodd">
        <g id="oci_logo" fill-rule="nonzero">
            <path d="M49.5900061,89.66 C49.5911949,90.0142832 49.4169472,90.3461882 49.1246513,90.5463909 C48.8323554,90.7465936 48.4599128,90.789134 48.13,90.66 L1.46,77.11 C0.629461412,76.8364009 0.0505188949,76.0829826 -0.000160819292,75.21 L-0.000160819292,25.86 C-0.00619518486,25.5038164 0.16693877,25.1683401 0.460845352,24.9670342 C0.754751935,24.7657283 1.1301221,24.7255169 1.46,24.86 L48.09,38.36 C48.9362758,38.6200506 49.5334551,39.3764776 49.5900061,40.26 L49.5900061,89.66 Z M34.36,49.79 C34.3132387,48.9088407 33.7352013,48.1447228 32.9,47.86 L14.96,42.36 C14.6324548,42.1921405 14.2391777,42.2177731 13.9361921,42.4267286 C13.6332066,42.6356841 13.4694927,42.9941834 13.51,43.36 L13.51,64.61 C13.5591492,65.4848658 14.1319661,66.2433544 14.96,66.53 L32.9,72.04 C33.2282953,72.2132403 33.6255397,72.190377 33.9317915,71.9806156 C34.2380432,71.7708541 34.4029055,71.4087128 34.36,71.04 L34.36,49.79 L34.36,49.79 Z" id="Shape" fill="#295191"></path>
            <path d="M74.94,10.02 L86.28,13.17 C87.1,13.41 87.14,14.01 86.35,14.49 L53.21,35.35 C52.3254528,35.8549246 51.2855234,36.0151877 50.29,35.8 L2.45,21.92 C1.62,21.68 1.59,21.09 2.38,20.6 L37.44,0.54 C38.3318813,0.0457679838 39.3709109,-0.113809945 40.37,0.09 L48.53,2.53 L49.19,2.73 C50.29,3.01 50.45,3.42 50.45,3.66 C50.422536,3.97887776 50.2537687,4.26871738 49.99,4.45 L29.05,17.04 C28.27,17.53 28.29,18.13 29.05,18.37 L47.3,23.69 C48.2843443,23.9132083 49.3166824,23.7560357 50.19,23.25 L70.71,10.95 C70.71,10.95 71.8,10.43 72.65,10.07 C73.3678611,9.77494884 74.1697406,9.7571293 74.9,10.02" id="Path" fill="#77C7D3"></path>
            <path d="M77.43,46.44 C77.4228628,45.4147281 78.0013095,44.4752375 78.92,44.02 L88.59,37.86 C88.9800313,37.6012803 89.4836933,37.5885011 89.8863431,37.8271084 C90.2889929,38.0657157 90.5196436,38.5136432 90.48,38.98 L90.48,66.05 C90.42,67.12 90.48,67.81 88.79,68.97 L78.65,76.29 C77.83,76.81 77.37,76.36 77.37,75.54 L77.43,46.44 Z" id="Path" fill="#F7B376"></path>
            <path d="M76.99,26.09 C77.0936644,25.0989407 77.6369945,24.2068515 78.47,23.66 L89.06,16.72 C89.88,16.2 90.48,16.78 90.48,17.6 L90.48,30.8 C90.4373926,31.7503577 89.9185004,32.6151781 89.1,33.1 L78.41,39.86 C77.59,40.37 76.99,40.05 76.99,39.23 L76.99,26.09 L76.99,26.09 Z" id="Path" fill="#F7B376"></path>
            <path d="M110.02,23.86 C110.007571,23.0077816 110.163907,22.1615276 110.48,21.37 C110.768238,20.6512025 111.208262,20.0031056 111.77,19.47 C112.332757,18.9406003 112.995778,18.5291871 113.72,18.26 C115.338018,17.6905063 117.101982,17.6905063 118.72,18.26 C119.46023,18.5268821 120.140058,18.938178 120.72,19.47 C121.275532,20.0062733 121.711694,20.6537006 122,21.37 C122.615535,22.9798341 122.615535,24.7601659 122,26.37 C121.711694,27.0862994 121.275532,27.7337267 120.72,28.27 C120.145509,28.809052 119.464105,29.2213013 118.72,29.48 C117.101982,30.0494937 115.338018,30.0494937 113.72,29.48 C112.992017,29.2185426 112.327501,28.8062018 111.77,28.27 C111.208262,27.7368944 110.768238,27.0887975 110.48,26.37 C110.161558,25.5721673 110.005184,24.7189079 110.02,23.86 L110.02,23.86 Z M112.64,23.86 C112.632583,24.3676952 112.717287,24.872528 112.89,25.35 C113.052456,25.7797228 113.297004,26.1737157 113.61,26.51 C113.926788,26.8450862 114.312254,27.1077489 114.74,27.28 C115.202055,27.4733328 115.699203,27.5686763 116.2,27.56 C116.70403,27.5686152 117.20443,27.4733009 117.67,27.28 C118.09343,27.1051387 118.475108,26.8427348 118.79,26.51 C119.102996,26.1737157 119.347544,25.7797228 119.51,25.35 C119.852339,24.379299 119.852339,23.320701 119.51,22.35 C119.349888,21.916149 119.105147,21.5184453 118.79,21.18 C118.475108,20.8472652 118.09343,20.5848613 117.67,20.41 C117.202341,20.2248406 116.702933,20.1331125 116.2,20.14 C115.700314,20.1331231 115.204179,20.2248741 114.74,20.41 C114.312254,20.5822511 113.926788,20.8449138 113.61,21.18 C113.294853,21.5184453 113.050112,21.916149 112.89,22.35 C112.714884,22.8337726 112.630144,23.3456029 112.64,23.86 L112.64,23.86 Z" id="Shape" fill="#747675"></path>
            <path d="M127.01,18.1199256 L131.29,18.1199256 C131.788404,18.1181293 132.286316,18.1515461 132.78,18.22 C133.254397,18.2794345 133.714699,18.4215867 134.14,18.64 C134.542823,18.8434044 134.887031,19.1463071 135.14,19.52 C135.408711,19.9761714 135.537379,20.5012769 135.51,21.03 C135.531298,21.6144086 135.339375,22.1866247 134.97,22.64 C134.593794,23.0780513 134.096157,23.394729 133.54,23.55 L133.54,23.55 C133.888927,23.5939212 134.227413,23.698852 134.54,23.86 C134.839944,24.0112877 135.110779,24.2144138 135.34,24.46 C135.562938,24.708005 135.736084,24.996582 135.85,25.31 C135.963017,25.6312676 136.020505,25.9694336 136.02,26.31 C136.035586,26.8581264 135.885747,27.3982434 135.59,27.86 C135.339617,28.2670764 134.997076,28.6096171 134.59,28.86 C134.165235,29.1174431 133.697893,29.2969295 133.21,29.39 C132.707478,29.5008045 132.194588,29.5577923 131.68,29.56 L126.98,29.56 L127.01,18.1199256 Z M129.59,22.7 L131.42,22.7 C131.611953,22.697073 131.803042,22.6736059 131.99,22.63 C132.17187,22.5932743 132.345001,22.5219849 132.5,22.42 C132.654797,22.3239542 132.782229,22.1896345 132.87,22.03 C132.96644,21.8521808 133.014704,21.6522332 133.01,21.45 C133.014601,21.2420284 132.959041,21.0371534 132.85,20.86 C132.751058,20.7075867 132.617406,20.5807891 132.46,20.49 C132.284708,20.4077581 132.099998,20.3473076 131.91,20.31 C131.712326,20.2712179 131.51144,20.2511293 131.31,20.25 L129.59,20.25 L129.59,22.7 Z M129.59,27.44 L131.85,27.44 C132.052116,27.4414042 132.253635,27.4178936 132.45,27.37 C132.643199,27.3345328 132.82702,27.2596428 132.99,27.15 C133.15008,27.0381593 133.286096,26.8953417 133.39,26.73 C133.493176,26.5363295 133.544829,26.319386 133.54,26.1 C133.548764,25.8638571 133.47837,25.631557 133.34,25.44 C133.202162,25.2750807 133.027455,25.1449066 132.83,25.06 C132.619372,24.969799 132.397259,24.9092228 132.17,24.88 C131.947837,24.8502431 131.724119,24.8335477 131.5,24.83 L129.59,24.83 L129.59,27.44 Z" id="Shape" fill="#747675"></path>
            <path d="M146.350018,25.74 C146.351098,26.257033 146.300852,26.7728973 146.2,27.28 C146.123802,27.752328 145.946419,28.2026076 145.68,28.6 C145.3984,28.9999226 145.015232,29.3175033 144.57,29.52 C143.976762,29.7737134 143.334797,29.8932282 142.69,29.87 C141.875006,29.8927992 141.072506,29.6660057 140.39,29.22 C139.735768,28.7400573 139.297351,28.02134 139.17,27.22 L141.48,26.65 C141.567171,27.2157058 142.047759,27.637274 142.62,27.65 C142.866028,27.6629356 143.108173,27.5845947 143.3,27.43 C143.464058,27.2836206 143.58798,27.097738 143.66,26.89 C143.734361,26.6630704 143.78136,26.4280738 143.8,26.19 C143.8,25.94 143.8,25.7 143.8,25.49 L143.8,18.12 L146.33,18.12 L146.350018,25.74 Z" id="Path" fill="#747675"></path>
            <polygon id="Path" fill="#747675" points="151.52 18.12 159.31 18.12 159.31 20.45 154.05 20.45 154.05 22.58 159.05 22.58 159.05 24.91 154.05 24.91 154.05 27.24 159.59 27.24 159.59 29.58 151.51 29.58"></polygon>
            <path d="M172.04,21.09 C171.790865,20.7919004 171.475933,20.5557015 171.12,20.4 C170.724761,20.2332685 170.298883,20.1514998 169.87,20.16 C169.412635,20.1557024 168.959484,20.2476955 168.54,20.43 C168.155837,20.6128529 167.814961,20.8753271 167.54,21.2 C167.230943,21.539391 166.992936,21.9372031 166.84,22.37 C166.497661,23.340701 166.497661,24.399299 166.84,25.37 C166.992235,25.7957398 167.22288,26.1891925 167.52,26.53 C167.798911,26.8505078 168.138855,27.1122647 168.52,27.3 C168.91679,27.4879448 169.350965,27.5836684 169.79,27.58 C170.270608,27.5894159 170.745645,27.4758201 171.17,27.25 C171.57469,27.0402748 171.918952,26.730439 172.17,26.35 L174.27,27.92 C173.808778,28.5820165 173.171375,29.1016379 172.43,29.42 C171.706373,29.7434134 170.922611,29.9103957 170.13,29.91 C169.284908,29.9189289 168.445027,29.776691 167.65,29.49 C166.905895,29.2313013 166.224491,28.819052 165.65,28.28 C165.091552,27.7441083 164.652042,27.0967673 164.36,26.38 C163.744465,24.7701659 163.744465,22.9898341 164.36,21.38 C164.652042,20.6632327 165.091552,20.0158917 165.65,19.48 C166.229942,18.948178 166.90977,18.5368821 167.65,18.27 C168.445027,17.983309 169.284908,17.8410711 170.13,17.85 C170.465262,17.8520083 170.799767,17.8821137 171.13,17.94 C171.471684,18.0051167 171.806491,18.1022105 172.13,18.23 C172.485086,18.3578383 172.821418,18.5327312 173.13,18.75 C173.447505,18.9703707 173.730583,19.2365986 173.97,19.54 L172.04,21.09 Z" id="Path" fill="#747675"></path>
            <polygon id="Path" fill="#747675" points="180.76 20.35 177.49 20.35 177.49 18.12 186.59 18.12 186.59 20.35 183.29 20.35 183.29 29.58 180.76 29.58"></polygon>
            <path d="M118.13,41.91 C117.880865,41.6119004 117.565933,41.3757015 117.21,41.22 C116.814761,41.0532685 116.388883,40.9714998 115.96,40.98 C115.505766,40.9746854 115.055665,41.0667516 114.64,41.25 C114.239589,41.4297027 113.881748,41.6921199 113.59,42.02 C113.284469,42.3619974 113.0469,42.7590779 112.89,43.19 C112.718897,43.6644307 112.634225,44.1656912 112.64,44.67 C112.632461,45.174445 112.717186,45.67602 112.89,46.15 C113.049603,46.5774483 113.283163,46.9734845 113.58,47.32 C113.859306,47.6374957 114.199313,47.8959005 114.58,48.08 C114.979947,48.2690915 115.417632,48.364835 115.86,48.36 C116.337332,48.3685936 116.808934,48.254996 117.23,48.03 C117.63469,47.8202748 117.978952,47.510439 118.23,47.13 L120.34,48.7 C119.872577,49.3602096 119.232568,49.8791357 118.49,50.2 C117.766751,50.5245716 116.982738,50.6916004 116.19,50.69 C115.344908,50.6989289 114.505027,50.556691 113.71,50.27 C112.982017,50.0085426 112.317501,49.5962018 111.76,49.06 C111.196055,48.5287718 110.755679,47.8801559 110.47,47.16 C109.854465,45.5501659 109.854465,43.7698341 110.47,42.16 C110.758238,41.4412025 111.198262,40.7931056 111.76,40.26 C112.322757,39.7306003 112.985778,39.3191871 113.71,39.05 C114.505648,38.7667128 115.345512,38.6278644 116.19,38.64 C116.524982,38.6387045 116.859484,38.6654647 117.19,38.72 C117.531684,38.7851167 117.866491,38.8822105 118.19,39.01 C118.541117,39.1426112 118.876489,39.3136511 119.19,39.52 C119.507385,39.7444344 119.79036,40.0139343 120.03,40.32 L118.13,41.91 Z" id="Path" fill="#747675"></path>
            <path d="M124.02,44.67 C124.006512,43.8144476 124.162862,42.9647173 124.48,42.17 C124.772042,41.4532327 125.211552,40.8058917 125.77,40.27 C126.348143,39.735782 127.028482,39.3241766 127.77,39.06 C129.390008,38.5022771 131.149992,38.5022771 132.77,39.06 C133.511518,39.3241766 134.191857,39.735782 134.77,40.27 C135.328448,40.8058917 135.767958,41.4532327 136.06,42.17 C136.675535,43.7798341 136.675535,45.5601659 136.06,47.17 C135.770654,47.8882074 135.330781,48.5360821 134.77,49.07 C134.197168,49.611236 133.515269,50.0237846 132.77,50.28 C131.152395,50.8519096 129.387605,50.8519096 127.77,50.28 C127.024731,50.0237846 126.342832,49.611236 125.77,49.07 C125.209219,48.5360821 124.769346,47.8882074 124.48,47.17 C124.161573,46.3756551 124.005175,45.5256633 124.02,44.67 Z M126.64,44.67 C126.635661,45.175063 126.723779,45.6766571 126.9,46.15 C127.200957,47.0318349 127.873531,47.7373064 128.74,48.08 C129.202055,48.2733328 129.699203,48.3686763 130.2,48.36 C130.70403,48.3686152 131.20443,48.2733009 131.67,48.08 C132.090889,47.9050172 132.471906,47.64647 132.79,47.32 C133.109898,46.9851965 133.35528,46.5864517 133.51,46.15 C133.686221,45.6766571 133.774339,45.175063 133.77,44.67 C133.772572,44.1650849 133.68451,43.6638062 133.51,43.19 C133.357533,42.7524744 133.111872,42.3532763 132.79,42.02 C132.472475,41.6903574 132.091486,41.4284272 131.67,41.25 C131.202341,41.0648406 130.702933,40.9731125 130.2,40.98 C129.700314,40.9731231 129.204179,41.0648741 128.74,41.25 C128.315471,41.4282231 127.931169,41.6900927 127.61,42.02 C127.294411,42.3562803 127.052576,42.7547973 126.9,43.19 C126.72549,43.6638062 126.637428,44.1650849 126.64,44.67 Z" id="Shape" fill="#747675"></path>
            <polygon id="Path" fill="#747675" points="141.02 38.94 144.84 38.94 147.48 46.42 147.48 46.42 150.14 38.94 153.94 38.94 153.94 50.4 151.41 50.4 151.41 41.61 151.41 41.61 148.41 50.4 146.48 50.4 143.59 41.61 143.59 41.61 143.59 50.4 141.07 50.4"></polygon>
            <path d="M159.22,38.94 L163.47,38.94 C164.037282,38.9363335 164.603485,38.9899386 165.16,39.1 C165.653841,39.1890026 166.123785,39.3797044 166.54,39.66 C166.935326,39.9311191 167.258095,40.2950922 167.48,40.72 C167.728982,41.2476247 167.848948,41.8268869 167.83,42.41 C167.843994,42.9906103 167.731385,43.567304 167.5,44.1 C167.300959,44.5331726 166.994618,44.9083542 166.61,45.19 C166.205501,45.4668883 165.750015,45.66064 165.27,45.76 C164.714148,45.8755188 164.147724,45.9324963 163.58,45.93 L161.74,45.93 L161.74,50.4 L159.22,50.4 L159.22,38.94 Z M161.74,43.790023 L163.42,43.790023 C163.641397,43.7908006 163.862376,43.7707116 164.08,43.73 C164.277318,43.6873738 164.466432,43.6130791 164.64,43.51 C164.80986,43.4067666 164.950889,43.2622975 165.05,43.09 C165.157732,42.8800357 165.209401,42.6458027 165.2,42.41 C165.214717,42.1607297 165.144186,41.9138695 165,41.71 C164.8614,41.5342628 164.683223,41.3937765 164.48,41.3 C164.25885,41.1981983 164.022272,41.1339845 163.78,41.11 C163.52,41.11 163.27,41.11 163.04,41.11 L161.74,41.11 L161.74,43.790023 Z" id="Shape" fill="#747675"></path>
            <path d="M181.99,45.98 C181.997863,46.6200082 181.892927,47.2563986 181.68,47.86 C181.486312,48.4158397 181.176047,48.9238561 180.77,49.35 C180.340265,49.7876978 179.822053,50.1286266 179.25,50.35 C178.583828,50.5925962 177.878881,50.7112172 177.17,50.7 C176.451283,50.711963 175.736362,50.5933742 175.06,50.35 C174.49222,50.1260336 173.97779,49.7853513 173.55,49.35 C173.143953,48.9238561 172.833688,48.4158397 172.64,47.86 C172.427073,47.2563986 172.322137,46.6200082 172.33,45.98 L172.33,38.98 L174.85,38.98 L174.85,45.86 C174.846631,46.2007999 174.904203,46.5394585 175.02,46.86 C175.130396,47.1474419 175.293149,47.4119147 175.5,47.64 C175.703724,47.8675645 175.956863,48.0454457 176.24,48.16 C176.532579,48.2899451 176.849898,48.3547736 177.17,48.35 C177.486861,48.3546022 177.800885,48.2897494 178.09,48.16 C178.36823,48.0417752 178.617346,47.8643228 178.82,47.64 C179.02341,47.4093492 179.185763,47.1455262 179.3,46.86 C179.415797,46.5394585 179.473369,46.2007999 179.47,45.86 L179.47,38.94 L181.99,38.94 L181.99,45.98 Z" id="Path" fill="#747675"></path>
            <polygon id="Path" fill="#747675" points="189.45 41.17 186.18 41.17 186.18 38.94 195.25 38.94 195.25 41.17 191.98 41.17 191.98 50.4 189.45 50.4"></polygon>
            <polygon id="Path" fill="#747675" points="199.41 38.94 201.94 38.94 201.94 50.4 199.41 50.4"></polygon>
            <polygon id="Path" fill="#747675" points="207.15 38.94 210.59 38.94 215.46 46.94 215.46 46.94 215.46 38.94 217.98 38.94 217.98 50.4 214.68 50.4 209.68 42.24 209.68 42.24 209.68 50.4 207.16 50.4"></polygon>
            <path d="M233.59,49.59 C232.856228,49.9771094 232.071986,50.2598404 231.26,50.43 C230.444606,50.6025549 229.613453,50.6896919 228.78,50.69 C227.934976,50.6980737 227.095245,50.5558612 226.3,50.27 C225.573185,50.0061309 224.909143,49.5940845 224.35,49.06 C223.789219,48.5260821 223.349346,47.8782074 223.06,47.16 C222.444465,45.5501659 222.444465,43.7698341 223.06,42.16 C223.352042,41.4432327 223.791552,40.7958917 224.35,40.26 C224.914378,39.7327141 225.576952,39.3215782 226.3,39.05 C227.095862,38.7675423 227.935576,38.6287187 228.78,38.64 C229.638173,38.6265329 230.493758,38.7376916 231.32,38.97 C232.068959,39.1828815 232.755197,39.5740373 233.32,40.11 L231.59,42.06 C231.260033,41.7167296 230.865923,41.4415322 230.43,41.25 C229.909163,41.055726 229.355661,40.9640417 228.8,40.98 C228.30038,40.9739036 227.804396,41.0656268 227.34,41.25 C226.915471,41.4282231 226.531169,41.6900927 226.21,42.02 C225.894853,42.3584453 225.650112,42.756149 225.49,43.19 C225.327056,43.6662554 225.24591,44.1666581 225.25,44.67 C225.24434,45.1734607 225.32553,45.6741279 225.49,46.15 C225.652446,46.5827124 225.896921,46.979985 226.21,47.32 C226.531736,47.6467334 226.916065,47.9052203 227.34,48.08 C227.802305,48.2725016 228.299278,48.3678115 228.8,48.36 C229.283666,48.3717692 229.766188,48.3076578 230.23,48.17 C230.575577,48.0782532 230.910704,47.950905 231.23,47.79 L231.23,45.93 L229.17,45.93 L229.17,43.6 L233.59,43.6 L233.59,49.59 Z" id="Path" fill="#747675"></path>
            <polygon id="Path" fill="#747675" points="111.59 59.86 112.59 59.86 112.59 62.86 116.36 62.86 116.36 59.86 117.36 59.86 117.36 67.11 116.36 67.11 116.36 63.79 112.59 63.79 112.59 67.11 111.59 67.11"></polygon>
            <path d="M123.05,67.29 C122.525595,67.2982802 122.005002,67.1996059 121.52,67 C121.072645,66.817807 120.667575,66.5454911 120.33,66.2 C119.995662,65.8497469 119.730963,65.4391231 119.55,64.99 C119.181618,64.0239264 119.181618,62.9560736 119.55,61.99 C119.730991,61.5438642 119.995762,61.1365253 120.33,60.79 C120.667004,60.4413477 121.072044,60.1656484 121.52,59.98 C122.503336,59.5932305 123.596664,59.5932305 124.58,59.98 C125.027956,60.1656484 125.432996,60.4413477 125.77,60.79 C126.104238,61.1365253 126.369009,61.5438642 126.55,61.99 C126.918382,62.9560736 126.918382,64.0239264 126.55,64.99 C126.369037,65.4391231 126.104338,65.8497469 125.77,66.2 C125.432425,66.5454911 125.027355,66.817807 124.58,67 C124.094998,67.1996059 123.574405,67.2982802 123.05,67.29 L123.05,67.29 Z M123.05,66.37 C123.438689,66.3740571 123.823822,66.2956672 124.18,66.14 C124.841655,65.8422371 125.351594,65.2852823 125.59,64.6 C125.723452,64.2417248 125.791203,63.8623206 125.790016,63.48 C125.790339,63.097755 125.722616,62.718503 125.59,62.36 C125.342346,61.6897981 124.833617,61.1485966 124.18,60.86 C123.457897,60.5532331 122.642103,60.5532331 121.92,60.86 C121.258345,61.1577629 120.748406,61.7147177 120.51,62.4 C120.377384,62.758503 120.309661,63.137755 120.309984,63.52 C120.308797,63.9023206 120.376548,64.2817248 120.51,64.64 C120.748406,65.3252823 121.258345,65.8822371 121.92,66.18 C122.279147,66.3219755 122.664171,66.386714 123.05,66.37 Z" id="Shape" fill="#747675"></path>
            <polygon id="Path" fill="#747675" points="128.74 59.86 130.2 59.86 132.51 65.35 132.51 65.35 134.83 59.86 136.3 59.86 136.3 67.11 135.3 67.11 135.3 61.11 135.3 61.11 132.85 67.11 132.19 67.11 129.74 61.11 129.74 61.11 129.74 67.11 128.74 67.11"></polygon>
            <polygon id="Path" fill="#747675" points="138.66 59.86 143.34 59.86 143.34 60.78 139.64 60.78 139.64 62.94 143.08 62.94 143.08 63.86 139.64 63.86 139.64 66.19 143.53 66.19 143.53 67.11 138.66 67.11"></polygon>
            <polygon id="Path" fill="#747675" points="150.41 60.78 148.08 60.78 148.08 59.86 153.73 59.86 153.73 60.78 151.4 60.78 151.4 67.11 150.4 67.11"></polygon>
            <path d="M158.68,67.29 C158.152285,67.2990818 157.628266,67.2004029 157.14,67 C156.692645,66.817807 156.287575,66.5454911 155.95,66.2 C155.615662,65.8497469 155.350963,65.4391231 155.17,64.99 C154.801618,64.0239264 154.801618,62.9560736 155.17,61.99 C155.350991,61.5438642 155.615762,61.1365253 155.95,60.79 C156.287004,60.4413477 156.692044,60.1656484 157.14,59.98 C157.62963,59.7842431 158.152705,59.6857419 158.68,59.69 C159.200713,59.6868078 159.717039,59.7853175 160.2,59.98 C160.649352,60.1630545 161.054897,60.4390975 161.39,60.79 C161.727481,61.1339349 161.992692,61.5419523 162.17,61.99 C162.538382,62.9560736 162.538382,64.0239264 162.17,64.99 C161.992908,65.4411162 161.727751,65.8524489 161.39,66.2 C161.054321,66.5477605 160.648741,66.8204193 160.2,67 C159.718505,67.1996226 159.20117,67.2983246 158.68,67.29 Z M158.68,66.37 C159.065383,66.3732485 159.447086,66.2948629 159.8,66.14 C160.461971,65.8396208 160.974192,65.2841141 161.22,64.6 C161.350044,64.2410969 161.414404,63.8617112 161.41,63.48 C161.413756,63.0983398 161.349415,62.7190686 161.22,62.36 C161.092846,62.0208474 160.902858,61.7087238 160.66,61.44 C160.41495,61.1810029 160.123164,60.9706457 159.8,60.82 C159.087537,60.5377459 158.291782,60.5521487 157.59,60.86 C157.263752,61.0103954 156.968641,61.2207049 156.72,61.48 C156.482925,61.751163 156.296618,62.0628028 156.17,62.4 C156.040585,62.7590686 155.976244,63.1383398 155.98,63.52 C155.975596,63.9017112 156.039956,64.2810969 156.17,64.64 C156.29283,64.9790089 156.479535,65.291316 156.72,65.56 C157.235992,66.1140914 157.96297,66.4230568 158.72,66.41 L158.68,66.37 Z" id="Shape" fill="#747675"></path>
            <polygon id="Path" fill="#747675" points="167.77 59.86 169.24 59.86 171.54 65.35 171.59 65.35 173.87 59.86 175.34 59.86 175.34 67.11 174.34 67.11 174.34 61.11 174.34 61.11 171.89 67.11 171.24 67.11 168.79 61.11 168.79 61.11 168.79 67.11 167.79 67.11"></polygon>
            <polygon id="Path" fill="#747675" points="177.69 59.86 178.69 59.86 178.69 67.11 177.69 67.11"></polygon>
            <path d="M186.16,61.42 C185.955241,61.1545005 185.687021,60.9447383 185.38,60.81 C185.068363,60.6597479 184.725922,60.584411 184.38,60.59 C183.994617,60.5867515 183.612914,60.6651371 183.26,60.82 C182.598314,61.1270176 182.094577,61.6959874 181.87,62.39 C181.731813,62.7574012 181.663967,63.147517 181.67,63.54 C181.665205,63.9119709 181.729634,64.2815892 181.86,64.63 C181.976637,64.9615285 182.156646,65.2672047 182.39,65.53 C182.624658,65.7962589 182.91479,66.007885 183.24,66.15 C183.59983,66.3042243 183.988621,66.3792542 184.38,66.37 C184.759928,66.3812062 185.136037,66.2914923 185.47,66.11 C185.789637,65.9407567 186.063987,65.6972711 186.27,65.4 L187.1,66.02 C187.015513,66.1372105 186.921888,66.2475546 186.82,66.35 C186.653963,66.5113064 186.469334,66.6522963 186.27,66.77 C186.013176,66.9203476 185.741793,67.0443128 185.46,67.14 C185.102964,67.2450374 184.732124,67.2956065 184.36,67.29 C183.822539,67.3021524 183.289273,67.1927646 182.8,66.97 C182.357233,66.7581595 181.957237,66.4666368 181.62,66.11 C181.300898,65.755698 181.050019,65.3454766 180.88,64.9 C180.714192,64.4657716 180.629456,64.0048078 180.63,63.54 C180.625039,63.011217 180.716536,62.4859606 180.9,61.99 C181.07826,61.5335426 181.343124,61.1158722 181.68,60.76 C182.015679,60.4122395 182.421259,60.1395807 182.87,59.96 C183.358266,59.7595971 183.882285,59.6609182 184.41,59.67 C184.890653,59.669201 185.366627,59.7643957 185.81,59.95 C186.260399,60.1191334 186.655036,60.4099192 186.95,60.79 L186.16,61.42 Z" id="Path" fill="#747675"></path>
            <path d="M188.89,59.86 L191.44,59.86 C191.827917,59.8481108 192.214618,59.9091688 192.58,60.04 C192.85308,60.1484607 193.098908,60.3157601 193.3,60.53 C193.46729,60.7168829 193.590335,60.939048 193.66,61.18 C193.726067,61.4074738 193.759731,61.6431265 193.76,61.88 C193.759727,62.1119097 193.719122,62.3420049 193.64,62.56 C193.558824,62.7726434 193.440293,62.9690654 193.29,63.14 C193.126614,63.3182429 192.933807,63.4670764 192.72,63.58 C192.489962,63.7006965 192.238614,63.7754217 191.98,63.8 L194.04,67.11 L192.81,67.11 L190.97,63.91 L189.87,63.91 L189.87,67.11 L188.87,67.11 L188.89,59.86 Z M189.89,63.05 L191.18,63.05 C191.369708,63.0648992 191.560292,63.0648992 191.75,63.05 C191.925563,63.0239816 192.094962,62.9663857 192.25,62.88 C192.399511,62.7970048 192.521248,62.6717892 192.6,62.52 C192.699898,62.3362762 192.748271,62.1289633 192.74,61.92 C192.747453,61.7143008 192.699075,61.5104213 192.6,61.33 C192.524409,61.1759572 192.401853,61.049899 192.25,60.97 C192.094962,60.8836143 191.925563,60.8260184 191.75,60.8 C191.561596,60.7684842 191.371014,60.7517665 191.18,60.75 L189.89,60.75 L189.89,63.05 Z" id="Shape" fill="#747675"></path>
            <path d="M199.04,67.29 C198.515595,67.2982802 197.995002,67.1996059 197.51,67 C197.062645,66.817807 196.657575,66.5454911 196.32,66.2 C195.985662,65.8497469 195.720963,65.4391231 195.54,64.99 C195.171618,64.0239264 195.171618,62.9560736 195.54,61.99 C195.720991,61.5438642 195.985762,61.1365253 196.32,60.79 C196.657004,60.4413477 197.062044,60.1656484 197.51,59.98 C198.493336,59.5932305 199.586664,59.5932305 200.57,59.98 C201.017956,60.1656484 201.422996,60.4413477 201.76,60.79 C202.094238,61.1365253 202.359009,61.5438642 202.54,61.99 C202.908382,62.9560736 202.908382,64.0239264 202.54,64.99 C202.359037,65.4391231 202.094338,65.8497469 201.76,66.2 C201.422425,66.5454911 201.017355,66.817807 200.57,67 C200.08524,67.2004212 199.564478,67.2991278 199.04,67.29 L199.04,67.29 Z M199.04,66.37 C199.428805,66.3752896 199.814196,66.2968472 200.17,66.14 C200.495228,65.9928972 200.787659,65.7820751 201.03,65.52 C201.27364,65.2518601 201.463724,64.9395789 201.59,64.6 C201.711928,64.2392897 201.772765,63.8607504 201.77,63.48 C201.772025,63.0993064 201.711207,62.7208884 201.59,62.36 C201.459005,62.0227298 201.269422,61.7112712 201.03,61.44 C200.78495,61.1810029 200.493164,60.9706457 200.17,60.82 C199.814196,60.6631528 199.428805,60.5847104 199.04,60.59 C198.651398,60.5868428 198.266451,60.6651949 197.91,60.82 C197.586836,60.9706457 197.29505,61.1810029 197.05,61.44 C196.812925,61.711163 196.626618,62.0228028 196.5,62.36 C196.367384,62.718503 196.299661,63.097755 196.299984,63.48 C196.298797,63.8623206 196.366548,64.2417248 196.5,64.6 C196.62283,64.9390089 196.809535,65.251316 197.05,65.52 C197.292341,65.7820751 197.584772,65.9928972 197.91,66.14 C198.266451,66.2948051 198.651398,66.3731572 199.04,66.37 Z" id="Shape" fill="#747675"></path>
            <polygon id="Path" fill="#747675" points="204.8 59.86 206.09 59.86 210.09 65.86 210.09 65.86 210.09 59.86 211.09 59.86 211.09 67.11 209.84 67.11 205.84 61.11 205.84 61.11 205.84 67.11 204.84 67.11"></polygon>
            <path d="M215.8,59.86 L216.69,59.86 L219.79,67.11 L218.65,67.11 L217.92,65.32 L214.46,65.32 L213.75,67.11 L212.59,67.11 L215.8,59.86 Z M217.59,64.46 L216.24,61.13 L216.24,61.13 L214.86,64.46 L217.59,64.46 Z" id="Shape" fill="#747675"></path>
            <path d="M222.15,59.86 L222.15,64.3 C222.150985,64.5361542 222.181215,64.7712773 222.24,65 C222.300862,65.2406349 222.405986,65.467838 222.55,65.67 C222.696196,65.8797236 222.887557,66.0539983 223.11,66.18 C223.375931,66.3151958 223.671863,66.3805762 223.97,66.37 C224.268217,66.3814664 224.564371,66.3160371 224.83,66.18 C225.059137,66.0595879 225.254948,65.8843892 225.4,65.67 C225.541016,65.4661108 225.64588,65.239468 225.71,65 C225.768785,64.7712773 225.799015,64.5361542 225.8,64.3 L225.8,59.86 L226.8,59.86 L226.8,64.46 C226.806087,64.8533951 226.734733,65.2441458 226.59,65.61 C226.450855,65.9463905 226.246997,66.2521777 225.99,66.51 C225.734837,66.760572 225.432271,66.9577495 225.1,67.09 C224.387508,67.3568983 223.602492,67.3568983 222.89,67.09 C222.556445,66.9602369 222.253406,66.7627502 222,66.51 C221.743003,66.2521777 221.539145,65.9463905 221.4,65.61 C221.255267,65.2441458 221.183913,64.8533951 221.19,64.46 L221.19,59.86 L222.15,59.86 Z" id="Path" fill="#747675"></path>
            <polygon id="Path" fill="#747675" points="230.59 60.78 228.25 60.78 228.25 59.86 233.91 59.86 233.91 60.78 231.59 60.78 231.59 67.11 230.59 67.11"></polygon>
        </g>
    </g>
</svg>