<?xml version="1.0" encoding="UTF-8"?>
<svg width="94px" height="94px" viewBox="0 0 94 94" version="1.1" xmlns="http://www.w3.org/2000/svg" xmlns:xlink="http://www.w3.org/1999/xlink">
    <!-- Generator: Sketch 64 (93537) - https://sketch.com -->
    <title>rxjava</title>
    <desc>Created with Sketch.</desc>
    <g id="Page-1" stroke="none" stroke-width="1" fill="none" fill-rule="evenodd">
        <g id="rxjava" transform="translate(1.000000, 1.000000)">
            <circle id="Oval" stroke="#4CAFDE" stroke-width="2.8347" cx="45.79" cy="45.79" r="45.374"></circle>
            <g transform="translate(22.000000, 22.000000)" fill="#4CAFDE" fill-rule="nonzero">
                <path d="M3.11582054,29.951899 C0.666057351,16.6438813 7.14035049,3.80910075 22,2.10169337 C19.950844,-0.135537776 17.151479,-0.152348728 15.8635,0.119798389 C13.5893567,0.860337445 13.6607498,2.36398513 11.0811503,4.30624402 C8.51667834,5.8028417 7.2287014,4.65673033 5.36057847,6.20821785 C3.49645363,7.7481238 4.7971926,11.2831878 4.0153767,11.9704625 C3.23929874,13.3449429 0.831904947,14.5693935 0.393679601,16.3054679 C0.0315098915,18.5256767 1.37671167,20.1116155 1.32497314,22.0147422 C1.48018873,23.6006813 -0.220249795,24.4974767 0.0240595432,25.7828275 C0.75584931,27.8827162 2.16634511,29.1466039 2.8312887,29.7291721 C2.98377173,29.8389792 3.14481574,30.1094116 3.11582054,29.951899 L3.11582054,29.951899 Z" id="Path"></path>
                <path d="M29.2485844,11.6490261 C28.6932782,11.6490261 28.2430235,11.1884731 28.2430235,10.6204658 C28.2430235,10.0524586 28.6932782,9.59190559 29.2485844,9.59190559 C29.8038907,9.59190559 30.2541453,10.0524586 30.2541453,10.6204658 C30.2541453,11.1884731 29.8038907,11.6490261 29.2485844,11.6490261 L29.2485844,11.6490261 Z M2.78822836,32 C0.380068656,20.1560747 7.83193557,10.2596036 22.262582,15.131731 C30.7301461,20.1986353 41.3819754,19.8687164 41.8622352,16.5933692 C43.0478491,12.6668916 36.4639605,4.5754549 26.6200481,2.46419968 C7.09099592,-1.43350227 -3.43727246,20.1560749 2.78822836,32 L2.78822836,32 Z" id="Shape"></path>
                <path d="M35.4061193,32.504574 C38.1981387,32.8226455 40.8483965,32.1180228 43.3044073,30.0129424 C39.5939445,34.3649922 34.9544391,36.553127 29.6310949,37.1485467 C32.1728149,39.4208074 34.623934,40.444359 36.9688593,40.0062605 C30.4531284,41.8968999 24.9941838,39.8158347 18.3535906,32.8618695 C18.0058509,34.7338832 19.8860849,37.650523 21.82407,39.5123344 C10.5795576,34.3861107 9.59374985,18.4173419 23.3052964,14.489285 C9.09165775,7.30831774 1.05462919,21.2609899 5.00333353,32.69656 C8.86688602,41.5042733 19.1624492,48.2846931 30.4464022,46.793572 C35.9274134,46.0876129 44.1121337,42.1139259 47.4557689,32.69656 C45.0992254,34.9202741 40.8868678,36.8570238 39.0071272,37.0055858 C45.3691728,33.6621914 48.8035337,27.9810048 47.8395534,20.2161685 C46.5217112,23.5153031 44.7829669,26.0490513 42.6080331,27.7892283 C47.2280717,20.2161685 46.4352888,16.3018957 43.0156867,12 C45.4616083,19.0730186 42.2976049,26.9231049 35.4061193,32.504574 L35.4061193,32.504574 Z" id="Path"></path>
                <path d="M32,40.3943328 C31.5113131,40.3043173 33.1078051,41.0318611 30.0212252,40.2263422 C26.9346454,39.4208233 23.7918845,38.6445772 18.0423168,33 C17.6902884,34.7766554 19.5937121,37.5447247 21.5555991,39.3116974 C26.8516922,42.9529227 23.2499526,41.2499115 31.3194513,44 C31.9669862,42.7293455 32,41.6002278 32,40.3943328 L32,40.3943328 Z" id="Path"></path>
                <path d="M21.1948512,10.543045 C21.1948512,10.543045 21.8894541,9.41643194 22.1598359,8.90832246 C22.4911703,8.28566966 23,7.15075818 23,7.15075818 C23,7.15075818 17.6533806,5.23388696 16.3412642,5 C12.2624718,6.1634938 12.2476289,8.04131649 14.5280021,10.9155893 C14.7817287,11.2354892 21.1948512,10.543045 21.1948512,10.543045 L21.1948512,10.543045 Z" id="Path"></path>
            </g>
        </g>
    </g>
</svg>