<?xml version="1.0" encoding="UTF-8"?>
<svg width="94px" height="94px" viewBox="0 0 94 94" version="1.1" xmlns="http://www.w3.org/2000/svg" xmlns:xlink="http://www.w3.org/1999/xlink">
    <!-- Generator: Sketch 52.6 (67491) - http://www.bohemiancoding.com/sketch -->
    <title>redis</title>
    <desc>Created with Sketch.</desc>
    <g id="Page-1" stroke="none" stroke-width="1" fill="none" fill-rule="evenodd">
        <g id="redis" transform="translate(1.000000, 1.000000)">
            <circle id="Oval" stroke="#4CAFDE" stroke-width="2.8347" cx="45.79" cy="45.79" r="45.374"></circle>
            <g id="iconfinder_Untitled-2_202809" transform="translate(23.000000, 27.000000)">
                <path d="M44.1977158,30.0772435 C41.7429105,31.3423216 29.0259383,36.5113269 26.318643,37.9064541 C23.6111219,39.3026651 22.1072732,39.2890545 19.9685399,38.2782416 C17.8298065,37.2673967 4.29684431,31.8634105 1.85906298,30.7111053 C0.640526981,30.1357337 0,29.6496115 0,29.1906784 L0,24.5939209 C0,24.5939209 17.6181354,20.8022247 20.4625897,19.7933561 C23.3069474,18.784615 24.2934673,18.748214 26.7139667,19.624866 C29.1347885,20.5015181 43.6078094,23.082897 46,23.9490623 C46,23.9490623 45.998936,28.0545656 45.998936,28.4806039 C45.9992584,28.9353295 45.4473335,29.4340104 44.1977158,30.0772435 Z" id="Path" fill="#2785B1"></path>
                <path d="M44.1967877,25.662146 C41.742067,26.9856165 29.0255328,32.3959564 26.3183308,33.856034 C23.610903,35.316712 22.1071061,35.3024675 19.9684464,34.2445384 C17.8295288,33.1872432 4.29732299,27.5304101 1.85962564,26.3254992 C-0.578103952,25.1200545 -0.629174111,24.290004 1.76548116,23.3200773 C4.15987849,22.3495834 17.6181551,16.8861018 20.4627694,15.8302077 C23.3067389,14.774914 24.2935473,14.736217 26.713931,15.6539696 C29.1345728,16.5713218 41.775082,21.777435 44.1672547,22.6839788 C46.5596853,23.5910896 46.6515407,24.3381084 44.1967877,25.662146 Z" id="Path" fill="#4CAFDE"></path>
                <path d="M44.1977158,22.0775374 C41.7429105,23.3426298 29.0259383,28.5117256 26.318643,29.9074104 C23.6111219,31.3025534 22.1072732,31.2889746 19.9685399,30.2780864 C17.8295164,29.2678039 4.29684431,23.8632146 1.85906298,22.7114064 C0.640526981,22.1355183 0,21.6504424 0,21.1914723 L0,16.5938659 C0,16.5938659 17.6181354,12.8023181 20.4625897,11.7934062 C23.3069474,10.7847812 24.2934673,10.7480929 26.7139667,11.6247548 C29.1347885,12.5012893 43.6078094,15.0824425 46,15.9487769 C46,15.9487769 45.998936,20.0542629 45.998936,20.4808798 C45.9992584,20.9351005 45.4473335,21.4337234 44.1977158,22.0775374 Z" id="Path" fill="#2785B1"></path>
                <path d="M44.1967877,17.6618847 C41.742067,18.9857631 29.0255328,24.3955999 26.3183308,25.8562529 C23.610903,27.3169058 22.1071061,27.3021609 19.9684464,26.2447595 C17.8295288,25.187425 4.29732299,19.5304263 1.85962564,18.325275 C-0.578103952,17.119957 -0.629174111,16.2901686 1.76548116,15.3195025 C4.15987849,14.3496035 17.6181551,8.88595754 20.4627694,7.83035764 C23.3067389,6.77475775 24.2935473,6.73636077 26.713931,7.65385165 C29.1345728,8.57117573 41.775082,13.7767847 44.1672547,14.6836339 C46.5596853,15.5907165 46.6515407,16.337973 44.1967877,17.6618847 Z" id="Path" fill="#4CAFDE"></path>
                <path d="M44.1976836,16.0770864 C41.7428783,17.3420641 29.025906,22.5114991 26.3186107,23.9071343 C23.6110897,25.3028014 22.1072409,25.2887125 19.9685076,24.2783878 C17.8295164,23.2680313 4.29684431,17.8627817 1.85906298,16.7112168 C0.640526981,16.1353228 0,15.6498277 0,15.1911717 L0,10.5937737 C0,10.5937737 17.6181354,6.80215559 20.4625897,5.79352033 C23.3069474,4.7845982 24.2934673,4.74819642 26.7139667,5.62483539 C29.1347885,6.50137873 43.6078094,9.08255804 46,9.94890123 C46,9.94890123 45.998936,14.0544608 45.998936,14.4807632 C45.9992262,14.9347654 45.4473012,15.4332658 44.1976836,16.0770864 Z" id="Path" fill="#2785B1"></path>
                <path d="M44.196789,10.6618007 C41.74207,11.9856909 29.0255447,17.3958435 26.3183446,18.8564096 C23.6109187,20.3166754 22.1071228,20.3022973 19.9684647,19.2448197 C17.8298065,18.1871086 4.29731998,12.5308262 1.85962434,11.3254972 C-0.578103547,10.1201349 -0.62917367,9.29007221 1.76547992,8.3196975 C4.15990782,7.34932279 17.618175,1.88632803 20.4627873,0.830451724 C23.3067548,-0.225457938 24.2935625,-0.263555019 26.7139446,0.654077581 C29.1345846,1.57157674 41.775085,6.77723273 44.167256,7.6840567 C46.5596849,8.59048035 46.6515402,9.33814392 44.196789,10.6618007 Z" id="Path" fill="#4CAFDE"></path>
                <polygon id="Path" fill="#FFFFFF" points="29 5.41739427 24.985665 5.83457718 24.0868039 8 22.6352996 5.5836951 18 5.16647968 21.4587043 3.91733737 20.4211222 2 23.6591459 3.26816578 26.7122733 2.267239 25.886994 4.25000406"></polygon>
                <polygon id="Path" fill="#FFFFFF" points="23.6765302 16 16 12.7324647 27 11"></polygon>
                <ellipse id="Oval" fill="#FFFFFF" cx="13.5" cy="9.5" rx="5.5" ry="2.5"></ellipse>
                <polygon id="Path" fill="#2785B1" points="34 6 40 8.50135861 34.005029 11"></polygon>
                <polygon id="Path" fill="#2785B1" points="26 8.62870615 32.9947007 6 33 10.7451664 32.3142856 11"></polygon>
            </g>
        </g>
    </g>
</svg>