<?xml version="1.0" encoding="UTF-8"?>
<svg width="463px" height="616px" viewBox="0 0 463 616" version="1.1" xmlns="http://www.w3.org/2000/svg" xmlns:xlink="http://www.w3.org/1999/xlink">
    <!-- Generator: Sketch 50.2 (55047) - http://www.bohemiancoding.com/sketch -->
    <title>rocket</title>
    <desc>Created with Sketch.</desc>
    <defs></defs>
    <g id="Page-1" stroke="none" stroke-width="1" fill="none" fill-rule="evenodd">
        <g id="rocket" transform="translate(-75.000000, -38.000000)">
            <g transform="translate(251.161197, 348.523955) rotate(30.000000) translate(-251.161197, -348.523955) translate(164.661197, -3.976045)" fill-rule="nonzero">
                <polygon id="Path_362" fill="#231F20" points="86.37 216.069 48.929 281.169 124.024 281.169"></polygon>
                <path d="M86.37,187.138 C118.28,187.138 146.361,224.579 161.252,280.315 C168.698,252.872 172.74,221.175 172.74,187.138 C172.74,84.175 134.022,0.783 86.37,0.783 C38.718,0.783 0,84.175 0,187.138 C0,221.175 4.255,252.873 11.488,280.315 C26.592,224.583 54.46,187.138 86.37,187.138 Z" id="Path_363" fill="#231F20"></path>
                <path d="M86.37,55.243 C101.408714,55.243 113.6,67.4342863 113.6,82.473 C113.6,97.5117137 101.408714,109.703 86.37,109.703 C71.3312863,109.703 59.14,97.5117137 59.14,82.473 C59.14,67.4342863 71.3312863,55.243 86.37,55.243 Z" id="Path_367" fill="#FFFFFF"></path>
                <polygon id="Path_366" fill="#B6434B" points="86.415 704.612 64.708 307.272 108.244 307.272"></polygon>
                <polygon id="Path_368" fill="#4CAFDE" points="86.428 509.407 69.471 307.272 103.482 307.272"></polygon>
            </g>
            <g id="Group" transform="translate(317.000000, 380.000000)" fill="#231F20">
                <path d="M18.475,18 L14.45,18 L14.15,11.225 C14.0666662,9.60832525 14.025,8.166673 14.025,6.9 C14.025,5.9333285 14.0499997,5.016671 14.1,4.15 L11.425,16.175 L7.55,16.175 L4.7,4.15 C4.8000005,5.60000725 4.85,6.96666025 4.85,8.25 C4.85,9.2166715 4.82500025,10.2249948 4.775,11.275 L4.475,18 L0.475,18 L1.775,0.675 L6.95,0.675 L9.55,12.425 L11.975,0.675 L17.175,0.675 L18.475,18 Z M27.85,0.25 C30.316679,0.25 32.2374931,1.04165875 33.6125,2.625 C34.9875069,4.20834125 35.675,6.44165225 35.675,9.325 C35.675,11.2083427 35.3625031,12.8333265 34.7375,14.2 C34.1124969,15.5666735 33.2125059,16.6124964 32.0375,17.3375 C30.8624941,18.0625036 29.4666747,18.425 27.85,18.425 C26.2333252,18.425 24.8416725,18.0666703 23.675,17.35 C22.5083275,16.6333298 21.6125031,15.5958401 20.9875,14.2375 C20.3624969,12.8791599 20.05,11.2416762 20.05,9.325 C20.05,7.458324 20.3624969,5.8416735 20.9875,4.475 C21.6125031,3.1083265 22.5083275,2.06250362 23.675,1.3375 C24.8416725,0.612496375 26.2333252,0.25 27.85,0.25 Z M27.85,3.25 C26.6666607,3.25 25.7875029,3.72916188 25.2125,4.6875 C24.6374971,5.64583812 24.35,7.191656 24.35,9.325 C24.35,11.458344 24.6416637,13.0083285 25.225,13.975 C25.8083362,14.9416715 26.6833275,15.425 27.85,15.425 C29.050006,15.425 29.9374971,14.9458381 30.5125,13.9875 C31.0875029,13.0291619 31.375,11.4750107 31.375,9.325 C31.375,7.17498925 31.0833362,5.62500475 30.5,4.675 C29.9166637,3.72499525 29.0333392,3.25 27.85,3.25 Z M51.475,18 L46.25,18 L41.25,4.575 C41.4166675,5.89167325 41.5458329,7.05416162 41.6375,8.0625 C41.7291671,9.07083838 41.775,10.2666598 41.775,11.65 L41.775,18 L38.125,18 L38.125,0.675 L43.225,0.675 L48.35,14.125 C47.9833315,11.8416553 47.8,9.69167675 47.8,7.675 L47.8,0.675 L51.475,0.675 L51.475,18 Z M67.975,12.25 C67.975,13.4333393 67.7208359,14.491662 67.2125,15.425 C66.7041641,16.358338 65.9416717,17.091664 64.925,17.625 C63.9083282,18.158336 62.666674,18.425 61.2,18.425 C58.999989,18.425 57.3250057,17.8666723 56.175,16.75 C55.0249942,15.6333277 54.45,14.1333427 54.45,12.25 L54.45,0.675 L58.55,0.675 L58.55,12.075 C58.55,13.1916722 58.7624979,14.0208306 59.1875,14.5625 C59.6125021,15.1041694 60.2833287,15.375 61.2,15.375 C62.133338,15.375 62.8124979,15.1041694 63.2375,14.5625 C63.6625021,14.0208306 63.875,13.1916722 63.875,12.075 L63.875,0.675 L67.975,0.675 L67.975,12.25 Z M88.05,18 L84.025,18 L83.725,11.225 C83.6416663,9.60832525 83.6,8.166673 83.6,6.9 C83.6,5.9333285 83.6249998,5.016671 83.675,4.15 L81,16.175 L77.125,16.175 L74.275,4.15 C74.3750005,5.60000725 74.425,6.96666025 74.425,8.25 C74.425,9.2166715 74.4000002,10.2249948 74.35,11.275 L74.05,18 L70.05,18 L71.35,0.675 L76.525,0.675 L79.125,12.425 L81.55,0.675 L86.75,0.675 L88.05,18 Z M100.875,3.6 L94.775,3.6 L94.775,7.75 L100.1,7.75 L100.1,10.625 L94.775,10.625 L94.775,15.05 L101.3,15.05 L101.3,18 L90.675,18 L90.675,0.675 L101.3,0.675 L100.875,3.6 Z M117.175,18 L111.95,18 L106.95,4.575 C107.116668,5.89167325 107.245833,7.05416162 107.3375,8.0625 C107.429167,9.07083838 107.475,10.2666598 107.475,11.65 L107.475,18 L103.825,18 L103.825,0.675 L108.925,0.675 L114.05,14.125 C113.683332,11.8416553 113.5,9.69167675 113.5,7.675 L113.5,0.675 L117.175,0.675 L117.175,18 Z M131.85,3.825 L127.575,3.825 L127.575,18 L123.475,18 L123.475,3.825 L119,3.825 L119,0.675 L132.25,0.675 L131.85,3.825 Z M140.65,14.275 L135.575,14.275 L134.7,18 L130.45,18 L135.675,0.675 L140.65,0.675 L145.875,18 L141.525,18 L140.65,14.275 Z M139.925,11.3 L138.1,3.65 L136.275,11.3 L139.925,11.3 Z M151.25,14.75 L158,14.75 L157.575,18 L147.15,18 L147.15,0.675 L151.25,0.675 L151.25,14.75 Z M170,14.75 L176.75,14.75 L176.325,18 L165.9,18 L165.9,0.675 L170,0.675 L170,14.75 Z M188.925,3.6 L182.825,3.6 L182.825,7.75 L188.15,7.75 L188.15,10.625 L182.825,10.625 L182.825,15.05 L189.35,15.05 L189.35,18 L178.725,18 L178.725,0.675 L189.35,0.675 L188.925,3.6 Z M200.125,14.275 L195.05,14.275 L194.175,18 L189.925,18 L195.15,0.675 L200.125,0.675 L205.35,18 L201,18 L200.125,14.275 Z M199.4,11.3 L197.575,3.65 L195.75,11.3 L199.4,11.3 Z M212.225,0.675 C214.508345,0.675 216.283327,1.14999525 217.55,2.1 C218.816673,3.05000475 219.45,4.458324 219.45,6.325 C219.45,8.27500975 218.829173,9.74582838 217.5875,10.7375 C216.345827,11.7291716 214.683344,12.225 212.6,12.225 L210.725,12.225 L210.725,18 L206.625,18 L206.625,0.675 L212.225,0.675 Z M212.25,9.275 C213.216671,9.275 213.954164,9.04583562 214.4625,8.5875 C214.970836,8.12916438 215.225,7.37500525 215.225,6.325 C215.225,4.50832425 214.208344,3.6 212.175,3.6 L210.725,3.6 L210.725,9.275 L212.25,9.275 Z M35.425,54 L31.325,54 L31.325,36.675 L35.425,36.675 L35.425,54 Z M52,54 L46.775,54 L41.775,40.575 C41.9416675,41.8916732 42.0708329,43.0541616 42.1625,44.0625 C42.2541671,45.0708384 42.3,46.2666598 42.3,47.65 L42.3,54 L38.65,54 L38.65,36.675 L43.75,36.675 L48.875,50.125 C48.5083315,47.8416553 48.325,45.6916767 48.325,43.675 L48.325,36.675 L52,36.675 L52,54 Z M66.725,36.25 C68.0250065,36.25 69.1541619,36.4333315 70.1125,36.8 C71.0708381,37.1666685 71.9416628,37.7249963 72.725,38.475 L70.825,40.7 C69.6416608,39.7333285 68.3750068,39.25 67.025,39.25 C66.3083298,39.25 65.7416688,39.3958319 65.325,39.6875 C64.9083313,39.9791681 64.7,40.3999972 64.7,40.95 C64.7,41.3333352 64.7916658,41.6458321 64.975,41.8875 C65.1583343,42.1291679 65.483331,42.3583323 65.95,42.575 C66.416669,42.7916678 67.116662,43.0499985 68.05,43.35 C69.8166755,43.9166695 71.1166625,44.6124959 71.95,45.4375 C72.7833375,46.2625041 73.2,47.4333257 73.2,48.95 C73.2,50.0333387 72.9250028,50.9874959 72.375,51.8125 C71.8249973,52.6375041 71.0333385,53.2791644 70,53.7375 C68.9666615,54.1958356 67.7416738,54.425 66.325,54.425 C64.9083263,54.425 63.6541721,54.2000022 62.5625,53.75 C61.4708279,53.2999978 60.5333373,52.7000038 59.75,51.95 L61.825,49.675 C62.49167,50.2416695 63.1791631,50.6666652 63.8875,50.95 C64.5958369,51.2333347 65.3666625,51.375 66.2,51.375 C67.0500043,51.375 67.7208309,51.1875019 68.2125,50.8125 C68.7041691,50.4374981 68.95,49.91667 68.95,49.25 C68.95,48.8166645 68.8583343,48.4541681 68.675,48.1625 C68.4916658,47.8708319 68.1750023,47.6083345 67.725,47.375 C67.2749978,47.1416655 66.6250043,46.891668 65.775,46.625 C63.8583238,46.0416637 62.4958374,45.3250042 61.6875,44.475 C60.8791626,43.6249957 60.475,42.5500065 60.475,41.25 C60.475,40.249995 60.741664,39.3708371 61.275,38.6125 C61.808336,37.8541629 62.5499953,37.2708354 63.5,36.8625 C64.4500048,36.4541646 65.524994,36.25 66.725,36.25 Z M86.65,39.825 L82.375,39.825 L82.375,54 L78.275,54 L78.275,39.825 L73.8,39.825 L73.8,36.675 L87.05,36.675 L86.65,39.825 Z M95.45,50.275 L90.375,50.275 L89.5,54 L85.25,54 L90.475,36.675 L95.45,36.675 L100.675,54 L96.325,54 L95.45,50.275 Z M94.725,47.3 L92.9,39.65 L91.075,47.3 L94.725,47.3 Z M107.65,47.375 L106.05,47.375 L106.05,54 L101.95,54 L101.95,36.675 L107.625,36.675 C109.991679,36.675 111.770827,37.108329 112.9625,37.975 C114.154173,38.841671 114.75,40.1666577 114.75,41.95 C114.75,43.0666722 114.483336,43.991663 113.95,44.725 C113.416664,45.458337 112.575006,46.091664 111.425,46.625 L115.825,54 L111.2,54 L107.65,47.375 Z M106.05,44.55 L107.775,44.55 C108.691671,44.55 109.379164,44.3416687 109.8375,43.925 C110.295836,43.5083312 110.525,42.8500045 110.525,41.95 C110.525,41.1166625 110.279169,40.5083353 109.7875,40.125 C109.295831,39.7416647 108.541672,39.55 107.525,39.55 L106.05,39.55 L106.05,44.55 Z M128.575,39.825 L124.3,39.825 L124.3,54 L120.2,54 L120.2,39.825 L115.725,39.825 L115.725,36.675 L128.975,36.675 L128.575,39.825 Z M143.9,48.25 C143.9,49.4333393 143.645836,50.491662 143.1375,51.425 C142.629164,52.358338 141.866672,53.091664 140.85,53.625 C139.833328,54.158336 138.591674,54.425 137.125,54.425 C134.924989,54.425 133.250006,53.8666722 132.1,52.75 C130.949994,51.6333278 130.375,50.1333427 130.375,48.25 L130.375,36.675 L134.475,36.675 L134.475,48.075 C134.475,49.1916722 134.687498,50.0208306 135.1125,50.5625 C135.537502,51.1041694 136.208329,51.375 137.125,51.375 C138.058338,51.375 138.737498,51.1041694 139.1625,50.5625 C139.587502,50.0208306 139.8,49.1916722 139.8,48.075 L139.8,36.675 L143.9,36.675 L143.9,48.25 Z M152.5,36.675 C154.783345,36.675 156.558327,37.1499953 157.825,38.1 C159.091673,39.0500047 159.725,40.458324 159.725,42.325 C159.725,44.2750098 159.104173,45.7458284 157.8625,46.7375 C156.620827,47.7291716 154.958344,48.225 152.875,48.225 L151,48.225 L151,54 L146.9,54 L146.9,36.675 L152.5,36.675 Z M152.525,45.275 C153.491671,45.275 154.229164,45.0458356 154.7375,44.5875 C155.245836,44.1291644 155.5,43.3750053 155.5,42.325 C155.5,40.5083243 154.483344,39.6 152.45,39.6 L151,39.6 L151,45.275 L152.525,45.275 Z M179.275,39.825 L175,39.825 L175,54 L170.9,54 L170.9,39.825 L166.425,39.825 L166.425,36.675 L179.675,36.675 L179.275,39.825 Z M185.425,54 L181.325,54 L181.325,36.675 L185.425,36.675 L185.425,54 Z M205.85,54 L201.825,54 L201.525,47.225 C201.441666,45.6083253 201.4,44.166673 201.4,42.9 C201.4,41.9333285 201.425,41.016671 201.475,40.15 L198.8,52.175 L194.925,52.175 L192.075,40.15 C192.175001,41.6000072 192.225,42.9666603 192.225,44.25 C192.225,45.2166715 192.2,46.2249948 192.15,47.275 L191.85,54 L187.85,54 L189.15,36.675 L194.325,36.675 L196.925,48.425 L199.35,36.675 L204.55,36.675 L205.85,54 Z M218.675,39.6 L212.575,39.6 L212.575,43.75 L217.9,43.75 L217.9,46.625 L212.575,46.625 L212.575,51.05 L219.1,51.05 L219.1,54 L208.475,54 L208.475,36.675 L219.1,36.675 L218.675,39.6 Z" id="MONUMENTAL-LEAP-IN-S"></path>
                <path d="M75.075,117.825 C76.2250058,118.041668 77.1624964,118.466663 77.8875,119.1 C78.6125036,119.733337 78.975,120.683327 78.975,121.95 C78.975,123.800009 78.3125066,125.104163 76.9875,125.8625 C75.6624934,126.620837 73.8083453,127 71.425,127 L65.85,127 L65.85,109.675 L70.75,109.675 C73.1833455,109.675 75.0416603,110.02083 76.325,110.7125 C77.6083398,111.40417 78.25,112.533325 78.25,114.1 C78.25,115.116672 77.9458364,115.937497 77.3375,116.5625 C76.7291636,117.187503 75.9750045,117.608332 75.075,117.825 Z M69.95,112.575 L69.95,116.6 L71.475,116.6 C73.208342,116.6 74.075,115.900007 74.075,114.5 C74.075,113.799997 73.841669,113.304168 73.375,113.0125 C72.908331,112.720832 72.1666718,112.575 71.15,112.575 L69.95,112.575 Z M71.45,124.025 C72.5333388,124.025 73.3541639,123.862502 73.9125,123.5375 C74.4708361,123.212498 74.75,122.608338 74.75,121.725 C74.75,120.124992 73.75001,119.325 71.75,119.325 L69.95,119.325 L69.95,124.025 L71.45,124.025 Z M85.375,123.75 L92.125,123.75 L91.7,127 L81.275,127 L81.275,109.675 L85.375,109.675 L85.375,123.75 Z M102.35,123.275 L97.275,123.275 L96.4,127 L92.15,127 L97.375,109.675 L102.35,109.675 L107.575,127 L103.225,127 L102.35,123.275 Z M101.625,120.3 L99.8,112.65 L97.975,120.3 L101.625,120.3 Z M120.025,112.775 L112.5,123.725 L120.15,123.725 L119.75,127 L107.675,127 L107.675,123.925 L115.35,112.85 L108.45,112.85 L108.45,109.675 L120.025,109.675 L120.025,112.775 Z M126.55,127 L122.45,127 L122.45,109.675 L126.55,109.675 L126.55,127 Z M143.125,127 L137.9,127 L132.9,113.575 C133.066668,114.891673 133.195833,116.054162 133.2875,117.0625 C133.379167,118.070838 133.425,119.26666 133.425,120.65 L133.425,127 L129.775,127 L129.775,109.675 L134.875,109.675 L140,123.125 C139.633332,120.841655 139.45,118.691677 139.45,116.675 L139.45,109.675 L143.125,109.675 L143.125,127 Z M153.825,109.25 C156.075011,109.25 158.008325,109.958326 159.625,111.375 L157.5,113.6 C156.916664,113.116664 156.362503,112.766668 155.8375,112.55 C155.312497,112.333332 154.708337,112.225 154.025,112.225 C152.74166,112.225 151.716671,112.729162 150.95,113.7375 C150.18333,114.745838 149.8,116.27499 149.8,118.325 C149.8,120.541678 150.091664,122.112495 150.675,123.0375 C151.258336,123.962505 152.166661,124.425 153.4,124.425 C154.266671,124.425 155.049997,124.233335 155.75,123.85 L155.75,119.925 L153.5,119.925 L153.1,117.025 L159.725,117.025 L159.725,125.6 C158.824996,126.183336 157.833339,126.633332 156.75,126.95 C155.666661,127.266668 154.558339,127.425 153.425,127.425 C150.824987,127.425 148.862507,126.654174 147.5375,125.1125 C146.212493,123.570826 145.55,121.308348 145.55,118.325 C145.55,116.424991 145.912496,114.791674 146.6375,113.425 C147.362504,112.058326 148.35416,111.020837 149.6125,110.3125 C150.87084,109.604163 152.274992,109.25 153.825,109.25 Z M178.3,112.6 L172.5,112.6 L172.5,117.2 L177.55,117.2 L177.55,120.125 L172.5,120.125 L172.5,127 L168.4,127 L168.4,109.675 L178.725,109.675 L178.3,112.6 Z M187.575,123.275 L182.5,123.275 L181.625,127 L177.375,127 L182.6,109.675 L187.575,109.675 L192.8,127 L188.45,127 L187.575,123.275 Z M186.85,120.3 L185.025,112.65 L183.2,120.3 L186.85,120.3 Z M199.65,109.25 C200.950007,109.25 202.079162,109.433331 203.0375,109.8 C203.995838,110.166669 204.866663,110.724996 205.65,111.475 L203.75,113.7 C202.566661,112.733328 201.300007,112.25 199.95,112.25 C199.23333,112.25 198.666669,112.395832 198.25,112.6875 C197.833331,112.979168 197.625,113.399997 197.625,113.95 C197.625,114.333335 197.716666,114.645832 197.9,114.8875 C198.083334,115.129168 198.408331,115.358332 198.875,115.575 C199.341669,115.791668 200.041662,116.049999 200.975,116.35 C202.741675,116.91667 204.041663,117.612496 204.875,118.4375 C205.708337,119.262504 206.125,120.433326 206.125,121.95 C206.125,123.033339 205.850003,123.987496 205.3,124.8125 C204.749997,125.637504 203.958338,126.279164 202.925,126.7375 C201.891661,127.195836 200.666674,127.425 199.25,127.425 C197.833326,127.425 196.579172,127.200002 195.4875,126.75 C194.395828,126.299998 193.458337,125.700004 192.675,124.95 L194.75,122.675 C195.41667,123.24167 196.104163,123.666665 196.8125,123.95 C197.520837,124.233335 198.291663,124.375 199.125,124.375 C199.975004,124.375 200.645831,124.187502 201.1375,123.8125 C201.629169,123.437498 201.875,122.91667 201.875,122.25 C201.875,121.816665 201.783334,121.454168 201.6,121.1625 C201.416666,120.870832 201.100002,120.608335 200.65,120.375 C200.199998,120.141665 199.550004,119.891668 198.7,119.625 C196.783324,119.041664 195.420837,118.325004 194.6125,117.475 C193.804163,116.624996 193.4,115.550006 193.4,114.25 C193.4,113.249995 193.666664,112.370837 194.2,111.6125 C194.733336,110.854163 195.474995,110.270835 196.425,109.8625 C197.375005,109.454165 198.449994,109.25 199.65,109.25 Z M219.575,112.825 L215.3,112.825 L215.3,127 L211.2,127 L211.2,112.825 L206.725,112.825 L206.725,109.675 L219.975,109.675 L219.575,112.825 Z M76.65,148.825 L72.375,148.825 L72.375,163 L68.275,163 L68.275,148.825 L63.8,148.825 L63.8,145.675 L77.05,145.675 L76.65,148.825 Z M88,155.575 L82.8,155.575 L82.8,163 L78.7,163 L78.7,145.675 L82.8,145.675 L82.8,152.375 L88,152.375 L88,145.675 L92.1,145.675 L92.1,163 L88,163 L88,155.575 Z M101.05,156.375 L99.45,156.375 L99.45,163 L95.35,163 L95.35,145.675 L101.025,145.675 C103.391678,145.675 105.170827,146.108329 106.3625,146.975 C107.554173,147.841671 108.15,149.166658 108.15,150.95 C108.15,152.066672 107.883336,152.991663 107.35,153.725 C106.816664,154.458337 105.975006,155.091664 104.825,155.625 L109.225,163 L104.6,163 L101.05,156.375 Z M99.45,153.55 L101.175,153.55 C102.091671,153.55 102.779164,153.341669 103.2375,152.925 C103.695836,152.508331 103.925,151.850005 103.925,150.95 C103.925,150.116663 103.679169,149.508335 103.1875,149.125 C102.695831,148.741665 101.941672,148.55 100.925,148.55 L99.45,148.55 L99.45,153.55 Z M117.525,145.25 C119.991679,145.25 121.912493,146.041659 123.2875,147.625 C124.662507,149.208341 125.35,151.441652 125.35,154.325 C125.35,156.208343 125.037503,157.833326 124.4125,159.2 C123.787497,160.566674 122.887506,161.612496 121.7125,162.3375 C120.537494,163.062504 119.141675,163.425 117.525,163.425 C115.908325,163.425 114.516672,163.06667 113.35,162.35 C112.183327,161.63333 111.287503,160.59584 110.6625,159.2375 C110.037497,157.87916 109.725,156.241676 109.725,154.325 C109.725,152.458324 110.037497,150.841674 110.6625,149.475 C111.287503,148.108327 112.183327,147.062504 113.35,146.3375 C114.516672,145.612496 115.908325,145.25 117.525,145.25 Z M117.525,148.25 C116.341661,148.25 115.462503,148.729162 114.8875,149.6875 C114.312497,150.645838 114.025,152.191656 114.025,154.325 C114.025,156.458344 114.316664,158.008329 114.9,158.975 C115.483336,159.941671 116.358327,160.425 117.525,160.425 C118.725006,160.425 119.612497,159.945838 120.1875,158.9875 C120.762503,158.029162 121.05,156.475011 121.05,154.325 C121.05,152.174989 120.758336,150.625005 120.175,149.675 C119.591664,148.724995 118.708339,148.25 117.525,148.25 Z M141.075,157.25 C141.075,158.433339 140.820836,159.491662 140.3125,160.425 C139.804164,161.358338 139.041672,162.091664 138.025,162.625 C137.008328,163.158336 135.766674,163.425 134.3,163.425 C132.099989,163.425 130.425006,162.866672 129.275,161.75 C128.124994,160.633328 127.55,159.133343 127.55,157.25 L127.55,145.675 L131.65,145.675 L131.65,157.075 C131.65,158.191672 131.862498,159.020831 132.2875,159.5625 C132.712502,160.104169 133.383329,160.375 134.3,160.375 C135.233338,160.375 135.912498,160.104169 136.3375,159.5625 C136.762502,159.020831 136.975,158.191672 136.975,157.075 L136.975,145.675 L141.075,145.675 L141.075,157.25 Z M151.55,145.25 C153.800011,145.25 155.733325,145.958326 157.35,147.375 L155.225,149.6 C154.641664,149.116664 154.087503,148.766668 153.5625,148.55 C153.037497,148.333332 152.433337,148.225 151.75,148.225 C150.46666,148.225 149.44167,148.729162 148.675,149.7375 C147.90833,150.745838 147.525,152.27499 147.525,154.325 C147.525,156.541678 147.816664,158.112495 148.4,159.0375 C148.983336,159.962505 149.891661,160.425 151.125,160.425 C151.991671,160.425 152.774997,160.233335 153.475,159.85 L153.475,155.925 L151.225,155.925 L150.825,153.025 L157.45,153.025 L157.45,161.6 C156.549996,162.183336 155.558339,162.633332 154.475,162.95 C153.391661,163.266668 152.283339,163.425 151.15,163.425 C148.549987,163.425 146.587507,162.654174 145.2625,161.1125 C143.937493,159.570826 143.275,157.308348 143.275,154.325 C143.275,152.424991 143.637496,150.791674 144.3625,149.425 C145.087504,148.058326 146.07916,147.020837 147.3375,146.3125 C148.59584,145.604163 149.999992,145.25 151.55,145.25 Z M169.5,155.575 L164.3,155.575 L164.3,163 L160.2,163 L160.2,145.675 L164.3,145.675 L164.3,152.375 L169.5,152.375 L169.5,145.675 L173.6,145.675 L173.6,163 L169.5,163 L169.5,155.575 Z M182.45,145.675 C184.733345,145.675 186.508327,146.149995 187.775,147.1 C189.041673,148.050005 189.675,149.458324 189.675,151.325 C189.675,153.27501 189.054173,154.745828 187.8125,155.7375 C186.570827,156.729172 184.908344,157.225 182.825,157.225 L180.95,157.225 L180.95,163 L176.85,163 L176.85,145.675 L182.45,145.675 Z M182.475,154.275 C183.441672,154.275 184.179164,154.045836 184.6875,153.5875 C185.195836,153.129164 185.45,152.375005 185.45,151.325 C185.45,149.508324 184.433344,148.6 182.4,148.6 L180.95,148.6 L180.95,154.275 L182.475,154.275 Z M205.125,157.25 C205.125,158.433339 204.870836,159.491662 204.3625,160.425 C203.854164,161.358338 203.091672,162.091664 202.075,162.625 C201.058328,163.158336 199.816674,163.425 198.35,163.425 C196.149989,163.425 194.475006,162.866672 193.325,161.75 C192.174994,160.633328 191.6,159.133343 191.6,157.25 L191.6,145.675 L195.7,145.675 L195.7,157.075 C195.7,158.191672 195.912498,159.020831 196.3375,159.5625 C196.762502,160.104169 197.433329,160.375 198.35,160.375 C199.283338,160.375 199.962498,160.104169 200.3875,159.5625 C200.812502,159.020831 201.025,158.191672 201.025,157.075 L201.025,145.675 L205.125,145.675 L205.125,157.25 Z M219.575,148.825 L215.3,148.825 L215.3,163 L211.2,163 L211.2,148.825 L206.725,148.825 L206.725,145.675 L219.975,145.675 L219.575,148.825 Z" id="BLAZING-FAST-THROUGH"></path>
                <path d="M35.1,236 L31.075,236 L30.775,229.225 C30.6916662,227.608325 30.65,226.166673 30.65,224.9 C30.65,223.933329 30.6749997,223.016671 30.725,222.15 L28.05,234.175 L24.175,234.175 L21.325,222.15 C21.4250005,223.600007 21.475,224.96666 21.475,226.25 C21.475,227.216672 21.4500002,228.224995 21.4,229.275 L21.1,236 L17.1,236 L18.4,218.675 L23.575,218.675 L26.175,230.425 L28.6,218.675 L33.8,218.675 L35.1,236 Z M41.825,236 L37.725,236 L37.725,218.675 L41.825,218.675 L41.825,236 Z M58.4,236 L53.175,236 L48.175,222.575 C48.3416675,223.891673 48.4708329,225.054162 48.5625,226.0625 C48.6541671,227.070838 48.7,228.26666 48.7,229.65 L48.7,236 L45.05,236 L45.05,218.675 L50.15,218.675 L55.275,232.125 C54.9083315,229.841655 54.725,227.691677 54.725,225.675 L54.725,218.675 L58.4,218.675 L58.4,236 Z M65.725,236 L61.625,236 L61.625,218.675 L65.725,218.675 L65.725,236 Z M86.15,236 L82.125,236 L81.825,229.225 C81.7416662,227.608325 81.7,226.166673 81.7,224.9 C81.7,223.933329 81.7249997,223.016671 81.775,222.15 L79.1,234.175 L75.225,234.175 L72.375,222.15 C72.4750005,223.600007 72.525,224.96666 72.525,226.25 C72.525,227.216672 72.5000002,228.224995 72.45,229.275 L72.15,236 L68.15,236 L69.45,218.675 L74.625,218.675 L77.225,230.425 L79.65,218.675 L84.85,218.675 L86.15,236 Z M97.025,232.275 L91.95,232.275 L91.075,236 L86.825,236 L92.05,218.675 L97.025,218.675 L102.25,236 L97.9,236 L97.025,232.275 Z M96.3,229.3 L94.475,221.65 L92.65,229.3 L96.3,229.3 Z M107.625,232.75 L114.375,232.75 L113.95,236 L103.525,236 L103.525,218.675 L107.625,218.675 L107.625,232.75 Z M139.475,236 L135.45,236 L135.15,229.225 C135.066666,227.608325 135.025,226.166673 135.025,224.9 C135.025,223.933329 135.05,223.016671 135.1,222.15 L132.425,234.175 L128.55,234.175 L125.7,222.15 C125.8,223.600007 125.85,224.96666 125.85,226.25 C125.85,227.216672 125.825,228.224995 125.775,229.275 L125.475,236 L121.475,236 L122.775,218.675 L127.95,218.675 L130.55,230.425 L132.975,218.675 L138.175,218.675 L139.475,236 Z M152.3,221.6 L146.2,221.6 L146.2,225.75 L151.525,225.75 L151.525,228.625 L146.2,228.625 L146.2,233.05 L152.725,233.05 L152.725,236 L142.1,236 L142.1,218.675 L152.725,218.675 L152.3,221.6 Z M172.45,236 L168.425,236 L168.125,229.225 C168.041666,227.608325 168,226.166673 168,224.9 C168,223.933329 168.025,223.016671 168.075,222.15 L165.4,234.175 L161.525,234.175 L158.675,222.15 C158.775,223.600007 158.825,224.96666 158.825,226.25 C158.825,227.216672 158.8,228.224995 158.75,229.275 L158.45,236 L154.45,236 L155.75,218.675 L160.925,218.675 L163.525,230.425 L165.95,218.675 L171.15,218.675 L172.45,236 Z M181.825,218.25 C184.291679,218.25 186.212493,219.041659 187.5875,220.625 C188.962507,222.208341 189.65,224.441652 189.65,227.325 C189.65,229.208343 189.337503,230.833326 188.7125,232.2 C188.087497,233.566674 187.187506,234.612496 186.0125,235.3375 C184.837494,236.062504 183.441675,236.425 181.825,236.425 C180.208325,236.425 178.816672,236.06667 177.65,235.35 C176.483327,234.63333 175.587503,233.59584 174.9625,232.2375 C174.337497,230.87916 174.025,229.241676 174.025,227.325 C174.025,225.458324 174.337497,223.841674 174.9625,222.475 C175.587503,221.108327 176.483327,220.062504 177.65,219.3375 C178.816672,218.612496 180.208325,218.25 181.825,218.25 Z M181.825,221.25 C180.641661,221.25 179.762503,221.729162 179.1875,222.6875 C178.612497,223.645838 178.325,225.191656 178.325,227.325 C178.325,229.458344 178.616664,231.008329 179.2,231.975 C179.783336,232.941671 180.658327,233.425 181.825,233.425 C183.025006,233.425 183.912497,232.945838 184.4875,231.9875 C185.062503,231.029162 185.35,229.475011 185.35,227.325 C185.35,225.174989 185.058336,223.625005 184.475,222.675 C183.891664,221.724995 183.008339,221.25 181.825,221.25 Z M197.8,229.375 L196.2,229.375 L196.2,236 L192.1,236 L192.1,218.675 L197.775,218.675 C200.141679,218.675 201.920827,219.108329 203.1125,219.975 C204.304173,220.841671 204.9,222.166658 204.9,223.95 C204.9,225.066672 204.633336,225.991663 204.1,226.725 C203.566664,227.458337 202.725006,228.091664 201.575,228.625 L205.975,236 L201.35,236 L197.8,229.375 Z M196.2,226.55 L197.925,226.55 C198.841671,226.55 199.529164,226.341669 199.9875,225.925 C200.445836,225.508331 200.675,224.850005 200.675,223.95 C200.675,223.116663 200.429169,222.508335 199.9375,222.125 C199.445831,221.741665 198.691672,221.55 197.675,221.55 L196.2,221.55 L196.2,226.55 Z M214.625,229.5 L214.625,236 L210.525,236 L210.525,229.525 L204.975,218.675 L209.45,218.675 L212.65,226.3 L215.85,218.675 L220.175,218.675 L214.625,229.5 Z M103.975,257.6 L98.175,257.6 L98.175,262.2 L103.225,262.2 L103.225,265.125 L98.175,265.125 L98.175,272 L94.075,272 L94.075,254.675 L104.4,254.675 L103.975,257.6 Z M113.25,254.25 C115.716679,254.25 117.637493,255.041659 119.0125,256.625 C120.387507,258.208341 121.075,260.441652 121.075,263.325 C121.075,265.208343 120.762503,266.833326 120.1375,268.2 C119.512497,269.566673 118.612506,270.612496 117.4375,271.3375 C116.262494,272.062504 114.866675,272.425 113.25,272.425 C111.633325,272.425 110.241672,272.06667 109.075,271.35 C107.908327,270.63333 107.012503,269.59584 106.3875,268.2375 C105.762497,266.87916 105.45,265.241676 105.45,263.325 C105.45,261.458324 105.762497,259.841674 106.3875,258.475 C107.012503,257.108326 107.908327,256.062504 109.075,255.3375 C110.241672,254.612496 111.633325,254.25 113.25,254.25 Z M113.25,257.25 C112.066661,257.25 111.187503,257.729162 110.6125,258.6875 C110.037497,259.645838 109.75,261.191656 109.75,263.325 C109.75,265.458344 110.041664,267.008329 110.625,267.975 C111.208336,268.941671 112.083327,269.425 113.25,269.425 C114.450006,269.425 115.337497,268.945838 115.9125,267.9875 C116.487503,267.029162 116.775,265.475011 116.775,263.325 C116.775,261.174989 116.483336,259.625005 115.9,258.675 C115.316664,257.724995 114.433339,257.25 113.25,257.25 Z M130.525,254.25 C132.991679,254.25 134.912493,255.041659 136.2875,256.625 C137.662507,258.208341 138.35,260.441652 138.35,263.325 C138.35,265.208343 138.037503,266.833326 137.4125,268.2 C136.787497,269.566673 135.887506,270.612496 134.7125,271.3375 C133.537494,272.062504 132.141675,272.425 130.525,272.425 C128.908325,272.425 127.516672,272.06667 126.35,271.35 C125.183328,270.63333 124.287503,269.59584 123.6625,268.2375 C123.037497,266.87916 122.725,265.241676 122.725,263.325 C122.725,261.458324 123.037497,259.841674 123.6625,258.475 C124.287503,257.108326 125.183328,256.062504 126.35,255.3375 C127.516672,254.612496 128.908325,254.25 130.525,254.25 Z M130.525,257.25 C129.341661,257.25 128.462503,257.729162 127.8875,258.6875 C127.312497,259.645838 127.025,261.191656 127.025,263.325 C127.025,265.458344 127.316664,267.008329 127.9,267.975 C128.483336,268.941671 129.358328,269.425 130.525,269.425 C131.725006,269.425 132.612497,268.945838 133.1875,267.9875 C133.762503,267.029162 134.05,265.475011 134.05,263.325 C134.05,261.174989 133.758336,259.625005 133.175,258.675 C132.591664,257.724995 131.708339,257.25 130.525,257.25 Z M151.75,257.825 L147.475,257.825 L147.475,272 L143.375,272 L143.375,257.825 L138.9,257.825 L138.9,254.675 L152.15,254.675 L151.75,257.825 Z M159.4,254.675 C161.683345,254.675 163.458327,255.149995 164.725,256.1 C165.991673,257.050005 166.625,258.458324 166.625,260.325 C166.625,262.27501 166.004173,263.745828 164.7625,264.7375 C163.520827,265.729172 161.858344,266.225 159.775,266.225 L157.9,266.225 L157.9,272 L153.8,272 L153.8,254.675 L159.4,254.675 Z M159.425,263.275 C160.391672,263.275 161.129164,263.045836 161.6375,262.5875 C162.145836,262.129164 162.4,261.375005 162.4,260.325 C162.4,258.508324 161.383344,257.6 159.35,257.6 L157.9,257.6 L157.9,263.275 L159.425,263.275 Z M174.5,265.375 L172.9,265.375 L172.9,272 L168.8,272 L168.8,254.675 L174.475,254.675 C176.841679,254.675 178.620827,255.108329 179.8125,255.975 C181.004173,256.841671 181.6,258.166658 181.6,259.95 C181.6,261.066672 181.333336,261.991663 180.8,262.725 C180.266664,263.458337 179.425006,264.091664 178.275,264.625 L182.675,272 L178.05,272 L174.5,265.375 Z M172.9,262.55 L174.625,262.55 C175.541671,262.55 176.229164,262.341669 176.6875,261.925 C177.145836,261.508331 177.375,260.850005 177.375,259.95 C177.375,259.116663 177.129169,258.508335 176.6375,258.125 C176.145831,257.741665 175.391672,257.55 174.375,257.55 L172.9,257.55 L172.9,262.55 Z M188.325,272 L184.225,272 L184.225,254.675 L188.325,254.675 L188.325,272 Z M204.9,272 L199.675,272 L194.675,258.575 C194.841668,259.891673 194.970833,261.054162 195.0625,262.0625 C195.154167,263.070838 195.2,264.26666 195.2,265.65 L195.2,272 L191.55,272 L191.55,254.675 L196.65,254.675 L201.775,268.125 C201.408332,265.841655 201.225,263.691677 201.225,261.675 L201.225,254.675 L204.9,254.675 L204.9,272 Z M219.575,257.825 L215.3,257.825 L215.3,272 L211.2,272 L211.2,257.825 L206.725,257.825 L206.725,254.675 L219.975,254.675 L219.575,257.825 Z" id="MINIMAL-MEMORY-FOOTP"></path>
            </g>
        </g>
    </g>
</svg>