<?xml version="1.0" encoding="UTF-8"?>
<svg width="628px" height="341px" viewBox="0 0 628 341" version="1.1" xmlns="http://www.w3.org/2000/svg" xmlns:xlink="http://www.w3.org/1999/xlink">
    <!-- Generator: Sketch 51.3 (57544) - http://www.bohemiancoding.com/sketch -->
    <title>rocketspaths</title>
    <desc>Created with Sketch.</desc>
    <defs></defs>
    <g id="Page-1" stroke="none" stroke-width="1" fill="none" fill-rule="evenodd">
        <g id="rocketspaths" transform="translate(-13.000000, -6.000000)">
            <path d="M572.84325,219.039767 C375.926616,337.019875 -0.458818383,270.186227 -0.458818383,270.186227" id="Path_364" stroke="#4CAFDE" stroke-width="5.00059246" transform="translate(286.192216, 254.041236) rotate(-15.008914) translate(-286.192216, -254.041236) "></path>
            <path d="M511.90049,71.1518953 L507.223942,71.1518953 L506.875379,63.2801901 C506.778556,61.4018156 506.730145,59.7267954 506.730145,58.2550793 C506.730145,57.1319276 506.759191,56.0668859 506.817285,55.0599222 L503.709269,69.0314729 L499.207002,69.0314729 L495.895657,55.0599222 C496.011846,56.7446499 496.069939,58.3325302 496.069939,59.823611 C496.069939,60.9467627 496.040892,62.1183087 495.982798,63.3382838 L495.634235,71.1518953 L490.986734,71.1518953 L492.497172,51.0224055 L498.509877,51.0224055 L501.530752,64.6744404 L504.3483,51.0224055 L510.390052,51.0224055 L511.90049,71.1518953 Z M519.452679,71.1518953 L514.863272,71.1518953 L514.863272,55.7280005 L519.452679,55.7280005 L519.452679,71.1518953 Z M517.128929,47.5948733 C517.922881,47.5948733 518.576429,47.8417694 519.089593,48.3355688 C519.602757,48.8293683 519.859336,49.45387 519.859336,50.2090928 C519.859336,50.9643155 519.602757,51.5888172 519.089593,52.0826167 C518.576429,52.5764162 517.922881,52.8233122 517.128929,52.8233122 C516.334977,52.8233122 515.686269,52.5764162 515.182787,52.0826167 C514.679306,51.5888172 514.427568,50.9643155 514.427568,50.2090928 C514.427568,49.45387 514.679306,48.8293683 515.182787,48.3355688 C515.686269,47.8417694 516.334977,47.5948733 517.128929,47.5948733 Z M529.735276,55.2342035 C530.800333,55.2342035 531.758871,55.3891187 532.610917,55.6989536 C533.462963,56.0087886 534.266586,56.4832163 535.021808,57.1222509 L533.04662,59.8526579 C532.078386,59.1167998 531.100484,58.7488763 530.112885,58.7488763 C529.086557,58.7488763 528.311981,59.126482 527.789135,59.8817048 C527.266288,60.6369275 527.004869,61.8568844 527.004869,63.541612 C527.004869,65.1682456 527.266288,66.3204271 527.789135,66.9981911 C528.311981,67.6759551 529.067193,68.014832 530.054791,68.014832 C530.577638,68.014832 531.052065,67.9325332 531.478089,67.7679335 C531.904112,67.6033337 532.417268,67.3370732 533.017574,66.9691442 L535.021808,69.8157387 C533.491998,71.0357139 531.758885,71.6456923 529.822416,71.6456923 C528.253877,71.6456923 526.898369,71.3116565 525.755853,70.6435749 C524.613336,69.9754932 523.732256,69.0363201 523.112586,67.8260272 C522.492917,66.6157344 522.183086,65.1972925 522.183086,63.5706589 C522.183086,61.9440253 522.492917,60.5013779 523.112586,59.2426733 C523.732256,57.9839688 524.613336,57.0012258 525.755853,56.2944147 C526.898369,55.5876037 528.224831,55.2342035 529.735276,55.2342035 Z M545.333452,55.2922973 C545.895028,55.2922973 546.408187,55.3600726 546.872937,55.4956254 L546.146765,59.9397985 C545.565827,59.8042457 545.101077,59.7364703 544.752514,59.7364703 C543.861737,59.7364703 543.174306,60.0463006 542.690186,60.6659706 C542.206065,61.2856405 541.828464,62.2151314 541.557357,63.4544714 L541.557357,71.1518953 L536.96795,71.1518953 L536.96795,55.7280005 L540.976419,55.7280005 L541.354029,58.6907826 C541.702592,57.6257249 542.230274,56.7930558 542.937084,56.1927506 C543.643895,55.5924454 544.442675,55.2922973 545.333452,55.2922973 Z M555.006064,55.2342035 C557.368556,55.2342035 559.217853,55.9555272 560.554018,57.3981963 C561.890184,58.8408654 562.558253,60.8596035 562.558253,63.4544714 C562.558253,65.1004696 562.253261,66.538276 561.643277,67.7679335 C561.033292,68.9975909 560.161895,69.9512874 559.029057,70.6290514 C557.89622,71.3068154 556.555243,71.6456923 555.006064,71.6456923 C552.662934,71.6456923 550.818475,70.9243686 549.472633,69.4816995 C548.126791,68.0390305 547.453874,66.0202923 547.453874,63.4254245 C547.453874,61.7794262 547.758867,60.3416198 548.368851,59.1119624 C548.978836,57.8823049 549.850233,56.9286084 550.983071,56.2508444 C552.115908,55.5730804 553.456885,55.2342035 555.006064,55.2342035 Z M555.006064,58.6036419 C554.076555,58.6036419 553.379438,58.9957709 552.914688,59.7800407 C552.449938,60.5643104 552.217563,61.7794262 552.217563,63.4254245 C552.217563,65.1101521 552.445091,66.3397912 552.900165,67.1143786 C553.355239,67.888966 554.057193,68.2762539 555.006064,68.2762539 C555.935573,68.2762539 556.632689,67.8841249 557.097439,67.0998552 C557.56219,66.3155854 557.794565,65.1004696 557.794565,63.4544714 C557.794565,61.7697437 557.567037,60.5401046 557.111963,59.7655172 C556.656889,58.9909298 555.954935,58.6036419 555.006064,58.6036419 Z M574.322241,55.2342035 C575.658407,55.2342035 576.704085,55.6408558 577.459304,56.4541726 C578.214523,57.2674894 578.592133,58.4099887 578.592133,59.8817048 L578.592133,71.1518953 L574.002725,71.1518953 L574.002725,60.6659706 C574.002725,59.8913832 573.8817,59.3540212 573.639639,59.0538686 C573.397579,58.753716 573.034502,58.6036419 572.550381,58.6036419 C571.620872,58.6036419 570.730113,59.2717135 569.878068,60.6078768 L569.878068,71.1518953 L565.28866,71.1518953 L565.28866,55.7280005 L569.29713,55.7280005 L569.616646,57.5579541 C570.29441,56.7833667 571.015734,56.2024349 571.780639,55.8151412 C572.545543,55.4278475 573.392732,55.2342035 574.322241,55.2342035 Z M594.306496,66.6786753 C594.306496,67.2596159 594.388799,67.6856326 594.553395,67.9567382 C594.717991,68.2278438 594.984251,68.4311699 595.352184,68.5667227 L594.393637,71.5585517 C593.444766,71.4810929 592.675033,71.2777668 592.08441,70.9485671 C591.493787,70.6193675 591.024199,70.0868466 590.675636,69.3509886 C589.668671,70.8807988 588.119519,71.6456923 586.028135,71.6456923 C584.498326,71.6456923 583.278366,71.2003112 582.368228,70.3095357 C581.458089,69.4187602 581.003024,68.2568965 581.003024,66.8239098 C581.003024,65.1391821 581.622685,63.8514498 582.862025,62.9606743 C584.101364,62.0698988 585.892568,61.6245177 588.235698,61.6245177 L589.80423,61.6245177 L589.80423,60.9564394 C589.80423,60.0462992 589.610587,59.4217975 589.223292,59.0829155 C588.835997,58.7440335 588.158243,58.574595 587.19001,58.574595 C586.686528,58.574595 586.076552,58.6472115 585.360056,58.7924466 C584.643561,58.9376818 583.907712,59.1361669 583.152493,59.3879077 L582.106806,56.3670319 C583.075038,55.9991029 584.067461,55.7183192 585.084111,55.5246723 C586.100761,55.3310255 587.044776,55.2342035 587.916182,55.2342035 C590.123754,55.2342035 591.740685,55.6892668 592.767012,56.599407 C593.793338,57.5095472 594.306496,58.874737 594.306496,60.6950175 L594.306496,66.6786753 Z M587.364291,68.3633946 C587.867774,68.3633946 588.327677,68.237526 588.744018,67.9857851 C589.16036,67.7340442 589.513761,67.3758029 589.80423,66.9110504 L589.80423,64.1515965 L588.671401,64.1515965 C587.625704,64.1515965 586.846295,64.3355583 586.333127,64.7034873 C585.819959,65.0714164 585.563385,65.642666 585.563385,66.4172534 C585.563385,67.0369234 585.723142,67.5161921 586.042658,67.8550741 C586.362174,68.1939561 586.802715,68.3633946 587.364291,68.3633946 Z M610.979407,71.1518953 L606.999984,71.1518953 L606.796656,69.2057542 C605.673504,70.8323878 604.114667,71.6456923 602.120108,71.6456923 C600.706487,71.6456923 599.636599,71.2196757 598.910427,70.3676295 C598.184255,69.5155833 597.821169,68.3246731 597.821169,66.7948629 L597.821169,55.7280005 L602.410577,55.7280005 L602.410577,66.2139252 C602.410577,66.969148 602.531602,67.4968277 602.773663,67.7969803 C603.015723,68.0971329 603.388485,68.247207 603.891968,68.247207 C604.8602,68.247207 605.692874,67.6469108 606.39,66.4463003 L606.39,55.7280005 L610.979407,55.7280005 L610.979407,71.1518953 Z M624.253833,70.4257232 C623.692257,70.8130169 623.038711,71.1131651 622.293168,71.3261766 C621.547625,71.5391881 620.806939,71.6456923 620.071081,71.6456923 C616.701625,71.6263277 615.016924,69.7673457 615.016924,66.0686908 L615.016924,58.9231576 L612.838408,58.9231576 L612.838408,55.7280005 L615.016924,55.7280005 L615.016924,52.387609 L619.606331,51.8647651 L619.606331,55.7280005 L623.150051,55.7280005 L622.656254,58.9231576 L619.606331,58.9231576 L619.606331,66.010597 C619.606331,66.7270904 619.722519,67.2402469 619.954894,67.5500818 C620.187269,67.8599168 620.555193,68.014832 621.058676,68.014832 C621.60089,68.014832 622.152772,67.8405524 622.714348,67.4919881 L624.253833,70.4257232 Z" id="Micronaut" fill="#231F20" fill-rule="nonzero" transform="translate(557.620284, 59.620283) rotate(-50.000000) translate(-557.620284, -59.620283) "></path>
            <g id="Rocket" transform="translate(598.639271, 92.199774) rotate(40.000000) translate(-598.639271, -92.199774) translate(569.639271, 26.199774)" fill="#000000" fill-rule="nonzero">
                <g id="Group" transform="translate(29.093608, 66.037855) scale(-1, 1) rotate(-180.000000) translate(-29.093608, -66.037855) translate(0.593608, 0.537855)">
                    <path d="M27.4060951,129.509451 C22.680446,123.274158 20.7848466,120.009326 19.7703005,116.3297 L19.5033146,115.352927 L28.5140863,115.352927 C36.2566752,115.352927 37.5115086,115.379688 37.5115086,115.540253 C37.5115086,115.968428 36.5236611,118.711422 35.8962444,120.036087 C35.2020812,121.494557 34.0273436,123.488245 32.9860989,124.986856 C31.6778683,126.873501 28.6742778,130.874258 28.5541341,130.874258 C28.500737,130.874258 27.9801146,130.258757 27.4060951,129.509451 Z" id="Shape"></path>
                    <path d="M19.1562331,112.51627 C18.0215433,112.128236 17.594366,111.459213 16.4997241,108.354947 C13.1890998,98.9886268 11.2534526,89.3011754 10.6660838,79.2256906 C10.4658444,75.786913 10.585988,67.8790624 10.8663231,64.5740893 C11.6672806,55.5422803 13.6429757,45.7076438 16.2994847,37.5188037 C16.9802986,35.4314523 17.5142702,34.8293317 18.8892472,34.6286248 C19.1829316,34.5884834 23.7617386,34.5349616 29.0614072,34.5215811 L38.6995956,34.5082007 L39.3003137,34.8560926 C40.3549077,35.4715936 40.555147,35.9532901 41.9835212,41.1582882 C48.0574488,63.3698481 48.0841474,84.029275 42.0502677,103.912635 C41.1692144,106.802814 39.727491,110.830332 39.3003137,111.579638 C39.1000743,111.914149 38.766342,112.24866 38.445959,112.409226 C37.9520352,112.663455 37.6450015,112.663455 28.7410242,112.663455 C22.8005896,112.650074 19.4098696,112.596552 19.1562331,112.51627 Z M30.4497335,102.561209 C32.9727496,101.811903 34.961794,99.8182152 35.696005,97.3026891 C35.9763401,96.3526766 35.9763401,94.4794125 35.696005,93.5294 C35.1353348,91.629375 33.6268648,89.7694914 31.9582034,88.8997616 C29.1548523,87.4145308 25.8308787,87.8962273 23.5348006,90.1040028 C21.9061871,91.6695164 21.1853253,93.3019322 21.1853253,95.4160446 C21.1853253,97.5301569 21.9061871,99.1625728 23.5348006,100.728086 C24.4158538,101.571055 25.3369549,102.119654 26.5650897,102.521068 C27.5262387,102.828818 29.461886,102.855579 30.4497335,102.561209 Z" id="Shape"></path>
                    <path d="M6.06057826,57.8570995 C4.97928566,56.9873698 3.36402141,55.796509 2.48296819,55.2077689 C-0.253636535,53.3746462 -0.373780157,52.9063301 0.453875905,47.0456896 C1.29488126,41.1315273 3.04363842,27.7243086 3.33732283,25.1017388 C4.20502677,17.1136055 4.21837606,16.95304 4.41861543,17.0868446 C4.79239559,17.3143124 6.71469354,21.6763416 8.07632125,25.369348 C10.5192416,32.0060551 11.9209172,37.6927496 11.9342664,41.0244836 C11.9342664,42.6702799 11.9075679,42.8576063 11.4403427,44.396359 C10.812926,46.4168081 10.1454614,49.4274111 9.0775181,54.9401597 C8.6102929,57.2951203 8.19646487,59.2754281 8.14306771,59.3289499 C8.08967054,59.3824717 7.15522015,58.7268293 6.06057826,57.8570995 Z" id="Shape"></path>
                    <path d="M48.6581669,59.2620476 C48.6314683,59.1683844 48.1775924,56.9338479 47.6703193,54.3112782 C46.5489789,48.5844423 46.0684044,46.5104713 45.4142891,44.3695981 C44.9604132,42.8576063 44.9337146,42.6568995 44.9337146,41.0244836 C44.9470639,37.7061301 46.2686437,32.3138056 48.711564,25.5968158 C50.0865411,21.8235267 52.0622362,17.3276929 52.4493656,17.0868446 C52.6362557,16.9664205 52.6763036,17.274171 53.2636724,22.6932564 C53.7709455,27.3362753 55.3461618,39.5258723 56.4141051,47.0456896 C57.2417612,52.9197106 57.1349669,53.3746462 54.344965,55.2479103 C53.4372132,55.8500309 51.8753461,57.0007502 50.8741492,57.8035777 C48.7382626,59.4895154 48.7382626,59.4895154 48.6581669,59.2620476 Z" id="Shape"></path>
                    <path d="M21.5858041,28.7679843 C20.8115452,28.5806579 20.3710186,28.3130487 19.796999,27.6574063 C19.2630274,27.0552857 18.9559937,26.30598 18.9559937,25.6503376 C18.9559937,25.3024457 22.0797279,14.5980795 22.3066658,14.1966657 C22.4401587,13.942437 22.2532686,13.3938383 24.1622173,19.8030775 C25.0833184,22.9207242 25.7641323,25.4496307 25.7641323,25.7573813 C25.750783,27.6574063 23.5481499,29.2496808 21.5858041,28.7679843 Z" id="Shape"></path>
                    <path d="M34.5613152,26.5869696 C33.1729889,26.0918927 32.1717921,24.8341297 32.1717921,23.5897471 C32.1717921,23.0946702 35.5358135,11.895227 35.6426078,12.0156511 C35.8828951,12.2698798 38.9799307,23.0679092 38.9799307,23.6298885 C38.9799307,25.7038594 36.5770582,27.3095144 34.5613152,26.5869696 Z" id="Shape"></path>
                    <path d="M27.6864302,14.4107531 C27.3126501,14.2368071 26.8187263,13.8621543 26.5917883,13.5811647 C26.164611,13.0593268 25.7641323,12.0959339 25.7641323,11.5874765 C25.7641323,11.3064868 29.0480579,0.160565494 29.1682015,0.0401413734 C29.2082494,1.73472348e-17 29.2616466,1.73472348e-17 29.2749959,0.0267609156 C29.3016945,0.0535218312 30.0893026,2.63595019 31.0104037,5.76697731 C32.5856201,11.0656386 32.6924145,11.4938133 32.5589215,12.042412 C32.305285,13.1663705 31.6244711,14.0361002 30.6366236,14.4776553 C29.8490154,14.8389277 28.5407849,14.8121668 27.6864302,14.4107531 Z" id="Shape"></path>
                </g>
            </g>
        </g>
    </g>
</svg>