<?xml version="1.0" encoding="UTF-8"?>
<svg width="713px" height="372px" viewBox="0 0 713 372" version="1.1" xmlns="http://www.w3.org/2000/svg" xmlns:xlink="http://www.w3.org/1999/xlink">
    <!-- Generator: Sketch 50.2 (55047) - http://www.bohemiancoding.com/sketch -->
    <title>rocketspathsmedium</title>
    <desc>Created with Sketch.</desc>
    <defs></defs>
    <g id="Page-1" stroke="none" stroke-width="1" fill="none" fill-rule="evenodd">
        <g id="rocketspathsmedium" transform="translate(-24.000000, 0.000000)">
            <g id="bluerocket" transform="translate(681.056164, 70.882251) rotate(51.000000) translate(-681.056164, -70.882251) translate(656.056164, 30.882251)" fill-rule="nonzero">
                <polygon id="Path_362" fill="#231F20" points="25.2121212 61.3333333 14.5454545 79.8787879 35.9393939 79.8787879"></polygon>
                <path d="M25.2121212,53.0909091 C34.3030303,53.0909091 42.3030303,63.7575758 46.5454545,79.6363636 C48.7928193,70.9691279 49.8931212,62.0444564 49.8181818,53.0909091 C49.8181818,23.7575758 38.7878788,0 25.2121212,0 C11.6363636,0 0.606060606,23.7575758 0.606060606,53.0909091 C0.561255036,62.0427067 1.66107958,70.9635061 3.87878788,79.6363636 C8.18181818,63.7575758 16.1212121,53.0909091 25.2121212,53.0909091 Z" id="Path_363" fill="#231F20"></path>
                <circle id="Ellipse_31" fill="#4CAFDE" cx="25.2121212" cy="23.2727273" r="7.75757576"></circle>
            </g>
            <path d="M662.924865,188.185924 C323.370416,305.71684 1.79739791,285.054907 1.79739791,285.054907" id="Path_364" stroke="#4CAFDE" stroke-width="5.00059246" transform="translate(332.361131, 237.319520) rotate(-15.008914) translate(-332.361131, -237.319520) "></path>
            <path d="M643.391304,19.589372 L639.502415,19.589372 L639.21256,13.0434783 C639.132045,11.4814737 639.091787,10.0885729 639.091787,8.8647343 C639.091787,7.93075219 639.115942,7.04509277 639.164251,6.20772947 L636.57971,17.826087 L632.835749,17.826087 L630.082126,6.20772947 C630.178745,7.60870267 630.227053,8.92914032 630.227053,10.1690821 C630.227053,11.1030642 630.202899,12.0772896 630.154589,13.0917874 L629.864734,19.589372 L626,19.589372 L627.256039,2.85024155 L632.256039,2.85024155 L634.768116,14.2028986 L637.111111,2.85024155 L642.135266,2.85024155 L643.391304,19.589372 Z M649.671498,19.589372 L645.855072,19.589372 L645.855072,6.76328502 L649.671498,6.76328502 L649.671498,19.589372 Z M647.73913,0 C648.399359,0 648.942832,0.205311972 649.369565,0.615942029 C649.796298,1.02657209 650.009662,1.54589055 650.009662,2.17391304 C650.009662,2.80193554 649.796298,3.321254 649.369565,3.73188406 C648.942832,4.14251412 648.399359,4.34782609 647.73913,4.34782609 C647.078902,4.34782609 646.539454,4.14251412 646.120773,3.73188406 C645.702092,3.321254 645.492754,2.80193554 645.492754,2.17391304 C645.492754,1.54589055 645.702092,1.02657209 646.120773,0.615942029 C646.539454,0.205311972 647.078902,0 647.73913,0 Z M658.222222,6.352657 C659.107895,6.352657 659.904989,6.48148022 660.613527,6.73913043 C661.322064,6.99678065 661.990335,7.39130171 662.618357,7.92270531 L660.975845,10.1932367 C660.170688,9.58131741 659.357492,9.27536232 658.536232,9.27536232 C657.682766,9.27536232 657.03865,9.58936881 656.603865,10.2173913 C656.16908,10.8454138 655.951691,11.8598964 655.951691,13.2608696 C655.951691,14.6135334 656.16908,15.5716558 656.603865,16.1352657 C657.03865,16.6988756 657.666663,16.9806763 658.487923,16.9806763 C658.922708,16.9806763 659.317228,16.912239 659.671498,16.7753623 C660.025767,16.6384857 660.452493,16.4170708 660.951691,16.1111111 L662.618357,18.4782609 C661.346209,19.4927587 659.905,20 658.294686,20 C656.990331,20 655.863129,19.722225 654.913043,19.1666667 C653.962958,18.6111083 653.230276,17.8301178 652.714976,16.8236715 C652.199675,15.8172252 651.942029,14.637688 651.942029,13.2850242 C651.942029,11.9323604 652.199675,10.7326944 652.714976,9.68599034 C653.230276,8.63928623 653.962958,7.82206416 654.913043,7.23429952 C655.863129,6.64653487 656.966178,6.352657 658.222222,6.352657 Z M671.193237,6.40096618 C671.660228,6.40096618 672.086957,6.45732631 672.47343,6.57004831 L671.869565,10.2657005 C671.386473,10.1529785 671,10.0966184 670.710145,10.0966184 C669.969399,10.0966184 669.397751,10.3542647 668.995169,10.8695652 C668.592588,11.3848657 668.278585,12.1578048 668.05314,13.1884058 L668.05314,19.589372 L664.236715,19.589372 L664.236715,6.76328502 L667.570048,6.76328502 L667.884058,9.22705314 C668.173913,8.34138043 668.612719,7.64895577 669.200483,7.14975845 C669.788247,6.65056114 670.452491,6.40096618 671.193237,6.40096618 Z M679.236715,6.352657 C681.201298,6.352657 682.739123,6.95248996 683.850242,8.15217391 C684.96136,9.35185787 685.516908,11.030585 685.516908,13.1884058 C685.516908,14.5571727 685.263285,15.752813 684.756039,16.7753623 C684.248792,17.7979117 683.524162,18.5909795 682.582126,19.1545894 C681.640089,19.7181993 680.52497,20 679.236715,20 C677.288232,20 675.754431,19.400167 674.635266,18.2004831 C673.516101,17.0007991 672.956522,15.322072 672.956522,13.1642512 C672.956522,11.7954843 673.210145,10.5998441 673.717391,9.57729469 C674.224638,8.55474532 674.949268,7.76167754 675.891304,7.19806763 C676.833341,6.63445773 677.94846,6.352657 679.236715,6.352657 Z M679.236715,9.15458937 C678.463761,9.15458937 677.884058,9.48067308 677.497585,10.1328502 C677.111111,10.7850274 676.917874,11.7954843 676.917874,13.1642512 C676.917874,14.5652244 677.10708,15.5877585 677.485507,16.2318841 C677.863934,16.8760097 678.44766,17.1980676 679.236715,17.1980676 C680.009669,17.1980676 680.589372,16.8719839 680.975845,16.2198068 C681.362319,15.5676296 681.555556,14.5571727 681.555556,13.1884058 C681.555556,11.7874326 681.36635,10.7648986 680.987923,10.1207729 C680.609496,9.47664734 680.02577,9.15458937 679.236715,9.15458937 Z M695.299517,6.352657 C696.410636,6.352657 697.280193,6.69081786 697.908213,7.36714976 C698.536232,8.04348166 698.850242,8.99355269 698.850242,10.2173913 L698.850242,19.589372 L695.033816,19.589372 L695.033816,10.8695652 C695.033816,10.2254396 694.933175,9.77858416 694.731884,9.52898551 C694.530593,9.27938685 694.228668,9.15458937 693.826087,9.15458937 C693.053133,9.15458937 692.312402,9.71013934 691.603865,10.821256 L691.603865,19.589372 L687.78744,19.589372 L687.78744,6.76328502 L691.120773,6.76328502 L691.386473,8.28502415 C691.950083,7.64089855 692.549917,7.15781159 693.18599,6.83574879 C693.822064,6.51368599 694.526563,6.352657 695.299517,6.352657 Z M711.917874,15.8695652 C711.917874,16.3526594 711.986315,16.7069232 712.123188,16.9323671 C712.260062,17.1578111 712.481476,17.3268915 712.78744,17.4396135 L711.990338,19.9275362 C711.201283,19.8631236 710.561194,19.6940433 710.070048,19.4202899 C709.578902,19.1465365 709.188406,18.7037067 708.898551,18.0917874 C708.061187,19.3639355 706.772954,20 705.033816,20 C703.76167,20 702.747184,19.6296333 701.990338,18.8888889 C701.233492,18.1481445 700.855072,17.1819706 700.855072,15.9903382 C700.855072,14.589365 701.370365,13.5185222 702.400966,12.7777778 C703.431567,12.0370334 704.921082,11.6666667 706.869565,11.6666667 L708.173913,11.6666667 L708.173913,11.1111111 C708.173913,10.3542635 708.012885,9.83494505 707.690821,9.5531401 C707.368758,9.27133514 706.805155,9.13043478 706,9.13043478 C705.581318,9.13043478 705.074079,9.19082065 704.478261,9.3115942 C703.882443,9.43236775 703.270531,9.59742248 702.642512,9.80676329 L701.772947,7.29468599 C702.578102,6.9887263 703.403374,6.7552343 704.248792,6.5942029 C705.09421,6.4331715 705.879227,6.352657 706.603865,6.352657 C708.439621,6.352657 709.784216,6.73107511 710.637681,7.48792271 C711.491146,8.2447703 711.917874,9.38002461 711.917874,10.8937198 L711.917874,15.8695652 Z M706.144928,17.2705314 C706.56361,17.2705314 706.946052,17.1658625 707.292271,16.9565217 C707.638489,16.7471809 707.932367,16.4492773 708.173913,16.0628019 L708.173913,13.7681159 L707.231884,13.7681159 C706.362311,13.7681159 705.714176,13.9210934 705.28744,14.2270531 C704.860704,14.5330128 704.647343,15.0080483 704.647343,15.6521739 C704.647343,16.1674744 704.780193,16.5660211 705.045894,16.8478261 C705.311594,17.129631 705.677936,17.2705314 706.144928,17.2705314 Z M725.782609,19.589372 L722.47343,19.589372 L722.304348,17.9710145 C721.370365,19.3236783 720.074079,20 718.415459,20 C717.239931,20 716.350242,19.6457363 715.746377,18.9371981 C715.142512,18.2286599 714.84058,17.2383317 714.84058,15.9661836 L714.84058,6.76328502 L718.657005,6.76328502 L718.657005,15.4830918 C718.657005,16.1111143 718.757646,16.5499183 718.958937,16.7995169 C719.160228,17.0491156 719.470207,17.173913 719.888889,17.173913 C720.694044,17.173913 721.386473,16.6747232 721.966184,15.6763285 L721.966184,6.76328502 L725.782609,6.76328502 L725.782609,19.589372 Z M736.821256,18.9855072 C736.354265,19.30757 735.810794,19.557165 735.190821,19.7342995 C734.570848,19.911434 733.954914,20 733.342995,20 C730.541048,19.9838969 729.140097,18.4380186 729.140097,15.3623188 L729.140097,9.42028986 L727.328502,9.42028986 L727.328502,6.76328502 L729.140097,6.76328502 L729.140097,3.98550725 L732.956522,3.55072464 L732.956522,6.76328502 L735.903382,6.76328502 L735.492754,9.42028986 L732.956522,9.42028986 L732.956522,15.3140097 C732.956522,15.9098259 733.05314,16.3365527 733.246377,16.5942029 C733.439614,16.8518531 733.745569,16.9806763 734.164251,16.9806763 C734.615142,16.9806763 735.074072,16.8357502 735.541063,16.5458937 L736.821256,18.9855072 Z" id="Micronaut" fill="#231F20" fill-rule="nonzero"></path>
        </g>
    </g>
</svg>