<?xml version="1.0" encoding="UTF-8"?>
<svg width="1189px" height="720px" viewBox="0 0 1189 720" version="1.1" xmlns="http://www.w3.org/2000/svg" xmlns:xlink="http://www.w3.org/1999/xlink">
    <!-- Generator: Sketch 49 (51002) - http://www.bohemiancoding.com/sketch -->
    <title>rocketspaths</title>
    <desc>Created with Sketch.</desc>
    <defs></defs>
    <g id="Page-1" stroke="none" stroke-width="1" fill="none" fill-rule="evenodd">
        <g id="rocketspaths" transform="translate(-45.000000, -24.000000)">
            <g id="bluerocket" transform="translate(1180.458777, 76.899872) rotate(45.000000) translate(-1180.458777, -76.899872) translate(1138.958777, 10.899872)" fill-rule="nonzero">
                <polygon id="Path_362" fill="#FFFFFF" points="41.6 101.2 24 131.8 59.3 131.8"></polygon>
                <path d="M41.6,87.6 C56.6,87.6 69.8,105.2 76.8,131.4 C80.5081518,117.099061 82.32365,102.373353 82.2,87.6 C82.2,39.2 64,0 41.6,0 C19.2,0 1,39.2 1,87.6 C0.926070809,102.370466 2.7407813,117.089785 6.4,131.4 C13.5,105.2 26.6,87.6 41.6,87.6 Z" id="Path_363" fill="#FFFFFF"></path>
                <circle id="Ellipse_31" fill="#4CAFDE" cx="41.6" cy="38.4" r="12.8"></circle>
            </g>
            <g id="redrocket" transform="translate(577.620876, 454.061671) scale(-1, 1) rotate(-57.990002) translate(-577.620876, -454.061671) translate(536.116623, 388.054907)" fill-rule="nonzero">
                <polygon id="Path_362-2" fill="#FFFFFF" points="41.6042638 101.210372 24.0024599 131.813509 59.3060779 131.813509"></polygon>
                <path d="M41.6042638,87.6089785 C56.6058012,87.6089785 69.8071541,105.210782 76.8078716,131.413468 C80.5164034,117.111063 82.3320878,102.383846 82.2084251,87.6089785 C82.2084251,39.2040178 64.0065597,0 41.6042638,0 C19.2019679,0 1.00010249,39.2040178 1.00010249,87.6089785 C0.926165727,102.380959 2.74106222,117.101786 6.40065597,131.413468 C13.5013837,105.210782 26.6027264,87.6089785 41.6042638,87.6089785 Z" id="Path_363-2" fill="#FFFFFF"></path>
                <circle id="Ellipse_31-2" fill="#B6434B" cx="41.6042638" cy="38.4039358" r="12.8013119"></circle>
            </g>
            <path d="M1175.53765,281.108948 C581.445258,635.348918 18.8135977,573.073539 18.8135977,573.073539" id="Path_364" stroke="#4CAFDE" stroke-width="5.00059246" transform="translate(597.175621, 429.198356) rotate(-15.008914) translate(-597.175621, -429.198356) "></path>
            <path d="M508.827109,557.114632 C280.566419,602.563928 64.3934915,594.573943 64.3934915,594.573943" id="Path_364-Copy" stroke="#B6434B" stroke-width="5.00059246" transform="translate(286.610300, 576.114632) rotate(-15.008914) translate(-286.610300, -576.114632) "></path>
            <circle id="Ellipse_32" fill="#FFFFFF" fill-rule="nonzero" cx="72.5" cy="716.5" r="27.5"></circle>
            <circle id="Ellipse_33" fill="#FFFFFF" fill-rule="nonzero" cx="72.5" cy="645.5" r="27.5"></circle>
            <path d="M509.216,365.28 C510.880008,365.28 512.325327,365.514664 513.552,365.984 C514.778673,366.453336 515.893328,367.167995 516.896,368.128 L514.464,370.976 C512.949326,369.73866 511.328009,369.12 509.6,369.12 C508.682662,369.12 507.957336,369.306665 507.424,369.68 C506.890664,370.053335 506.624,370.591996 506.624,371.296 C506.624,371.786669 506.741332,372.186665 506.976,372.496 C507.210668,372.805335 507.626664,373.098665 508.224,373.376 C508.821336,373.653335 509.717327,373.983998 510.912,374.368 C513.173345,375.093337 514.837328,375.983995 515.904,377.04 C516.970672,378.096005 517.504,379.594657 517.504,381.536 C517.504,382.922674 517.152004,384.143995 516.448,385.2 C515.743996,386.256005 514.730673,387.07733 513.408,387.664 C512.085327,388.25067 510.517342,388.544 508.704,388.544 C506.890658,388.544 505.28534,388.256003 503.888,387.68 C502.49066,387.103997 501.290672,386.336005 500.288,385.376 L502.944,382.464 C503.797338,383.189337 504.677329,383.733332 505.584,384.096 C506.490671,384.458668 507.477328,384.64 508.544,384.64 C509.632005,384.64 510.490664,384.400002 511.12,383.92 C511.749336,383.439998 512.064,382.773338 512.064,381.92 C512.064,381.365331 511.946668,380.901335 511.712,380.528 C511.477332,380.154665 511.072003,379.818668 510.496,379.52 C509.919997,379.221332 509.088005,378.901335 508,378.56 C505.546654,377.81333 503.802672,376.896005 502.768,375.808 C501.733328,374.719995 501.216,373.344008 501.216,371.68 C501.216,370.399994 501.55733,369.274672 502.24,368.304 C502.92267,367.333328 503.871994,366.586669 505.088,366.064 C506.304006,365.541331 507.679992,365.28 509.216,365.28 Z M529.792,370.464 C531.968011,370.464 533.583995,371.247992 534.64,372.816 C535.696005,374.384008 536.224,376.597319 536.224,379.456 C536.224,381.205342 535.952003,382.767993 535.408,384.144 C534.863997,385.520007 534.080005,386.597329 533.056,387.376 C532.031995,388.154671 530.83734,388.544 529.472,388.544 C527.765325,388.544 526.389339,387.946673 525.344,386.752 L525.344,394.56 L520.288,395.104 L520.288,371.008 L524.736,371.008 L524.992,372.896 C525.653337,372.063996 526.405329,371.450669 527.248,371.056 C528.090671,370.661331 528.938662,370.464 529.792,370.464 Z M527.936,384.832 C529.962677,384.832 530.976,383.061351 530.976,379.52 C530.976,377.514657 530.746669,376.122671 530.288,375.344 C529.829331,374.565329 529.130671,374.176 528.192,374.176 C527.658664,374.176 527.141336,374.351998 526.64,374.704 C526.138664,375.056002 525.706668,375.54133 525.344,376.16 L525.344,383.328 C526.02667,384.330672 526.890661,384.832 527.936,384.832 Z M548.608,370.528 C549.22667,370.528 549.791997,370.602666 550.304,370.752 L549.504,375.648 C548.863997,375.498666 548.352002,375.424 547.968,375.424 C546.986662,375.424 546.229336,375.76533 545.696,376.448 C545.162664,377.13067 544.746668,378.15466 544.448,379.52 L544.448,388 L539.392,388 L539.392,371.008 L543.808,371.008 L544.224,374.272 C544.608002,373.098661 545.189329,372.181337 545.968,371.52 C546.746671,370.858663 547.626662,370.528 548.608,370.528 Z M557.28,388 L552.224,388 L552.224,371.008 L557.28,371.008 L557.28,388 Z M554.72,362.048 C555.594671,362.048 556.314664,362.319997 556.88,362.864 C557.445336,363.408003 557.728,364.095996 557.728,364.928 C557.728,365.760004 557.445336,366.447997 556.88,366.992 C556.314664,367.536003 555.594671,367.808 554.72,367.808 C553.845329,367.808 553.130669,367.536003 552.576,366.992 C552.021331,366.447997 551.744,365.760004 551.744,364.928 C551.744,364.095996 552.021331,363.408003 552.576,362.864 C553.130669,362.319997 553.845329,362.048 554.72,362.048 Z M571.2,370.464 C572.672007,370.464 573.823996,370.911996 574.656,371.808 C575.488004,372.704004 575.904,373.962659 575.904,375.584 L575.904,388 L570.848,388 L570.848,376.448 C570.848,375.594662 570.714668,375.002668 570.448,374.672 C570.181332,374.341332 569.781336,374.176 569.248,374.176 C568.223995,374.176 567.242671,374.911993 566.304,376.384 L566.304,388 L561.248,388 L561.248,371.008 L565.664,371.008 L566.016,373.024 C566.76267,372.170662 567.557329,371.530669 568.4,371.104 C569.242671,370.677331 570.175995,370.464 571.2,370.464 Z M595.36,372 C594.250661,372.448002 592.618677,372.672 590.464,372.672 C591.573339,373.141336 592.383997,373.71733 592.896,374.4 C593.408003,375.08267 593.664,375.967995 593.664,377.056 C593.664,378.144005 593.376003,379.119996 592.8,379.984 C592.223997,380.848004 591.397339,381.525331 590.32,382.016 C589.242661,382.506669 587.978674,382.752 586.528,382.752 C585.84533,382.752 585.19467,382.688001 584.576,382.56 C584.405332,382.645334 584.272,382.778666 584.176,382.96 C584.08,383.141334 584.032,383.327999 584.032,383.52 C584.032,383.840002 584.154665,384.090666 584.4,384.272 C584.645335,384.453334 585.14133,384.544 585.888,384.544 L588.448,384.544 C589.74934,384.544 590.890662,384.757331 591.872,385.184 C592.853338,385.610669 593.610664,386.19733 594.144,386.944 C594.677336,387.69067 594.944,388.533329 594.944,389.472 C594.944,391.242676 594.181341,392.623995 592.656,393.616 C591.130659,394.608005 588.928014,395.104 586.048,395.104 C583.978656,395.104 582.346673,394.885336 581.152,394.448 C579.957327,394.010664 579.120002,393.397337 578.64,392.608 C578.159998,391.818663 577.92,390.826673 577.92,389.632 L582.464,389.632 C582.464,390.144003 582.565332,390.549332 582.768,390.848 C582.970668,391.146668 583.338664,391.370666 583.872,391.52 C584.405336,391.669334 585.173328,391.744 586.176,391.744 C587.562674,391.744 588.522664,391.578668 589.056,391.248 C589.589336,390.917332 589.856,390.44267 589.856,389.824 C589.856,389.311997 589.653335,388.906668 589.248,388.608 C588.842665,388.309332 588.234671,388.16 587.424,388.16 L584.96,388.16 C583.210658,388.16 581.904004,387.845336 581.04,387.216 C580.175996,386.586664 579.744,385.781338 579.744,384.8 C579.744,384.18133 579.925332,383.57867 580.288,382.992 C580.650668,382.40533 581.14133,381.920002 581.76,381.536 C580.693328,380.959997 579.920002,380.282671 579.44,379.504 C578.959998,378.725329 578.72,377.781339 578.72,376.672 C578.72,374.773324 579.40266,373.264006 580.768,372.144 C582.13334,371.023994 583.935989,370.464 586.176,370.464 C587.882675,370.506667 589.327994,370.336002 590.512,369.952 C591.696006,369.567998 592.917327,369.00267 594.176,368.256 L595.36,372 Z M586.304,373.792 C585.514663,373.792 584.890669,374.042664 584.432,374.544 C583.973331,375.045336 583.744,375.733329 583.744,376.608 C583.744,377.525338 583.973331,378.234664 584.432,378.736 C584.890669,379.237336 585.514663,379.488 586.304,379.488 C587.136004,379.488 587.770664,379.242669 588.208,378.752 C588.645336,378.261331 588.864,377.525338 588.864,376.544 C588.864,374.709324 588.010675,373.792 586.304,373.792 Z M617.248,362.88 L609.728,391.584 L605.28,390.56 L612.832,361.888 L617.248,362.88 Z M638.816,365.28 C641.696014,365.28 644.170656,366.186658 646.24,368 L643.52,370.848 C642.77333,370.22933 642.064003,369.781335 641.392,369.504 C640.719997,369.226665 639.946671,369.088 639.072,369.088 C637.429325,369.088 636.117338,369.733327 635.136,371.024 C634.154662,372.314673 633.664,374.271987 633.664,376.896 C633.664,379.733348 634.03733,381.743994 634.784,382.928 C635.53067,384.112006 636.693325,384.704 638.272,384.704 C639.381339,384.704 640.383996,384.458669 641.28,383.968 L641.28,378.944 L638.4,378.944 L637.888,375.232 L646.368,375.232 L646.368,386.208 C645.215994,386.95467 643.946674,387.530665 642.56,387.936 C641.173326,388.341335 639.754674,388.544 638.304,388.544 C634.975983,388.544 632.464008,387.557343 630.768,385.584 C629.071992,383.610657 628.224,380.714686 628.224,376.896 C628.224,374.463988 628.687995,372.373342 629.616,370.624 C630.544005,368.874658 631.813325,367.546671 633.424,366.64 C635.034675,365.733329 636.83199,365.28 638.816,365.28 Z M659.008,370.528 C659.62667,370.528 660.191997,370.602666 660.704,370.752 L659.904,375.648 C659.263997,375.498666 658.752002,375.424 658.368,375.424 C657.386662,375.424 656.629336,375.76533 656.096,376.448 C655.562664,377.13067 655.146668,378.15466 654.848,379.52 L654.848,388 L649.792,388 L649.792,371.008 L654.208,371.008 L654.624,374.272 C655.008002,373.098661 655.589329,372.181337 656.368,371.52 C657.146671,370.858663 658.026662,370.528 659.008,370.528 Z M675.488,383.072 C675.488,383.712003 675.578666,384.181332 675.76,384.48 C675.941334,384.778668 676.234665,385.002666 676.64,385.152 L675.584,388.448 C674.538661,388.362666 673.69067,388.138668 673.04,387.776 C672.38933,387.413332 671.872002,386.826671 671.488,386.016 C670.378661,387.701342 668.672012,388.544 666.368,388.544 C664.682658,388.544 663.338672,388.053338 662.336,387.072 C661.333328,386.090662 660.832,384.810675 660.832,383.232 C660.832,381.375991 661.51466,379.957338 662.88,378.976 C664.24534,377.994662 666.218654,377.504 668.8,377.504 L670.528,377.504 L670.528,376.768 C670.528,375.765328 670.314669,375.077335 669.888,374.704 C669.461331,374.330665 668.714672,374.144 667.648,374.144 C667.093331,374.144 666.421337,374.223999 665.632,374.384 C664.842663,374.544001 664.032004,374.762665 663.2,375.04 L662.048,371.712 C663.114672,371.306665 664.207994,370.997334 665.328,370.784 C666.448006,370.570666 667.487995,370.464 668.448,370.464 C670.880012,370.464 672.661328,370.965328 673.792,371.968 C674.922672,372.970672 675.488,374.474657 675.488,376.48 L675.488,383.072 Z M667.84,384.928 C668.394669,384.928 668.901331,384.789335 669.36,384.512 C669.818669,384.234665 670.207998,383.840003 670.528,383.328 L670.528,380.288 L669.28,380.288 C668.127994,380.288 667.269336,380.490665 666.704,380.896 C666.138664,381.301335 665.856,381.930662 665.856,382.784 C665.856,383.46667 666.031998,383.994665 666.384,384.368 C666.736002,384.741335 667.22133,384.928 667.84,384.928 Z M684.576,388 L679.52,388 L679.52,371.008 L684.576,371.008 L684.576,388 Z M682.016,362.048 C682.890671,362.048 683.610664,362.319997 684.176,362.864 C684.741336,363.408003 685.024,364.095996 685.024,364.928 C685.024,365.760004 684.741336,366.447997 684.176,366.992 C683.610664,367.536003 682.890671,367.808 682.016,367.808 C681.141329,367.808 680.426669,367.536003 679.872,366.992 C679.317331,366.447997 679.04,365.760004 679.04,364.928 C679.04,364.095996 679.317331,363.408003 679.872,362.864 C680.426669,362.319997 681.141329,362.048 682.016,362.048 Z M693.056,388.544 C691.583993,388.544 690.437337,388.122671 689.616,387.28 C688.794663,386.437329 688.384,385.237341 688.384,383.68 L688.384,364.256 L693.44,363.712 L693.44,383.488 C693.44,384.192004 693.727997,384.544 694.304,384.544 C694.602668,384.544 694.879999,384.490667 695.136,384.384 L696.128,387.968 C695.210662,388.352002 694.186672,388.544 693.056,388.544 Z M704.032,370.464 C705.248006,370.464 706.389328,370.645332 707.456,371.008 C708.522672,371.370668 709.461329,371.882663 710.272,372.544 L708.416,375.392 C707.029326,374.517329 705.632007,374.08 704.224,374.08 C703.562663,374.08 703.056002,374.191999 702.704,374.416 C702.351998,374.640001 702.176,374.954665 702.176,375.36 C702.176,375.680002 702.255999,375.941332 702.416,376.144 C702.576001,376.346668 702.901331,376.554666 703.392,376.768 C703.882669,376.981334 704.639995,377.237332 705.664,377.536 C707.434676,378.048003 708.751996,378.714663 709.616,379.536 C710.480004,380.357337 710.912,381.493326 710.912,382.944 C710.912,384.096006 710.581337,385.093329 709.92,385.936 C709.258663,386.778671 708.352006,387.423998 707.2,387.872 C706.047994,388.320002 704.768007,388.544 703.36,388.544 C701.93066,388.544 700.602673,388.320002 699.376,387.872 C698.149327,387.423998 697.109338,386.805337 696.256,386.016 L698.72,383.264 C700.14934,384.373339 701.653325,384.928 703.232,384.928 C704.000004,384.928 704.602664,384.789335 705.04,384.512 C705.477336,384.234665 705.696,383.840003 705.696,383.328 C705.696,382.922665 705.610668,382.602668 705.44,382.368 C705.269332,382.133332 704.938669,381.914668 704.448,381.712 C703.957331,381.509332 703.178672,381.258668 702.112,380.96 C700.426658,380.469331 699.168004,379.786671 698.336,378.912 C697.503996,378.037329 697.088,376.94934 697.088,375.648 C697.088,374.666662 697.370664,373.786671 697.936,373.008 C698.501336,372.229329 699.311995,371.610669 700.368,371.152 C701.424005,370.693331 702.645326,370.464 704.032,370.464 Z" id="Spring-/-Grails" fill="#FFFFFF"></path>
            <path d="M968.205,84 L963.053,84 L962.669,75.328 C962.562333,73.2586563 962.509,71.4133414 962.509,69.792 C962.509,68.5546605 962.541,67.3813389 962.605,66.272 L959.181,81.664 L954.221,81.664 L950.573,66.272 C950.701001,68.1280093 950.765,69.8773251 950.765,71.52 C950.765,72.7573395 950.733,74.0479933 950.669,75.392 L950.285,84 L945.165,84 L946.829,61.824 L953.453,61.824 L956.781,76.864 L959.885,61.824 L966.541,61.824 L968.205,84 Z M976.525,84 L971.469,84 L971.469,67.008 L976.525,67.008 L976.525,84 Z M973.965,58.048 C974.839671,58.048 975.559664,58.3199973 976.125,58.864 C976.690336,59.4080027 976.973,60.0959958 976.973,60.928 C976.973,61.7600042 976.690336,62.4479973 976.125,62.992 C975.559664,63.5360027 974.839671,63.808 973.965,63.808 C973.090329,63.808 972.375669,63.5360027 971.821,62.992 C971.266331,62.4479973 970.989,61.7600042 970.989,60.928 C970.989,60.0959958 971.266331,59.4080027 971.821,58.864 C972.375669,58.3199973 973.090329,58.048 973.965,58.048 Z M987.853,66.464 C989.026339,66.464 990.082329,66.634665 991.021,66.976 C991.959671,67.317335 992.844996,67.8399965 993.677,68.544 L991.501,71.552 C990.434328,70.7413293 989.357005,70.336 988.269,70.336 C987.138328,70.336 986.285003,70.7519958 985.709,71.584 C985.132997,72.4160042 984.845,73.7599907 984.845,75.616 C984.845,77.408009 985.132997,78.6773296 985.709,79.424 C986.285003,80.1706704 987.116995,80.544 988.205,80.544 C988.781003,80.544 989.303664,80.4533342 989.773,80.272 C990.242336,80.0906658 990.807663,79.7973354 991.469,79.392 L993.677,82.528 C991.991658,83.8720067 990.082344,84.544 987.949,84.544 C986.220991,84.544 984.727673,84.1760037 983.469,83.44 C982.210327,82.7039963 981.23967,81.66934 980.557,80.336 C979.87433,79.00266 979.533,77.440009 979.533,75.648 C979.533,73.855991 979.87433,72.2666736 980.557,70.88 C981.23967,69.4933264 982.210327,68.4106706 983.469,67.632 C984.727673,66.8533294 986.188992,66.464 987.853,66.464 Z M1005.037,66.528 C1005.65567,66.528 1006.221,66.6026659 1006.733,66.752 L1005.933,71.648 C1005.293,71.4986659 1004.781,71.424 1004.397,71.424 C1003.41566,71.424 1002.65834,71.7653299 1002.125,72.448 C1001.59166,73.1306701 1001.17567,74.1546598 1000.877,75.52 L1000.877,84 L995.821,84 L995.821,67.008 L1000.237,67.008 L1000.653,70.272 C1001.037,69.0986608 1001.61833,68.1813366 1002.397,67.52 C1003.17567,66.8586634 1004.05566,66.528 1005.037,66.528 Z M1015.693,66.464 C1018.29568,66.464 1020.33299,67.2586587 1021.805,68.848 C1023.27701,70.4373413 1024.013,72.661319 1024.013,75.52 C1024.013,77.3333424 1023.677,78.9173266 1023.005,80.272 C1022.333,81.6266734 1021.37301,82.6773296 1020.125,83.424 C1018.87699,84.1706704 1017.39968,84.544 1015.693,84.544 C1013.11165,84.544 1011.07967,83.7493413 1009.597,82.16 C1008.11433,80.5706587 1007.373,78.346681 1007.373,75.488 C1007.373,73.6746576 1007.709,72.0906734 1008.381,70.736 C1009.053,69.3813266 1010.01299,68.3306704 1011.261,67.584 C1012.50901,66.8373296 1013.98632,66.464 1015.693,66.464 Z M1015.693,70.176 C1014.66899,70.176 1013.901,70.6079957 1013.389,71.472 C1012.877,72.3360043 1012.621,73.6746576 1012.621,75.488 C1012.621,77.3440093 1012.87166,78.6986624 1013.373,79.552 C1013.87434,80.4053376 1014.64766,80.832 1015.693,80.832 C1016.71701,80.832 1017.485,80.4000043 1017.997,79.536 C1018.509,78.6719957 1018.765,77.3333424 1018.765,75.52 C1018.765,73.6639907 1018.51434,72.3093376 1018.013,71.456 C1017.51166,70.6026624 1016.73834,70.176 1015.693,70.176 Z M1036.973,66.464 C1038.44501,66.464 1039.597,66.9119955 1040.429,67.808 C1041.261,68.7040045 1041.677,69.9626586 1041.677,71.584 L1041.677,84 L1036.621,84 L1036.621,72.448 C1036.621,71.5946624 1036.48767,71.0026683 1036.221,70.672 C1035.95433,70.3413317 1035.55434,70.176 1035.021,70.176 C1033.99699,70.176 1033.01567,70.9119926 1032.077,72.384 L1032.077,84 L1027.021,84 L1027.021,67.008 L1031.437,67.008 L1031.789,69.024 C1032.53567,68.1706624 1033.33033,67.5306688 1034.173,67.104 C1035.01567,66.6773312 1035.94899,66.464 1036.973,66.464 Z M1058.989,79.072 C1058.989,79.7120032 1059.07967,80.1813318 1059.261,80.48 C1059.44233,80.7786682 1059.73566,81.0026659 1060.141,81.152 L1059.085,84.448 C1058.03966,84.3626662 1057.19167,84.1386685 1056.541,83.776 C1055.89033,83.4133315 1055.373,82.8266707 1054.989,82.016 C1053.87966,83.7013418 1052.17301,84.544 1049.869,84.544 C1048.18366,84.544 1046.83967,84.0533382 1045.837,83.072 C1044.83433,82.0906618 1044.333,80.8106746 1044.333,79.232 C1044.333,77.3759907 1045.01566,75.9573382 1046.381,74.976 C1047.74634,73.9946618 1049.71965,73.504 1052.301,73.504 L1054.029,73.504 L1054.029,72.768 C1054.029,71.7653283 1053.81567,71.0773352 1053.389,70.704 C1052.96233,70.3306648 1052.21567,70.144 1051.149,70.144 C1050.59433,70.144 1049.92234,70.2239992 1049.133,70.384 C1048.34366,70.5440008 1047.533,70.7626653 1046.701,71.04 L1045.549,67.712 C1046.61567,67.3066646 1047.70899,66.9973344 1048.829,66.784 C1049.94901,66.5706656 1050.989,66.464 1051.949,66.464 C1054.38101,66.464 1056.16233,66.9653283 1057.293,67.968 C1058.42367,68.9706717 1058.989,70.4746566 1058.989,72.48 L1058.989,79.072 Z M1051.341,80.928 C1051.89567,80.928 1052.40233,80.7893347 1052.861,80.512 C1053.31967,80.2346653 1053.709,79.8400026 1054.029,79.328 L1054.029,76.288 L1052.781,76.288 C1051.62899,76.288 1050.77034,76.4906646 1050.205,76.896 C1049.63966,77.3013354 1049.357,77.9306624 1049.357,78.784 C1049.357,79.4666701 1049.533,79.9946648 1049.885,80.368 C1050.237,80.7413352 1050.72233,80.928 1051.341,80.928 Z M1077.357,84 L1072.973,84 L1072.749,81.856 C1071.51166,83.648009 1069.79434,84.544 1067.597,84.544 C1066.03966,84.544 1064.861,84.0746714 1064.061,83.136 C1063.261,82.1973286 1062.861,80.8853418 1062.861,79.2 L1062.861,67.008 L1067.917,67.008 L1067.917,78.56 C1067.917,79.3920042 1068.05033,79.9733317 1068.317,80.304 C1068.58367,80.6346683 1068.99433,80.8 1069.549,80.8 C1070.61567,80.8 1071.533,80.1386733 1072.301,78.816 L1072.301,67.008 L1077.357,67.008 L1077.357,84 Z M1091.981,83.2 C1091.36233,83.6266688 1090.64234,83.9573322 1089.821,84.192 C1088.99966,84.4266678 1088.18367,84.544 1087.373,84.544 C1083.66098,84.5226666 1081.805,82.474687 1081.805,78.4 L1081.805,70.528 L1079.405,70.528 L1079.405,67.008 L1081.805,67.008 L1081.805,63.328 L1086.861,62.752 L1086.861,67.008 L1090.765,67.008 L1090.221,70.528 L1086.861,70.528 L1086.861,78.336 C1086.861,79.1253373 1086.989,79.690665 1087.245,80.032 C1087.501,80.373335 1087.90633,80.544 1088.461,80.544 C1089.05834,80.544 1089.66633,80.3520019 1090.285,79.968 L1091.981,83.2 Z" id="Micronaut" fill="#FFFFFF"></path>
        </g>
    </g>
</svg>