<?xml version="1.0" encoding="UTF-8"?>
<svg width="623px" height="338px" viewBox="0 0 623 338" version="1.1" xmlns="http://www.w3.org/2000/svg" xmlns:xlink="http://www.w3.org/1999/xlink">
    <!-- Generator: Sketch 50.2 (55047) - http://www.bohemiancoding.com/sketch -->
    <title>rocketspaths</title>
    <desc>Created with Sketch.</desc>
    <defs></defs>
    <g id="Page-1" stroke="none" stroke-width="1" fill="none" fill-rule="evenodd">
        <g id="rocketspaths" transform="translate(-15.000000, -6.000000)">
            <g id="bluerocket" transform="translate(603.524520, 93.227069) rotate(41.000000) translate(-603.524520, -93.227069) translate(575.524520, 48.227069)" fill-rule="nonzero">
                <polygon id="Path_362" fill="#231F20" points="27.8660287 69 16.0765551 89.8636364 39.7224881 89.8636364"></polygon>
                <path d="M27.8660287,59.7272727 C37.9138756,59.7272727 46.7559809,71.7272727 51.4449761,89.5909091 C53.9289055,79.8402689 55.1450287,69.8000134 55.0622009,59.7272727 C55.0622009,26.7272727 42.8708134,0 27.8660287,0 C12.861244,0 0.66985646,26.7272727 0.66985646,59.7272727 C0.620334513,69.798045 1.83593005,79.8339443 4.28708134,89.5909091 C9.0430622,71.7272727 17.8181818,59.7272727 27.8660287,59.7272727 Z" id="Path_363" fill="#231F20"></path>
                <ellipse id="Ellipse_31" fill="#4CAFDE" cx="27.8660287" cy="26.1818182" rx="8.57416268" ry="8.72727273"></ellipse>
            </g>
            <path d="M590.226019,206.815399 C387.816106,342.204768 0.930845495,265.509081 0.930845495,265.509081" id="Path_364" stroke="#4CAFDE" stroke-width="5.00059246" transform="translate(295.578432, 246.981719) rotate(-15.008914) translate(-295.578432, -246.981719) "></path>
            <path d="M514.90049,71.1518958 L510.223942,71.1518958 L509.875379,63.2801906 C509.778556,61.4018161 509.730145,59.7267959 509.730145,58.2550798 C509.730145,57.1319281 509.759191,56.0668864 509.817285,55.0599227 L506.709269,69.0314734 L502.207002,69.0314734 L498.895657,55.0599227 C499.011846,56.7446504 499.069939,58.3325307 499.069939,59.8236115 C499.069939,60.9467632 499.040892,62.1183092 498.982798,63.3382843 L498.634235,71.1518958 L493.986734,71.1518958 L495.497172,51.022406 L501.509877,51.022406 L504.530752,64.6744409 L507.3483,51.022406 L513.390052,51.022406 L514.90049,71.1518958 Z M522.452679,71.1518958 L517.863272,71.1518958 L517.863272,55.728001 L522.452679,55.728001 L522.452679,71.1518958 Z M520.128929,47.5948738 C520.922881,47.5948738 521.576429,47.8417699 522.089593,48.3355693 C522.602757,48.8293688 522.859336,49.4538705 522.859336,50.2090933 C522.859336,50.964316 522.602757,51.5888177 522.089593,52.0826172 C521.576429,52.5764167 520.922881,52.8233127 520.128929,52.8233127 C519.334977,52.8233127 518.686269,52.5764167 518.182787,52.0826172 C517.679306,51.5888177 517.427568,50.964316 517.427568,50.2090933 C517.427568,49.4538705 517.679306,48.8293688 518.182787,48.3355693 C518.686269,47.8417699 519.334977,47.5948738 520.128929,47.5948738 Z M532.735276,55.234204 C533.800333,55.234204 534.758871,55.3891192 535.610917,55.6989541 C536.462963,56.0087891 537.266586,56.4832168 538.021808,57.1222514 L536.04662,59.8526584 C535.078386,59.1168003 534.100484,58.7488768 533.112885,58.7488768 C532.086557,58.7488768 531.311981,59.1264825 530.789135,59.8817053 C530.266288,60.636928 530.004869,61.8568849 530.004869,63.5416125 C530.004869,65.1682461 530.266288,66.3204276 530.789135,66.9981916 C531.311981,67.6759556 532.067193,68.0148325 533.054791,68.0148325 C533.577638,68.0148325 534.052065,67.9325337 534.478089,67.767934 C534.904112,67.6033342 535.417268,67.3370737 536.017574,66.9691447 L538.021808,69.8157392 C536.491998,71.0357144 534.758885,71.6456928 532.822416,71.6456928 C531.253877,71.6456928 529.898369,71.311657 528.755853,70.6435754 C527.613336,69.9754937 526.732256,69.0363206 526.112586,67.8260277 C525.492917,66.6157349 525.183086,65.197293 525.183086,63.5706594 C525.183086,61.9440258 525.492917,60.5013784 526.112586,59.2426738 C526.732256,57.9839693 527.613336,57.0012263 528.755853,56.2944152 C529.898369,55.5876042 531.224831,55.234204 532.735276,55.234204 Z M548.333452,55.2922978 C548.895028,55.2922978 549.408187,55.3600731 549.872937,55.4956259 L549.146765,59.939799 C548.565827,59.8042462 548.101077,59.7364708 547.752514,59.7364708 C546.861737,59.7364708 546.174306,60.0463011 545.690186,60.6659711 C545.206065,61.285641 544.828464,62.2151319 544.557357,63.4544719 L544.557357,71.1518958 L539.96795,71.1518958 L539.96795,55.728001 L543.976419,55.728001 L544.354029,58.6907831 C544.702592,57.6257254 545.230274,56.7930563 545.937084,56.1927511 C546.643895,55.5924459 547.442675,55.2922978 548.333452,55.2922978 Z M558.006064,55.234204 C560.368556,55.234204 562.217853,55.9555277 563.554018,57.3981968 C564.890184,58.8408659 565.558253,60.859604 565.558253,63.4544719 C565.558253,65.1004701 565.253261,66.5382765 564.643277,67.767934 C564.033292,68.9975914 563.161895,69.9512879 562.029057,70.6290519 C560.89622,71.3068159 559.555243,71.6456928 558.006064,71.6456928 C555.662934,71.6456928 553.818475,70.9243691 552.472633,69.4817 C551.126791,68.039031 550.453874,66.0202928 550.453874,63.425425 C550.453874,61.7794267 550.758867,60.3416203 551.368851,59.1119629 C551.978836,57.8823054 552.850233,56.9286089 553.983071,56.2508449 C555.115908,55.5730809 556.456885,55.234204 558.006064,55.234204 Z M558.006064,58.6036424 C557.076555,58.6036424 556.379438,58.9957714 555.914688,59.7800412 C555.449938,60.5643109 555.217563,61.7794267 555.217563,63.425425 C555.217563,65.1101526 555.445091,66.3397917 555.900165,67.1143791 C556.355239,67.8889665 557.057193,68.2762544 558.006064,68.2762544 C558.935573,68.2762544 559.632689,67.8841254 560.097439,67.0998557 C560.56219,66.3155859 560.794565,65.1004701 560.794565,63.4544719 C560.794565,61.7697442 560.567037,60.5401051 560.111963,59.7655177 C559.656889,58.9909303 558.954935,58.6036424 558.006064,58.6036424 Z M577.322241,55.234204 C578.658407,55.234204 579.704085,55.6408563 580.459304,56.4541731 C581.214523,57.2674899 581.592133,58.4099892 581.592133,59.8817053 L581.592133,71.1518958 L577.002725,71.1518958 L577.002725,60.6659711 C577.002725,59.8913837 576.8817,59.3540217 576.639639,59.0538691 C576.397579,58.7537165 576.034502,58.6036424 575.550381,58.6036424 C574.620872,58.6036424 573.730113,59.271714 572.878068,60.6078773 L572.878068,71.1518958 L568.28866,71.1518958 L568.28866,55.728001 L572.29713,55.728001 L572.616646,57.5579546 C573.29441,56.7833672 574.015734,56.2024354 574.780639,55.8151417 C575.545543,55.427848 576.392732,55.234204 577.322241,55.234204 Z M597.306496,66.6786758 C597.306496,67.2596164 597.388799,67.6856331 597.553395,67.9567387 C597.717991,68.2278443 597.984251,68.4311704 598.352184,68.5667232 L597.393637,71.5585522 C596.444766,71.4810934 595.675033,71.2777673 595.08441,70.9485676 C594.493787,70.619368 594.024199,70.0868471 593.675636,69.3509891 C592.668671,70.8807993 591.119519,71.6456928 589.028135,71.6456928 C587.498326,71.6456928 586.278366,71.2003117 585.368228,70.3095362 C584.458089,69.4187607 584.003024,68.256897 584.003024,66.8239103 C584.003024,65.1391826 584.622685,63.8514503 585.862025,62.9606748 C587.101364,62.0698993 588.892568,61.6245182 591.235698,61.6245182 L592.80423,61.6245182 L592.80423,60.9564399 C592.80423,60.0462997 592.610587,59.421798 592.223292,59.082916 C591.835997,58.744034 591.158243,58.5745955 590.19001,58.5745955 C589.686528,58.5745955 589.076552,58.647212 588.360056,58.7924471 C587.643561,58.9376823 586.907712,59.1361674 586.152493,59.3879082 L585.106806,56.3670324 C586.075038,55.9991034 587.067461,55.7183197 588.084111,55.5246728 C589.100761,55.331026 590.044776,55.234204 590.916182,55.234204 C593.123754,55.234204 594.740685,55.6892673 595.767012,56.5994075 C596.793338,57.5095477 597.306496,58.8747375 597.306496,60.695018 L597.306496,66.6786758 Z M590.364291,68.3633951 C590.867774,68.3633951 591.327677,68.2375265 591.744018,67.9857856 C592.16036,67.7340447 592.513761,67.3758034 592.80423,66.9110509 L592.80423,64.151597 L591.671401,64.151597 C590.625704,64.151597 589.846295,64.3355588 589.333127,64.7034878 C588.819959,65.0714169 588.563385,65.6426665 588.563385,66.4172539 C588.563385,67.0369239 588.723142,67.5161926 589.042658,67.8550746 C589.362174,68.1939566 589.802715,68.3633951 590.364291,68.3633951 Z M613.979407,71.1518958 L609.999984,71.1518958 L609.796656,69.2057547 C608.673504,70.8323883 607.114667,71.6456928 605.120108,71.6456928 C603.706487,71.6456928 602.636599,71.2196762 601.910427,70.36763 C601.184255,69.5155838 600.821169,68.3246736 600.821169,66.7948634 L600.821169,55.728001 L605.410577,55.728001 L605.410577,66.2139257 C605.410577,66.9691485 605.531602,67.4968282 605.773663,67.7969808 C606.015723,68.0971334 606.388485,68.2472075 606.891968,68.2472075 C607.8602,68.2472075 608.692874,67.6469113 609.39,66.4463008 L609.39,55.728001 L613.979407,55.728001 L613.979407,71.1518958 Z M627.253833,70.4257237 C626.692257,70.8130174 626.038711,71.1131656 625.293168,71.3261771 C624.547625,71.5391886 623.806939,71.6456928 623.071081,71.6456928 C619.701625,71.6263282 618.016924,69.7673462 618.016924,66.0686913 L618.016924,58.9231581 L615.838408,58.9231581 L615.838408,55.728001 L618.016924,55.728001 L618.016924,52.3876095 L622.606331,51.8647656 L622.606331,55.728001 L626.150051,55.728001 L625.656254,58.9231581 L622.606331,58.9231581 L622.606331,66.0105975 C622.606331,66.7270909 622.722519,67.2402474 622.954894,67.5500823 C623.187269,67.8599173 623.555193,68.0148325 624.058676,68.0148325 C624.60089,68.0148325 625.152772,67.8405529 625.714348,67.4919886 L627.253833,70.4257237 Z" id="Micronaut" fill="#231F20" fill-rule="nonzero" transform="translate(560.620283, 59.620283) rotate(-50.000000) translate(-560.620283, -59.620283) "></path>
        </g>
    </g>
</svg>