<svg xmlns="http://www.w3.org/2000/svg" viewBox="344 1585 110.555 128.481">
  <defs>
    <style>
      .cls-1 {
        fill: #fff;
      }
    </style>
  </defs>
  <g id="Group_103" data-name="Group 103" transform="translate(343.997 1584.897)">
    <circle id="Ellipse_22" data-name="Ellipse 22" cx="21.618" cy="21.618" r="21.618" transform="translate(52.423 1.917)"/>
    <g id="Group_102" data-name="Group 102" transform="translate(0.003 0.103)">
      <path id="Path_291" data-name="Path 291" class="cls-1" d="M110.51,65.119a7.378,7.378,0,0,0-2.09-4.291c-8.526-8.966-11.551-11.991-22.168-17.6a24,24,0,0,0,6.491-32.069A23.88,23.88,0,0,0,63.259,2.027,23.606,23.606,0,0,0,50.828,33.05a82.169,82.169,0,0,0-19.087.88c-4.951.77-11.606,1.485-15.677,4.731C6.657,46.032,15.4,62.039,26.35,57.418A43.293,43.293,0,0,1,44.667,54.5c-4.015,16.722-26.4,40.32-40.375,50.936-10.341,7.866.055,21.673,9.736,14.412,6.6-4.951,24.313-18.922,30.969-26.4,1.54-1.705,4.511.275,3.245,2.255-4.4,6.876-5.721,8.031-16.007,17.162-9.571,8.526,1.705,20.022,10.176,14.082,23.323-16.227,38.23-39.66,41.035-65.293A75.978,75.978,0,0,1,96.758,72.16C102.754,77.551,111.28,71.83,110.51,65.119ZM58.584,25.184a.765.765,0,0,1-.825-.77A22,22,0,0,1,63.369,8.9a.987.987,0,0,1,.385-.275c10.726-2.75,24.753,3.3,29.319,7.646l.165.165c1.43,2.53,1.925,10.011-.88,16.282A.745.745,0,0,1,91.2,33C83.832,27.11,74.48,23.919,58.584,25.184Z" transform="translate(-0.003 -0.103)"/>
      <g id="Group_100" data-name="Group 100" transform="translate(62.47 10.214)">
        <path id="Path_292" data-name="Path 292" class="cls-1" d="M113.917,24.683c-.055-.055-.11-.055-.165-.11a.7.7,0,0,1,.055-.99l5.556-4.731A.7.7,0,1,1,120.3,19.9l-5.556,4.731A.66.66,0,0,1,113.917,24.683Z" transform="translate(-113.571 -18.671)"/>
      </g>
      <g id="Group_101" data-name="Group 101" transform="translate(60.633 9.862)">
        <path id="Path_293" data-name="Path 293" class="cls-1" d="M110.709,31.216a.429.429,0,0,1-.22-.22,1.049,1.049,0,0,1,.11-1.485l13.092-11.221a1.053,1.053,0,0,1,1.375,1.6L111.975,31.106A1.083,1.083,0,0,1,110.709,31.216Z" transform="translate(-110.232 -18.032)"/>
      </g>
    </g>
  </g>
</svg>
