<?xml version="1.0" encoding="UTF-8"?>
<svg width="94px" height="94px" viewBox="0 0 94 94" version="1.1" xmlns="http://www.w3.org/2000/svg" xmlns:xlink="http://www.w3.org/1999/xlink">
    <!-- Generator: Sketch 62 (91390) - https://sketch.com -->
    <title>analytics</title>
    <desc>Created with Sketch.</desc>
    <g id="Page-1" stroke="none" stroke-width="1" fill="none" fill-rule="evenodd">
        <g id="analytics" transform="translate(1.000000, 1.000000)">
            <circle id="Oval" stroke="#4CAFDE" stroke-width="2.8347" cx="45.88" cy="45.792" r="45.374"></circle>
            <g id="Group-2" transform="translate(18.000000, 27.000000)" fill="#4CAFDE" fill-rule="nonzero">
                <polygon id="Shape" points="6.18808145 32 5 30.8773072 15.8536585 22.3072747 24.023133 28.921824 31.8141814 22.2953312 48.7704299 8 50 9.08794781 33.0475232 23.3811075 24.0520493 31.0304017 15.8385718 24.3789359"></polygon>
                <g id="Group" transform="translate(28.000000, 17.000000)">
                    <ellipse id="Oval" cx="5.28668852" cy="5.30775" rx="3.71331149" ry="3.53925"></ellipse>
                    <path d="M5.28786884,9.633375 C2.78439345,9.633375 0.748327869,7.691625 0.748327869,5.306625 C0.748327869,2.921625 2.78439345,0.981 5.28786884,0.981 C7.7889836,0.981 9.8262295,2.921625 9.8262295,5.306625 C9.8262295,7.691625 7.79016393,9.633375 5.28786884,9.633375 L5.28786884,9.633375 Z M5.28786884,2.556 C3.69560655,2.556 2.40196721,3.79125 2.40196721,5.306625 C2.40196721,6.82425 3.69678688,8.058375 5.28786884,8.058375 C6.87895083,8.058375 8.17259098,6.823125 8.17259098,5.306625 C8.1737705,3.79125 6.87895083,2.556 5.28786884,2.556 L5.28786884,2.556 Z" id="Shape"></path>
                </g>
                <g id="Group" transform="translate(0.000000, 26.000000)">
                    <ellipse id="Oval" cx="5.28668852" cy="5.30775" rx="3.71331149" ry="3.53925"></ellipse>
                    <path d="M5.28786884,9.633375 C2.78439345,9.633375 0.748327869,7.691625 0.748327869,5.306625 C0.748327869,2.921625 2.78439345,0.981 5.28786884,0.981 C7.7889836,0.981 9.8262295,2.921625 9.8262295,5.306625 C9.8262295,7.691625 7.79016393,9.633375 5.28786884,9.633375 L5.28786884,9.633375 Z M5.28786884,2.556 C3.69560655,2.556 2.40196721,3.79125 2.40196721,5.306625 C2.40196721,6.82425 3.69678688,8.058375 5.28786884,8.058375 C6.87895083,8.058375 8.17259098,6.823125 8.17259098,5.306625 C8.1737705,3.79125 6.87895083,2.556 5.28786884,2.556 L5.28786884,2.556 Z" id="Shape"></path>
                </g>
                <g id="Group" transform="translate(45.000000, 0.000000)">
                    <ellipse id="Oval" cx="5.3492459" cy="6.072" rx="3.71213116" ry="4.19333333"></ellipse>
                    <path d="M5.34806557,11.1986667 C2.8457705,11.1986667 0.80852459,8.89866667 0.80852459,6.07066666 C0.80852459,3.24400001 2.8457705,0.943999999 5.34806557,0.943999999 C7.85154098,0.943999999 9.88760655,3.24400001 9.88760655,6.07066666 C9.88760655,8.89999999 7.85154098,11.1986667 5.34806557,11.1986667 L5.34806557,11.1986667 Z M5.34806557,2.81066666 C3.7569836,2.81066666 2.46216393,4.27466666 2.46216393,6.07066666 C2.46216393,7.86933334 3.75816393,9.33199999 5.34806557,9.33199999 C6.94032786,9.33199999 8.23396801,7.86799999 8.23396801,6.07066666 C8.23514753,4.27466666 6.94032786,2.81066666 5.34806557,2.81066666 L5.34806557,2.81066666 Z" id="Shape"></path>
                </g>
            </g>
        </g>
    </g>
</svg>