<?xml version="1.0" encoding="UTF-8"?>
<svg width="95px" height="95px" viewBox="0 0 95 95" version="1.1" xmlns="http://www.w3.org/2000/svg" xmlns:xlink="http://www.w3.org/1999/xlink">
    <!-- Generator: Sketch 62 (91390) - https://sketch.com -->
    <title>api</title>
    <desc>Created with Sketch.</desc>
    <g id="Page-1" stroke="none" stroke-width="1" fill="none" fill-rule="evenodd">
        <g id="api" transform="translate(2.000000, 2.000000)">
            <circle id="Oval" stroke="#4CAFDE" stroke-width="2.8347" cx="45.374" cy="45.374" r="45.374"></circle>
            <path d="M72.9799715,28.7483769 C72.9775437,28.731932 72.975116,28.7154871 72.9726883,28.6990422 C72.9611568,28.6308264 72.9478044,28.5632197 72.9289897,28.496222 C72.9253481,28.4828225 72.9229204,28.469423 72.918065,28.4566325 C72.8968226,28.3817169 72.869511,28.3068014 72.8373439,28.2343221 C72.82824,28.2178772 72.8209569,28.2026505 72.8136738,28.1862056 C72.7972868,28.1502705 72.779686,28.1143354 72.7614782,28.0790093 C72.7499466,28.0595191 72.7365942,28.041247 72.7238488,28.0223658 C72.7123172,28.0022665 72.7001787,27.9827763 72.6874333,27.962677 C72.6491969,27.9029882 72.6067121,27.8451266 72.5630135,27.7909194 C72.5581581,27.7854377 72.5533027,27.779347 72.5502681,27.7738654 C72.4980724,27.7111312 72.4404145,27.6550968 72.3827566,27.6002806 C72.3700111,27.5893173 72.3590865,27.5795722 72.3451272,27.569218 C72.2929316,27.5235378 72.2389152,27.4809029 72.183078,27.4425315 C72.1709395,27.4340046 72.1594079,27.4254776 72.1472694,27.4175597 C72.0811145,27.3730976 72.0107111,27.3335081 71.938487,27.2987911 C71.9336316,27.2963548 71.92999,27.2927004 71.9245277,27.2902641 L46.8172255,15.1868321 C46.3001248,14.9377226 45.6986614,14.9377226 45.1821676,15.1868321 L20.0706169,27.2896551 C19.416351,27.6051531 19,28.269039 19,28.9974863 L19,60.1306904 C19,60.8195481 19.3720455,61.4535896 19.972295,61.7879689 L45.0838457,75.7612447 C45.0844526,75.7618538 45.0856664,75.7624628 45.0862734,75.7624628 C45.1524283,75.8002252 45.2216178,75.8318968 45.2926281,75.8611321 C45.3047666,75.8660047 45.3162982,75.8702682 45.3284367,75.8739226 C45.3848808,75.89524 45.4431457,75.9141212 45.5026244,75.9311751 C45.5214391,75.9360477 45.5402538,75.9415293 45.5590685,75.9451837 C45.6130849,75.9585833 45.6683151,75.9683284 45.7241523,75.9774644 C45.74236,75.9805098 45.7611747,75.9841642 45.7799894,75.9866005 C45.8522136,75.9957365 45.9250447,76 45.9996965,76 C46.0737415,76 46.1471795,75.9939093 46.2187967,75.9866005 C46.2376114,75.9841642 46.2564261,75.9805098 46.2746339,75.9774644 C46.330471,75.9683284 46.3857013,75.9598014 46.4391107,75.9451837 C46.4579254,75.9403112 46.477954,75.9348295 46.4973756,75.9311751 C46.5562474,75.9153393 46.6132984,75.89524 46.6703494,75.8739226 C46.6830949,75.8702682 46.6940195,75.8653956 46.706765,75.8611321 C46.7759545,75.8318968 46.845751,75.7996161 46.9131197,75.7624628 C46.9143336,75.7624628 46.9155474,75.7618538 46.9155474,75.7612447 L72.0270981,61.7879689 C72.6267407,61.4535896 73,60.8195481 73,60.1306904 L73,28.9974863 C73,28.9962682 73,28.9950501 73,28.9932229 C72.9975723,28.9116075 72.9908961,28.8299922 72.9799715,28.7483769 Z M69,59.1000915 L47.8689585,71 L47.8689585,64.3091242 C47.8689585,63.2606042 47.0310977,62.411657 45.9990984,62.411657 C44.9670992,62.411657 44.1298394,63.2618248 44.1298394,64.3091242 L44.1298394,71 L23,59.1013122 L23,32.102838 C25.2190689,32.4989319 27.2079364,33.5846811 28.7388055,35.139762 L32.5121843,39.3722917 C31.8834882,40.1827891 31.078685,41.3191944 30.8544941,42.1748551 C30.3424013,44.1248093 30.6585525,46.1003967 31.58056,47.7201709 L44.036677,40.390296 C43.1122653,38.7729631 41.5813963,37.5120537 39.6598461,36.9926762 C38.5455032,36.6917913 36.8409314,36.88343 35.7710661,37.1074153 L35.4855683,37.2929509 L31.2746266,32.5636253 C29.6800465,30.9450717 27.7122156,29.7061337 25.5165876,28.9890143 L45.9990984,19 L66.7977604,29.1434239 L53.2459331,36.774794 C52.3431592,37.2831858 52.0167901,38.4385108 52.5180641,39.3558132 C52.8594593,39.9807751 53.4971712,40.3341471 54.1547176,40.3341471 C54.460651,40.3341471 54.7719938,40.2572475 55.0586936,40.0949039 L68.9987979,32.2462618 L68.9987979,43.5694233 L68.8858009,43.5694233 C68.8858009,49.7958499 63.8983053,54.860238 57.7664145,54.860238 C55.5846106,54.860238 53.5560739,54.2108636 51.839481,53.1043637 C52.0738897,52.4794019 52.2067213,51.8037839 52.2067213,51.0958193 C52.2067213,49.5364663 51.5846367,48.1254196 50.5796846,47.1037534 L49.1558021,48.5483674 L46.394588,45.7458041 L46.3927848,45.747635 C46.0321561,45.3808361 45.4467354,45.3808361 45.0855056,45.7482453 C44.7242758,46.1156546 44.7242758,46.7101007 45.0855056,47.0762893 L47.8449166,49.8788526 L45.4485385,52.3115655 L42.606784,49.4259994 L42.6049809,49.4278303 C42.24315,49.0604211 41.6577293,49.0604211 41.2971006,49.4278303 C40.9358708,49.7952395 40.9358708,50.3896857 41.2971006,50.7564846 L44.1394562,53.642661 L42.7155737,55.0872749 C43.72293,56.1089411 45.1119517,56.7406164 46.6476291,56.7406164 C47.6537833,56.7406164 48.5938223,56.4653647 49.4088432,55.9911504 C51.7907961,57.6481538 54.6680125,58.6228258 57.7670155,58.6228258 C62.2550403,58.6228258 66.2790561,56.5855966 69,53.3765639 L69,59.1000915 Z" id="Shape" fill="#4CAFDE" fill-rule="nonzero"></path>
        </g>
    </g>
</svg>