<?xml version="1.0" encoding="UTF-8"?>
<svg width="95px" height="95px" viewBox="0 0 95 95" version="1.1" xmlns="http://www.w3.org/2000/svg" xmlns:xlink="http://www.w3.org/1999/xlink">
    <!-- Generator: Sketch 52.6 (67491) - http://www.bohemiancoding.com/sketch -->
    <title>aws</title>
    <desc>Created with Sketch.</desc>
    <g id="Page-1" stroke="none" stroke-width="1" fill="none" fill-rule="evenodd">
        <g id="aws" transform="translate(2.000000, 2.000000)">
            <circle id="Oval" stroke="#4CAFDE" stroke-width="2.8347" cx="45.374" cy="45.374" r="45.374"></circle>
            <g id="AWS-General_AWS-Cloud_light-bg" transform="translate(18.000000, 29.000000)" fill="#4CAFDE">
                <path d="M15.9217949,12.2551282 C15.9029364,12.7990354 15.9744191,13.3423044 16.1333333,13.8628205 C16.2856811,14.3121906 16.4792395,14.7465168 16.7115385,15.1602564 C16.7900466,15.2825974 16.8339108,15.4239375 16.8384615,15.5692308 C16.815994,15.7948931 16.6842336,15.995169 16.4858974,16.1051282 L15.3576923,16.8525641 C15.2185666,16.9560002 15.0514351,17.0149878 14.8782051,17.0217949 C14.672613,17.013058 14.4793073,16.9214921 14.3423077,16.7679487 C14.0955132,16.5141466 13.8822398,16.2297821 13.7076923,15.9217949 C13.524359,15.625641 13.3410256,15.2730769 13.1435897,14.8782051 C11.854721,16.4728359 9.90531688,17.3877563 7.85512821,17.3602564 C6.52274856,17.4432207 5.21406447,16.9798345 4.23076923,16.0769231 C3.32294138,15.1511755 2.84247394,13.8886706 2.90512821,12.5935897 C2.85093659,11.175493 3.45468801,9.81184754 4.54102564,8.89871795 C5.79049114,7.90477566 7.36082782,7.40307064 8.95512821,7.48846154 C9.59209851,7.49489653 10.2280078,7.54200093 10.8589744,7.62948718 C11.5217949,7.72820513 12.2692308,7.85512821 12.9320513,8.02435897 L12.9320513,6.69871795 C13.0257107,5.68446445 12.7223948,4.67341159 12.0858974,3.87820513 C11.25265,3.23073514 10.2026404,2.92784777 9.1525641,3.03205128 C8.49679646,3.03703236 7.84378125,3.11747626 7.20641026,3.27179487 C6.54302057,3.42943167 5.89245908,3.63685707 5.26025641,3.89230769 C5.06096468,3.98684315 4.85320894,4.06239069 4.63974359,4.11794872 C4.54624038,4.13185033 4.45119552,4.13185033 4.35769231,4.11794872 C4.10384615,4.11794872 3.97692308,3.92051282 3.97692308,3.55384615 L3.97692308,2.66538462 C3.95950631,2.44616587 4.00345424,2.22642624 4.10384615,2.03076923 C4.23791231,1.86861551 4.40656212,1.73851422 4.5974359,1.65 C5.33155832,1.30611391 6.09648561,1.03225106 6.88205128,0.832051282 C7.8042065,0.600844128 8.75188794,0.487122356 9.7025641,0.493589744 C11.396873,0.327404794 13.0886071,0.83391202 14.4128205,1.90384615 C15.4970252,3.1126114 16.0374454,4.71347865 15.9076923,6.33205128 L15.9217949,12.2551282 Z M8.6025641,14.9910256 C9.23690054,14.9883415 9.86624079,14.8786837 10.4641026,14.6666667 C11.1249574,14.4384729 11.7136785,14.0395049 12.1705128,13.5102564 C12.4605791,13.1809659 12.6726749,12.7905168 12.7910256,12.3679487 C12.9123427,11.8552267 12.9691923,11.3293675 12.9602564,10.8025641 L12.9602564,10.0410256 C12.4072327,9.90906654 11.8468381,9.81017338 11.2820513,9.74487179 C10.7207429,9.67314211 10.1556062,9.63546633 9.58974359,9.63205128 C8.63848853,9.55756486 7.69100742,9.81687548 6.91025641,10.3653846 C6.30285848,10.8769727 5.97336005,11.6458023 6.02179487,12.4384615 C5.97323173,13.1412451 6.21249113,13.8335702 6.68461538,14.3564103 C7.21356403,14.8155294 7.90416092,15.0440357 8.6025641,14.9910256 Z M23.0858974,16.9230769 C22.8433323,16.9426705 22.6009337,16.8833076 22.3948718,16.7538462 C22.1967223,16.5648714 22.0634395,16.3180515 22.0141026,16.0487179 L17.7833333,2.10128205 C17.7086529,1.87670533 17.6566834,1.64520504 17.6282051,1.41025641 C17.6145255,1.29063632 17.6561679,1.17131066 17.7413034,1.08617519 C17.8264389,1.00103971 17.9457645,0.959397298 18.0653846,0.973076923 L19.8423077,0.973076923 C20.0894154,0.952427907 20.3366163,1.01175614 20.5474359,1.14230769 C20.7293651,1.34660563 20.8556392,1.59429719 20.9141026,1.86153846 L23.974359,13.7641026 L26.7948718,1.8474359 C26.8404073,1.57865515 26.962869,1.32883322 27.1474359,1.12820513 C27.3633802,0.997471699 27.6150846,0.93824712 27.8666667,0.958974359 L29.2769231,0.958974359 C29.5329234,0.939043668 29.7888775,0.998109996 30.0102564,1.12820513 C30.1897064,1.33053602 30.3071945,1.5801984 30.3487179,1.8474359 L33.1692308,13.9192308 L36.2858974,1.8474359 C36.3484344,1.57877843 36.4796356,1.33095392 36.6666667,1.12820513 C36.8766826,0.99573712 37.1245335,0.936252899 37.3717949,0.958974359 L39.05,0.958974359 C39.1724063,0.944373646 39.2946084,0.987776404 39.3803819,1.07631678 C39.4661553,1.16485715 39.5056578,1.28837515 39.4871795,1.41025641 C39.4928483,1.50889298 39.4928483,1.60777369 39.4871795,1.70641026 L39.3602564,2.14358974 L34.974359,16.0769231 C34.925022,16.3462566 34.7917392,16.5930765 34.5935897,16.7820513 C34.3691409,16.9164438 34.1041422,16.9664436 33.8461538,16.9230769 L32.4358974,16.9230769 C32.1777308,16.9469588 31.9191197,16.882306 31.7025641,16.7397436 C31.5154116,16.5369886 31.3969733,16.2803722 31.3641026,16.0064103 L28.5435897,4.4 L25.7230769,16.0064103 C25.6801589,16.2801852 25.5575325,16.5352483 25.3705128,16.7397436 C25.1592497,16.8823358 24.9050254,16.9471381 24.6512821,16.9230769 L23.0858974,16.9230769 Z M46.2423077,17.4025641 C45.2927022,17.4048504 44.3460921,17.2959902 43.4217949,17.0782051 C42.6980661,16.9290971 41.9965648,16.6873636 41.3346154,16.3589744 C41.1023404,16.2519637 40.9098364,16.0742678 40.7846154,15.8512821 C40.7138554,15.6911607 40.6755108,15.5186098 40.6717949,15.3435897 L40.6717949,14.4269231 C40.6717949,14.0602564 40.8128205,13.8628205 41.0807692,13.8628205 C41.1927235,13.8430489 41.3072765,13.8430489 41.4192308,13.8628205 L41.8705128,14.0461538 C42.5107883,14.3227361 43.1768513,14.5353094 43.8589744,14.6807692 C44.5650076,14.8202646 45.2828833,14.8911076 46.0025641,14.8923077 C46.9197357,14.9456034 47.8334518,14.7403837 48.6397436,14.3 C49.222409,13.970607 49.5912087,13.3612857 49.6128205,12.6923077 C49.6243329,12.224479 49.4463311,11.7718459 49.1192308,11.4371795 C48.5946985,10.9927566 47.9782167,10.6700669 47.3141026,10.4923077 L44.6910256,9.66025641 C43.5880503,9.35406372 42.6043265,8.71956186 41.8705128,7.84102564 C41.264798,7.09845149 40.9225621,6.17590249 40.8974359,5.21794872 C40.8800035,4.52004663 41.0452956,3.82970899 41.3769231,3.21538462 C41.7148444,2.66635696 42.1553457,2.18755119 42.674359,1.80512821 C43.2360075,1.38053752 43.8721786,1.06484361 44.55,0.874358974 C45.2880966,0.662846624 46.0527296,0.558362616 46.8205128,0.564102564 C47.2259322,0.559458768 47.6311837,0.583019899 48.0333333,0.634615385 C48.4423077,0.634615385 48.8371795,0.761538462 49.2038462,0.846153846 C49.5518441,0.921535692 49.8955088,1.01569039 50.2333333,1.12820513 C50.4913994,1.20866742 50.7415826,1.31251703 50.9807692,1.43846154 C51.1912141,1.552423 51.3779052,1.70560547 51.5307692,1.88974359 C51.6421926,2.06651421 51.6963656,2.27335668 51.6858974,2.48205128 L51.6858974,3.32820513 C51.6858974,3.70897436 51.5448718,3.90641026 51.2769231,3.90641026 C51.0305084,3.87294517 50.7918597,3.7965776 50.5717949,3.68076923 C49.4781495,3.20485166 48.2950975,2.96920309 47.1025641,2.98974359 C46.2727263,2.94582362 45.4459304,3.12090982 44.7051282,3.4974359 C44.2566286,3.80652956 43.964648,4.29532478 43.905091,4.83675231 C43.8455339,5.37817985 44.0242837,5.9187554 44.3948718,6.31794872 C44.9796011,6.7883009 45.6572771,7.12954198 46.3833333,7.31923077 L48.9358974,8.13717949 C50.0326522,8.41021203 51.0179498,9.01617002 51.7564103,9.87179487 C52.312016,10.5945372 52.6054182,11.4846898 52.5884615,12.3961538 C52.6150738,13.1141221 52.4750939,13.8285026 52.1794872,14.4833333 C51.8269068,15.1079413 51.3463244,15.6509994 50.7692308,16.0769231 C50.1712509,16.5346649 49.491648,16.8744664 48.7666667,17.0782051 C47.9472121,17.3196064 47.0965453,17.4384146 46.2423077,17.4307692 L46.2423077,17.4025641 Z" id="Shape" fill-rule="nonzero"></path>
                <path d="M49.6410256,26.1884615 C43.7179487,30.574359 35.1153846,32.9012821 27.6974359,32.9012821 C17.8042924,32.9484363 8.24951997,29.3025363 0.902564103,22.6769231 C0.352564103,22.1692308 0.902564103,21.4923077 1.50897436,21.8730769 C9.66855499,26.5385603 18.904618,28.9934087 28.3038462,28.9948718 C35.3370202,28.9476121 42.2913985,27.5097668 48.7666667,24.7641026 C49.7820513,24.3833333 50.6282051,25.4692308 49.6410256,26.1884615 Z" id="Path"></path>
                <path d="M52.1794872,23.3679487 C51.4179487,22.3948718 47.1589744,22.9166667 45.2410256,23.1423077 C44.6628205,23.2128205 44.5782051,22.7051282 45.1,22.3384615 C48.4987179,19.9551282 54.0551282,20.6461538 54.7038462,21.4358974 C55.3525641,22.225641 54.5346154,27.824359 51.3474359,30.4897436 C50.8679487,30.8987179 50.4025641,30.6871795 50.6141026,30.1371795 C51.2769231,28.3461538 52.8705128,24.3410256 52.1794872,23.3679487 Z" id="Path"></path>
            </g>
        </g>
    </g>
</svg>