<?xml version="1.0" encoding="UTF-8"?>
<svg width="128px" height="128px" viewBox="0 0 128 128" version="1.1" xmlns="http://www.w3.org/2000/svg" xmlns:xlink="http://www.w3.org/1999/xlink">
    <!-- Generator: Sketch 50.2 (55047) - http://www.bohemiancoding.com/sketch -->
    <title>circle_kotlin</title>
    <desc>Created with Sketch.</desc>
    <defs>
        <linearGradient x1="26.599%" y1="146.559136%" x2="73.8446667%" y2="52.3813953%" id="linearGradient-1">
            <stop stop-color="#0095D5" offset="9.677%"></stop>
            <stop stop-color="#238AD9" offset="30.07%"></stop>
            <stop stop-color="#557BDE" offset="62.11%"></stop>
            <stop stop-color="#7472E2" offset="86.43%"></stop>
            <stop stop-color="#806EE3" offset="100%"></stop>
        </linearGradient>
        <linearGradient x1="13.9840532%" y1="37.1049231%" x2="68.682392%" y2="-13.5538462%" id="linearGradient-2">
            <stop stop-color="#0095D5" offset="11.83%"></stop>
            <stop stop-color="#3C83DC" offset="41.78%"></stop>
            <stop stop-color="#6D74E1" offset="69.62%"></stop>
            <stop stop-color="#806EE3" offset="83.33%"></stop>
        </linearGradient>
        <linearGradient x1="-16.8361667%" y1="91.9396667%" x2="76.2191667%" y2="-1.11566667%" id="linearGradient-3">
            <stop stop-color="#C757BC" offset="10.75%"></stop>
            <stop stop-color="#D0609A" offset="21.38%"></stop>
            <stop stop-color="#E1725C" offset="42.54%"></stop>
            <stop stop-color="#EE7E2F" offset="60.48%"></stop>
            <stop stop-color="#F58613" offset="74.3%"></stop>
            <stop stop-color="#F88909" offset="82.32%"></stop>
        </linearGradient>
    </defs>
    <g id="Page-1" stroke="none" stroke-width="1" fill="none" fill-rule="evenodd">
        <g id="circle_kotlin" fill-rule="nonzero">
            <path d="M64,4 C97.137085,4 124,30.862915 124,64 C124,97.137085 97.137085,124 64,124 C30.862915,124 4,97.137085 4,64 C4.03857381,30.878906 30.878906,4.03857381 64,4 Z M64,0 C28.653776,-3.87975164e-16 4.32866401e-15,28.653776 0,64 C-4.32866401e-15,99.346224 28.653776,128 64,128 C99.346224,128 128,99.346224 128,64 C128,47.0261447 121.257162,30.7474942 109.254834,18.745166 C97.2525058,6.74283778 80.9738553,9.92113308e-15 64,0 Z" id="Shape" fill="#231F20"></path>
            <g id="kotlin" transform="translate(42.000000, 42.000000)">
                <polygon id="XMLID_2_" fill="url(#linearGradient-1)" points="0 45 22.575 22.425 45 45"></polygon>
                <polygon id="Shape" fill="url(#linearGradient-2)" points="0 0 22.575 0 0 24.375"></polygon>
                <polygon id="Shape" fill="url(#linearGradient-3)" points="22.575 0 0 23.775 0 45 22.575 22.425 45 0"></polygon>
            </g>
        </g>
    </g>
</svg>