<?xml version="1.0" encoding="UTF-8"?>
<svg width="669px" height="407px" viewBox="0 0 669 407" version="1.1" xmlns="http://www.w3.org/2000/svg" xmlns:xlink="http://www.w3.org/1999/xlink">
    <!-- Generator: Sketch 50.2 (55047) - http://www.bohemiancoding.com/sketch -->
    <title>cloudservices</title>
    <desc>Created with Sketch.</desc>
    <defs></defs>
    <g id="Page-1" stroke="none" stroke-width="1" fill="none" fill-rule="evenodd">
        <g id="cloudservices">
            <path d="M530.7,190.2 C530.7,147.1 500,109.9 457.6,101.8 L455,101.3 L454.7,98.7 C452.1,71.8 439.8,47 420,28.7 C400,10.3 374.1,0.2 346.9,0.2 C325.8,0.2 305.3,6.3 287.7,17.8 C270.6,29 257,44.8 248.4,63.4 L247.1,66.2 L244.1,65.3 C238.3,63.5 233.2,62.6 228.3,62.6 C199.3,62.6 175.7,86.2 175.7,115.3 C175.7,120.5 176.6,125.9 178.6,131.7 L179.5,134.4 L177,135.8 C152.7,150 138.2,174.9 138.2,202.6 C138.2,245.4 173,280.2 215.8,280.2 L219.3,280.2 L437,280.2 L440.5,280.2 C490.3,280.4 530.7,239.9 530.7,190.2 Z M209.3,269.5 C174.6,269.5 146.3,241.2 146.3,206.5 C146.3,184.1 158.1,163.9 177.8,152.4 C186.6,147.4 190.6,144.6 191.8,141.7 C193,138.8 191.4,134 188.1,125.7 L188,125.5 C186.6,121.3 185.9,117.6 185.9,114.2 C185.9,94.1 202.2,77.7 222.3,77.6 C223.6,77.5 232.3,77.2 241.6,80.9 C248.9,83.8 251.3,83.1 252.7,82.1 C255.1,80.4 257.1,75.9 259.9,69.7 L261,67.3 C276.7,33.4 310.8,11.5 347.8,11.5 C397.2,11.5 438,48.8 442.7,98.3 C443.4,106.7 443.8,111.3 445.7,113.4 C447.6,115.5 452.5,116.6 461.2,118.6 C497,125.5 522.9,156.8 522.9,193.2 C522.9,234 490.6,267.4 450.3,269.3 L450.3,269.4 L209.3,269.5 Z" id="Shape" fill="#4CADDB" fill-rule="nonzero"></path>
            <g id="Group" transform="translate(245.000000, 74.000000)" fill="#231F20" fill-rule="nonzero">
                <path d="M95.2,19.2 C97.1,19.7 99.1,18.6 99.6,16.7 C100.1,14.8 99,12.8 97.1,12.3 C95.2,11.8 93.2,12.9 92.7,14.8 C92.5,15.7 92.6,16.7 93.1,17.5 C93.5,18.4 94.2,19 95.2,19.2 Z" id="Path_269"></path>
                <path d="M73.8,22.7 C75.4,22.3 76.6,20.7 76.4,19 C76.2,17.3 75,15.9 73.3,15.7 C71.6,15.5 70,16.5 69.4,18.1 C68.9,19.7 69.5,21.5 71,22.3 C71.9,22.8 72.9,22.9 73.8,22.7 Z" id="Path_270"></path>
                <path d="M128.9,22.9 C130.5,24.5 133.2,24.5 134.8,22.9 C136.4,21.3 136.4,18.6 134.8,17 C133.2,15.4 130.5,15.4 128.9,17 C128.1,17.8 127.7,18.8 127.7,20 C127.7,21.2 128.1,22.1 128.9,22.9 Z" id="Path_280"></path>
                <path d="M104.8,9 C107,9.6 109.3,8.3 109.9,6 C110.5,3.8 109.2,1.5 106.9,0.9 C104.7,0.3 102.4,1.6 101.8,3.9 C101.5,5 101.7,6.1 102.2,7.1 C102.8,8 103.8,8.7 104.8,9 Z" id="Path_281"></path>
                <path d="M77,9 C78.9,8.5 80.2,6.7 80,4.7 C79.9,2.7 78.3,1.1 76.4,0.9 C74.5,0.7 72.6,1.8 71.9,3.7 C71.3,5.6 72,7.6 73.8,8.6 C74.8,9.2 76,9.3 77,9 Z" id="Path_282"></path>
                <path d="M47,22.9 C48.2,24.1 50,24.5 51.6,23.8 C53.2,23.1 54.2,21.6 54.2,19.9 C54.2,18.2 53.2,16.7 51.6,16 C50,15.3 48.2,15.7 47,16.9 C45.4,18.6 45.4,21.3 47,22.9 Z" id="Path_283"></path>
                <g transform="translate(0.000000, 20.000000)">
                    <polygon id="Path_233" points="13.5 135.8 13.5 123.8 13.4 123.8 9.2 135.8 7 135.8 2.8 123.8 2.7 123.8 2.7 135.8 0.5 135.8 0.5 121.3 4.1 121.3 8.1 132.8 8.2 132.8 12.2 121.3 16 121.3 16 135.8"></polygon>
                    <polygon id="Path_234" points="28.2 135.8 28.2 121.3 30.6 121.3 30.6 135.8"></polygon>
                    <path d="M52.1,135.7 C51.2,136.1 50.3,136.3 49.3,136.2 C48.3,136.2 47.3,136 46.4,135.6 C45.6,135.2 44.9,134.7 44.3,134 C43.7,133.3 43.3,132.5 43,131.6 C42.7,130.6 42.5,129.6 42.5,128.6 C42.5,127.6 42.7,126.5 43,125.6 C43.3,124.7 43.8,123.9 44.4,123.2 C45,122.5 45.7,122 46.5,121.6 C47.4,121.2 48.3,121 49.3,121 C50.2,121 51.1,121.1 52,121.4 C52.8,121.7 53.5,122.1 54,122.7 L52.5,124 C52.1,123.6 51.6,123.2 51.1,123 C50.6,122.8 50,122.7 49.4,122.7 C48.7,122.7 48.1,122.8 47.5,123.2 C47,123.5 46.5,124 46.2,124.5 C45.8,125.1 45.6,125.7 45.4,126.4 C45.2,127.1 45.1,127.9 45.1,128.7 C45.1,129.5 45.2,130.2 45.4,131 C45.6,131.7 45.8,132.3 46.2,132.9 C46.6,133.4 47,133.9 47.6,134.2 C48.2,134.5 48.9,134.7 49.5,134.7 C50.1,134.7 50.7,134.6 51.3,134.3 C51.8,134.1 52.2,133.7 52.5,133.3 L54,134.5 C53.4,134.9 52.8,135.3 52.1,135.7 Z" id="Path_235"></path>
                    <path d="M72.9,135.8 L69.7,129.3 L67.5,129.3 L67.5,135.8 L65.1,135.8 L65.1,121.3 L70,121.3 C70.7,121.3 71.3,121.4 72,121.5 C72.6,121.6 73.1,121.9 73.6,122.2 C74.1,122.5 74.4,122.9 74.7,123.4 C75,124 75.1,124.6 75.1,125.2 C75.1,125.7 75,126.3 74.8,126.7 C74.6,127.1 74.4,127.5 74,127.8 C73.7,128.1 73.3,128.3 73,128.5 C72.6,128.7 72.3,128.8 71.9,128.8 L75.5,135.6 L72.9,135.8 Z M72.7,125.4 C72.7,125 72.6,124.6 72.4,124.2 C72.2,123.9 72,123.6 71.7,123.4 C71.4,123.2 71.1,123.1 70.7,123 C70.3,122.9 69.9,122.9 69.6,122.9 L67.4,122.9 L67.4,128 L69.6,128 C70.4,128 71.2,127.8 71.8,127.3 C72.4,126.8 72.7,126.1 72.7,125.4 Z" id="Path_236"></path>
                    <path d="M99.1,128.6 C99.1,129.7 99,130.7 98.7,131.7 C98.4,132.6 98,133.4 97.4,134.1 C96.8,134.8 96.1,135.3 95.3,135.7 C93.5,136.4 91.6,136.4 89.8,135.7 C89,135.3 88.3,134.8 87.7,134.1 C87.1,133.4 86.7,132.6 86.4,131.7 C86.1,130.7 85.9,129.6 86,128.6 C86,127.6 86.1,126.5 86.4,125.5 C86.7,124.6 87.1,123.8 87.7,123.1 C88.3,122.4 89,121.9 89.8,121.6 C90.7,121.2 91.6,121 92.6,121.1 C93.5,121.1 94.5,121.3 95.4,121.6 C96.2,122 96.9,122.5 97.5,123.1 C98.1,123.8 98.5,124.6 98.8,125.5 C99,126.5 99.1,127.5 99.1,128.6 Z M96.6,128.6 C96.6,127.8 96.5,127 96.3,126.3 C96.2,125.6 95.9,125 95.5,124.4 C95.2,123.9 94.8,123.5 94.3,123.1 C93.8,122.8 93.2,122.6 92.6,122.6 C92,122.6 91.4,122.7 90.8,123.1 C90.3,123.4 89.9,123.8 89.5,124.4 C89.2,125 88.9,125.6 88.8,126.3 C88.5,127.8 88.5,129.4 88.8,130.9 C88.9,131.6 89.2,132.2 89.5,132.8 C89.8,133.3 90.2,133.7 90.8,134.1 C91.3,134.4 91.9,134.6 92.6,134.6 C93.2,134.6 93.8,134.5 94.3,134.1 C94.8,133.8 95.2,133.4 95.5,132.8 C95.9,132.2 96.1,131.6 96.3,130.9 C96.5,130.1 96.6,129.3 96.6,128.6 Z" id="Path_237"></path>
                    <polygon id="Path_238" points="120 135.8 112 121.9 111.9 121.9 111.9 135.8 111.4 135.8 111.4 121.3 112.3 121.3 120.3 135.3 120.4 135.3 120.4 121.3 121 121.3 121 135.8"></polygon>
                    <path d="M140.6,131.7 L133.9,131.7 L132.4,135.8 L131.8,135.8 L136.7,121.3 L137.7,121.3 L142.5,135.8 L142,135.8 L140.6,131.7 Z M134,131.3 L140.4,131.3 L137.3,121.6 L137.2,121.6 L134,131.3 Z" id="Path_239"></path>
                    <path d="M162.6,132.7 C162.5,133.3 162.2,134 161.8,134.5 C161.4,135 160.9,135.4 160.3,135.7 C158.8,136.3 157.1,136.3 155.6,135.7 C155,135.4 154.5,135 154.1,134.5 C153.7,134 153.4,133.4 153.3,132.7 C153.1,132 153.1,131.2 153.1,130.5 L153.1,121.3 L153.7,121.3 L153.7,130.3 C153.7,131 153.7,131.6 153.9,132.3 C154,132.9 154.2,133.5 154.5,134.1 C154.8,134.6 155.3,135.1 155.8,135.4 C157.2,136 158.9,136 160.3,135.4 C160.8,135.1 161.3,134.7 161.6,134.2 C161.9,133.7 162.1,133.1 162.2,132.5 C162.3,131.8 162.3,131.2 162.3,130.5 L162.3,121.5 L162.9,121.5 L162.9,130.7 C162.8,131.3 162.7,132 162.6,132.7 Z" id="Path_240"></path>
                    <polygon id="Path_241" points="177.6 121.7 177.6 135.8 177 135.8 177 121.7 173.2 121.7 173.2 121.3 181.4 121.3 181.4 121.7"></polygon>
                    <path d="M112.7,42.5 C113.8,42.8 114.9,42.3 115.4,41.3 C115.9,40.3 115.6,39.1 114.7,38.4 C113.8,37.7 112.6,37.8 111.7,38.5 C110.9,39.2 110.7,40.5 111.2,41.5 C111.5,41.9 112,42.3 112.7,42.5 Z" id="Path_242"></path>
                    <path d="M110.5,31.4 C111.4,31.2 112.1,30.4 112.2,29.4 C112.3,28.4 111.9,27.5 111,27 C110.2,26.5 109.1,26.6 108.4,27.2 C107.6,27.8 107.3,28.8 107.6,29.7 C108,31 109.3,31.7 110.5,31.4 Z" id="Path_243"></path>
                    <path d="M99.8,19.5 C99,20.3 98.9,21.6 99.5,22.5 C100.1,23.4 101.3,23.8 102.4,23.4 C103.4,23 104,21.9 103.8,20.7 C103.6,19.5 102.6,18.8 101.5,18.8 C100.9,18.8 100.3,19 99.8,19.5 Z" id="Path_244"></path>
                    <path d="M90.8,16.2 C89.5,15.9 88.2,16.6 87.9,17.9 C87.6,19.2 88.3,20.5 89.6,20.8 C90.9,21.1 92.2,20.4 92.5,19.1 C92.7,18.5 92.6,17.8 92.3,17.3 C92,16.8 91.4,16.4 90.8,16.2 Z" id="Path_245"></path>
                    <path d="M79.8,24.2 C80.7,24 81.4,23.2 81.5,22.2 C81.6,21.2 81.2,20.3 80.3,19.8 C79.5,19.3 78.4,19.4 77.7,20 C77,20.6 76.6,21.6 76.9,22.5 C77.2,23.8 78.5,24.5 79.8,24.2 Z" id="Path_246"></path>
                    <path d="M69.5,28.6 C68.7,29.4 68.6,30.6 69.2,31.6 C69.8,32.5 71,32.9 72.1,32.5 C73.2,32.1 73.7,31 73.5,29.9 C73.3,28.8 72.3,28 71.2,28 C70.6,27.9 70,28.2 69.5,28.6 Z" id="Path_247"></path>
                    <path d="M69.2,39.3 C68.3,39.1 67.3,39.4 66.7,40.1 C66.1,40.9 66,41.9 66.5,42.7 C67,43.5 67.9,44 68.9,43.9 C69.9,43.8 70.6,43.1 70.9,42.2 C71.2,41 70.5,39.7 69.2,39.3 Z" id="Path_248"></path>
                    <path d="M71.3,50.4 C70.4,50.6 69.7,51.4 69.6,52.4 C69.5,53.4 69.9,54.3 70.8,54.8 C71.6,55.3 72.7,55.2 73.4,54.6 C74.2,54 74.5,53 74.2,52.1 C73.9,50.8 72.6,50 71.3,50.4 Z" id="Path_249"></path>
                    <path d="M82,62.3 C82.8,61.5 82.9,60.2 82.3,59.3 C81.7,58.4 80.5,58 79.4,58.4 C78.3,58.8 77.8,59.9 78,61.1 C78.2,62.3 79.2,63 80.3,63 C81,63 81.6,62.7 82,62.3 Z" id="Path_250"></path>
                    <path d="M91,65.5 C91.9,65.7 92.9,65.4 93.5,64.7 C94.1,63.9 94.2,62.9 93.7,62.1 C93.2,61.3 92.3,60.8 91.3,60.9 C90.3,61 89.6,61.7 89.3,62.6 C89,63.9 89.7,65.2 91,65.5 Z" id="Path_251"></path>
                    <path d="M102.1,57.6 C101.2,57.8 100.5,58.6 100.4,59.6 C100.3,60.6 100.7,61.5 101.6,62 C102.4,62.5 103.5,62.4 104.2,61.8 C105,61.2 105.3,60.2 105,59.3 C104.6,58 103.3,57.3 102.1,57.6 Z" id="Path_252"></path>
                    <path d="M112.3,53.1 C113,52.4 113.2,51.4 112.8,50.5 C112.4,49.6 111.6,49 110.6,49 C109.6,49 108.8,49.6 108.4,50.5 C108,51.4 108.2,52.4 108.9,53.1 C109.9,54.1 111.4,54.1 112.3,53.1 Z" id="Path_253"></path>
                    <path d="M125.2,38.3 C123.9,38 122.6,38.6 122,39.8 C121.4,41 121.8,42.4 122.8,43.2 C123.8,44 125.3,43.9 126.3,43.1 C127.3,42.2 127.5,40.8 126.9,39.6 C126.6,38.9 126,38.5 125.2,38.3 Z" id="Path_254"></path>
                    <path d="M120.8,26.8 C122.1,26.5 122.9,25.3 122.8,23.9 C122.7,22.6 121.7,21.5 120.4,21.4 C119.1,21.3 117.9,22 117.4,23.3 C117,24.5 117.5,25.9 118.6,26.6 C119.3,26.9 120.1,27 120.8,26.8 Z" id="Path_255"></path>
                    <path d="M105.8,13.8 C106.7,14.7 108.2,14.9 109.3,14.1 C110.4,13.4 110.8,12 110.3,10.7 C109.8,9.5 108.5,8.8 107.2,9.1 C105.9,9.4 105,10.5 105,11.8 C105,12.6 105.3,13.3 105.8,13.8 Z" id="Path_256"></path>
                    <path d="M90.3,10 C91.6,10.3 92.9,9.7 93.5,8.5 C94.1,7.3 93.7,5.9 92.7,5.1 C91.7,4.3 90.2,4.4 89.2,5.2 C88.2,6 88,7.5 88.6,8.7 C89,9.3 89.6,9.8 90.3,10 Z" id="Path_257"></path>
                    <path d="M73.5,9 C72.2,9.4 71.4,10.6 71.5,11.9 C71.6,13.2 72.6,14.3 73.9,14.4 C75.2,14.6 76.4,13.8 76.9,12.5 C77.3,11.2 76.8,9.9 75.6,9.2 C74.9,8.9 74.2,8.8 73.5,9 Z" id="Path_258"></path>
                    <path d="M59.9,26 C60.8,26.9 62.3,27.1 63.4,26.3 C64.5,25.6 64.9,24.2 64.4,22.9 C63.9,21.7 62.6,21 61.3,21.3 C60,21.6 59.1,22.7 59.1,24 C59.1,24.7 59.4,25.5 59.9,26 Z" id="Path_259"></path>
                    <path d="M56.6,43.5 C57.9,43.8 59.2,43.2 59.8,42 C60.4,40.8 60,39.4 59,38.6 C58,37.8 56.5,37.9 55.5,38.7 C54.5,39.5 54.3,41 54.9,42.2 C55.3,42.8 55.9,43.3 56.6,43.5 Z" id="Path_260"></path>
                    <path d="M61.1,54.9 C59.8,55.2 59,56.4 59.1,57.8 C59.2,59.2 60.2,60.2 61.5,60.3 C62.8,60.5 64,59.7 64.5,58.4 C64.9,57.2 64.4,55.8 63.3,55.1 C62.5,54.8 61.8,54.7 61.1,54.9 Z" id="Path_261"></path>
                    <path d="M76,68 C75.1,67.1 73.6,66.9 72.5,67.7 C71.4,68.4 71,69.8 71.5,71.1 C72,72.3 73.3,73 74.6,72.7 C75.9,72.4 76.8,71.3 76.8,70 C76.8,69.2 76.5,68.5 76,68 Z" id="Path_262"></path>
                    <path d="M91.6,71.8 C90.3,71.5 89,72.1 88.4,73.3 C87.8,74.5 88.2,75.9 89.2,76.7 C90.2,77.5 91.7,77.4 92.7,76.6 C93.7,75.7 93.9,74.3 93.3,73.1 C92.9,72.4 92.3,72 91.6,71.8 Z" id="Path_263"></path>
                    <path d="M108.4,72.7 C109.7,72.4 110.5,71.2 110.4,69.8 C110.3,68.5 109.3,67.4 108,67.3 C106.7,67.1 105.5,67.9 105,69.2 C104.6,70.4 105.1,71.8 106.2,72.5 C106.9,72.8 107.7,72.9 108.4,72.7 Z" id="Path_264"></path>
                    <path d="M121.9,55.8 C121,54.9 119.5,54.7 118.4,55.5 C117.3,56.2 116.9,57.6 117.4,58.9 C117.9,60.1 119.2,60.8 120.5,60.5 C121.8,60.2 122.7,59.1 122.7,57.8 C122.8,57 122.5,56.3 121.9,55.8 Z" id="Path_265"></path>
                    <path d="M135.1,49.5 C136.5,49.9 138,49.4 138.9,48.2 C139.8,47 139.9,45.5 139.2,44.2 C138.5,42.9 137.1,42.2 135.6,42.4 C134.1,42.6 133,43.6 132.6,45 C132.1,47.1 133.2,49 135.1,49.5 Z" id="Path_266"></path>
                    <path d="M136,21.9 C135.5,20 133.5,18.9 131.6,19.4 C129.7,19.9 128.6,21.9 129.1,23.8 C129.6,25.7 131.6,26.8 133.5,26.3 C134.4,26.1 135.2,25.5 135.7,24.6 C136.2,23.7 136.3,22.8 136,21.9 Z" id="Path_267"></path>
                    <path d="M120.5,1.9 C119.5,0.9 117.9,0.6 116.6,1.1 C115.3,1.7 114.4,3 114.4,4.4 C114.4,5.9 115.3,7.2 116.6,7.7 C117.9,8.3 119.5,7.9 120.5,6.9 C121.9,5.5 121.9,3.3 120.5,1.9 Z" id="Path_268"></path>
                    <path d="M57,11.3 C55.8,10.1 53.9,9.9 52.5,10.9 C51.1,11.9 50.5,13.7 51.2,15.2 C51.9,16.8 53.5,17.7 55.2,17.3 C56.9,17 58.1,15.5 58.1,13.8 C58,12.9 57.7,12 57,11.3 Z" id="Path_271"></path>
                    <path d="M46.7,32.2 C44.8,31.7 42.8,32.8 42.3,34.7 C41.8,36.6 42.9,38.6 44.8,39.1 C46.7,39.6 48.7,38.5 49.2,36.6 C49.4,35.7 49.3,34.7 48.8,33.9 C48.4,33.1 47.7,32.5 46.7,32.2 Z" id="Path_272"></path>
                    <path d="M48.3,55.5 C46.7,55.9 45.5,57.5 45.7,59.2 C45.8,60.9 47.1,62.3 48.8,62.5 C50.5,62.7 52.1,61.7 52.7,60.1 C53.2,58.5 52.6,56.7 51.1,55.9 C50.2,55.4 49.3,55.2 48.3,55.5 Z" id="Path_273"></path>
                    <path d="M66.4,74.8 C65.2,73.6 63.3,73.4 61.9,74.4 C60.5,75.4 59.9,77.2 60.6,78.7 C61.3,80.3 62.9,81.2 64.6,80.8 C66.3,80.5 67.5,79 67.5,77.3 C67.5,76.4 67.1,75.5 66.4,74.8 Z" id="Path_274"></path>
                    <path d="M86.7,82.5 C85.3,82.1 83.8,82.6 82.9,83.8 C82,85 81.9,86.5 82.6,87.8 C83.3,89.1 84.7,89.8 86.2,89.6 C87.6,89.4 88.8,88.4 89.2,87 C89.7,85 88.6,83 86.7,82.5 Z" id="Path_275"></path>
                    <path d="M108.1,79.1 C106.2,79.6 105.1,81.6 105.6,83.5 C106.1,85.4 108.1,86.5 110,86 C111.9,85.5 113,83.5 112.5,81.6 C112.3,80.7 111.7,79.9 110.8,79.4 C110,79 109,78.8 108.1,79.1 Z" id="Path_276"></path>
                    <path d="M129.9,70.5 C130.9,69.5 131.2,67.9 130.7,66.6 C130.1,65.3 128.8,64.4 127.4,64.4 C125.9,64.4 124.6,65.3 124.1,66.6 C123.5,67.9 123.9,69.5 124.9,70.5 C126.3,71.9 128.5,71.9 129.9,70.5 Z" id="Path_277"></path>
                    <path d="M147.9,51.8 C145.7,51.2 143.4,52.5 142.8,54.8 C142.2,57 143.5,59.3 145.8,59.9 C148,60.5 150.3,59.2 150.9,56.9 C151.2,55.8 151,54.7 150.5,53.7 C149.9,52.8 149,52.1 147.9,51.8 Z" id="Path_278"></path>
                    <path d="M147.9,29.9 C149.8,29.4 151.1,27.6 150.9,25.6 C150.7,23.6 149.2,22 147.3,21.8 C145.3,21.6 143.5,22.7 142.9,24.6 C142.3,26.5 143,28.5 144.8,29.5 C145.7,30.1 146.8,30.2 147.9,29.9 Z" id="Path_279"></path>
                    <path d="M36.1,21.9 C34.2,21.4 32.2,22.3 31.3,24.1 C30.4,25.9 30.9,28 32.5,29.2 C34.1,30.4 36.3,30.3 37.7,29 C39.2,27.7 39.5,25.5 38.5,23.8 C38.1,22.8 37.2,22.1 36.1,21.9 Z" id="Path_284"></path>
                    <path d="M33.9,51.8 C32,52.3 30.7,54.1 30.9,56.1 C31,58.1 32.6,59.7 34.5,59.9 C36.5,60.1 38.3,59 39,57.1 C39.6,55.2 38.9,53.2 37.1,52.2 C36.2,51.7 35,51.5 33.9,51.8 Z" id="Path_285"></path>
                    <path d="M53,78.8 C51.4,77.2 48.7,77.2 47.1,78.8 C45.5,80.4 45.5,83.1 47.1,84.7 C48.7,86.3 51.4,86.3 53,84.7 C53.8,83.9 54.2,82.9 54.2,81.7 C54.2,80.7 53.7,79.6 53,78.8 Z" id="Path_286"></path>
                    <path d="M77,92.7 C74.8,92.1 72.5,93.4 71.9,95.7 C71.3,98 72.6,100.2 74.9,100.8 C77.1,101.4 79.4,100.1 80,97.9 C80.3,96.8 80.1,95.7 79.6,94.7 C79,93.7 78.1,93 77,92.7 Z" id="Path_287"></path>
                    <path d="M104.8,92.7 C102.6,93.3 101.3,95.6 101.9,97.8 C102.5,100 104.8,101.3 107,100.7 C109.2,100.1 110.5,97.9 109.9,95.6 C109.6,94.5 108.9,93.6 108,93.1 C107,92.6 105.9,92.4 104.8,92.7 Z" id="Path_288"></path>
                    <path d="M134.8,78.8 C133.2,77.2 130.5,77.2 128.9,78.8 C127.3,80.4 127.3,83.1 128.9,84.7 C130.5,86.3 133.2,86.3 134.8,84.7 C135.6,83.9 136,82.9 136,81.7 C136,80.7 135.6,79.6 134.8,78.8 Z" id="Path_289"></path>
                    <path d="M103.4,43.4 C102.4,44.4 101.5,45.3 100.5,46.2 C99.8,46.9 99,47.5 98.2,48.1 C97,48.9 95.6,49 94.3,48.5 C93.3,48.2 92.5,47.3 92.4,46.2 C91,47.3 89.7,48.7 87.7,48.8 C87.5,49.6 87.4,50.3 87.2,51.1 C87.1,51.4 87,51.8 87,52.1 C87,52.6 86.7,52.8 86.2,52.9 C85,53.1 82.4,53.8 82.2,53.8 C83.7,47 85.1,40.2 86.5,33.5 L90.9,33.5 C90.7,34.6 88.6,44.3 88.6,44.4 C88.5,45.6 89.2,46.2 90.3,45.9 C90.9,45.6 91.5,45.3 92.1,44.9 C92.2,44.9 92.2,44.7 92.2,44.5 C93,40.9 93.7,37.3 94.5,33.7 C94.5,33.6 94.5,33.5 94.6,33.4 L99,33.4 C98.8,34.5 97.3,41.6 96.8,44.1 C96.8,44.3 96.7,44.5 96.8,44.7 C96.8,45.2 97.1,45.7 97.7,45.8 C98.2,45.9 98.7,45.9 99.2,45.6 C99.7,45.3 100.1,45 100.6,44.7 C101.1,44.4 101.5,44 101.9,43.6 C102.3,43.4 102.9,43.2 103.4,43.4 Z" id="Path_290"></path>
                </g>
            </g>
            <g id="Group" transform="translate(0.000000, 319.000000)">
                <g transform="translate(0.000000, 10.000000)" fill-rule="nonzero">
                    <path d="M32.7,40.5 C28.8,40.5 25.7,37.4 25.7,33.5 C25.7,29.6 28.8,26.5 32.7,26.5 C36.6,26.5 39.7,29.6 39.7,33.5 C39.7,35.4 39,37.1 37.7,38.4 C36.4,39.8 34.6,40.5 32.7,40.5" id="Shape" fill="#961D59"></path>
                    <path d="M46.7,36.8 C44.9,36.8 43.4,35.3 43.4,33.5 C43.4,31.7 44.9,30.2 46.7,30.2 C48.5,30.2 50,31.7 50,33.5 C50,35.4 48.5,36.8 46.7,36.8" id="Shape_1_" fill="#D62783"></path>
                    <path d="M58.7,39.8 C58.2,41.4 56.5,42.4 54.9,41.9 C53.3,41.5 52.3,39.8 52.7,38.1 C53.1,36.5 54.8,35.4 56.4,35.8 C58.1,36.2 59.1,37.8 58.8,39.5 C58.8,39.6 58.8,39.7 58.7,39.8" id="Shape_2_" fill="#D62783"></path>
                    <path d="M56.3,31.6 C55,31.9 53.6,31.4 52.8,30.3 C52,29.2 52,27.8 52.7,26.6 C53.4,25.5 54.7,24.9 56.1,25.1 C57.4,25.3 58.5,26.3 58.8,27.6 C58.9,28 58.9,28.5 58.8,28.9 C58.6,30.3 57.6,31.3 56.3,31.6" id="Shape_3_" fill="#D62783"></path>
                    <path d="M67.9,39.6 C67.7,40.9 66.7,42 65.4,42.3 C64.1,42.6 62.8,42.1 62,41 C61.2,39.9 61.2,38.4 61.9,37.3 C62.6,36.2 63.9,35.6 65.2,35.8 C66.9,36.1 68.1,37.6 67.9,39.3 C68,39.4 67.9,39.5 67.9,39.6" id="Shape_4_" fill="#D62783"></path>
                    <path d="M65.3,31.3 C64,31.5 62.6,30.9 61.9,29.8 C61.2,28.7 61.2,27.2 62,26.1 C62.8,25 64.1,24.5 65.5,24.8 C66.8,25.1 67.8,26.2 68,27.5 C68,27.8 68,28.1 68,28.3 C67.8,29.8 66.7,31 65.3,31.3" id="Shape_5_" fill="#D62783"></path>
                    <path d="M63.2,50.6 C62.4,52.1 60.6,52.7 59,52 C57.4,51.3 56.6,49.6 57.1,48 C57.6,46.4 59.2,45.4 60.9,45.7 C62.6,46 63.7,47.5 63.6,49.2 C63.6,49.7 63.4,50.2 63.2,50.6" id="Shape_6_" fill="#D62783"></path>
                    <path d="M61.9,21 C60.7,21.7 59.3,21.5 58.2,20.7 C57.1,19.9 56.7,18.5 57.1,17.2 C57.5,15.9 58.6,15 59.9,14.8 C61.2,14.6 62.5,15.3 63.2,16.5 C63.5,17.1 63.7,17.8 63.6,18.5 C63.5,19.5 62.9,20.5 61.9,21" id="Shape_7_" fill="#D62783"></path>
                    <path d="M33.1,66.2 C15,66.2 0.4,51.6 0.4,33.5 C0.4,15.4 15,0.8 33.1,0.8 C40.3,0.8 47.3,3.1 53,7.5 L49,12.8 C41.1,6.8 30.5,5.7 21.6,10.1 C12.7,14.5 7,23.5 7,33.5 C7,43.4 12.7,52.5 21.6,56.9 C30.5,61.3 41.2,60.3 49.1,54.2 L53.1,59.4 C47.2,63.9 40.3,66.3 33.1,66.2 Z" id="Shape_8_" fill="#D62783"></path>
                </g>
                <g transform="translate(476.000000, 22.000000)" fill-rule="nonzero">
                    <path d="M74.1,22.1 C75.3,22.2 76.5,22.3 77.7,22.5 L80.3,16 L82.8,23.1 C84.1,23.3 85.4,23.4 86.7,23.6 L82.3,11.1 L86.7,0.2 L83,0.2 L83,0.3 L80.6,6.2 L78.5,0.2 L74.8,0.2 L78.6,11 L74.1,22.1 Z M71.4,21.8 L71.4,0.2 L67.7,0.2 L67.7,21.5 C68.9,21.6 70.1,21.7 71.4,21.8 Z M43.7,20.6 C44.7,20.6 45.7,20.6 46.7,20.6 L46.7,12.7 L51.1,12.7 L51.1,9.3 L46.7,9.3 L46.7,3.5 L51.8,3.5 L51.8,0.1 L43,0.1 L43,20.5 C43.2,20.6 43.5,20.6 43.7,20.6 Z M32.3,20.8 C33.5,20.8 34.8,20.7 36,20.7 L36,3.6 L39.4,3.6 L39.4,0.2 L28.8,0.2 L28.8,3.6 L32.2,3.6 L32.3,20.8 Z M4.1,23.1 L4.1,10.2 L8.5,22.6 C9.8,22.4 11.2,22.3 12.5,22.2 L12.5,0.2 L9,0.2 L9,13.5 L4.3,0.2 L0.6,0.2 L0.6,23.6 C1.8,23.4 2.9,23.3 4.1,23.1 Z M25.3,3.6 L25.3,0.2 L16.5,0.2 L16.5,21.8 C19.4,21.6 22.4,21.3 25.3,21.2 L25.3,17.8 C23.6,17.9 21.9,18 20.2,18.1 L20.2,12.7 L24.6,12.7 L24.6,9.3 L20.2,9.3 L20.2,3.6 L25.3,3.6 Z M59,17.6 L59,0.2 L55.3,0.2 L55.3,20.8 C58.2,20.9 61.2,21 64.1,21.3 L64.1,17.9 C62.5,17.8 60.8,17.7 59,17.6 Z" id="Shape_9_" fill="#EC1B30"></path>
                    <polygon id="Shape_10_" fill="#65717F" points="1.1 29.3 11.2 29.3 11.2 31.9 4 31.9 4 34.6 10.3 34.6 10.3 37.2 4 37.2 4 40.1 11.3 40.1 11.3 42.7 1.1 42.7"></polygon>
                    <path d="M14.7,36.9 L14.7,29.3 L17.6,29.3 L17.6,36.9 C17.6,39.1 18.7,40.2 20.5,40.2 C22.3,40.2 23.4,39.1 23.4,37 L23.4,29.3 L26.3,29.3 L26.3,36.8 C26.3,40.8 24,42.8 20.4,42.8 C16.9,42.9 14.7,40.9 14.7,36.9 Z" id="Shape_11_" fill="#65717F"></path>
                    <path d="M30.3,29.3 L36.4,29.3 C38.1,29.3 39.4,29.8 40.3,30.6 C41,31.3 41.4,32.4 41.4,33.7 C41.4,35.8 40.2,37.2 38.5,37.8 L41.8,42.6 L38.4,42.6 L35.5,38.3 L33.2,38.3 L33.2,42.6 L30.3,42.6 L30.3,29.3 Z M36.2,35.8 C37.6,35.8 38.5,35 38.5,33.9 C38.5,32.6 37.6,32 36.2,32 L33.3,32 L33.3,35.8 L36.2,35.8 Z" id="Shape_12_" fill="#65717F"></path>
                    <polygon id="Shape_13_" fill="#65717F" points="45.1 29.3 55.2 29.3 55.2 31.9 48 31.9 48 34.6 54.3 34.6 54.3 37.2 48 37.2 48 40.1 55.2 40.1 55.2 42.7 45.1 42.7"></polygon>
                    <polygon id="Shape_14_" fill="#65717F" points="58.8 29.3 61.8 29.3 61.8 35.1 67.2 29.3 70.8 29.3 65.3 35 71 42.7 67.5 42.7 63.3 37 61.8 38.5 61.8 42.6 58.8 42.6"></polygon>
                    <path d="M78,29.2 L80.7,29.2 L86.4,42.7 L83.3,42.7 L82.1,39.7 L76.4,39.7 L75.2,42.7 L72.2,42.7 L78,29.2 Z M81.1,37.1 L79.3,32.7 L77.5,37.1 L81.1,37.1 Z" id="Shape_15_" fill="#65717F"></path>
                </g>
                <g transform="translate(107.000000, 0.000000)">
                    <path d="M73.7,65.8 C73.7,65.9 73.6,66 73.6,66.1 C73.3,66.8 72.9,67.4 72.4,67.9 C71.3,68.9 70.4,69.5 69.5,69.7 C74.2,69 76.9,68.2 76.9,67.4 C76.9,66.8 75.7,66.2 73.7,65.8 Z" id="Shape_29_" fill="#DFCAA3" fill-rule="nonzero"></path>
                    <g>
                        <path d="M46.8,34.8 C45.7,34.1 44.4,33.7 43,33.7 C38.9,33.7 35.6,37 35.6,41.1 C35.6,43.8 37,46.1 39.1,47.4 C40.2,48.1 41.5,48.5 42.9,48.5 C47,48.5 50.3,45.2 50.3,41.1 C50.4,38.4 48.9,36.1 46.8,34.8 Z" id="Shape_16_"></path>
                        <path d="M27.6,46.4 C27.6,43.7 26.2,41.4 24.1,40.1 C23,39.4 21.7,39 20.3,39 C16.2,39 12.9,42.3 12.9,46.4 C12.9,49.1 14.3,51.4 16.4,52.7 C17.5,53.4 18.8,53.8 20.2,53.8 C24.3,53.8 27.6,50.5 27.6,46.4 Z" id="Shape_17_"></path>
                        <path d="M30,60.8 C30.4,61.6 31,62.3 31.7,62.3 C31.8,62.3 32,62.3 32.1,62.2 C32.8,61.9 32.8,60.7 32.7,59.5 C31.7,59.9 30.8,60.4 30,60.8 Z" id="Shape_18_" fill="#67CFE3" fill-rule="nonzero"></path>
                        <path d="M65.2,64.9 C65.2,64.9 65.2,64.8 65.2,64.9 C64.9,62.7 64,61.7 63.2,60.9 C62.4,60.1 61.7,59.3 62,57.9 C62.2,56.6 63.2,55.8 64.9,55.6 C63.9,48.8 62.4,40.1 60.5,32.8 C59.5,29.1 58.1,26.6 56,24.9 C53.7,26.1 50.9,27.4 47.8,28.7 C45.6,29.7 43.3,30.6 41.1,31.5 C39.3,33.4 37.4,35.3 36.2,35.8 C35.3,36.2 34.6,36.3 33.9,36.3 C32.5,36.3 31.5,35.6 31.1,35 C30.6,35.1 30.1,35.2 29.8,35.3 C29.4,35.3 28.9,35.4 28.3,35.4 C28.5,36 28.4,36.8 28,37.4 C27.5,38 26.7,38.3 25.5,38.3 C23.8,38.3 21.4,37.6 18.1,36.3 C17.6,36.1 17.2,35.9 16.8,35.8 C16.6,35.8 16.3,35.8 16.1,35.8 C13,35.8 10.6,35.7 8.7,35.6 C6.6,39.9 7.5,44.7 8.3,48.6 C9,52.4 11.6,59.1 13.9,64.9 C14.8,67.1 15.6,69.1 16.3,70.7 C22.6,71.3 30.8,71.6 39.7,71.6 C50.3,71.6 59.8,71.1 66.5,70.4 C65.9,68.4 65.3,65.6 65.2,64.9 Z M16.4,52.7 C14.3,51.4 12.9,49.1 12.9,46.4 C12.9,42.3 16.2,39 20.3,39 C21.7,39 23,39.4 24.1,40.1 C26.2,41.4 27.6,43.7 27.6,46.4 C27.6,50.5 24.3,53.8 20.2,53.8 C18.8,53.8 17.5,53.4 16.4,52.7 Z M42,58.8 C41.2,59.1 40.1,59.3 38.4,59.3 C38.4,59.5 38.4,59.6 38.4,59.7 C38.5,60.7 38.2,61.5 37.7,62.1 C37.2,62.6 36.5,62.9 35.7,62.9 C35.3,62.9 35,62.8 34.7,62.7 C34.4,62.6 34.1,62.4 33.9,62.1 C33.7,62.8 33.3,63.2 32.7,63.5 C32.4,63.6 32.1,63.7 31.8,63.7 C30.7,63.7 29.8,63 29,61.5 C28.9,61.6 28.8,61.6 28.7,61.7 C28.2,62 27.5,62.1 26.9,62.1 C25.6,62.1 24.4,61.6 23.7,60.7 C23.1,60 22.8,59.1 23,58.2 C23.4,55.4 27.1,54.2 27.5,54.1 L28.4,53.9 L29,54.6 C29.1,54.7 29.5,55.1 31.1,55.1 C31.7,55.1 32.4,55 33.2,54.9 C35.8,54.5 36.7,52.4 36.8,52.3 L37.2,51.5 L38.1,51.5 C43.6,51.6 44.5,54 44.6,54.7 C44.7,56.5 43.8,58 42,58.8 Z M43,48.4 C41.6,48.4 40.3,48 39.2,47.3 C37.1,46 35.7,43.7 35.7,41 C35.7,36.9 39,33.6 43.1,33.6 C44.5,33.6 45.8,34 46.9,34.7 C49,36 50.4,38.3 50.4,41 C50.4,45.1 47.1,48.4 43,48.4 Z" id="Shape_19_" fill="#67CFE3" fill-rule="nonzero"></path>
                        <path d="M37.8,52.9 C37.8,52.9 36.6,55.7 33.2,56.3 C32.3,56.4 31.6,56.5 30.9,56.5 C29.1,56.5 28.2,56 27.7,55.5 C27.7,55.5 24.4,56.4 24.2,58.5 C24,60 25.5,60.8 26.8,60.8 C27.2,60.8 27.7,60.7 28,60.5 C29.3,59.8 31.3,58.3 33.9,57.9 C34.1,57.9 34.5,57.9 34.9,57.9 C35.8,57.9 37,58 38.2,58 C39.5,58 40.8,57.9 41.6,57.6 C43.2,56.9 43.2,55.7 43.1,55.1 C42.9,54.3 41.9,52.9 37.8,52.9 Z" id="Shape_20_" fill="#67CFE3" fill-rule="nonzero"></path>
                        <path d="M37.1,59.3 C36.8,59.3 36.5,59.3 36.2,59.3 C35.7,59.3 35.2,59.3 34.8,59.3 C34.5,59.3 34.2,59.3 34,59.3 C34.3,60.4 34.7,61.4 35.1,61.6 C35.2,61.6 35.4,61.7 35.7,61.7 C36.4,61.7 37.3,61.4 37.1,59.9 C37.1,59.6 37.1,59.5 37.1,59.3 Z" id="Shape_21_" fill="#67CFE3" fill-rule="nonzero"></path>
                        <path d="M8.5,28.7 C8.5,28.7 8.5,28.5 8.4,28.3 C8.3,28 8.3,27.6 8.2,27.2 C8.2,27 8.1,26.7 8.1,26.5 C8.1,26.3 8.1,26 8.1,25.8 C8.1,25.7 8.2,25.6 8.2,25.6 C8.2,25.6 8.3,25.6 8.3,25.5 L8.4,25.5 C8.5,25.5 8.5,25.6 8.6,25.6 C8.8,25.7 9,25.9 9.1,26.2 C9.3,26.4 9.4,26.6 9.6,26.9 C9.9,27.3 10.2,27.8 10.5,28.2 C10.8,28.6 11,28.9 11.1,29.1 C11.3,29.3 11.4,29.4 11.4,29.4 C11.4,29.4 11.4,29.4 11.4,29.3 C11.4,29.2 11.4,29.1 11.3,29 C11.2,28.7 11.2,28.3 11,27.9 C10.9,27.5 10.7,26.9 10.4,26.4 C10.3,26.1 10.1,25.9 9.9,25.6 C9.7,25.3 9.5,25.1 9.2,24.8 C9,24.7 8.9,24.6 8.6,24.5 C8.5,24.5 8.5,24.5 8.4,24.5 L8.3,24.5 L8.2,24.5 C8.1,24.5 8.1,24.5 8.1,24.5 L8,24.5 L7.9,24.5 L7.8,24.5 L7.7,24.5 C7.5,24.6 7.3,24.8 7.2,25 C7.1,25.2 7,25.4 7,25.6 C7,26 7,26.3 7.1,26.6 C7.2,26.9 7.3,27.1 7.4,27.4 C7.6,27.8 7.8,28.2 8,28.4 C8.3,28.5 8.4,28.6 8.5,28.7 Z" id="Shape_22_"></path>
                        <path d="M52.4,16.3 L52.3,16.1 C52.2,16 52,15.8 51.9,15.8 L51.8,15.8 L51.7,15.8 L51.6,15.7 C51.5,15.7 51.4,15.6 51.3,15.6 C51.2,15.6 51.1,15.6 51,15.6 C50.9,15.6 50.8,15.6 50.7,15.6 C50.2,15.7 49.8,15.9 49.5,16.2 C49.2,16.5 49,16.8 48.8,17.1 C48.4,17.7 48.2,18.3 48.1,18.8 C48,19.3 47.9,19.8 47.9,20.1 C47.9,20.3 47.9,20.4 47.9,20.5 C47.9,20.6 47.9,20.6 47.9,20.6 C47.9,20.6 48,20.4 48.1,20.2 C48.2,20 48.5,19.5 48.7,19.1 C48.9,18.7 49.3,18.2 49.6,17.7 C49.8,17.5 50,17.3 50.2,17.1 C50.4,16.9 50.7,16.8 50.9,16.8 C51,16.8 51,16.8 51.1,16.8 C51.2,16.8 51.2,16.8 51.3,16.8 C51.4,16.8 51.4,16.8 51.5,16.8 L51.6,16.8 L51.7,16.8 C51.7,16.9 51.8,17 51.8,17.1 C51.8,17.4 51.8,17.6 51.7,17.9 C51.6,18.2 51.6,18.4 51.5,18.7 C51.4,19.2 51.3,19.6 51.2,19.9 C51.1,20.2 51.1,20.4 51.1,20.4 C51.1,20.4 51.2,20.3 51.4,20 C51.6,19.8 51.9,19.4 52.1,18.9 C52.2,18.7 52.4,18.4 52.5,18.1 C52.6,17.8 52.7,17.5 52.8,17.1 C52.8,16.9 52.8,16.7 52.7,16.4 C52.5,16.4 52.4,16.3 52.4,16.3 Z" id="Shape_23_"></path>
                        <path d="M12.6,46.5 C12.6,42.4 15.9,39 19.9,39 C21.3,39 22.6,39.4 23.7,40.1 C22.6,39.4 21.3,39 19.9,39 C15.9,39.1 12.6,42.4 12.6,46.5 C12.6,49.2 14,51.6 16.1,52.9 C14,51.6 12.6,49.2 12.6,46.5 Z" id="Shape_24_"></path>
                        <path d="M39.2,47.5 C37.1,46.2 35.7,43.8 35.7,41.1 C35.7,37 39,33.6 43,33.6 C44.4,33.6 45.7,34 46.8,34.7 C45.7,34 44.4,33.6 43,33.6 C39,33.6 35.7,36.9 35.7,41.1 C35.7,43.8 37.1,46.2 39.2,47.5 Z" id="Shape_25_"></path>
                        <path d="M19.9,78.4 C18.6,78.7 14.9,80.8 11.7,81.4 C8.5,82 5.7,82.4 4.7,82.7 C3.7,83.1 3,83.8 4.9,84.5 C6.8,85.2 16.1,85.5 16.9,84.5 C17.7,83.5 16.3,83.1 14.3,83.1 C12.9,83.1 13,82.6 13,82.6 C13,82.6 13.1,81.9 15.3,81.6 C17.5,81.3 27.3,80.3 27.1,79.3 C27.1,78.3 21.2,78.1 19.9,78.4 Z" id="Shape_26_" fill="#DFCAA3" fill-rule="nonzero"></path>
                        <ellipse id="Oval" fill="#DFCAA3" fill-rule="nonzero" transform="translate(13.387460, 86.183480) rotate(-12.275241) translate(-13.387460, -86.183480) " cx="13.38746" cy="86.18348" rx="1.89992701" ry="1"></ellipse>
                        <ellipse id="Oval_1_" fill="#DFCAA3" fill-rule="nonzero" transform="translate(8.986885, 85.778979) rotate(-4.552403) translate(-8.986885, -85.778979) " cx="8.98688463" cy="85.7789787" rx="2.09990487" ry="1"></ellipse>
                        <ellipse id="Oval_2_" fill="#DFCAA3" fill-rule="nonzero" transform="translate(5.485800, 85.580680) rotate(-7.758973) translate(-5.485800, -85.580680) " cx="5.4858" cy="85.58068" rx="1.29994126" ry="1"></ellipse>
                        <ellipse id="Oval_3_" fill="#DFCAA3" fill-rule="nonzero" transform="translate(2.792920, 85.190360) rotate(-8.262182) translate(-2.792920, -85.190360) " cx="2.79292" cy="85.19036" rx="1.2999726" ry="1"></ellipse>
                        <ellipse id="Oval_4_" fill="#DFCAA3" fill-rule="nonzero" transform="translate(1.992180, 84.389840) rotate(-8.262182) translate(-1.992180, -84.389840) " cx="1.99218" cy="84.38984" rx="1.2999726" ry="1"></ellipse>
                        <ellipse id="Oval_5_" fill="#DFCAA3" fill-rule="nonzero" transform="translate(2.192610, 83.691280) rotate(-8.262182) translate(-2.192610, -83.691280) " cx="2.19261" cy="83.69128" rx="1.19997471" ry="1"></ellipse>
                        <path d="M39.1,79.4 C36.9,79.5 31.8,79.3 31.2,80.4 C30.5,81.6 33.2,82 37.5,81.6 C41.8,81.2 47.9,80.8 48.1,79.5 C48.4,78.2 47,78.4 46.8,77.6 C46.7,76.8 48.3,76.8 48.7,75.5 C49,74.3 46.4,74.4 44.1,74.4 C41.8,74.4 38,74.6 37.6,75.8 C37.2,77 39.3,77 40.9,77.3 C42.4,77.6 42,78.1 42,78.1 C41.9,79 41.4,79.3 39.1,79.4 Z" id="Shape_27_" fill="#DFCAA3" fill-rule="nonzero"></path>
                        <ellipse id="Oval_6_" fill="#DFCAA3" fill-rule="nonzero" cx="33" cy="82.7" rx="1.9" ry="1"></ellipse>
                        <ellipse id="Oval_7_" fill="#DFCAA3" fill-rule="nonzero" cx="38.2" cy="82.3" rx="1.3" ry="1"></ellipse>
                        <ellipse id="Oval_8_" fill="#DFCAA3" fill-rule="nonzero" cx="42" cy="82.1" rx="1.3" ry="1"></ellipse>
                        <circle id="Oval_9_" fill="#DFCAA3" fill-rule="nonzero" cx="45.1" cy="81.4" r="1"></circle>
                        <circle id="Oval_10_" fill="#DFCAA3" fill-rule="nonzero" cx="47.8" cy="81" r="1"></circle>
                        <path d="M3,67.7 C3,68.3 4.3,68.9 6.8,69.4 C6.6,68.2 6.7,66.9 6.9,65.9 C4.4,66.5 3,67.1 3,67.7 Z" id="Shape_28_" fill="#DFCAA3" fill-rule="nonzero"></path>
                        <path d="M11,72.5 C12.8,72.5 14,71.6 14.9,70.3 C13.9,68 12.3,64.2 10.7,60.2 C10.3,60.6 9.8,61.1 9.3,61.9 C8,63.9 6.9,68.5 8.3,71 C8.8,72 9.7,72.5 11,72.5 Z" id="Shape_30_" fill="#DFCAA3" fill-rule="nonzero"></path>
                        <path d="M72.1,61.3 C71.1,58.7 68.9,56.8 66.8,56.8 L66.7,56.8 C66.7,56.8 66.3,56.7 65.7,56.7 C64.6,56.7 63.2,56.9 63,58.1 C62.9,58.9 63.2,59.3 64,60.1 C64.8,61 66,62.2 66.4,64.7 C66.8,67.6 67.5,69.1 68.5,69.1 C69,69.1 69.8,68.8 71.3,67.5 C73,65.8 72.8,63.2 72.1,61.3 Z" id="Shape_31_" fill="#DFCAA3" fill-rule="nonzero"></path>
                        <path d="M35.7,41 C35.7,43.6 37.1,46 39.2,47.2 C40.3,47.9 41.6,48.3 43,48.3 C47,48.3 50.3,45 50.3,41 C50.3,38.4 48.9,36 46.8,34.8 C45.7,34.1 44.4,33.7 43,33.7 C39,33.7 35.7,36.9 35.7,41 Z M44.3,43.4 C44.3,44.7 43.3,45.7 42,45.7 C40.7,45.7 39.7,44.7 39.7,43.4 C39.7,42.1 40.7,41.1 42,41.1 C43.3,41.1 44.3,42.1 44.3,43.4 Z" id="Shape_32_" fill="#FFFFFF" fill-rule="nonzero"></path>
                        <path d="M12.6,46.4 C12.6,49 14,51.4 16.1,52.6 C17.2,53.3 18.5,53.7 19.9,53.7 C23.9,53.7 27.2,50.4 27.2,46.4 C27.2,43.8 25.8,41.4 23.7,40.2 C22.6,39.5 21.3,39.1 19.9,39.1 C15.9,39.1 12.6,42.3 12.6,46.4 Z M21.6,48.9 C21.6,50.2 20.6,51.2 19.3,51.2 C18,51.2 17,50.2 17,48.9 C17,47.6 18,46.6 19.3,46.6 C20.5,46.6 21.6,47.7 21.6,48.9 Z" id="Shape_33_" fill="#FFFFFF" fill-rule="nonzero"></path>
                        <circle id="Oval_11_" fill="#231F20" fill-rule="nonzero" cx="19.5" cy="49.1" r="2.3"></circle>
                        <circle id="Oval_12_" fill="#231F20" fill-rule="nonzero" cx="41.9" cy="43.3" r="2.3"></circle>
                        <path d="M13,34.4 C12.8,34.3 12.6,34.3 12.5,34.3 C11.5,34.4 10.6,33.7 10.4,32.7 C10.4,32.6 10.4,32.5 10.4,32.4 C9.9,32.7 9.3,33 8.8,33.3 L7.9,33.9 L7.2,33.1 C7,32.8 6.1,31.6 5.3,30.1 C3.7,30.8 2.5,31.6 2.2,32.4 C2.1,32.5 2.2,32.6 2.2,32.7 C2.5,33.1 4.1,34.2 13,34.4 Z" id="Shape_34_" fill="#648C1A" fill-rule="nonzero"></path>
                        <path d="M55.4,20 C55.1,21.8 54.5,23.7 54.1,24.3 L53.7,24.8 C55.3,24 56.8,23.3 58,22.6 C62.3,20.2 62.8,19.2 62.9,18.9 C62.9,18.7 62.9,18.7 62.9,18.6 C62.8,18.5 62.6,18.3 61.2,18.3 C59.7,18.3 57.6,18.6 55.5,19.1 C55.5,19.4 55.5,19.7 55.4,20 Z" id="Shape_35_" fill="#648C1A" fill-rule="nonzero"></path>
                        <path d="M53.4,24.6 L52.8,24.5 C52.8,24.5 51.7,24.4 50.2,24.4 C48.6,24.4 46.6,24.5 44.9,24.9 C45.2,25.6 45.1,26.4 44.6,27.1 C44.2,27.6 43.5,28.5 42.6,29.4 C44.1,28.8 45.6,28.1 47.2,27.4 C49.5,26.5 51.5,25.5 53.4,24.6 Z" id="Shape_36_" fill="#648C1A" fill-rule="nonzero"></path>
                        <path d="M13.1,22.9 C14.9,23.4 16.9,23.6 19.2,23.6 C27.8,23.6 37.3,19.9 41,18.3 L41.2,18.2 C41.2,17.7 41.2,17.1 41.3,16.5 C41.5,15.4 42,14.5 42.6,13.9 C42.5,13.5 42.4,13.2 42.3,13 C41.1,12.3 30.9,8.6 25.6,8.6 C25.1,8.6 24.6,8.6 24.2,8.7 C19.5,9.7 12.4,17.8 12.1,18.9 C12,19.4 12,21 12.1,22.6 L13.1,22.9 Z" id="Shape_37_" fill="#648C1A" fill-rule="nonzero"></path>
                        <path d="M31.5,32.2 C32.3,31.7 33.3,31.8 33.9,32.4 C34,32.4 34.2,32.3 34.4,32.2 C35.4,31.7 38.9,27.9 41.5,24.7 C41.6,24.6 41.7,24.5 41.8,24.4 C35.7,27.1 27.2,30 19.1,30 C17.8,30 16.6,29.9 15.4,29.8 L15.6,30.3 L14.6,30.7 C14.6,30.7 14.4,30.8 14.1,30.9 C15.4,31.2 17.2,31.8 19.4,32.7 C23.5,34.4 25,34.4 25.4,34.4 C25.9,34.1 26.6,34.1 27.2,34.4 C28.2,34.3 29.1,34.3 29.6,34.2 C29.8,34.2 30.1,34.1 30.6,34 C30.5,33.3 30.8,32.6 31.5,32.2 Z" id="Shape_38_" fill="#648C1A" fill-rule="nonzero"></path>
                        <path d="M41.9,19.4 C41.8,19.5 41.6,19.5 41.5,19.6 L41.4,19.6 C41.3,19.7 41.1,19.7 41,19.8 L40.9,19.8 C40.8,19.9 40.6,19.9 40.5,20 L40.4,20 C40.3,20.1 40.1,20.1 40,20.2 L39.9,20.2 C39.7,20.3 39.6,20.3 39.4,20.4 C39.2,20.5 39.1,20.5 38.9,20.6 L38.8,20.6 C38.6,20.7 38.5,20.7 38.3,20.8 L38.2,20.8 C38,20.9 37.9,20.9 37.7,21 L37.6,21 C37.4,21.1 37.2,21.1 37.1,21.2 L37,21.2 C36.8,21.3 36.6,21.3 36.4,21.4 C36.2,21.5 36,21.5 35.8,21.6 L35.7,21.6 C35.5,21.7 35.3,21.7 35.1,21.8 L35,21.8 C34.8,21.9 34.6,21.9 34.4,22 L34.3,22 C34.1,22.1 33.9,22.1 33.7,22.2 L33.6,22.2 C33.4,22.3 33.2,22.3 33,22.4 C32.8,22.5 32.6,22.5 32.3,22.6 C32.2,22.6 32.2,22.6 32.2,22.6 C32,22.7 31.8,22.7 31.5,22.8 L31.4,22.8 C31.2,22.9 31,22.9 30.8,23 L30.7,23 C30.5,23.1 30.3,23.1 30,23.2 C29.9,23.2 29.9,23.2 29.9,23.2 C29.7,23.3 29.5,23.3 29.2,23.4 C29.2,23.4 29.2,23.4 29.1,23.4 C28.9,23.5 28.6,23.5 28.4,23.6 C28.3,23.6 28.3,23.6 28.2,23.6 C28,23.7 27.7,23.7 27.5,23.7 L27.4,23.7 C27.2,23.7 27,23.8 26.7,23.8 C26.6,23.8 26.6,23.8 26.6,23.8 C26.4,23.8 26.1,23.9 25.9,23.9 C25.8,23.9 25.8,23.9 25.8,23.9 C25.6,23.9 25.4,24 25.1,24 L25,24 C24.8,24 24.5,24.1 24.3,24.1 C24.2,24.1 24.2,24.1 24.1,24.1 C23.8,24.1 23.6,24.2 23.4,24.2 L23.3,24.2 C23.1,24.2 22.9,24.3 22.6,24.3 C22.5,24.3 22.5,24.3 22.5,24.3 C22.3,24.3 22,24.3 21.8,24.4 C21.7,24.4 21.7,24.4 21.7,24.4 C21.5,24.4 21.3,24.4 21,24.4 L20.9,24.4 C20.6,24.4 20.4,24.4 20.2,24.4 C20.1,24.4 20.1,24.4 20,24.4 C19.7,24.4 19.5,24.4 19.3,24.4 C19.3,24.4 19.3,24.4 19.2,24.4 C19,24.4 18.7,24.4 18.5,24.4 C18.4,24.4 18.4,24.4 18.4,24.4 C18.2,24.4 17.9,24.4 17.7,24.4 C17.6,24.4 17.6,24.4 17.6,24.4 C17.4,24.4 17.1,24.4 16.9,24.3 C16.9,24.3 16.9,24.3 16.8,24.3 C16.6,24.3 16.3,24.2 16.1,24.2 C16,24.2 16,24.2 15.9,24.2 C15.7,24.2 15.4,24.1 15.2,24.1 L15.1,24.1 C14.9,24.1 14.7,24 14.5,24 L14.4,24 C14.2,24 14,23.9 13.7,23.9 C13.6,23.9 13.6,23.9 13.6,23.9 C13.4,23.8 13.1,23.8 12.9,23.7 C13.1,24 13.3,24.3 13.5,24.7 C14.3,26 14.8,27.3 15.1,28.1 C15.2,28.1 15.4,28.1 15.5,28.2 C15.6,28.2 15.6,28.2 15.6,28.2 C15.7,28.2 15.8,28.2 15.9,28.2 C16,28.2 16,28.2 16.1,28.2 C16.2,28.2 16.3,28.2 16.4,28.2 C16.5,28.2 16.5,28.2 16.6,28.2 C16.7,28.2 16.8,28.2 16.9,28.2 C17,28.2 17,28.2 17.1,28.2 C17.2,28.2 17.3,28.2 17.4,28.2 C17.5,28.2 17.6,28.2 17.7,28.2 C17.8,28.2 17.9,28.2 18,28.2 C18.1,28.2 18.2,28.2 18.3,28.2 C18.4,28.2 18.5,28.2 18.6,28.2 C18.7,28.2 18.8,28.2 18.9,28.2 C19,28.2 19.1,28.2 19.2,28.2 C19.4,28.2 19.6,28.2 19.7,28.2 C19.8,28.2 19.8,28.2 19.8,28.2 C20,28.2 20.1,28.2 20.3,28.2 C20.4,28.2 20.4,28.2 20.5,28.2 C20.7,28.2 20.8,28.2 21,28.2 L21.1,28.2 C21.3,28.2 21.5,28.2 21.8,28.2 C21.9,28.2 21.9,28.2 22,28.2 C22.2,28.2 22.4,28.2 22.5,28.2 C22.6,28.2 22.6,28.2 22.7,28.2 C22.9,28.2 23.1,28.2 23.3,28.1 C23.4,28.1 23.4,28.1 23.4,28.1 C23.6,28.1 23.9,28 24.1,28 C24.2,28 24.2,28 24.3,28 C24.5,28 24.7,27.9 24.9,27.9 C25,27.9 25.1,27.9 25.1,27.9 C25.3,27.9 25.5,27.8 25.8,27.8 C25.9,27.8 25.9,27.8 25.9,27.8 C26.2,27.7 26.4,27.7 26.7,27.7 C26.8,27.7 26.8,27.7 26.9,27.7 C27.1,27.7 27.3,27.6 27.5,27.6 C27.6,27.6 27.7,27.6 27.8,27.5 C28.1,27.4 28.3,27.4 28.6,27.3 L28.7,27.3 C29,27.2 29.3,27.2 29.6,27.1 C29.7,27.1 29.8,27.1 29.9,27 C30.1,26.9 30.4,26.9 30.6,26.8 C30.7,26.8 30.8,26.7 30.9,26.7 C31.2,26.6 31.5,26.6 31.8,26.5 L31.9,26.5 C32.2,26.4 32.5,26.3 32.9,26.2 C33,26.2 33.1,26.1 33.2,26.1 C33.5,26 33.7,25.9 34,25.9 C34.1,25.9 34.2,25.8 34.3,25.8 C34.6,25.7 34.9,25.6 35.2,25.5 L35.3,25.5 C35.7,25.4 36,25.3 36.4,25.1 C36.5,25.1 36.6,25 36.7,25 C37,24.9 37.2,24.8 37.5,24.7 C37.6,24.7 37.7,24.6 37.8,24.6 C38.2,24.5 38.5,24.3 38.9,24.2 C38.9,24.2 38.9,24.2 39,24.2 C39.4,24.1 39.8,23.9 40.1,23.7 C40.2,23.6 40.3,23.6 40.4,23.6 C40.7,23.5 41,23.4 41.3,23.2 C41.4,23.1 41.5,23.1 41.7,23.1 C42.1,22.9 42.5,22.7 42.9,22.6 C43.1,22.1 43.3,21.4 43.6,20.7 C43.6,20.7 43.6,20.7 43.5,20.7 C43.4,20.7 43.3,20.7 43.2,20.7 C42.7,20.8 42.2,20.2 41.9,19.4 Z" id="Shape_39_" fill="#DFCAA3" fill-rule="nonzero"></path>
                        <polygon id="Shape_41_" fill="#67CFE3" fill-rule="nonzero" points="8 21 8 21 8 21.4"></polygon>
                        <path d="M44.9,13.1 C45.6,13.3 46.1,13.8 46.4,14.8 C46.4,14.9 46.5,15.1 46.5,15.3 C48.1,13.1 49.8,11.9 51.7,11.9 C52.5,11.9 53.2,12.1 53.7,12.4 C54.7,11.2 55.3,10.4 55.3,10.4 C54.6,10.5 53,10.7 53,10.7 C58.8,8.5 58.4,2.7 58.4,2.7 C58.4,3.7 55.4,6.1 55.4,6.1 C55.5,5.2 55.1,4.1 55.1,4.1 C55.2,5.2 51.6,8.2 51.6,8.2 C51.9,7.7 51.7,6.7 51.7,6.7 C51.5,7.8 49.9,8.2 49.9,8.2 C50.9,7 52.8,0.6 51.4,0.2 C50,-0.2 48,4.4 48,4.4 C47.9,3.3 47.3,3.3 47.3,3.3 C47.6,6.7 44.9,9.3 44.9,9.3 C44.7,8.6 43.6,8.3 43.6,8.3 C43.9,8.8 43.7,10.8 43.6,12.2 C43.5,12.7 43.5,13.2 43.5,13.4 C43.9,13.1 44.2,13 44.6,13 C44.6,13.1 44.8,13.1 44.9,13.1 Z" id="Shape_42_" fill="#DFCAA3" fill-rule="nonzero"></path>
                        <path d="M43.4,19.4 C43.6,19.5 43.9,19.3 44.1,19.1 C44.3,18.7 44.5,18.3 44.7,17.9 C44.9,17.5 45.1,17.2 45.3,16.8 C45.4,16.1 45.4,15.4 45.3,14.9 C45.2,14.4 44.9,14.1 44.7,14.1 L44.6,14.1 C44,14.1 43.2,15.1 42.9,16.5 C42.7,17.3 42.7,18 42.9,18.6 C42.9,19 43.1,19.4 43.4,19.4 Z" id="Shape_43_" fill="#DFCAA3" fill-rule="nonzero"></path>
                        <path d="M51.3,12.9 C46.8,12.9 44,22 43.4,23.9 C43.6,23.9 43.7,24 43.9,24.1 C45.8,23.5 48.3,23.4 50.2,23.4 C51.8,23.4 52.9,23.5 52.9,23.5 C53.4,22.7 56.3,12.9 51.3,12.9 Z M52.4,16.9 C52.4,17.3 52.3,17.6 52.2,17.9 C52.1,18.2 52,18.4 51.8,18.7 C51.6,19.2 51.3,19.5 51.1,19.8 C50.9,20 50.8,20.2 50.8,20.2 C50.8,20.2 50.8,20 50.9,19.7 C51,19.4 51.1,19 51.2,18.5 C51.3,18.3 51.3,18 51.4,17.7 C51.5,17.4 51.5,17.2 51.5,16.9 C51.5,16.8 51.5,16.7 51.4,16.6 L51.3,16.6 L51.2,16.6 C51.1,16.6 51.1,16.6 51,16.6 C50.9,16.6 50.9,16.6 50.8,16.6 C50.7,16.6 50.7,16.6 50.6,16.6 C50.4,16.6 50.2,16.7 49.9,16.9 C49.7,17.1 49.5,17.3 49.3,17.5 C48.9,17.9 48.6,18.4 48.4,18.9 C48.2,19.3 47.9,19.7 47.8,20 C47.7,20.3 47.6,20.4 47.6,20.4 C47.6,20.4 47.6,20.4 47.6,20.3 C47.6,20.2 47.6,20.1 47.6,19.9 C47.6,19.6 47.7,19.2 47.8,18.6 C47.9,18.1 48.2,17.5 48.5,16.9 C48.7,16.6 48.9,16.3 49.2,16 C49.5,15.7 49.9,15.5 50.4,15.4 C50.5,15.4 50.6,15.4 50.7,15.4 C50.8,15.4 50.9,15.4 51,15.4 C51.1,15.4 51.2,15.4 51.3,15.5 L51.4,15.6 L51.5,15.6 L51.6,15.6 C51.6,15.6 51.9,15.8 52,15.9 L52.1,16 L52.2,16.1 C52.2,16.2 52.3,16.2 52.3,16.3 C52.4,16.5 52.4,16.7 52.4,16.9 Z" id="Shape_45_" fill="#67CFE3" fill-rule="nonzero"></path>
                        <path d="" id="Shape_46_" fill="#67CFE3" fill-rule="nonzero"></path>
                        <path d="M33.9,35.2 C34.4,35.2 35.1,35.1 35.7,34.8 C37,34.2 40.3,31 44,26.5 C44.1,26.3 44.2,26.1 44.2,25.9 C44.2,25.7 44.1,25.5 43.9,25.4 C43.7,25.3 43.5,25.2 43.4,25.2 C43.2,25.2 42.9,25.3 42.8,25.5 C41.2,27.4 36.7,32.6 35.1,33.3 C34.8,33.4 34.5,33.5 34.3,33.6 L33.7,33.7 L33.3,33.3 C33.2,33.2 33,33.1 32.8,33.1 C32.7,33.1 32.5,33.1 32.4,33.2 C32.2,33.3 32.1,33.5 32.1,33.7 C32,33.9 32.1,34.1 32.2,34.3 C32,34.4 32.6,35.2 33.9,35.2 Z" id="Shape_47_" fill="#DFCAA3" fill-rule="nonzero"></path>
                        <path d="M26.5,35.3 C26.4,35.3 26.3,35.3 26.1,35.4 L25.9,35.5 L25.6,35.5 C25.5,35.5 25.5,35.5 25.4,35.5 C24.7,35.5 22.9,35.3 19.1,33.7 C14.9,32 13.3,31.7 12.7,31.7 C12.6,31.7 12.5,31.7 12.5,31.7 C12.3,31.7 12.1,31.9 12,32 C11.9,32.2 11.8,32.4 11.9,32.6 C12,33 12.3,33.3 12.7,33.3 C12.7,33.3 12.7,33.3 12.8,33.3 L12.9,33.3 L13,33.3 C13.5,33.3 14.9,33.6 18.7,35.2 C21.8,36.5 24.1,37.1 25.6,37.1 C26.4,37.1 26.9,36.9 27.2,36.6 C27.3,36.4 27.4,36.2 27.4,36 C27.4,35.8 27.3,35.6 27.1,35.5 C26.8,35.4 26.6,35.3 26.5,35.3 Z" id="Shape_48_" fill="#DFCAA3" fill-rule="nonzero"></path>
                        <path d="M14.2,29.5 C14.2,29.5 11.5,21.8 8,21.8 C7.5,21.8 7.1,21.9 6.6,22.2 C2.3,24.8 8.3,32.5 8.3,32.5 C10.8,30.7 14.2,29.5 14.2,29.5 Z M7.5,27.4 C7.4,27.2 7.3,26.9 7.2,26.7 C7.1,26.4 7,26.1 7.1,25.7 C7.1,25.5 7.2,25.3 7.3,25.1 C7.4,24.9 7.7,24.7 7.9,24.6 L8,24.6 L8.1,24.6 L8.2,24.6 L8.3,24.6 L8.4,24.6 L8.5,24.6 L8.6,24.6 C8.7,24.6 8.7,24.6 8.8,24.6 C9,24.7 9.2,24.8 9.4,24.9 C9.7,25.1 9.9,25.4 10.1,25.7 C10.3,26 10.5,26.2 10.6,26.5 C10.9,27 11.1,27.5 11.2,28 C11.3,28.4 11.4,28.8 11.5,29.1 C11.5,29.2 11.5,29.3 11.6,29.4 C11.6,29.5 11.6,29.5 11.6,29.5 C11.6,29.5 11.5,29.4 11.3,29.2 C11.1,29 10.9,28.7 10.6,28.3 C10.3,27.9 10,27.5 9.7,27.1 C9.5,26.9 9.4,26.7 9.2,26.4 C9,26.2 8.8,26 8.6,25.9 C8.5,25.8 8.4,25.8 8.4,25.8 L8.3,25.8 C8.2,25.8 8.2,25.8 8.2,25.9 C8.2,25.9 8.1,26 8.1,26.1 C8,26.3 8,26.5 8.1,26.8 C8.1,27 8.2,27.3 8.2,27.5 C8.3,27.9 8.4,28.3 8.4,28.6 C8.5,28.9 8.5,29 8.5,29 C8.5,29 8.5,29 8.4,28.9 C8.3,28.8 8.3,28.8 8.2,28.7 C7.9,28.1 7.7,27.8 7.5,27.4 Z" id="Shape_49_" fill="#67CFE3" fill-rule="nonzero"></path>
                        <path d="M32.6,53.6 L32.7,53.6 C32.8,53.6 32.8,53.6 32.8,53.6 C34.6,53.2 36,52.1 36,51 C36,50.9 36,50.8 36,50.8 C36,50.7 35.9,50.5 35.9,50.4 C35.9,50.3 35.8,50.3 35.8,50.3 C35.8,50.3 35.8,50.3 35.8,50.2 C35.8,50.2 35.8,50.2 35.7,50.1 C35.6,50 35.6,50 35.6,49.9 L35.5,49.8 C35.3,49.6 35,49.5 34.7,49.4 C34.7,49.4 34.7,49.4 34.6,49.4 C34.5,49.4 34.5,49.4 34.4,49.3 L34.3,49.3 C34.2,49.3 34.2,49.3 34.1,49.3 L34,49.3 C33.9,49.3 33.9,49.3 33.8,49.3 L33.7,49.3 C33.6,49.3 33.6,49.3 33.5,49.3 C33.4,49.3 33.4,49.3 33.3,49.3 L33.2,49.3 C33.1,49.3 33.1,49.3 33,49.3 L32.9,49.3 C32.8,49.3 32.8,49.3 32.7,49.3 L32.6,49.3 C32.5,49.3 32.5,49.3 32.4,49.3 L32.3,49.3 C32.2,49.3 32.1,49.3 32,49.3 C31.9,49.3 31.8,49.3 31.7,49.3 C31.6,49.3 31.5,49.3 31.4,49.4 C31.4,49.4 31.4,49.4 31.3,49.4 C31.2,49.4 31.1,49.4 31.1,49.5 C31,49.5 30.9,49.6 30.9,49.6 C30.9,49.6 30.9,49.6 30.8,49.6 C30.7,49.6 30.6,49.7 30.6,49.7 C30.5,49.7 30.4,49.8 30.4,49.8 C30.4,49.8 30.4,49.8 30.3,49.8 C30.1,49.9 30,49.9 29.9,50 C29.8,50 29.8,50.1 29.7,50.1 C29.6,50.1 29.6,50.2 29.5,50.2 L29.4,50.3 L29.3,50.4 C29.2,50.5 29.1,50.6 29,50.6 L28.9,50.7 L28.8,50.8 L28.7,50.9 L28.6,51 C28.6,51 28.6,51.1 28.5,51.1 L28.5,51.2 L28.5,51.3 L28.5,51.4 L28.5,51.5 C28.5,51.5 28.5,51.5 28.5,51.6 L28.5,51.7 L28.5,51.8 C28.5,51.9 28.5,51.9 28.6,52 C28.8,53.3 30.6,53.9 32.6,53.6 Z" id="Shape_50_" fill="#231F20" fill-rule="nonzero"></path>
                        <path d="M28,52 C28.1,52.4 28.3,52.7 28.6,52.9 L28.7,53 C29.3,53.4 30.1,53.6 31.1,53.6 C31.5,53.6 31.9,53.6 32.3,53.5 C33.5,53.3 34.6,52.8 35.3,52.2 C35.4,52.1 35.6,51.9 35.7,51.8 C35.8,51.7 35.9,51.5 35.9,51.4 C35.9,51.3 36,51.1 36,50.9 C36,50.8 36,50.7 36,50.7 C35.9,50.4 35.8,50.1 35.5,49.9 C35.4,49.8 35.4,49.8 35.3,49.7 C35.2,49.6 35,49.5 34.8,49.4 C34.6,49.3 34.3,49.2 34,49.1 C33.9,49.1 33.7,49 33.6,49 C33.4,49 33.1,48.9 32.9,48.9 C32.6,48.9 32.4,48.9 32.1,48.9 C32,48.9 31.8,48.9 31.7,49 C31.3,49.1 30.9,49.2 30.5,49.3 C28.9,50 27.8,51 28,52 Z" id="Shape_51_" fill="#231F20" fill-rule="nonzero"></path>
                    </g>
                </g>
                <g transform="translate(602.000000, 14.000000)" fill-rule="nonzero">
                    <polyline id="Shape_58_" fill="#CAC9C2" points="21.6 49.4 10 29.4 21.6 9.3 44.8 9.3 56.4 29.4 44.8 49.4 21.6 49.4"></polyline>
                    <path d="M33.6,38.5 C28.6,38.5 24.6,34.4 24.6,29.5 C24.6,24.5 28.7,20.5 33.6,20.5 C38.6,20.5 42.6,24.6 42.6,29.5 C42.6,34.5 38.6,38.5 33.6,38.5" id="Shape_59_" fill="#FFFFFF"></path>
                    <path d="M51.8,2.6 C51.1,1.4 49.3,0.4 47.9,0.4 L19.3,0.4 C17.9,0.4 16.1,1.4 15.4,2.6 L7.1,17.1 C7,18 7.2,19 7.6,19.7 L13.2,29.4 L23.3,12 L55.2,12 C56,12 56.8,12.3 57.5,12.7 L51.8,2.6" id="Shape_60_" fill="#5072AA"></path>
                    <path d="M7.5,16.4 L7.1,17 C7,17.9 7.2,18.9 7.6,19.6 L13.2,29.3 L16.2,24.1 L7.5,16.4" id="Shape_61_" fill="#4D6796"></path>
                    <path d="M20.1,7.8 C19.1,7.8 18.4,7 18.4,6.1 C18.4,5.1 19.2,4.4 20.1,4.4 C21.1,4.4 21.8,5.2 21.8,6.1 C21.8,7 21,7.8 20.1,7.8 Z M48.6,6 C48.6,6.6 48.3,7.1 47.8,7.4 C47.3,7.7 46.7,7.7 46.2,7.4 C45.7,7.1 45.4,6.6 45.4,6 C45.4,5.1 46.1,4.4 47,4.4 C47.9,4.4 48.6,5.1 48.6,6 Z" id="Shape_62_" fill="#FFFFFF"></path>
                    <path d="M66.1,27.3 L57.6,12.6 C56.9,12.2 56,11.9 55.3,11.9 L43.8,11.9 L53.7,29.4 L38,57.2 C37.7,57.8 37.1,58.3 36.4,58.7 L48,58.7 C49.4,58.7 51.2,57.7 51.9,56.5 L66.2,31.8 C66.8,30.5 66.8,28.5 66.1,27.3" id="Shape_63_" fill="#CC4232"></path>
                    <path d="M58,13.3 L57.6,12.6 C56.9,12.2 56,11.9 55.3,11.9 L43.8,11.9 L46.8,17.2 L58,13.3" id="Shape_64_" fill="#B23F33"></path>
                    <path d="M47,54.5 C46,54.5 45.3,53.7 45.3,52.8 C45.3,51.8 46.1,51.1 47,51.1 C48,51.1 48.7,51.9 48.7,52.8 C48.8,53.7 48,54.5 47,54.5 M60.6,31.2 C59.6,31.2 58.9,30.4 58.9,29.5 C58.9,28.5 59.7,27.8 60.6,27.8 C61.6,27.8 62.3,28.6 62.3,29.5 C62.3,30.5 61.6,31.2 60.6,31.2" id="Shape_65_" fill="#FFFFFF"></path>
                    <path d="M23.6,46.9 L7.6,19.6 C7.2,18.9 7,17.9 7.1,17 L1.2,27.3 C0.5,28.5 0.5,30.5 1.2,31.8 L15.5,56.5 C16.2,57.7 18,58.7 19.4,58.7 L36.4,58.7 C37.1,58.3 37.7,57.8 38,57.2 L43.8,46.9 L23.6,46.9" id="Shape_66_" fill="#ECB02A"></path>
                    <path d="M35.4,58.7 L36.4,58.7 C37.1,58.3 37.7,57.8 38,57.2 L43.8,46.9 L37.6,46.9 L35.4,58.7" id="Shape_67_" fill="#C79732"></path>
                    <path d="M20.1,54.5 C19.1,54.5 18.4,53.7 18.4,52.8 C18.4,51.8 19.2,51.1 20.1,51.1 C21.1,51.1 21.8,51.9 21.8,52.8 C21.8,53.7 21,54.5 20.1,54.5 M6.5,31.2 C5.5,31.2 4.8,30.4 4.8,29.5 C4.8,28.5 5.6,27.8 6.5,27.8 C7.5,27.8 8.2,28.6 8.2,29.5 C8.2,30.5 7.5,31.2 6.5,31.2" id="Shape_68_" fill="#FFFFFF"></path>
                </g>
                <g transform="translate(358.000000, 19.000000)" fill-rule="nonzero">
                    <path d="M23.2,17.9 C23.2,18.9 23.3,19.7 23.5,20.3 C23.7,20.9 24,21.5 24.4,22.2 C24.5,22.4 24.6,22.6 24.6,22.8 C24.6,23.1 24.4,23.3 24.1,23.6 L22.4,24.7 C22.2,24.9 21.9,24.9 21.7,24.9 C21.4,24.9 21.2,24.8 20.9,24.5 C20.5,24.1 20.2,23.7 19.9,23.3 C19.6,22.8 19.4,22.3 19.1,21.7 C17,24.1 14.4,25.4 11.3,25.4 C9.1,25.4 7.3,24.8 6,23.5 C4.7,22.2 4,20.5 4,18.4 C4,16.1 4.8,14.3 6.4,12.9 C8,11.5 10.2,10.8 12.9,10.8 C13.8,10.8 14.7,10.9 15.7,11 C16.7,11.1 17.7,11.3 18.8,11.6 L18.8,9.7 C18.8,7.7 18.4,6.3 17.5,5.5 C16.6,4.7 15.2,4.3 13.2,4.3 C12.3,4.3 11.3,4.4 10.3,4.6 C9.3,4.8 8.4,5.1 7.4,5.5 C7,5.7 6.7,5.8 6.5,5.8 C6.3,5.9 6.2,5.9 6.1,5.9 C5.7,5.9 5.5,5.6 5.5,5.1 L5.5,3.8 C5.5,3.4 5.6,3.1 5.7,2.9 C5.8,2.7 6.1,2.5 6.4,2.3 C7.3,1.8 8.5,1.4 9.8,1.1 C11.1,0.8 12.5,0.6 14,0.6 C17.2,0.6 19.5,1.3 21,2.7 C22.5,4.1 23.2,6.3 23.2,9.2 L23.2,17.9 Z M12.4,21.9 C13.3,21.9 14.2,21.7 15.1,21.4 C16,21.1 16.9,20.5 17.6,19.7 C18,19.2 18.3,18.6 18.5,18 C18.7,17.4 18.8,16.6 18.8,15.7 L18.8,14.6 C18,14.4 17.2,14.3 16.3,14.1 C15.4,14 14.6,13.9 13.8,13.9 C12,13.9 10.7,14.2 9.8,15 C8.9,15.8 8.5,16.7 8.5,18 C8.5,19.2 8.8,20.2 9.5,20.8 C10.2,21.6 11.1,21.9 12.4,21.9 Z M33.8,24.8 C33.3,24.8 33,24.7 32.8,24.5 C32.6,24.3 32.4,24 32.2,23.5 L25.9,3 C25.7,2.5 25.7,2.1 25.7,1.9 C25.7,1.5 25.9,1.2 26.3,1.2 L28.9,1.2 C29.4,1.2 29.8,1.3 29.9,1.5 C30.1,1.7 30.3,2 30.4,2.5 L34.9,20 L39.1,2.5 C39.2,2 39.4,1.6 39.6,1.5 C39.8,1.3 40.2,1.2 40.7,1.2 L42.8,1.2 C43.3,1.2 43.7,1.3 43.9,1.5 C44.1,1.7 44.3,2 44.4,2.5 L48.6,20.3 L53.2,2.5 C53.4,2 53.5,1.6 53.7,1.5 C53.9,1.3 54.3,1.2 54.7,1.2 L57.2,1.2 C57.6,1.2 57.9,1.4 57.9,1.9 C57.9,2 57.9,2.2 57.8,2.3 C57.8,2.5 57.7,2.7 57.6,3 L51.2,23.5 C51,24 50.9,24.4 50.6,24.5 C50.4,24.7 50,24.8 49.6,24.8 L47.3,24.8 C46.8,24.8 46.4,24.7 46.2,24.5 C46,24.3 45.8,24 45.7,23.4 L41.6,6.3 L37.5,23.4 C37.4,23.9 37.2,24.3 37,24.5 C36.8,24.7 36.4,24.8 35.9,24.8 L33.8,24.8 Z M68,25.5 C66.6,25.5 65.2,25.3 63.9,25 C62.6,24.7 61.5,24.3 60.8,23.9 C60.4,23.7 60.1,23.4 60,23.2 C59.9,23 59.8,22.7 59.8,22.5 L59.8,21.1 C59.8,20.5 60,20.3 60.4,20.3 C60.6,20.3 60.7,20.3 60.9,20.4 C61.1,20.5 61.3,20.6 61.6,20.7 C62.5,21.1 63.5,21.4 64.5,21.6 C65.6,21.8 66.6,21.9 67.7,21.9 C69.4,21.9 70.7,21.6 71.6,21 C72.5,20.4 73,19.6 73,18.5 C73,17.8 72.8,17.1 72.3,16.6 C71.8,16.1 70.9,15.6 69.6,15.2 L65.7,14 C63.8,13.4 62.3,12.5 61.4,11.3 C60.5,10.1 60.1,8.8 60.1,7.5 C60.1,6.4 60.3,5.4 60.8,4.6 C61.3,3.8 61.9,3 62.7,2.4 C63.5,1.8 64.4,1.3 65.5,1 C66.6,0.7 67.7,0.5 68.9,0.5 C69.5,0.5 70.1,0.5 70.7,0.6 C71.3,0.7 71.9,0.8 72.4,0.9 C72.9,1 73.4,1.2 73.9,1.3 C74.4,1.5 74.8,1.6 75,1.8 C75.4,2 75.6,2.2 75.8,2.5 C76,2.7 76,3 76,3.4 L76,4.6 C76,5.2 75.8,5.4 75.4,5.4 C75.2,5.4 74.8,5.3 74.4,5.1 C72.9,4.4 71.2,4.1 69.3,4.1 C67.8,4.1 66.6,4.3 65.8,4.8 C65,5.3 64.5,6.1 64.5,7.2 C64.5,7.9 64.8,8.6 65.3,9.1 C65.8,9.6 66.8,10.1 68.2,10.6 L72,11.8 C73.9,12.4 75.3,13.3 76.1,14.3 C76.9,15.4 77.3,16.6 77.3,18 C77.3,19.1 77.1,20.2 76.6,21.1 C76.1,22 75.5,22.8 74.7,23.4 C73.9,24.1 72.9,24.5 71.7,24.9 C70.6,25.3 69.3,25.5 68,25.5 Z" id="Shape_69_" fill="#65717F"></path>
                    <path d="M73,38.6 C64.3,45.1 51.5,48.5 40.6,48.5 C25.3,48.5 11.5,42.8 1.1,33.4 C0.3,32.7 1,31.6 2,32.2 C13.3,38.7 27.2,42.7 41.6,42.7 C51.3,42.7 62,40.7 71.8,36.5 C73.2,35.9 74.4,37.6 73,38.6 Z" id="Shape_70_" fill="#FF9900"></path>
                    <path d="M76.6,34.5 C75.5,33.1 69.2,33.8 66.4,34.2 C65.5,34.3 65.4,33.6 66.2,33 C71.2,29.5 79.4,30.5 80.4,31.7 C81.4,32.9 80.1,41.1 75.5,45 C74.8,45.6 74.1,45.3 74.4,44.5 C75.4,41.8 77.7,35.9 76.6,34.5 Z" id="Shape_71_" fill="#FF9900"></path>
                </g>
                <g transform="translate(212.000000, 8.000000)" fill="#65717F" fill-rule="nonzero">
                    <g>
                        <path d="M57.2,1.3 C50.9,1.3 45.7,6.1 45.7,12.1 C45.7,16.6 48.7,20.6 53.2,22.2 L53.2,23.6 L54.7,25 L54.5,35.2 L15.9,35.2 C15.3,35.2 14.8,34.8 14.8,34.8 C14.2,34.2 15.2,32 15.2,32 L15.9,30.5 C16.2,29.8 16.4,29.7 16.6,29.4 C15.8,29.5 15.3,29.6 14.7,29.7 C13,30.2 12.1,30.5 10.1,31.3 C8.2,32.2 7.3,32.5 6,33.3 C3.9,34.4 2.9,35.2 1.3,36.1 C1.4,36.2 1.5,36.3 1.7,36.3 C3,37.1 4,37.8 5.8,38.8 C7.1,39.6 7.9,39.9 9.9,40.8 C11.9,41.6 12.7,42 14.5,42.4 C15.1,42.5 15.5,42.6 16.4,42.7 C16.2,42.3 16.1,42.3 15.7,41.6 L15,40.1 C15,40.1 14,37.8 14.6,37.3 C14.6,37.3 14.9,37.1 15.2,37 C15.4,37 15.6,36.9 15.8,36.9 L26.9,36.9 L54.7,37 L54.8,39.9 L55.2,44.2 L55.5,46.9 L58.6,46.9 L58.9,44.2 L59.3,39.9 L59.4,37 L101.4,37.2 L106.9,37.4 C108.1,37.5 109.4,37.7 110.5,38 L112.4,38.5 C112.8,38.2 113,37.9 113.1,37.5 C113.3,37 113.2,36.5 113.2,36.1 C113.2,35.7 113.2,35.2 113.1,34.8 C113,34.4 112.8,34.2 112.4,33.8 L110.5,34.3 C109.6,34.5 108.4,34.8 106.9,34.9 L101.3,35.2 L59.4,35.2 L59.4,25 L60.9,23.7 L60.9,22.2 C65.4,20.7 68.7,16.6 68.7,12.1 C68.6,6.2 63.5,1.3 57.2,1.3 Z M57.2,3.3 C63.6,3.4 66.7,8.2 66.6,12.2 C66.5,16.7 62.5,20.9 57.2,21.1 C52,21.1 47.8,17.1 47.8,12.2 C47.8,7.3 52,3.3 57.2,3.3 Z" id="path27"></path>
                        <g id="path21-0-4" transform="translate(0.477999, 0.693324)">
                            <path d="M56.7,0.6 C50.4,0.6 45.2,5.4 45.2,11.4 C45.2,15.9 48.2,19.9 52.7,21.5 L52.7,22.9 L54.2,24.3 L54,34.5 L15.4,34.5 C14.8,34.5 14.3,34.1 14.3,34.1 C13.7,33.5 14.7,31.3 14.7,31.3 L15.4,29.8 C15.7,29.1 15.9,29 16.1,28.7 C15.3,28.8 14.8,28.9 14.2,29 C12.5,29.5 11.6,29.8 9.6,30.6 C7.7,31.5 6.8,31.8 5.5,32.6 C3.4,33.7 2.4,34.5 0.8,35.4 C0.9,35.5 1,35.6 1.2,35.6 C2.5,36.4 3.5,37.1 5.3,38.1 C6.6,38.9 7.4,39.2 9.4,40.1 C11.4,40.9 12.2,41.3 14,41.7 C14.6,41.8 15,41.9 15.9,42 C15.7,41.6 15.6,41.6 15.2,40.9 L14.5,39.4 C14.5,39.4 13.5,37.1 14.1,36.6 C14.1,36.6 14.4,36.4 14.7,36.3 C14.9,36.3 15.1,36.2 15.3,36.2 L26.4,36.2 L54.2,36.3 L54.3,39.2 L54.7,43.5 L55,46.2 L58.1,46.2 L58.4,43.5 L58.8,39.2 L58.9,36.3 L100.9,36.5 L106.4,36.7 C107.6,36.8 108.9,37 110,37.3 L111.9,37.8 C112.3,37.5 112.5,37.2 112.6,36.8 C112.8,36.3 112.7,35.8 112.7,35.4 C112.7,35 112.7,34.5 112.6,34.1 C112.5,33.7 112.3,33.5 111.9,33.1 L110,33.6 C109.1,33.8 107.9,34.1 106.4,34.2 L100.8,34.5 L58.9,34.5 L58.9,24.3 L60.4,23 L60.4,21.5 C64.9,20 68.2,15.9 68.2,11.4 C68.2,5.5 63,0.6 56.7,0.6 Z M56.7,2.6 C63.1,2.7 66.2,7.5 66.1,11.5 C66,16 62,20.2 56.7,20.4 C51.5,20.4 47.3,16.4 47.3,11.5 C47.4,6.6 51.5,2.6 56.7,2.6 Z" id="Shape_56_"></path>
                        </g>
                        <path d="M57.2,1.3 C50.9,1.3 45.7,6.1 45.7,12.1 C45.7,16.6 48.7,20.6 53.2,22.2 L53.2,23.6 L54.7,25 L54.5,35.2 L15.9,35.2 C15.3,35.2 14.8,34.8 14.8,34.8 C14.2,34.2 15.2,32 15.2,32 L15.9,30.5 C16.2,29.8 16.4,29.7 16.6,29.4 C15.8,29.5 15.3,29.6 14.7,29.7 C13,30.2 12.1,30.5 10.1,31.3 C8.2,32.2 7.3,32.5 6,33.3 C3.9,34.4 2.9,35.2 1.3,36.1 C1.4,36.2 1.5,36.3 1.7,36.3 C3,37.1 4,37.8 5.8,38.8 C7.1,39.6 7.9,39.9 9.9,40.8 C11.9,41.6 12.7,42 14.5,42.4 C15.1,42.5 15.5,42.6 16.4,42.7 C16.2,42.3 16.1,42.3 15.7,41.6 L15,40.1 C15,40.1 14,37.8 14.6,37.3 C14.6,37.3 14.9,37.1 15.2,37 C15.4,37 15.6,36.9 15.8,36.9 L26.9,36.9 L54.7,37 L54.8,39.9 L55.2,44.2 L55.5,46.9 L58.6,46.9 L58.9,44.2 L59.3,39.9 L59.4,37 L101.4,37.2 L106.9,37.4 C108.1,37.5 109.4,37.7 110.5,38 L112.4,38.5 C112.8,38.2 113,37.9 113.1,37.5 C113.3,37 113.2,36.5 113.2,36.1 C113.2,35.7 113.2,35.2 113.1,34.8 C113,34.4 112.8,34.2 112.4,33.8 L110.5,34.3 C109.6,34.5 108.4,34.8 106.9,34.9 L101.3,35.2 L59.4,35.2 L59.4,25 L60.9,23.7 L60.9,22.2 C65.4,20.7 68.7,16.6 68.7,12.1 C68.6,6.2 63.5,1.3 57.2,1.3 Z M57.2,3.3 C63.6,3.4 66.7,8.2 66.6,12.2 C66.5,16.7 62.5,20.9 57.2,21.1 C52,21.1 47.8,17.1 47.8,12.2 C47.8,7.3 52,3.3 57.2,3.3 Z" id="path-1_1_" stroke="#65717F" stroke-width="1.4829"></path>
                        <polygon id="path57" stroke="#65717F" stroke-width="1.4829" points="18.7 52.4 26.3 52.4 20.8 61.6 26 61.6 26 63.2 17.9 63.2 23.4 54 18.7 54"></polygon>
                        <polygon id="path59" stroke="#65717F" stroke-width="1.4829" points="34.7 52.4 36.4 52.4 36.4 63.2 34.7 63.2"></polygon>
                        <polygon id="path63" stroke="#65717F" stroke-width="1.4829" points="59.1 52.4 60.8 52.4 60.7 56.6 65.5 52.4 67.8 52.4 62 57.6 67.8 63.2 65.5 63.2 60.7 58.6 60.7 63.2 59.1 63.2"></polygon>
                        <polygon id="path65" stroke="#65717F" stroke-width="1.4829" points="75.9 52.4 77.6 52.4 77.6 63.2 75.9 63.2"></polygon>
                        <polygon id="path67" stroke="#65717F" stroke-width="1.4829" points="86.7 52.1 95.1 60 95.1 52.3 96.8 52.4 96.8 63.9 88.4 56 88.4 63.6 86.7 63.5"></polygon>
                        <g id="Shape" transform="translate(45.000000, 52.000000)">
                            <g id="Mask">
                                <path d="M0.4,0.5 C1.6,0.5 3.8,0.5 3.8,0.5 C4.4,0.6 5,0.8 5.5,1.2 C6.1,1.7 6.4,2.1 6.5,2.6 C6.6,3.3 6.6,3.9 6.5,4.6 C6.3,5.3 6,5.8 5.6,6.2 C5.1,6.6 4.6,6.8 4,7 C3.4,7.1 2.6,7 2,7.1 L2,11.6 L0.3,11.6 L0.4,0.5 Z" id="path-1"></path>
                            </g>
                        </g>
                    </g>
                </g>
            </g>
        </g>
    </g>
</svg>