<?xml version="1.0" encoding="UTF-8"?>
<svg width="94px" height="94px" viewBox="0 0 94 94" version="1.1" xmlns="http://www.w3.org/2000/svg" xmlns:xlink="http://www.w3.org/1999/xlink">
    <!-- Generator: Sketch 62 (91390) - https://sketch.com -->
    <title>databasemigration</title>
    <desc>Created with Sketch.</desc>
    <g id="Page-1" stroke="none" stroke-width="1" fill="none" fill-rule="evenodd">
        <g id="databasemigration" transform="translate(1.000000, 1.000000)">
            <circle id="Oval" stroke="#4CAFDE" stroke-width="2.8347" cx="45.79" cy="45.79" r="45.374"></circle>
            <g id="Group" transform="translate(12.000000, 33.000000)" fill="#4CAFDE" fill-rule="nonzero">
                <path d="M10.6744923,24.4019231 C5.15296633,24.4019231 0.673909091,22.930399 0.673909091,21.1199994 C0.673909091,20.1292192 0.673909091,19.0459661 0.673909091,17.8375014 C0.673909091,17.5526162 0.819166352,17.2809414 1.0268434,17.0173077 C2.14223249,18.4308208 6.01984299,19.4784632 10.6739091,19.4784632 C15.3291417,19.4784632 19.2067522,18.4308208 20.3215579,17.0173077 C20.529235,17.2809414 20.6739091,17.5526162 20.6739091,17.8375014 C20.6739091,18.7875017 20.6739091,19.7960873 20.6739091,21.1199994 C20.6750756,22.9309734 16.1960184,24.4019231 10.6744923,24.4019231 Z M10.6739091,17.0173077 C5.1527051,17.0173077 0.673909091,15.5464724 0.673909091,13.735065 C0.673909091,12.7443618 0.673909091,11.6623416 0.673909091,10.4533966 C0.673909091,10.2793774 0.740991865,10.1105271 0.830241121,9.94282548 C0.880990699,9.83772479 0.947490144,9.73492139 1.02740615,9.63269231 C2.14273018,11.0455212 6.02011454,12.0942308 10.6739091,12.0942308 C15.3288703,12.0942308 19.2062547,11.0455212 20.3209954,9.63269231 C20.400328,9.73492139 20.4674108,9.83772479 20.5175771,9.94282548 C20.6068263,10.1105271 20.6739091,10.2793774 20.6739091,10.4533966 C20.6739091,11.4038973 20.6739091,12.4112558 20.6739091,13.735065 C20.6739091,15.5470467 16.1951131,17.0173077 10.6739091,17.0173077 Z M10.6739091,10.5557692 C5.1527051,10.5557692 0.673909091,9.03938572 0.673909091,7.17115385 C0.673909091,6.63686559 0.673909091,6.07118346 0.673909091,5.47884615 C0.673909091,4.94100388 0.673909091,4.38242979 0.673909091,3.78653846 C0.673909091,1.91830659 5.1527051,0.401923077 10.6739091,0.401923077 C16.1951131,0.401923077 20.6739091,1.91830659 20.6739091,3.78653846 C20.6739091,4.31549568 20.6739091,4.87525444 20.6739091,5.47884615 C20.6739091,5.9971413 20.6739091,6.5432763 20.6739091,7.17115385 C20.6739091,9.03938572 16.1951131,10.5557692 10.6739091,10.5557692 Z M10.2187671,2.24807692 C6.45382303,2.24807692 3.40118182,3.07325664 3.40118182,4.09423077 C3.40118182,5.11585108 6.45382303,5.94038462 10.2187671,5.94038462 C13.9843077,5.94038462 17.0375455,5.11585108 17.0375455,4.09423077 C17.0375455,3.07390283 13.9849042,2.24807692 10.2187671,2.24807692 Z" id="Shape"></path>
                <path d="M56.6744923,24.4019231 C51.1529663,24.4019231 46.6739091,22.930399 46.6739091,21.1199994 C46.6739091,20.1292192 46.6739091,19.0459661 46.6739091,17.8375014 C46.6739091,17.5526162 46.8191664,17.2809414 47.0268434,17.0173077 C48.1422325,18.4308208 52.019843,19.4784632 56.6739091,19.4784632 C61.3291417,19.4784632 65.2067522,18.4308208 66.3215579,17.0173077 C66.529235,17.2809414 66.6739091,17.5526162 66.6739091,17.8375014 C66.6739091,18.7875017 66.6739091,19.7960873 66.6739091,21.1199994 C66.6750756,22.9309734 62.1960184,24.4019231 56.6744923,24.4019231 Z M56.6739091,17.0173077 C51.1527051,17.0173077 46.6739091,15.5464724 46.6739091,13.735065 C46.6739091,12.7443618 46.6739091,11.6623416 46.6739091,10.4533966 C46.6739091,10.2793774 46.7409919,10.1105271 46.8302411,9.94282548 C46.8809907,9.83772479 46.9474901,9.73492139 47.0274061,9.63269231 C48.1427302,11.0455212 52.0201145,12.0942308 56.6739091,12.0942308 C61.3288703,12.0942308 65.2062547,11.0455212 66.3209954,9.63269231 C66.400328,9.73492139 66.4674108,9.83772479 66.5175771,9.94282548 C66.6068263,10.1105271 66.6739091,10.2793774 66.6739091,10.4533966 C66.6739091,11.4038973 66.6739091,12.4112558 66.6739091,13.735065 C66.6739091,15.5470467 62.1951131,17.0173077 56.6739091,17.0173077 Z M56.6739091,10.5557692 C51.1527051,10.5557692 46.6739091,9.03938572 46.6739091,7.17115385 C46.6739091,6.63686559 46.6739091,6.07118346 46.6739091,5.47884615 C46.6739091,4.94100388 46.6739091,4.38242979 46.6739091,3.78653846 C46.6739091,1.91830659 51.1527051,0.401923077 56.6739091,0.401923077 C62.1951131,0.401923077 66.6739091,1.91830659 66.6739091,3.78653846 C66.6739091,4.31549568 66.6739091,4.87525444 66.6739091,5.47884615 C66.6739091,5.9971413 66.6739091,6.5432763 66.6739091,7.17115385 C66.6739091,9.03938572 62.1951131,10.5557692 56.6739091,10.5557692 Z M56.2187671,2.24807692 C52.453823,2.24807692 49.4011818,3.07325664 49.4011818,4.09423077 C49.4011818,5.11585108 52.453823,5.94038462 56.2187671,5.94038462 C59.9843077,5.94038462 63.0375455,5.11585108 63.0375455,4.09423077 C63.0375455,3.07390283 59.9849042,2.24807692 56.2187671,2.24807692 Z" id="Shape"></path>
                <path id="Line" d="M34.3984545,6.209 L43.3984545,10.709 L34.3984545,15.209 L34.398,11.208 L23.3075455,11.209 L23.3075455,10.209 L34.398,10.208 L34.3984545,6.209 Z"></path>
            </g>
        </g>
    </g>
</svg>