<?xml version="1.0" encoding="UTF-8"?>
<svg width="94px" height="94px" viewBox="0 0 94 94" version="1.1" xmlns="http://www.w3.org/2000/svg" xmlns:xlink="http://www.w3.org/1999/xlink">
    <!-- Generator: Sketch 52.6 (67491) - http://www.bohemiancoding.com/sketch -->
    <title>kafka</title>
    <desc>Created with Sketch.</desc>
    <g id="Page-1" stroke="none" stroke-width="1" fill="none" fill-rule="evenodd">
        <g id="kafka" transform="translate(1.000000, 1.000000)">
            <circle id="Oval" stroke="#4CAFDE" stroke-width="2.8347" cx="45.79" cy="45.79" r="45.374"></circle>
            <g id="Apache_kafka" transform="translate(27.000000, 17.000000)">
                <path d="M6.1626595,56.2005162 C0.81737582,53.7061576 0.980762488,45.5635858 6.4242791,43.1624111 C7.97823813,42.4769483 8.17419315,42.153417 8.18464188,40.2559764 C8.19495317,38.3821055 8.01271982,38.0602548 6.69519864,37.6254981 C4.64209829,36.9480145 1.81224849,34.6161458 0.804440608,32.7713631 C-0.268146869,30.8080022 -0.268146869,26.2065503 0.804440608,24.2431894 C1.81224849,22.3984067 4.64209829,20.066538 6.69519864,19.3890544 C8.01271982,18.9542977 8.19495976,18.632447 8.18464188,16.7585766 C8.17419365,14.8611375 7.97823813,14.5376037 6.4242791,13.8521394 C0.93471415,11.4306533 0.825236286,3.2310807 6.2499362,0.794399696 C12.505643,-2.01556044 19.1851882,3.05889059 17.4162183,9.27742836 C16.8549476,11.2504877 13.6928215,14.3663544 12.2517434,14.3663544 C11.6726219,14.3663544 11.4557963,14.9858453 11.4557963,16.6404457 C11.4557963,18.7512227 11.5828817,18.9542386 13.2254144,19.467367 C14.1987044,19.7714233 15.6566498,20.6009125 16.465293,21.3106765 L17.9355542,22.6011566 L19.7136556,21.5775895 C21.3290477,20.6476859 21.4969776,20.3156046 21.5488084,17.9485582 C21.640515,13.7604238 24.7167587,10.7018253 28.8975217,10.6419964 C35.1125559,10.5530575 38.7916208,16.0118589 36.115061,21.3509981 C34.2962627,24.9790942 29.1343206,26.2546767 25.0545423,24.0841955 C23.1659052,23.0794225 22.9407727,23.367457 21.2883128,23.7227833 C19.0495195,24.2041877 18.4322417,23.1052754 20.0559928,27.5191947 C20.6796309,29.2144601 19.620288,31.3111904 19.5514524,31.986277 C19.4734843,32.750936 20.1331266,32.9434646 21.4042952,33.2185781 C23.0562262,33.5760984 23.1659052,33.93513 25.0545423,32.930357 C29.1343206,30.7598758 34.2962627,32.0354583 36.115061,35.6635544 C38.7916208,41.0026916 35.1125559,46.461493 28.8975217,46.3725556 C24.7167587,46.3127292 21.640515,43.2541307 21.5488084,39.0659933 C21.4969786,36.6989479 21.3290477,36.3668666 19.7136556,35.436963 L17.9355542,34.4133959 L16.465293,35.703876 C15.6566498,36.41364 14.1987044,37.2431292 13.2254144,37.5471855 C11.5828817,38.0603139 11.4557963,38.2633298 11.4557963,40.3741058 C11.4557963,42.0287062 11.6726219,42.6481961 12.2517434,42.6481961 C13.6928215,42.6481961 16.8549476,45.7640667 17.4162183,47.7371256 C18.3817098,51.131159 16.5116228,55.0604111 13.3323063,56.3178528 C10.9339625,57.266419 8.356427,57.2242326 6.1626595,56.2005162 Z M12.3714415,52.3286542 C15.0015433,49.9897832 13.3509818,46.0762977 9.73443329,46.0762977 C6.25578568,46.0762977 4.71404195,50.3402347 7.45480924,52.3809665 C9.28988345,53.7473314 10.7941099,53.7313285 12.3714415,52.3286542 Z M32.0774859,41.5228045 C35.354228,38.1935101 30.0641831,33.2612505 26.6663186,36.477613 C25.3379302,37.7350428 25.2419308,40.4140099 26.4788966,41.7078295 C27.7428235,43.0298508 30.6900934,42.9324478 32.0774859,41.5228045 Z M12.17055,33.3321375 C14.1693383,32.3645499 15.234268,30.687457 15.234268,28.5072763 C15.234268,23.4875907 9.19325001,21.3872504 5.78459693,25.2218162 C3.73696201,27.525304 3.89565393,29.9383662 6.24076002,32.1582044 C8.19177711,34.0050044 10.0291626,34.368756 12.17055,33.3321375 Z M31.9278277,20.4473047 C34.4230889,18.2283476 32.7340242,14.3663544 29.2682877,14.3663544 C26.9805019,14.3663544 25.5798524,15.6658639 25.5798524,17.7884519 C25.5798524,21.1682797 29.3440972,22.7449358 31.9278277,20.4473047 Z M12.6780707,9.8550103 C14.7914609,8.09833256 12.9166276,3.56783516 10.0762806,3.56783516 C8.3001927,3.56783516 6.02346728,5.48543663 6.02346728,6.98136478 C6.02346728,10.6600916 9.76547112,12.2759976 12.6780707,9.8550103 Z" id="path885" fill="#4CAFDE" fill-rule="nonzero"></path>
                <path d="M9.1175306,33.9083278 C7.73610229,33.4483244 5.98837325,31.8673368 5.3792876,30.52673 C4.86991647,29.4055967 4.87368327,28.2301344 5.39006791,27.1626529 C5.94366647,26.018242 6.95057353,24.9753758 8.01237819,24.4466929 C8.83546982,24.0368681 9.01552043,24 10.1938496,24 C11.3011979,24 11.5831719,24.0497832 12.240061,24.3612661 C14.6959081,25.5257758 15.7247047,28.7466599 14.4521168,31.2866143 C14.0354352,32.118268 12.9371619,33.1420644 11.9924243,33.579509 C11.1868384,33.9525223 9.74536735,34.1173918 9.1175306,33.9083278 Z" id="path906" stroke="#FFFFFF" stroke-width="0.28467155" fill="#FFFFFF"></path>
                <path d="M9.28459645,9.83573365 C7.98182126,9.34114639 7.13275127,8.17183033 7.01408213,6.70884277 C6.93041134,5.677328 7.20956858,5.04927417 8.12144097,4.21748396 C8.84050362,3.56156997 9.31911669,3.29706889 10.1710664,3.08477717 C11.1203548,2.84823027 11.8457507,3.09696999 12.7051476,3.95371876 C14.2023684,5.44632702 14.4406034,7.76151114 13.2131692,8.89071246 C12.1910566,9.83102387 10.4043169,10.2608252 9.28459645,9.83573365 Z" id="path908" stroke="#FFFFFF" stroke-width="0.28467155" fill="#FFFFFF"></path>
                <path d="M9.18100306,53.5788164 C6.81763631,52.3759392 6.28367464,49.7976607 8.02963662,48.0193392 C9.37986556,46.6440853 11.5135789,46.6625515 12.9302925,48.0617522 C13.4173824,48.5428215 13.6383685,48.8968224 13.7991826,49.4536429 C14.0641921,50.3712387 14.0649773,50.4785654 13.8129998,51.342791 C13.4172321,52.7001843 11.8298296,54 10.5678793,54 C10.2138661,54 9.7047384,53.8453825 9.18100211,53.5788164 L9.18100306,53.5788164 Z" id="path910" stroke="#FFFFFF" stroke-width="0.28467155" fill="#FFFFFF"></path>
                <path d="M26.986804,41.813221 C25.7123789,41.3938232 25,40.2499468 25,38.6229842 C25,35.4400234 28.245093,33.8871145 30.6796536,35.9050392 C31.8056053,36.8383023 32.3092596,38.5891548 31.8031786,39.810748 C31.1114645,41.4804275 28.8423278,42.4238519 26.986804,41.813221 Z" id="path912" stroke="#FFFFFF" stroke-width="0.28467155" fill="#FFFFFF"></path>
                <path d="M27.800064,20.9570535 C25.2865717,20.5710871 24.0948816,17.0898935 25.795733,15.1019538 C27.3980967,13.2291255 30.8489964,13.8465545 31.7929514,16.1749651 C32.0568337,16.8258721 32.0710185,18.1295211 31.8209024,18.743583 C31.1961154,20.2774887 29.4902118,21.216589 27.800066,20.9570535 L27.800064,20.9570535 Z" id="path914" stroke="#FFFFFF" stroke-width="0.28467155" fill="#FFFFFF"></path>
            </g>
        </g>
    </g>
</svg>