<?xml version="1.0" encoding="UTF-8"?>
<svg width="94px" height="94px" viewBox="0 0 94 94" version="1.1" xmlns="http://www.w3.org/2000/svg" xmlns:xlink="http://www.w3.org/1999/xlink">
    <!-- Generator: Sketch 64 (93537) - https://sketch.com -->
    <title>maven</title>
    <desc>Created with Sketch.</desc>
    <g id="Page-1" stroke="none" stroke-width="1" fill="none" fill-rule="evenodd">
        <g id="maven" transform="translate(1.000000, 1.000000)">
            <circle id="Oval" stroke="#4CAFDE" stroke-width="2.8347" cx="45.789" cy="45.789" r="45.374"></circle>
            <g id="Maven_logo" transform="translate(14.000000, 15.000000)">
                <g id="g7248" transform="translate(27.006717, 28.947508) rotate(-36.276674) translate(-27.006717, -28.947508) translate(11.506717, 4.447508)">
                    <path d="M23.9824893,1.703872 C23.2283349,2.13881822 21.9714107,3.35666763 20.4810578,5.12254929 L21.8546963,7.63653844 C22.8153455,6.29690408 23.8029287,5.09645251 24.790512,4.06997943 C24.8623362,3.99168911 24.9072264,3.94819449 24.9072264,3.94819449 C24.8713142,3.99168911 24.8264241,4.02648481 24.790512,4.06997943 C24.4673029,4.40923749 23.4976757,5.50530196 22.0342569,7.68873198 C23.4438076,7.61914059 25.6075127,7.34077501 27.3761845,7.04501158 C27.9058882,4.19176438 26.8644368,2.88692572 26.8644368,2.88692572 C26.8644368,2.88692572 25.5356884,0.807882786 23.9824893,1.703872 Z" id="path7258" fill="#4CAFDE" fill-rule="nonzero"></path>
                    <path d="M21.6482017,16.0601687 C21.6571797,16.0601687 21.6661577,16.0601687 21.6751358,16.0463524 L21.4776191,16.0739849 C21.4686411,16.0878011 21.450685,16.0878011 21.441707,16.1016174 C21.5135312,16.0878011 21.5853555,16.0739849 21.6482017,16.0601687 L21.6482017,16.0601687 Z" id="path7260"></path>
                    <path d="M20.2476291,20.5447193 C20.1398927,20.586168 20.0231783,20.6138005 19.906464,20.641433 C20.0231783,20.6138005 20.1398927,20.586168 20.2476291,20.5447193 Z" id="path7262"></path>
                    <path d="M10.7129618,30.6364945 C10.7309179,30.6016988 10.7398959,30.5582042 10.757852,30.5234085 C11.063105,29.7492043 11.3593799,29.0010968 11.6556549,28.2616882 C11.987842,27.4439893 12.3200291,26.6436882 12.6432381,25.869484 C12.9844033,25.060484 13.3255684,24.2688819 13.6577555,23.5120755 C14.0078986,22.7117744 14.3490637,21.9462691 14.6902289,21.2068605 C14.9685478,20.6066347 15.2378887,20.0238068 15.5072295,19.4583767 C15.5970098,19.2670004 15.6867901,19.0843229 15.7765704,18.9016455 C15.956131,18.5362907 16.1267136,18.1796348 16.2972961,17.8316778 C16.4589007,17.5098176 16.6115272,17.1966563 16.7641537,16.8834951 C16.8180218,16.779108 16.87189,16.6747209 16.9167802,16.5790327 C16.9257582,16.5616349 16.9347362,16.544237 16.9437142,16.5268392 L16.7731317,16.544237 L16.6384612,16.2919682 C16.6294832,16.318065 16.6115272,16.3441618 16.6025491,16.3702585 C16.3601423,16.8313015 16.1177355,17.3010434 15.8843068,17.7794843 C15.7496363,18.0491509 15.6149659,18.3275165 15.4713174,18.6058821 C15.0942402,19.3713874 14.726141,20.1368928 14.3670198,20.919796 C13.9989206,21.7026992 13.6397994,22.4943013 13.2896563,23.2772045 C12.9395131,24.0514088 12.607326,24.825613 12.2751389,25.5998173 C11.9429518,26.3740216 11.6197428,27.1395269 11.3055118,27.9050323 C10.9733247,28.7053333 10.6501156,29.4969354 10.3448626,30.2798386 C10.2730384,30.4538171 10.2012141,30.6364945 10.1383679,30.810473 C9.88698311,31.4454945 9.64457631,32.0631181 9.41114755,32.6807418 L9.62662025,33.0895912 L9.81515887,33.0721934 C9.8241369,33.0547955 9.83311493,33.0373977 9.83311493,33.0199998 C10.1114338,32.193602 10.4166868,31.4019999 10.7129618,30.6364945 L10.7129618,30.6364945 Z" id="path7264"></path>
                    <g id="path7266" transform="translate(0.002173, -0.001117)"></g>
                    <path d="M19.3588042,22.8074626 C19.1792436,22.8627275 18.999683,22.9041763 18.8201224,22.945625 C18.8201224,22.945625 18.8201224,22.945625 18.8201224,22.945625 C18.9099027,22.9318087 19.008661,22.9041763 19.0984413,22.8765438 C19.1882216,22.8627275 19.2780019,22.8350951 19.3588042,22.8074626 Z" id="path7268" fill="#4CAFDE" fill-rule="nonzero"></path>
                    <path d="M19.3588042,22.8074626 C19.1792436,22.8627275 18.999683,22.9041763 18.8201224,22.945625 C18.8201224,22.945625 18.8201224,22.945625 18.8201224,22.945625 C18.9099027,22.9318087 19.008661,22.9041763 19.0984413,22.8765438 C19.1882216,22.8627275 19.2780019,22.8350951 19.3588042,22.8074626 Z" id="path7270" fill="#4CAFDE" fill-rule="nonzero" opacity="0.35"></path>
                    <path d="M19.8256617,20.6526905 C19.8256617,20.6526905 19.8256617,20.6526905 19.8256617,20.6526905 C19.8166837,20.6526905 19.8166837,20.6526905 19.8256617,20.6526905 C19.8525958,20.6526905 19.8795299,20.6388743 19.906464,20.6388743 C20.0231783,20.6112418 20.1398927,20.5836094 20.2476291,20.5421606 C20.1129586,20.5836094 19.9693102,20.6112418 19.8256617,20.6526905 L19.8256617,20.6526905 L19.8256617,20.6526905 L19.8256617,20.6526905 Z" id="path7272" fill="#4CAFDE" fill-rule="nonzero"></path>
                    <path d="M19.8256617,20.6526905 C19.8256617,20.6526905 19.8256617,20.6526905 19.8256617,20.6526905 C19.8166837,20.6526905 19.8166837,20.6526905 19.8256617,20.6526905 C19.8525958,20.6526905 19.8795299,20.6388743 19.906464,20.6388743 C20.0231783,20.6112418 20.1398927,20.5836094 20.2476291,20.5421606 C20.1129586,20.5836094 19.9693102,20.6112418 19.8256617,20.6526905 L19.8256617,20.6526905 L19.8256617,20.6526905 L19.8256617,20.6526905 Z" id="path7274" fill="#4CAFDE" fill-rule="nonzero" opacity="0.35"></path>
                    <path d="M17.796627,14.125936 C18.2185944,13.3691296 18.6405618,12.629721 19.0625292,11.9077103 C19.5024526,11.1596028 19.9513541,10.4375921 20.4092336,9.73297922 C20.4361677,9.6894846 20.4631018,9.64598997 20.4900359,9.61119428 C20.9389373,8.92397925 21.3878388,8.26286099 21.8457183,7.62783951 L20.4720798,5.12254929 C20.3733215,5.24433423 20.2655851,5.36611917 20.1578488,5.49660304 C19.7628155,5.97504388 19.3498261,6.48828042 18.9278588,7.03631265 C18.4520232,7.65393629 17.9672096,8.30635562 17.46444,8.99357064 C17.0065605,9.62859212 16.5397029,10.2984093 16.0728454,10.9856243 C15.6778121,11.5771512 15.2827788,12.177377 14.8877455,12.7950006 C14.8697894,12.8210974 14.8608114,12.8384952 14.8428554,12.864592 L16.6294832,16.2832693 C17.0245165,15.5612586 17.4105718,14.8392478 17.796627,14.125936 L17.796627,14.125936 Z" id="path7286" fill="#4CAFDE" fill-rule="nonzero"></path>
                    <path d="M9.65355434,33.4114514 C9.42012557,34.037774 9.17771878,34.6814944 8.94429001,35.3426126 C8.94429001,35.3513116 8.93531198,35.3600105 8.93531198,35.3687094 C8.89939987,35.4643976 8.86348775,35.5513868 8.83655366,35.647075 C8.67494913,36.0907201 8.54027869,36.4908707 8.21706963,37.3955588 C8.74677337,37.6304298 9.16874075,38.2393545 9.56377405,38.9352684 C9.5188839,38.2132577 9.2136309,37.5347416 8.63005898,37.0128061 C11.2247095,37.1258921 13.4692169,36.4908707 14.6184046,34.6466987 C14.7171629,34.4814191 14.8159213,34.3074406 14.9057016,34.1247632 C14.3759978,34.7684836 13.7295797,35.0468492 12.4995897,34.9772578 C12.4995897,34.9772578 12.4906116,34.9772578 12.4906116,34.9772578 C12.4906116,34.9772578 12.4995897,34.9772578 12.4995897,34.9772578 C14.3041736,34.1943546 15.2109546,33.4375482 16.0099992,32.193602 C16.1985378,31.8978386 16.3870764,31.5759784 16.575615,31.2193225 C14.9954819,32.7938278 13.1639639,33.2374729 11.2336875,32.8982149 L9.78822478,33.0547955 C9.74333463,33.1765805 9.69844449,33.2896665 9.65355434,33.4114514 Z" id="path7298" fill="#4CAFDE" fill-rule="nonzero"></path>
                    <path d="M10.3269065,30.2711397 C10.6411376,29.4882365 10.9643466,28.6966344 11.2875557,27.8963334 C11.6017867,27.130828 11.9249958,26.3653227 12.2571829,25.5911184 C12.58937,24.8169141 12.9305351,24.0427099 13.2717002,23.2685056 C13.6218434,22.4769035 13.9809645,21.6940003 14.3490637,20.9110971 C14.7081849,20.1368928 15.0852622,19.3626885 15.4533614,18.5971832 C15.5880318,18.3188176 15.7227022,18.0491509 15.8663507,17.7707854 C16.0997795,17.3010434 16.3421863,16.8313015 16.5845931,16.3615596 C16.5935711,16.3354628 16.6115272,16.3093661 16.6205052,16.2832693 L14.8518334,12.8732909 C14.8248993,12.9167855 14.7979652,12.9689791 14.7620531,13.0124737 C14.3490637,13.673592 13.9270964,14.3434091 13.523085,15.0306242 C13.1100957,15.7265381 12.7060843,16.431151 12.3110511,17.1531617 C11.978864,17.7620864 11.6556549,18.3710111 11.3324458,18.9886348 C11.2695996,19.1104197 11.2067534,19.2409036 11.1439072,19.3626885 C10.757852,20.1368928 10.3987308,20.8936992 10.0844998,21.6157099 C9.72537858,22.4334088 9.41114755,23.216312 9.13282863,23.9557206 C8.95326804,24.4428604 8.78268548,24.9126023 8.63005898,25.3649464 C8.50436657,25.747699 8.38765219,26.1391506 8.27093781,26.5219033 C8.00159692,27.4265914 7.77714619,28.3312796 7.58860757,29.2359677 L9.38421346,32.6720429 C9.61764222,32.0544192 9.86902705,31.4367956 10.1114338,30.8017741 C10.1832581,30.6277956 10.2550823,30.4538171 10.3269065,30.2711397 L10.3269065,30.2711397 Z" id="path7310" fill="#4CAFDE" fill-rule="nonzero"></path>
                    <path d="M7.56167348,29.3577527 C7.33722274,30.4538171 7.17561821,31.5498816 7.09481595,32.6459461 C7.09481595,32.6807418 7.08583792,32.7242364 7.08583792,32.7590321 C6.5292001,31.8891397 5.02089115,31.0366451 5.02986918,31.045344 C6.10723271,32.5589568 6.92423339,34.0551718 7.04094777,35.5252901 C6.46635389,35.6383761 5.6762873,35.4730965 4.76950632,35.1512363 C5.72117745,35.995032 6.43044177,36.2299029 6.70876068,36.2907954 C5.83789183,36.3429889 4.93111085,36.9258169 4.01535185,37.5956341 C5.35307824,37.0649997 6.4394198,36.8562255 7.21153033,37.030204 C5.9815403,40.3966877 4.75155027,44.1198274 3.52156023,48.069139 C3.89863747,47.9647519 4.12308821,47.7124831 4.24878062,47.381924 C4.46425332,46.6686122 5.92767212,41.971193 8.2080916,35.8036556 C8.27093781,35.6296771 8.34276204,35.4556987 8.40560825,35.2730212 C8.42356431,35.2208277 8.44152037,35.1773331 8.45947642,35.1251395 C8.70188322,34.4814191 8.95326804,33.8203009 9.2136309,33.1417848 C9.2764771,32.9852041 9.33034528,32.8373224 9.39319149,32.6807418 C9.39319149,32.6807418 9.39319149,32.6720429 9.39319149,32.6720429 L7.5975856,29.2359677 C7.57962954,29.2794623 7.57065151,29.314258 7.56167348,29.3577527 L7.56167348,29.3577527 Z" id="path7322" fill="#4CAFDE" fill-rule="nonzero"></path>
                    <path d="M16.9167802,16.5790327 C16.862912,16.6834198 16.8180218,16.779108 16.7641537,16.8834951 C16.6115272,17.1966563 16.4499226,17.5098176 16.2972961,17.8316778 C16.1267136,18.1796348 15.956131,18.5362907 15.7765704,18.9016455 C15.6867901,19.0843229 15.5970098,19.2670004 15.5072295,19.4583767 C15.2378887,20.0238068 14.9685478,20.6066347 14.6902289,21.2068605 C14.3490637,21.9462691 14.0078986,22.7117744 13.6577555,23.5120755 C13.3255684,24.2688819 12.9844033,25.060484 12.6432381,25.869484 C12.3200291,26.6436882 11.987842,27.4352904 11.6556549,28.2616882 C11.3593799,28.9923978 11.063105,29.7492043 10.757852,30.5234085 C10.7398959,30.5582042 10.7309179,30.6016988 10.7129618,30.6364945 C10.4166868,31.4019999 10.1114338,32.193602 9.80618084,33.002602 C9.79720281,33.0199998 9.78822478,33.0373977 9.78822478,33.0547955 L11.2336875,32.8982149 C11.2067534,32.889516 11.1798193,32.889516 11.1439072,32.880817 C12.8766669,32.6720429 15.1750424,31.4193977 16.6564173,29.8709892 C17.3387475,29.1576774 17.9582316,28.3225807 18.5328255,27.3396022 C18.9637709,26.6088925 19.3588042,25.7998926 19.7448594,24.8952044 C20.0770465,24.1123012 20.4002556,23.2598067 20.7055086,22.3377207 C20.3104753,22.5377959 19.8525958,22.6856776 19.3498261,22.7900647 C19.2600458,22.8074626 19.1702655,22.8248604 19.0804853,22.8422583 C18.990705,22.8596561 18.9009247,22.8683551 18.8021663,22.8857529 L18.8021663,22.8857529 L18.8021663,22.8857529 C18.8021663,22.8857529 18.8021663,22.8857529 18.8021663,22.8857529 C20.4182116,22.2855271 21.432729,21.1285702 22.1689274,19.7019466 C21.74696,19.9803122 21.0556517,20.345667 20.229673,20.5283444 C20.1219367,20.5544412 20.0052223,20.571839 19.8885079,20.5892369 C19.8615738,20.5892369 19.8346397,20.5979358 19.7987276,20.5979358 L19.7987276,20.5979358 L19.7987276,20.5979358 C19.7987276,20.5979358 19.7987276,20.5979358 19.7987276,20.5979358 C19.7987276,20.5979358 19.7987276,20.5979358 19.7987276,20.5979358 L19.7987276,20.5979358 C20.3553654,20.3717638 20.831201,20.1194949 21.2441903,19.8150326 C21.3339706,19.7541401 21.4147729,19.6845487 21.4955752,19.6149573 C21.6212676,19.5105702 21.737982,19.3974842 21.8546963,19.2843982 C21.9265206,19.2061079 21.9983448,19.1365165 22.0701691,19.0582262 C22.2317736,18.8755488 22.3844001,18.6754735 22.5190705,18.4580004 C22.5639607,18.388409 22.6088508,18.3275165 22.6447629,18.2579251 C22.6986311,18.153538 22.7524993,18.0578499 22.7973894,17.9621617 C23.0218402,17.5272155 23.2014008,17.1357639 23.3450492,16.7878069 C23.4168735,16.6138284 23.4797197,16.4572478 23.5335879,16.3093661 C23.5515439,16.2484736 23.578478,16.19628 23.5964341,16.1353876 C23.6503022,15.970108 23.7041704,15.8222263 23.7400825,15.6917424 C23.7939507,15.5003661 23.8298628,15.3437855 23.8478189,15.2306994 L23.8478189,15.2306994 L23.8478189,15.2306994 C23.7939507,15.2741941 23.7311045,15.3176887 23.6592803,15.3524844 C23.1744667,15.63085 22.3395099,15.8918177 21.6661577,16.0136026 L22.9949061,15.8744198 L21.6661577,16.0136026 C21.6571797,16.0136026 21.6482017,16.0136026 21.6392236,16.0223016 C21.5763774,16.0310005 21.5045532,16.0396994 21.432729,16.0570973 C21.441707,16.0483983 21.4596631,16.0483983 21.4686411,16.0396994 L16.9257582,16.5181402 C16.9347362,16.5529359 16.9257582,16.5703338 16.9167802,16.5790327 L16.9167802,16.5790327 Z" id="path7334" fill="#4CAFDE" fill-rule="nonzero"></path>
                    <path d="M22.0342569,7.68873198 C21.6302456,8.28895777 21.1903222,8.97617279 20.7144866,9.74167814 C20.6875525,9.78517276 20.6606184,9.81996846 20.6426624,9.86346308 C20.229673,10.5332803 19.7987276,11.2639899 19.3408481,12.0729899 C18.9458148,12.7689038 18.5328255,13.5083124 18.10188,14.3173124 C17.7248028,15.0132263 17.3477256,15.7526349 16.9437142,16.5355381 L21.4865971,16.0570973 C22.8063675,15.4655704 23.3989174,14.934936 23.9735113,14.1607317 C24.1261378,13.9519575 24.2787643,13.7257855 24.4313908,13.4909146 C24.8982483,12.7863017 25.3561278,12.0120974 25.7601392,11.2378931 C26.1551725,10.4897856 26.5053156,9.75037707 26.7656785,9.08925881 C26.936261,8.66301152 27.0709315,8.27155992 27.1696898,7.92360294 C27.250492,7.61914059 27.3133382,7.33207608 27.3672064,7.0537105 C25.6075127,7.34077501 23.4438076,7.61914059 22.0342569,7.68873198 Z" id="path7346" fill="#4CAFDE" fill-rule="nonzero"></path>
                    <path d="M19.0984413,22.8724494 C19.008661,22.9000819 18.9188807,22.9138981 18.8201224,22.9415306 L18.8201224,22.9415306 C18.9099027,22.9138981 18.999683,22.8862657 19.0984413,22.8724494 Z" id="path7348" fill="#4CAFDE" fill-rule="nonzero"></path>
                    <path d="M19.0984413,22.8724494 C19.008661,22.9000819 18.9188807,22.9138981 18.8201224,22.9415306 L18.8201224,22.9415306 C18.9099027,22.9138981 18.999683,22.8862657 19.0984413,22.8724494 Z" id="path7350" fill="#4CAFDE" fill-rule="nonzero" opacity="0.35"></path>
                    <path d="M19.0984413,22.8724494 C19.008661,22.9000819 18.9188807,22.9138981 18.8201224,22.9415306 L18.8201224,22.9415306 C18.9099027,22.9138981 18.999683,22.8862657 19.0984413,22.8724494 Z" id="path7362" fill="#4CAFDE" fill-rule="nonzero"></path>
                    <path d="M19.8166837,20.6347799 C19.859075,20.6347799 19.9014663,20.6209637 19.957988,20.6209637 C19.9155967,20.6209637 19.8732054,20.6347799 19.8166837,20.6347799 L19.8166837,20.6347799 Z" id="path7364" fill="#4CAFDE" fill-rule="nonzero"></path>
                    <path d="M19.8166837,20.6347799 C19.859075,20.6347799 19.9014663,20.6209637 19.957988,20.6209637 C19.9155967,20.6209637 19.8732054,20.6347799 19.8166837,20.6347799 L19.8166837,20.6347799 Z" id="path7366" fill="#4CAFDE" fill-rule="nonzero" opacity="0.35"></path>
                    <path d="M19.8166837,20.6347799 C19.859075,20.6347799 19.9014663,20.6209637 19.957988,20.6209637 C19.9155967,20.6209637 19.8732054,20.6347799 19.8166837,20.6347799 L19.8166837,20.6347799 Z" id="path7378" fill="#4CAFDE" fill-rule="nonzero"></path>
                    <g id="path7380" transform="translate(0.002173, -0.001117)"></g>
                    <g id="path7382" opacity="0.35" transform="translate(0.002173, -0.001117)"></g>
                    <g id="path7394" transform="translate(0.002173, -0.001117)"></g>
                </g>
                <g id="g4701" transform="translate(41.111246, 30.295561) rotate(8.347377) translate(-41.111246, -30.295561) translate(23.611246, 2.795561)">
                    <path d="M27.1214887,1.92984096 C26.26849,2.42179399 24.8468254,3.79926247 23.1611375,5.79659176 L24.7148137,8.64008026 C25.8013717,7.12486494 26.9183938,5.76707458 28.035416,4.60606543 C28.1166539,4.51751389 28.1674277,4.46831859 28.1674277,4.46831859 C28.1268087,4.51751389 28.076035,4.55687013 28.035416,4.60606543 C27.6698451,4.98978879 26.5731324,6.22951043 24.9179087,8.69911463 C26.5122039,8.62040214 28.9594979,8.3055522 30.9599831,7.97102414 C31.5591131,4.74381228 30.3811625,3.2679532 30.3811625,3.2679532 C30.3811625,3.2679532 28.87826,0.916417724 27.1214887,1.92984096 Z" id="path4710" fill="#4CAFDE" fill-rule="nonzero"></path>
                    <path d="M24.4812546,18.1605215 C24.4914093,18.1605215 24.5015641,18.1605215 24.5117188,18.1467052 L24.2883144,18.1743377 C24.2781596,18.188154 24.2578501,18.188154 24.2476954,18.2019702 C24.3289334,18.188154 24.4101713,18.1743377 24.4812546,18.1605215 L24.4812546,18.1605215 Z" id="path4712"></path>
                    <path d="M22.897114,23.2373728 C22.7752571,23.2788216 22.6432454,23.306454 22.5112337,23.3340865 C22.6432454,23.306454 22.7752571,23.2788216 22.897114,23.2373728 Z" id="path4714"></path>
                    <path d="M12.1127729,34.6545564 C12.1330824,34.6152001 12.1432371,34.5660048 12.1635466,34.5266486 C12.508808,33.6509722 12.8439146,32.804813 13.1790213,31.9684928 C13.5547469,31.0436212 13.9304726,30.1384276 14.2960434,29.2627512 C14.6819238,28.3477186 15.0678042,27.452364 15.4435298,26.5963658 C15.839565,25.6911722 16.2254453,24.8253349 16.6113257,23.9890147 C16.9261229,23.3101196 17.2307653,22.6509025 17.5354077,22.0113636 C17.6369552,21.7949042 17.7385026,21.588284 17.8400501,21.3816637 C18.043145,20.9684231 18.2360852,20.5650217 18.4290254,20.1714592 C18.6118109,19.807414 18.7844416,19.4532078 18.9570723,19.0990016 C19.0180007,18.9809329 19.0789292,18.8628642 19.129703,18.7546345 C19.1398577,18.7349564 19.1500124,18.7152783 19.1601672,18.6956002 L18.967227,18.7152783 L18.8149058,18.4299455 C18.8047511,18.4594627 18.7844416,18.4889799 18.7742868,18.5184971 C18.5001086,19.0399673 18.2259305,19.5712765 17.9619071,20.1124249 C17.8095859,20.4174358 17.6572647,20.7322857 17.4947887,21.0471356 C17.0682893,21.912973 16.6519447,22.7788103 16.2457548,23.6643257 C15.8294102,24.5498412 15.4232203,25.4451957 15.0271852,26.3307111 C14.6311501,27.2063875 14.2554245,28.0820639 13.8796988,28.9577403 C13.5039732,29.8334167 13.1384023,30.699254 12.7829862,31.5650914 C12.4072605,32.4702849 12.0416896,33.3656394 11.6964282,34.2511549 C11.6151903,34.4479361 11.5339523,34.6545564 11.4628691,34.8513376 C11.1785361,35.569589 10.904358,36.2681623 10.6403346,36.9667356 L10.8840485,37.4291715 L11.0972982,37.4094933 C11.1074529,37.3898152 11.1176077,37.3701371 11.1176077,37.350459 C11.4324048,36.4157482 11.7776662,35.5203937 12.1127729,34.6545564 L12.1127729,34.6545564 Z" id="path4716"></path>
                    <g id="path4718" transform="translate(-0.001840, 0.001385)"></g>
                    <path d="M21.8917941,25.7994019 C21.6886992,25.8546668 21.4856042,25.8961156 21.2825093,25.9375643 C21.2825093,25.9375643 21.2825093,25.9375643 21.2825093,25.9375643 C21.3840568,25.923748 21.495759,25.8961156 21.5973064,25.8684831 C21.6988539,25.8546668 21.8004014,25.8270344 21.8917941,25.7994019 Z" id="path4720" fill="#4CAFDE" fill-rule="nonzero"></path>
                    <path d="M21.8917941,25.7994019 C21.6886992,25.8546668 21.4856042,25.8961156 21.2825093,25.9375643 C21.2825093,25.9375643 21.2825093,25.9375643 21.2825093,25.9375643 C21.3840568,25.923748 21.495759,25.8961156 21.5973064,25.8684831 C21.6988539,25.8546668 21.8004014,25.8270344 21.8917941,25.7994019 Z" id="path4722" fill="#4CAFDE" fill-rule="nonzero" opacity="0.35"></path>
                    <path d="M22.4198409,23.3459142 C22.4198409,23.3459142 22.4198409,23.3459142 22.4198409,23.3459142 C22.4096862,23.3459142 22.4096862,23.3459142 22.4198409,23.3459142 C22.4503052,23.3459142 22.4807694,23.3320979 22.5112337,23.3320979 C22.6432454,23.3044654 22.7752571,23.276833 22.897114,23.2353842 C22.7447928,23.276833 22.5823169,23.3044654 22.4198409,23.3459142 L22.4198409,23.3459142 L22.4198409,23.3459142 L22.4198409,23.3459142 Z" id="path4724" fill="#4CAFDE" fill-rule="nonzero"></path>
                    <path d="M22.4198409,23.3459142 C22.4198409,23.3459142 22.4198409,23.3459142 22.4198409,23.3459142 C22.4096862,23.3459142 22.4096862,23.3459142 22.4198409,23.3459142 C22.4503052,23.3459142 22.4807694,23.3320979 22.5112337,23.3320979 C22.6432454,23.3044654 22.7752571,23.276833 22.897114,23.2353842 C22.7447928,23.276833 22.5823169,23.3044654 22.4198409,23.3459142 L22.4198409,23.3459142 L22.4198409,23.3459142 L22.4198409,23.3459142 Z" id="path4726" fill="#4CAFDE" fill-rule="nonzero" opacity="0.35"></path>
                    <path d="M20.1248681,15.9800194 C20.6021412,15.1240212 21.0794144,14.287701 21.5566875,13.471059 C22.0542701,12.6248998 22.5620074,11.8082578 23.0798995,11.0112939 C23.1103637,10.9620986 23.140828,10.9129033 23.1712922,10.873547 C23.6790296,10.0962612 24.1867669,9.34849262 24.704659,8.6302412 L23.1509827,5.79659176 C23.0392805,5.93433861 22.9174235,6.07208546 22.7955666,6.21967136 C22.3487577,6.7608197 21.8816394,7.34132427 21.4043663,7.96118508 C20.8661647,8.65975838 20.3178083,9.39768792 19.7491425,10.1749737 C19.2312504,10.8932251 18.7032036,11.6508328 18.1751567,12.4281186 C17.7283479,13.0971747 17.281539,13.7760699 16.8347302,14.4746432 C16.8144207,14.5041604 16.8042659,14.5238385 16.7839564,14.5533557 L18.8047511,18.4201065 C19.2515599,17.6034644 19.688214,16.7868224 20.1248681,15.9800194 L20.1248681,15.9800194 Z" id="path4737" fill="#4CAFDE" fill-rule="nonzero"></path>
                    <path d="M10.9145127,37.7932167 C10.6504893,38.5016291 10.3763111,39.2297195 10.1122877,39.9774881 C10.1122877,39.9873272 10.102133,39.9971663 10.102133,40.0070053 C10.061514,40.115235 10.020895,40.2136256 9.99043076,40.3218553 C9.80764532,40.8236473 9.65532412,41.2762441 9.28975323,42.2995064 C9.8888833,42.5651611 10.3661564,43.2538953 10.8129653,44.0410202 C10.7621915,43.2243781 10.4169301,42.4569314 9.75687159,41.8665878 C12.6915934,41.9944956 15.2302802,41.2762441 16.5300878,39.1903633 C16.64179,39.0034211 16.7534922,38.8066399 16.8550397,38.6000197 C16.2559096,39.3281101 15.5247678,39.6429601 14.1335675,39.5642476 C14.1335675,39.5642476 14.1234127,39.5642476 14.1234127,39.5642476 C14.1234127,39.5642476 14.1335675,39.5642476 14.1335675,39.5642476 C16.1746716,38.6787321 17.200301,37.8227339 18.1040735,36.4157482 C18.3173232,36.0812202 18.5305729,35.7171749 18.7438226,35.3137734 C16.9565871,37.0946434 14.8850188,37.5964355 12.7017482,37.2127121 L11.0668339,37.3898152 C11.0160602,37.5275621 10.9652865,37.6554698 10.9145127,37.7932167 Z" id="path4748" fill="#4CAFDE" fill-rule="nonzero"></path>
                    <path d="M11.6761187,34.2413158 C12.0315349,33.3558004 12.3971058,32.4604459 12.7626767,31.5552523 C13.1180928,30.689415 13.4836637,29.8235776 13.8593893,28.9479013 C14.235115,28.0722249 14.6209953,27.1965485 15.0068757,26.3208721 C15.4029108,25.4255176 15.8091007,24.5400021 16.2254453,23.6544867 C16.6316352,22.7788103 17.0581346,21.9031339 17.4744792,21.0372966 C17.6268004,20.7224466 17.7791216,20.4174358 17.9415976,20.1025858 C18.205621,19.5712765 18.4797992,19.0399673 18.7539773,18.508658 C18.7641321,18.4791408 18.7844416,18.4496236 18.7945963,18.4201065 L16.7941112,14.5631947 C16.7636469,14.61239 16.7331827,14.6714244 16.6925637,14.7206197 C16.2254453,15.4683883 15.7481722,16.225996 15.2912086,17.0032817 C14.8240903,17.7904066 14.3671267,18.5873705 13.9203178,19.4040125 C13.5445922,20.0927468 13.1790213,20.781481 12.8134504,21.4800543 C12.7423672,21.6178011 12.6712839,21.765387 12.6002007,21.9031339 C12.1635466,22.7788103 11.7573567,23.6348086 11.4019406,24.4514506 C10.9957507,25.3763223 10.6403346,26.2618377 10.3255374,27.0981579 C10.1224425,27.6491453 9.92950228,28.1804545 9.75687159,28.6920857 C9.61470513,29.1250043 9.48269342,29.5677621 9.35068171,30.0006807 C9.0460393,31.023943 8.79217063,32.0472053 8.57892095,33.0704676 L10.6098703,36.9568965 C10.8738937,36.2583232 11.1582267,35.5597499 11.4324048,34.8414985 C11.5136428,34.6447173 11.5948808,34.4479361 11.6761187,34.2413158 L11.6761187,34.2413158 Z" id="path4759" fill="#4CAFDE" fill-rule="nonzero"></path>
                    <path d="M8.54845671,33.2082145 C8.29458804,34.4479361 8.11180259,35.6876577 8.02040987,36.9273794 C8.02040987,36.9667356 8.01025512,37.0159309 8.01025512,37.0552872 C7.38066082,36.0713811 5.67466334,35.1071532 5.68481809,35.1169922 C6.90338771,36.8289888 7.82746968,38.5213072 7.95948139,40.1841084 C7.30957759,40.3120162 6.41595986,40.125074 5.39033043,39.7610288 C6.4667336,40.7154177 7.2689586,40.9810723 7.58375575,41.0499457 C6.59874531,41.1089801 5.57311587,41.7681972 4.53733169,42.5258048 C6.05038898,41.9256221 7.27911335,41.6894847 8.15242158,41.8862659 C6.76122126,45.6939823 5.37002094,49.9051002 3.97882061,54.3720337 C4.40531998,54.253965 4.65918865,53.9686323 4.80135511,53.594748 C5.04506903,52.787945 6.70029278,47.4748523 9.27959848,40.4989583 C9.35068171,40.3021771 9.43191969,40.1053959 9.50300291,39.8987757 C9.52331241,39.8397413 9.5436219,39.790546 9.56393139,39.7315116 C9.83810956,39.0034211 10.1224425,38.2556525 10.4169301,37.4882058 C10.4880134,37.3111027 10.5489418,37.1438387 10.6200251,36.9667356 C10.6200251,36.9667356 10.6200251,36.9568965 10.6200251,36.9568965 L8.58907569,33.0704676 C8.5687662,33.1196629 8.55861145,33.1590192 8.54845671,33.2082145 L8.54845671,33.2082145 Z" id="path4770" fill="#4CAFDE" fill-rule="nonzero"></path>
                    <path d="M19.129703,18.7546345 C19.0687745,18.8727032 19.0180007,18.9809329 18.9570723,19.0990016 C18.7844416,19.4532078 18.6016561,19.807414 18.4290254,20.1714592 C18.2360852,20.5650217 18.043145,20.9684231 17.8400501,21.3816637 C17.7385026,21.588284 17.6369552,21.7949042 17.5354077,22.0113636 C17.2307653,22.6509025 16.9261229,23.3101196 16.6113257,23.9890147 C16.2254453,24.8253349 15.839565,25.6911722 15.4435298,26.5963658 C15.0678042,27.452364 14.6819238,28.3477186 14.2960434,29.2627512 C13.9304726,30.1384276 13.5547469,31.0337821 13.1790213,31.9684928 C12.8439146,32.7949739 12.508808,33.6509722 12.1635466,34.5266486 C12.1432371,34.5660048 12.1330824,34.6152001 12.1127729,34.6545564 C11.7776662,35.5203937 11.4324048,36.4157482 11.0871434,37.3307808 C11.0769887,37.350459 11.0668339,37.3701371 11.0668339,37.3898152 L12.7017482,37.2127121 C12.6712839,37.2028731 12.6408197,37.2028731 12.6002007,37.193034 C14.5600669,36.9568965 17.1596821,35.5400718 18.8352153,33.788719 C19.6069761,32.9819161 20.3076536,32.0373663 20.9575574,30.9255524 C21.4449852,30.0990713 21.8917941,29.1840387 22.3284482,28.1607764 C22.7041739,27.275261 23.0697447,26.311033 23.4150061,25.2680926 C22.9681973,25.494391 22.4503052,25.661655 21.8816394,25.7797238 C21.7800919,25.7994019 21.6785444,25.81908 21.5769969,25.8387581 C21.4754495,25.8584362 21.373902,25.8682753 21.2621998,25.8879534 L21.2621998,25.8879534 L21.2621998,25.8879534 C21.2621998,25.8879534 21.2621998,25.8879534 21.2621998,25.8879534 C23.0900542,25.2090582 24.2375406,23.9004632 25.0702299,22.2868573 C24.5929568,22.6017072 23.8110413,23.0149477 22.8768045,23.221568 C22.7549476,23.2510852 22.6229359,23.2707633 22.4909242,23.2904414 C22.4604599,23.2904414 22.4299957,23.3002805 22.3893767,23.3002805 L22.3893767,23.3002805 L22.3893767,23.3002805 C22.3893767,23.3002805 22.3893767,23.3002805 22.3893767,23.3002805 C22.3893767,23.3002805 22.3893767,23.3002805 22.3893767,23.3002805 L22.3893767,23.3002805 C23.018971,23.0444649 23.5571726,22.7591322 24.0242909,22.414765 C24.1258384,22.3458916 24.2172311,22.2671791 24.3086239,22.1884667 C24.4507903,22.0703979 24.582802,21.9424901 24.7148137,21.8145823 C24.7960517,21.7260308 24.8772897,21.6473183 24.9585277,21.5587668 C25.1413131,21.3521465 25.3139438,21.1258481 25.466265,20.8798716 C25.5170387,20.8011591 25.5678125,20.7322857 25.6084315,20.6535732 C25.6693599,20.5355045 25.7302884,20.4272748 25.7810622,20.3190451 C26.0349308,19.8270921 26.2380258,19.3843344 26.4005017,18.990772 C26.4817397,18.7939908 26.5528229,18.6168877 26.6137514,18.4496236 C26.6340609,18.3807502 26.6645251,18.3217159 26.6848346,18.2528424 C26.7457631,18.0659003 26.8066916,17.8986362 26.8473106,17.7510503 C26.9082391,17.534591 26.948858,17.3574879 26.9691675,17.2295801 L26.9691675,17.2295801 L26.9691675,17.2295801 C26.9082391,17.2787754 26.8371558,17.3279707 26.7559179,17.367327 C26.2075615,17.6821769 25.2631701,17.9773487 24.5015641,18.1150956 L26.0044666,17.9576706 L24.5015641,18.1150956 C24.4914093,18.1150956 24.4812546,18.1150956 24.4710998,18.1249346 C24.4000166,18.1347737 24.3187786,18.1446128 24.2375406,18.1642909 C24.2476954,18.1544518 24.2680049,18.1544518 24.2781596,18.1446128 L19.1398577,18.6857611 C19.1500124,18.7251173 19.1398577,18.7447955 19.129703,18.7546345 L19.129703,18.7546345 Z" id="path4781" fill="#4CAFDE" fill-rule="nonzero"></path>
                    <path d="M24.9179087,8.69911463 C24.4609451,9.3780098 23.9633625,10.1552956 23.4251609,11.0211329 C23.3946966,11.0703282 23.3642324,11.1096845 23.3439229,11.1588798 C22.8768045,11.9164874 22.3893767,12.7429685 21.8714846,13.6580011 C21.4246757,14.445126 20.9575574,15.2814461 20.4701295,16.1964788 C20.0436302,16.9836036 19.6171308,17.8199238 19.1601672,18.7054392 L24.2984691,18.1642909 C25.7912169,17.4952348 26.4614302,16.8950521 27.111334,16.0193757 C27.2839647,15.7832382 27.4565954,15.5274227 27.6292261,15.261768 C28.1572729,14.4648041 28.675165,13.5891277 29.1321286,12.7134513 C29.5789375,11.8672921 29.9749726,11.030972 30.2694603,10.2832034 C30.4624005,9.80108941 30.6147217,9.35833168 30.7264239,8.96476926 C30.8178166,8.62040214 30.8888998,8.29571314 30.9498283,7.9808632 C28.9594979,8.3055522 26.5122039,8.62040214 24.9179087,8.69911463 Z" id="path4792" fill="#4CAFDE" fill-rule="nonzero"></path>
                    <path d="M21.5973064,25.8683792 C21.495759,25.8960117 21.3942115,25.9098279 21.2825093,25.9374604 L21.2825093,25.9374604 C21.3840568,25.9098279 21.4856042,25.8821954 21.5973064,25.8683792 Z" id="path4794" fill="#4CAFDE" fill-rule="nonzero"></path>
                    <path d="M21.5973064,25.8683792 C21.495759,25.8960117 21.3942115,25.9098279 21.2825093,25.9374604 L21.2825093,25.9374604 C21.3840568,25.9098279 21.4856042,25.8821954 21.5973064,25.8683792 Z" id="path4796" fill="#4CAFDE" fill-rule="nonzero" opacity="0.35"></path>
                    <path d="M21.5973064,25.8683792 C21.495759,25.8960117 21.3942115,25.9098279 21.2825093,25.9374604 L21.2825093,25.9374604 C21.3840568,25.9098279 21.4856042,25.8821954 21.5973064,25.8683792 Z" id="path4807" fill="#4CAFDE" fill-rule="nonzero"></path>
                    <path d="M22.4096862,23.331994 C22.4520775,23.331994 22.4944688,23.3181778 22.5509905,23.3181778 C22.5085992,23.3181778 22.4662079,23.331994 22.4096862,23.331994 L22.4096862,23.331994 Z" id="path4809" fill="#4CAFDE" fill-rule="nonzero"></path>
                    <path d="M22.4096862,23.331994 C22.4520775,23.331994 22.4944688,23.3181778 22.5509905,23.3181778 C22.5085992,23.3181778 22.4662079,23.331994 22.4096862,23.331994 L22.4096862,23.331994 Z" id="path4811" fill="#4CAFDE" fill-rule="nonzero" opacity="0.35"></path>
                    <path d="M22.4096862,23.331994 C22.4520775,23.331994 22.4944688,23.3181778 22.5509905,23.3181778 C22.5085992,23.3181778 22.4662079,23.331994 22.4096862,23.331994 L22.4096862,23.331994 Z" id="path4822" fill="#4CAFDE" fill-rule="nonzero"></path>
                    <g id="path4824" transform="translate(-0.001840, 0.001385)"></g>
                    <g id="path4826" opacity="0.35" transform="translate(-0.001840, 0.001385)"></g>
                    <g id="path4837" transform="translate(-0.001840, 0.001385)"></g>
                </g>
            </g>
        </g>
    </g>
</svg>