<?xml version="1.0" encoding="UTF-8"?>
<svg width="40px" height="39px" viewBox="0 0 40 39" version="1.1" xmlns="http://www.w3.org/2000/svg" xmlns:xlink="http://www.w3.org/1999/xlink">
    <!-- Generator: Sketch 50.2 (55047) - http://www.bohemiancoding.com/sketch -->
    <title>micronaut_mini</title>
    <desc>Created with Sketch.</desc>
    <defs></defs>
    <g id="Page-1" stroke="none" stroke-width="1" fill="none" fill-rule="evenodd">
        <g id="micronaut_mini" fill="#231F20" fill-rule="nonzero">
            <path d="M26.9687935,19.8790023 C27.3181221,19.9705926 27.6835453,19.8029388 27.8419568,19.4784007 C28.0003684,19.1538626 27.9077453,18.7626301 27.620638,18.5435672 C27.3335306,18.3245042 26.9317267,18.338489 26.6605446,18.5769832 C26.3893625,18.8154774 26.3241644,19.2122029 26.5047564,19.524942 C26.6063269,19.6998604 26.7732614,19.8272314 26.9687935,19.8790023 Z" id="Path_242"></path>
            <path d="M26.2907193,16.3270302 C26.5886425,16.2474044 26.8092273,15.9960994 26.8495549,15.6903672 C26.8898826,15.384635 26.7420056,15.084728 26.474919,14.9305744 C26.2078325,14.7764209 25.8741729,14.7984008 25.6296165,14.986259 C25.3850601,15.1741171 25.2778031,15.4908311 25.3578886,15.7886311 C25.4670865,16.194686 25.8844963,16.4356012 26.2907193,16.3270302 Z" id="Path_243"></path>
            <path d="M22.8474478,12.5114849 C22.5906782,12.7687735 22.5513288,13.1715804 22.753451,13.4736973 C22.9555733,13.7758142 23.3429134,13.8931572 23.678717,13.7540025 C24.0145205,13.6148478 24.2053279,13.2579245 24.1345118,12.9013952 C24.0636956,12.5448659 23.7509651,12.2879586 23.387471,12.287703 C23.1848756,12.2875606 22.9905597,12.3680838 22.8474478,12.5114849 Z" id="Path_244"></path>
            <path d="M19.9690255,11.4662413 C19.5625304,11.3584678 19.1455568,11.600298 19.037235,12.0066474 C18.9289133,12.4129968 19.1701807,12.8302962 19.5763836,12.9391661 C19.9825864,13.0480359 20.400211,12.8073317 20.5096288,12.4012761 C20.5623623,12.205579 20.5349794,11.9969376 20.4335336,11.8214755 C20.3320879,11.6460135 20.1649344,11.5181823 19.9690255,11.4662413 Z" id="Path_245"></path>
            <path d="M16.4171694,14.0116009 C16.7150926,13.9319751 16.9356774,13.6806702 16.9760051,13.374938 C17.0163327,13.0692057 16.8684557,12.7692987 16.6013691,12.6151452 C16.3342826,12.4609917 16.0006231,12.4829716 15.7560667,12.6708297 C15.5115102,12.8586879 15.4042532,13.1754019 15.4843387,13.4732019 C15.5935366,13.8792568 16.0109464,14.120172 16.4171694,14.0116009 Z" id="Path_246"></path>
            <path d="M13.1400232,15.4429234 C12.8859003,15.6995638 12.8482188,16.0998842 13.0499881,16.399437 C13.2517574,16.6989898 13.6368948,16.8145127 13.9702237,16.6754641 C14.3035527,16.5364154 14.4924228,16.1814444 14.4215043,15.827307 C14.3505858,15.4731696 14.0395908,15.2183001 13.6784223,15.2183295 C13.4762732,15.2188333 13.2826043,15.2996225 13.1400232,15.4429234 Z" id="Path_247"></path>
            <path d="M13.0292343,18.8685615 C12.7314344,18.788476 12.4147204,18.895733 12.2268622,19.1402894 C12.0390041,19.3848458 12.0170242,19.7185054 12.1711777,19.9855919 C12.3253312,20.2526784 12.6252382,20.4005555 12.9309704,20.3602278 C13.2367027,20.3199001 13.4880076,20.0993153 13.5676334,19.8013921 C13.6762044,19.3951691 13.4352893,18.9777593 13.0292343,18.8685615 Z" id="Path_248"></path>
            <path d="M13.7069606,22.4138051 C13.4090373,22.4934309 13.1884525,22.7447358 13.1481249,23.0504681 C13.1077972,23.3562003 13.2556743,23.6561073 13.5227608,23.8102608 C13.7898473,23.9644143 14.1235069,23.9424344 14.3680633,23.7545763 C14.6126197,23.5667182 14.7198767,23.2500042 14.6397912,22.9522042 C14.5305933,22.5461492 14.1131836,22.3052341 13.7069606,22.4138051 Z" id="Path_249"></path>
            <path d="M17.1461717,26.2293503 C17.401935,25.9725638 17.440783,25.5709038 17.238972,25.2698614 C17.0371611,24.968819 16.6508537,24.852172 16.3161575,24.9912141 C15.9814614,25.1302561 15.7915199,25.4862929 15.8624237,25.8417177 C15.9333274,26.1971426 16.2453444,26.4530436 16.6077726,26.4530162 C16.8097884,26.4527584 17.0034385,26.3723108 17.1461717,26.2293503 Z" id="Path_250"></path>
            <path d="M20.0266821,27.2729698 C20.3244821,27.3530554 20.6411961,27.2457983 20.8290543,27.0012419 C21.0169124,26.7566855 21.0388923,26.423026 20.8847388,26.1559394 C20.7305852,25.8888529 20.4306783,25.7409758 20.124946,25.7813035 C19.8192138,25.8216312 19.5679089,26.042216 19.4882831,26.3401392 C19.379712,26.7463622 19.6206272,27.163772 20.0266821,27.2729698 Z" id="Path_251"></path>
            <path d="M23.5719258,24.7292343 C23.2739261,24.8091216 23.0534798,25.060781 23.0135204,25.3667042 C22.9735611,25.6726274 23.1219714,25.9724663 23.3894536,26.1262162 C23.6569358,26.2799661 23.9907249,26.2572973 24.2349636,26.0687947 C24.4792022,25.8802921 24.5857106,25.5631408 24.5047564,25.2654292 C24.3945837,24.8602662 23.9774809,24.6205137 23.5719258,24.7292343 Z" id="Path_252"></path>
            <path d="M26.8580046,23.300116 C27.0762719,23.0822421 27.1417329,22.7543067 27.0238424,22.4693304 C26.9059519,22.1843541 26.6279461,21.9985059 26.3195476,21.9985059 C26.011149,21.9985059 25.7331432,22.1843541 25.6152527,22.4693304 C25.4973622,22.7543067 25.5628232,23.0822421 25.7810905,23.300116 C26.0786291,23.5971184 26.560466,23.5971184 26.8580046,23.300116 Z" id="Path_253"></path>
            <path d="M31.0059165,18.5339907 C30.5972466,18.4276292 30.1702913,18.6243609 29.9856165,19.0041227 C29.8009417,19.3838846 29.9098408,19.8411976 30.2458541,20.0969688 C30.5818673,20.3527401 31.0516668,20.3359291 31.3685394,20.0567954 C31.6854119,19.7776617 31.761346,19.3137347 31.55,18.9481439 C31.4313353,18.7428751 31.2353729,18.5937097 31.0059165,18.5339907 Z" id="Path_254"></path>
            <path d="M29.574478,14.8669374 C29.9816945,14.7551471 30.2534901,14.3715859 30.223992,13.9503351 C30.1944939,13.5290843 29.8718952,13.1871455 29.4530729,13.1331986 C29.0342506,13.0792518 28.6355317,13.3282806 28.5002482,13.7283065 C28.3649648,14.1283325 28.5306914,14.5682492 28.8962877,14.7795824 C29.1015659,14.8982435 29.3458305,14.9297063 29.574478,14.8669374 Z" id="Path_255"></path>
            <path d="M24.7795824,10.6813225 C25.0803833,10.9775766 25.548398,11.0205309 25.8980996,10.7839797 C26.2478013,10.5474284 26.3821036,10.0970445 26.2190714,9.70759844 C26.0560392,9.31815242 25.6409343,9.0977646 25.2270044,9.18088941 C24.8130744,9.26401421 24.5152371,9.62757405 24.5151972,10.049768 C24.5151748,10.287201 24.6104182,10.5147154 24.7795824,10.6813225 Z" id="Path_256"></path>
            <path d="M19.8051044,9.45591647 C20.2137354,9.56185445 20.6403747,9.36488988 20.8247909,8.98516263 C21.0092071,8.60543538 20.9002152,8.14833919 20.5642956,7.89268292 C20.228376,7.63702665 19.7587635,7.653768 19.4419014,7.93269547 C19.1250393,8.21162294 19.0488731,8.67531989 19.2598608,9.04095128 C19.3786306,9.24677363 19.5750766,9.39628154 19.8051044,9.45591647 Z" id="Path_257"></path>
            <path d="M14.4008121,9.1612529 C13.994015,9.2751551 13.7241448,9.66033025 13.7559985,10.08157 C13.7878521,10.5028097 14.1125754,10.8430224 14.531875,10.8944561 C14.9511745,10.9458898 15.3484981,10.6942475 15.4812188,10.2931954 C15.6139395,9.89214335 15.4451651,9.45316153 15.0779582,9.24431555 C14.872367,9.1273872 14.6285689,9.09748152 14.4008121,9.1612529 Z" id="Path_258"></path>
            <path d="M10.0556845,14.5899072 C10.3561015,14.8867642 10.8242506,14.9304057 11.1743613,14.6941919 C11.524472,14.4579781 11.6592718,14.007537 11.4964754,13.6178297 C11.333679,13.2281224 10.9185166,13.0074225 10.5044144,13.0904512 C10.0903121,13.1734798 9.79232129,13.5371688 9.79234339,13.9595128 C9.79235578,14.1963921 9.88719008,14.4234095 10.0556845,14.5899072 Z" id="Path_259"></path>
            <path d="M8.98990719,20.1980278 C9.39853816,20.3039658 9.82517749,20.1070013 10.0095937,19.727274 C10.1940099,19.3475468 10.085018,18.8904506 9.7490984,18.6347943 C9.41317878,18.379138 8.9435663,18.3958794 8.62670421,18.6748068 C8.30984212,18.9537343 8.23367587,19.4174313 8.44466357,19.7830626 C8.56343343,19.988885 8.75987938,20.1383929 8.98990719,20.1980278 Z" id="Path_260"></path>
            <path d="M10.4212297,23.8740139 C10.0140131,23.9858041 9.7422176,24.3693654 9.77171569,24.7906162 C9.80121378,25.211867 10.1238125,25.5538058 10.5426348,25.6077526 C10.9614571,25.6616995 11.3601759,25.4126707 11.4954594,25.0126448 C11.6307429,24.6126188 11.4650163,24.1727021 11.09942,23.9613689 C10.8941417,23.8427077 10.6498772,23.811245 10.4212297,23.8740139 Z" id="Path_261"></path>
            <path d="M15.2184455,28.0597448 C14.9176368,27.763483 14.4496071,27.7205351 14.0999042,27.9571039 C13.7502012,28.1936726 13.6159169,28.6440769 13.7789788,29.0335223 C13.9420408,29.4229678 14.3571763,29.6433283 14.7711088,29.5601607 C15.1850412,29.4769932 15.482846,29.1133881 15.4828306,28.6911833 C15.482822,28.4537905 15.3875809,28.2263237 15.2184455,28.0597448 Z" id="Path_262"></path>
            <path d="M20.2040603,29.2827146 C19.7953905,29.1763531 19.3684352,29.3730848 19.1837603,29.7528466 C18.9990855,30.1326085 19.1079847,30.5899215 19.4439979,30.8456927 C19.7800112,31.101464 20.2498107,31.084653 20.5666832,30.8055193 C20.8835558,30.5263856 20.9594899,30.0624586 20.7481439,29.6968677 C20.6294791,29.491599 20.4335167,29.3424336 20.2040603,29.2827146 Z" id="Path_263"></path>
            <path d="M25.5950116,29.5773782 C26.0022214,29.4653027 26.2737781,29.081461 26.2439115,28.6601669 C26.214045,28.2388727 25.8910535,27.89718 25.4721051,27.8436728 C25.0531567,27.7901656 24.6546536,28.0397106 24.5198594,28.4399746 C24.3850652,28.8402386 24.5514316,29.2800109 24.9174014,29.4908353 C25.1226347,29.6090641 25.3666512,29.6402293 25.5950116,29.5773782 Z" id="Path_264"></path>
            <path d="M29.9489559,24.1488399 C29.6481472,23.8525781 29.1801175,23.8096302 28.8304146,24.046199 C28.4807117,24.2827678 28.3464273,24.7331721 28.5094893,25.1226175 C28.6725512,25.5120629 29.0876868,25.7324235 29.5016192,25.6492559 C29.9155517,25.5660883 30.2133564,25.2024833 30.2133411,24.7802784 C30.2133324,24.5428856 30.1180914,24.3154188 29.9489559,24.1488399 Z" id="Path_265"></path>
            <path d="M34.1656613,22.1457077 C34.6158965,22.2671605 35.0949459,22.1052494 35.3791818,21.735557 C35.6634178,21.3658646 35.6967879,20.8612955 35.4637146,20.4573903 C35.2306412,20.0534852 34.7770873,19.8298955 34.3147787,19.8909964 C33.8524701,19.9520973 33.4725758,20.2858395 33.3524362,20.7364269 C33.1888336,21.350024 33.5525438,21.9803167 34.1656613,22.1457077 Z" id="Path_266"></path>
            <path d="M34.4691415,13.2781903 C34.3033331,12.6655936 33.6726137,12.303118 33.0598371,12.4682605 C32.4470606,12.633403 32.0838997,13.2637281 32.2483761,13.8766837 C32.4128524,14.4896394 33.0427824,14.8534852 33.6559165,14.6896752 C33.951208,14.6107826 34.2029457,14.4175829 34.3555313,14.1527456 C34.508117,13.8879084 34.5489965,13.573223 34.4691415,13.2781903 Z" id="Path_267"></path>
            <path d="M29.4858469,6.85916473 C29.1564088,6.52939964 28.6607355,6.43061239 28.230046,6.6088847 C27.7993565,6.78715701 27.5185073,7.20736477 27.5185073,7.67349188 C27.5185073,8.13961899 27.7993565,8.55982675 28.230046,8.73809906 C28.6607355,8.91637137 29.1564088,8.81758412 29.4858469,8.48781903 C29.9352719,8.03794794 29.9352719,7.30903582 29.4858469,6.85916473 Z" id="Path_268"></path>
            <path d="M21.3558005,6.01705336 C21.9691926,6.18126035 22.599587,5.81723648 22.7639801,5.20389419 C22.9283731,4.59055189 22.5645405,3.9600471 21.9512481,3.79546798 C21.3379557,3.63088886 20.7073406,3.99453018 20.5425754,4.60777262 C20.4633884,4.90250034 20.5045979,5.21661752 20.6571285,5.48094581 C20.8096591,5.7452741 21.0610008,5.93813458 21.3558005,6.01705336 Z" id="Path_269"></path>
            <path d="M14.5027842,7.124942 C15.0310968,6.98220916 15.3851637,6.48634559 15.3486596,5.94031054 C15.3121555,5.39427549 14.8952345,4.94995477 14.352624,4.87881634 C13.8100135,4.80767792 13.2926468,5.12950974 13.1166209,5.64768126 C12.9405951,6.16585278 13.1548737,6.73622874 13.6285383,7.01032483 C13.893151,7.16316713 14.207715,7.20440774 14.5027842,7.124942 Z" id="Path_270"></path>
            <path d="M9.11612529,9.88364269 C8.72829794,9.49737549 8.12167924,9.43871028 7.6670206,9.74350191 C7.21236197,10.0482935 7.03618753,10.6317234 7.24617106,11.1372126 C7.45615459,11.6427018 7.99386106,11.9295809 8.53065665,11.8225159 C9.06745224,11.7154509 9.45395541,11.2442364 9.45394432,10.6968677 C9.45369522,10.3917082 9.33216869,10.0991598 9.11612529,9.88364269 Z" id="Path_271"></path>
            <path d="M5.83027842,16.5950116 C5.21688628,16.4308046 4.5864919,16.7948285 4.42209884,17.4081708 C4.25770577,18.0215131 4.62153838,18.6520179 5.23483078,18.816597 C5.84812318,18.9811761 6.47873831,18.6175348 6.64350348,18.0042923 C6.72269053,17.7095646 6.68148096,17.3954474 6.5289504,17.1311192 C6.37641983,16.8667909 6.12507809,16.6739304 5.83027842,16.5950116 Z" id="Path_272"></path>
            <path d="M6.34211137,24.0512761 C5.81378294,24.1942604 5.45991702,24.6903982 5.49676709,25.2364912 C5.53361715,25.7825841 5.95092975,26.2266831 6.49367807,26.2973918 C7.03642638,26.3681004 7.55359192,26.0457442 7.72912604,25.5273204 C7.90466016,25.0088966 7.68972088,24.4386555 7.21566125,24.1650812 C6.9511261,24.0127017 6.63685772,23.9717592 6.34211137,24.0512761 Z" id="Path_273"></path>
            <path d="M12.1385151,30.2532483 C11.7506877,29.8669811 11.144069,29.8083159 10.6894104,30.1131075 C10.2347518,30.4178991 10.0585773,31.001329 10.2685609,31.5068182 C10.4785444,32.0123074 11.0162509,32.2991864 11.5530464,32.1921215 C12.089842,32.0850565 12.4763452,31.6138419 12.4763341,31.0664733 C12.476085,30.7613138 12.3545585,30.4687654 12.1385151,30.2532483 Z" id="Path_274"></path>
            <path d="M18.6330626,32.7238979 C18.1830045,32.6027316 17.7042759,32.7646419 17.4201561,33.1341139 C17.1360362,33.5035858 17.1024927,34.0078385 17.3351703,34.4116885 C17.5678479,34.8155384 18.0209122,35.0394327 18.4830541,34.978947 C18.945196,34.9184613 19.3253798,34.5855105 19.4462877,34.1353828 C19.6112966,33.5210718 19.2472789,32.8892595 18.6330626,32.7238979 Z" id="Path_275"></path>
            <path d="M25.4930394,31.6178654 C24.879797,31.7826306 24.5161557,32.4132457 24.6807348,33.0265381 C24.8453139,33.6398305 25.4758187,34.0036631 26.089161,33.8392701 C26.7025033,33.674877 27.0665272,33.0444826 26.9023202,32.4310905 C26.8234014,32.1362908 26.6305409,31.8849491 26.3662126,31.7324185 C26.1018843,31.5798879 25.7877672,31.5386784 25.4930394,31.6178654 Z" id="Path_276"></path>
            <path d="M32.5082367,28.8573086 C32.8371377,28.5284122 32.9355298,28.0337754 32.7575326,27.6040478 C32.5795354,27.1743203 32.1602027,26.89413 31.6950696,26.89413 C31.2299365,26.89413 30.8106038,27.1743203 30.6326066,27.6040478 C30.4546094,28.0337754 30.5530015,28.5284122 30.8819026,28.8573086 C31.3310042,29.3064039 32.059135,29.3064039 32.5082367,28.8573086 Z" id="Path_277"></path>
            <path d="M38.2736659,22.8791183 C37.5584765,22.6877167 36.8235324,23.1123004 36.632081,23.8274765 C36.4406296,24.5426525 36.8651622,25.2776261 37.5803249,25.4691273 C38.2954876,25.6606285 39.0304908,25.2361471 39.2220418,24.5209977 C39.3140448,24.1775071 39.265809,23.8115359 39.0879484,23.5036139 C38.9100877,23.195692 38.6171757,22.9710497 38.2736659,22.8791183 Z" id="Path_278"></path>
            <path d="M38.2736659,15.8618329 C38.8835488,15.6920118 39.2890803,15.1156883 39.2429818,14.4842841 C39.1968833,13.85288 38.7119441,13.3415693 38.083863,13.2621313 C37.4557818,13.1826933 36.858811,13.557167 36.6569623,14.1572114 C36.4551135,14.7572559 36.7043868,15.4163974 37.2527842,15.7327146 C37.5623541,15.9098409 37.9297447,15.9563074 38.2736659,15.8618329 Z" id="Path_279"></path>
            <path d="M32.1735499,7.19361949 C32.697191,7.71669918 33.5456791,7.71639579 34.068946,7.19294176 C34.5922129,6.66948772 34.5922129,5.82099952 34.068946,5.29754548 C33.5456791,4.77409145 32.697191,4.77378805 32.1735499,5.29686775 C31.9218487,5.54829908 31.7804217,5.88947515 31.7804217,6.24524362 C31.7804217,6.60101209 31.9218487,6.94218816 32.1735499,7.19361949 Z" id="Path_280"></path>
            <path d="M24.4582367,2.73770302 C25.1733515,2.92901837 25.908171,2.50445008 26.0995774,1.78935959 C26.2909838,1.0742691 25.866509,0.339395589 25.1514429,0.14789817 C24.4363768,-0.0435992503 23.7014492,0.380781931 23.5098608,1.09582367 C23.4178577,1.43931426 23.4660935,1.80528545 23.6439542,2.11320741 C23.8218148,2.42112937 24.1147269,2.64577165 24.4582367,2.73770302 Z" id="Path_281"></path>
            <path d="M15.5419954,2.73770302 C16.1522494,2.56893545 16.5588086,1.99321433 16.5137202,1.3616611 C16.4686318,0.730107878 15.9844082,0.217982257 15.3563681,0.137619985 C14.728328,0.057257714 14.1307563,0.430959793 13.9281007,1.03081238 C13.725445,1.63066497 13.9739436,2.29020547 14.5220418,2.60719258 C14.8311609,2.78433011 15.1980803,2.83112381 15.5417633,2.73723898 L15.5419954,2.73770302 Z" id="Path_282"></path>
            <path d="M5.92552204,7.19582367 C6.30931001,7.58052758 6.88712634,7.69599944 7.38929204,7.4883461 C7.89145775,7.28069277 8.21896872,6.790854 8.21896872,6.2474478 C8.21896872,5.70404159 7.89145775,5.21420282 7.38929204,5.00654949 C6.88712634,4.79889616 6.30931001,4.91436801 5.92552204,5.29907193 C5.40263115,5.82321075 5.40263115,6.67168484 5.92552204,7.19582367 Z" id="Path_283"></path>
            <path d="M2.41786543,13.2714617 C1.80484652,13.1129133 1.16507577,13.4087058 0.888766224,13.9784275 C0.612456673,14.5481492 0.77629334,15.2336835 1.28034792,15.6169051 C1.7844025,16.0001266 2.48878322,15.9746787 2.96386971,15.5560827 C3.4389562,15.1374867 3.55289628,14.4419169 3.2361949,13.8936195 C3.05693583,13.5857259 2.76248199,13.3618592 2.41786543,13.2714617 Z" id="Path_284"></path>
            <path d="M1.72436195,22.8793503 C1.11413767,23.0485943 0.707985405,23.6247609 0.753671158,24.25637 C0.79935691,24.887979 1.28419847,25.399698 1.91242683,25.4793618 C2.54065518,25.5590256 3.1378763,25.1845198 3.339766,24.5843051 C3.5416557,23.9840903 3.2921701,23.3247842 2.74350348,23.0085847 C2.43443052,22.8318784 2.06775838,22.7853818 1.72436195,22.8793503 Z" id="Path_285"></path>
            <path d="M7.82447796,31.5451276 C7.30081547,31.0219359 6.45221165,31.0221903 5.92886298,31.5456959 C5.40551431,32.0692016 5.40551431,32.9178054 5.92886298,33.441311 C6.45221165,33.9648166 7.30081547,33.965071 7.82447796,33.4418794 C8.07615068,33.1904329 8.21755797,32.8492625 8.21755797,32.4935035 C8.21755797,32.1377445 8.07615068,31.7965741 7.82447796,31.5451276 Z" id="Path_286"></path>
            <path d="M15.5419954,36.0010441 C14.8270641,35.8100384 14.0925837,36.2344432 13.901048,36.9492327 C13.7095124,37.6640221 14.1333727,38.398817 14.84802,38.5908824 C15.5626673,38.7829478 16.2977761,38.3596323 16.4903712,37.6451276 C16.5830416,37.3013317 16.5351353,36.9347925 16.3572197,36.6263618 C16.179304,36.3179312 15.8859965,36.0929497 15.5419954,36.0010441 Z" id="Path_287"></path>
            <path d="M24.4580046,36.0032483 C23.7531093,36.1987399 23.3385664,36.9269608 23.5303298,37.6328795 C23.7220932,38.3387981 24.448113,38.7571841 25.1550353,38.5691543 C25.8619576,38.3811245 26.2841749,37.6573262 26.099884,36.94942 C26.0101321,36.604661 25.785769,36.3103467 25.4771035,36.132471 C25.1684381,35.9545952 24.8012972,35.9080414 24.4580046,36.0032483 Z" id="Path_288"></path>
            <path d="M34.0703016,31.5451276 C33.5466605,31.0220479 32.6981724,31.0223513 32.1749055,31.5458053 C31.6516386,32.0692594 31.6516386,32.9177476 32.1749055,33.4412016 C32.6981724,33.9646557 33.5466605,33.964959 34.0703016,33.4418794 C34.3219743,33.1904329 34.4633816,32.8492625 34.4633816,32.4935035 C34.4633816,32.1377445 34.3219743,31.7965741 34.0703016,31.5451276 Z" id="Path_289"></path>
            <path d="M23.999536,20.1692575 C23.6827146,20.4838747 23.3924594,20.7940835 23.0822506,21.0799304 C22.8442208,21.2959808 22.5925832,21.4965469 22.3288863,21.6803944 C21.9577159,21.9316484 21.4857754,21.9815003 21.0703016,21.8133411 C20.7423079,21.7123815 20.5060909,21.4255988 20.4698376,21.0843387 C20.0266821,21.449884 19.6100928,21.875406 18.9697216,21.9041763 C18.9187935,22.1457077 18.8653132,22.3938515 18.812413,22.6419954 C18.782613,22.7511178 18.7604021,22.862172 18.7459397,22.9743619 C18.7343387,23.1316705 18.6573086,23.1959397 18.5023202,23.2295824 C18.1168213,23.3071926 17.2814385,23.5110209 17.2215777,23.5242459 C17.6868523,21.3438902 18.1477185,19.1731632 18.6041763,17.012065 L20.0266821,17.012065 C19.9513921,17.3643852 19.299884,20.4642691 19.2958237,20.5063805 C19.2581206,20.8786543 19.4930394,21.0980278 19.8541763,20.9894432 C20.0585391,20.907449 20.2526234,20.8018609 20.4324826,20.674826 C20.4612529,20.6592807 20.4701856,20.6017401 20.4788863,20.5618329 C20.7241299,19.4066899 20.9686002,18.2522815 21.212297,17.0986079 C21.217056,17.0686957 21.225999,17.0396017 21.2388631,17.012181 L22.6344548,17.012181 C22.5591647,17.3689095 22.0849188,19.6511601 21.9209977,20.4466357 C21.9080343,20.5100392 21.9028144,20.5747818 21.9054524,20.6394432 C21.8941099,20.8082972 22.0131112,20.9580539 22.1801624,20.9851508 C22.3365827,21.0309157 22.504782,21.0125932 22.6476798,20.9342227 C22.8005627,20.8479975 22.9485115,20.7533025 23.0908353,20.65058 C23.2408947,20.5395479 23.3823635,20.4173527 23.5140371,20.2850348 C23.6454832,20.1662413 23.8284907,20.1227973 23.9993039,20.1698376 L23.999536,20.1692575 Z" id="Path_290"></path>
        </g>
    </g>
</svg>