<?xml version="1.0" encoding="utf-8"?>
<!-- Generator: Adobe Illustrator 24.0.0, SVG Export Plug-In . SVG Version: 6.00 Build 0)  -->
<svg version="1.1" id="Ebene_2" xmlns="http://www.w3.org/2000/svg" xmlns:xlink="http://www.w3.org/1999/xlink" x="0px" y="0px"
	 width="1005px" height="1005px" viewBox="0 0 1005 1005" style="enable-background:new 0 0 1005 1005;" xml:space="preserve">
<style type="text/css">
	.st0{fill:none;}
	.st1{font-family:'AvenirNextCondensed-Medium';}
	.st2{font-size:203.1106px;}
	.st3{letter-spacing:27;}
</style>
<g>
	<g>
		<path d="M118.4,419.4c0.3-1,0.6-1.9,0.8-2.9c2.9-12.5,15.1-21.3,27.3-19.8c13.7,1.7,23.3,12.5,23.1,26
			c-0.2,12.8-10.2,23.9-22.6,25c-13.5,1.2-25.2-7.2-28-20.2c-0.2-0.9-0.5-1.7-0.7-2.5C118.4,423,118.4,421.2,118.4,419.4z"/>
		<path d="M597.2,862.2c-14.3-0.1-25.5-11.6-25.3-25.8c0.2-14.1,11.8-25.6,25.9-25.3c13.9,0.2,25.2,11.8,25.2,25.8
			C622.9,851,611.4,862.3,597.2,862.2z"/>
		<path d="M439.8,845.5c-0.1,14.2-11.7,25.4-26,25.2c-14-0.2-25.4-12.1-25.1-26.2c0.3-14,11.8-25.2,25.9-25
			C428.8,819.7,439.9,831.1,439.8,845.5z"/>
		<path d="M591.5,151.6c-0.1,14.2-11.5,25.4-25.8,25.3c-14.1-0.1-25.5-11.8-25.3-26c0.2-13.9,11.8-25.3,25.8-25.2
			C580.2,125.8,591.6,137.4,591.5,151.6z"/>
		<path d="M229,233.4c14.3,0.2,25.2,11.7,25,26.1c-0.2,14-11.9,25.3-25.8,25c-14.2-0.3-25.5-12-25.2-26.1
			C203.2,244.2,214.7,233.2,229,233.4z"/>
		<path d="M152.9,631.4c-13.9,0.2-25.6-11-25.8-24.7c-0.3-14.8,10.8-26.3,25.4-26.4c14.1-0.1,25.6,11.3,25.7,25.5
			C178.3,619.8,167,631.2,152.9,631.4z"/>
		<path d="M382.9,134.3c14.2,0.1,25.6,11.5,25.5,25.7c-0.1,14.1-11.7,25.6-25.8,25.5c-14-0.1-25.3-11.6-25.3-25.6
			C357.4,145.5,368.7,134.2,382.9,134.3z"/>
		<path d="M276.9,760.9c-0.2,14.2-11.7,25.5-25.9,25.2c-14.1-0.3-25.2-11.6-25.1-25.7c0.1-14.2,11.6-25.5,25.8-25.4
			C265.9,735.2,277.1,746.6,276.9,760.9z"/>
		<path d="M728.7,210.5c14.2,0.2,25.6,11.8,25.3,25.9c-0.3,14.2-12,25.6-26,25.3c-14.2-0.3-25.2-11.9-25-26.2
			C703.1,221.4,714.5,210.3,728.7,210.5z"/>
		<path d="M471.5,754.3c12.2,0.2,21.6,10.1,21.5,22.3c-0.2,12.2-10.1,21.7-22.3,21.5c-12.1-0.2-21.7-10.1-21.5-22.3
			C449.4,763.6,459.3,754.1,471.5,754.3z"/>
		<path d="M334.8,751.3c-12.2-0.2-21.8-10-21.6-22.2c0.2-12.2,10.1-21.8,22.2-21.7c12,0.1,21.8,10.2,21.6,22.3
			C356.8,741.9,346.9,751.5,334.8,751.3z"/>
		<path d="M666.6,267.3c-0.1,12.2-9.9,21.8-22.1,21.8c-12-0.1-21.8-10.2-21.7-22.2c0.1-12.2,10-21.8,22.2-21.7
			C657.2,245.3,666.7,255.1,666.6,267.3z"/>
		<path d="M212.6,501.1c-12.2-0.2-21.7-9.9-21.5-22.2c0.2-12.2,10-21.8,22.2-21.6c12.1,0.2,21.8,10.2,21.6,22.3
			C234.7,491.7,224.8,501.2,212.6,501.1z"/>
		<path d="M346.2,247.7c0.2-12.2,10-21.9,22.1-21.7c12,0.2,21.8,10.2,21.7,22.3c-0.2,12.1-10.1,21.8-22.2,21.6
			C355.6,269.8,346,260,346.2,247.7z"/>
		<path d="M259.4,364.6c-12.2-0.1-21.8-9.9-21.8-22.1c0.1-12,10-21.9,22.1-21.8c12.2,0.1,21.7,9.9,21.7,22.1
			C281.3,355.2,271.6,364.8,259.4,364.6z"/>
		<path d="M262.4,621c-0.1,12.1-10.1,21.9-22.2,21.7c-12.1-0.2-21.7-10.1-21.6-22.3c0.1-12.1,10-21.8,22.2-21.6
			C253,599,262.6,608.8,262.4,621z"/>
		<path d="M590.4,748.2c0.1-12.2,9.9-21.8,22.1-21.7c12.2,0.1,21.8,10,21.6,22.2c-0.1,12.1-10,21.9-22.1,21.7
			C599.9,770.4,590.3,760.4,590.4,748.2z"/>
		<path d="M509,242.2c-12.2-0.1-21.8-9.8-21.7-22c0.1-12.2,9.9-21.9,22-21.8c12.1,0.1,21.9,10,21.8,22.1
			C531,232.6,521.2,242.3,509,242.2z"/>
		<path d="M584.8,298.3c9.4,0.1,16.9,7.7,16.8,17.1c-0.1,9.3-7.7,17-17,17c-9.4,0-17.1-7.9-17-17.3
			C567.7,305.7,575.4,298.2,584.8,298.3z"/>
		<path d="M284.5,524.2c-9.4-0.1-16.9-7.7-16.8-17.1c0.1-9.3,7.8-16.9,17.1-16.9c9.4,0,17.1,7.9,16.9,17.4
			C301.5,516.9,293.9,524.3,284.5,524.2z"/>
		<path d="M498.9,721.2c-9.4-0.1-16.9-7.7-16.8-17c0.1-9.4,7.6-16.9,17-16.9c9.5,0,17.2,7.8,17,17.2
			C515.9,713.9,508.3,721.3,498.9,721.2z"/>
		<path d="M600.3,689.1c-9.4-0.1-16.8-7.8-16.7-17.2c0.1-9.3,7.8-16.9,17.2-16.8c9.4,0,17.1,8,16.9,17.5
			C617.4,681.9,609.7,689.3,600.3,689.1z"/>
		<path d="M378.2,680.9c0.1-9.4,7.7-16.9,17.1-16.8c9.3,0.1,16.9,7.8,16.9,17.1c0,9.4-7.9,17.1-17.3,17
			C385.5,698,378.1,690.3,378.2,680.9z"/>
		<path d="M316.7,592.1c9.4,0,16.9,7.5,16.9,16.9c0,9.5-7.7,17.2-17.2,17.1c-9.3-0.1-16.9-7.8-16.8-17.1
			C299.7,599.5,307.3,592,316.7,592.1z"/>
		<path d="M379.7,307.4c9.5,0.1,16.8,7.5,16.8,17c0,9.5-7.7,17.2-17.2,17.1c-9.4-0.2-16.7-7.8-16.7-17.2
			C362.9,314.7,370.3,307.3,379.7,307.4z"/>
		<path d="M324.6,403.2c-0.1,9.4-7.6,16.9-17,16.8c-9.5-0.1-17-7.8-16.8-17.4c0.2-9.5,7.7-16.7,17.2-16.6
			C317.4,386.2,324.7,393.7,324.6,403.2z"/>
		<path d="M481.4,275.3c9.5,0.1,16.8,7.6,16.7,17.1c-0.1,9.5-7.6,16.9-17,16.8c-9.5,0-17-7.7-16.8-17.3
			C464.4,282.5,472,275.2,481.4,275.3z"/>
	</g>
	<g>
		<path d="M455,425.7l0.3-32.6l-0.2,0l-11.2,32.5l-5.6,0l-10.5-32.6l-0.2,0l-0.3,32.6l-5.7,0l0.3-39.3l9.1,0.1l10.2,31.3l0.3,0
			l10.5-31.1l9.5,0.1l-0.3,39.3L455,425.7z"/>
		<path d="M479.4,425.9l0.3-39.3l6.2,0.1l-0.3,39.3L479.4,425.9z"/>
		<path d="M526.2,425.8c-1.9,0.9-4.3,1.4-7,1.4c-2.7,0-5.1-0.6-7.3-1.6c-2.2-1.1-4-2.5-5.4-4.4c-1.5-1.9-2.6-4-3.3-6.6
			c-0.8-2.5-1.1-5.2-1.1-8.2c0-3,0.4-5.7,1.3-8.2c0.8-2.5,2-4.7,3.5-6.5c1.5-1.8,3.3-3.2,5.5-4.3c2.1-1,4.6-1.5,7.2-1.5
			c2.5,0,4.8,0.4,6.8,1.2c2.1,0.8,3.8,2,5.1,3.6l-3.9,3.4c-1-1.2-2.2-2.1-3.5-2.7c-1.3-0.6-2.7-0.9-4.3-0.9c-1.9,0-3.5,0.4-4.9,1.2
			c-1.4,0.8-2.5,2-3.4,3.4c-0.9,1.4-1.6,3.1-2.1,5.1c-0.5,1.9-0.7,4-0.7,6.2c0,2.2,0.2,4.2,0.6,6.2c0.4,1.9,1.1,3.6,2,5.1
			c0.9,1.5,2.1,2.6,3.5,3.5c1.4,0.9,3,1.3,4.9,1.3c1.7,0,3.2-0.3,4.5-1.1c1.3-0.7,2.4-1.6,3.2-2.7l3.7,3.3
			C529.7,423.6,528.1,424.9,526.2,425.8z"/>
		<path d="M565.9,426.6l-8.1-17.6l-5.7,0l-0.2,17.6l-6.1-0.1l0.3-39.3l12.7,0.1c1.8,0,3.5,0.2,5.1,0.6c1.6,0.4,3,1,4.2,1.9
			c1.2,0.9,2.1,2,2.8,3.4c0.7,1.4,1,3,1,5c0,1.6-0.3,3-0.8,4.2c-0.5,1.2-1.2,2.2-2,3c-0.8,0.8-1.7,1.5-2.7,1.9
			c-1,0.5-1.9,0.8-2.8,0.9l9,18.6L565.9,426.6z M565.7,398.2c0-1.3-0.2-2.4-0.7-3.3c-0.5-0.9-1-1.6-1.8-2.1
			c-0.7-0.5-1.6-0.9-2.5-1.1c-1-0.2-1.9-0.3-2.9-0.3l-5.6,0l-0.1,13.7l5.7,0c2.3,0,4.2-0.6,5.7-1.8
			C565,402.1,565.7,400.4,565.7,398.2z"/>
		<path d="M620.2,407.4c0,3.1-0.4,5.9-1.2,8.4c-0.8,2.5-1.9,4.7-3.4,6.5c-1.5,1.8-3.2,3.2-5.3,4.2c-2.1,1-4.4,1.5-7,1.4
			c-2.6,0-5-0.5-7-1.6c-2.1-1-3.8-2.4-5.2-4.3c-1.4-1.8-2.5-4-3.3-6.6c-0.7-2.5-1.1-5.4-1.1-8.4c0-3.1,0.4-5.9,1.2-8.4
			c0.8-2.5,1.9-4.7,3.3-6.5c1.4-1.8,3.2-3.2,5.3-4.1c2.1-1,4.5-1.4,7.2-1.4c2.6,0,4.9,0.5,7,1.5c2,1,3.8,2.4,5.2,4.2
			c1.4,1.8,2.5,4,3.3,6.5C619.9,401.5,620.2,404.4,620.2,407.4z M613.6,407.4c0-2.2-0.2-4.3-0.6-6.3c-0.4-2-1-3.7-1.9-5.1
			c-0.8-1.5-1.9-2.6-3.1-3.4c-1.3-0.8-2.7-1.3-4.4-1.3c-1.7,0-3.2,0.4-4.5,1.2c-1.3,0.8-2.4,2-3.2,3.4c-0.9,1.4-1.5,3.1-1.9,5.1
			c-0.4,2-0.7,4.1-0.7,6.3c0,2.2,0.2,4.3,0.6,6.3c0.4,2,1,3.7,1.9,5.1c0.8,1.5,1.9,2.6,3.2,3.4c1.3,0.8,2.8,1.3,4.5,1.3
			c1.7,0,3.1-0.4,4.4-1.2c1.3-0.8,2.3-1.9,3.2-3.4c0.9-1.4,1.5-3.1,2-5.1C613.4,411.7,613.6,409.6,613.6,407.4z"/>
		<path d="M660.7,427.5l-15.3-30.6l-0.2,0l-0.3,30.5l-5.7,0l0.3-39.3l7.4,0.1l15.1,30.7l0.2,0l0.3-30.6l5.7,0l-0.3,39.3L660.7,427.5
			z"/>
		<path d="M709,427.2l-2.7-9.2l-14.1-0.1l-2.9,9.2L683,427l12.6-39.2l8.2,0.1l11.7,39.4L709,427.2z M699.7,392.5l-0.3,0l-6.4,21.4
			l12.5,0.1L699.7,392.5z"/>
		<path d="M756,420c-0.5,1.7-1.4,3.3-2.5,4.6c-1.2,1.3-2.7,2.3-4.5,3.1c-1.9,0.7-4.2,1.1-6.9,1.1c-2.7,0-5-0.4-6.8-1.2
			c-1.8-0.8-3.3-1.8-4.4-3.1c-1.1-1.3-1.9-2.9-2.4-4.6c-0.5-1.7-0.7-3.6-0.7-5.6l0.2-25.8l6.2,0.1l-0.2,25.3c0,1.3,0.1,2.6,0.3,3.9
			c0.2,1.2,0.7,2.3,1.3,3.3c0.6,1,1.5,1.7,2.5,2.3c1.1,0.6,2.4,0.9,4.1,0.9c1.7,0,3-0.3,4.1-0.8c1.1-0.6,1.9-1.3,2.5-2.3
			c0.6-1,1.1-2.1,1.3-3.3c0.3-1.2,0.4-2.5,0.4-3.9l0.2-25.3l6.2,0.1l-0.2,25.8C756.8,416.4,756.5,418.2,756,420z"/>
		<path d="M791.6,393.6l-0.3,35.1l-6.2-0.1l0.3-35.1l-9.3-0.1l0-4.3l24.8,0.2l0,4.3L791.6,393.6z"/>
	</g>
	
		<rect x="581.6" y="278.6" transform="matrix(8.708845e-03 -1 1 8.708845e-03 119.9773 1197.9971)" class="st0" width="165.2" height="519.8"/>
	<text transform="matrix(1 8.706419e-03 -8.706419e-03 1 403.7176 607.1689)" class="st1 st2 st3">DATA</text>
</g>
</svg>
