<?xml version="1.0" encoding="UTF-8"?>
<svg width="325px" height="65px" viewBox="0 0 325 65" version="1.1" xmlns="http://www.w3.org/2000/svg" xmlns:xlink="http://www.w3.org/1999/xlink">
    <!-- Generator: Sketch 50.2 (55047) - http://www.bohemiancoding.com/sketch -->
    <title>oci_logo_white</title>
    <desc>Created with Sketch.</desc>
    <defs></defs>
    <g id="Page-1" stroke="none" stroke-width="1" fill="none" fill-rule="evenodd">
        <g id="oci_logo_white" fill-rule="nonzero">
            <path d="M24.842,35.654 C24.842,35.074 24.372,34.461 23.8,34.281 L10.949,30.338 C10.378,30.158 9.91,30.49 9.91,31.068 L9.91,46.27 C9.91,46.85 10.378,47.465 10.949,47.643 L23.8,51.588 C24.372,51.764 24.842,51.436 24.842,50.858 L24.842,35.654 Z M35.719,64.209 C35.719,64.789 35.246,65.127 34.674,64.955 L1.284,55.219 C0.709,55.049 0.239,54.44 0.239,53.862 L0.239,18.484 C0.239,17.904 0.71,17.568 1.284,17.738 L34.674,27.474 C35.246,27.64 35.719,28.253 35.719,28.831 L35.719,64.209 Z" id="Shape" fill="#FFFFFF"></path>
            <path d="M53.901,7.176 L62.022,9.434 C62.61,9.606 62.633,10.032 62.073,10.377 L38.346,25.316 C37.782,25.666 36.838,25.808 36.246,25.636 L1.991,15.699 C1.4,15.529 1.377,15.101 1.94,14.754 L27.049,0.393 C27.612,0.047 28.556,-0.099 29.148,0.071 L34.987,1.815 L35.461,1.96 C36.249,2.157 36.359,2.454 36.364,2.622 C36.374,2.956 36.032,3.19 36.032,3.19 L21.044,12.208 C20.481,12.554 20.494,12.981 21.07,13.161 L34.134,16.97 C34.714,17.142 35.649,16.999 36.212,16.656 L50.9,7.846 C50.9,7.846 51.681,7.467 52.289,7.207 C53.129,6.854 53.901,7.176 53.901,7.176" id="Shape" fill="#72C7D5"></path>
            <path d="M55.685,33.264 C55.693,32.346 56.164,31.893 56.75,31.526 L63.671,27.122 C64.257,26.755 65.02,27.116 65.02,27.925 L65.015,47.306 C64.973,48.074 65.026,48.556 63.807,49.39 L56.56,54.634 C55.975,55.007 55.643,54.685 55.643,54.097 L55.685,33.264 Z" id="Shape" fill="#FEB672"></path>
            <path d="M55.366,18.684 C55.366,18.098 55.846,17.313 56.43,16.948 L64.013,11.973 C64.596,11.604 65.026,12.018 65.026,12.606 L64.989,22.059 C64.946,22.752 64.637,23.289 64.005,23.705 L56.383,28.517 C55.798,28.882 55.368,28.654 55.368,28.07 L55.366,18.684 Z" id="Shape" fill="#FEB672"></path>
            <path d="M81.406,37.748 C81.406,38.158 81.469,38.529 81.596,38.871 C81.725,39.213 81.906,39.51 82.143,39.754 C82.38,40.008 82.666,40.201 82.999,40.34 C83.331,40.481 83.7,40.551 84.112,40.551 C84.521,40.551 84.891,40.481 85.224,40.34 C85.555,40.201 85.842,40.008 86.079,39.754 C86.317,39.51 86.498,39.213 86.627,38.871 C86.752,38.529 86.817,38.158 86.817,37.748 C86.817,37.344 86.752,36.973 86.627,36.627 C86.498,36.283 86.317,35.988 86.079,35.736 C85.842,35.484 85.555,35.291 85.224,35.154 C84.891,35.015 84.521,34.943 84.112,34.943 C83.7,34.943 83.33,35.015 82.999,35.154 C82.666,35.291 82.38,35.484 82.143,35.736 C81.905,35.988 81.725,36.283 81.596,36.627 C81.469,36.973 81.406,37.344 81.406,37.748 M79.414,37.748 C79.414,37.049 79.53,36.42 79.764,35.85 C79.997,35.288 80.324,34.805 80.742,34.407 C81.159,34.012 81.658,33.71 82.232,33.495 C82.804,33.28 83.432,33.175 84.113,33.175 C84.794,33.175 85.42,33.28 85.995,33.495 C86.567,33.71 87.063,34.013 87.482,34.407 C87.899,34.805 88.227,35.288 88.459,35.85 C88.694,36.42 88.81,37.049 88.81,37.748 C88.81,38.443 88.694,39.074 88.459,39.643 C88.227,40.205 87.898,40.688 87.482,41.086 C87.063,41.482 86.566,41.787 85.995,42 C85.419,42.215 84.793,42.32 84.113,42.32 C83.433,42.32 82.804,42.215 82.232,42 C81.658,41.787 81.16,41.482 80.742,41.086 C80.324,40.688 79.998,40.205 79.764,39.643 C79.53,39.074 79.414,38.443 79.414,37.748" id="Shape" fill="#FFFFFF"></path>
            <path d="M97.448,35.654 C97.26,35.425 97.028,35.248 96.754,35.129 C96.479,35.004 96.16,34.943 95.802,34.943 C95.44,34.943 95.107,35.017 94.798,35.15 C94.49,35.291 94.225,35.488 94.001,35.736 C93.775,35.988 93.6,36.283 93.47,36.627 C93.344,36.971 93.281,37.344 93.281,37.748 C93.281,38.158 93.344,38.531 93.47,38.871 C93.6,39.213 93.772,39.51 93.994,39.756 C94.215,40.008 94.474,40.201 94.774,40.34 C95.074,40.481 95.394,40.549 95.74,40.549 C96.134,40.549 96.481,40.469 96.784,40.305 C97.087,40.141 97.338,39.912 97.534,39.616 L99.132,40.813 C98.766,41.329 98.299,41.708 97.732,41.954 C97.165,42.198 96.585,42.321 95.986,42.321 C95.305,42.321 94.679,42.216 94.106,42.001 C93.531,41.786 93.035,41.483 92.617,41.087 C92.199,40.689 91.873,40.206 91.639,39.642 C91.405,39.078 91.287,38.445 91.287,37.749 C91.287,37.05 91.405,36.421 91.639,35.851 C91.872,35.287 92.199,34.806 92.617,34.406 C93.035,34.013 93.531,33.709 94.106,33.494 C94.679,33.281 95.305,33.176 95.986,33.176 C96.233,33.176 96.487,33.197 96.755,33.242 C97.02,33.287 97.283,33.357 97.542,33.459 C97.799,33.555 98.048,33.689 98.284,33.85 C98.524,34.016 98.736,34.217 98.925,34.452 L97.448,35.654 Z" id="Shape" fill="#FFFFFF"></path>
            <rect id="Rectangle-path" fill="#FFFFFF" x="102.703" y="33.393" width="1.918" height="8.705"></rect>
            <polygon id="Shape" fill="#FFFFFF" points="123.062 33.709 123.845 33.709 125.876 40.943 125.898 40.943 127.965 33.709 128.933 33.709 130.998 40.943 131.021 40.943 133.051 33.709 133.833 33.709 131.457 41.875 130.525 41.875 128.46 34.607 128.434 34.607 126.373 41.875 125.438 41.875"></polygon>
            <polygon id="Shape" fill="#FFFFFF" points="136.167 33.709 141.163 33.709 141.163 34.398 136.927 34.398 136.927 37.305 140.896 37.305 140.896 38 136.927 38 136.927 41.184 141.344 41.184 141.344 41.875 136.167 41.875"></polygon>
            <path d="M151.173,34.533 L149.271,39.015 L153.021,39.015 L151.173,34.533 Z M150.815,33.709 L151.597,33.709 L155.039,41.875 L154.183,41.875 L153.296,39.705 L148.968,39.705 L148.048,41.875 L147.251,41.875 L150.815,33.709 Z" id="Shape" fill="#FFFFFF"></path>
            <path d="M158.13,37.305 L159.742,37.305 C160.141,37.305 160.468,37.258 160.718,37.153 C160.97,37.051 161.164,36.932 161.299,36.786 C161.439,36.641 161.534,36.483 161.584,36.313 C161.634,36.145 161.662,35.989 161.662,35.854 C161.662,35.711 161.635,35.559 161.584,35.391 C161.534,35.221 161.439,35.063 161.299,34.918 C161.165,34.772 160.971,34.647 160.718,34.547 C160.468,34.449 160.142,34.399 159.742,34.399 L158.13,34.399 L158.13,37.305 Z M157.369,33.709 L159.515,33.709 C159.623,33.709 159.767,33.711 159.953,33.719 C160.139,33.723 160.335,33.744 160.549,33.785 C160.765,33.826 160.983,33.887 161.21,33.969 C161.431,34.053 161.634,34.18 161.809,34.34 C161.988,34.5 162.132,34.703 162.247,34.953 C162.362,35.199 162.418,35.496 162.418,35.853 C162.418,36.242 162.355,36.564 162.221,36.82 C162.084,37.078 161.914,37.279 161.712,37.437 C161.508,37.593 161.283,37.714 161.034,37.791 C160.789,37.871 160.555,37.922 160.333,37.949 L162.709,41.875 L161.844,41.875 L159.55,38 L158.131,38 L158.131,41.875 L157.37,41.875 L157.37,33.709 L157.369,33.709 Z" id="Shape" fill="#FFFFFF"></path>
            <polygon id="Shape" fill="#FFFFFF" points="165.362 33.709 170.357 33.709 170.357 34.398 166.124 34.398 166.124 37.305 170.091 37.305 170.091 38 166.124 38 166.124 41.184 170.54 41.184 170.54 41.875 165.362 41.875"></polygon>
            <path d="M177.728,40.365 C177.927,40.711 178.189,40.969 178.504,41.136 C178.825,41.302 179.19,41.392 179.596,41.392 C179.85,41.392 180.09,41.353 180.311,41.277 C180.533,41.195 180.731,41.091 180.895,40.953 C181.06,40.814 181.191,40.646 181.287,40.449 C181.385,40.256 181.433,40.031 181.433,39.787 C181.433,39.504 181.371,39.269 181.253,39.082 C181.132,38.896 180.97,38.744 180.773,38.627 C180.572,38.508 180.349,38.408 180.099,38.322 C179.847,38.238 179.591,38.152 179.324,38.066 C179.062,37.982 178.803,37.884 178.553,37.775 C178.304,37.668 178.076,37.533 177.878,37.355 C177.678,37.183 177.518,36.966 177.4,36.705 C177.279,36.443 177.22,36.119 177.22,35.736 C177.22,35.375 177.293,35.05 177.433,34.771 C177.575,34.492 177.767,34.255 178.01,34.068 C178.253,33.881 178.531,33.738 178.848,33.642 C179.162,33.546 179.494,33.497 179.837,33.497 C180.284,33.497 180.696,33.573 181.076,33.733 C181.458,33.889 181.789,34.157 182.066,34.522 L181.409,34.997 C181.216,34.727 180.989,34.524 180.735,34.392 C180.475,34.255 180.167,34.189 179.815,34.189 C179.567,34.189 179.335,34.224 179.112,34.291 C178.887,34.353 178.697,34.449 178.528,34.576 C178.366,34.701 178.233,34.865 178.13,35.053 C178.03,35.248 177.982,35.477 177.982,35.737 C177.982,36.145 178.086,36.46 178.292,36.678 C178.502,36.897 178.764,37.069 179.074,37.196 C179.386,37.323 179.72,37.434 180.089,37.534 C180.453,37.626 180.789,37.755 181.106,37.919 C181.416,38.079 181.674,38.306 181.879,38.591 C182.088,38.886 182.191,39.28 182.191,39.788 C182.191,40.157 182.124,40.483 181.984,40.77 C181.847,41.053 181.662,41.293 181.426,41.489 C181.19,41.685 180.919,41.833 180.613,41.932 C180.304,42.032 179.986,42.082 179.654,42.082 C179.115,42.082 178.619,41.988 178.166,41.801 C177.711,41.612 177.324,41.295 177.002,40.848 L177.728,40.365 Z" id="Shape" fill="#FFFFFF"></path>
            <path d="M185.147,37.791 C185.147,38.297 185.228,38.773 185.389,39.211 C185.55,39.647 185.78,40.029 186.08,40.352 C186.381,40.676 186.744,40.93 187.171,41.118 C187.598,41.298 188.075,41.393 188.608,41.393 C189.137,41.393 189.616,41.297 190.044,41.118 C190.471,40.93 190.832,40.677 191.134,40.352 C191.436,40.03 191.665,39.647 191.825,39.211 C191.988,38.773 192.068,38.297 192.068,37.791 C192.068,37.281 191.988,36.807 191.825,36.371 C191.665,35.933 191.435,35.553 191.134,35.23 C190.832,34.904 190.471,34.654 190.044,34.464 C189.616,34.28 189.138,34.189 188.608,34.189 C188.076,34.189 187.598,34.281 187.171,34.464 C186.744,34.653 186.381,34.903 186.08,35.23 C185.779,35.552 185.55,35.933 185.389,36.371 C185.229,36.807 185.147,37.281 185.147,37.791 M184.387,37.791 C184.387,37.168 184.491,36.592 184.699,36.07 C184.903,35.547 185.194,35.093 185.563,34.716 C185.93,34.333 186.375,34.034 186.895,33.82 C187.411,33.605 187.984,33.496 188.608,33.496 C189.227,33.496 189.802,33.605 190.319,33.82 C190.838,34.035 191.285,34.334 191.652,34.716 C192.022,35.093 192.309,35.546 192.517,36.07 C192.725,36.591 192.829,37.168 192.829,37.791 C192.829,38.414 192.725,38.988 192.517,39.518 C192.309,40.043 192.022,40.497 191.652,40.877 C191.285,41.258 190.838,41.555 190.319,41.766 C189.802,41.979 189.227,42.082 188.608,42.082 C187.984,42.082 187.411,41.978 186.895,41.766 C186.375,41.555 185.93,41.258 185.563,40.877 C185.194,40.496 184.903,40.043 184.699,39.518 C184.491,38.988 184.387,38.414 184.387,37.791" id="Shape" fill="#FFFFFF"></path>
            <polygon id="Shape" fill="#FFFFFF" points="195.169 33.709 200.058 33.709 200.058 34.398 195.931 34.398 195.931 37.305 199.772 37.305 199.772 38 195.931 38 195.931 41.875 195.169 41.875"></polygon>
            <polygon id="Shape" fill="#FFFFFF" points="204.547 34.398 201.753 34.398 201.753 33.709 208.099 33.709 208.099 34.398 205.308 34.398 205.308 41.875 204.547 41.875"></polygon>
            <polygon id="Shape" fill="#FFFFFF" points="209.835 33.709 210.616 33.709 212.648 40.943 212.673 40.943 214.733 33.709 215.704 33.709 217.772 40.943 217.795 40.943 219.825 33.709 220.607 33.709 218.232 41.875 217.297 41.875 215.233 34.607 215.209 34.607 213.144 41.875 212.211 41.875"></polygon>
            <path d="M225.333,34.533 L223.431,39.015 L227.181,39.015 L225.333,34.533 Z M224.978,33.709 L225.759,33.709 L229.199,41.875 L228.346,41.875 L227.456,39.705 L223.129,39.705 L222.21,41.875 L221.413,41.875 L224.978,33.709 Z" id="Shape" fill="#FFFFFF"></path>
            <path d="M231.944,37.305 L233.558,37.305 C233.957,37.305 234.283,37.258 234.532,37.153 C234.784,37.051 234.976,36.932 235.113,36.786 C235.254,36.641 235.348,36.483 235.401,36.313 C235.45,36.145 235.474,35.989 235.474,35.854 C235.474,35.711 235.45,35.559 235.401,35.391 C235.348,35.221 235.254,35.063 235.113,34.918 C234.976,34.772 234.784,34.647 234.532,34.547 C234.283,34.449 233.958,34.399 233.558,34.399 L231.944,34.399 L231.944,37.305 Z M231.183,33.709 L233.329,33.709 C233.437,33.709 233.583,33.711 233.767,33.719 C233.952,33.723 234.152,33.744 234.367,33.785 C234.58,33.826 234.801,33.887 235.023,33.969 C235.246,34.053 235.448,34.18 235.625,34.34 C235.803,34.5 235.948,34.703 236.064,34.953 C236.178,35.199 236.235,35.496 236.235,35.853 C236.235,36.242 236.17,36.564 236.035,36.82 C235.898,37.078 235.728,37.279 235.525,37.437 C235.322,37.593 235.095,37.714 234.847,37.791 C234.607,37.871 234.37,37.922 234.148,37.949 L236.525,41.875 L235.659,41.875 L233.363,38 L231.944,38 L231.944,41.875 L231.182,41.875 L231.182,33.709 L231.183,33.709 Z" id="Shape" fill="#FFFFFF"></path>
            <polygon id="Shape" fill="#FFFFFF" points="238.649 33.709 243.646 33.709 243.646 34.398 239.413 34.398 239.413 37.305 243.381 37.305 243.381 38 239.413 38 239.413 41.184 243.829 41.184 243.829 41.875 238.649 41.875"></polygon>
            <polygon id="Shape" fill="#FFFFFF" points="251.311 33.709 256.308 33.709 256.308 34.398 252.072 34.398 252.072 37.305 256.042 37.305 256.042 38 252.072 38 252.072 41.184 256.489 41.184 256.489 41.875 251.311 41.875"></polygon>
            <polygon id="Shape" fill="#FFFFFF" points="259.305 33.709 260.286 33.709 265.257 40.859 265.278 40.859 265.278 33.709 266.04 33.709 266.04 41.875 265.058 41.875 260.088 34.721 260.065 34.721 260.065 41.875 259.305 41.875"></polygon>
            <path d="M275.657,41.344 C275.178,41.614 274.686,41.805 274.175,41.914 C273.659,42.027 273.142,42.082 272.611,42.082 C271.988,42.082 271.415,41.978 270.901,41.766 C270.381,41.555 269.935,41.258 269.568,40.879 C269.199,40.498 268.908,40.043 268.702,39.516 C268.493,38.989 268.39,38.414 268.39,37.791 C268.39,37.168 268.493,36.598 268.702,36.072 C268.908,35.547 269.199,35.095 269.568,34.717 C269.935,34.334 270.381,34.037 270.901,33.822 C271.415,33.607 271.988,33.498 272.611,33.498 C273.824,33.498 274.805,33.873 275.554,34.629 L274.997,35.209 C274.879,35.061 274.723,34.922 274.542,34.795 C274.362,34.668 274.167,34.565 273.956,34.475 C273.744,34.383 273.524,34.315 273.292,34.266 C273.06,34.217 272.835,34.19 272.61,34.19 C272.081,34.19 271.602,34.282 271.176,34.469 C270.748,34.655 270.385,34.905 270.082,35.227 C269.783,35.553 269.553,35.932 269.389,36.372 C269.229,36.81 269.151,37.282 269.151,37.792 C269.151,38.298 269.229,38.774 269.389,39.214 C269.553,39.65 269.784,40.03 270.082,40.353 C270.385,40.677 270.748,40.931 271.176,41.117 C271.602,41.301 272.08,41.394 272.61,41.394 C273.05,41.394 273.462,41.359 273.844,41.289 C274.229,41.217 274.578,41.096 274.895,40.906 L274.895,38.16 L272.934,38.16 L272.934,37.469 L275.657,37.469 L275.657,41.344 Z" id="Shape" fill="#FFFFFF"></path>
            <rect id="Rectangle-path" fill="#FFFFFF" x="279.05" y="33.707" width="1" height="8.168"></rect>
            <polygon id="Shape" fill="#FFFFFF" points="283.202 33.709 284.181 33.709 289.153 40.859 289.177 40.859 289.177 33.709 289.939 33.709 289.939 41.875 288.957 41.875 283.983 34.721 283.964 34.721 283.964 41.875 283.202 41.875"></polygon>
            <polygon id="Shape" fill="#FFFFFF" points="293.327 33.709 298.321 33.709 298.321 34.398 294.092 34.398 294.092 37.305 298.057 37.305 298.057 38 294.092 38 294.092 41.184 298.511 41.184 298.511 41.875 293.327 41.875"></polygon>
            <polygon id="Shape" fill="#FFFFFF" points="301.325 33.709 306.317 33.709 306.317 34.398 302.086 34.398 302.086 37.305 306.052 37.305 306.052 38 302.086 38 302.086 41.184 306.504 41.184 306.504 41.875 301.325 41.875"></polygon>
            <path d="M310.078,37.305 L311.692,37.305 C312.093,37.305 312.418,37.258 312.665,37.153 C312.918,37.051 313.112,36.932 313.249,36.786 C313.39,36.641 313.481,36.483 313.535,36.313 C313.581,36.145 313.606,35.989 313.606,35.854 C313.606,35.711 313.581,35.559 313.535,35.391 C313.481,35.221 313.389,35.063 313.249,34.918 C313.112,34.772 312.918,34.647 312.665,34.547 C312.418,34.449 312.094,34.399 311.692,34.399 L310.078,34.399 L310.078,37.305 Z M309.317,33.709 L311.463,33.709 C311.568,33.709 311.718,33.711 311.902,33.719 C312.087,33.723 312.282,33.744 312.499,33.785 C312.714,33.826 312.933,33.887 313.159,33.969 C313.382,34.053 313.581,34.18 313.761,34.34 C313.937,34.5 314.08,34.703 314.197,34.953 C314.312,35.199 314.367,35.496 314.367,35.853 C314.367,36.242 314.305,36.564 314.17,36.82 C314.033,37.078 313.867,37.279 313.661,37.437 C313.455,37.593 313.232,37.714 312.984,37.791 C312.738,37.871 312.504,37.922 312.283,37.949 L314.659,41.875 L313.793,41.875 L311.497,38 L310.078,38 L310.078,41.875 L309.317,41.875 L309.317,33.709 Z" id="Shape" fill="#FFFFFF"></path>
            <path d="M317.53,40.365 C317.73,40.711 317.985,40.969 318.305,41.136 C318.625,41.302 318.991,41.392 319.399,41.392 C319.653,41.392 319.89,41.353 320.114,41.277 C320.336,41.195 320.531,41.091 320.696,40.953 C320.86,40.814 320.991,40.646 321.088,40.449 C321.185,40.256 321.234,40.031 321.234,39.787 C321.234,39.504 321.173,39.269 321.054,39.082 C320.938,38.896 320.777,38.744 320.576,38.627 C320.376,38.508 320.149,38.408 319.899,38.322 C319.647,38.238 319.393,38.152 319.129,38.066 C318.862,37.982 318.604,37.884 318.354,37.775 C318.104,37.668 317.875,37.533 317.681,37.355 C317.481,37.183 317.32,36.966 317.201,36.705 C317.078,36.443 317.022,36.119 317.022,35.736 C317.022,35.375 317.091,35.05 317.235,34.771 C317.379,34.492 317.571,34.255 317.814,34.068 C318.053,33.88 318.331,33.738 318.647,33.642 C318.963,33.546 319.296,33.497 319.64,33.497 C320.086,33.497 320.499,33.573 320.88,33.733 C321.262,33.889 321.589,34.157 321.867,34.522 L321.208,34.997 C321.016,34.727 320.793,34.524 320.535,34.392 C320.277,34.255 319.973,34.189 319.617,34.189 C319.369,34.189 319.138,34.224 318.914,34.291 C318.689,34.353 318.496,34.449 318.33,34.576 C318.162,34.701 318.033,34.865 317.932,35.053 C317.829,35.248 317.783,35.477 317.783,35.737 C317.783,36.145 317.884,36.46 318.091,36.678 C318.304,36.897 318.564,37.069 318.874,37.196 C319.186,37.323 319.524,37.434 319.888,37.534 C320.254,37.626 320.594,37.755 320.904,37.919 C321.215,38.079 321.476,38.306 321.683,38.591 C321.888,38.886 321.992,39.28 321.992,39.788 C321.992,40.157 321.926,40.483 321.786,40.77 C321.648,41.053 321.459,41.293 321.227,41.489 C320.992,41.684 320.718,41.833 320.415,41.932 C320.104,42.032 319.788,42.082 319.456,42.082 C318.919,42.082 318.417,41.988 317.97,41.801 C317.517,41.612 317.124,41.295 316.803,40.848 L317.53,40.365 Z" id="Shape" fill="#FFFFFF"></path>
            <path d="M323.653,41.393 C323.653,41.237 323.708,41.106 323.816,40.998 C323.924,40.89 324.051,40.836 324.207,40.836 C324.363,40.836 324.489,40.891 324.603,40.998 C324.706,41.105 324.761,41.236 324.761,41.393 C324.761,41.545 324.705,41.678 324.603,41.786 C324.49,41.893 324.363,41.946 324.207,41.946 C324.051,41.946 323.925,41.893 323.816,41.786 C323.707,41.679 323.653,41.545 323.653,41.393" id="Shape" fill="#FFFFFF"></path>
            <path d="M114.3,47.559 C113.952,47.559 113.673,47.276 113.673,46.928 L113.673,28.778 C113.673,28.432 113.952,28.151 114.3,28.151 C114.647,28.151 114.925,28.432 114.925,28.778 L114.925,46.928 C114.924,47.275 114.646,47.559 114.3,47.559" id="Shape" fill="#FFFFFF"></path>
        </g>
    </g>
</svg>