<?xml version="1.0" encoding="UTF-8"?>
<svg width="95px" height="95px" viewBox="0 0 95 95" version="1.1" xmlns="http://www.w3.org/2000/svg" xmlns:xlink="http://www.w3.org/1999/xlink">
    <!-- Generator: Sketch 62 (91390) - https://sketch.com -->
    <title>ratelimiter</title>
    <desc>Created with Sketch.</desc>
    <g id="Page-1" stroke="none" stroke-width="1" fill="none" fill-rule="evenodd">
        <g id="ratelimiter" transform="translate(2.000000, 2.000000)">
            <circle id="Oval" stroke="#4CAFDE" stroke-width="2.8347" cx="45.374" cy="45.374" r="45.374"></circle>
            <g id="funnel" transform="translate(23.000000, 11.000000)">
                <line x1="9.479" y1="2.148" x2="9.479" y2="14.83" id="Path" stroke="#4CAFDE" stroke-width="2.402"></line>
                <line x1="21.512" y1="0.336" x2="21.512" y2="13.018" id="Path" stroke="#4CAFDE" stroke-width="2.402"></line>
                <line x1="33.211" y1="2.148" x2="33.211" y2="14.83" id="Path" stroke="#4CAFDE" stroke-width="2.402"></line>
                <polygon id="Path" fill="#4CAFDE" fill-rule="nonzero" points="4.391 12.291 9.455 17.699 14.567 12.338"></polygon>
                <polygon id="Path" fill="#4CAFDE" fill-rule="nonzero" points="16.424 10.046 21.488 15.454 26.6 10.093"></polygon>
                <polygon id="Path" fill="#4CAFDE" fill-rule="nonzero" points="28.123 12.291 33.187 17.699 38.299 12.338"></polygon>
                <polygon id="Path" fill="#4CAFDE" fill-rule="nonzero" points="17.335 35.989 28.054 35.989 28.054 50.846 17.335 50.846"></polygon>
                <path d="M21.795,31.517 C12.305,31.517 4.193,30.123 0.837,28.149 L22.963,47.759 L44.06,27.188 L43.968,27.188 C41.903,29.656 32.763,31.517 21.795,31.517 Z" id="Path" fill="#4CAFDE" fill-rule="nonzero"></path>
                <ellipse id="Oval" stroke="#4CAFDE" stroke-width="3.367" cx="22.105" cy="25.965" rx="20.561" ry="5.831"></ellipse>
                <line x1="22.635" y1="53.998" x2="22.635" y2="66.68" id="Path" stroke="#4CAFDE" stroke-width="2.402"></line>
                <polygon id="Path" fill="#4CAFDE" fill-rule="nonzero" points="17.547 63.709 22.611 69.117 27.723 63.755"></polygon>
            </g>
        </g>
    </g>
</svg>