<?xml version="1.0" encoding="UTF-8"?>
<svg width="94px" height="94px" viewBox="0 0 94 94" version="1.1" xmlns="http://www.w3.org/2000/svg" xmlns:xlink="http://www.w3.org/1999/xlink">
    <!-- Generator: Sketch 52.6 (67491) - http://www.bohemiancoding.com/sketch -->
    <title>rss</title>
    <desc>Created with Sketch.</desc>
    <g id="Page-1" stroke="none" stroke-width="1" fill="none" fill-rule="evenodd">
        <g id="rss" transform="translate(1.000000, 1.000000)">
            <circle id="Oval" stroke="#4CAFDE" stroke-width="2.8347" cx="45.79" cy="45.79" r="45.374"></circle>
            <path d="M37.4835417,58.2633333 C37.4835417,60.8795833 35.3602083,63 32.7425,63 C30.1233333,63 28,60.8795833 28,58.2633333 C28,55.6470833 30.1233333,53.5266667 32.7425,53.5266667 C35.3602083,53.528125 37.4835417,55.6470833 37.4835417,58.2633333 Z M28,39.9291667 L28,46.9452083 C36.8229167,47.035625 43.9833333,54.1872917 44.07375,63 L51.0985417,63 C51.008125,50.2979167 40.718125,40.0195833 28,39.9291667 Z M28,35.0175 C43.4291667,35.0845833 55.93,47.5504167 55.9752083,63 L63,63 C62.95625,43.7047917 47.315625,28.0670833 28,28 L28,35.0175 Z" id="Shape" fill="#4CAFDE" fill-rule="nonzero"></path>
        </g>
    </g>
</svg>