<?xml version="1.0" encoding="UTF-8"?>
<svg width="94px" height="94px" viewBox="0 0 94 94" version="1.1" xmlns="http://www.w3.org/2000/svg" xmlns:xlink="http://www.w3.org/1999/xlink">
    <!-- Generator: Sketch 52.6 (67491) - http://www.bohemiancoding.com/sketch -->
    <title>sql</title>
    <desc>Created with Sketch.</desc>
    <g id="Page-1" stroke="none" stroke-width="1" fill="none" fill-rule="evenodd">
        <g id="sql" transform="translate(1.000000, 1.000000)">
            <circle id="Oval" stroke="#4CAFDE" stroke-width="2.8347" cx="45.79" cy="45.79" r="45.374"></circle>
            <g id="iconfinder_icon-89-document-file-sql_315887" transform="translate(25.000000, 26.000000)" fill="#4CAFDE" fill-rule="nonzero">
                <path d="M28.5,34.0740741 L28.5,37.0408564 C28.5,38.6801105 27.1585857,40 25.5038671,40 L2.99613286,40 C1.33638809,40 0,38.6685745 0,37.0261779 L0,2.97382213 C0,1.33087159 1.3488744,0 3.0127953,0 L18,0 L18,8.8917017 C18,10.5382127 19.3471209,11.8518519 21.0088786,11.8518519 L28.5,11.8518519 L28.5,14.8148148 L13.5102724,14.8148148 C11.0193178,14.8148148 9,16.8033545 9,19.2574601 L9,29.6314287 C9,32.0850339 11.0039873,34.0740741 13.5102724,34.0740741 L28.5,34.0740741 Z M19.5,0 L19.5,8.88454914 C19.5,9.70514554 20.1764628,10.3703704 20.986167,10.3703704 L28.5,10.3703704 L19.5,0 Z M13.4918422,16.2962963 C11.8394934,16.2962963 10.5,17.6298907 10.5,19.2474326 L10.5,29.6414563 C10.5,31.2713239 11.8535156,32.5925926 13.4918422,32.5925926 L39.0081578,32.5925926 C40.6605066,32.5925926 42,31.2589982 42,29.6414563 L42,19.2474326 C42,17.617565 40.6464843,16.2962963 39.0081578,16.2962963 L13.4918422,16.2962963 Z M28.0134664,29.4559276 C27.6947535,29.5684862 27.3510354,29.6296296 26.9926777,29.6296296 L25.5073222,29.6296296 C23.8408497,29.6296296 22.5,28.2991399 22.5,26.6578976 L22.5,22.2309913 C22.5,20.5726738 23.846424,19.2592593 25.5073222,19.2592593 L26.9926777,19.2592593 C28.6591503,19.2592593 30,20.589749 30,22.2309913 L30,26.6578976 C30,27.4064585 29.7256527,28.0847419 29.2718734,28.6036674 L30.4016505,29.7194966 L29.3409903,30.7670622 L28.0134664,29.4559276 Z M26.6893398,28.1481481 L25.4984349,28.1481481 C24.6639904,28.1481481 24,27.4849939 24,26.6669519 L24,22.221937 C24,21.3980987 24.6708721,20.7407407 25.4984349,20.7407407 L27.0015651,20.7407407 C27.8360095,20.7407407 28.5,21.403895 28.5,22.221937 L28.5,26.6669519 C28.5,26.999476 28.3907046,27.3048778 28.2059248,27.5508787 L26.1590097,25.5292341 L25.0983495,26.5767997 L26.6893398,28.1481481 Z M39,28.1481481 L39,29.6296296 L31.5,29.6296296 L31.5,19.2592593 L33,19.2592593 L33,28.1481481 L39,28.1481481 Z M16.5073223,19.2592593 L17.9926777,19.2592593 C19.6591503,19.2592593 21,20.585823 21,22.2222222 L19.5,22.2222222 C19.5,21.4121274 18.8291278,20.7407407 18.0015651,20.7407407 L16.4984349,20.7407407 C15.6639905,20.7407407 15,21.4040227 15,22.2222222 C15,23.0461262 15.6778647,23.7037037 16.5140534,23.7037037 L18,23.7037037 C19.6684056,23.7037037 21,25.0302674 21,26.6666667 C21,28.3144747 19.653576,29.6296296 17.9926777,29.6296296 L16.5073223,29.6296296 C14.8408497,29.6296296 13.5,28.3023502 13.5,26.6650681 L13.5,26.6565394 L15,26.6565394 L15,26.6732908 C15,27.4721719 15.6708721,28.1481481 16.4984349,28.1481481 L18.0015651,28.1481481 C18.8360095,28.1481481 19.5,27.4848662 19.5,26.6666667 C19.5,25.8427627 18.8221353,25.1851852 17.9859466,25.1851852 L16.5,25.1851852 C14.8315944,25.1851852 13.5,23.8586215 13.5,22.2222222 C13.5,20.5744142 14.846424,19.2592593 16.5073223,19.2592593 Z" id="document-file-sql"></path>
            </g>
        </g>
    </g>
</svg>