<?xml version="1.0" encoding="UTF-8"?>
<svg width="45px" height="45px" viewBox="0 0 45 45" version="1.1" xmlns="http://www.w3.org/2000/svg" xmlns:xlink="http://www.w3.org/1999/xlink">
    <!-- Generator: Sketch 50 (54983) - http://www.bohemiancoding.com/sketch -->
    <title>twitter</title>
    <desc>Created with Sketch.</desc>
    <defs></defs>
    <g id="Page-1" stroke="none" stroke-width="1" fill="none" fill-rule="evenodd">
        <g id="twitter" fill="#000000" fill-rule="nonzero">
            <path d="M22.498,0 C10.076,0 0,10.073 0,22.499 C0,34.923 10.076,45 22.498,45 C34.927,45 45,34.923 45,22.499 C45,10.073 34.927,0 22.498,0 Z M32.397,18.315 C32.406,18.524 32.414,18.733 32.414,18.946 C32.414,25.457 27.457,32.96 18.401,32.96 C15.619,32.96 13.035,32.146 10.851,30.747 C11.24,30.794 11.628,30.819 12.029,30.819 C14.337,30.819 16.455,30.026 18.139,28.708 C15.987,28.667 14.168,27.243 13.543,25.288 C13.841,25.346 14.15,25.378 14.47,25.378 C14.915,25.378 15.355,25.317 15.764,25.204 C13.513,24.752 11.814,22.761 11.814,20.374 C11.814,20.354 11.814,20.336 11.814,20.314 C12.484,20.68 13.239,20.903 14.048,20.928 C12.728,20.046 11.855,18.539 11.855,16.83 C11.855,15.927 12.099,15.082 12.523,14.353 C14.952,17.334 18.578,19.294 22.67,19.501 C22.587,19.138 22.541,18.761 22.541,18.374 C22.541,15.658 24.751,13.454 27.471,13.454 C28.884,13.454 30.165,14.052 31.062,15.011 C32.186,14.786 33.241,14.376 34.189,13.81 C33.823,14.964 33.042,15.926 32.026,16.535 C33.018,16.422 33.966,16.154 34.853,15.764 C34.193,16.751 33.357,17.62 32.397,18.315 Z" id="Shape"></path>
        </g>
    </g>
</svg>