<?xml version="1.0" encoding="UTF-8"?>
<svg width="94px" height="94px" viewBox="0 0 94 94" version="1.1" xmlns="http://www.w3.org/2000/svg" xmlns:xlink="http://www.w3.org/1999/xlink">
    <!-- Generator: Sketch 52.6 (67491) - http://www.bohemiancoding.com/sketch -->
    <title>views</title>
    <desc>Created with Sketch.</desc>
    <g id="Page-1" stroke="none" stroke-width="1" fill="none" fill-rule="evenodd">
        <g id="views" transform="translate(1.000000, 1.000000)">
            <circle id="Oval" stroke="#4CAFDE" stroke-width="2.8347" cx="45.79" cy="45.79" r="45.374"></circle>
            <path d="M44.5,31.8 C52.5485714,31.8 59.3692857,35.452862 63.6635714,38.5171717 C68.755,42.1508418 71.3778571,45.6565657 72.0592857,47 C71.3778571,48.337037 68.7614286,51.8491582 63.6635714,55.4828283 C59.3628571,58.547138 52.5485714,62.2 44.5,62.2 C36.4514286,62.2 29.6371429,58.547138 25.3364286,55.4828283 C20.2385714,51.8491582 17.6221429,48.337037 16.9407143,47 C17.6221429,45.662963 20.2385714,42.1508418 25.3364286,38.5171717 C29.6307143,35.452862 36.4514286,31.8 44.5,31.8 Z M44.5,28 C27.1042857,28 13,43.2 13,47 C13,50.8 27.1042857,66 44.5,66 C61.8957143,66 76,50.8 76,47 C76,43.2 61.8957143,28 44.5,28 Z M44.5,35.6 C38.1742857,35.6 33.0442857,40.7050505 33.0442857,47 C33.0442857,53.2949495 38.1742857,58.4 44.5,58.4 C50.8257143,58.4 55.9557143,53.2949495 55.9557143,47 C55.9557143,40.7050505 50.8257143,35.6 44.5,35.6 Z M41.4142857,47 C38.74,47 36.5671429,44.8377104 36.5671429,42.176431 C36.5671429,39.5151515 38.74,37.352862 41.4142857,37.352862 C44.0885714,37.352862 46.2614286,39.5151515 46.2614286,42.176431 C46.2614286,44.8377104 44.095,47 41.4142857,47 Z" id="Shape" fill="#4CAFDE" fill-rule="nonzero"></path>
        </g>
    </g>
</svg>