<?xml version="1.0" encoding="UTF-8" standalone="no"?>
<svg
   xmlns:osb="http://www.openswatchbook.org/uri/2009/osb"
   xmlns:dc="http://purl.org/dc/elements/1.1/"
   xmlns:cc="http://creativecommons.org/ns#"
   xmlns:rdf="http://www.w3.org/1999/02/22-rdf-syntax-ns#"
   xmlns:svg="http://www.w3.org/2000/svg"
   xmlns="http://www.w3.org/2000/svg"
   xmlns:xlink="http://www.w3.org/1999/xlink"
   xmlns:sodipodi="http://sodipodi.sourceforge.net/DTD/sodipodi-0.dtd"
   xmlns:inkscape="http://www.inkscape.org/namespaces/inkscape"
   viewBox="0 0 750 750"
   version="1.1"
   id="svg94"
   sodipodi:docname="micronaut-data-white.svg"
   inkscape:version="1.0 (4035a4f, 2020-05-01)"
   inkscape:export-filename="/Users/ahrolde/Code/micronaut-static-website/assets/images/micronaut-logos/logo_micronaut_data_black-full.png"
   inkscape:export-xdpi="300"
   inkscape:export-ydpi="300">
  <metadata
     id="metadata100">
    <rdf:RDF>
      <cc:Work
         rdf:about="">
        <dc:format>image/svg+xml</dc:format>
        <dc:type
           rdf:resource="http://purl.org/dc/dcmitype/StillImage" />
        <dc:title>Micronaut TM Data black</dc:title>
      </cc:Work>
    </rdf:RDF>
  </metadata>
  <defs
     id="defs98">
    <linearGradient
       id="linearGradient951"
       osb:paint="solid">
      <stop
         style="stop-color:#000000;stop-opacity:1;"
         offset="0"
         id="stop949" />
    </linearGradient>
    <linearGradient
       id="linearGradient927"
       osb:paint="solid">
      <stop
         style="stop-color:#ffffff;stop-opacity:1;"
         offset="0"
         id="stop925" />
    </linearGradient>
    <linearGradient
       inkscape:collect="always"
       xlink:href="#linearGradient927"
       id="linearGradient953"
       x1="311.83801"
       y1="296.5545"
       x2="338.44299"
       y2="296.5545"
       gradientUnits="userSpaceOnUse" />
    <linearGradient
       inkscape:collect="always"
       xlink:href="#linearGradient927"
       id="linearGradient955"
       x1="354.311"
       y1="296.55151"
       x2="355.09"
       y2="296.55151"
       gradientUnits="userSpaceOnUse" />
    <linearGradient
       inkscape:collect="always"
       xlink:href="#linearGradient927"
       id="linearGradient957"
       x1="370.91501"
       y1="296.53943"
       x2="389.97101"
       y2="296.53943"
       gradientUnits="userSpaceOnUse" />
    <linearGradient
       inkscape:collect="always"
       xlink:href="#linearGradient927"
       id="linearGradient959"
       x1="403.34"
       y1="296.55399"
       x2="420.89999"
       y2="296.55399"
       gradientUnits="userSpaceOnUse" />
    <linearGradient
       inkscape:collect="always"
       xlink:href="#linearGradient927"
       id="linearGradient961"
       x1="433.02499"
       y1="296.53601"
       x2="456.42499"
       y2="296.53601"
       gradientUnits="userSpaceOnUse" />
    <linearGradient
       inkscape:collect="always"
       xlink:href="#linearGradient927"
       id="linearGradient963"
       x1="472.246"
       y1="296.55151"
       x2="490.383"
       y2="296.55151"
       gradientUnits="userSpaceOnUse" />
    <linearGradient
       inkscape:collect="always"
       xlink:href="#linearGradient927"
       id="linearGradient965"
       x1="504.29999"
       y1="296.55151"
       x2="526.35602"
       y2="296.55151"
       gradientUnits="userSpaceOnUse" />
    <linearGradient
       inkscape:collect="always"
       xlink:href="#linearGradient927"
       id="linearGradient967"
       x1="539.20398"
       y1="296.806"
       x2="557.31702"
       y2="296.806"
       gradientUnits="userSpaceOnUse" />
    <linearGradient
       inkscape:collect="always"
       xlink:href="#linearGradient927"
       id="linearGradient969"
       x1="569.82898"
       y1="296.55051"
       x2="589.40802"
       y2="296.55051"
       gradientUnits="userSpaceOnUse" />
    <linearGradient
       inkscape:collect="always"
       xlink:href="#linearGradient927"
       id="linearGradient971"
       x1="599.88501"
       y1="283.80649"
       x2="626.39301"
       y2="283.80649"
       gradientUnits="userSpaceOnUse" />
  </defs>
  <sodipodi:namedview
     inkscape:document-rotation="0"
     pagecolor="#ffffff"
     bordercolor="#666666"
     borderopacity="1"
     objecttolerance="10"
     gridtolerance="10"
     guidetolerance="10"
     inkscape:pageopacity="0"
     inkscape:pageshadow="2"
     inkscape:window-width="1550"
     inkscape:window-height="896"
     id="namedview96"
     showgrid="false"
     inkscape:zoom="0.98"
     inkscape:cx="331.12245"
     inkscape:cy="383.16327"
     inkscape:window-x="0"
     inkscape:window-y="23"
     inkscape:window-maximized="0"
     inkscape:current-layer="svg94" />
  <title
     id="title10">Micronaut TM Data black</title>
  <path
     d="M338.443,314.935h-.733L335.936,296.1c-.571-6.11-1.2-13.385-1.535-17.157l-8.9,31.452h-.779l-8.965-31.452c-.193,2.7-.964,10.746-1.512,16.732l-1.674,19.263h-.733l3.325-36.767H316.3l8.826,31.228,8.786-31.228h1.134Z"
     id="path12"
     style="fill-opacity:1;stroke:url(#linearGradient953);fill:#ffffff"
     inkscape:export-filename="/Users/ahrolde/Code/micronaut-static-website/assets/images/micronaut-logos/logo_micronaut_data_black-full.png"
     inkscape:export-xdpi="89.739998"
     inkscape:export-ydpi="89.739998" />
  <path
     d="M355.09,314.935h-.779V278.168h.779Z"
     id="path14"
     style="fill-opacity:1;stroke:url(#linearGradient955);fill:#ffffff"
     inkscape:export-filename="/Users/ahrolde/Code/micronaut-static-website/assets/images/micronaut-logos/logo_micronaut_data_black-full.png"
     inkscape:export-xdpi="89.739998"
     inkscape:export-ydpi="89.739998" />
  <path
     d="M389.62,280.752l-.448.525a8.562,8.562,0,0,0-6.534-2.916c-6.241,0-10.916,5.424-10.916,18.222,0,12.188,4.544,18.1,10.815,18.1A9.233,9.233,0,0,0,389.5,311.6l.471.548a9.828,9.828,0,0,1-7.438,3.3c-6.8,0-11.618-6.318-11.618-18.861,0-13.084,5-18.955,11.673-18.955A9.109,9.109,0,0,1,389.62,280.752Z"
     id="path16"
     style="fill-opacity:1;stroke:url(#linearGradient957);fill:#ffffff"
     inkscape:export-filename="/Users/ahrolde/Code/micronaut-static-website/assets/images/micronaut-logos/logo_micronaut_data_black-full.png"
     inkscape:export-xdpi="89.739998"
     inkscape:export-ydpi="89.739998" />
  <path
     d="M420.028,314.935,411.6,297.128a14.536,14.536,0,0,1-1.681.1h-5.8v17.712h-.779V278.168h5.7c7.847,0,10.6,3.711,10.6,9.512,0,5.435-2.853,8.519-7.24,9.327l8.5,17.928Zm-1.211-27.255c0-5.4-2.352-8.779-9.842-8.779h-4.853V296.49h5.685C415.3,296.49,418.817,293.775,418.817,287.68Z"
     id="path18"
     style="fill-opacity:1;stroke:url(#linearGradient959);fill:#ffffff"
     inkscape:export-filename="/Users/ahrolde/Code/micronaut-static-website/assets/images/micronaut-logos/logo_micronaut_data_black-full.png"
     inkscape:export-xdpi="89.739998"
     inkscape:export-ydpi="89.739998" />
  <path
     d="M456.425,296.575c0,12.621-4.305,18.869-11.7,18.869-7.1,0-11.7-6.171-11.7-18.784,0-12.706,4.751-19.032,11.7-19.032C451.873,277.628,456.425,283.63,456.425,296.575Zm-22.6.085c0,12.25,4.3,18.051,10.9,18.051,6.951,0,10.9-5.832,10.9-18.136,0-12.513-4.2-18.214-10.9-18.214C438.219,278.361,433.821,284.293,433.821,296.66Z"
     id="path20"
     style="fill-opacity:1;stroke:url(#linearGradient961);fill:#ffffff"
     inkscape:export-filename="/Users/ahrolde/Code/micronaut-static-website/assets/images/micronaut-logos/logo_micronaut_data_black-full.png"
     inkscape:export-xdpi="89.739998"
     inkscape:export-ydpi="89.739998" />
  <path
     d="M490.383,314.935h-1.019L472.91,279.063c.046,1.612.092,3.788.092,7.993v27.879h-.756V278.168h1.019l16.454,35.872c-.023-2.19-.092-5.276-.092-8.671v-27.2h.756Z"
     id="path22"
     style="fill-opacity:1;stroke:url(#linearGradient963);fill:#ffffff"
     inkscape:export-filename="/Users/ahrolde/Code/micronaut-static-website/assets/images/micronaut-logos/logo_micronaut_data_black-full.png"
     inkscape:export-xdpi="89.739998"
     inkscape:export-ydpi="89.739998" />
  <path
     d="M522.4,303.757H508.208l-3.177,11.178H504.3l10.53-36.767h.965l10.561,36.767h-.78Zm-.2-.71L515.3,278.809l-6.89,24.238Z"
     id="path24"
     style="fill-opacity:1;stroke:url(#linearGradient965);fill:#ffffff"
     inkscape:export-filename="/Users/ahrolde/Code/micronaut-static-website/assets/images/micronaut-logos/logo_micronaut_data_black-full.png"
     inkscape:export-xdpi="89.739998"
     inkscape:export-ydpi="89.739998" />
  <path
     d="M557.317,305.717c0,5.276-2.576,9.727-9.041,9.727-6.526,0-9.072-4.451-9.072-9.727V278.168h.779v27.479c0,5.015,2.261,9.064,8.293,9.064,6,0,8.262-4.119,8.262-9.064V278.168h.779Z"
     id="path26"
     style="fill-opacity:1;stroke:url(#linearGradient967);fill:#ffffff"
     inkscape:export-filename="/Users/ahrolde/Code/micronaut-static-website/assets/images/micronaut-logos/logo_micronaut_data_black-full.png"
     inkscape:export-xdpi="89.739998"
     inkscape:export-ydpi="89.739998" />
  <path
     d="M589.315,278.9h-9.341v36.034h-.78V278.9h-9.365v-.733h19.579Z"
     id="path28"
     style="fill-opacity:1;stroke:url(#linearGradient969);fill:#ffffff"
     inkscape:export-filename="/Users/ahrolde/Code/micronaut-static-website/assets/images/micronaut-logos/logo_micronaut_data_black-full.png"
     inkscape:export-xdpi="89.739998"
     inkscape:export-ydpi="89.739998" />
  <path
     d="M44.618,308.743c.23-.856.493-1.7.685-2.569,2.439-10.974,13.07-18.82,23.815-17.566,11.992,1.4,20.492,10.778,20.454,22.572-.035,11.232-8.719,21.013-19.617,22.1-11.852,1.179-22.174-6.159-24.661-17.515-.165-.754-.448-1.482-.676-2.221Z"
     id="path30"
     style="fill:#ffffff"
     inkscape:export-filename="/Users/ahrolde/Code/micronaut-static-website/assets/images/micronaut-logos/logo_micronaut_data_black-full.png"
     inkscape:export-xdpi="89.739998"
     inkscape:export-ydpi="89.739998" />
  <path
     d="M309.515,469.483V347.07c.21-.165.365-.393.518-.391,11.177.089,22.406-.446,33.518.459,15.652,1.274,26.155,10.375,32.583,24.394,4.094,8.93,5.718,18.459,6.313,28.177.841,13.752.137,27.368-4.476,40.511-6.515,18.561-19.5,28.486-39.092,29.428-9.27.446-18.577.107-27.868.11A10.055,10.055,0,0,1,309.515,469.483Zm13.512-11.593c6.07,0,11.915.581,17.6-.121,12.067-1.49,19.178-9.371,23.562-20.1,5.157-12.624,5.5-25.852,4.524-39.184a61.97,61.97,0,0,0-5.7-22.492c-3.53-7.366-8.641-13.169-16.5-16.083-7.636-2.834-15.541-1.353-23.5-1.74Z"
     id="path32"
     style="fill:#ffffff"
     inkscape:export-filename="/Users/ahrolde/Code/micronaut-static-website/assets/images/micronaut-logos/logo_micronaut_data_black-full.png"
     inkscape:export-xdpi="89.739998"
     inkscape:export-ydpi="89.739998" />
  <path
     d="M606.366,469.786c10.333-41.277,20.548-82.081,30.849-123.232,5.946,0,11.911-.078,17.868.109.664.021,1.633,1.459,1.865,2.389,3.823,15.288,7.541,30.6,11.3,45.907q8.817,35.887,17.652,71.77c.21.856.352,1.727.582,2.866H672.436c-2.018-8.361-4.225-16.751-6-25.231-.685-3.279-1.99-4.262-5.31-4.182-10.384.252-20.777.182-31.166.11-2.042-.014-2.953.5-3.436,2.633-1.782,7.879-3.957,15.67-5.671,23.562-.6,2.741-1.74,3.546-4.4,3.355C613.218,469.609,609.953,469.786,606.366,469.786Zm57.228-39.862c-.139-1.065-.174-1.765-.325-2.439q-7.437-33.1-14.947-66.178c-.19-.831-1.154-1.485-1.757-2.222-.607.749-1.569,1.415-1.768,2.26q-6.411,27.2-12.665,54.436c-1.071,4.624-2.123,9.253-3.244,14.143Z"
     id="path34"
     style="fill:#ffffff"
     inkscape:export-filename="/Users/ahrolde/Code/micronaut-static-website/assets/images/micronaut-logos/logo_micronaut_data_black-full.png"
     inkscape:export-xdpi="89.739998"
     inkscape:export-ydpi="89.739998" />
  <path
     d="M462.386,346.545l30.249,123.283c-4.5,0-8.587.115-12.652-.106-.723-.039-1.759-1.374-1.99-2.279-2.07-8.114-3.973-16.271-5.98-24.4-.307-1.242-.219-2.81-2.351-2.8-12.075.064-24.151.031-36.433.031-1.863,7.542-3.7,14.879-5.485,22.227-1.77,7.279-1.749,7.284-9.313,7.284h-5.859c.25-1.311.392-2.329.64-3.32Q427.738,408.28,442.2,350.081c.73-2.96,1.961-3.733,4.811-3.6C451.994,346.712,456.99,346.545,462.386,346.545Zm7.4,83.4c-1.661-7.375-3.235-14.374-4.812-21.371-3.554-15.765-7.132-31.524-10.63-47.3-.364-1.64-.91-2.834-2.656-1.966-.647.321-.883,1.685-1.1,2.622q-5.716,24.478-11.373,48.972c-1.45,6.27-2.866,12.548-4.348,19.044Z"
     id="path36"
     style="fill:#ffffff"
     inkscape:export-filename="/Users/ahrolde/Code/micronaut-static-website/assets/images/micronaut-logos/logo_micronaut_data_black-full.png"
     inkscape:export-xdpi="89.739998"
     inkscape:export-ydpi="89.739998" />
  <path
     d="M556.691,469.777c-4.306,0-8.089.08-11.863-.08-.612-.026-1.394-1.02-1.706-1.737a6.361,6.361,0,0,1-.069-2.369q-.022-51.824-.042-103.647c0-1.268,0-2.536,0-4.067H519.473v-11.1h60.842v10.931H556.691Z"
     id="path38"
     style="fill:#ffffff"
     inkscape:export-filename="/Users/ahrolde/Code/micronaut-static-website/assets/images/micronaut-logos/logo_micronaut_data_black-full.png"
     inkscape:export-xdpi="89.739998"
     inkscape:export-ydpi="89.739998" />
  <path
     d="M467.523,693.131a22.231,22.231,0,0,1-22.366-22.458,22.4,22.4,0,1,1,22.366,22.458Z"
     id="path40"
     style="fill:#ffffff"
     inkscape:export-filename="/Users/ahrolde/Code/micronaut-static-website/assets/images/micronaut-logos/logo_micronaut_data_black-full.png"
     inkscape:export-xdpi="89.739998"
     inkscape:export-ydpi="89.739998" />
  <path
     d="M329.447,679.7a22.376,22.376,0,1,1-22.269-22.569A22.328,22.328,0,0,1,329.447,679.7Z"
     id="path42"
     style="fill:#ffffff"
     inkscape:export-filename="/Users/ahrolde/Code/micronaut-static-website/assets/images/micronaut-logos/logo_micronaut_data_black-full.png"
     inkscape:export-xdpi="89.739998"
     inkscape:export-ydpi="89.739998" />
  <path
     d="M457.128,70.489a22.385,22.385,0,1,1-44.77-.2,22.385,22.385,0,1,1,44.77.2Z"
     id="path44"
     style="fill:#ffffff"
     inkscape:export-filename="/Users/ahrolde/Code/micronaut-static-website/assets/images/micronaut-logos/logo_micronaut_data_black-full.png"
     inkscape:export-xdpi="89.739998"
     inkscape:export-ydpi="89.739998" />
  <path
     d="M140.082,144.942a22.121,22.121,0,0,1,22.064,22.7,22.367,22.367,0,1,1-22.064-22.7Z"
     id="path46"
     style="fill:#ffffff"
     inkscape:export-filename="/Users/ahrolde/Code/micronaut-static-website/assets/images/micronaut-logos/logo_micronaut_data_black-full.png"
     inkscape:export-xdpi="89.739998"
     inkscape:export-ydpi="89.739998" />
  <path
     d="M76.44,494.241a22.308,22.308,0,0,1-22.8-21.418c-.339-12.951,9.278-23.15,22.037-23.369a22.4,22.4,0,0,1,.768,44.787Z"
     id="path48"
     style="fill:#ffffff"
     inkscape:export-filename="/Users/ahrolde/Code/micronaut-static-website/assets/images/micronaut-logos/logo_micronaut_data_black-full.png"
     inkscape:export-xdpi="89.739998"
     inkscape:export-ydpi="89.739998" />
  <path
     d="M274.215,56.874a22.436,22.436,0,1,1-22.18,22.61A22.338,22.338,0,0,1,274.215,56.874Z"
     id="path50"
     style="fill:#ffffff"
     inkscape:export-filename="/Users/ahrolde/Code/micronaut-static-website/assets/images/micronaut-logos/logo_micronaut_data_black-full.png"
     inkscape:export-xdpi="89.739998"
     inkscape:export-ydpi="89.739998" />
  <path
     d="M186.128,606.827a22.366,22.366,0,1,1-22.333-22.475A22.236,22.236,0,0,1,186.128,606.827Z"
     id="path52"
     style="fill:#ffffff"
     inkscape:export-filename="/Users/ahrolde/Code/micronaut-static-website/assets/images/micronaut-logos/logo_micronaut_data_black-full.png"
     inkscape:export-xdpi="89.739998"
     inkscape:export-ydpi="89.739998" />
  <path
     d="M577.771,121a22.42,22.42,0,1,1-22.343,22.11A22.111,22.111,0,0,1,577.771,121Z"
     id="path54"
     style="fill:#ffffff"
     inkscape:export-filename="/Users/ahrolde/Code/micronaut-static-website/assets/images/micronaut-logos/logo_micronaut_data_black-full.png"
     inkscape:export-xdpi="89.739998"
     inkscape:export-ydpi="89.739998" />
  <path
     d="M356.588,599.52a19.2,19.2,0,1,1-19.367,19A19.075,19.075,0,0,1,356.588,599.52Z"
     id="path56"
     style="fill:#ffffff"
     inkscape:export-filename="/Users/ahrolde/Code/micronaut-static-website/assets/images/micronaut-logos/logo_micronaut_data_black-full.png"
     inkscape:export-xdpi="89.739998"
     inkscape:export-ydpi="89.739998" />
  <path
     d="M236.715,597.955a19.23,19.23,0,0,1,.175-38.459,19.23,19.23,0,0,1-.175,38.459Z"
     id="path58"
     style="fill:#ffffff"
     inkscape:export-filename="/Users/ahrolde/Code/micronaut-static-website/assets/images/micronaut-logos/logo_micronaut_data_black-full.png"
     inkscape:export-xdpi="89.739998"
     inkscape:export-ydpi="89.739998" />
  <path
     d="M523.817,171.271a19.126,19.126,0,0,1-19.164,19.237,19.36,19.36,0,0,1-19.2-19.3,19.182,19.182,0,1,1,38.363.063Z"
     id="path60"
     style="fill:#ffffff"
     inkscape:export-filename="/Users/ahrolde/Code/micronaut-static-website/assets/images/micronaut-logos/logo_micronaut_data_black-full.png"
     inkscape:export-xdpi="89.739998"
     inkscape:export-ydpi="89.739998" />
  <path
     d="M127.745,379.582A19.208,19.208,0,0,1,128,341.167a19.208,19.208,0,1,1-.251,38.415Z"
     id="path62"
     style="fill:#ffffff"
     inkscape:export-filename="/Users/ahrolde/Code/micronaut-static-website/assets/images/micronaut-logos/logo_micronaut_data_black-full.png"
     inkscape:export-xdpi="89.739998"
     inkscape:export-ydpi="89.739998" />
  <path
     d="M242.877,156.562a19.167,19.167,0,0,1,19.214-19.2,19.39,19.39,0,0,1,19.148,19.355,19.181,19.181,0,1,1-38.362-.154Z"
     id="path64"
     style="fill:#ffffff"
     inkscape:export-filename="/Users/ahrolde/Code/micronaut-static-website/assets/images/micronaut-logos/logo_micronaut_data_black-full.png"
     inkscape:export-xdpi="89.739998"
     inkscape:export-ydpi="89.739998" />
  <path
     d="M167.724,259.681a19.207,19.207,0,1,1,19.113-19.192A19.118,19.118,0,0,1,167.724,259.681Z"
     id="path66"
     style="fill:#ffffff"
     inkscape:export-filename="/Users/ahrolde/Code/micronaut-static-website/assets/images/micronaut-logos/logo_micronaut_data_black-full.png"
     inkscape:export-xdpi="89.739998"
     inkscape:export-ydpi="89.739998" />
  <path
     d="M172.32,484.325a19.172,19.172,0,1,1-19.069-19.293A19.211,19.211,0,0,1,172.32,484.325Z"
     id="path68"
     style="fill:#ffffff"
     inkscape:export-filename="/Users/ahrolde/Code/micronaut-static-website/assets/images/micronaut-logos/logo_micronaut_data_black-full.png"
     inkscape:export-xdpi="89.739998"
     inkscape:export-ydpi="89.739998" />
  <path
     d="M460.722,593.323a19.167,19.167,0,1,1,19.114,19.322A19.066,19.066,0,0,1,460.722,593.323Z"
     id="path70"
     style="fill:#ffffff"
     inkscape:export-filename="/Users/ahrolde/Code/micronaut-static-website/assets/images/micronaut-logos/logo_micronaut_data_black-full.png"
     inkscape:export-xdpi="89.739998"
     inkscape:export-ydpi="89.739998" />
  <path
     d="M385.552,150.482a19.2,19.2,0,1,1,19.17-19.248A19.076,19.076,0,0,1,385.552,150.482Z"
     id="path72"
     style="fill:#ffffff"
     inkscape:export-filename="/Users/ahrolde/Code/micronaut-static-website/assets/images/micronaut-logos/logo_micronaut_data_black-full.png"
     inkscape:export-xdpi="89.739998"
     inkscape:export-ydpi="89.739998" />
  <path
     d="M452.338,199.045a14.851,14.851,0,0,1,14.876,14.825,14.9,14.9,0,1,1-14.876-14.825Z"
     id="path74"
     style="fill:#ffffff"
     inkscape:export-filename="/Users/ahrolde/Code/micronaut-static-website/assets/images/micronaut-logos/logo_micronaut_data_black-full.png"
     inkscape:export-xdpi="89.739998"
     inkscape:export-ydpi="89.739998" />
  <path
     d="M190.9,399.311a14.856,14.856,0,0,1-14.851-14.855,14.9,14.9,0,1,1,29.8.114A14.846,14.846,0,0,1,190.9,399.311Z"
     id="path76"
     style="fill:#ffffff"
     inkscape:export-filename="/Users/ahrolde/Code/micronaut-static-website/assets/images/micronaut-logos/logo_micronaut_data_black-full.png"
     inkscape:export-xdpi="89.739998"
     inkscape:export-ydpi="89.739998" />
  <path
     d="M380.337,570.331a14.869,14.869,0,1,1,14.933-14.766A14.863,14.863,0,0,1,380.337,570.331Z"
     id="path78"
     style="fill:#ffffff"
     inkscape:export-filename="/Users/ahrolde/Code/micronaut-static-website/assets/images/micronaut-logos/logo_micronaut_data_black-full.png"
     inkscape:export-xdpi="89.739998"
     inkscape:export-ydpi="89.739998" />
  <path
     d="M468.948,541.425A14.837,14.837,0,0,1,454.19,526.5a14.906,14.906,0,1,1,29.809.287A14.847,14.847,0,0,1,468.948,541.425Z"
     id="path80"
     style="fill:#ffffff"
     inkscape:export-filename="/Users/ahrolde/Code/micronaut-static-website/assets/images/micronaut-logos/logo_micronaut_data_black-full.png"
     inkscape:export-xdpi="89.739998"
     inkscape:export-ydpi="89.739998" />
  <path
     d="M274.26,535.952a14.856,14.856,0,0,1,14.821-14.883,14.934,14.934,0,1,1-.1,29.867A14.857,14.857,0,0,1,274.26,535.952Z"
     id="path82"
     style="fill:#ffffff"
     inkscape:export-filename="/Users/ahrolde/Code/micronaut-static-website/assets/images/micronaut-logos/logo_micronaut_data_black-full.png"
     inkscape:export-xdpi="89.739998"
     inkscape:export-ydpi="89.739998" />
  <path
     d="M219.67,458.544a14.9,14.9,0,1,1,.07,29.8,15,15,0,0,1-14.874-14.9A14.841,14.841,0,0,1,219.67,458.544Z"
     id="path84"
     style="fill:#ffffff"
     inkscape:export-filename="/Users/ahrolde/Code/micronaut-static-website/assets/images/micronaut-logos/logo_micronaut_data_black-full.png"
     inkscape:export-xdpi="89.739998"
     inkscape:export-ydpi="89.739998" />
  <path
     d="M272.737,208.578a14.714,14.714,0,0,1,14.893,14.731,14.818,14.818,0,1,1-29.633.136A14.678,14.678,0,0,1,272.737,208.578Z"
     id="path86"
     style="fill:#ffffff"
     inkscape:export-filename="/Users/ahrolde/Code/micronaut-static-website/assets/images/micronaut-logos/logo_micronaut_data_black-full.png"
     inkscape:export-xdpi="89.739998"
     inkscape:export-ydpi="89.739998" />
  <path
     d="M225.188,292.993a14.815,14.815,0,1,1-14.694-14.9A14.793,14.793,0,0,1,225.188,292.993Z"
     id="path88"
     style="fill:#ffffff"
     inkscape:export-filename="/Users/ahrolde/Code/micronaut-static-website/assets/images/micronaut-logos/logo_micronaut_data_black-full.png"
     inkscape:export-xdpi="89.739998"
     inkscape:export-ydpi="89.739998" />
  <path
     d="M361.627,179.686a14.876,14.876,0,1,1-14.9,14.7A14.675,14.675,0,0,1,361.627,179.686Z"
     id="path90"
     style="fill:#ffffff"
     inkscape:export-filename="/Users/ahrolde/Code/micronaut-static-website/assets/images/micronaut-logos/logo_micronaut_data_black-full.png"
     inkscape:export-xdpi="89.739998"
     inkscape:export-ydpi="89.739998" />
  <path
     d="M605.61,276.9v14.292H605.1V276.9h-5.215v-.479h10.981l-.084.479Zm20.27,14.292-.652-10.314c-.079-1.3-.151-2.507-.157-3.777h-.039l-5.186,12.335h-.513l-5.21-12.469h-.039c0,1.058-.038,2.056-.15,3.889l-.635,10.336h-.513l.886-14.771h.691l5.226,12.536,5.271-12.536h.608l.925,14.771Z"
     id="path92"
     style="fill-opacity:1;stroke:url(#linearGradient971);fill:#ffffff"
     inkscape:export-filename="/Users/ahrolde/Code/micronaut-static-website/assets/images/micronaut-logos/logo_micronaut_data_black-full.png"
     inkscape:export-xdpi="89.739998"
     inkscape:export-ydpi="89.739998" />
</svg>
