<?xml version="1.0" encoding="UTF-8" standalone="no"?>
<svg
   viewBox="0 0 2382.1474 817.1572"
   version="1.1"
   className="oci-logo"
   id="svg19">
  <title
     id="title10">Cloud_Logo_Nav</title>
  <g
     transform="translate(1050.983,-24.944159)"
     aria-label="Google Cloud Run"
     id="text67"
     style="font-size:800px;line-height:1.25;font-family:sans-serif">
    <g
       transform="matrix(0.54338213,0,0,0.60940464,425.93639,24.942025)"
       id="g157">
      <g
         id="g155">
        <path
           id="path147"
           d="m 1057.1,369.2 h 50.8 l 144.8,-144.8 7.1,-61.5 C 990.3,-75 579,-49.3 341.1,220.2 275,295 227.1,384.1 200.9,480.5 c 16.1,-6.6 34,-7.7 50.8,-3 l 289.6,-47.8 c 0,0 14.7,-24.4 22.4,-22.9 128.8,-141.5 345.6,-158 494.4,-37.6 z" />
        <path
           id="path149"
           d="m 1459,480.5 c -33.3,-122.6 -101.6,-232.8 -196.6,-317 l -203.2,203.2 c 85.8,70.1 134.7,175.8 132.6,286.6 v 36.1 c 99.9,0 180.9,81 180.9,180.9 0,99.9 -81,180.9 -180.9,180.9 H 830 l -36.1,36.6 v 217 l 36.1,36.1 h 361.8 c 259.8,2 472.1,-207 474.1,-466.8 1.2,-157.8 -76.5,-305.4 -206.9,-393.6 z" />
        <path
           id="path151"
           d="M 467.7,1338.6 H 829.5 V 1049 H 467.7 c -25.8,0 -51.2,-5.6 -74.7,-16.3 l -50.8,15.8 -145.8,144.8 -12.7,50.8 c 81.7,61.8 181.5,95 284,94.5 z" />
        <path
           id="path153"
           d="M 467.7,399.2 C 207.8,400.7 -1.5,612.6 0,872.5 c 0.9,145.1 68.6,281.7 183.7,370.1 L 393.5,1032.8 C 302.5,991.7 262,884.5 303.1,793.5 c 41.1,-91 148.3,-131.5 239.3,-90.4 40.1,18.1 72.2,50.3 90.4,90.4 L 842.6,583.7 C 753.4,466.9 614.6,398.6 467.7,399.2 Z" />
      </g>
    </g>
    <text
       style="font-size:32px;line-height:1.25;font-family:'PT Serif';-inkscape-font-specification:'PT Serif';white-space:pre;shape-inside:url(#rect195);"
       id="text193"
       xml:space="preserve" />
    <text
       style="font-size:32px;line-height:1.25;font-family:'PT Serif';-inkscape-font-specification:'PT Serif';white-space:pre;shape-inside:url(#rect201);"
       id="text199"
       xml:space="preserve" />
    <text
       style="font-size:144px;line-height:1.25;font-family:'PT Serif';-inkscape-font-specification:'PT Serif';white-space:pre;shape-inside:url(#rect396);"
       id="text394"
       xml:space="preserve" />
    <g
       id="g1706">
      <g
         aria-label="Powered By"
         id="text408"
         style="font-size:140px;line-height:1.25;font-family:'PT Serif';-inkscape-font-specification:'PT Serif'">
        <path
           d="m -442.93616,427.70389 v 42.86133 h -15.92773 V 365.01834 h 18.04687 q 13.26172,0 20.0293,1.8457 6.83594,1.84571 12.03125,6.97266 9.0918,8.88672 9.0918,22.42188 0,14.49218 -9.70703,22.96875 -9.70704,8.47656 -26.18164,8.47656 z m 0,-14.76563 h 5.94727 q 21.94336,0 21.94336,-16.88476 0,-16.33789 -22.62696,-16.33789 h -5.26367 z"
           style="font-style:normal;font-variant:normal;font-weight:normal;font-stretch:normal;font-size:140px;font-family:Futura;-inkscape-font-specification:Futura;opacity:0.681672"
           id="path1677" />
        <path
           d="m -393.17053,436.79568 q 0,-14.42382 10.32226,-24.54101 10.32227,-10.11719 25.15625,-10.11719 14.90235,0 25.29297,10.18555 10.25391,10.18555 10.25391,25.01953 0,14.9707 -10.32227,25.08789 -10.39062,10.04883 -25.49804,10.04883 -14.97071,0 -25.08789,-10.25391 -10.11719,-10.11719 -10.11719,-25.42969 z m 15.72265,0.27344 q 0,9.98047 5.33204,15.79102 5.46875,5.8789 14.42382,5.8789 9.02344,0 14.42383,-5.81054 5.40039,-5.81055 5.40039,-15.51758 0,-9.70703 -5.40039,-15.51758 -5.46875,-5.87891 -14.42383,-5.87891 -8.81836,0 -14.28711,5.87891 -5.46875,5.87891 -5.46875,15.17578 z"
           style="font-style:normal;font-variant:normal;font-weight:normal;font-stretch:normal;font-size:140px;font-family:Futura;-inkscape-font-specification:Futura;opacity:0.681672"
           id="path1679" />
        <path
           d="m -300.06506,403.98318 17.43164,38.00782 18.79883,-44.0918 18.93554,44.0918 17.22656,-38.00782 h 17.22657 l -34.86328,71.57227 -18.52539,-42.86133 -18.73047,42.86133 -34.79493,-71.57227 z"
           style="font-style:normal;font-variant:normal;font-weight:normal;font-stretch:normal;font-size:140px;font-family:Futura;-inkscape-font-specification:Futura;opacity:0.681672"
           id="path1681" />
        <path
           d="m -141.67639,440.89725 h -47.71485 q 0.61524,8.20312 5.33204,13.05664 4.71679,4.78515 12.09961,4.78515 5.74218,0 9.50195,-2.73437 3.6914,-2.73438 8.4082,-10.11719 l 12.98828,7.2461 q -3.00781,5.12695 -6.35742,8.81835 -3.34961,3.62305 -7.17773,6.01563 -3.82813,2.32422 -8.27149,3.41797 -4.44336,1.09375 -9.63867,1.09375 -14.90234,0 -23.92578,-9.57031 -9.02344,-9.63868 -9.02344,-25.56641 0,-15.79102 8.75,-25.56641 8.81836,-9.63867 23.37891,-9.63867 14.69726,0 23.24219,9.36524 8.47656,9.29687 8.47656,25.77148 z m -15.79102,-12.57813 q -3.21289,-12.30469 -15.51758,-12.30469 -2.80273,0 -5.26367,0.88868 -2.46093,0.82031 -4.51172,2.46093 -1.98242,1.57227 -3.41796,3.82813 -1.43555,2.25586 -2.1875,5.12695 z"
           style="font-style:normal;font-variant:normal;font-weight:normal;font-stretch:normal;font-size:140px;font-family:Futura;-inkscape-font-specification:Futura;opacity:0.681672"
           id="path1683" />
        <path
           d="m -124.92834,403.98318 h 15.38085 v 5.94727 q 4.23829,-4.44336 7.51954,-6.08398 3.349605,-1.70899 7.929683,-1.70899 6.083985,0 12.714844,3.96485 l -7.041015,14.08203 q -4.375,-3.14453 -8.544922,-3.14453 -12.57813,0 -12.57813,19.0039 v 34.52149 h -15.38085 z"
           style="font-style:normal;font-variant:normal;font-weight:normal;font-stretch:normal;font-size:140px;font-family:Futura;-inkscape-font-specification:Futura;opacity:0.681672"
           id="path1685" />
        <path
           d="m -12.477173,440.89725 h -47.714844 q 0.615235,8.20312 5.332032,13.05664 4.716797,4.78515 12.099609,4.78515 5.742188,0 9.501953,-2.73437 3.691406,-2.73438 8.408203,-10.11719 l 12.988282,7.2461 q -3.007813,5.12695 -6.357422,8.81835 -3.34961,3.62305 -7.177735,6.01563 -3.828125,2.32422 -8.271484,3.41797 -4.443359,1.09375 -9.638672,1.09375 -14.902344,0 -23.925781,-9.57031 -9.023438,-9.63868 -9.023438,-25.56641 0,-15.79102 8.75,-25.56641 8.81836,-9.63867 23.378907,-9.63867 14.697265,0 23.242187,9.36524 8.476563,9.29687 8.476563,25.77148 z m -15.791015,-12.57813 q -3.212891,-12.30469 -15.517579,-12.30469 -2.802734,0 -5.263671,0.88868 -2.460938,0.82031 -4.511719,2.46093 -1.982422,1.57227 -3.417969,3.82813 -1.435547,2.25586 -2.1875,5.12695 z"
           style="font-style:normal;font-variant:normal;font-weight:normal;font-stretch:normal;font-size:140px;font-family:Futura;-inkscape-font-specification:Futura;opacity:0.681672"
           id="path1687" />
        <path
           d="M 53.489624,355.10623 H 68.938843 V 470.56522 H 53.489624 v -6.97266 q -9.091797,8.88672 -20.576172,8.88672 -13.671875,0 -22.695312,-9.98047 -8.9550785,-10.18555 -8.9550785,-25.42969 0,-14.90234 8.9550785,-24.88281 8.886718,-10.04883 22.353515,-10.04883 11.689453,0 20.917969,9.57031 z m -36.503906,81.96289 q 0,9.57031 5.126953,15.58594 5.263672,6.08398 13.261719,6.08398 8.544922,0 13.808593,-5.8789 5.263672,-6.08399 5.263672,-15.44922 0,-9.36524 -5.263672,-15.44922 -5.263671,-5.94727 -13.671875,-5.94727 -7.929687,0 -13.261718,6.01563 -5.263672,6.08398 -5.263672,15.03906 z"
           style="font-style:normal;font-variant:normal;font-weight:normal;font-stretch:normal;font-size:140px;font-family:Futura;-inkscape-font-specification:Futura;opacity:0.681672"
           id="path1689" />
        <path
           d="M 134.49548,470.56522 V 365.01834 h 15.85938 q 10.5957,0 16.88476,1.64063 6.35743,1.64062 10.73243,5.53711 4.44336,4.0332 7.04101,10.04882 2.66602,6.08399 2.66602,12.30469 0,11.34766 -8.68164,19.20899 8.4082,2.87109 13.26172,10.04882 4.92187,7.10938 4.92187,16.54297 0,12.37305 -8.75,20.91797 -5.26367,5.26367 -11.82617,7.31445 -7.17774,1.98243 -17.97852,1.98243 z m 15.92774,-60.22461 h 4.99023 q 8.88672,0 12.98828,-3.89649 4.16993,-3.96484 4.16993,-11.62109 0,-7.45117 -4.23829,-11.2793 -4.23828,-3.89648 -12.30468,-3.89648 h -5.60547 z m 0,45.2539 h 9.84375 q 10.80078,0 15.85937,-4.23828 5.33203,-4.58008 5.33203,-11.62109 0,-6.83594 -5.12695,-11.48438 -4.99023,-4.58008 -17.8418,-4.58008 h -8.0664 z"
           style="font-style:normal;font-variant:normal;font-weight:normal;font-stretch:normal;font-size:140px;font-family:Futura;-inkscape-font-specification:Futura;opacity:0.681672"
           id="path1691" />
        <path
           d="m 235.39392,458.19217 -29.94141,-54.20899 h 17.8418 l 20.3711,38.28125 19.0039,-38.28125 h 17.36328 l -53.04687,102.8125 h -17.56836 z"
           style="font-style:normal;font-variant:normal;font-weight:normal;font-stretch:normal;font-size:140px;font-family:Futura;-inkscape-font-specification:Futura;opacity:0.681672"
           id="path1693" />
      </g>
    </g>
    <g
       id="g1781">
      <g
         aria-label="Google Cloud Run"
         transform="translate(278.31775,177.94806)"
         id="text410"
         style="font-size:160px;line-height:1.25;font-family:'PT Serif';-inkscape-font-specification:'PT Serif';white-space:pre;shape-inside:url(#rect412)">
        <path
           d="m -1261.2539,422.77422 h 49.8437 v 3.98437 q 0,13.59375 -3.2031,24.0625 -3.125,9.6875 -10.5469,18.125 -16.7968,18.90625 -42.7343,18.90625 -25.3125,0 -43.3594,-18.28125 -18.0469,-18.35937 -18.0469,-44.0625 0,-26.25 18.3594,-44.53125 18.3594,-18.35937 44.6875,-18.35937 14.1406,0 26.4062,5.78125 11.7188,5.78125 23.0469,18.75 l -12.9687,12.42187 q -14.8438,-19.76562 -36.1719,-19.76562 -19.1406,0 -32.1094,13.20312 -12.9687,12.96875 -12.9687,32.5 0,20.15625 14.4531,33.20313 13.5156,12.10937 29.2969,12.10937 13.4375,0 24.1406,-9.0625 10.7031,-9.14062 11.9531,-21.875 h -30.0781 z"
           style="font-style:normal;font-variant:normal;font-weight:normal;font-stretch:normal;font-size:160px;font-family:Futura;-inkscape-font-specification:Futura"
           id="path1737" />
        <path
           d="m -1195.5508,446.99297 q 0,-16.48438 11.7969,-28.04688 11.7969,-11.5625 28.75,-11.5625 17.0312,0 28.9062,11.64063 11.7188,11.64062 11.7188,28.59375 0,17.10937 -11.7969,28.67187 -11.875,11.48438 -29.1406,11.48438 -17.1094,0 -28.6719,-11.71875 -11.5625,-11.5625 -11.5625,-29.0625 z m 17.9688,0.3125 q 0,11.40625 6.0937,18.04687 6.25,6.71875 16.4844,6.71875 10.3125,0 16.4844,-6.64062 6.1718,-6.64063 6.1718,-17.73438 0,-11.09375 -6.1718,-17.73437 -6.25,-6.71875 -16.4844,-6.71875 -10.0781,0 -16.3281,6.71875 -6.25,6.71875 -6.25,17.34375 z"
           style="font-style:normal;font-variant:normal;font-weight:normal;font-stretch:normal;font-size:160px;font-family:Futura;-inkscape-font-specification:Futura"
           id="path1739" />
        <path
           d="m -1099.3008,446.99297 q 0,-16.48438 11.7969,-28.04688 11.7969,-11.5625 28.75,-11.5625 17.0312,0 28.9062,11.64063 11.7188,11.64062 11.7188,28.59375 0,17.10937 -11.7969,28.67187 -11.875,11.48438 -29.1406,11.48438 -17.1094,0 -28.6719,-11.71875 -11.5625,-11.5625 -11.5625,-29.0625 z m 17.9688,0.3125 q 0,11.40625 6.0937,18.04687 6.25,6.71875 16.4844,6.71875 10.3125,0 16.4844,-6.64062 6.1718,-6.64063 6.1718,-17.73438 0,-11.09375 -6.1718,-17.73437 -6.25,-6.71875 -16.4844,-6.71875 -10.0781,0 -16.3281,6.71875 -6.25,6.71875 -6.25,17.34375 z"
           style="font-style:normal;font-variant:normal;font-weight:normal;font-stretch:normal;font-size:160px;font-family:Futura;-inkscape-font-specification:Futura"
           id="path1741" />
        <path
           d="m -925.86328,483.78984 q 0,5.39063 -0.39063,9.45313 -0.3125,4.14062 -0.9375,7.26562 -1.875,8.59375 -7.34375,14.76563 -10.3125,11.875 -28.35937,11.875 -15.23438,0 -25.07813,-8.20313 -10.15625,-8.4375 -11.71875,-23.35937 h 17.65625 q 1.01563,5.625 3.35938,8.67187 5.46875,7.10938 15.9375,7.10938 19.29687,0 19.29687,-23.67188 v -10.625 q -10.46875,10.70313 -24.14062,10.70313 -15.54688,0 -25.46875,-11.25 -10.00002,-11.40625 -10.00002,-28.51563 0,-16.64062 9.29689,-28.28125 10,-12.34375 26.40625,-12.34375 14.375,0 23.90625,10.70313 v -8.59375 h 17.57813 z m -16.875,-36.09375 q 0,-11.09375 -5.9375,-17.73437 -6.01563,-6.79688 -15.39063,-6.79688 -10,0 -15.78125,7.42188 -5.23437,6.64062 -5.23437,17.1875 0,10.39062 5.23437,17.03125 5.70313,7.26562 15.78125,7.26562 10.07813,0 15.9375,-7.34375 5.39063,-6.64062 5.39063,-17.03125 z"
           style="font-style:normal;font-variant:normal;font-weight:normal;font-stretch:normal;font-size:160px;font-family:Futura;-inkscape-font-specification:Futura"
           id="path1743" />
        <path
           d="m -885.94141,353.63359 v 131.95313 h -17.57812 V 353.63359 Z"
           style="font-style:normal;font-variant:normal;font-weight:normal;font-stretch:normal;font-size:160px;font-family:Futura;-inkscape-font-specification:Futura"
           id="path1745" />
        <path
           d="m -794.22266,451.68047 h -54.53125 q 0.70313,9.375 6.09375,14.92187 5.39063,5.46875 13.82813,5.46875 6.5625,0 10.85937,-3.125 4.21875,-3.125 9.60938,-11.5625 l 14.84375,8.28125 q -3.4375,5.85938 -7.26563,10.07813 -3.82812,4.14062 -8.20312,6.875 -4.375,2.65625 -9.45313,3.90625 -5.07812,1.25 -11.01562,1.25 -17.03125,0 -27.34375,-10.9375 -10.3125,-11.01563 -10.3125,-29.21875 0,-18.04688 10,-29.21875 10.07812,-11.01563 26.71875,-11.01563 16.79687,0 26.5625,10.70313 9.6875,10.625 9.6875,29.45312 z m -18.04687,-14.375 q -3.67188,-14.0625 -17.73438,-14.0625 -3.20312,0 -6.01562,1.01562 -2.8125,0.9375 -5.15625,2.8125 -2.26563,1.79688 -3.90625,4.375 -1.64063,2.57813 -2.5,5.85938 z"
           style="font-style:normal;font-variant:normal;font-weight:normal;font-stretch:normal;font-size:160px;font-family:Futura;-inkscape-font-specification:Futura"
           id="path1747" />
        <path
           d="m -633.20703,371.44609 v 21.5625 q -15.78125,-13.20312 -32.65625,-13.20312 -18.59375,0 -31.32813,13.35937 -12.8125,13.28125 -12.8125,32.5 0,18.98438 12.8125,32.03125 12.8125,13.04688 31.40625,13.04688 9.60938,0 16.32813,-3.125 3.75,-1.5625 7.73437,-4.21875 4.0625,-2.65625 8.51563,-6.40625 v 21.95312 q -15.625,8.82813 -32.8125,8.82813 -25.85938,0 -44.14063,-18.04688 -18.20312,-18.20312 -18.20312,-43.90625 0,-23.04687 15.23437,-41.09375 18.75,-22.10937 48.51563,-22.10937 16.25,0 31.40625,8.82812 z"
           style="font-style:normal;font-variant:normal;font-weight:normal;font-stretch:normal;font-size:160px;font-family:Futura;-inkscape-font-specification:Futura"
           id="path1749" />
        <path
           d="m -595.94141,353.63359 v 131.95313 h -17.57812 V 353.63359 Z"
           style="font-style:normal;font-variant:normal;font-weight:normal;font-stretch:normal;font-size:160px;font-family:Futura;-inkscape-font-specification:Futura"
           id="path1751" />
        <path
           d="m -577.11328,446.99297 q 0,-16.48438 11.79687,-28.04688 11.79688,-11.5625 28.75,-11.5625 17.03125,0 28.90625,11.64063 11.71875,11.64062 11.71875,28.59375 0,17.10937 -11.79687,28.67187 -11.875,11.48438 -29.14063,11.48438 -17.10937,0 -28.67187,-11.71875 -11.5625,-11.5625 -11.5625,-29.0625 z m 17.96875,0.3125 q 0,11.40625 6.09375,18.04687 6.25,6.71875 16.48437,6.71875 10.3125,0 16.48438,-6.64062 6.17187,-6.64063 6.17187,-17.73438 0,-11.09375 -6.17187,-17.73437 -6.25,-6.71875 -16.48438,-6.71875 -10.07812,0 -16.32812,6.71875 -6.25,6.71875 -6.25,17.34375 z"
           style="font-style:normal;font-variant:normal;font-weight:normal;font-stretch:normal;font-size:160px;font-family:Futura;-inkscape-font-specification:Futura"
           id="path1753" />
        <path
           d="m -459.69141,409.49297 v 43.67187 q 0,18.90625 14.92188,18.90625 14.92187,0 14.92187,-18.90625 v -43.67187 h 17.57813 v 44.0625 q 0,9.14062 -2.26563,15.78125 -2.1875,5.9375 -7.57812,10.70312 -8.90625,7.73438 -22.65625,7.73438 -13.67188,0 -22.57813,-7.73438 -5.46875,-4.76562 -7.73437,-10.70312 -2.1875,-5.3125 -2.1875,-15.78125 v -44.0625 z"
           style="font-style:normal;font-variant:normal;font-weight:normal;font-stretch:normal;font-size:160px;font-family:Futura;-inkscape-font-specification:Futura"
           id="path1755" />
        <path
           d="m -333.98828,353.63359 h 17.65625 v 131.95313 h -17.65625 v -7.96875 q -10.39063,10.15625 -23.51563,10.15625 -15.625,0 -25.9375,-11.40625 -10.23437,-11.64063 -10.23437,-29.0625 0,-17.03125 10.23437,-28.4375 10.15625,-11.48438 25.54688,-11.48438 13.35937,0 23.90625,10.9375 z m -41.71875,93.67188 q 0,10.9375 5.85937,17.8125 6.01563,6.95312 15.15625,6.95312 9.76563,0 15.78125,-6.71875 6.01563,-6.95312 6.01563,-17.65625 0,-10.70312 -6.01563,-17.65625 -6.01562,-6.79687 -15.625,-6.79687 -9.0625,0 -15.15625,6.875 -6.01562,6.95312 -6.01562,17.1875 z"
           style="font-style:normal;font-variant:normal;font-weight:normal;font-stretch:normal;font-size:160px;font-family:Futura;-inkscape-font-specification:Futura"
           id="path1757" />
        <path
           d="m -200.55078,434.18047 37.34375,51.40625 h -22.26563 l -34.45312,-49.375 h -3.28125 v 49.375 h -18.20313 v -120.625 h 21.32813 q 23.90625,0 34.53125,8.98437 11.71875,10 11.71875,26.40625 0,12.8125 -7.34375,22.03125 -7.34375,9.21875 -19.375,11.79688 z m -22.65625,-13.82813 h 5.78125 q 25.85937,0 25.85937,-19.76562 0,-18.51563 -25.15625,-18.51563 h -6.48437 z"
           style="font-style:normal;font-variant:normal;font-weight:normal;font-stretch:normal;font-size:160px;font-family:Futura;-inkscape-font-specification:Futura"
           id="path1759" />
        <path
           d="m -133.44141,409.49297 v 43.67187 q 0,18.90625 14.92188,18.90625 14.92187,0 14.92187,-18.90625 v -43.67187 h 17.578129 v 44.0625 q 0,9.14062 -2.265625,15.78125 -2.1875,5.9375 -7.578125,10.70312 -8.906249,7.73438 -22.656249,7.73438 -13.67188,0 -22.57813,-7.73438 -5.46875,-4.76562 -7.73437,-10.70312 -2.1875,-5.3125 -2.1875,-15.78125 v -44.0625 z"
           style="font-style:normal;font-variant:normal;font-weight:normal;font-stretch:normal;font-size:160px;font-family:Futura;-inkscape-font-specification:Futura"
           id="path1761" />
        <path
           d="m -63.832031,409.49297 h 17.65625 v 7.03125 q 9.21875,-9.14063 20.78125,-9.14063 13.28125,0 20.7031248,8.35938 6.4062499,7.10937 6.4062499,23.20312 v 46.64063 H -15.941406 v -42.5 q 0,-11.25 -3.125,-15.54688 -3.046875,-4.375 -11.09375,-4.375 -8.75,0 -12.421875,5.78125 -3.59375,5.70313 -3.59375,19.92188 v 36.71875 h -17.65625 z"
           style="font-style:normal;font-variant:normal;font-weight:normal;font-stretch:normal;font-size:160px;font-family:Futura;-inkscape-font-specification:Futura"
           id="path1763" />
      </g>
    </g>
  </g>
</svg>
