<svg version="1.1" id="Ebene_1" xmlns="http://www.w3.org/2000/svg" xmlns:xlink="http://www.w3.org/1999/xlink" x="0px" y="0px"
	 viewBox="0 0 375.9 113" style="enable-background:new 0 0 375.9 113;" xml:space="preserve">
<g>
	<g>
		<g>
			<path class="st0" d="M77.5,58.2c-0.3,0-0.4,0-0.6-0.1c-0.6-0.1-1-0.5-1.4-1c-0.3-0.5-0.4-1.1-0.3-1.8c0.3-1,1.1-1.6,2.1-1.6
				c0.3,0,0.4,0,0.6,0.1c1.3,0.4,1.9,1.5,1.6,2.8C79.4,57.5,78.5,58.2,77.5,58.2L77.5,58.2z"/>
			<path class="st0" d="M77,58.1c1.1,0.4,2.4-0.4,2.8-1.5c0.3-1.1-0.4-2.4-1.5-2.8c-1.1-0.4-2.4,0.4-2.8,1.5
				C75.1,56.6,75.7,57.7,77,58.1z"/>
			<path class="st0" d="M74.3,47.9c-1,0-1.9-0.6-2.1-1.6c-0.4-1.3,0.4-2.4,1.6-2.8c0.3,0,0.4-0.1,0.6-0.1c1,0,1.9,0.6,2.1,1.6
				c0.4,1.3-0.4,2.4-1.6,2.8C74.7,47.7,74.6,47.9,74.3,47.9L74.3,47.9z"/>
			<path class="st0" d="M74.9,47.7c1.1-0.4,1.9-1.5,1.5-2.8c-0.4-1.1-1.5-1.9-2.8-1.5c-1.1,0.4-1.9,1.5-1.5,2.8
				C72.5,47.4,73.8,48,74.9,47.7z"/>
			<path class="st0" d="M66.4,40.3c-0.6,0-1.1-0.3-1.6-0.6s-0.6-1-0.6-1.6c0-0.6,0.3-1.1,0.6-1.6c0.4-0.4,1-0.6,1.6-0.6
				s1.1,0.3,1.6,0.6c0.4,0.4,0.6,1,0.6,1.6c0,0.6-0.3,1.1-0.6,1.6C67.5,40,67,40.3,66.4,40.3L66.4,40.3z"/>
			<path class="st0" d="M64.7,36.5c-0.9,0.9-0.9,2.3,0,3.2c0.9,0.9,2.3,0.9,3.2,0c0.9-0.9,0.9-2.3,0-3.2
				C67,35.6,65.6,35.6,64.7,36.5z"/>
			<path class="st0" d="M55.7,37.8c-0.3,0-0.4,0-0.6-0.1c-1.3-0.4-1.9-1.5-1.6-2.8c0.3-1,1.1-1.6,2.1-1.6c0.3,0,0.4,0,0.6,0.1
				c0.6,0.1,1,0.5,1.4,1c0.3,0.5,0.4,1.1,0.3,1.8C57.8,37.1,56.8,37.8,55.7,37.8L55.7,37.8z"/>
			<path class="st0" d="M56.4,33.5c-1.1-0.4-2.4,0.4-2.8,1.5c-0.4,1.1,0.4,2.4,1.5,2.8c1.1,0.4,2.4-0.4,2.8-1.5
				C58.3,35,57.5,33.7,56.4,33.5z"/>
			<path class="st0" d="M45.4,40.9c-1,0-1.9-0.6-2.1-1.6c-0.4-1.3,0.4-2.4,1.6-2.8c0.3,0,0.4-0.1,0.6-0.1c1,0,1.9,0.6,2.1,1.6
				c0.4,1.3-0.4,2.4-1.6,2.8C45.8,40.9,45.6,40.9,45.4,40.9z"/>
			<path class="st0" d="M46,40.8c1.1-0.4,1.9-1.5,1.5-2.8c-0.4-1.1-1.5-1.9-2.8-1.5c-1.1,0.4-1.8,1.5-1.5,2.8
				C43.6,40.4,44.9,41.2,46,40.8z"/>
			<path class="st0" d="M37.9,49c-0.6,0-1.1-0.3-1.6-0.6c-0.4-0.4-0.6-1-0.6-1.6s0.3-1.1,0.6-1.6c0.4-0.4,1-0.6,1.6-0.6
				s1.1,0.3,1.6,0.6c0.9,0.9,0.9,2.3,0,3.2C39.2,48.8,38.6,49,37.9,49z"/>
			<path class="st0" d="M36.3,45c-0.9,0.9-0.9,2.3,0,3.2c0.9,0.9,2.3,0.9,3.2,0c0.9-0.9,0.9-2.3,0-3.2C38.7,44.1,37.2,44.1,36.3,45z
				"/>
			<path class="st0" d="M35.4,59.5c-0.3,0-0.4,0-0.6-0.1c-1.3-0.4-1.9-1.5-1.6-2.8c0.3-1,1.1-1.6,2.1-1.6c0.3,0,0.4,0,0.6,0.1
				c1.3,0.4,1.9,1.5,1.6,2.8C37.3,58.9,36.4,59.5,35.4,59.5L35.4,59.5z"/>
			<path class="st0" d="M36,55.1c-1.1-0.4-2.4,0.4-2.8,1.5c-0.4,1.1,0.4,2.4,1.5,2.8c1.1,0.4,2.4-0.4,2.8-1.5
				C37.9,56.6,37.2,55.5,36,55.1z"/>
			<path class="st0" d="M38.7,69.9c-1,0-1.9-0.6-2.1-1.6c-0.4-1.3,0.4-2.4,1.6-2.8c0.3,0,0.4-0.1,0.6-0.1c1,0,1.9,0.6,2.1,1.6
				c0.4,1.3-0.4,2.4-1.6,2.8C39.1,69.9,38.8,69.9,38.7,69.9L38.7,69.9z"/>
			<path class="st0" d="M37.9,65.4c-1.1,0.4-1.9,1.5-1.5,2.8c0.4,1.1,1.5,1.9,2.8,1.5c1.1-0.4,1.9-1.5,1.5-2.8
				C40.5,65.8,39.3,65.2,37.9,65.4z"/>
			<path class="st0" d="M46.5,77.3c-0.6,0-1.1-0.3-1.6-0.6c-0.4-0.4-0.6-1-0.6-1.6s0.3-1.1,0.6-1.6c0.4-0.4,1-0.6,1.6-0.6
				s1.1,0.3,1.6,0.6c0.9,0.9,0.9,2.3,0,3.2C47.8,77.1,47.2,77.3,46.5,77.3z"/>
			<path class="st0" d="M48.2,76.5c0.9-0.9,0.9-2.3,0-3.2c-0.9-0.9-2.3-0.9-3.2,0c-0.9,0.9-0.9,2.3,0,3.2
				C45.9,77.4,47.3,77.4,48.2,76.5z"/>
			<path class="st0" d="M57.1,79.8c-0.3,0-0.4,0-0.6-0.1c-0.6-0.1-1-0.5-1.4-1c-0.3-0.5-0.4-1.1-0.3-1.8c0.3-1,1.1-1.6,2.1-1.6
				c0.3,0,0.4,0,0.6,0.1c0.6,0.1,1,0.5,1.4,1c0.3,0.5,0.4,1.1,0.3,1.8C59,79.2,58.1,79.8,57.1,79.8L57.1,79.8z"/>
			<path class="st0" d="M56.5,79.8c1.1,0.4,2.4-0.4,2.8-1.5c0.4-1.1-0.4-2.4-1.5-2.8s-2.4,0.4-2.8,1.5
				C54.6,78.2,55.4,79.5,56.5,79.8z"/>
			<path class="st0" d="M67.5,76.7c-1,0-1.9-0.6-2.1-1.6c-0.1-0.6-0.1-1.1,0.3-1.8c0.3-0.5,0.8-0.9,1.4-1c0.3,0,0.4-0.1,0.6-0.1
				c1,0,1.9,0.6,2.1,1.6c0.4,1.3-0.4,2.4-1.6,2.8C67.9,76.5,67.6,76.7,67.5,76.7L67.5,76.7z"/>
			<path class="st0" d="M66.9,72.3c-1.1,0.4-1.9,1.5-1.5,2.8c0.4,1.1,1.5,1.9,2.8,1.5c1.1-0.4,1.9-1.5,1.5-2.8
				C69.4,72.6,68.1,71.9,66.9,72.3z"/>
			<path class="st0" d="M75.1,68.7c-0.6,0-1.1-0.3-1.6-0.6c-0.9-0.9-0.9-2.3,0-3.2c0.4-0.4,1-0.6,1.6-0.6s1.1,0.3,1.6,0.6
				c0.9,0.9,0.9,2.3,0,3.2C76.2,68.5,75.6,68.7,75.1,68.7z"/>
			<path class="st0" d="M76.6,68.1c0.9-0.9,0.9-2.3,0-3.2c-0.9-0.9-2.3-0.9-3.2,0s-0.9,2.3,0,3.2C74.3,69,75.7,69,76.6,68.1z"/>
			<g>
				<path class="st0" d="M88,59.4c-0.3,0-0.5,0-0.6-0.1c-1.4-0.4-2.3-1.8-1.9-3.3c0.3-1.1,1.4-2,2.5-2c0.3,0,0.5,0,0.6,0.1
					c1.4,0.4,2.3,1.8,1.9,3.3C90.2,58.5,89.2,59.4,88,59.4L88,59.4z"/>
				<path class="st0" d="M88.7,54.2c-1.4-0.4-2.8,0.5-3.2,1.9c-0.4,1.4,0.5,2.8,1.9,3.2c1.4,0.4,2.8-0.5,3.2-1.9
					C90.9,56,90.1,54.6,88.7,54.2z"/>
				<path class="st0" d="M83.8,43.5c-1.1,0-2.3-0.8-2.5-1.9c-0.1-0.6-0.1-1.4,0.3-2c0.4-0.6,0.9-1,1.6-1.3c0.3,0,0.5-0.1,0.6-0.1
					c1.1,0,2.3,0.8,2.5,1.9c0.1,0.6,0.1,1.4-0.3,2c-0.4,0.6-0.9,1-1.6,1.3C84.3,43.5,84,43.5,83.8,43.5L83.8,43.5z"/>
				<path class="st0" d="M84.5,43.3c1.4-0.4,2.3-1.8,1.9-3.2c-0.4-1.4-1.8-2.3-3.2-1.9c-1.4,0.4-2.3,1.8-1.9,3.2
					C81.6,42.8,83.2,43.7,84.5,43.3z"/>
				<path class="st0" d="M72.4,32c-0.8,0-1.4-0.3-1.9-0.8c-0.5-0.5-0.8-1.1-0.8-1.9s0.3-1.4,0.8-1.9s1.1-0.8,1.9-0.8
					s1.4,0.3,1.9,0.8c1,1,1,2.7,0,3.8C73.7,31.7,73,32,72.4,32L72.4,32z"/>
				<path class="st0" d="M70.5,31.1c1,1,2.7,1,3.7,0c1-1,1-2.7,0-3.7s-2.7-1-3.7,0S69.5,30.1,70.5,31.1z"/>
				<path class="st0" d="M56.5,27.7c-0.3,0-0.5,0-0.6-0.1c-1.4-0.4-2.3-1.8-1.9-3.3c0.3-1.1,1.4-1.9,2.5-1.9c0.3,0,0.5,0,0.6,0.1
					c1.4,0.4,2.3,1.8,1.9,3.3C58.8,26.9,57.8,27.7,56.5,27.7L56.5,27.7z"/>
				<path class="st0" d="M55.9,27.5c1.4,0.4,2.8-0.5,3.2-1.9c0.4-1.4-0.5-2.8-1.9-3.2S54.4,23,54,24.4S54.5,27.2,55.9,27.5z"/>
				<path class="st0" d="M40.8,31.8c-1.1,0-2.3-0.8-2.5-1.9c-0.4-1.4,0.5-2.9,1.9-3.3c0.3,0,0.5-0.1,0.6-0.1c1.1,0,2.3,0.8,2.5,1.9
					c0.4,1.4-0.5,2.9-1.9,3.3C41.2,31.8,41.1,31.8,40.8,31.8z"/>
				<path class="st0" d="M40.1,26.7c-1.4,0.4-2.3,1.8-1.9,3.2s1.8,2.3,3.2,1.9s2.3-1.8,1.9-3.2C43,27.2,41.5,26.3,40.1,26.7z"/>
				<path class="st0" d="M29.1,43.3c-0.8,0-1.4-0.3-1.9-0.8s-0.8-1.1-0.8-1.9c0-0.8,0.3-1.4,0.8-1.9s1.1-0.8,1.9-0.8
					c0.8,0,1.4,0.3,1.9,0.8c0.5,0.5,0.8,1.1,0.8,1.9s-0.3,1.4-0.8,1.9C30.5,43.1,29.8,43.3,29.1,43.3L29.1,43.3z"/>
				<path class="st0" d="M27.3,42.6c1,1,2.7,1,3.7,0c1-1,1-2.7,0-3.7c-1-1-2.7-1-3.7,0C26.3,39.9,26.3,41.6,27.3,42.6z"/>
				<path class="st0" d="M24.9,59.1c-0.3,0-0.5,0-0.6-0.1c-1.4-0.4-2.3-1.8-1.9-3.3c0.3-1.1,1.4-1.9,2.5-1.9c0.3,0,0.5,0,0.6,0.1
					c1.4,0.4,2.3,1.8,1.9,3.3C27.2,58.4,26.1,59.1,24.9,59.1L24.9,59.1z"/>
				<path class="st0" d="M24.2,59c1.4,0.4,2.8-0.5,3.2-1.9c0.4-1.4-0.5-2.8-1.9-3.2c-1.4-0.4-2.8,0.5-3.2,1.9
					C22,57.2,22.8,58.6,24.2,59z"/>
				<path class="st0" d="M29.1,74.9c-1.1,0-2.3-0.8-2.5-1.9c-0.4-1.4,0.5-2.9,1.9-3.3c0.3,0,0.5-0.1,0.6-0.1c1.1,0,2.3,0.8,2.5,1.9
					c0.4,1.4-0.5,2.9-1.9,3.3C29.5,74.9,29.3,74.9,29.1,74.9L29.1,74.9z"/>
				<path class="st0" d="M28.3,69.7c-1.4,0.4-2.3,1.8-1.9,3.2c0.4,1.4,1.8,2.3,3.2,1.9c1.4-0.4,2.3-1.8,1.9-3.2
					C31.2,70.2,29.7,69.3,28.3,69.7z"/>
				<path class="st0" d="M40.7,86.5c-0.8,0-1.4-0.3-1.9-0.8c-0.5-0.5-0.9-1.1-0.9-1.9s0.3-1.4,0.8-1.9c0.5-0.5,1.1-0.8,1.9-0.8
					s1.4,0.3,1.9,0.8c1,1,1,2.7,0,3.8C42.1,86.3,41.3,86.5,40.7,86.5L40.7,86.5z"/>
				<path class="st0" d="M42.5,82.1c-1-1-2.7-1-3.7,0c-1,1-1,2.7,0,3.7c1,1,2.7,1,3.7,0C43.5,84.8,43.5,83.1,42.5,82.1z"/>
				<path class="st0" d="M56.4,90.8c-0.3,0-0.5,0-0.6-0.1c-0.6-0.1-1.3-0.6-1.6-1.3c-0.4-0.6-0.5-1.3-0.3-2c0.3-1.1,1.4-1.9,2.5-1.9
					c0.3,0,0.5,0,0.6,0.1c0.6,0.1,1.3,0.6,1.6,1.3c0.4,0.6,0.5,1.3,0.3,2C58.6,89.9,57.5,90.8,56.4,90.8L56.4,90.8z"/>
				<path class="st0" d="M57,85.6c-1.4-0.4-2.8,0.5-3.2,1.9s0.5,2.8,1.9,3.2c1.4,0.4,2.8-0.5,3.2-1.9C59.3,87.4,58.4,86,57,85.6z"/>
				<path class="st0" d="M72.3,86.7c-1.1,0-2.3-0.8-2.5-1.9c-0.1-0.6-0.1-1.4,0.3-2c0.4-0.6,0.9-1,1.6-1.3c0.3,0,0.5-0.1,0.6-0.1
					c1.1,0,2.3,0.8,2.5,1.9c0.4,1.4-0.5,2.9-1.9,3.3C72.7,86.5,72.4,86.7,72.3,86.7L72.3,86.7z"/>
				<path class="st0" d="M72.9,86.5c1.4-0.4,2.3-1.8,1.9-3.2s-1.8-2.3-3.2-1.9c-1.4,0.4-2.3,1.8-1.9,3.2S71.5,86.9,72.9,86.5z"/>
				<path class="st0" d="M83.8,75c-0.8,0-1.4-0.3-1.9-0.8c-1-1-1-2.7,0-3.8c0.5-0.5,1.1-0.8,1.9-0.8c0.8,0,1.4,0.3,1.9,0.8
					c1,1,1,2.7,0,3.8C85.2,74.8,84.4,75,83.8,75L83.8,75z"/>
				<path class="st0" d="M85.6,70.5c-1-1-2.7-1-3.7,0c-1,1-1,2.7,0,3.7c1,1,2.7,1,3.7,0C86.6,73.1,86.6,71.5,85.6,70.5z"/>
			</g>
			<g>
				<path class="st0" d="M98.8,64.8c-0.3,0-0.6,0-0.9-0.1c-1.8-0.5-2.9-2.4-2.4-4.2c0.4-1.5,1.8-2.5,3.3-2.5c0.3,0,0.6,0,0.9,0.1
					c0.9,0.3,1.6,0.8,2,1.6c0.5,0.8,0.6,1.6,0.4,2.5C101.7,63.8,100.5,64.8,98.8,64.8L98.8,64.8z"/>
				<path class="st0" d="M97.9,64.7c1.8,0.5,3.7-0.6,4.2-2.4c0.5-1.8-0.6-3.7-2.4-4.2c-1.8-0.5-3.7,0.6-4.2,2.4
					C95,62.4,96.2,64.2,97.9,64.7z"/>
				<path class="st0" d="M95.5,42.9c-1.5,0-2.9-1-3.3-2.5c-0.5-1.8,0.6-3.7,2.4-4.2c0.3-0.1,0.6-0.1,0.9-0.1c1.5,0,2.9,1,3.3,2.5
					c0.5,1.8-0.6,3.7-2.4,4.2C96.2,42.9,95.8,42.9,95.5,42.9L95.5,42.9z"/>
				<path class="st0" d="M98.8,38.7c-0.5-1.8-2.3-2.9-4.2-2.4c-1.8,0.5-2.9,2.3-2.4,4.2c0.5,1.8,2.3,2.9,4.2,2.4
					C98.2,42.3,99.3,40.5,98.8,38.7z"/>
				<path class="st0" d="M81.9,25.8c-0.9,0-1.8-0.4-2.4-1c-0.6-0.6-1-1.5-1-2.4s0.4-1.8,1-2.4c0.6-0.6,1.5-1,2.4-1s1.8,0.4,2.4,1
					c0.6,0.6,1,1.5,1,2.4c0,0.9-0.4,1.8-1,2.4C83.7,25.4,82.8,25.8,81.9,25.8z"/>
				<path class="st0" d="M84.3,20c-1.3-1.3-3.4-1.3-4.8,0c-1.3,1.3-1.3,3.4,0,4.8c1.3,1.3,3.4,1.3,4.8,0
					C85.6,23.4,85.6,21.3,84.3,20z"/>
				<path class="st0" d="M61.3,17.7c-0.3,0-0.6,0-0.9-0.1c-1.8-0.5-2.9-2.4-2.4-4.2c0.4-1.5,1.8-2.5,3.3-2.5c0.3,0,0.6,0,0.9,0.1
					c0.9,0.3,1.6,0.8,2,1.6c0.5,0.8,0.6,1.6,0.4,2.5C64.2,16.7,62.8,17.7,61.3,17.7L61.3,17.7z"/>
				<path class="st0" d="M60.4,17.6c1.8,0.5,3.7-0.6,4.2-2.4S64,11.5,62.2,11c-1.8-0.5-3.7,0.6-4.2,2.4C57.6,15,58.6,17.1,60.4,17.6
					z"/>
				<path class="st0" d="M39.6,20.8c-1.5,0-2.9-1-3.3-2.5c-0.5-1.8,0.6-3.7,2.4-4.2c0.3-0.1,0.6-0.1,0.9-0.1c1.5,0,2.9,1,3.3,2.5
					c0.3,0.9,0.1,1.8-0.4,2.5c-0.5,0.8-1.1,1.4-2,1.6C40.2,20.8,39.8,20.8,39.6,20.8z"/>
				<path class="st0" d="M40.5,20.7c1.8-0.5,2.9-2.3,2.4-4.2c-0.5-1.8-2.3-2.9-4.2-2.4c-1.8,0.5-2.9,2.3-2.4,4.2
					C36.7,20.2,38.7,21.2,40.5,20.7z"/>
				<path class="st0" d="M22.3,34.6c-0.9,0-1.8-0.4-2.4-1c-1.3-1.3-1.3-3.5,0-4.8c0.6-0.6,1.5-1,2.4-1c0.9,0,1.8,0.4,2.4,1
					c0.6,0.6,1,1.5,1,2.4c0,0.9-0.4,1.8-1,2.4C23.9,34.2,23.2,34.6,22.3,34.6L22.3,34.6z"/>
				<path class="st0" d="M24.5,28.8c-1.3-1.3-3.4-1.3-4.8,0c-1.3,1.3-1.3,3.4,0,4.8c1.3,1.3,3.4,1.3,4.8,0
					C25.9,32.2,25.9,30.1,24.5,28.8z"/>
				<path class="st0" d="M14.2,55.1c-0.3,0-0.6,0-0.9-0.1c-0.9-0.3-1.6-0.8-2-1.5c-0.5-0.8-0.6-1.6-0.4-2.5c0.4-1.5,1.8-2.5,3.3-2.5
					c0.3,0,0.6,0,0.9,0.1c1.8,0.5,2.9,2.4,2.4,4.2C17,54.1,15.7,55.1,14.2,55.1L14.2,55.1z"/>
				<path class="st0" d="M14.9,48.5c-1.8-0.5-3.7,0.6-4.2,2.4c-0.5,1.8,0.6,3.7,2.4,4.2c1.8,0.5,3.7-0.6,4.2-2.4
					C17.8,50.8,16.8,49,14.9,48.5z"/>
				<path class="st0" d="M17.3,76.9c-1.5,0-2.9-1-3.3-2.5c-0.5-1.8,0.6-3.7,2.4-4.2c0.3-0.1,0.6-0.1,0.9-0.1c1.5,0,2.9,1,3.3,2.5
					c0.5,1.8-0.6,3.7-2.4,4.2C18,76.8,17.7,76.9,17.3,76.9L17.3,76.9z"/>
				<path class="st0" d="M16.5,70.2c-1.8,0.5-2.9,2.3-2.4,4.2c0.5,1.8,2.3,2.9,4.2,2.4c1.8-0.5,2.9-2.3,2.4-4.2
					C20.1,70.9,18.2,69.7,16.5,70.2z"/>
				<path class="st0" d="M31,94.2c-0.9,0-1.8-0.4-2.4-1c-0.6-0.6-1-1.5-1-2.4s0.4-1.8,1-2.4c0.6-0.6,1.5-1,2.4-1
					c0.9,0,1.8,0.4,2.4,1c1.3,1.3,1.3,3.5,0,4.8C32.8,93.9,32,94.2,31,94.2L31,94.2z"/>
				<path class="st0" d="M33.4,88.4c-1.3-1.3-3.4-1.3-4.8,0c-1.3,1.3-1.3,3.4,0,4.8c1.3,1.3,3.4,1.3,4.8,0
					C34.8,91.8,34.8,89.8,33.4,88.4z"/>
				<path class="st0" d="M51.6,102.3c-0.3,0-0.6,0-0.9-0.1c-1.8-0.5-2.9-2.4-2.4-4.2c0.4-1.5,1.8-2.5,3.3-2.5c0.3,0,0.6,0,0.9,0.1
					c0.9,0.3,1.6,0.8,2,1.6c0.5,0.8,0.6,1.6,0.4,2.5C54.5,101.3,53.1,102.3,51.6,102.3L51.6,102.3z"/>
				<path class="st0" d="M52.5,95.6c-1.8-0.5-3.7,0.6-4.2,2.4c-0.5,1.8,0.6,3.7,2.4,4.2c1.8,0.5,3.7-0.6,4.2-2.4
					C55.4,98,54.2,96.1,52.5,95.6z"/>
				<path class="st0" d="M73.4,99c-1.5,0-2.9-1-3.3-2.5c-0.3-0.9-0.1-1.8,0.4-2.5c0.5-0.8,1.1-1.4,2-1.6c0.3-0.1,0.6-0.1,0.9-0.1
					c1.5,0,2.9,1,3.3,2.5c0.5,1.8-0.6,3.7-2.4,4.2C74.1,99,73.8,99,73.4,99L73.4,99z"/>
				<path class="st0" d="M72.7,92.5c-1.8,0.5-2.9,2.3-2.4,4.2c0.5,1.8,2.3,2.9,4.2,2.4c1.8-0.5,2.9-2.3,2.4-4.2
					C76.2,93,74.4,92,72.7,92.5z"/>
				<path class="st0" d="M90.7,85.4c-0.9,0-1.8-0.4-2.4-1s-1-1.5-1-2.4c0-0.9,0.4-1.8,1-2.4s1.5-1,2.4-1s1.8,0.4,2.4,1
					c1.3,1.3,1.3,3.5,0,4.8C92.5,85,91.6,85.4,90.7,85.4z"/>
				<path class="st0" d="M93,84.4c1.3-1.3,1.3-3.4,0-4.8c-1.3-1.3-3.4-1.3-4.8,0c-1.3,1.3-1.3,3.4,0,4.8
					C89.6,85.6,91.7,85.6,93,84.4z"/>
			</g>
			<g>
				<path class="st0" d="M109,74.5c-0.4,0-0.6,0-1-0.1c-1-0.3-1.9-0.9-2.4-1.9s-0.6-2-0.4-3c0.5-1.8,2-2.9,3.8-2.9
					c0.4,0,0.6,0,1,0.1c2.1,0.5,3.4,2.8,2.8,4.8C112.3,73.4,110.8,74.5,109,74.5L109,74.5z"/>
				<path class="st0" d="M110.1,66.8c-2.1-0.5-4.3,0.6-4.8,2.8c-0.5,2.1,0.6,4.3,2.8,4.8s4.3-0.6,4.8-2.8
					C113.3,69.5,112.1,67.3,110.1,66.8z"/>
				<path class="st0" d="M109,46.4c-1.8,0-3.4-1.3-3.8-2.9c-0.3-1-0.1-2.1,0.4-3c0.5-0.9,1.4-1.5,2.4-1.9c0.4-0.1,0.6-0.1,1-0.1
					c1.8,0,3.3,1.3,3.8,2.9c0.3,1,0.1,2-0.4,3c-0.5,1-1.4,1.5-2.4,1.9C109.7,46.4,109.3,46.4,109,46.4L109,46.4z"/>
				<path class="st0" d="M110.1,46.2c2.1-0.5,3.3-2.7,2.8-4.8c-0.5-2.1-2.7-3.3-4.8-2.8c-2.1,0.5-3.3,2.7-2.8,4.8
					C105.8,45.6,107.9,46.9,110.1,46.2z"/>
				<path class="st0" d="M94.9,22.1c-1,0-2-0.4-2.8-1.1c-0.8-0.8-1.1-1.8-1.1-2.8s0.4-2,1.1-2.8c0.8-0.8,1.8-1.1,2.8-1.1
					c1,0,2,0.4,2.8,1.1c1.5,1.5,1.5,4,0,5.6C96.9,21.7,95.9,22.1,94.9,22.1L94.9,22.1z"/>
				<path class="st0" d="M92.1,21c1.5,1.5,4,1.5,5.6,0c1.5-1.5,1.5-4,0-5.6c-1.5-1.5-4-1.5-5.6,0C90.6,16.9,90.6,19.5,92.1,21z"/>
				<path class="st0" d="M70.6,8c-0.4,0-0.6,0-1-0.1c-2.1-0.5-3.4-2.8-2.8-4.8c0.5-1.8,2-2.9,3.8-2.9c0.4,0,0.6,0,1,0.1
					c2.1,0.5,3.4,2.8,2.8,4.8C73.9,6.8,72.4,8,70.6,8L70.6,8z"/>
				<path class="st0" d="M69.6,7.8c2.1,0.5,4.3-0.6,4.8-2.8s-0.6-4.3-2.8-4.8c-2.1-0.5-4.2,0.6-4.8,2.8S67.4,7.3,69.6,7.8z"/>
				<path class="st0" d="M42.5,8c-1.8,0-3.4-1.3-3.8-2.9c-0.3-1-0.1-2,0.4-3c0.5-0.9,1.4-1.5,2.4-1.9C41.8,0,42.1,0,42.5,0
					c1.8,0,3.4,1.3,3.8,2.9c0.5,2.1-0.6,4.3-2.8,4.8C43.1,8,42.7,8,42.5,8L42.5,8z"/>
				<path class="st0" d="M43.5,7.8c2.1-0.5,3.3-2.7,2.8-4.8c-0.5-2.1-2.7-3.3-4.8-2.8s-3.3,2.7-2.8,4.8C39.2,7.2,41.3,8.3,43.5,7.8z
					"/>
				<path class="st0" d="M18.1,22.1c-1,0-2-0.4-2.8-1.1c-0.8-0.8-1.1-1.8-1.1-2.8c0-1,0.4-2,1.1-2.8s1.8-1.1,2.8-1.1s2,0.4,2.8,1.1
					c0.8,0.8,1.1,1.8,1.1,2.8c0,1-0.4,2-1.1,2.8C20.1,21.7,19.1,22.1,18.1,22.1L18.1,22.1z"/>
				<path class="st0" d="M15.3,21c1.5,1.5,4,1.5,5.6,0c1.5-1.5,1.5-4,0-5.6c-1.5-1.5-4-1.5-5.6,0C13.8,16.9,13.8,19.5,15.3,21z"/>
				<path class="st0" d="M4,46.4c-0.4,0-0.6,0-1-0.1c-2.1-0.5-3.4-2.8-2.8-4.8c0.5-1.8,2-2.9,3.8-2.9c0.4,0,0.6,0,1,0.1
					c1,0.3,1.9,0.9,2.4,1.9s0.6,2,0.4,3C7.4,45.2,5.7,46.4,4,46.4L4,46.4z"/>
				<path class="st0" d="M5,38.7c-2.1-0.5-4.3,0.6-4.8,2.8c-0.5,2.1,0.6,4.3,2.8,4.8s4.3-0.6,4.8-2.8C8.4,41.4,7.1,39.3,5,38.7z"/>
				<path class="st0" d="M4,74.5c-1.8,0-3.4-1.3-3.8-2.9c-0.3-1-0.1-2,0.4-3c0.5-0.9,1.4-1.5,2.4-1.9c0.4-0.1,0.6-0.1,1-0.1
					c1.8,0,3.3,1.3,3.8,2.9c0.3,1,0.1,2-0.4,3C6.9,73.4,6,74,5,74.4C4.6,74.5,4.2,74.5,4,74.5L4,74.5z"/>
				<path class="st0" d="M2.9,66.8c-2.1,0.5-3.3,2.7-2.8,4.8s2.7,3.3,4.8,2.8c2.1-0.5,3.3-2.7,2.8-4.8C7.2,67.5,5,66.3,2.9,66.8z"/>
				<path class="st0" d="M18.1,98.9c-1,0-2-0.4-2.8-1.1c-1.5-1.5-1.5-4,0-5.6c0.8-0.8,1.8-1.1,2.8-1.1s2,0.4,2.8,1.1
					C21.6,93,22,94,22,95c0,1-0.4,2-1.1,2.8C20.1,98.5,19.1,98.9,18.1,98.9L18.1,98.9z"/>
				<path class="st0" d="M20.9,92.2c-1.5-1.5-4-1.5-5.6,0s-1.5,4,0,5.6c1.5,1.5,4,1.5,5.6,0C22.4,96.3,22.4,93.7,20.9,92.2z"/>
				<path class="st0" d="M42.5,113c-0.4,0-0.6,0-1-0.1c-1-0.3-1.9-0.9-2.4-1.9s-0.6-2-0.4-3c0.5-1.8,2-2.9,3.8-2.9
					c0.4,0,0.6,0,1,0.1c1,0.3,1.9,0.9,2.4,1.9c0.5,1,0.6,2,0.4,3C45.8,111.9,44.2,113,42.5,113L42.5,113z"/>
				<path class="st0" d="M43.5,105.2c-2.1-0.5-4.2,0.6-4.8,2.8c-0.5,2.1,0.6,4.3,2.8,4.8c2.1,0.5,4.2-0.6,4.8-2.8
					C46.8,107.9,45.5,105.7,43.5,105.2z"/>
				<path class="st0" d="M70.5,113c-1.8,0-3.3-1.3-3.8-2.9c-0.3-1-0.1-2.1,0.4-3s1.4-1.5,2.4-1.9c0.4-0.1,0.6-0.1,1-0.1
					c1.8,0,3.3,1.3,3.8,2.9c0.5,2.1-0.6,4.3-2.8,4.8C71.3,113,70.9,113,70.5,113L70.5,113z"/>
				<path class="st0" d="M69.6,105.2c-2.1,0.5-3.3,2.7-2.8,4.8c0.5,2.1,2.7,3.3,4.8,2.8c2.1-0.5,3.3-2.7,2.8-4.8
					C73.8,105.8,71.7,104.7,69.6,105.2z"/>
				<path class="st0" d="M94.9,98.9c-1,0-2-0.4-2.8-1.1C91.4,97,91,96,91,95s0.4-2,1.1-2.8c0.8-0.8,1.8-1.1,2.8-1.1
					c1,0,2,0.4,2.8,1.1s1.1,1.8,1.1,2.8c0,1-0.4,2-1.1,2.8C96.9,98.5,95.9,98.9,94.9,98.9L94.9,98.9z"/>
				<path class="st0" d="M97.7,92.2c-1.5-1.5-4-1.5-5.6,0c-1.5,1.5-1.5,4,0,5.6c1.5,1.5,4,1.5,5.6,0C99.2,96.3,99.2,93.7,97.7,92.2z
					"/>
			</g>
		</g>
		<g>
			<path class="st1" d="M52.3,47.1h4.2c-0.3,1.1-2,10.1-2.1,10.2c0,0.5,0,0.9,0.3,1.1c0.3,0.3,0.5,0.4,0.8,0.4c0.1,0,0.4,0,0.5-0.1
				c0.5-0.1,0.9-0.4,1.3-0.6c0.1-0.1,0.3-0.1,0.4-0.3c0.1,0,0.1-0.1,0.1-0.3l2.1-10.1v-0.1l4.2-0.1c-0.1,1.1-1.5,7.7-2,10.1
				c0,0.1,0,0.4,0,0.5c0,0.5,0.3,0.9,0.8,1c0.1,0,0.4,0.1,0.5,0.1l0,0c0.3,0,0.5-0.1,0.8-0.3c0.4-0.3,0.9-0.5,1.3-0.9
				c0.4-0.3,0.9-0.6,1.3-1c0.3-0.3,0.6-0.4,1-0.4c0.1,0,0.3,0,0.5,0l-0.6,0.6c-0.6,0.6-1.3,1.3-1.9,1.8c-0.6,0.6-1.4,1.1-2.1,1.8
				c-0.6,0.5-1.4,0.6-2.1,0.6c-0.5,0-1-0.1-1.6-0.3c-1-0.4-1.5-1-1.8-2.1c-0.1,0.1-0.3,0.4-0.5,0.5c-1.1,0.9-2.3,1.9-3.8,1.9
				l-0.3,1.1l-0.3,1l-0.1,0.3c0,0.3-0.1,0.5-0.1,0.6c0,0.5-0.3,0.6-0.8,0.8c-0.8,0.1-2.3,0.5-3.2,0.8c-0.4,0.1-0.6,0.1-0.6,0.1
				L52.3,47.1z"/>
			<path class="st1" d="M68.1,56.3c-0.9,0.9-1.8,1.8-2.7,2.7c-0.6,0.6-1.4,1.3-2.1,1.8c-1.1,0.8-2.4,0.8-3.7,0.4
				c-1-0.4-1.5-1-1.8-2.1c-1.3,1-2.5,2.3-4.4,2.4c-0.1,0.8-0.3,1.4-0.5,2.1c-0.1,0.4-0.1,0.6-0.3,1c0,0.5-0.3,0.6-0.8,0.8
				c-1.1,0.3-3.5,0.9-3.8,0.9c1.4-6.3,2.7-12.6,4-19.1c1.4,0,2.7,0,4,0c-0.3,1-2.1,10.1-2.1,10.2c-0.1,1.1,0.6,1.8,1.6,1.4
				c0.6-0.1,1.1-0.6,1.6-0.9c0.1,0,0.1-0.3,0.1-0.4c0.8-3.4,1.4-6.7,2.1-10.1c0-0.1,0-0.1,0.1-0.3c1.4,0,2.7,0,4,0
				c-0.3,1-1.6,7.7-2,10c0,0.1,0,0.4,0,0.5c0,0.5,0.3,0.9,0.8,1c0.5,0.1,0.9,0.1,1.4-0.1c0.4-0.3,0.9-0.5,1.3-0.9s0.9-0.6,1.3-1
				C67.1,56.2,67.5,56.2,68.1,56.3z"/>
		</g>
	</g>
	<g>
		<path class="st0" d="M149.7,50.7V36h-0.1l-4.8,14.7h-2.4L137.7,36h-0.1v14.7h-2.5V33h4l4.5,14h0.1l4.5-14h4.2v17.8h-2.8V50.7z"/>
		<path class="st0" d="M168.8,50.7V32.8h2.8v17.8H168.8z"/>
		<path class="st0" d="M197.5,50.5c-0.9,0.4-1.9,0.6-3.2,0.6c-1.1,0-2.3-0.3-3.2-0.8c-1-0.5-1.8-1.1-2.4-1.9
			c-0.6-0.9-1.1-1.8-1.5-2.9c-0.4-1.1-0.5-2.4-0.5-3.7c0-1.4,0.1-2.5,0.5-3.7c0.4-1.1,0.9-2.1,1.5-2.9c0.6-0.9,1.5-1.5,2.4-1.9
			c0.9-0.5,2-0.8,3.2-0.8c1.1,0,2.1,0.1,3,0.5c0.9,0.4,1.6,0.9,2.3,1.6l-1.6,1.5c-0.5-0.5-1-0.9-1.5-1.1c-0.6-0.3-1.3-0.4-1.9-0.4
			c-0.9,0-1.5,0.3-2.1,0.6c-0.6,0.4-1.1,0.9-1.5,1.5c-0.4,0.6-0.6,1.4-0.9,2.3s-0.3,1.8-0.3,2.8s0.1,1.9,0.3,2.8
			c0.3,0.9,0.5,1.6,0.9,2.3c0.4,0.6,0.9,1.1,1.5,1.5s1.4,0.6,2.1,0.6c0.8,0,1.4-0.1,2-0.5c0.6-0.4,1-0.8,1.4-1.3l1.6,1.5
			C199,49.5,198.3,50,197.5,50.5z"/>
		<path class="st0" d="M223.1,50.7l-3.7-7.8h-2.5v7.8h-2.7V32.8h5.6c0.8,0,1.5,0.1,2.3,0.3c0.8,0.1,1.3,0.5,1.9,0.9
			c0.5,0.4,0.9,0.9,1.3,1.5c0.3,0.6,0.5,1.4,0.5,2.3c0,0.8-0.1,1.4-0.4,1.9s-0.5,1-0.9,1.4c-0.4,0.4-0.8,0.6-1.1,0.9
			c-0.4,0.3-0.9,0.4-1.3,0.4l4,8.3H223.1L223.1,50.7z M223,37.8c0-0.6-0.1-1.1-0.3-1.5c-0.3-0.4-0.5-0.6-0.8-0.9
			c-0.4-0.3-0.8-0.4-1.1-0.5c-0.4-0.1-0.9-0.1-1.3-0.1h-2.4v6.2h2.5c1,0,1.9-0.3,2.5-0.8C222.6,39.5,223,38.8,223,37.8z"/>
		<path class="st0" d="M255.3,41.7c0,1.4-0.1,2.7-0.5,3.8c-0.4,1.1-0.8,2.1-1.5,2.9c-0.8,0.8-1.4,1.4-2.3,1.9
			c-0.9,0.5-1.9,0.6-3,0.6s-2.1-0.3-3.2-0.6c-0.9-0.5-1.6-1.1-2.3-1.9c-0.6-0.8-1.3-1.6-1.6-2.9c-0.4-1.1-0.5-2.4-0.5-3.8
			c0-1.4,0.1-2.7,0.5-3.8c0.4-1.1,0.8-2.1,1.4-2.9s1.4-1.4,2.3-1.9c0.9-0.4,2-0.6,3.2-0.6c1.1,0,2.1,0.3,3,0.6
			c0.9,0.4,1.6,1,2.3,1.9c0.6,0.8,1.1,1.8,1.5,2.9C255.1,39,255.3,40.3,255.3,41.7z M252.3,41.7c0-1-0.1-1.9-0.3-2.8
			c-0.3-0.9-0.5-1.6-0.9-2.3s-0.9-1.1-1.4-1.5c-0.5-0.4-1.1-0.5-1.9-0.5c-0.8,0-1.4,0.1-2,0.5c-0.5,0.4-1,0.9-1.4,1.5
			s-0.6,1.4-0.9,2.3c-0.1,0.9-0.3,1.8-0.3,2.8s0.1,1.9,0.3,2.8c0.1,0.9,0.5,1.6,0.9,2.3s0.9,1.1,1.4,1.5s1.3,0.5,2,0.5
			c0.8,0,1.4-0.1,1.9-0.5c0.5-0.4,1-0.9,1.4-1.5s0.6-1.4,0.9-2.3C252.3,43.6,252.3,42.7,252.3,41.7z"/>
		<path class="st0" d="M280.5,50.7L273.6,37h-0.1v13.6H271V32.8h3.3l6.8,13.8h0.1V32.8h2.5v17.8H280.5z"/>
		<path class="st0" d="M309.9,50.7l-1.3-4.2h-6.2l-1.3,4.2h-2.8l5.4-17.8h3.7l5.3,17.8H309.9z M305.7,35L305.7,35l-2.9,9.6h5.4
			L305.7,35z"/>
		<path class="st0" d="M339.7,47.1c-0.3,0.8-0.6,1.5-1.1,2c-0.5,0.6-1.1,1-2,1.4c-0.8,0.4-1.8,0.5-3,0.5s-2.1-0.1-3-0.5
			c-0.8-0.4-1.4-0.8-1.9-1.4s-0.9-1.3-1.1-2c-0.3-0.8-0.4-1.6-0.4-2.5V32.8h2.8v11.4c0,0.6,0,1.1,0.1,1.8c0.1,0.5,0.3,1,0.6,1.5
			c0.3,0.4,0.6,0.8,1.1,1c0.5,0.3,1.1,0.4,1.8,0.4c0.8,0,1.3-0.1,1.8-0.4c0.5-0.3,0.9-0.6,1.1-1c0.3-0.4,0.5-0.9,0.6-1.5
			c0.1-0.5,0.1-1.1,0.1-1.8V32.8h2.8v11.6C340.1,45.3,339.9,46.2,339.7,47.1z"/>
		<path class="st0" d="M361.5,34.9v15.9h-2.8V34.9h-4V33h10.9v1.9H361.5z"/>
	</g>
	<g>
		<path class="st0" d="M369.9,35c0-0.5,0.1-1,0.4-1.5c0.3-0.5,0.6-0.9,1.1-1.1s1-0.4,1.5-0.4c0.5,0,1,0.1,1.5,0.4
			c0.5,0.3,0.8,0.6,1.1,1.1c0.4,0.5,0.4,1,0.4,1.5c0,0.5-0.1,1-0.4,1.5c-0.3,0.5-0.6,0.9-1,1.1c-0.5,0.3-1,0.4-1.5,0.4
			c-0.5,0-1-0.1-1.5-0.4s-0.8-0.6-1.1-1.1C370,36,369.9,35.5,369.9,35z M375.3,35c0-0.5-0.1-0.9-0.3-1.3c-0.3-0.4-0.5-0.6-0.9-0.9
			c-0.4-0.3-0.8-0.4-1.3-0.4c-0.4,0-0.9,0.1-1.3,0.4c-0.4,0.3-0.6,0.5-0.9,0.9c-0.3,0.4-0.4,0.8-0.4,1.3s0.1,0.9,0.4,1.3
			c0.3,0.4,0.5,0.8,0.9,0.9c0.4,0.3,0.8,0.4,1.3,0.4c0.5,0,0.9-0.1,1.3-0.4c0.4-0.3,0.6-0.5,0.9-0.9C375.3,35.9,375.3,35.4,375.3,35
			z M372.3,35.2v1.4h-0.6v-3.4h1.1c0.4,0,0.8,0.1,1,0.3c0.3,0.1,0.4,0.4,0.4,0.8c0,0.3-0.1,0.5-0.5,0.8c0.1,0.1,0.3,0.3,0.4,0.4
			c0.1,0.1,0.1,0.4,0.1,0.5c0,0.3,0,0.4,0,0.5s0,0.1,0,0.3v0.1h-0.6c0-0.1,0-0.4,0-0.8c0-0.3,0-0.4-0.1-0.5
			c-0.1-0.1-0.3-0.1-0.5-0.1h-0.6L372.3,35.2L372.3,35.2z M372.3,34.7h0.6c0.3,0,0.4,0,0.5-0.1c0.1-0.1,0.3-0.3,0.3-0.4
			c0-0.1,0-0.4-0.1-0.4c-0.1-0.1-0.3-0.1-0.5-0.1h-0.6v1H372.3z"/>
	</g>
	<g>
		<g>
			<path class="st0" d="M198.1,86.3v-16h1.6v14.5h4.7v1.5C204.4,86.3,198.1,86.3,198.1,86.3z"/>
			<path class="st0" d="M221.3,86.3l-1-4h-5.1l-1,4h-1.6l4.2-16.2h2.3l4,16.2H221.3z M217.9,71.7L217.9,71.7l-2.4,9.3h4.7
				L217.9,71.7z"/>
			<path class="st0" d="M241.7,83.1c-0.1,0.8-0.4,1.4-0.8,1.9c-0.4,0.5-0.9,1-1.5,1.3c-0.6,0.3-1.4,0.5-2.3,0.5
				c-0.9,0-1.6-0.1-2.3-0.5c-0.6-0.3-1.1-0.8-1.4-1.3c-0.4-0.5-0.6-1.1-0.8-1.9c-0.1-0.8-0.3-1.5-0.3-2.4V70.2h1.6v10.2
				c0,0.6,0,1.1,0.1,1.8c0.1,0.6,0.3,1.1,0.5,1.5c0.3,0.5,0.5,0.8,0.9,1.1c0.4,0.3,0.9,0.4,1.5,0.4s1.1-0.1,1.5-0.4s0.8-0.6,0.9-1.1
				c0.3-0.5,0.4-1,0.5-1.5c0.1-0.5,0.1-1.1,0.1-1.8V70.2h1.6v10.5C241.9,81.6,241.8,82.4,241.7,83.1z"/>
			<path class="st0" d="M260.6,86.3l-5.8-13.4h-0.1v13.4h-1.5v-16h2l5.7,13.4h0.1V70.2h1.5v16.2h-1.9V86.3z"/>
			<path class="st0" d="M281.2,86.1c-0.6,0.4-1.4,0.5-2.3,0.5s-1.8-0.3-2.4-0.6c-0.8-0.4-1.3-1-1.8-1.8c-0.5-0.8-0.9-1.6-1.1-2.7
				c-0.3-1-0.4-2.1-0.4-3.3c0-1.3,0.1-2.3,0.4-3.4c0.3-1,0.6-1.9,1.1-2.7c0.5-0.8,1.1-1.4,1.8-1.8c0.8-0.4,1.5-0.6,2.4-0.6
				c0.8,0,1.5,0.1,2.1,0.5c0.6,0.4,1.3,0.8,1.6,1.5l-1,1c-0.4-0.5-0.8-0.9-1.3-1.1s-1-0.4-1.5-0.4c-0.6,0-1.3,0.1-1.8,0.5
				s-0.9,0.9-1.3,1.5c-0.4,0.6-0.6,1.4-0.8,2.3c-0.1,0.9-0.3,1.8-0.3,2.7c0,1,0.1,1.9,0.3,2.7c0.1,0.9,0.4,1.5,0.8,2.3
				c0.4,0.6,0.8,1.1,1.3,1.5s1.1,0.5,1.8,0.5s1.1-0.1,1.6-0.5c0.5-0.4,0.9-0.8,1.1-1.3l1,1C282.5,85.3,282,85.8,281.2,86.1z"/>
			<path class="st0" d="M300.9,86.3v-7.6h-6.3v7.6H293v-16h1.6v7.1h6.3v-7.1h1.6v16.2h-1.6V86.3z"/>
		</g>
	</g>
</g>
</svg>
