<?xml version="1.0" encoding="utf-8"?>
<!-- Generator: Adobe Illustrator 25.0.1, SVG Export Plug-In . SVG Version: 6.00 Build 0)  -->
<svg version="1.1" id="Ebene_1" xmlns="http://www.w3.org/2000/svg" xmlns:xlink="http://www.w3.org/1999/xlink" 
	width="250"
    height="100"
    viewBox="0 0 350 130">
<g>
	<g>
		<g>
			<path class="st0" d="M72.6,131.4c0,1.2-1,1.9-2.1,1.5L2.1,113C1,112.6,0,111.4,0,110.2V37.8c0-1.2,1-1.9,2.1-1.5l68.3,19.9
				c1.2,0.3,2.1,1.6,2.1,2.8V131.4L72.6,131.4z M50.3,73c0-1.2-1-2.4-2.1-2.8l-26.3-8.1c-1.2-0.4-2.1,0.3-2.1,1.5v31.1
				c0,1.2,1,2.4,2.1,2.8l26.3,8.1c1.2,0.4,2.1-0.3,2.1-1.5V73L50.3,73z"/>
			<path class="st1" d="M109.8,14.7l16.6,4.6c1.2,0.3,1.3,1.2,0.1,1.9L78,51.8c-1.1,0.7-3.1,1-4.3,0.7L3.6,32.1
				c-1.2-0.3-1.3-1.2-0.1-1.9L54.9,0.8c1.2-0.7,3.1-1,4.3-0.7l12,3.6l1,0.3c1.6,0.4,1.8,1,1.9,1.4c0,0.7-0.7,1.2-0.7,1.2L42.6,25
				c-1.1,0.7-1.1,1.6,0.1,1.9l26.7,7.8c1.2,0.4,3.1,0.1,4.2-0.6l30.1-18c0,0,1.6-0.8,2.8-1.3C108.2,14,109.8,14.7,109.8,14.7"/>
		</g>
		<g>
			<path class="st2" d="M113.4,68.1c0-1.9,1-2.8,2.2-3.6l14.2-9c1.2-0.8,2.8,0,2.8,1.6l0,39.7c-0.1,1.6,0,2.6-2.5,4.3l-14.8,10.7
				c-1.2,0.8-1.9,0.1-1.9-1.1L113.4,68.1L113.4,68.1z"/>
			<path class="st2" d="M112.8,38.2c0-1.2,1-2.8,2.2-3.6l15.5-10.2c1.2-0.8,2.1,0.1,2.1,1.3l-0.1,19.3c-0.1,1.4-0.7,2.5-2,3.4
				l-15.6,9.8c-1.2,0.8-2.1,0.3-2.1-0.9L112.8,38.2L112.8,38.2z"/>
		</g>
	</g>
	<g>
		<path class="st0" d="M161.2,34.9c0-1.3,0.2-2.6,0.7-3.7c0.5-1.1,1.1-2,1.9-2.8c0.8-0.8,1.8-1.4,2.9-1.8c1.1-0.4,2.3-0.6,3.6-0.6
			c1.3,0,2.5,0.2,3.6,0.6c1.1,0.4,2.1,1,2.9,1.8c0.8,0.8,1.4,1.7,1.9,2.8c0.5,1.1,0.7,2.3,0.7,3.7c0,1.3-0.2,2.6-0.7,3.7
			c-0.4,1.1-1.1,2-1.9,2.8c-0.8,0.8-1.8,1.4-2.9,1.8c-1.1,0.4-2.3,0.6-3.6,0.6c-1.3,0-2.5-0.2-3.6-0.6c-1.1-0.4-2.1-1-2.9-1.8
			c-0.8-0.8-1.4-1.7-1.9-2.8C161.4,37.5,161.2,36.3,161.2,34.9z M165,34.9c0,0.8,0.1,1.5,0.4,2.2c0.2,0.7,0.6,1.2,1.1,1.7
			c0.5,0.5,1,0.9,1.7,1.1c0.6,0.3,1.4,0.4,2.1,0.4c0.8,0,1.5-0.1,2.1-0.4c0.6-0.3,1.2-0.6,1.6-1.1c0.5-0.5,0.8-1,1.1-1.7
			c0.2-0.7,0.4-1.4,0.4-2.2c0-0.8-0.1-1.5-0.4-2.2c-0.2-0.7-0.6-1.2-1.1-1.7c-0.5-0.5-1-0.9-1.6-1.1c-0.6-0.3-1.4-0.4-2.1-0.4
			c-0.8,0-1.5,0.1-2.1,0.4c-0.6,0.3-1.2,0.6-1.7,1.1c-0.5,0.5-0.8,1.1-1.1,1.7C165.2,33.4,165,34.2,165,34.9z"/>
		<path class="st0" d="M186.1,26.5h6.3c0.7,0,1.5,0,2.2,0.2c0.7,0.1,1.4,0.3,2,0.6c0.6,0.3,1.1,0.7,1.4,1.3c0.4,0.6,0.5,1.3,0.5,2.2
			c0,0.9-0.3,1.7-0.8,2.4c-0.5,0.6-1.2,1.1-2.1,1.3v0c0.6,0.1,1.1,0.2,1.5,0.5c0.4,0.2,0.8,0.5,1.2,0.9c0.3,0.4,0.6,0.8,0.7,1.2
			c0.2,0.5,0.3,1,0.3,1.5c0,0.9-0.2,1.6-0.6,2.2c-0.4,0.6-0.9,1.1-1.5,1.4c-0.6,0.4-1.3,0.6-2,0.8c-0.8,0.2-1.5,0.2-2.2,0.2h-6.9
			V26.5z M189.8,33.3h2.7c0.3,0,0.6,0,0.8-0.1c0.3-0.1,0.5-0.2,0.7-0.3c0.2-0.1,0.4-0.3,0.5-0.6c0.1-0.2,0.2-0.5,0.2-0.9
			c0-0.3-0.1-0.6-0.2-0.9c-0.2-0.2-0.4-0.4-0.6-0.5c-0.2-0.1-0.5-0.2-0.8-0.3c-0.3-0.1-0.6-0.1-0.9-0.1h-2.5V33.3z M189.8,40.2h3.3
			c0.3,0,0.6,0,0.9-0.1c0.3-0.1,0.6-0.2,0.8-0.3c0.2-0.2,0.4-0.4,0.6-0.6c0.2-0.3,0.2-0.6,0.2-0.9c0-0.4-0.1-0.7-0.3-1
			c-0.2-0.2-0.4-0.4-0.8-0.6c-0.3-0.1-0.6-0.2-1-0.3c-0.4,0-0.7-0.1-1-0.1h-2.8V40.2z"/>
		<path class="st0" d="M214.4,37.7c0,0.8-0.1,1.5-0.2,2.3c-0.1,0.7-0.4,1.4-0.8,1.9c-0.4,0.6-0.9,1-1.6,1.4
			c-0.7,0.3-1.6,0.5-2.8,0.5c-1.3,0-2.5-0.3-3.4-0.9c-0.9-0.6-1.5-1.6-1.8-3l3.4-0.8c0.1,0.4,0.2,0.8,0.6,1c0.3,0.3,0.7,0.4,1.1,0.4
			c0.4,0,0.8-0.1,1-0.3c0.2-0.2,0.4-0.5,0.5-0.8c0.1-0.3,0.2-0.7,0.2-1c0-0.4,0-0.7,0-1V26.5h3.7V37.7z"/>
		<path class="st0" d="M222,26.5h11.4V30h-7.7v3.1h7.3v3.4h-7.3v3.4h8.1v3.4H222V26.5z"/>
		<path class="st0" d="M252.1,30.9c-0.4-0.4-0.8-0.8-1.3-1c-0.5-0.2-1.1-0.4-1.8-0.4c-0.7,0-1.3,0.1-1.9,0.4
			c-0.6,0.3-1.1,0.6-1.5,1.1c-0.4,0.5-0.8,1.1-1,1.7c-0.2,0.7-0.4,1.4-0.4,2.2c0,0.8,0.1,1.5,0.4,2.2c0.2,0.7,0.6,1.2,1,1.7
			c0.4,0.5,0.9,0.9,1.5,1.1c0.6,0.3,1.2,0.4,1.9,0.4c0.8,0,1.4-0.2,2-0.5c0.6-0.3,1.1-0.8,1.4-1.3l3.1,2.3c-0.7,1-1.6,1.7-2.7,2.2
			c-1.1,0.5-2.2,0.7-3.4,0.7c-1.3,0-2.5-0.2-3.6-0.6c-1.1-0.4-2.1-1-2.9-1.8c-0.8-0.8-1.4-1.7-1.9-2.8c-0.4-1.1-0.7-2.3-0.7-3.7
			c0-1.3,0.2-2.6,0.7-3.7c0.5-1.1,1.1-2,1.9-2.8c0.8-0.8,1.8-1.4,2.9-1.8c1.1-0.4,2.3-0.6,3.6-0.6c0.5,0,1,0,1.5,0.1
			c0.5,0.1,1,0.2,1.5,0.4c0.5,0.2,1,0.4,1.4,0.8c0.5,0.3,0.9,0.7,1.2,1.2L252.1,30.9z"/>
		<path class="st0" d="M264.8,29.8H260v-3.3h13.3v3.3h-4.8v13.5h-3.7V29.8z"/>
	</g>
	<g>
		<path class="st0" d="M173.1,61.4c-0.4-0.4-0.8-0.8-1.3-1c-0.5-0.2-1.1-0.4-1.8-0.4s-1.3,0.1-1.9,0.4c-0.6,0.3-1.1,0.6-1.5,1.1
			c-0.4,0.5-0.8,1.1-1,1.7c-0.2,0.7-0.4,1.4-0.4,2.2c0,0.8,0.1,1.5,0.4,2.2c0.2,0.7,0.6,1.2,1,1.7c0.4,0.5,0.9,0.9,1.5,1.1
			c0.6,0.3,1.2,0.4,1.9,0.4c0.8,0,1.4-0.2,2-0.5c0.6-0.3,1.1-0.8,1.5-1.3l3.1,2.3c-0.7,1-1.6,1.7-2.7,2.2c-1.1,0.5-2.2,0.7-3.4,0.7
			c-1.3,0-2.5-0.2-3.6-0.6c-1.1-0.4-2.1-1-2.9-1.8c-0.8-0.8-1.4-1.7-1.9-2.8c-0.5-1.1-0.7-2.3-0.7-3.7c0-1.3,0.2-2.6,0.7-3.7
			c0.5-1.1,1.1-2,1.9-2.8c0.8-0.8,1.8-1.3,2.9-1.8c1.1-0.4,2.3-0.6,3.6-0.6c0.5,0,1,0,1.5,0.1c0.5,0.1,1,0.2,1.5,0.4
			c0.5,0.2,1,0.4,1.4,0.8c0.5,0.3,0.9,0.7,1.2,1.2L173.1,61.4z"/>
		<path class="st0" d="M181.7,65.4c0-1.3,0.2-2.6,0.7-3.7c0.5-1.1,1.1-2,1.9-2.8c0.8-0.8,1.8-1.3,2.9-1.8c1.1-0.4,2.3-0.6,3.6-0.6
			c1.3,0,2.5,0.2,3.6,0.6c1.1,0.4,2.1,1,2.9,1.8c0.8,0.8,1.4,1.7,1.9,2.8c0.4,1.1,0.7,2.3,0.7,3.7c0,1.3-0.2,2.6-0.7,3.7
			c-0.5,1.1-1.1,2-1.9,2.8c-0.8,0.8-1.8,1.4-2.9,1.8c-1.1,0.4-2.3,0.6-3.6,0.6c-1.3,0-2.5-0.2-3.6-0.6c-1.1-0.4-2.1-1-2.9-1.8
			c-0.8-0.8-1.4-1.7-1.9-2.8C181.9,68,181.7,66.8,181.7,65.4z M185.6,65.4c0,0.8,0.1,1.5,0.4,2.2c0.2,0.7,0.6,1.2,1.1,1.7
			c0.5,0.5,1,0.9,1.6,1.1c0.6,0.3,1.4,0.4,2.1,0.4c0.8,0,1.5-0.1,2.1-0.4c0.6-0.3,1.2-0.6,1.6-1.1c0.5-0.5,0.8-1.1,1.1-1.7
			c0.2-0.7,0.4-1.4,0.4-2.2c0-0.8-0.1-1.5-0.4-2.2c-0.2-0.7-0.6-1.2-1.1-1.7c-0.5-0.5-1-0.9-1.6-1.1c-0.6-0.3-1.4-0.4-2.1-0.4
			c-0.8,0-1.5,0.1-2.1,0.4c-0.6,0.3-1.2,0.6-1.6,1.1c-0.5,0.5-0.8,1.1-1.1,1.7C185.7,64,185.6,64.7,185.6,65.4z"/>
		<path class="st0" d="M206.6,57.1h5.6l3.9,11h0l3.9-11h5.6v16.8h-3.7V61h0l-4.4,12.9h-2.8L210.4,61h0v12.9h-3.7V57.1z"/>
		<path class="st0" d="M233.3,57.1h6.2c0.9,0,1.7,0.1,2.5,0.2c0.8,0.2,1.5,0.4,2,0.8c0.6,0.4,1,0.9,1.4,1.6c0.3,0.7,0.5,1.5,0.5,2.5
			c0,1-0.2,1.8-0.5,2.5c-0.3,0.7-0.8,1.2-1.3,1.6c-0.6,0.4-1.2,0.7-2,0.8c-0.8,0.2-1.6,0.2-2.5,0.2H237v6.6h-3.7V57.1z M237,64.2
			h2.5c0.3,0,0.7,0,1-0.1c0.3-0.1,0.6-0.2,0.8-0.3c0.2-0.1,0.4-0.4,0.6-0.6c0.1-0.3,0.2-0.6,0.2-1c0-0.4-0.1-0.8-0.3-1
			c-0.2-0.3-0.5-0.5-0.8-0.6c-0.3-0.1-0.6-0.2-1-0.3c-0.4,0-0.7-0.1-1.1-0.1H237V64.2z"/>
		<path class="st0" d="M266.6,67.4c0,1-0.2,1.9-0.5,2.8c-0.3,0.8-0.7,1.6-1.3,2.2c-0.6,0.6-1.3,1.1-2.2,1.4
			c-0.9,0.3-1.9,0.5-3.1,0.5c-1.2,0-2.2-0.2-3.1-0.5c-0.9-0.3-1.6-0.8-2.2-1.4c-0.6-0.6-1-1.3-1.3-2.2c-0.3-0.8-0.5-1.8-0.5-2.8
			V57.1h3.7v10.2c0,0.5,0.1,1,0.2,1.4c0.2,0.4,0.4,0.8,0.7,1.1c0.3,0.3,0.7,0.6,1.1,0.8c0.4,0.2,0.9,0.3,1.4,0.3
			c0.5,0,0.9-0.1,1.4-0.3c0.4-0.2,0.8-0.4,1.1-0.8c0.3-0.3,0.5-0.7,0.7-1.1c0.2-0.4,0.3-0.9,0.3-1.4V57.1h3.7V67.4z"/>
		<path class="st0" d="M277.6,60.3h-4.8v-3.3h13.3v3.3h-4.8v13.5h-3.7V60.3z"/>
		<path class="st0" d="M292.2,57.1h3.7v16.8h-3.7V57.1z"/>
		<path class="st0" d="M303.5,57.1h5l7.1,11.7h0.1V57.1h3.7v16.8h-4.8l-7.3-12h-0.1v12h-3.7V57.1z"/>
		<path class="st0" d="M342.3,72.7c-1.1,0.6-2.2,1-3.4,1.2c-1.2,0.2-2.4,0.4-3.6,0.4c-1.3,0-2.5-0.2-3.6-0.6c-1.1-0.4-2.1-1-2.9-1.8
			c-0.8-0.8-1.4-1.7-1.9-2.8c-0.4-1.1-0.7-2.3-0.7-3.7c0-1.3,0.2-2.6,0.7-3.7c0.4-1.1,1.1-2,1.9-2.8c0.8-0.8,1.8-1.3,2.9-1.8
			c1.1-0.4,2.3-0.6,3.6-0.6c1.3,0,2.6,0.2,3.7,0.5c1.1,0.3,2.1,0.9,3,1.7l-2.6,2.8c-0.5-0.5-1.1-0.9-1.7-1.2
			c-0.6-0.3-1.4-0.4-2.4-0.4c-0.8,0-1.5,0.1-2.1,0.4c-0.6,0.3-1.2,0.6-1.7,1.1c-0.5,0.5-0.8,1.1-1.1,1.7c-0.2,0.7-0.4,1.4-0.4,2.2
			c0,0.8,0.1,1.5,0.4,2.2c0.2,0.7,0.6,1.2,1.1,1.7c0.5,0.5,1,0.9,1.7,1.1c0.6,0.3,1.4,0.4,2.1,0.4c0.8,0,1.5-0.1,2.1-0.3
			c0.6-0.2,1.1-0.4,1.4-0.6v-2.7h-3v-3.4h6.6V72.7z"/>
	</g>
	<g>
		<path class="st0" d="M163.5,87.7h1.4v4.4h5.5v-4.4h1.4v10.6h-1.4v-4.9h-5.5v4.9h-1.4V87.7z"/>
		<path class="st0" d="M180.3,98.6c-0.8,0-1.6-0.1-2.2-0.4c-0.7-0.3-1.3-0.7-1.8-1.2c-0.5-0.5-0.9-1.1-1.1-1.8
			c-0.3-0.7-0.4-1.4-0.4-2.2c0-0.8,0.1-1.5,0.4-2.2c0.3-0.7,0.7-1.3,1.1-1.8c0.5-0.5,1.1-0.9,1.8-1.2c0.7-0.3,1.4-0.4,2.2-0.4
			c0.8,0,1.6,0.1,2.2,0.4c0.7,0.3,1.3,0.7,1.7,1.2c0.5,0.5,0.9,1.1,1.1,1.8c0.3,0.7,0.4,1.4,0.4,2.2c0,0.8-0.1,1.5-0.4,2.2
			c-0.3,0.7-0.7,1.3-1.1,1.8c-0.5,0.5-1.1,0.9-1.7,1.2C181.8,98.5,181.1,98.6,180.3,98.6z M180.3,97.3c0.6,0,1.2-0.1,1.7-0.3
			c0.5-0.2,0.9-0.5,1.3-0.9c0.3-0.4,0.6-0.8,0.8-1.3c0.2-0.5,0.3-1.1,0.3-1.6c0-0.6-0.1-1.1-0.3-1.6c-0.2-0.5-0.5-1-0.8-1.3
			c-0.4-0.4-0.8-0.7-1.3-0.9c-0.5-0.2-1-0.3-1.7-0.3c-0.6,0-1.2,0.1-1.7,0.3c-0.5,0.2-0.9,0.5-1.3,0.9c-0.4,0.4-0.6,0.8-0.8,1.3
			c-0.2,0.5-0.3,1.1-0.3,1.6c0,0.6,0.1,1.1,0.3,1.6c0.2,0.5,0.5,1,0.8,1.3c0.4,0.4,0.8,0.7,1.3,0.9
			C179.1,97.1,179.7,97.3,180.3,97.3z"/>
		<path class="st0" d="M188.6,87.7h2.1l3.4,8h0.1l3.3-8h2.1v10.6h-1.4v-8.7h0l-3.6,8.7h-1l-3.6-8.7h0v8.7h-1.4V87.7z"/>
		<path class="st0" d="M203.2,87.7h6.9v1.4h-5.4v3.2h5v1.3h-5V97h5.7v1.4h-7.1V87.7z"/>
		<path class="st0" d="M220.4,89.1H217v-1.4h8.3v1.4h-3.4v9.3h-1.4V89.1z"/>
		<path class="st0" d="M232.5,98.6c-0.8,0-1.6-0.1-2.2-0.4c-0.7-0.3-1.3-0.7-1.7-1.2c-0.5-0.5-0.9-1.1-1.1-1.8
			c-0.3-0.7-0.4-1.4-0.4-2.2c0-0.8,0.1-1.5,0.4-2.2c0.3-0.7,0.7-1.3,1.1-1.8c0.5-0.5,1.1-0.9,1.7-1.2c0.7-0.3,1.4-0.4,2.2-0.4
			c0.8,0,1.6,0.1,2.2,0.4c0.7,0.3,1.3,0.7,1.7,1.2c0.5,0.5,0.9,1.1,1.1,1.8c0.3,0.7,0.4,1.4,0.4,2.2c0,0.8-0.1,1.5-0.4,2.2
			c-0.3,0.7-0.7,1.3-1.1,1.8c-0.5,0.5-1.1,0.9-1.7,1.2C234,98.5,233.3,98.6,232.5,98.6z M232.5,97.3c0.6,0,1.2-0.1,1.6-0.3
			c0.5-0.2,0.9-0.5,1.3-0.9c0.3-0.4,0.6-0.8,0.8-1.3c0.2-0.5,0.3-1.1,0.3-1.6c0-0.6-0.1-1.1-0.3-1.6c-0.2-0.5-0.5-1-0.8-1.3
			c-0.4-0.4-0.8-0.7-1.3-0.9c-0.5-0.2-1-0.3-1.6-0.3c-0.6,0-1.2,0.1-1.7,0.3c-0.5,0.2-0.9,0.5-1.3,0.9c-0.3,0.4-0.6,0.8-0.8,1.3
			c-0.2,0.5-0.3,1.1-0.3,1.6c0,0.6,0.1,1.1,0.3,1.6c0.2,0.5,0.5,1,0.8,1.3c0.4,0.4,0.8,0.7,1.3,0.9
			C231.3,97.1,231.9,97.3,232.5,97.3z"/>
		<path class="st0" d="M245.8,87.7h2.1l3.4,8h0.1l3.4-8h2.1v10.6h-1.4v-8.7h0l-3.6,8.7h-1l-3.6-8.7h0v8.7h-1.4V87.7z"/>
		<path class="st0" d="M260.3,87.7h1.4v10.6h-1.4V87.7z"/>
		<path class="st0" d="M272.7,90c-0.3-0.4-0.7-0.7-1.1-0.9c-0.5-0.2-0.9-0.3-1.4-0.3c-0.6,0-1.1,0.1-1.6,0.3
			c-0.5,0.2-0.9,0.5-1.2,0.9c-0.3,0.4-0.6,0.8-0.8,1.4c-0.2,0.5-0.3,1.1-0.3,1.7c0,0.6,0.1,1.1,0.3,1.6c0.2,0.5,0.4,0.9,0.8,1.3
			c0.3,0.4,0.8,0.7,1.2,0.9c0.5,0.2,1,0.3,1.7,0.3c0.6,0,1.1-0.1,1.6-0.4c0.5-0.3,0.8-0.6,1.2-1l1.2,0.9c-0.1,0.1-0.2,0.3-0.4,0.5
			c-0.2,0.2-0.5,0.4-0.8,0.6c-0.3,0.2-0.7,0.4-1.2,0.5c-0.5,0.2-1,0.2-1.6,0.2c-0.8,0-1.6-0.2-2.3-0.5c-0.7-0.3-1.3-0.7-1.7-1.3
			c-0.5-0.5-0.8-1.1-1.1-1.8c-0.2-0.7-0.4-1.3-0.4-2c0-0.8,0.1-1.6,0.4-2.3c0.3-0.7,0.7-1.3,1.1-1.8c0.5-0.5,1.1-0.9,1.7-1.2
			c0.7-0.3,1.4-0.4,2.3-0.4c0.7,0,1.4,0.1,2.1,0.4c0.7,0.3,1.2,0.7,1.7,1.2L272.7,90z"/>
		<path class="st0" d="M276.7,87.7h3.7c0.7,0,1.2,0.1,1.7,0.3c0.4,0.2,0.8,0.4,1,0.7c0.3,0.3,0.4,0.6,0.5,1c0.1,0.4,0.1,0.7,0.1,1
			c0,0.3-0.1,0.7-0.2,1c-0.1,0.3-0.3,0.6-0.5,0.9c-0.2,0.3-0.5,0.5-0.8,0.6c-0.3,0.2-0.7,0.3-1.1,0.3l3,4.8h-1.8l-2.7-4.7h-1.6v4.7
			h-1.4V87.7z M278.2,92.4h1.9c0.3,0,0.6,0,0.8-0.1c0.3,0,0.5-0.1,0.7-0.2c0.2-0.1,0.4-0.3,0.5-0.5c0.1-0.2,0.2-0.5,0.2-0.9
			c0-0.4-0.1-0.7-0.2-0.9c-0.1-0.2-0.3-0.4-0.5-0.5c-0.2-0.1-0.5-0.2-0.7-0.2c-0.3,0-0.6-0.1-0.8-0.1h-1.9V92.4z"/>
		<path class="st0" d="M291.6,98.6c-0.8,0-1.6-0.1-2.2-0.4c-0.7-0.3-1.3-0.7-1.7-1.2c-0.5-0.5-0.9-1.1-1.1-1.8
			c-0.3-0.7-0.4-1.4-0.4-2.2c0-0.8,0.1-1.5,0.4-2.2c0.3-0.7,0.7-1.3,1.1-1.8c0.5-0.5,1.1-0.9,1.7-1.2c0.7-0.3,1.4-0.4,2.2-0.4
			c0.8,0,1.6,0.1,2.2,0.4c0.7,0.3,1.3,0.7,1.7,1.2c0.5,0.5,0.9,1.1,1.1,1.8c0.3,0.7,0.4,1.4,0.4,2.2c0,0.8-0.1,1.5-0.4,2.2
			c-0.3,0.7-0.7,1.3-1.1,1.8c-0.5,0.5-1.1,0.9-1.7,1.2C293.2,98.5,292.4,98.6,291.6,98.6z M291.6,97.3c0.6,0,1.2-0.1,1.7-0.3
			c0.5-0.2,0.9-0.5,1.3-0.9c0.4-0.4,0.6-0.8,0.8-1.3c0.2-0.5,0.3-1.1,0.3-1.6c0-0.6-0.1-1.1-0.3-1.6c-0.2-0.5-0.5-1-0.8-1.3
			c-0.3-0.4-0.8-0.7-1.3-0.9c-0.5-0.2-1-0.3-1.7-0.3c-0.6,0-1.2,0.1-1.7,0.3c-0.5,0.2-0.9,0.5-1.3,0.9c-0.3,0.4-0.6,0.8-0.8,1.3
			c-0.2,0.5-0.3,1.1-0.3,1.6c0,0.6,0.1,1.1,0.3,1.6c0.2,0.5,0.5,1,0.8,1.3c0.4,0.4,0.8,0.7,1.3,0.9C290.5,97.1,291,97.3,291.6,97.3z
			"/>
		<path class="st0" d="M300.1,87.7h1.9l5.9,8.7h0v-8.7h1.4v10.6h-1.8l-5.9-8.7h0v8.7h-1.4V87.7z"/>
		<path class="st0" d="M316.2,87.7h1.3l4.5,10.6h-1.7l-1.1-2.6h-5.1l-1,2.6h-1.7L316.2,87.7z M318.8,94.4l-2-4.9h0l-2,4.9H318.8z"/>
		<path class="st0" d="M325.5,87.7v6.5c0,0.3,0,0.7,0.1,1c0.1,0.4,0.2,0.7,0.4,1c0.2,0.3,0.5,0.5,0.8,0.7c0.3,0.2,0.8,0.3,1.3,0.3
			c0.5,0,0.9-0.1,1.3-0.3c0.3-0.2,0.6-0.4,0.8-0.7c0.2-0.3,0.4-0.6,0.4-1c0.1-0.4,0.1-0.7,0.1-1v-6.5h1.4v6.7c0,0.6-0.1,1.2-0.3,1.7
			c-0.2,0.5-0.5,0.9-0.9,1.3c-0.4,0.4-0.8,0.7-1.3,0.9c-0.5,0.2-1,0.3-1.6,0.3c-0.6,0-1.1-0.1-1.6-0.3c-0.5-0.2-0.9-0.5-1.3-0.9
			c-0.4-0.4-0.7-0.8-0.9-1.3c-0.2-0.5-0.3-1.1-0.3-1.7v-6.7H325.5z"/>
		<path class="st0" d="M337.9,89.1h-3.4v-1.4h8.3v1.4h-3.4v9.3h-1.4V89.1z"/>
	</g>
</g>
</svg>
